<?xml version="1.0" encoding="UTF-8" standalone="no"?>
<!-- Created with Inkscape (http://www.inkscape.org/) -->

<svg
   xmlns:dc="http://purl.org/dc/elements/1.1/"
   xmlns:cc="http://creativecommons.org/ns#"
   xmlns:rdf="http://www.w3.org/1999/02/22-rdf-syntax-ns#"
   xmlns:svg="http://www.w3.org/2000/svg"
   xmlns="http://www.w3.org/2000/svg"
   xmlns:sodipodi="http://sodipodi.sourceforge.net/DTD/sodipodi-0.dtd"
   xmlns:inkscape="http://www.inkscape.org/namespaces/inkscape"
   width="33.400002mm"
   height="12.8mm"
   viewBox="0 0 31.312501 12"
   version="1.1"
   id="svg21608"
   inkscape:version="0.91 r13725"
   sodipodi:docname="BMO_Harris_Bank_logo.svg">
  <defs
     id="defs21602">
    <clipPath
       id="clipPath21077"
       clipPathUnits="userSpaceOnUse">
      <path
         inkscape:connector-curvature="0"
         id="path21075"
         d="m 377.978,104.005 198.024,0 0,33.796 -198.024,0 z" />
    </clipPath>
  </defs>
  <sodipodi:namedview
     id="base"
     pagecolor="#ffffff"
     bordercolor="#666666"
     borderopacity="1.0"
     inkscape:pageopacity="0.0"
     inkscape:pageshadow="2"
     inkscape:zoom="4.2956953"
     inkscape:cx="94.85987"
     inkscape:cy="-10.474791"
     inkscape:document-units="mm"
     inkscape:current-layer="g4248"
     showgrid="false"
     fit-margin-top="0"
     fit-margin-left="0"
     fit-margin-right="0"
     fit-margin-bottom="0"
     units="mm"
     inkscape:window-width="2560"
     inkscape:window-height="1377"
     inkscape:window-x="2552"
     inkscape:window-y="-8"
     inkscape:window-maximized="1" />
  <metadata
     id="metadata21605">
    <rdf:RDF>
      <cc:Work
         rdf:about="">
        <dc:format>image/svg+xml</dc:format>
        <dc:type
           rdf:resource="http://purl.org/dc/dcmitype/StillImage" />
        <dc:title></dc:title>
      </cc:Work>
    </rdf:RDF>
  </metadata>
  <g
     inkscape:label="Layer 1"
     inkscape:groupmode="layer"
     id="layer1"
     transform="translate(-56.541059,-160.9374)">
    <g
       id="g4248">
      <g
         id="g4264"
         transform="translate(-0.08416743,0.10883454)">
        <g
           id="g21079"
           transform="matrix(0.35277777,0,0,-0.35277777,59.739341,168.22842)">
          <path
             d="m 0,0 c 0,-1.904 -0.638,-2.815 -2.858,-2.815 l -1.383,0 0,5.333 1.474,0 C -0.75,2.518 0,1.805 0,0 m 2.974,-0.198 c 0,2.217 -1.806,3.014 -3.999,3.064 l 0,0.083 c 1.864,0.148 3.396,0.933 3.396,2.819 0,2.094 -1.733,2.486 -3.67,2.486 -2.331,0 -5.067,-0.064 -7.392,0 l 0,-0.586 c 0.495,0.033 1.685,-0.033 1.685,-0.65 l 0,-9.204 c 0,-0.596 -1.226,-0.696 -1.685,-0.696 l 0,-0.569 c 2.252,0.068 4.915,0 7.171,0 2.375,0 4.494,0.82 4.494,3.253 m -3.446,5.615 c 0,-1.468 -0.644,-2.286 -2.332,-2.286 l -1.437,0 0,4.504 c 0.183,0.017 0.795,0.033 0.978,0.033 l 0.496,0 c 1.723,0 2.295,-0.767 2.295,-2.251"
             style="fill:#0079c1;fill-opacity:1;fill-rule:nonzero;stroke:none"
             id="path21081"
             inkscape:connector-curvature="0" />
        </g>
        <g
           id="g21083"
           transform="matrix(0.35277777,0,0,-0.35277777,66.091775,169.43911)">
          <path
             d="m 0,0 c -1.043,0 -2.086,0.015 -3.128,-0.018 l 0,0.586 c 0.476,0 1.79,0.032 1.79,0.68 l 0,8.574 -0.036,0 -4.791,-9.973 -0.494,0 -4.662,9.973 -0.036,0 0,-8.574 c 0,-0.666 1.372,-0.68 1.865,-0.68 l 0.019,-0.586 c -1.3,0.053 -3.077,0.085 -4.359,0 l 0,0.586 c 0.496,0 1.685,0.048 1.685,0.68 l 0,9.189 c 0,0.615 -1.226,0.664 -1.685,0.664 l -0.017,0.585 c 1.483,-0.064 3.076,-0.064 4.558,0 l 3.987,-8.36 4.058,8.343 c 1.43,-0.062 2.967,-0.047 4.394,0.017 l 0,-0.585 c -0.476,0 -1.719,-0.034 -1.719,-0.664 l 0,-9.189 c 0,-0.648 1.225,-0.68 1.719,-0.68 l 0,-0.586 C 2.104,0.015 1.044,0 0,0"
             style="fill:#0079c1;fill-opacity:1;fill-rule:nonzero;stroke:none"
             id="path21085"
             inkscape:connector-curvature="0" />
        </g>
        <g
           id="g21087"
           transform="matrix(0.35277777,0,0,-0.35277777,72.170383,167.37349)">
          <path
             d="m 0,0 c 0,3.867 -2.363,6.035 -6.624,6.035 -4.262,0 -6.643,-2.151 -6.643,-6.035 0,-3.885 2.361,-6.053 6.643,-6.053 C -2.346,-6.053 0,-3.885 0,0 m -3.095,0 c 0,-2.286 -0.221,-5.468 -3.529,-5.468 -3.31,0 -3.548,3.182 -3.548,5.468 0,2.282 0.238,5.45 3.548,5.45 3.29,0 3.529,-3.183 3.529,-5.45"
             style="fill:#0079c1;fill-opacity:1;fill-rule:nonzero;stroke:none"
             id="path21089"
             inkscape:connector-curvature="0" />
        </g>
        <g
           id="g21091"
           transform="matrix(0.35277777,0,0,-0.35277777,80.657652,160.8827)">
          <path
             d="m 0,0 c -9.328,0 -16.898,-7.568 -16.898,-16.899 0,-9.333 7.57,-16.897 16.898,-16.897 9.337,0 16.903,7.564 16.903,16.897 C 16.903,-7.568 9.337,0 0,0"
             style="fill:#ed1d24;fill-opacity:1;fill-rule:nonzero;stroke:none"
             id="path21093"
             inkscape:connector-curvature="0" />
        </g>
        <g
           id="g21095"
           transform="matrix(0.35277777,0,0,-0.35277777,80.476183,165.02477)">
          <path
             d="m 0,0 -2.934,3.825 c -0.119,0.157 -0.308,0.259 -0.521,0.259 -0.206,0 -0.39,-0.096 -0.51,-0.246 l -3.493,-4.402 0,-6.898 3.473,4.451 c 0.123,0.157 0.315,0.258 0.53,0.258 0.218,0 0.412,-0.104 0.536,-0.264 l 2.948,-3.855 c 0.111,-0.148 0.288,-0.243 0.487,-0.243 0.199,0 0.376,0.095 0.488,0.243 l 2.948,3.855 c 0.124,0.16 0.317,0.264 0.535,0.264 0.216,0 0.407,-0.101 0.53,-0.258 l 3.473,-4.451 0,6.898 -3.492,4.402 C 4.878,3.988 4.694,4.084 4.487,4.084 4.274,4.084 4.086,3.982 3.966,3.825 L 1.032,0 C 0.913,-0.154 0.726,-0.253 0.516,-0.253 0.306,-0.253 0.119,-0.154 0,0 m -7.458,-7.462 15.948,0 0,-5.06 -15.948,0 z"
             style="fill:#ffffff;fill-opacity:1;fill-rule:nonzero;stroke:none"
             id="path21097"
             inkscape:connector-curvature="0" />
        </g>
        <g
           id="g21139"
           transform="matrix(0.35277777,0,0,-0.35277777,87.219848,164.05082)">
          <path
             d="m 0,0 c -0.939,0 -1.7,0.776 -1.7,1.73 0,0.956 0.761,1.729 1.7,1.729 0.939,0 1.701,-0.773 1.701,-1.729 C 1.701,0.776 0.939,0 0,0 m 0,3.739 c -1.109,0 -2.007,-0.899 -2.007,-2.009 0,-1.108 0.898,-2.008 2.007,-2.008 1.108,0 2.007,0.9 2.007,2.008 0,1.11 -0.899,2.009 -2.007,2.009"
             style="fill:#0079c1;fill-opacity:1;fill-rule:nonzero;stroke:none"
             id="path21141"
             inkscape:connector-curvature="0" />
        </g>
        <g
           id="g21143"
           transform="matrix(0.35277777,0,0,-0.35277777,87.062332,163.40069)">
          <path
             d="m 0,0 0,0.799 0.483,0 C 0.892,0.799 1.078,0.677 1.078,0.398 1.078,0.119 0.892,0 0.483,0 L 0,0 m 1.376,0.389 c 0,0.447 -0.26,0.651 -0.762,0.651 l -0.893,0 0,-2.305 0.279,0 0,1.022 0.483,0 0.65,-1.022 0.336,0 -0.689,1.022 c 0.37,0.059 0.596,0.311 0.596,0.632"
             style="fill:#0079c1;fill-opacity:1;fill-rule:nonzero;stroke:none"
             id="path21145"
             inkscape:connector-curvature="0" />
        </g>
      </g>
    </g>
  </g>
</svg>
