<?xml version="1.0" encoding="UTF-8" standalone="no"?>
<svg
   xmlns:dc="http://purl.org/dc/elements/1.1/"
   xmlns:cc="http://creativecommons.org/ns#"
   xmlns:rdf="http://www.w3.org/1999/02/22-rdf-syntax-ns#"
   xmlns:svg="http://www.w3.org/2000/svg"
   xmlns="http://www.w3.org/2000/svg"
   viewBox="0 0 390.35999 103.61333"
   height="103.61333"
   width="390.35999"
   xml:space="preserve"
   id="svg2"
   version="1.1"><metadata
     id="metadata8"><rdf:RDF><cc:Work
         rdf:about=""><dc:format>image/svg+xml</dc:format><dc:type
           rdf:resource="http://purl.org/dc/dcmitype/StillImage" /></cc:Work></rdf:RDF></metadata><defs
     id="defs6"><clipPath
       id="clipPath20"
       clipPathUnits="userSpaceOnUse"><path
         id="path18"
         d="M 0,0 H 2927.67 V 777 H 0 Z" /></clipPath></defs><g
     transform="matrix(1.3333333,0,0,-1.3333333,0,103.61333)"
     id="g10"><g
       transform="scale(0.1)"
       id="g12"><g
         id="g14"><g
           clip-path="url(#clipPath20)"
           id="g16"><path
             id="path22"
             style="fill:#232a5f;fill-opacity:1;fill-rule:nonzero;stroke:none"
             d="m 637.348,297.777 c 12.789,3.032 33.312,5.051 53.504,5.051 29.269,0 48.113,-5.051 61.906,-16.488 11.777,-8.746 19.18,-22.207 19.18,-40.039 0,-22.207 -14.805,-41.391 -38.36,-49.801 v -1.008 c 21.539,-5.047 46.774,-22.879 46.774,-56.527 0,-19.516 -7.739,-34.32 -19.516,-45.4259 -15.481,-14.4688 -41.051,-21.1953 -78.063,-21.1953 -20.191,0 -35.664,1.3437 -45.425,2.6914 z m 29.273,-92.867 h 26.582 c 30.621,0 48.789,16.492 48.789,38.36 0,26.246 -19.847,37.011 -49.465,37.011 -13.457,0 -21.195,-1.008 -25.906,-2.015 z m 0,-108.3436 c 6.059,-1.0117 14.137,-1.3476 24.567,-1.3476 30.281,0 58.207,11.1052 58.207,44.0822 0,30.617 -26.582,43.742 -58.543,43.742 H 666.621 V 96.5664" /><path
             id="path24"
             style="fill:#232a5f;fill-opacity:1;fill-rule:nonzero;stroke:none"
             d="m 886.637,70.6602 c -43.746,0 -78.063,32.3008 -78.063,83.7808 0,54.508 36,86.477 80.75,86.477 46.774,0 78.403,-33.984 78.403,-83.445 0,-60.5707 -42.063,-86.8128 -80.754,-86.8128 z m 1.008,22.207 c 28.261,0 49.46,26.5818 49.46,63.5938 0,27.594 -13.792,62.246 -48.789,62.246 -34.656,0 -49.796,-32.301 -49.796,-63.258 0,-35.664 20.187,-62.5818 48.789,-62.5818 h 0.336" /><path
             id="path26"
             style="fill:#232a5f;fill-opacity:1;fill-rule:nonzero;stroke:none"
             d="m 1141.34,118.773 c 0,-16.82 0.34,-31.6246 1.35,-44.4136 h -26.24 l -1.69,26.5816 h -0.67 c -7.4,-13.1246 -24.9,-30.2808 -53.84,-30.2808 -25.57,0 -56.19,14.4687 -56.19,71.3318 v 95.227 h 29.61 v -89.84 c 0,-30.957 9.76,-52.1602 36.34,-52.1602 19.85,0 33.65,13.8012 39.03,27.2582 1.69,4.035 2.69,9.421 2.69,15.14 v 99.602 h 29.61 V 118.773" /><path
             id="path28"
             style="fill:#232a5f;fill-opacity:1;fill-rule:nonzero;stroke:none"
             d="m 1190.47,193.137 c 0,17.16 -0.34,30.617 -1.35,44.082 h 26.25 l 1.68,-26.582 h 0.67 c 8.08,15.14 26.92,30.281 53.84,30.281 22.54,0 57.54,-13.461 57.54,-69.316 V 74.3594 h -29.61 v 93.8786 c 0,26.242 -9.76,48.45 -37.69,48.45 -19.18,0 -34.32,-13.793 -39.71,-30.282 -1.34,-3.703 -2.01,-9.082 -2.01,-13.793 V 74.3594 h -29.61 V 193.137" /><path
             id="path30"
             style="fill:#232a5f;fill-opacity:1;fill-rule:nonzero;stroke:none"
             d="M 1517.86,313.258 V 116.422 c 0,-14.469 0.33,-30.9572 1.34,-42.0626 h -26.58 l -1.35,28.2616 h -0.67 c -9.09,-18.1679 -28.6,-31.9608 -55.18,-31.9608 -39.37,0 -69.99,33.3088 -69.99,82.7738 -0.34,54.504 33.65,87.484 73.02,87.484 25.23,0 42.06,-11.777 49.12,-24.566 h 0.68 v 96.906 z M 1488.25,170.93 c 0,4.035 -0.34,8.75 -1.35,12.785 -4.38,18.508 -20.53,33.984 -42.73,33.984 -30.62,0 -48.79,-26.918 -48.79,-62.586 0,-33.312 16.49,-60.5622 48.11,-60.5622 19.85,0 38.02,13.4572 43.41,35.3282 1.01,4.035 1.35,8.074 1.35,12.785 v 28.266" /><path
             id="path32"
             style="fill:#232a5f;fill-opacity:1;fill-rule:nonzero;stroke:none"
             d="m 1681.71,113.395 c 0,-14.1372 0.68,-27.9302 2.36,-39.0356 h -26.58 l -2.69,20.5273 h -1.02 c -8.74,-12.789 -26.58,-24.2265 -49.79,-24.2265 -32.98,0 -49.8,23.2187 -49.8,46.7658 0,39.371 34.99,60.902 97.91,60.566 v 3.363 c 0,13.465 -3.7,38.024 -37.01,37.688 -15.48,0 -31.29,-4.371 -42.73,-12.109 l -6.73,19.847 c 13.46,8.414 33.31,14.137 53.84,14.137 50.13,0 62.24,-33.984 62.24,-66.625 z m -28.93,44.078 c -32.31,0.672 -68.98,-5.051 -68.98,-36.676 0,-19.52 12.79,-28.2697 27.59,-28.2697 21.53,0 35.33,13.4647 40.04,27.2577 1.02,3.028 1.35,6.391 1.35,9.418 v 28.27" /><path
             id="path34"
             style="fill:#232a5f;fill-opacity:1;fill-rule:nonzero;stroke:none"
             d="m 1729.5,186.406 c 0,19.18 -0.34,35.668 -1.35,50.813 h 25.91 l 1.35,-31.969 h 1 c 7.4,21.867 25.58,35.668 45.42,35.668 3.04,0 5.39,-0.336 8.08,-1.012 v -27.593 c -3.36,0.339 -6.39,0.675 -10.43,0.675 -20.86,0 -35.67,-15.816 -39.7,-37.683 -0.67,-4.375 -1.02,-9.09 -1.02,-14.133 V 74.3594 h -29.6 l 0.34,112.0466" /><path
             id="path36"
             style="fill:#232a5f;fill-opacity:1;fill-rule:nonzero;stroke:none"
             d="m 1858,237.219 35.33,-96.239 c 4.04,-10.765 8.07,-23.554 10.77,-33.308 h 0.67 c 3.03,9.754 6.4,22.207 10.43,33.984 l 32.3,95.563 h 31.29 L 1934.38,121.133 C 1913.18,65.2734 1898.72,36.6758 1878.52,18.8438 1863.72,6.39063 1849.58,1.34375 1842.18,0 l -7.4,24.8984 c 7.4,2.0196 17.16,6.7266 25.91,14.4649 8.07,6.3984 17.83,17.8398 24.9,32.9805 1.35,3.0273 2.35,5.0429 2.35,7.0664 0,1.6796 -0.67,4.0351 -2.35,7.4023 L 1825.7,237.219 h 32.3" /><path
             id="path38"
             style="fill:#232a5f;fill-opacity:1;fill-rule:nonzero;stroke:none"
             d="m 2251,84.4531 c -13.12,-5.0429 -39.37,-12.4453 -69.99,-12.4453 -34.33,0 -62.59,8.7461 -84.79,29.9452 -19.52,18.844 -31.64,49.125 -31.64,84.453 0,67.633 46.78,117.094 122.83,117.094 26.24,0 47.1,-5.723 56.85,-10.43 l -7.4,-23.89 c -12.11,5.718 -27.25,9.754 -50.13,9.754 -55.18,0 -91.19,-34.317 -91.19,-91.18 0,-57.539 34.33,-91.5235 87.49,-91.5235 19.18,0 32.3,2.6914 39.03,6.0585 v 67.629 h -45.77 v 23.555 H 2251 V 84.4531" /><path
             id="path40"
             style="fill:#232a5f;fill-opacity:1;fill-rule:nonzero;stroke:none"
             d="m 2295.4,186.406 c 0,19.18 -0.35,35.668 -1.35,50.813 h 25.91 l 1.34,-31.969 h 1.01 c 7.4,21.867 25.58,35.668 45.43,35.668 3.03,0 5.38,-0.336 8.08,-1.012 v -27.593 c -3.37,0.339 -6.4,0.675 -10.44,0.675 -20.86,0 -35.67,-15.816 -39.7,-37.683 -0.68,-4.375 -1.02,-9.09 -1.02,-14.133 V 74.3594 h -29.61 l 0.35,112.0466" /><path
             id="path42"
             style="fill:#232a5f;fill-opacity:1;fill-rule:nonzero;stroke:none"
             d="m 2469.4,70.6602 c -43.74,0 -78.07,32.3008 -78.07,83.7808 0,54.508 36.01,86.477 80.75,86.477 46.78,0 78.4,-33.984 78.4,-83.445 0,-60.5707 -42.06,-86.8128 -80.75,-86.8128 z m 1.01,22.207 c 28.26,0 49.46,26.5818 49.46,63.5938 0,27.594 -13.8,62.246 -48.79,62.246 -34.66,0 -49.8,-32.301 -49.8,-63.258 0,-35.664 20.19,-62.5818 48.79,-62.5818 h 0.34" /><path
             id="path44"
             style="fill:#232a5f;fill-opacity:1;fill-rule:nonzero;stroke:none"
             d="m 2724.11,118.773 c 0,-16.82 0.33,-31.6246 1.34,-44.4136 h -26.25 l -1.68,26.5816 h -0.67 c -7.4,-13.1246 -24.9,-30.2808 -53.84,-30.2808 -25.56,0 -56.19,14.4687 -56.19,71.3318 v 95.227 h 29.61 v -89.84 c 0,-30.957 9.77,-52.1602 36.34,-52.1602 19.85,0 33.65,13.8012 39.03,27.2582 1.69,4.035 2.7,9.421 2.7,15.14 v 99.602 h 29.61 V 118.773" /><path
             id="path46"
             style="fill:#232a5f;fill-opacity:1;fill-rule:nonzero;stroke:none"
             d="m 2773.23,184.055 c 0,20.855 -0.33,37.683 -1.35,53.164 h 26.58 l 1.69,-27.934 h 0.67 c 11.77,20.192 31.29,31.633 57.53,31.633 39.71,0 69.32,-33.316 69.32,-82.773 0,-58.5512 -36,-87.4848 -74.02,-87.4848 -21.88,0 -40.38,9.4218 -50.14,25.5703 h -0.67 V 7.73828 h -29.61 z m 29.61,-43.41 c 0,-4.04 0.34,-8.411 1.34,-12.11 5.05,-20.527 23.22,-34.6561 44.09,-34.6561 31.29,0 49.46,25.5701 49.46,62.9181 0,32.637 -16.83,60.566 -48.13,60.566 -20.18,0 -39.36,-14.133 -45.08,-36.34 -0.67,-4.035 -1.68,-8.41 -1.68,-12.113 v -28.265" /><path
             id="path48"
             style="fill:#232a5f;fill-opacity:1;fill-rule:nonzero;stroke:none"
             d="m 641.184,622.777 c 18.168,2.696 39.367,4.711 62.586,4.711 42.054,0 72,-9.418 91.855,-27.929 20.527,-18.504 32.301,-45.082 32.301,-81.762 0,-37.012 -11.774,-67.293 -32.637,-88.152 -21.535,-21.204 -56.527,-32.637 -100.605,-32.637 -21.2,0 -38.36,0.668 -53.5,2.687 z m 29.609,-200.875 c 7.398,-1.347 18.168,-1.347 29.605,-1.347 62.59,-0.336 96.575,34.996 96.575,96.238 0.336,54.168 -29.946,87.48 -91.86,87.48 -15.14,0 -26.582,-1.343 -34.32,-3.027 V 421.902" /><path
             id="path50"
             style="fill:#232a5f;fill-opacity:1;fill-rule:nonzero;stroke:none"
             d="m 879.387,591.824 c -11.106,0 -18.508,8.746 -18.508,19.176 0,10.434 7.738,18.844 19.18,18.844 11.441,0 18.843,-8.41 18.843,-18.844 0,-10.43 -7.402,-19.176 -19.179,-19.176 z M 865.254,399.023 v 162.856 h 29.609 V 399.023 h -29.609" /><path
             id="path52"
             style="fill:#232a5f;fill-opacity:1;fill-rule:nonzero;stroke:none"
             d="m 1083.29,422.914 c 0,-37.684 -7.74,-60.23 -23.22,-74.695 -16.15,-14.473 -39.03,-19.52 -59.56,-19.52 -19.51,0 -41.045,4.715 -54.166,13.457 l 7.402,22.883 c 10.766,-7.066 27.586,-13.121 47.774,-13.121 30.29,0 52.49,15.812 52.49,57.199 v 17.836 h -0.67 c -8.75,-15.14 -26.58,-27.258 -51.82,-27.258 -40.372,0 -69.309,34.325 -69.309,79.746 0,55.184 36.004,86.141 73.689,86.141 28.26,0 43.4,-14.473 50.8,-27.93 h 0.68 l 1.01,24.227 h 26.24 c -1.01,-11.441 -1.34,-24.566 -1.34,-44.418 z m -29.61,75.035 c 0,4.707 -0.34,9.082 -1.68,13.121 -5.39,17.493 -19.52,31.629 -41.39,31.629 -28.266,0 -48.454,-23.89 -48.454,-61.914 0,-31.625 16.489,-58.543 48.114,-58.543 18.51,0 34.99,11.438 41.05,30.617 1.68,4.707 2.36,10.43 2.36,15.813 v 29.277" /><path
             id="path54"
             style="fill:#232a5f;fill-opacity:1;fill-rule:nonzero;stroke:none"
             d="m 1146.21,591.824 c -11.11,0 -18.51,8.746 -18.51,19.176 0,10.434 7.73,18.844 19.18,18.844 11.44,0 18.84,-8.41 18.84,-18.844 0,-10.43 -7.4,-19.176 -19.18,-19.176 z m -14.14,-192.801 v 162.856 h 29.61 V 399.023 h -29.61" /><path
             id="path56"
             style="fill:#232a5f;fill-opacity:1;fill-rule:nonzero;stroke:none"
             d="m 1246.47,600.906 v -39.027 h 42.4 v -22.543 h -42.4 v -87.824 c 0,-20.188 5.72,-31.629 22.21,-31.629 8.07,0 12.78,0.672 17.16,2.019 l 1.34,-22.543 c -5.72,-2.019 -14.8,-4.039 -26.24,-4.039 -13.8,0 -24.9,4.715 -31.97,12.453 -8.07,9.082 -11.44,23.551 -11.44,42.731 v 88.832 h -25.23 v 22.543 h 25.23 v 29.945 l 28.94,9.082" /><path
             id="path58"
             style="fill:#232a5f;fill-opacity:1;fill-rule:nonzero;stroke:none"
             d="m 1436.91,438.055 c 0,-14.133 0.68,-27.926 2.36,-39.032 h -26.58 l -2.69,20.528 h -1.02 c -8.74,-12.789 -26.57,-24.231 -49.79,-24.231 -32.97,0 -49.8,23.219 -49.8,46.774 0,39.367 34.99,60.898 97.91,60.562 v 3.364 c 0,13.46 -3.7,38.023 -37.01,37.687 -15.48,0 -31.29,-4.371 -42.73,-12.109 l -6.73,19.847 c 13.46,8.414 33.31,14.137 53.84,14.137 50.13,0 62.24,-33.984 62.24,-66.629 z m -28.93,44.078 c -32.31,0.676 -68.98,-5.047 -68.98,-36.672 0,-19.52 12.79,-28.27 27.59,-28.27 21.53,0 35.33,13.461 40.04,27.258 1.01,3.028 1.35,6.391 1.35,9.418 v 28.266" /><path
             id="path60"
             style="fill:#232a5f;fill-opacity:1;fill-rule:nonzero;stroke:none"
             d="m 1484.36,399.023 h 29.6016 V 637.921 H 1484.36 Z" /><path
             id="path62"
             style="fill:#927f3b;fill-opacity:1;fill-rule:nonzero;stroke:none"
             d="m 433.32,656.715 c -12.199,-40.031 -31.136,-102.301 -40.027,-131.543 12.113,-4.981 24.016,-11.067 35.469,-19.383 15.926,-11.664 29.176,-26 39.199,-42.371 17.562,-27.629 27.309,-61.879 28.93,-101.852 0.433,-10.378 0.281,-21.05 -0.368,-31.949 -1.089,-27.652 -6.179,-56.922 -15.269,-87.387 -0.215,-0.746 -0.492,-1.468 -0.762,-2.191 -0.125,-0.434 -0.238,-0.863 -0.363,-1.301 19.172,27.825 34.766,59.192 45.105,93.864 37.879,126.75 -2.671,255.812 -91.914,324.113" /><path
             id="path64"
             style="fill:#927f3b;fill-opacity:1;fill-rule:nonzero;stroke:none"
             d="m 135.195,562.605 c 17.575,8.329 36.5,13.059 56.293,14.059 14.114,0.688 27.426,-0.762 40.242,-3.242 8.52,29.055 26.567,90.59 38.344,130.793 C 159.203,694.691 56.0898,609.496 18.5742,483.934 9.15625,452.34 4.78125,420.648 4.60547,389.734 c 8.98433,28.852 20.37893,54.832 34.07423,77.551 5.2851,9.184 10.8516,17.938 16.7344,26.149 23.2929,32.523 50.2069,55.847 79.7809,69.171" /><path
             id="path66"
             style="fill:#ffffff;fill-opacity:1;fill-rule:nonzero;stroke:none"
             d="m 479.938,238.438 c 0.066,0.097 0.125,0.203 0.191,0.3 0.125,0.438 0.238,0.867 0.363,1.301 -0.195,-0.531 -0.379,-1.055 -0.554,-1.601" /><path
             id="path68"
             style="fill:#ffffff;fill-opacity:1;fill-rule:nonzero;stroke:none"
             d="m 237.539,78.7383 c 5.598,-1.1758 11.215,-2.0899 16.848,-2.8242 -0.942,0.3203 -1.852,0.5976 -2.223,0.6953 0.02,0.0664 0.039,0.1289 0.059,0.1914 -4.493,1.0898 -9.293,2.418 -14.125,3.7695 l -0.559,-1.832" /><path
             id="path70"
             style="fill:#232a5f;fill-opacity:1;fill-rule:nonzero;stroke:none"
             d="m 0,268.152 c 1.23047,-33.078 8.98438,-61.621 23.3086,-85.652 11.0898,-18.434 23.8945,-32.383 38.4102,-41.797 14.5468,-9.433 35.7656,-18.332 63.7852,-26.695 2.656,-0.801 6.469,-1.852 11.336,-3.149 4.844,-1.308 7.723,-2.105 8.613,-2.367 0,0.024 0.012,0.047 0.043,0.086 10.203,34.918 22.442,76.606 36.707,124.985 14.242,48.429 30.293,102.589 48.192,162.449 22.609,75.746 45.07,150.472 67.402,224.117 17.422,57.449 28.476,93.934 33.332,110.047 -12.52,1.547 -25.078,2.07 -37.598,1.472 L 240.957,552.715 c -15.758,4.703 -32.668,6.578 -50.816,5.703 -18.145,-0.902 -35.223,-5.172 -51.192,-12.734 C 111.797,533.422 87.5,512.348 66.1016,482.484 44.707,452.613 27.5469,416.129 14.668,373.063 10.2227,358.109 7.03516,343.539 4.5625,329.223 0.980469,308.242 -0.71875,287.82 0,268.152 Z m 51.4063,96.914 c 9.7109,32.528 22.246,59.657 37.6093,81.414 15.3554,21.766 32.3164,36.942 50.9414,45.571 11.789,5.394 24.93,8.558 39.422,9.472 14.453,0.915 29.055,-0.816 43.766,-5.21 -4.153,-13.864 -8.223,-27.586 -12.282,-41.153 -4.086,-13.59 -7.765,-26.035 -11.183,-37.355 -24.207,-81.18 -42.282,-141.645 -54.16,-181.371 -11.883,-39.754 -18.184,-60.918 -18.938,-63.446 -1.133,0.332 -2.133,0.621 -3.035,0.883 -0.875,0.27 -1.789,0.559 -2.649,0.809 -14.089,4.207 -26.7886,10.851 -38.0542,19.929 -11.3243,9.071 -20.5274,20.364 -27.6719,33.922 -8.0586,15.34 -12.9024,34.629 -14.4688,57.914 -1.5664,23.274 1.9922,49.469 10.7032,78.621" /><path
             id="path72"
             style="fill:#232a5f;fill-opacity:1;fill-rule:nonzero;stroke:none"
             d="m 481.938,358.266 c -1.512,36.73 -10.278,67.668 -26.274,92.812 -9.215,15.094 -21.113,28 -35.793,38.703 -12.141,8.84 -24.641,15.535 -37.5,20.282 -2.703,1 -5.402,2.031 -8.141,2.847 l 54.442,179.34 c -2.129,1.5 -4.375,2.813 -6.547,4.238 -8.281,5.442 -16.797,10.508 -25.793,14.797 -4.66,-15.832 -15.473,-52.547 -32.656,-110.824 C 341.93,526.621 319.762,451.824 297.113,376.074 279.254,316.227 262.996,262.109 248.383,213.809 233.73,165.496 221.098,123.926 210.449,89.0859 c 0.356,-0.1171 1.274,-0.3789 2.188,-0.6992 1.468,-0.4765 3.426,-1.1015 6.371,-2.0625 4.758,-1.5742 8.48,-2.7773 11.172,-3.5742 2.769,-0.832 5.25,-1.4336 7.918,-2.1797 4.832,-1.3515 9.632,-2.6797 14.125,-3.7695 18.054,-4.3711 33.441,-6.6485 45.937,-6.707 17.324,-0.1094 35.641,4.5312 55.039,13.8867 25.121,12.2265 47.305,31.8475 66.426,58.8355 9.906,13.918 18.652,29.176 26.371,45.719 7.25,15.563 13.578,32.192 18.902,50.055 12.852,43.066 18.563,82.969 17.04,119.676 z M 429.824,252.031 c -8.703,-29.136 -20.058,-53.027 -34.144,-71.617 -14.082,-18.601 -28.707,-32.07 -43.883,-40.492 -13.383,-7.422 -27.344,-11.797 -41.746,-13.199 -13.957,-1.371 -27.746,-0.02 -41.442,3.89 -0.429,0.125 -0.867,0.196 -1.3,0.325 -0.895,0.269 -1.762,0.542 -2.645,0.796 -0.902,0.278 -1.93,0.571 -3.047,0.911 0.77,2.554 7.055,23.699 18.934,63.457 11.883,39.738 29.953,100.199 54.195,181.371 3.383,11.316 7.086,23.773 11.156,37.351 4.032,13.574 8.137,27.289 12.286,41.153 2.535,-0.758 4.96,-1.664 7.402,-2.547 11.734,-4.254 22.473,-9.899 32.082,-17.121 11.598,-8.688 20.875,-18.555 27.789,-29.536 10.801,-17.418 16.668,-39.41 17.57,-66.035 0.938,-26.613 -3.504,-56.172 -13.207,-88.707" /><path
             id="path74"
             style="fill:#927f3b;fill-opacity:1;fill-rule:nonzero;stroke:none"
             d="M 397.52,766.168 361.02,777.074 150.438,71.9922 186.938,61.0781 397.52,766.168" /></g></g></g></g></svg>