<svg xmlns="http://www.w3.org/2000/svg" viewBox="0 0 252.54668 116.42667" height="116.427" width="252.547"><path d="M239.159 40.522a6.698 6.698 0 0 1 6.693-6.693 6.692 6.692 0 1 1-6.693 6.693" fill="#76c92d"/><path d="M25.69 22.795c0-4.24-.819-7.384-2.458-9.433-1.639-2.047-4.125-3.07-7.466-3.07H12.21v25.926h2.72c3.71 0 6.431-1.101 8.162-3.309 1.73-2.203 2.597-5.577 2.597-10.114m12.675-.44c0 7.722-2.078 13.674-6.23 17.851-4.153 4.181-9.99 6.27-17.513 6.27H0V.193h15.643c7.254 0 12.855 1.9 16.803 5.698 3.945 3.8 5.92 9.285 5.92 16.463m40.499 24.122H90.5V0H78.865zm27.977-17.336c0 2.964.387 5.224 1.16 6.777.775 1.554 2.073 2.331 3.897 2.331 1.806 0 3.08-.777 3.825-2.33.744-1.554 1.114-3.814 1.114-6.778 0-2.948-.375-5.171-1.13-6.673-.753-1.504-2.042-2.258-3.868-2.258-1.785 0-3.063.75-3.838 2.242-.773 1.493-1.16 3.722-1.16 6.689m21.838 0c0 5.645-1.48 10.05-4.447 13.206-2.964 3.16-7.116 4.74-12.451 4.74-5.119 0-9.19-1.616-12.214-4.846-3.027-3.23-4.54-7.596-4.54-13.1 0-5.628 1.482-10.002 4.45-13.12 2.965-3.118 7.127-4.677 12.483-4.677 3.31 0 6.238.721 8.776 2.164 2.54 1.443 4.498 3.51 5.877 6.202 1.378 2.688 2.066 5.834 2.066 9.43m4.62 17.337h11.635V11.953H133.3zm0-38.698h11.635v-7.78H133.3zm35.21 29.892c1.57 0 3.442-.398 5.626-1.19v8.687c-1.57.687-3.061 1.182-4.479 1.475-1.417.296-3.081.443-4.985.443-3.907 0-6.724-.981-8.452-2.942-1.723-1.959-2.585-4.97-2.585-9.031V20.88h-4.075v-8.925h4.075V3.14l11.724-2.04v10.855h7.424v8.925h-7.424v13.438c0 2.234 1.052 3.352 3.152 3.352m26.93 0c1.57 0 3.44-.398 5.624-1.19v8.687c-1.566.687-3.06 1.182-4.477 1.475-1.42.296-3.079.443-4.985.443-3.907 0-6.724-.981-8.45-2.942-1.725-1.959-2.588-4.97-2.588-9.031V20.88h-4.078v-8.925h4.078V3.006L192.29 1.1v10.855h7.427v8.925h-7.427v13.438c0 2.234 1.051 3.352 3.152 3.352m20.306-12.736c.159-1.89.699-3.275 1.62-4.16.925-.884 2.07-1.326 3.437-1.326 1.49 0 2.675.498 3.555 1.495.885.994 1.347 2.325 1.383 3.991zm16.408-9.522c-2.765-2.712-6.69-4.068-11.765-4.068-5.336 0-9.443 1.558-12.322 4.677-2.874 3.118-4.313 7.591-4.313 13.421 0 5.647 1.553 10 4.656 13.057 3.107 3.056 7.465 4.586 13.08 4.586 2.696 0 5.017-.184 6.961-.55a20.153 20.153 0 0 0 5.619-1.962l-1.788-7.78c-1.32.539-2.575.953-3.759 1.226-1.713.397-3.593.596-5.636.596-2.244 0-4.013-.548-5.312-1.645-1.297-1.097-1.989-2.612-2.068-4.542h20.799v-5.3c0-5.098-1.385-9.005-4.152-11.716m-178.35 9.522c.16-1.89.7-3.275 1.622-4.16.923-.884 2.067-1.326 3.438-1.326 1.486 0 2.671.498 3.554 1.495.883.994 1.344 2.325 1.383 3.991zm16.41-9.522c-2.767-2.712-6.69-4.068-11.769-4.068-5.336 0-9.441 1.558-12.317 4.677-2.876 3.118-4.315 7.591-4.315 13.421 0 5.647 1.552 10 4.658 13.057 3.104 3.056 7.463 4.586 13.076 4.586 2.697 0 5.019-.184 6.963-.55a20.164 20.164 0 0 0 5.62-1.962l-1.789-7.78c-1.32.539-2.574.953-3.758 1.226-1.715.397-3.594.596-5.637.596-2.241 0-4.014-.548-5.312-1.645-1.299-1.097-1.988-2.612-2.068-4.542h20.798v-5.3c0-5.098-1.382-9.005-4.15-11.716M29.87 79.56c0-6.26-1.59-10.969-4.769-14.128-3.18-3.159-7.848-4.74-14.008-4.74H3.05v38.333h7.235c13.057 0 19.585-6.488 19.585-19.465zm3.32-.12c0 7.336-1.925 12.883-5.772 16.64-3.847 3.757-9.498 5.636-16.953 5.636H0V58.002h11.81c6.977 0 12.284 1.824 15.922 5.472 3.638 3.647 5.457 8.97 5.457 15.966m5.822 22.276h2.96V69.214h-2.96zm0-36.288h2.96V61.35h-2.96zm40.859 36.288h2.961V69.214h-2.96zm0-36.288h2.961V61.35h-2.96zM50.843 79.35c0 2.512.762 4.46 2.287 5.846 1.525 1.386 3.563 2.078 6.114 2.078 2.71 0 4.789-.687 6.235-2.063 1.444-1.376 2.167-3.368 2.167-5.98 0-2.77-.743-4.848-2.227-6.234-1.485-1.386-3.563-2.078-6.234-2.078-2.592 0-4.63.743-6.115 2.227-1.485 1.485-2.227 3.554-2.227 6.205zm-2.482 27.867c0 4.464 3.319 6.698 9.957 6.698 8.53 0 12.797-2.72 12.797-8.163 0-1.953-.669-3.37-2.004-4.246-1.336-.877-3.498-1.315-6.488-1.315h-5.322c-5.96 0-8.94 2.34-8.94 7.026zm26.312-38.003v2.064l-6.728.418c1.795 2.232 2.691 4.684 2.691 7.356 0 3.129-1.042 5.666-3.124 7.61-2.083 1.943-4.88 2.914-8.387 2.914-1.476 0-2.512-.06-3.11-.18-1.176.618-2.073 1.346-2.69 2.184-.619.837-.928 1.723-.928 2.66 0 1.037.394 1.795 1.182 2.273.787.479 2.107.718 3.961.718h5.681c3.528 0 6.229.713 8.103 2.138 1.873 1.424 2.81 3.532 2.81 6.323 0 3.428-1.39 6.075-4.17 7.939-2.781 1.863-6.743 2.796-11.885 2.796-4.087 0-7.251-.788-9.494-2.362-2.242-1.576-3.364-3.768-3.364-6.578 0-2.234.693-4.088 2.078-5.562 1.385-1.475 3.264-2.482 5.636-3.02-.977-.418-1.759-1.012-2.346-1.779-.589-.767-.883-1.649-.883-2.646 0-2.172 1.386-4.086 4.157-5.74-1.895-.778-3.37-2-4.426-3.664-1.057-1.663-1.584-3.573-1.584-5.725 0-3.25 1.031-5.856 3.094-7.82 2.063-1.962 4.848-2.944 8.357-2.944 2.133 0 3.787.209 4.964.627h10.405m43.897 30.409c3.47 0 6.205-.992 8.208-2.976 2.004-1.983 3.005-4.739 3.005-8.267v-3.2l-5.68.24c-4.566.22-7.82.932-9.763 2.138-1.944 1.207-2.915 3.084-2.915 5.636 0 2.034.622 3.614 1.868 4.74 1.246 1.125 3.005 1.69 5.278 1.69zm11.96 2.093l-.747-5.143h-.239c-1.635 2.093-3.314 3.573-5.038 4.44-1.725.867-3.763 1.3-6.115 1.3-3.19 0-5.671-.817-7.445-2.45-1.775-1.635-2.661-3.898-2.661-6.788 0-3.17 1.32-5.632 3.962-7.386 2.64-1.754 6.463-2.68 11.467-2.78l6.189-.18v-2.152c0-3.091-.628-5.423-1.884-6.997-1.255-1.574-3.279-2.362-6.07-2.362-3.01 0-6.13.837-9.358 2.511l-1.107-2.571c3.568-1.675 7.096-2.512 10.585-2.512 3.568 0 6.234.927 7.998 2.781 1.764 1.854 2.647 4.743 2.647 8.671v21.618h-2.183m10.502 0h2.962V55.19h-2.962zm-40.574-2.033c1.873 0 3.508-.16 4.904-.479v2.392c-1.436.479-3.09.718-4.964.718-2.87 0-4.99-.767-6.354-2.302-1.365-1.535-2.048-3.947-2.048-7.236v-20.99h-4.814v-2.572h4.814v-7.29l3.02-.573v7.863h9.538v2.572h-9.538v20.57c0 2.494.438 4.337 1.316 5.533.876 1.196 2.252 1.794 4.126 1.794" fill="#09090a"/></svg>