<?xml version="1.0" encoding="UTF-8" standalone="no"?>
<svg width="555px" height="70px" viewBox="0 0 555 70" version="1.1" xmlns="http://www.w3.org/2000/svg" xmlns:xlink="http://www.w3.org/1999/xlink">
    <!-- Generator: Sketch 43.2 (39069) - http://www.bohemiancoding.com/sketch -->
    <title>elementai-logo-black</title>
    <desc>Created with Sketch.</desc>
    <defs></defs>
    <g id="Page-1" stroke="none" stroke-width="1" fill="none" fill-rule="evenodd">
        <g id="elementai-logo-black" fill-rule="nonzero" fill="#414042">
            <g id="Group" transform="translate(506.000000, 0.000000)">
                <path d="M25,30.1 L22.3,23.4 L9.7,23.4 L7,30.1 L0.3,30.1 L13,0 L19.1,0 L31.9,30.1 L25,30.1 Z M15.9,7.9 L11.9,17.6 L19.8,17.6 L15.9,7.9 Z" id="Shape"></path>
                <polygon id="Shape" points="42.4 30.1 42.4 0.2 49 0.2 49 30.1"></polygon>
            </g>
            <g id="Group" transform="translate(0.000000, 19.000000)">
                <polygon id="Shape" points="0.6 50.8 0.6 0.9 38.2 0.9 38.2 10.7 11.5 10.7 11.5 20.8 35 20.8 35 30.6 11.5 30.6 11.5 41 38.6 41 38.6 50.8"></polygon>
                <polygon id="Shape" points="71.3 50.8 71.3 0.9 82.3 0.9 82.3 40.8 107.2 40.8 107.2 50.8"></polygon>
                <polygon id="Shape" points="139.8 50.8 139.8 0.9 177.4 0.9 177.4 10.7 150.7 10.7 150.7 20.8 174.2 20.8 174.2 30.6 150.7 30.6 150.7 41 177.8 41 177.8 50.8"></polygon>
                <polygon id="Shape" points="252.7 50.8 252.7 18.2 237 39.5 236.7 39.5 221.2 18.4 221.2 50.8 210.4 50.8 210.4 0.9 222.2 0.9 237 22 251.7 0.9 263.5 0.9 263.5 50.8 252.7 50.8"></polygon>
                <polygon id="Shape" points="296.3 50.8 296.3 0.9 333.9 0.9 333.9 10.7 307.2 10.7 307.2 20.8 330.7 20.8 330.7 30.6 307.2 30.6 307.2 41 334.3 41 334.3 50.8"></polygon>
                <polygon id="Shape" points="402 50.8 377.8 19.1 377.8 50.8 367 50.8 367 0.9 377.1 0.9 400.5 31.6 400.5 0.9 411.3 0.9 411.3 50.8"></polygon>
                <polygon id="Shape" points="470.1 11 470.1 50.8 459.1 50.8 459.1 11 444 11 444 0.9 485.3 0.9 485.3 11"></polygon>
            </g>
        </g>
    </g>
</svg>