<?xml version="1.0" encoding="utf-8"?>
<!-- Generator: Adobe Illustrator 22.0.1, SVG Export Plug-In . SVG Version: 6.00 Build 0)  -->
<svg version="1.1" id="Layer_1" xmlns="http://www.w3.org/2000/svg" xmlns:xlink="http://www.w3.org/1999/xlink" x="0px" y="0px"
	 viewBox="0 0 200 83.4" style="enable-background:new 0 0 200 83.4;" xml:space="preserve">
<style type="text/css">
	.st0{fill:#101314;}
	.st1{clip-path:url(#SVGID_2_);fill:#101314;}
	.st2{clip-path:url(#SVGID_4_);fill:#101314;}
	.st3{clip-path:url(#SVGID_6_);fill:#101314;}
	.st4{fill:#1D4289;}
	.st5{clip-path:url(#SVGID_8_);}
</style>
<rect x="66.4" y="51.5" class="st0" width="2" height="9.2"/>
<polygon class="st0" points="75.3,51.5 75.3,58 71.8,51.5 69.5,51.5 69.5,60.7 71.3,60.7 71.3,54.2 74.8,60.7 77.1,60.7 77.1,51.5 
	"/>
<g>
	<defs>
		<rect id="SVGID_1_" x="27" y="23.2" width="147.7" height="37.6"/>
	</defs>
	<clipPath id="SVGID_2_">
		<use xlink:href="#SVGID_1_"  style="overflow:visible;"/>
	</clipPath>
	<path class="st1" d="M81.1,59.1c2.1,0,2.9-1.2,2.9-3.1c0-2.3-0.9-3-2.7-3h-1.1v6.1H81.1z M78.2,60.7v-9.2h3.2
		c3.2,0,4.6,1.7,4.6,4.5c0,2.8-1.5,4.7-4.8,4.7H78.2z"/>
</g>
<polygon class="st0" points="86.8,51.5 86.8,60.7 92.9,60.7 92.9,59 88.7,59 88.7,56.9 92.4,56.9 92.4,55.3 88.7,55.3 88.7,53.1 
	92.6,53.1 92.6,51.5 "/>
<polygon class="st0" points="99.7,51.5 97.8,54.6 95.9,51.5 93.7,51.5 96.5,56.1 93.6,60.7 95.7,60.7 97.6,57.6 99.6,60.7 
	101.9,60.7 98.9,56 101.7,51.5 "/>
<polygon class="st0" points="105,51.5 105,60.7 111.1,60.7 111.1,59 107,59 107,56.9 110.6,56.9 110.6,55.3 107,55.3 107,53.1 
	110.9,53.1 110.9,51.5 "/>
<polygon class="st0" points="117.9,51.5 116,54.6 114.1,51.5 111.9,51.5 114.8,56.1 111.8,60.7 113.9,60.7 115.8,57.6 117.9,60.7 
	120.1,60.7 117.1,56 120,51.5 "/>
<g>
	<defs>
		<rect id="SVGID_3_" x="27" y="23.2" width="147.7" height="37.6"/>
	</defs>
	<clipPath id="SVGID_4_">
		<use xlink:href="#SVGID_3_"  style="overflow:visible;"/>
	</clipPath>
	<path class="st2" d="M119.9,56.2c0-2.9,1.6-4.9,4.4-4.9c2.1,0,3.5,1,3.6,3.3l-1.8,0.2c-0.1-1.3-0.7-1.8-1.9-1.8
		c-1.5,0-2.4,1-2.4,3.2c0,2.3,0.8,3.1,2.3,3.1c1.3,0,1.8-0.7,2-1.7l1.8,0.3c-0.3,2.2-2.1,3-3.8,3C121.1,60.9,119.9,59,119.9,56.2"/>
</g>
<polygon class="st0" points="134.4,51.5 134.4,55.2 130.9,55.2 130.9,51.5 128.9,51.5 128.9,60.7 130.9,60.7 130.9,56.9 134.4,56.9 
	134.4,60.7 136.4,60.7 136.4,51.5 "/>
<path class="st0" d="M141.5,53.3L141.5,53.3l1.2,3.6h-2.3L141.5,53.3z M140.4,51.5l-3,9.2h2l0.7-2.2h3.1l0.8,2.2h2.2l-3.3-9.2H140.4
	z"/>
<polygon class="st0" points="152.6,51.5 152.6,58 149.2,51.5 146.8,51.5 146.8,60.7 148.6,60.7 148.6,54.2 152.2,60.7 154.4,60.7 
	154.4,51.5 "/>
<g>
	<defs>
		<rect id="SVGID_5_" x="27" y="23.2" width="143.9" height="37.6"/>
	</defs>
	<clipPath id="SVGID_6_">
		<use xlink:href="#SVGID_5_"  style="overflow:visible;"/>
	</clipPath>
	<path class="st3" d="M162.1,59.6c-0.4,0.8-1.5,1.3-2.6,1.3c-2.8,0-3.9-1.9-3.9-4.6c0-3,1.5-4.9,4.5-4.9c2,0,3.5,0.9,3.6,3.2
		l-1.8,0.2c-0.1-1-0.5-1.8-1.8-1.8c-1.6,0-2.4,1.2-2.4,3.1c0,2.2,0.7,3.2,2.3,3.2c1.2,0,1.9-0.7,1.9-1.6v-0.3h-1.7v-1.4h3.6v4.8
		h-1.4L162.1,59.6z"/>
</g>
<polygon class="st0" points="164.9,51.5 164.9,60.7 170.9,60.7 170.9,59 166.8,59 166.8,56.9 170.5,56.9 170.5,55.3 166.8,55.3 
	166.8,53.1 170.7,53.1 170.7,51.5 "/>
<polygon class="st4" points="27,36.3 27,60.7 51.4,60.7 51.4,40.3 49.4,40.3 49.4,58.7 29,58.7 29,38.3 47.4,38.3 47.4,36.3 "/>
<polygon class="st4" points="49.4,23.2 49.4,38.3 60.5,38.3 60.5,36.3 51.4,36.3 51.4,25.2 62.5,25.2 62.5,34.4 64.5,34.4 
	64.5,23.2 "/>
<polygon class="st4" points="72.3,36.3 72.3,46.2 66.4,46.2 66.4,44.2 70.4,44.2 70.4,38.3 64.5,38.3 64.5,42.2 62.5,42.2 
	62.5,36.3 "/>
<rect x="57.2" y="44.2" class="st4" width="7.3" height="7.3"/>
<g>
	<defs>
		<rect id="SVGID_7_" x="27" y="23.2" width="147.7" height="37.6"/>
	</defs>
	<clipPath id="SVGID_8_">
		<use xlink:href="#SVGID_7_"  style="overflow:visible;"/>
	</clipPath>
	<path class="st5" d="M173,53.1c0.2,0,0.4-0.1,0.4-0.4c0-0.3-0.2-0.3-0.4-0.3h-0.3v0.7H173z M173.7,54.1h-0.3l-0.4-0.8h-0.4v0.8
		h-0.2v-1.9h0.6c0.5,0,0.6,0.3,0.6,0.5c0,0.3-0.1,0.4-0.4,0.5L173.7,54.1z"/>
	<path class="st5" d="M173,51.7c-0.8,0-1.5,0.7-1.5,1.5c0,0.8,0.7,1.5,1.5,1.5c0.8,0,1.5-0.7,1.5-1.5
		C174.5,52.3,173.8,51.7,173,51.7 M173,54.9c-0.9,0-1.7-0.8-1.7-1.7c0-0.9,0.8-1.7,1.7-1.7s1.7,0.8,1.7,1.7
		C174.7,54.1,173.9,54.9,173,54.9"/>
</g>
</svg>
