<svg xmlns="http://www.w3.org/2000/svg" xmlns:xlink="http://www.w3.org/1999/xlink" width="700.631" height="450.736" viewBox="0 -44.48 700.63068 450.73638"><path d="M416.723 201.339c0-33.56 27.204-60.764 60.765-60.764v-.02h44.346v22.254h-44.346c-21.275 0-38.509 17.254-38.509 38.529 0 21.275 17.234 38.528 38.509 38.528h44.346v22.254h-44.346v-.02c-33.563 0-60.765-27.201-60.765-60.761zM73.674 141.513H51.43h22.244zm-.177-26.415c0 6.045-4.9 10.943-10.945 10.943s-10.944-4.9-10.944-10.943c0-6.044 4.9-10.944 10.944-10.944 6.045-.001 10.945 4.899 10.945 10.944zm80.13 26.35c33.56 0 60.763 27.202 60.763 60.76h.02v59.913h-22.255V202.21c0-21.275-17.253-38.508-38.528-38.508s-38.53 17.233-38.53 38.508v59.912H92.845V202.21h.02c0-33.559 27.203-60.761 60.763-60.761z"/><g transform="matrix(1.25 0 0 -1.25 -27.687 540.66)"><path d="M340.194 319.318h-17.796 17.796z"/><a xlink:href="http://www.indico.io#join"><path d="M340.053 340.447a8.755 8.755 0 1 0-17.51 0 8.755 8.755 0 0 0 17.51 0z"/></a></g><path d="M602.292 139.563c-33.847 0-61.29 27.443-61.29 61.29 0 33.846 27.443 61.27 61.29 61.27 33.846 0 61.27-27.424 61.27-61.27 0-33.847-27.423-61.29-61.27-61.29zm0 23.815c20.695 0 37.455 16.78 37.455 37.475 0 20.693-16.762 37.475-37.455 37.475-20.694 0-37.475-16.782-37.475-37.475 0-20.694 16.78-37.475 37.475-37.475zm0 26.548c-6.023 0-10.904 4.883-10.904 10.904 0 6.024 4.881 10.904 10.904 10.904 6.022 0 10.903-4.881 10.903-10.904.002-6.021-4.88-10.904-10.903-10.904zM334.068 80.888v72.84c-10.623-8.854-24.286-14.167-39.199-14.167-33.846 0-61.29 27.444-61.29 61.29 0 33.847 27.444 61.27 61.29 61.27 33.676 0 60.998-27.148 61.27-60.76V80.887h-22.071zm-39.198 82.49c20.694 0 37.455 16.78 37.455 37.475 0 20.693-16.76 37.475-37.455 37.475-20.695 0-37.475-16.782-37.475-37.475 0-20.694 16.78-37.475 37.475-37.475z"/><path stroke-miterlimit="10" stroke="#000" d="M51.431 141.513h22.244v120.611H51.431zm323.88 0h22.243v120.611h-22.243z"/></svg>