<?xml version="1.0" encoding="UTF-8" standalone="no"?>
<!-- Generator: Adobe Illustrator 16.0.0, SVG Export Plug-In . SVG Version: 6.00 Build 0)  -->

<svg
   xmlns:dc="http://purl.org/dc/elements/1.1/"
   xmlns:cc="http://creativecommons.org/ns#"
   xmlns:rdf="http://www.w3.org/1999/02/22-rdf-syntax-ns#"
   xmlns:svg="http://www.w3.org/2000/svg"
   xmlns="http://www.w3.org/2000/svg"
   xmlns:xlink="http://www.w3.org/1999/xlink"
   xmlns:sodipodi="http://sodipodi.sourceforge.net/DTD/sodipodi-0.dtd"
   xmlns:inkscape="http://www.inkscape.org/namespaces/inkscape"
   version="1.1"
   id="Layer_1"
   x="0px"
   y="0px"
   width="220"
   height="45"
   viewBox="0 0 220 45"
   enable-background="new 0 0 216 45"
   xml:space="preserve"
   inkscape:version="0.91 r13725"
   sodipodi:docname="loyaltyOne.svg"><metadata
     id="metadata4248"><rdf:RDF><cc:Work
         rdf:about=""><dc:format>image/svg+xml</dc:format><dc:type
           rdf:resource="http://purl.org/dc/dcmitype/StillImage" /><dc:title /></cc:Work></rdf:RDF></metadata><defs
     id="defs4246" /><sodipodi:namedview
     pagecolor="#ffffff"
     bordercolor="#666666"
     borderopacity="1"
     objecttolerance="10"
     gridtolerance="10"
     guidetolerance="10"
     inkscape:pageopacity="0"
     inkscape:pageshadow="2"
     inkscape:window-width="2560"
     inkscape:window-height="1377"
     id="namedview4244"
     showgrid="false"
     inkscape:zoom="8.3281464"
     inkscape:cx="115.15423"
     inkscape:cy="-4.7493483"
     inkscape:window-x="2552"
     inkscape:window-y="-8"
     inkscape:window-maximized="1"
     inkscape:current-layer="Layer_1" /><g
     id="g4802"
     transform="matrix(0.02890809,0,0,0.02890809,213.6749,10.048182)"><circle
       id="circle4792"
       r="88.5"
       cy="100"
       cx="100"
       style="fill:#000000;fill-opacity:0;stroke:#79bde8;stroke-width:20;stroke-opacity:1" /><path
       id="path4794"
       d="m 94.6,92 c 5.5,0 9.5,-1.1 11.9,-3.2 2.4,-2 3.7,-5.4 3.7,-10.2 0,-4.7 -1.3,-8 -3.7,-10.1 -2.4,-2 -6.4,-3 -11.9,-3 l -11.2,0 0,26.5 11.2,0 m -11.2,18.3 0,39 -26.6,0 0,-103.1 40.6,0 c 13.6,0 23.5,2.3 29.8,6.9 6.4,4.5 9.5,11.7 9.5,21.6 0,6.8 -1.6,12.4 -4.9,16.8 -3.3,4.3 -8.2,7.6 -14.9,9.6 3.7,0.9 6.9,2.8 9.8,5.7 2.9,2.9 5.8,7.3 8.7,13.3 l 14.5,29.2 -28.3,0 -12.6,-25.6 c -2.5,-5.1 -5.1,-8.7 -7.7,-10.5 -2.6,-1.9 -6.1,-2.9 -10.4,-2.9 l -7.5,0"
       inkscape:connector-curvature="0"
       style="fill:#79bde8;fill-opacity:1" /></g><g
     id="g4414"
     transform="translate(-0.5797705,0.09560769)"><defs
       id="defs4416"><path
         d="m 65.632,16.013 c -1.318,0 -2.069,-0.181 -2.635,-0.181 l 0,0 c -0.844,0 -1.409,0.044 -1.409,0.499 l 0,0 c 0,0.999 3.01,0.319 3.01,2.767 l 0,0 c 0,0.32 0,0.725 -0.564,2.357 l 0,0 -3.619,10.251 -5.08,-12.669 -0.185,-0.756 c 0,-1.813 2.678,-0.906 2.678,-1.858 l 0,0 c 0,-0.497 -0.282,-0.59 -0.984,-0.59 l 0,0 c -0.753,0 -1.835,0.181 -3.481,0.181 l 0,0 c -1.268,0 -2.302,-0.181 -3.288,-0.181 l 0,0 c -0.659,0 -0.939,0.093 -0.939,0.544 l 0,0 c 0,0.639 1.784,0.68 2.207,1.677 l 0,0 6.159,14.65 c 0.422,0.949 0.938,1.954 0.938,3.041 l 0,0 c 0,3.536 -4.276,6.938 -4.276,7.935 l 0,0 c 0,0.363 1.081,0.319 1.738,0.319 l 0,0 c 0.658,0 1.504,0 1.551,-0.136 l 0,0 8.934,-24.855 c 0.937,-2.722 2.537,-1.587 2.537,-2.631 l 0,0 c 0,-0.361 -0.329,-0.544 -0.896,-0.544 l 0,0 c -0.472,-10e-4 -1.317,0.18 -2.396,0.18 m -34.643,8.073 c 0,-3.854 1.88,-7.755 6.485,-7.755 l 0,0 c 5.594,0 7.616,5.124 7.616,9.797 l 0,0 c 0,5.621 -2.491,8.209 -6.44,8.209 l 0,0 c -5.499,0 -7.661,-5.808 -7.661,-10.251 m -3.292,1.588 c 0,6.124 4.421,9.617 10.53,9.617 l 0,0 c 5.781,0 10.151,-4.266 10.151,-9.843 l 0,0 c 0,-8.434 -6.627,-10.114 -10.198,-10.114 l 0,0 c -5.922,0 -10.483,4.761 -10.483,10.34 m 177.906,-9.299 c 2.583,0 5.216,2.27 5.216,4.809 l 0,0 c 0,0.68 -0.283,0.907 -0.938,0.907 l 0,0 -9.261,0 c -0.001,-2.494 2.066,-5.716 4.983,-5.716 m -8.417,9.618 c 0,2.993 2.442,9.297 9.497,9.297 l 0,0 c 4.228,0 8.317,-3.268 8.317,-4.309 l 0,0 c 0,-0.138 0,-0.32 -0.188,-0.32 l 0,0 c -1.03,0 -2.581,2.36 -6.626,2.36 l 0,0 c -2.864,0 -7.566,-2.225 -7.566,-9.706 l 0,0 12.503,0 c 1.085,0 1.597,0.045 1.597,-0.77 l 0,0 c 0,-1.815 -2.541,-7.211 -8.317,-7.211 l 0,0 c -5.878,0 -9.217,4.854 -9.217,10.659 m -25.429,-8.754 c -0.239,0.046 -0.426,0.226 -0.426,0.498 l 0,0 c 0,0.952 3.481,-0.226 3.481,2.495 l 0,0 0,11.248 c 0,2.947 -2.773,2.039 -2.773,2.947 l 0,0 c 0,0.452 0.234,0.547 0.848,0.547 l 0,0 c 0.563,0 1.503,-0.179 3.995,-0.179 l 0,0 c 2.727,0 3.668,0.179 4.466,0.179 l 0,0 c 0.704,0 1.034,-0.095 1.034,-0.637 l 0,0 c 0,-1.224 -4.138,0.09 -4.138,-3.038 l 0,0 0,-10.434 c -0.049,-0.724 1.598,-3.535 5.55,-3.535 l 0,0 c 3.806,0 5.493,3.4 5.493,5.668 l 0,0 0,8.481 c 0,2.947 -2.02,2.039 -2.02,2.947 l 0,0 c 0,0.452 0.236,0.547 0.845,0.547 l 0,0 c 0.616,0 1.601,-0.179 3.389,-0.179 l 0,0 c 2.301,0 3.476,0.179 4.086,0.179 l 0,0 c 0.471,0 0.801,-0.095 0.801,-0.637 l 0,0 c 0,-1.224 -3.668,0.09 -3.668,-3.038 l 0,0 0,-7.484 c 0,-3.448 -1.361,-8.48 -7.66,-8.48 l 0,0 c -4.561,0 -6.911,3.9 -6.815,3.355 l 0,0 0,-2.994 c 0,-0.451 -0.283,-0.723 -0.565,-0.723 l 0,0 c -1.081,0 -2.023,1.45 -5.923,2.267 M 6.688,3.044 C 4.383,3.044 2.929,2.86 1.941,2.86 l 0,0 C 1.331,2.86 1,2.95 1,3.449 l 0,0 c 0,0.908 3.948,0.59 3.948,2.948 l 0,0 0,22.996 c 0,2.131 -0.097,3.397 -1.318,3.946 l 0,0 c -1.502,0.725 -1.972,0.633 -2.066,1.178 l 0,0 c 0,0.366 0.282,0.456 0.705,0.456 l 0,0 c 1.881,0 3.854,-0.138 5.734,-0.179 l 0,0 c 3.572,-0.094 7.145,0.179 10.717,0.179 l 0,0 c 2.066,0 3.104,0.09 4.606,-1.545 l 0,0 c 1.127,-1.18 2.352,-2.768 2.352,-4.4 l 0,0 c 0,-0.092 -0.047,-0.544 -0.374,-0.544 l 0,0 c -0.615,0 -2.21,4.674 -13.071,4.674 l 0,0 c -3.949,0 -3.571,-1.086 -3.571,-3.765 l 0,0 0,-22.044 c 0,-3.945 3.431,-2.812 3.431,-3.856 l 0,0 C 12.093,2.95 11.81,2.86 11.2,2.86 l 0,0 c -0.705,0 -1.833,0.184 -4.512,0.184 m 138.332,0.917 0,0 c 0,0 -0.003,0 -0.003,0.001 l 0,0 c -0.01,0.004 -0.024,0.008 -0.036,0.013 l 0,0 0.004,0.005 c -6.738,3.256 -8.722,9.628 -9.184,10.876 l 0,0 c -0.466,1.256 -2.599,8.238 -2.599,8.238 l 0,0 -3.039,8.611 -5.024,-12.336 0,-0.014 c -0.102,-0.161 -0.236,-0.619 -0.236,-1.075 l 0,0 c 0,-1.814 2.68,-0.907 2.68,-1.859 l 0,0 c 0,-0.497 -0.283,-0.59 -0.988,-0.59 l 0,0 c -0.752,0 -1.834,0.181 -3.481,0.181 l 0,0 c -1.266,0 -2.299,-0.181 -3.286,-0.181 l 0,0 c -0.658,0 -0.94,0.093 -0.94,0.544 l 0,0 c 0,0.639 1.786,0.68 2.212,1.677 l 0,0 6.157,14.65 c 0.422,0.949 0.939,1.954 0.939,3.041 l 0,0 c 0,3.536 -4.281,6.938 -4.281,7.935 l 0,0 c 0,0.363 1.084,0.319 1.74,0.319 l 0,0 c 0.66,0 1.506,0 1.549,-0.136 l 0,0 7.18,-20.046 0.016,-0.043 c 0,0 1.688,-5.493 2.21,-7.056 l 0,0 c 0.523,-1.563 0.628,-2.237 1.547,-4.026 l 0,0 c 0.918,-1.79 2.354,-3.792 3.794,-4.933 l 0,0 c 0.653,-0.516 2.007,-1.602 3.514,-2.355 l 0,0 c 1.827,-0.912 3.913,-1.456 5.661,-1.456 l 0,0 c 9.168,0 14.946,8.029 14.946,16.284 l 0,0 c 0,8.39 -5.498,13.697 -12.36,13.697 l 0,0 c -3.393,0 -6.3,-1.092 -8.634,-2.865 l 0,0 0,3.059 c 1.97,0.752 4.2,1.168 6.66,1.168 l 0,0 c 10.481,0 17.771,-6.579 17.771,-16.782 l 0,0 c 0,-9.389 -7.383,-16.056 -16.975,-16.056 l 0,0 c -2.671,10e-4 -5.27,0.546 -7.514,1.51 m -70.552,26.43 c 0,-3.99 5.732,-4.715 8.74,-5.349 l 0,0 0,5.259 c 0,2.402 -3.195,3.672 -4.887,3.672 l 0,0 c -2.491,0 -3.853,-0.994 -3.853,-3.582 M 92.232,3.268 c -0.232,0.047 -0.42,0.228 -0.42,0.5 l 0,0 c 0,0.952 3.193,-0.227 3.193,2.495 l 0,0 0,15.553 c -3.104,0.843 -6.234,1.418 -8.365,1.763 l 0,0 0,-3.575 c 0,-3.851 -4.51,-4.67 -7.427,-4.67 l 0,0 c -5.219,-0.135 -7.851,3.038 -7.896,5.124 l 0,0 c 0,0.821 1.409,1.501 2.209,1.501 l 0,0 c 0.894,0 1.034,-0.365 1.034,-0.86 l 0,0 c 0,-0.502 -0.281,-1.184 -0.281,-1.862 l 0,0 c 0,-2.494 1.831,-2.721 4.091,-2.721 l 0,0 c 2.913,0 4.838,1.587 4.838,3.943 l 0,0 0,3.495 C 72.209,25.721 71.41,28.581 71.41,30.985 l 0,0 c 0,3.222 2.021,4.309 5.078,4.309 l 0,0 c 2.632,0 5.217,-0.999 7.189,-2.63 l 0,0 c 0.613,1.496 1.837,2.313 3.668,2.313 l 0,0 c 0.658,0 2.727,-0.182 2.727,-1.135 l 0,0 c 0,-0.319 -0.377,-0.319 -0.609,-0.319 l 0,0 c -0.192,0 -0.611,0.092 -0.799,0.092 l 0,0 c -2.445,0 -2.023,-2.675 -2.023,-4.217 l 0,0 0,-4.972 c 2.102,-0.314 5.221,-0.856 8.365,-1.67 l 0,0 0,9.135 c 0,1.951 -2.303,1.818 -2.303,2.497 l 0,0 c 0,0.411 0.188,0.59 0.561,0.59 l 0,0 c 0.475,0 1.367,-0.179 3.671,-0.179 l 0,0 c 2.206,0 3.666,0.179 4.326,0.179 l 0,0 c 0.704,0 1.081,-0.095 1.081,-0.637 l 0,0 c 0,-1.224 -3.902,0.09 -3.902,-3.038 l 0,0 0,-9.56 c 3.016,-1.016 5.7,-2.32 7.079,-3.965 l 0,0 c 0.364,0.007 0.832,0.008 1.477,0.008 l 0,0 0,12.247 c 0,4.672 3.099,5.261 5.265,5.261 l 0,0 c 3.289,0 5.828,-1.542 5.828,-2.222 l 0,0 c 0,-0.365 -0.188,-0.408 -0.376,-0.408 l 0,0 c -0.802,0 -1.506,1.042 -3.998,1.042 l 0,0 c -1.88,0 -3.195,-0.86 -3.289,-2.724 l 0,0 0,-13.2 6.108,0 0.943,-1.631 c 0.141,-0.229 0.281,-0.457 0.281,-0.637 l 0,0 c 0,-0.137 -0.094,-0.363 -0.328,-0.363 l 0,0 c -0.14,0 -0.658,0.771 -1.833,0.771 l 0,0 -5.172,0 c 0,-3.266 0.045,-4.219 -0.613,-4.219 l 0,0 c -0.374,0 -0.844,1 -1.782,2.088 l 0,0 c -2.232,2.365 -3.117,3.161 -3.542,3.587 l 0,0 c -1.306,1.303 -3.492,2.461 -6.048,3.369 l 0,0 0,-19.019 C 98.439,1.274 98.155,1 97.875,1 l 0,0 c -1.083,0 -2.023,1.452 -5.643,2.268"
         id="SVGID_1_"
         inkscape:connector-curvature="0" /></defs><clipPath
       id="SVGID_2_"><use
         id="use4420"
         overflow="visible"
         xlink:href="#SVGID_1_"
         style="overflow:visible"
         x="0"
         y="0"
         width="100%"
         height="100%" /></clipPath><g
       id="g4422"
       clip-path="url(#SVGID_2_)"><g
         id="g4424"><defs
           id="defs4426"><rect
             height="42.951"
             width="214"
             y="1.1289999"
             x="1"
             id="SVGID_3_" /></defs><clipPath
           id="SVGID_4_"><use
             id="use4430"
             overflow="visible"
             xlink:href="#SVGID_3_"
             style="overflow:visible"
             x="0"
             y="0"
             width="100%"
             height="100%" /></clipPath><linearGradient
           gradientTransform="matrix(214,0,0,-206.4939,1,22.625)"
           y2="0"
           x2="1"
           y1="0"
           x1="0"
           gradientUnits="userSpaceOnUse"
           id="SVGID_5_"><stop
             id="stop4433"
             style="stop-color:#007CC3"
             offset="0" /><stop
             id="stop4435"
             style="stop-color:#007CC3"
             offset="0.5769" /><stop
             id="stop4437"
             style="stop-color:#037EC4"
             offset="0.6022" /><stop
             id="stop4439"
             style="stop-color:#0E83C7"
             offset="0.6238" /><stop
             id="stop4441"
             style="stop-color:#1F8DCD"
             offset="0.644" /><stop
             id="stop4443"
             style="stop-color:#389AD4"
             offset="0.6634" /><stop
             id="stop4445"
             style="stop-color:#58ABDE"
             offset="0.6821" /><stop
             id="stop4447"
             style="stop-color:#79BDE8"
             offset="0.6978" /><stop
             id="stop4449"
             style="stop-color:#79BDE8"
             offset="1" /></linearGradient><rect
           id="rect4451"
           height="42.868999"
           width="214"
           clip-path="url(#SVGID_4_)"
           y="1.211"
           x="1"
           style="fill:url(#SVGID_5_)" /></g></g></g></svg>