<?xml version="1.0" encoding="UTF-8" standalone="no"?>
<svg
   xmlns:dc="http://purl.org/dc/elements/1.1/"
   xmlns:cc="http://creativecommons.org/ns#"
   xmlns:rdf="http://www.w3.org/1999/02/22-rdf-syntax-ns#"
   xmlns:svg="http://www.w3.org/2000/svg"
   xmlns="http://www.w3.org/2000/svg"
   xmlns:xlink="http://www.w3.org/1999/xlink"
   version="1.1"
   id="Layer_1"
   x="0px"
   y="0px"
   height="48"
   width="112.1"
   viewBox="-177.1 193 112.1 48"
   xml:space="preserve"><g
     id="Layer_2"><g
       id="g5"><g
         id="g7"><g
           id="g9"><defs
             id="defs11"><rect
               id="SVGID_1_"
               x="-177.10001"
               y="193"
               width="111.8"
               height="47.700001" /></defs><clipPath
             id="SVGID_2_"><use
               height="100%"
               width="100%"
               y="0"
               x="0"
               style="overflow:visible"
               xlink:href="#SVGID_1_"
               overflow="visible"
               id="use15" /></clipPath><path
             style="fill:#c53c02;fill-opacity:1"
             clip-path="url(#SVGID_2_)"
             d="m -177,230.5 c 0,0.7 0.4,1 1,1 l 7.6,0 c 0.7,0 1,-0.4 1,-1 l 0,-28.2 -9.7,0 c 0.1,0.1 0.1,28.2 0.1,28.2 z m 15.8,0 c 0,0.3 0.1,0.5 0.3,0.7 0.2,0.2 0.4,0.3 0.7,0.3 l 6.9,0 c 0.3,0 0.5,-0.1 0.7,-0.3 0.2,-0.2 0.3,-0.5 0.3,-0.7 l 0,-28.2 -9,0 0,28.2 z m 15.2,-28.1 0,28.2 c 0,0.3 0.1,0.5 0.3,0.7 0.2,0.2 0.4,0.3 0.7,0.3 l 7.7,0 c 0.3,0 0.5,-0.1 0.7,-0.3 0.2,-0.2 0.3,-0.5 0.3,-0.7 l 0,-28.2 -9.7,0"
             id="path17" /></g><g
           id="g19"><defs
             id="defs21"><rect
               id="SVGID_3_"
               x="-177.10001"
               y="193"
               width="111.8"
               height="47.700001" /></defs><clipPath
             id="SVGID_4_"><use
               height="100%"
               width="100%"
               y="0"
               x="0"
               style="overflow:visible"
               xlink:href="#SVGID_3_"
               overflow="visible"
               id="use25" /></clipPath><path
             style="fill:#162f51;fill-opacity:1"
             clip-path="url(#SVGID_4_)"
             d="m -119.6,194 0,37.5 -8.7,0 c -0.7,0 -1,-0.3 -1,-1 l 0,-36.5 c 0,-0.7 0.3,-1 1,-1 l 7.6,0 c 0.8,0 1.1,0.4 1.1,1"
             id="path27" /></g><g
           id="g29"><defs
             id="defs31"><rect
               id="SVGID_5_"
               x="-177.10001"
               y="193"
               width="111.8"
               height="47.700001" /></defs><clipPath
             id="SVGID_6_"><use
               height="100%"
               width="100%"
               y="0"
               x="0"
               style="overflow:visible"
               xlink:href="#SVGID_5_"
               overflow="visible"
               id="use35" /></clipPath><path
             style="fill:#ecc700;fill-opacity:1"
             clip-path="url(#SVGID_6_)"
             d="m -87.7,194 0,37.5 -8.7,0 c -0.7,0 -1,-0.3 -1,-1 l 0,-36.5 c 0,-0.7 0.3,-1 1,-1 l 7.6,0 c 0.8,0 1.1,0.4 1.1,1"
             id="path37" /></g><g
           id="g39"><defs
             id="defs41"><rect
               id="SVGID_7_"
               x="-177.10001"
               y="193"
               width="111.8"
               height="47.700001" /></defs><clipPath
             id="SVGID_8_"><use
               height="100%"
               width="100%"
               y="0"
               x="0"
               style="overflow:visible"
               xlink:href="#SVGID_7_"
               overflow="visible"
               id="use45" /></clipPath><path
             style="fill:#ecc700;fill-opacity:1"
             clip-path="url(#SVGID_8_)"
             d="m -64.9,194 0,37.5 -8.7,0 c -0.7,0 -1,-0.3 -1,-1 l 0,-36.5 c 0,-0.7 0.3,-1 1,-1 l 7.6,0 c 0.7,0 1.1,0.4 1.1,1"
             id="path47" /></g></g><path
         style="fill:#751b00;fill-opacity:1"
         d="m -136.3,199.4 0,2.9 -40.7,0 0,-8.3 c 0,-0.7 0.4,-1 1,-1 l 33.2,0 c 0.9,0 1.7,0.2 2.5,0.5 0.8,0.3 1.5,0.8 2,1.4 0.6,0.6 1,1.2 1.4,2 0.4,0.8 0.6,1.7 0.6,2.5"
         id="path49" /><path
         style="fill:#265a8f;fill-opacity:1"
         d="m -103.4,223.3 0,7.3 c 0,0.3 -0.1,0.5 -0.3,0.7 -0.2,0.2 -0.4,0.3 -0.7,0.3 l -15.2,0 0,-9.4 15.2,0 c 0.3,0 0.5,0.1 0.7,0.3 0.2,0.2 0.3,0.5 0.3,0.8"
         id="path51" /><g
         id="g53"><rect
           style="fill:#fdee00;fill-opacity:1"
           x="-87.699997"
           y="207.39999"
           width="13"
           height="9.3999996"
           id="rect55" /><path
           style="fill:#343434;fill-opacity:1"
           d="m -170.8,235.9 c 0,0 0,0.1 0,0.1 0,0.1 0,0.1 0,0.2 l 0,4.6 c 0,0 0,0.1 0,0.1 0,0 -0.1,0 -0.1,0 l -1.2,0 c 0,0 -0.1,0 -0.1,0 0,0 0,-0.1 0,-0.1 l 0,-4.3 -1,0 0,4.3 c 0,0 0,0.1 0,0.1 0,0 -0.1,0 -0.1,0 l -1.1,0 c 0,0 -0.1,0 -0.1,0 0,0 0,-0.1 0,-0.1 l 0,-4.3 -1,0 0,4.3 c 0,0.1 -0.1,0.2 -0.2,0.2 l -1.2,0 c -0.1,0 -0.2,-0.1 -0.2,-0.2 l 0,-5.6 c 0,0 0,-0.1 0,-0.1 0,0 0.1,-0.1 0.1,-0.1 l 5,0 c 0,0 0.1,0 0.2,0 0.1,0 0.1,0 0.1,0 l 0.9,0.9 z m 6.3,0 c 0,0 0,0.1 0,0.2 0,0.1 0,0.1 0,0.2 l 0,4.6 c 0,0 0,0.1 0,0.1 0,0 -0.1,0 -0.1,0 l -1.2,0 c 0,0 -0.1,0 -0.1,0 0,0 0,-0.1 0,-0.1 l 0,-1.5 c 0,0 0,-0.1 0,-0.1 0,0 -0.1,0 -0.1,0 l -1.7,0 c 0,0 -0.1,0 -0.1,0 0,0 0,0.1 0,0.1 l 0,1.5 c 0,0 0,0.1 0,0.1 0,0 -0.1,0 -0.1,0 l -1.2,0 c 0,0 -0.1,0 -0.1,0 0,0 0,-0.1 0,-0.1 l 0,-4.7 c 0,0 0,-0.1 0,-0.1 0,-0.1 0,-0.1 0,-0.1 l 0.8,-0.8 c 0,0 0.1,0 0.1,0 0.1,0 0.1,0 0.2,0 l 2.7,0 c 0,0 0.1,0 0.2,0 0.1,0 0.1,0 0.1,0 l 0.6,0.7 z m -1.5,0.5 -2,0 0,1.5 2,0 0,-1.5 z m 6.7,-1.4 c 0,0 0.1,0 0.1,0.1 0,0 0,0.1 0,0.1 l 0,4.6 c 0,0 0,0.1 0,0.2 0,0.1 0,0.1 0,0.1 l -0.8,0.8 c 0,0 -0.1,0 -0.1,0.1 -0.1,0 -0.1,0 -0.2,0 l -2.2,0 c 0,0 -0.1,0 -0.2,0 -0.1,0 -0.1,0 -0.1,-0.1 l -0.8,-0.8 c 0,0 0,-0.1 -0.1,-0.1 0,-0.1 0,-0.1 0,-0.2 l 0,-1.7 c 0,0 0,-0.1 0,-0.1 0,0 0.1,0 0.1,0 l 1.2,0 c 0,0 0.1,0 0.1,0 0,0 0,0.1 0,0.1 l 0,1.2 c 0,0 0,0.1 0,0.1 0,0 0.1,0 0.1,0 l 1.2,0 c 0,0 0.1,0 0.1,0 0,0 0,-0.1 0,-0.1 l 0,-4.2 c 0,0 0,-0.1 0,-0.1 0,0 0.1,-0.1 0.1,-0.1 0.4,0.1 1.5,0.1 1.5,0.1 z m 6.4,0.9 c 0,0 0,0.1 0,0.1 0,0.1 0,0.1 0,0.2 l 0,3.7 c 0,0 0,0.1 0,0.2 0,0.1 0,0.1 0,0.1 l -0.8,0.8 c 0,0 -0.1,0 -0.2,0.1 -0.1,0 -0.1,0 -0.2,0 l -2.7,0 c 0,0 -0.1,0 -0.2,0 -0.1,0 -0.1,0 -0.1,-0.1 l -0.8,-0.8 c 0,0 0,-0.1 -0.1,-0.1 0,-0.1 0,-0.1 0,-0.2 l 0,-3.7 c 0,0 0,-0.1 0,-0.2 0,-0.1 0,-0.1 0.1,-0.1 l 0.8,-0.8 c 0,0 0.1,0 0.1,0 0.1,0 0.1,0 0.2,0 l 2.7,0 c 0,0 0.1,0 0.2,0 0.1,0 0.1,0 0.2,0 l 0.8,0.8 z m -1.4,0.6 -2,0 0,3.1 2,0 0,-3.1 z m 7.9,4.4 c 0,0 0,0.1 0,0.1 0,0 0,0 -0.1,0 l -1.4,0 c 0,0 -0.1,0 -0.1,0 0,0 -0.1,-0.1 -0.1,-0.1 l -1,-1.6 c 0,0 0,0 -0.1,0 l -1,0 c 0,0 0,0 0,0 l 0,1.6 c 0,0.1 -0.1,0.2 -0.2,0.2 l -1.2,0 c -0.1,0 -0.2,-0.1 -0.2,-0.2 l 0,-5.6 c 0,0 0,-0.1 0,-0.1 0,0 0.1,-0.1 0.1,-0.1 l 3.7,0 c 0,0 0.1,0 0.2,0 0.1,0 0.1,0 0.2,0 l 0.8,0.8 c 0,0 0,0.1 0,0.1 0,0.1 0,0.1 0,0.2 l 0,1.9 c 0,0 0,0.1 0,0.1 0,0 0,0.1 -0.1,0.1 l -0.8,0.8 1.3,1.8 z m -1.7,-4.5 -2.1,0 0,1.4 2.1,0 0,-1.4 z m 9.7,3.2 c 0,0 0.1,0 0.1,0 0,0 0,0.1 0,0.1 l 0,1.1 c 0,0 0,0.1 0,0.1 0,0 -0.1,0 -0.1,0 l -3.7,0 c -0.1,0 -0.2,-0.1 -0.2,-0.2 l 0,-5.6 c 0,-0.1 0.1,-0.2 0.2,-0.2 l 1.2,0 c 0.1,0 0.2,0.1 0.2,0.2 l 0,4.2 c 0,0 0,0.1 0,0.1 0,0 0.1,0 0.1,0 l 2.2,0.2 0,0 z m 2.5,-3.2 c -0.1,0 -0.1,0 0,0 l 0,1 c 0,0 0,0 0,0 l 2.4,0 c 0,0 0.1,0 0.1,0 0,0 0,0.1 0,0.1 l 0,0.9 c 0,0.1 -0.1,0.2 -0.2,0.2 l -2.4,0 c 0,0 0,0 0,0 l 0,0.9 c 0,0 0,0 0,0 l 2.9,0 c 0,0 0.1,0 0.1,0 0,0 0,0.1 0,0.1 l 0,1.1 c 0,0 0,0.1 0,0.1 0,0 -0.1,0 -0.1,0 l -3.2,0 c 0,0 -0.1,0 -0.2,0 -0.1,0 -0.1,0 -0.1,-0.1 l -0.8,-0.8 c 0,0 0,-0.1 -0.1,-0.1 0,-0.1 0,-0.1 0,-0.2 l 0,-3.7 c 0,0 0,-0.1 0,-0.2 0,-0.1 0,-0.1 0.1,-0.1 l 0.8,-0.8 c 0,0 0.1,0 0.1,0 0.1,0 0.1,0 0.2,0 l 3.2,0 c 0,0 0.1,0 0.1,0.1 0,0 0,0.1 0,0.1 l 0,1.1 c 0,0 0,0.1 0,0.1 0,0 -0.1,0 -0.1,0 l -2.8,0.2 0,0 z m 9.2,-0.5 c 0,0 0,0.1 0,0.2 0,0.1 0,0.1 0,0.2 l 0,4.6 c 0,0 0,0.1 0,0.1 0,0 -0.1,0 -0.1,0 l -1.2,0 c 0,0 -0.1,0 -0.1,0 0,0 0,-0.1 0,-0.1 l 0,-1.5 c 0,0 0,-0.1 0,-0.1 0,0 -0.1,0 -0.1,0 l -1.7,0 c 0,0 -0.1,0 -0.1,0 0,0 0,0.1 0,0.1 l 0,1.5 c 0,0 0,0.1 0,0.1 0,0 -0.1,0 -0.1,0 l -1.2,0 c 0,0 -0.1,0 -0.1,0 0,0 0,-0.1 0,-0.1 l 0,-4.7 c 0,0 0,-0.1 0,-0.1 0,-0.1 0,-0.1 0,-0.1 l 0.8,-0.8 c 0,0 0.1,0 0.1,0 0.1,0 0.1,0 0.2,0 l 2.7,0 c 0,0 0.1,0 0.2,0 0.1,0 0.1,0 0.1,0 l 0.6,0.7 z m -1.4,0.5 -2,0 0,1.5 2,0 0,-1.5 z m 7.6,1.4 c 0,0 0.1,0 0.1,0.1 0,0 0,0.1 0,0.1 l 0,1.9 c 0,0 0,0.1 0,0.2 0,0.1 0,0.1 0,0.1 l -0.8,0.8 c 0,0 -0.1,0 -0.2,0.1 -0.1,0 -0.1,0 -0.2,0 l -2.7,0 c 0,0 -0.1,0 -0.2,0 -0.1,0 -0.1,0 -0.1,-0.1 l -0.8,-0.8 c 0,0 0,-0.1 -0.1,-0.1 0,-0.1 0,-0.1 0,-0.2 l 0,-3.7 c 0,0 0,-0.1 0,-0.2 0,-0.1 0,-0.1 0.1,-0.1 l 0.8,-0.8 c 0,0 0.1,0 0.1,0 0.1,0 0.1,0 0.2,0 l 3.4,0 c 0,0 0.1,0 0.1,0.1 0,0 0,0.1 0,0.1 l 0,1.1 c 0,0 0,0.1 0,0.1 0,0 -0.1,0 -0.1,0 l -2.9,0 c 0,0 -0.1,0 -0.1,0 0,0 0,0.1 0,0.1 l 0,2.8 c 0,0 0,0.1 0,0.1 0,0 0.1,0 0.1,0 l 1.7,0 c 0,0 0.1,0 0.1,0 0,0 0,-0.1 0,-0.1 l 0,-1.5 c 0,0 0,-0.1 0,-0.1 0,0 0.1,-0.1 0.1,-0.1 l 1.4,0.1 0,0 z m 6.3,-2.8 c 0,0 0.1,0 0.1,0.1 0,0 0,0.1 0,0.1 l 0,4.7 0,0 c 0,0 0,0.1 0,0.1 0,0 0,0.1 0,0.1 l -0.8,0.8 c 0,0 -0.1,0 -0.1,0.1 -0.1,0 -0.1,0 -0.2,0 l -2.7,0 c 0,0 -0.1,0 -0.2,0 -0.1,0 -0.1,0 -0.1,-0.1 l -0.8,-0.8 c 0,0 0,-0.1 -0.1,-0.1 0,-0.1 0,-0.1 0,-0.2 l 0,-4.6 c 0,0 0,-0.1 0,-0.1 0,0 0.1,-0.1 0.1,-0.1 l 1.2,0 c 0,0 0.1,0 0.1,0.1 0,0 0,0.1 0,0.1 l 0,4.2 c 0,0 0,0.1 0,0.1 0,0 0.1,0 0.1,0 l 1.7,0 c 0,0 0.1,0 0.1,0 0,0 0,-0.1 0,-0.1 l 0,-4.2 c 0,0 0,-0.1 0,-0.1 0,0 0.1,-0.1 0.1,-0.1 l 1.5,0 0,0 z m 3,1.4 c -0.1,0 -0.1,0 0,0 l 0,1 c 0,0 0,0 0,0 l 2.4,0 c 0,0 0.1,0 0.1,0 0,0 0,0.1 0,0.1 l 0,0.9 c 0,0.1 -0.1,0.2 -0.2,0.2 l -2.4,0 c 0,0 0,0 0,0 l 0,0.9 c 0,0 0,0 0,0 l 2.9,0 c 0,0 0.1,0 0.1,0 0,0 0,0.1 0,0.1 l 0,1.1 c 0,0 0,0.1 0,0.1 0,0 -0.1,0 -0.1,0 l -3.2,0 c 0,0 -0.1,0 -0.2,0 -0.1,0 -0.1,0 -0.1,-0.1 l -0.8,-0.8 c 0,0 0,-0.1 -0.1,-0.1 0,-0.1 0,-0.1 0,-0.2 l 0,-3.7 c 0,0 0,-0.1 0,-0.2 0,-0.1 0,-0.1 0.1,-0.1 l 0.8,-0.8 c 0,0 0.1,0 0.1,0 0.1,0 0.1,0 0.2,0 l 3.2,0 c 0,0 0.1,0 0.1,0.1 0,0 0,0.1 0,0.1 l 0,1.1 c 0,0 0,0.1 0,0.1 0,0 -0.1,0 -0.1,0 l -2.8,0.2 0,0 z m 12,-1.4 c 0,0 0.1,0 0.1,0.1 0,0 0.1,0.1 0.1,0.1 l 0,5.6 c 0,0 0,0.1 -0.1,0.1 0,0 -0.1,0 -0.1,0 l -1.2,0 c 0,0 -0.1,0 -0.1,0 0,0 0,-0.1 0,-0.1 l 0,-2 c 0,0 0,-0.1 0,-0.1 0,0 -0.1,0 -0.1,0 l -1.7,0 c 0,0 -0.1,0 -0.1,0 0,0 0,0.1 0,0.1 l 0,2 c 0,0.1 -0.1,0.2 -0.2,0.2 l -1.2,0 c -0.1,0 -0.2,-0.1 -0.2,-0.2 l 0,-5.6 c 0,-0.1 0.1,-0.2 0.2,-0.2 l 1.2,0 c 0.1,0 0.2,0.1 0.2,0.2 l 0,1.9 c 0,0.1 0.1,0.2 0.2,0.2 l 1.7,0 c 0,0 0.1,0 0.1,0 0,0 0,-0.1 0,-0.1 l 0,-1.9 c 0,0 0,-0.1 0,-0.1 0,0 0.1,-0.1 0.1,-0.1 l 1.1,0 z m 6.4,0.9 c 0,0 0,0.1 0,0.2 0,0.1 0,0.1 0,0.2 l 0,4.6 c 0,0 0,0.1 0,0.1 0,0 -0.1,0 -0.1,0 l -1.1,0 c 0,0 -0.1,0 -0.1,0 0,0 0,-0.1 0,-0.1 l 0,-1.5 c 0,0 0,-0.1 0,-0.1 0,0 -0.1,0 -0.1,0 l -1.8,0 c 0,0 -0.1,0 -0.1,0 0,0 0,0.1 0,0.1 l 0,1.5 c 0,0 0,0.1 0,0.1 0,0 -0.1,0 -0.1,0 l -1.2,0 c 0,0 -0.1,0 -0.1,0 0,0 0,-0.1 0,-0.1 l 0,-4.7 c 0,0 0,-0.1 0,-0.1 0,0 0,-0.1 0,-0.1 l 0.8,-0.8 c 0,0 0.1,0 0.1,0 0.1,0 0.1,0 0.2,0 l 2.7,0 c 0,0 0.1,0 0.2,0 0.1,0 0.1,0 0.1,0 l 0.6,0.7 z m -1.4,0.5 -2,0 0,1.5 2,0 0,-1.5 z m 4.4,0.1 c 0,0 -0.1,0 -0.1,0 0,0 0,0.1 0,0.1 l 0,2.8 c 0,0 0,0.1 0,0.1 0,0 0.1,0 0.1,0 l 2.7,0 c 0,0 0.1,0 0.1,0 0,0 0,0.1 0,0.1 l 0,1.1 c 0,0 0,0.1 0,0.1 0,0 -0.1,0 -0.1,0 l -3.2,0 c 0,0 -0.1,0 -0.2,0 -0.1,0 -0.1,0 -0.1,-0.1 l -0.8,-0.8 c 0,0 0,-0.1 -0.1,-0.1 0,-0.1 0,-0.1 0,-0.2 l 0,-3.7 c 0,0 0,-0.1 0,-0.2 0,-0.1 0,-0.1 0.1,-0.1 l 0.8,-0.8 c 0,0 0.1,0 0.1,0 0,0 0.1,0 0.1,0 l 3.3,0 c 0,0 0.1,0 0.1,0.1 0,0 0,0.1 0,0.1 l 0,1.1 c 0,0 0,0.1 0,0.1 0,0 -0.1,0 -0.1,0 l -2.7,0 z m 7.7,1.1 c -0.1,0 -0.1,0 0,0 l 2,3.3 c 0,0 0,0.1 0,0.1 0,0 -0.1,0 -0.1,0 l -1.4,0 c 0,0 -0.1,0 -0.1,0 0,0 -0.1,-0.1 -0.1,-0.1 l -1.3,-2.3 c 0,0 0,0 0,0 l -0.7,0.8 c 0,0 -0.1,0.1 -0.1,0.1 0,0.1 0,0.1 0,0.1 l 0,1.3 c 0,0.1 -0.1,0.2 -0.2,0.2 l -1.2,0 c -0.1,0 -0.2,-0.1 -0.2,-0.2 l 0,-5.6 c 0,-0.1 0.1,-0.2 0.2,-0.2 l 1.2,0 c 0.1,0 0.2,0.1 0.2,0.2 l 0,2.5 2.2,-2.6 c 0,0 0.1,-0.1 0.1,-0.1 0.1,0 0.1,0 0.1,0 l 1.4,0 c 0,0 0.1,0 0.1,0 0,0 0,0.1 0,0.1 l -2.1,2.4 z m 4.5,3.2 c 0,0.1 -0.1,0.2 -0.2,0.2 l -1.2,0 c -0.1,0 -0.2,-0.1 -0.2,-0.2 l 0,-5.6 c 0,-0.1 0.1,-0.2 0.2,-0.2 l 1.2,0 c 0.1,0 0.2,0.1 0.2,0.2 l 0,5.6 z m 6.3,-4.9 c 0,0 0,0.1 0,0.1 0,0.1 0,0.1 0,0.2 l 0,4.6 c 0,0 0,0.1 -0.1,0.1 0,0 -0.1,0 -0.1,0 l -1.2,0 c 0,0 -0.1,0 -0.1,0 0,0 0,-0.1 0,-0.1 l 0,-4.2 c 0,0 0,-0.1 0,-0.1 0,0 -0.1,0 -0.1,0 l -1.7,0 c 0,0 -0.1,0 -0.1,0 0,0 0,0.1 0,0.1 l 0,4.2 c 0,0.1 -0.1,0.2 -0.2,0.2 l -1.2,0 c -0.1,0 -0.2,-0.1 -0.2,-0.2 l 0,-5.6 c 0,0 0,-0.1 0,-0.1 0,0 0.1,-0.1 0.1,-0.1 l 3.7,0 c 0,0 0.1,0 0.2,0 0.1,0 0.1,0 0.1,0 l 0.9,0.9 z m 6.2,1.9 c 0,0 0.1,0 0.1,0.1 0,0 0,0.1 0,0.1 l 0,1.9 c 0,0 0,0.1 0,0.2 0,0.1 0,0.1 0,0.1 l -0.8,0.8 c 0,0 -0.1,0 -0.2,0.1 -0.1,0 -0.1,0 -0.2,0 l -2.7,0 c 0,0 -0.1,0 -0.2,0 -0.1,0 -0.1,0 -0.1,-0.1 l -0.8,-0.8 c 0,0 0,-0.1 -0.1,-0.1 0,-0.1 0,-0.1 0,-0.2 l 0,-3.7 c 0,0 0,-0.1 0,-0.2 0,-0.1 0,-0.1 0.1,-0.1 l 0.8,-0.8 c 0,0 0.1,0 0.1,0 0.1,0 0.1,0 0.2,0 l 3.4,0 c 0,0 0.1,0 0.1,0.1 0,0 0,0.1 0,0.1 l 0,1.1 c 0,0 0,0.1 0,0.1 0,0 -0.1,0 -0.1,0 l -2.9,0 c 0,0 -0.1,0 -0.1,0 0,0 0,0.1 0,0.1 l 0,2.8 c 0,0 0,0.1 0,0.1 0,0 0.1,0 0.1,0 l 1.7,0 c 0,0 0.1,0 0.1,0 0,0 0,-0.1 0,-0.1 l 0,-1.5 c 0,0 0,-0.1 0,-0.1 0,0 0.1,-0.1 0.1,-0.1 l 1.4,0.1 0,0 z"
           id="path57" /></g></g></g></svg>