<svg version="1" xmlns="http://www.w3.org/2000/svg" width="1333.333" height="536" viewBox="0 0 1000.000000 402.000000"><path d="M179 1.1c-27.3 4.2-49.8 11.4-70.7 22.4C50.2 54.2 11.1 108.9 1.5 172.7c-2 13.6-2 43 0 56.6C13.9 311.7 75.2 377.4 158 396.9c28.6 6.8 63.9 7 94.5.6 28.1-5.9 60.6-21.4 84.5-40.5 9.6-7.7 27.3-25.5 34.1-34.5 23-30 36.8-65 40.9-102.7 5.1-48.2-9.9-99.8-40.9-140.3-6.8-9-24.5-26.8-34.1-34.5-29.3-23.3-63.6-38-102-43.6-10.5-1.5-46.9-1.7-56-.3zm-108.5 177c7.1 9.1 16.2 20.6 20 25.5l7 8.9.3-25.8.2-25.8 9.8.3 9.7.3.3 42.7.2 42.8h-17.6l-20.5-26.1-20.4-26.2-.3 26.2L59 247H39v-86.1l9.2.3 9.3.3 13 16.6zm134.5-8.6v8.5h-47v17h41v18h-41v17l23.8.2 23.7.3.3 8.2.3 8.3H138v-86h67v8.5zm43.6 5c4.9 7.4 9.1 13.5 9.4 13.5.3 0 4.5-6.1 9.4-13.5l8.9-13.5h10.8c6.3 0 10.9.4 10.9 1 0 .5-6.4 10-14.1 21l-14.2 20.1 7.7 11.2c4.2 6.2 11.1 16 15.2 21.9l7.5 10.8h-23.6l-8.9-13.6c-4.9-7.4-9.3-13.7-9.7-14-.5-.3-5 5.8-10.1 13.5l-9.3 14-11.2.1c-6.2 0-11.3-.2-11.3-.5s6.7-10 14.9-21.7l14.9-21.2-1.7-2.6c-1-1.4-7.5-10.7-14.4-20.7-7-10-12.7-18.4-12.7-18.7 0-.3 5.1-.6 11.4-.6h11.3l8.9 13.5zM381 170v9h-27v68h-20v-68h-26v-18h73v9zm85-9.9c-13.9 2.4-26.4 11.9-32.8 24.8-3.7 7.4-3.7 7.6-3.7 19.5 0 11.5.2 12.4 3.2 18.9 3.8 8 12.3 16.9 19.7 20.6 18 8.8 39.6 6.2 54.4-6.7l4.3-3.7-6.5-6.5-6.6-6.4-2.7 2.2c-4 3.3-12.1 6.9-17 7.7-9.4 1.5-20.8-4.8-25.5-13.9-2.9-5.6-3.5-15-1.4-21.2 5.6-16.9 24.3-22.4 40.3-11.8 2.9 1.8 5.5 3.4 5.8 3.4.5 0 7.5-7.5 10.6-11.4l2.2-2.8-2.9-2.4c-10.7-8.8-26.9-12.8-41.4-10.3zm86.1 7.6c-1.8 4.3-10.3 23.6-18.7 43-8.5 19.4-15.4 35.7-15.4 36.3 0 .7 3.4 1 10.1.8l10.1-.3 4.1-9.8 4.1-9.7h36.1l4.1 9.8 4.1 9.7 10.8.3c8.4.2 10.6 0 10.2-1-.3-.7-8.5-19.5-18.2-41.8-9.8-22.3-18.1-41.5-18.6-42.8-.8-2.1-1.4-2.2-10.2-2.2h-9.3l-3.3 7.7zm17.8 30.2c2.8 6.8 5.1 12.5 5.1 12.7 0 .2-4.7.4-10.5.4s-10.5-.3-10.5-.7c0-1 10.3-25.4 10.6-25.1.1.2 2.5 5.9 5.3 12.7zm180.9-31.2c-6.9 15.3-34.8 79.7-34.8 80.5 0 .5 4.6.7 10.2.6l10.1-.3 4.1-9.7 4.1-9.8h36.3l3.9 9.7 3.9 9.8 10.7.3c5.9.1 10.7.1 10.7-.2 0-.2-8.5-19.9-18.9-43.8l-18.8-43.3-9.2-.3-9.2-.3-3.1 6.8zm17.1 30.7c2.8 6.6 5.1 12.4 5.1 12.8 0 .4-4.8.8-10.6.8-8.1 0-10.5-.3-10.1-1.3 3-7.7 10.1-24.6 10.3-24.4.1.1 2.5 5.6 5.3 12.1zm157.7 5.3c-10.2 23.6-18.6 43.4-18.6 44 0 1 2.7 1.3 10 1.3 9.9 0 10.1 0 11-2.6.6-1.5 2.4-6 4.1-10l3.1-7.4 18 .2 18 .3 4.2 9.5 4.2 9.5 10.2.3c8 .2 10.2 0 10.2-1.1 0-.7-2.2-6.3-4.9-12.3-2.6-6-11-25.2-18.6-42.7L962.6 160h-18.3l-18.7 42.7zm38 8c-.2.2-5 .2-10.8.1l-10.4-.3 5.5-12.8 5.4-12.8 5.3 12.7c2.9 7 5.2 12.9 5 13.1zm-339.4-6.5l.3 43.3h19.6l-.1-26.9-.1-26.9 11.4 14.5c6.2 7.9 15.7 20.1 21.2 27.1l9.8 12.7H703v-87h-20l-.2 25.4-.3 25.3-19.8-25.3-19.8-25.4H624l.2 43.2zm198 0l.3 43.3 17 .3c9.4.2 20.6-.2 25-.8 16.2-2.1 29.4-11.3 35.8-24.8 3-6.3 3.2-7.3 3.2-18.2 0-11-.2-11.9-3.3-18.2-3.7-7.6-12.3-16.2-19.6-19.7-9.4-4.4-14.8-5.1-37.3-5.1H822l.2 43.2zm46.8-22.8c4.9 2.5 8.8 6.4 11.3 11.1 2.9 5.4 3.1 18.3.3 23.5-5.1 9.6-10.4 12.3-25.9 13l-11.7.5v-50.7l11.3.4c8.3.3 12.1.9 14.7 2.2z" fill="#D8272D"/></svg>