<?xml version="1.0" encoding="utf-8"?>
<!-- Generator: Adobe Illustrator 16.0.0, SVG Export Plug-In . SVG Version: 6.00 Build 0)  -->
<!DOCTYPE svg PUBLIC "-//W3C//DTD SVG 1.1//EN" "http://www.w3.org/Graphics/SVG/1.1/DTD/svg11.dtd">
<svg version="1.1" id="Layer_1" xmlns="http://www.w3.org/2000/svg" xmlns:xlink="http://www.w3.org/1999/xlink" x="0px" y="0px"
	 width="312px" height="119px" viewBox="0 0 312 119" enable-background="new 0 0 312 119" xml:space="preserve">
<g id="XxHlK4.tif">
	<g>
		<path fill-rule="evenodd" clip-rule="evenodd" fill="#EB8E36" d="M162.406,21.483c3.705-3.091,7.36-5.072,11.83-5.277
			c4.132-0.189,7.754,0.713,10.204,4.303c0.872,1.28,1.381,0.682,2.168,0.004c4.813-4.146,10.368-5.302,16.433-3.679
			c4.271,1.143,6.404,4.203,6.426,8.601c0.011,2.216-0.387,4.376-0.872,6.521c-1.259,5.569-2.586,11.124-3.795,16.705
			c-0.265,1.22-0.685,1.697-1.999,1.661c-3.519-0.097-7.043-0.085-10.562-0.007c-1.456,0.032-1.903-0.248-1.514-1.836
			c1.362-5.544,2.62-11.117,3.807-16.702c0.629-2.955-0.072-4.657-1.929-5.485c-2.267-1.01-5.374-0.142-6.913,1.942
			c-0.708,0.958-1.118,2.044-1.385,3.203c-1.297,5.636-2.659,11.258-3.89,16.909c-0.318,1.457-0.827,2.056-2.432,1.987
			c-3.367-0.145-6.753-0.158-10.119,0.001c-1.857,0.088-1.97-0.52-1.586-2.081c1.293-5.261,2.459-10.553,3.674-15.833
			c0.032-0.143,0.092-0.28,0.123-0.422c0.705-3.23,0.07-5.165-1.913-5.843c-2.691-0.92-5.871,0.3-7.206,2.789
			c-0.952,1.772-1.182,3.767-1.643,5.682c-1.109,4.626-2.164,9.268-3.17,13.918c-0.271,1.253-0.72,1.831-2.15,1.783
			c-3.591-0.119-7.188-0.053-10.783-0.03c-0.982,0.006-1.623,0.073-1.281-1.378c2.365-10.048,4.639-20.117,6.903-30.188
			c0.264-1.174,0.868-1.452,1.992-1.431c3.52,0.067,7.045,0.105,10.562-0.01c1.722-0.056,2.057,0.5,1.454,1.999
			C162.632,19.815,162.609,20.416,162.406,21.483z"/>
		<path fill-rule="evenodd" clip-rule="evenodd" fill="#EB8E36" d="M259.251,50.3c2.441-10.705,4.815-21.046,7.144-31.396
			c0.275-1.224,0.833-1.629,2.101-1.594c3.371,0.095,6.751,0.132,10.12-0.006c1.92-0.079,2.571,0.411,1.805,2.299
			c-0.236,0.583-0.259,1.253-0.431,2.158c0.836-0.664,1.457-1.162,2.084-1.653c4.498-3.523,9.656-4.543,15.153-3.588
			c5.821,1.012,9.056,5.716,8.108,11.85c-1.086,7.02-3.045,13.866-4.562,20.801c-0.2,0.911-0.628,1.153-1.497,1.145
			c-3.813-0.035-7.628-0.042-11.44,0.002c-1.113,0.013-1.346-0.286-1.077-1.4c1.215-5.052,2.352-10.124,3.483-15.196
			c0.759-3.396,0.234-5.209-1.782-6.468c-2.191-1.367-5.664-1.095-7.855,0.64c-2.126,1.684-3.106,4.036-3.695,6.577
			c-1.075,4.634-2.168,9.267-3.122,13.927c-0.309,1.509-0.909,1.995-2.465,1.945C267.372,50.217,263.416,50.3,259.251,50.3z"/>
		<path fill-rule="evenodd" clip-rule="evenodd" fill="#EB8E36" d="M136.621,41.524c-0.611,2.695-1.195,5.242-1.763,7.792
			c-0.177,0.796-0.679,1.004-1.438,0.996c-3.738-0.04-7.487,0.126-11.212-0.104c-4.934-0.306-7.312-3.412-6.449-8.415
			c0.708-4.105,1.649-8.18,2.692-12.214c0.452-1.747,0.259-2.515-1.669-2.214c-2.083,0.325-2.787-0.404-1.988-2.45
			c0.262-0.672,0.327-1.423,0.481-2.138c0.766-3.542,0.761-3.621,4.413-3.819c1.279-0.069,1.388-0.848,1.581-1.677
			c0.634-2.707,1.301-5.41,1.802-8.143c0.233-1.271,0.759-1.695,2.031-1.668c3.444,0.072,6.895,0.117,10.335-0.015
			c1.719-0.066,2.173,0.359,1.708,2.057c-0.715,2.608-1.163,5.289-1.87,7.9c-0.342,1.263,0.032,1.484,1.202,1.528
			c4.025,0.149,4.022,0.188,3.072,4.234c-0.067,0.285-0.085,0.583-0.166,0.863c-1.096,3.812,0.098,3.385-4.199,3.269
			c-1.769-0.048-2.439,0.561-2.737,2.178c-0.424,2.301-1.005,4.573-1.531,6.854c-0.938,4.068,0.025,5.258,4.212,5.186
			C135.556,41.518,135.982,41.524,136.621,41.524z"/>
		<path fill-rule="evenodd" clip-rule="evenodd" fill="#4BBBCB" d="M236.767,106.598c-0.438,0.024-0.882,0.012-1.313,0.078
			c-1.691,0.26-2.405-0.349-2.203-2.137c0.148-1.302-0.044-2.641,0.049-3.954c0.092-1.282-1.521-1.943-1.314-3.427
			c-1.2,2.211-2.406,4.419-3.6,6.635c-1.211,2.25-2.406,4.511-3.616,6.763c-0.341,0.635-0.597,1.388-1.548,1.311
			c-1.009-0.082-2.354,0.462-2.942-0.242c-0.641-0.766,0.411-1.784,0.935-2.466c2.189-2.859,1.915-5.479-0.214-8.245
			c-1.047-1.362-1.712-3.017-2.534-4.51c4.399-1.734,5.454,1.581,6.71,4.346c0.752-0.048,0.836-0.578,0.944-0.901
			c0.937-2.783,2.529-4.468,5.757-3.77c0.992,0.215,1.557-0.259,1.396-1.331c-0.235-1.571,0.606-1.761,1.922-1.781
			c1.411-0.021,2.279,0.191,2.035,1.87c-0.065,0.456-0.165,1.231,0.572,1.189c1.95-0.112,1.658,1.198,1.548,2.329
			c-0.146,1.494-1.381,0.552-2.075,0.84c-0.667,1.659-0.112,3.389-0.295,5.076C236.896,105.045,237.178,105.854,236.767,106.598z"/>
		<path fill-rule="evenodd" clip-rule="evenodd" fill="#4BBBCB" d="M176.428,87.659c-0.511,0.024-1.028,0.01-1.533,0.079
			c-1.539,0.215-2.104-0.419-1.978-1.962c0.111-1.383,0.027-2.783,0.007-4.174c-0.015-0.901-0.415-1.619-1.348-1.724
			c-1.008-0.115-1.478,0.714-1.592,1.496c-0.18,1.221-0.105,2.478-0.151,3.719c-0.048,1.281,0.539,2.747-1.871,2.713
			c-2.503-0.034-1.657-1.645-1.748-2.839c-0.088-1.161-0.007-2.324-0.276-3.487c-0.195-0.848-0.356-1.617-1.395-1.646
			c-1.144-0.033-1.537,0.825-1.615,1.723c-0.134,1.529-0.217,3.08-0.108,4.606c0.111,1.554-0.716,1.575-1.87,1.597
			c-1.245,0.024-1.902-0.222-1.826-1.674c0.107-2.119,0.025-4.248,0.027-6.372c0.001-2.569,1.004-3.271,3.443-2.354
			c0.272,0.102,0.363,0.59,0.832,0.298c2.102-1.309,4.068-1.341,5.969,0.484c0.621,0.598,0.935-0.414,1.378-0.662
			c2.671-1.497,4.917-0.796,5.948,1.934C176.416,82.155,176.951,84.927,176.428,87.659z"/>
		<path fill-rule="evenodd" clip-rule="evenodd" fill="#4BBBCB" d="M263.633,87.659c-0.511,0.024-1.028,0.01-1.532,0.079
			c-1.54,0.215-2.105-0.419-1.979-1.962c0.111-1.383,0.027-2.783,0.006-4.174c-0.014-0.901-0.414-1.619-1.347-1.725
			c-1.008-0.114-1.478,0.715-1.592,1.497c-0.179,1.221-0.105,2.478-0.151,3.719c-0.048,1.281,0.539,2.747-1.871,2.713
			c-2.502-0.034-1.657-1.645-1.748-2.839c-0.088-1.161-0.007-2.324-0.276-3.487c-0.195-0.848-0.356-1.617-1.395-1.646
			c-1.144-0.033-1.537,0.826-1.615,1.723c-0.134,1.529-0.218,3.08-0.108,4.606c0.111,1.554-0.716,1.574-1.871,1.597
			c-1.244,0.024-1.9-0.222-1.826-1.674c0.108-2.119,0.026-4.248,0.028-6.372c0.001-2.569,1.003-3.271,3.443-2.354
			c0.272,0.102,0.362,0.59,0.831,0.297c2.102-1.308,4.069-1.34,5.971,0.485c0.62,0.598,0.934-0.414,1.377-0.662
			c2.671-1.497,4.918-0.796,5.948,1.934C263.621,82.155,264.156,84.927,263.633,87.659z"/>
		<path fill-rule="evenodd" clip-rule="evenodd" fill="#4BBBCB" d="M203.294,70.923c-0.511,0.024-1.028,0.01-1.532,0.079
			c-1.54,0.215-2.105-0.419-1.979-1.962c0.111-1.383,0.027-2.782,0.006-4.174c-0.014-0.901-0.414-1.619-1.347-1.724
			c-1.008-0.115-1.478,0.714-1.592,1.496c-0.179,1.221-0.105,2.478-0.151,3.719c-0.048,1.281,0.539,2.747-1.871,2.713
			c-2.502-0.034-1.657-1.645-1.748-2.839c-0.088-1.161-0.007-2.324-0.276-3.487c-0.196-0.848-0.356-1.617-1.395-1.646
			c-1.144-0.033-1.538,0.824-1.615,1.723c-0.134,1.529-0.218,3.08-0.108,4.606c0.111,1.554-0.717,1.575-1.871,1.597
			c-1.244,0.024-1.901-0.222-1.826-1.674c0.108-2.119,0.026-4.248,0.027-6.373c0.002-2.568,1.004-3.27,3.444-2.354
			c0.272,0.104,0.362,0.591,0.831,0.299c2.102-1.309,4.069-1.341,5.971,0.484c0.62,0.598,0.934-0.414,1.377-0.662
			c2.671-1.497,4.918-0.796,5.948,1.934C203.282,65.418,203.817,68.19,203.294,70.923z"/>
		<path fill-rule="evenodd" clip-rule="evenodd" fill="#4BBBCB" d="M197.128,106.598c-0.438,0.024-0.881,0.012-1.312,0.078
			c-1.695,0.26-2.403-0.362-2.204-2.144c0.138-1.228-0.033-2.485,0-3.729c0.028-1.011-0.347-1.8-1.329-1.976
			c-1.161-0.208-1.833,0.698-1.984,1.633c-0.231,1.43-0.253,2.915-0.175,4.366c0.075,1.397-0.323,1.919-1.811,1.893
			c-1.4-0.023-1.965-0.369-1.885-1.854c0.113-2.117,0.025-4.244,0.029-6.366c0.004-2.401,0.708-3.094,2.962-2.299
			c0.92,0.324,1.441,0.229,2.206-0.089c2.743-1.143,4.802-0.158,5.778,2.691C197.128,101.395,197.651,104.015,197.128,106.598z"/>
		<path fill-rule="evenodd" clip-rule="evenodd" fill="#4BBBCB" d="M203.734,87.659c-0.438,0.024-0.881,0.013-1.312,0.078
			c-1.695,0.26-2.403-0.362-2.204-2.144c0.138-1.228-0.033-2.485,0-3.729c0.028-1.011-0.347-1.8-1.329-1.976
			c-1.162-0.208-1.833,0.698-1.984,1.633c-0.231,1.43-0.253,2.915-0.175,4.366c0.075,1.397-0.323,1.919-1.811,1.893
			c-1.4-0.023-1.965-0.369-1.885-1.854c0.113-2.117,0.025-4.244,0.028-6.366c0.005-2.402,0.709-3.094,2.963-2.299
			c0.92,0.324,1.441,0.229,2.206-0.089c2.743-1.143,4.802-0.158,5.778,2.691C203.734,82.456,204.258,85.076,203.734,87.659z"/>
		<path fill-rule="evenodd" clip-rule="evenodd" fill="#4BBBCB" d="M289.178,87.659c-0.438,0.024-0.881,0.013-1.312,0.078
			c-1.695,0.26-2.403-0.362-2.203-2.144c0.137-1.228-0.034-2.485,0-3.729c0.027-1.011-0.349-1.8-1.33-1.976
			c-1.162-0.208-1.833,0.698-1.984,1.633c-0.231,1.43-0.253,2.915-0.174,4.366c0.074,1.397-0.324,1.919-1.812,1.893
			c-1.4-0.023-1.965-0.369-1.885-1.854c0.113-2.117,0.025-4.244,0.029-6.366c0.004-2.402,0.708-3.094,2.962-2.299
			c0.92,0.324,1.441,0.229,2.206-0.089c2.743-1.143,4.802-0.158,5.778,2.691C289.178,82.456,289.701,85.076,289.178,87.659z"/>
		<path fill-rule="evenodd" clip-rule="evenodd" fill="#4BBBCB" d="M285.653,55.753c-0.01,0.883,0.245,1.692-1.207,1.4
			c-1.007-0.203-1.396,0.78-1.43,1.775c-0.032,0.936,0.133,1.636,1.288,1.488c1.307-0.169,1.381,0.613,1.369,1.606
			c-0.012,0.903-0.069,1.645-1.262,1.489c-1.274-0.164-1.43,0.588-1.398,1.604c0.046,1.539-0.053,3.082,0.027,4.616
			c0.076,1.413-0.832,1.29-1.723,1.26c-0.895-0.032-2.018,0.319-1.941-1.277c0.063-1.315,0.047-2.639-0.003-3.956
			c-0.033-0.884,0.234-1.762-0.939-2.429c-0.781-0.444-0.706-2.227-0.13-2.542c1.438-0.787,1-1.917,1.079-2.996
			c0.189-2.584,2.718-4.443,5.275-3.987C286.072,54.057,285.504,55.086,285.653,55.753z"/>
		<path fill-rule="evenodd" clip-rule="evenodd" fill="#4BBCCB" d="M261.669,95.655c0.233,0.044,0.897,0.099,1.512,0.303
			c0.526,0.174,1.623,0.01,1.188,1.058c-0.308,0.743-0.396,2.075-1.873,1.571c-0.341-0.117-0.698-0.219-1.055-0.248
			c-0.478-0.04-0.952,0.181-1.023,0.636c-0.053,0.338,0.341,0.58,0.746,0.664c0.499,0.104,0.981,0.292,1.476,0.419
			c1.338,0.346,2.201,1.125,2.308,2.56c0.118,1.588-0.356,2.873-1.887,3.628c-2.124,1.047-4.229,0.828-6.365,0.028
			c-0.806-0.301-1.085-0.756-0.554-1.449c0.452-0.59,0.328-1.947,1.72-1.417c0.983,0.375,2.512,1.326,2.869,0.165
			c0.409-1.326-1.455-1.039-2.367-1.394c-1.88-0.732-2.472-3.074-1.202-4.757C257.985,96.329,259.508,95.672,261.669,95.655z"/>
		<path fill-rule="evenodd" clip-rule="evenodd" fill="#4BBCCB" d="M223.238,71.336c-0.706-0.135-1.618-0.177-2.413-0.502
			c-0.637-0.262-2.045-0.182-1.276-1.633c0.488-0.924,0.738-2.264,2.309-1.247c0.35,0.228,0.815,0.334,1.239,0.371
			c0.481,0.042,1.128,0.162,1.261-0.531c0.142-0.743-0.565-0.716-1.006-0.891c-3.158-1.253-3.938-2.298-3.226-4.345
			c0.643-1.848,3.524-3.095,6.015-2.41c0.584,0.16,2.156-0.237,1.619,1.339c-0.317,0.931-0.688,2.054-2.172,1.296
			c-0.608-0.312-1.461-0.294-1.685,0.469c-0.184,0.629,0.612,0.635,1.066,0.801c3.082,1.119,3.825,2.028,3.398,4.143
			C228.002,70.021,225.828,71.395,223.238,71.336z"/>
		<path fill-rule="evenodd" clip-rule="evenodd" fill="#4BBCCB" d="M254.301,103.243c0.169,3.597-0.618,4.249-3.882,3.514
			c-3.042-0.685-4.566-2.699-4.408-5.823c0.142-2.762,2.345-4.986,5.218-5.269c2.613-0.257,3.259,0.508,3.062,3.775
			c-1.406-0.716-2.787-0.97-3.862,0.471c-0.693,0.93-0.643,1.949,0.011,2.854C251.445,104.16,252.81,103.878,254.301,103.243z"/>
		<path fill-rule="evenodd" clip-rule="evenodd" fill="#4BBBCB" d="M213.764,98.303c0-2.34,0.089-4.686-0.031-7.02
			c-0.082-1.563,0.631-1.764,1.945-1.784c1.312-0.019,1.781,0.316,1.755,1.709c-0.084,4.606-0.086,9.216,0,13.823
			c0.027,1.435-0.538,1.709-1.797,1.667c-1.142-0.036-1.975-0.052-1.9-1.594C213.845,102.843,213.764,100.57,213.764,98.303z"/>
		<path fill-rule="evenodd" clip-rule="evenodd" fill="#4BBCCB" d="M234.124,70.924c-0.438,0.023-0.881,0.011-1.313,0.077
			c-1.685,0.259-2.256-0.35-2.237-2.13c0.021-2.008,0.405-4.012-0.734-6.068c-0.899-1.623,0.859-3.402,1.17-5.193
			c0.112-0.643,1.872-0.287,2.866-0.223c1.02,0.066,0.578,0.979,0.691,1.556c0.102,0.521-0.255,1.43,0.598,1.397
			c1.954-0.074,1.651,1.217,1.542,2.342c-0.144,1.491-1.379,0.552-2.074,0.838c-0.667,1.659-0.111,3.389-0.295,5.076
			C234.254,69.37,234.535,70.179,234.124,70.924z"/>
		<path fill-rule="evenodd" clip-rule="evenodd" fill="#4BBCCB" d="M295.784,87.66c-0.438,0.023-0.881,0.012-1.313,0.077
			c-1.685,0.259-2.256-0.35-2.237-2.13c0.021-2.008,0.405-4.012-0.734-6.067c-0.899-1.624,0.859-3.403,1.17-5.194
			c0.112-0.643,1.872-0.287,2.866-0.222c1.02,0.065,0.578,0.978,0.691,1.555c0.102,0.521-0.254,1.43,0.598,1.397
			c1.954-0.074,1.651,1.216,1.542,2.342c-0.144,1.491-1.379,0.552-2.074,0.838c-0.667,1.659-0.111,3.389-0.295,5.076
			C295.914,86.106,296.195,86.915,295.784,87.66z"/>
		<path fill-rule="evenodd" clip-rule="evenodd" fill="#4BBBCB" d="M252.586,60.445c1.208,1.039,2.787,0.309,4.413-0.04
			c1.555-0.335,1.326,0.886,1.319,1.808c-0.007,0.848,0.262,1.775-1.319,1.396c-1.484-0.356-2.449,0.522-2.837,2.042
			c-0.278,1.09-0.306,2.198-0.172,3.266c0.231,1.857-0.617,2.231-2.238,2.109c-0.979-0.074-1.468-0.289-1.447-1.373
			c0.049-2.631,0.079-5.266-0.008-7.895C250.245,60.191,251.24,60.419,252.586,60.445z"/>
		<path fill-rule="evenodd" clip-rule="evenodd" fill="#4BBBCB" d="M244.267,101.424c0.001,1.025-0.02,2.053,0.006,3.078
			c0.029,1.197,0.209,2.238-1.686,2.238c-1.794-0.001-2.052-0.708-1.985-2.218c0.104-2.342,0.097-4.693,0.006-7.035
			c-0.059-1.505,0.852-1.404,1.841-1.399c0.971,0.004,1.949-0.15,1.837,1.379C244.189,98.778,244.266,100.104,244.267,101.424z"/>
		<path fill-rule="evenodd" clip-rule="evenodd" fill="#4DBDCC" d="M244.696,92.238c-0.307,1.163-0.962,2.069-2.214,2.051
			c-1.343-0.021-2.204-0.889-2.155-2.254c0.044-1.238,0.865-2.071,2.122-2.059C243.813,89.989,244.491,90.919,244.696,92.238z"/>
		<path fill-rule="evenodd" clip-rule="evenodd" fill="#4BBBC3" d="M231.313,88.114c-0.61-3.614-0.112-7.257-0.272-10.884
			c0.902,1.301,0.367,2.766,0.407,4.143C231.514,83.617,231.37,85.867,231.313,88.114z"/>
		<path fill-rule="evenodd" clip-rule="evenodd" fill="#4BBBC3" d="M203.294,70.923c0.183-2.745-0.373-5.517,0.293-8.245
			C203.642,65.432,204.196,68.203,203.294,70.923z"/>
		<path fill-rule="evenodd" clip-rule="evenodd" fill="#4BBBC3" d="M176.428,87.659c0.183-2.745-0.373-5.517,0.293-8.245
			C176.775,82.169,177.33,84.939,176.428,87.659z"/>
		<path fill-rule="evenodd" clip-rule="evenodd" fill="#4BBBC3" d="M263.633,87.659c0.183-2.745-0.373-5.517,0.293-8.245
			C263.98,82.169,264.535,84.939,263.633,87.659z"/>
		<path fill-rule="evenodd" clip-rule="evenodd" fill="#4BBBC3" d="M203.734,87.659c0.154-2.596-0.325-5.216,0.275-7.796
			C204.091,82.468,204.638,85.09,203.734,87.659z"/>
		<path fill-rule="evenodd" clip-rule="evenodd" fill="#4BBBC3" d="M197.128,106.598c0.154-2.596-0.325-5.215,0.275-7.796
			C197.484,101.406,198.031,104.028,197.128,106.598z"/>
		<path fill-rule="evenodd" clip-rule="evenodd" fill="#4BBBC3" d="M289.178,87.659c0.154-2.596-0.324-5.216,0.275-7.796
			C289.533,82.468,290.081,85.09,289.178,87.659z"/>
		<path fill-rule="evenodd" clip-rule="evenodd" fill="#4BBBC3" d="M295.784,87.66c0.289-2.46-0.621-5.003,0.508-7.404
			c-0.022,1.96-0.021,3.921-0.084,5.88C296.191,86.653,296.529,87.324,295.784,87.66z"/>
		<path fill-rule="evenodd" clip-rule="evenodd" fill="#4BBBC3" d="M236.767,106.598c0.289-2.459-0.621-5.002,0.508-7.403
			c-0.022,1.96-0.021,3.921-0.084,5.88C237.174,105.592,237.512,106.264,236.767,106.598z"/>
		<path fill-rule="evenodd" clip-rule="evenodd" fill="#4BBBC3" d="M234.124,70.924c0.289-2.46-0.621-5.003,0.508-7.404
			c-0.022,1.96-0.021,3.921-0.084,5.88C234.531,69.917,234.869,70.588,234.124,70.924z"/>
		<path fill-rule="evenodd" clip-rule="evenodd" fill="#EB8E36" d="M53.202,31.641c5.251-2.936,8.208-8.704,7.337-14.589
			c-0.756-5.111-4.217-8.296-10.565-9.682c-0.783-0.171-1.593-0.228-2.394-0.303c-4.978-0.468-9.97-0.155-14.157-0.255
			c-5.86,0-10.922,0.044-15.983-0.031c-1.256-0.019-1.839,0.351-2.119,1.585c-3.044,13.422-6.11,26.84-9.225,40.246
			c-0.349,1.502,0.176,1.724,1.498,1.702c3.96-0.066,7.923-0.067,11.883,0.002c1.255,0.021,1.772-0.352,2.034-1.638
			c0.788-3.873,1.805-7.698,2.614-11.567c0.311-1.485,0.925-2.067,2.497-1.948c2.042,0.154,4.112,0.138,6.157,0.004
			c1.487-0.098,2.198,0.404,2.731,1.815c2.02,5.342,4.226,10.614,6.26,15.951c0.499,1.31,1.049,1.638,2.394,1.179
			c3.463-1.182,6.947-2.325,10.478-3.28c1.572-0.425,1.538-1.016,0.991-2.272c-1.58-3.625-3.055-7.294-4.558-10.953
			c-0.528-1.285-1.555-2.663-1.386-3.861C49.906,32.213,51.983,32.323,53.202,31.641z M42.426,24.639
			c-1.162,0.663-2.424,1.004-3.775,0.995c-1.684-0.011-3.368-0.003-5.052-0.001c-1.757,0.002-3.517-0.05-5.271,0.02
			c-1.136,0.046-1.428-0.419-1.163-1.427c0.019-0.071,0.026-0.145,0.044-0.215c0.621-2.474,0.534-5.641,2.074-7.218
			c1.403-1.437,4.596-0.312,6.999-0.404c1.389-0.054,2.782-0.028,4.173,0c1.995,0.039,3.849,0.37,4.513,2.658
			C45.544,21.025,44.42,23.503,42.426,24.639z"/>
		<path fill-rule="evenodd" clip-rule="evenodd" fill="#EB8E36" d="M258.226,17.374c-2.785,0.063-5.574,0.075-8.357-0.027
			c-2.062-0.076-3.959-0.139-3.7,3.097c-2.943-2.415-4.133-3.064-6.477-3.642c-11.849-2.92-25.55,6.208-27.501,18.322
			c-1.096,6.802,2.216,12.925,8.562,15.082c6.678,2.268,12.981,1.301,18.77-3.359c-0.068,0.617-0.023,1.058-0.173,1.419
			c-0.7,1.686-0.11,2.109,1.606,2.047c3.223-0.117,6.453-0.058,9.678,0.012c1.06,0.023,1.536-0.307,1.787-1.366
			c2.36-9.97,4.765-19.929,7.179-29.886C259.901,17.825,259.56,17.344,258.226,17.374z M240.143,36.921
			c-2.56,3.864-8.405,5.541-12.711,3.727c-2.493-1.05-3.741-3.358-3.258-6.021c0.874-4.806,5.199-8.136,11.098-8.099
			c2,0.125,4.46,0.614,5.757,3.147C242.333,32.222,241.626,34.683,240.143,36.921z"/>
		<path fill-rule="evenodd" clip-rule="evenodd" fill="#EB8E36" d="M99.18,17.603c-3.712-1.063-7.49-1.276-10.983-1.495
			c-1.987,0.105-3.678,0.118-5.352,0.298c-4.856,0.522-9.523,1.673-13.578,4.576c-5.878,4.209-7.838,10.12-6.797,16.991
			c0.957,6.315,5.183,9.982,11.046,11.87c6.059,1.951,12.255,2.005,18.462,0.873c5.527-1.008,10.493-3.165,14.324-7.484
			C112.959,35.727,112.043,21.287,99.18,17.603z M87.643,42.333c-1.075,0.181-2.195,0.244-3.283,0.173
			c-5.713-0.373-8.659-4.459-7.285-10.03c1.148-4.657,4.944-7.45,10.109-7.442c4.835,0.008,7.834,2.275,8.195,6.194
			C95.896,36.859,92.703,41.48,87.643,42.333z"/>
		<path fill-rule="evenodd" clip-rule="evenodd" fill="#4BBBCB" d="M231.041,77.23c-1.557-0.416-3.163,0.499-4.686-0.1
			c-2.283-0.897-4.193-0.314-5.74,1.413c-1.589,1.773-1.95,3.876-1.053,6.116c1.213,3.023,3.811,3.845,7.819,2.513
			c-0.12,2.432-1.448,3.364-3.256,2.116c-0.898-0.621-1.756-0.626-2.682-0.594c-0.611,0.021-1.439-0.351-1.783,0.392
			c-0.411,0.889,0.27,1.517,0.877,2.047c2.191,1.911,4.759,2.097,7.407,1.378c2.164-0.587,3.081-2.29,3.368-4.397
			C231.043,84.491,231.563,80.849,231.041,77.23z M225.464,84.587c-1.424,0.018-2.312-0.911-2.321-2.365
			c-0.01-1.426,1.012-2.192,2.266-2.169c1.26,0.022,2.156,0.834,2.184,2.263C227.625,83.771,226.771,84.57,225.464,84.587z"/>
		<path fill-rule="evenodd" clip-rule="evenodd" fill="#4BBBCB" d="M182.711,96.049c-1.332-0.045-2.616,0.521-4.02-0.067
			c-2.025-0.852-4.17-0.017-5.605,1.836c-1.386,1.79-1.459,4.838-0.164,6.813c1.197,1.823,3.406,2.664,5.526,2.135
			c0.954-0.238,1.817-0.42,2.923-0.185c2.727,0.584,2.957,0.237,2.959-2.555c0.002-0.879,0-1.756,0-2.636
			c-0.001-1.243-0.07-2.494,0.019-3.732C184.44,96.386,183.918,96.089,182.711,96.049z M178.208,103.561
			c-1.465-0.063-2.282-0.921-2.2-2.414c0.082-1.426,0.98-2.052,2.353-1.995c1.441,0.058,2.056,0.911,2.078,2.215
			C180.361,102.855,179.603,103.622,178.208,103.561z"/>
		<path fill-rule="evenodd" clip-rule="evenodd" fill="#4BBBCB" d="M217.828,85.271c-0.154-0.926-0.025-1.899-0.025-2.851
			c0-1.099-0.112-2.212,0.025-3.291c0.226-1.752-0.562-2.144-2.12-1.997c-1.396,0.131-2.741,0.186-4.204-0.269
			c-2.081-0.646-3.829,0.52-5.081,2.228c-1.308,1.783-1.311,4.754,0.001,6.619c1.23,1.751,2.963,2.607,5.102,2.205
			c1.193-0.225,2.252-0.62,3.567-0.245C216.923,88.191,218.225,87.636,217.828,85.271z M211.705,84.623
			c-1.465-0.052-2.295-0.896-2.224-2.391c0.065-1.423,0.949-2.066,2.327-2.021c1.44,0.047,2.068,0.887,2.104,2.146
			C213.848,83.891,213.104,84.672,211.705,84.623z"/>
		<path fill-rule="evenodd" clip-rule="evenodd" fill="#4BBBCB" d="M188.91,77.13c-1.616,0.079-3.191,0.173-4.858-0.291
			c-2.093-0.582-3.818,0.634-5.018,2.379c-1.249,1.818-1.181,4.845,0.167,6.618c1.287,1.692,3.013,2.527,5.164,2.045
			c1.118-0.25,2.145-0.401,3.348-0.216c2.731,0.424,2.78,0.259,2.783-2.541c0.002-0.879,0-1.757,0-2.636
			c0-1.245-0.063-2.493,0.018-3.733C190.594,77.532,190.173,77.069,188.91,77.13z M184.428,84.623
			c-1.46-0.03-2.307-0.859-2.255-2.359c0.05-1.423,0.926-2.049,2.302-2.073c1.382,0.12,2.124,0.833,2.112,2.255
			C186.575,83.872,185.823,84.651,184.428,84.623z"/>
		<path fill-rule="evenodd" clip-rule="evenodd" fill="#4BBBCB" d="M210.005,96.069c-1.616,0.071-3.186,0.188-4.861-0.29
			c-2.08-0.595-3.81,0.66-4.994,2.415c-1.237,1.834-1.147,4.863,0.219,6.617c1.302,1.672,3.021,2.486,5.184,2.006
			c1.035-0.229,1.952-0.48,3.135-0.231c2.729,0.574,2.948,0.234,2.95-2.569c0.002-0.806,0-1.61,0-2.416
			c-0.001-1.317-0.072-2.641,0.019-3.951C211.747,96.362,211.215,96.018,210.005,96.069z M205.515,103.561
			c-1.465-0.064-2.282-0.921-2.199-2.414c0.08-1.426,0.98-2.06,2.352-1.994c1.423,0.067,2.067,0.898,2.071,2.338
			C207.668,102.855,206.909,103.622,205.515,103.561z"/>
		<path fill-rule="evenodd" clip-rule="evenodd" fill="#4BBBCB" d="M216.167,60.396c-1.617,0.067-3.184,0.192-4.862-0.292
			c-2.077-0.597-3.809,0.664-4.991,2.42c-1.237,1.838-1.146,4.863,0.222,6.616c1.305,1.671,3.023,2.484,5.188,2.003
			c1.034-0.23,1.953-0.479,3.133-0.231c2.73,0.572,2.945,0.236,2.947-2.573c0.002-0.805,0-1.611,0-2.416
			c-0.001-1.318-0.072-2.641,0.02-3.952C217.914,60.677,217.37,60.345,216.167,60.396z M211.867,67.888
			c-1.451,0.044-2.355-0.72-2.388-2.229c-0.031-1.423,0.786-2.108,2.142-2.206c1.394,0.058,2.221,0.684,2.271,2.123
			C213.942,66.979,213.276,67.844,211.867,67.888z"/>
		<path fill-rule="evenodd" clip-rule="evenodd" fill="#4BBBCB" d="M271.188,59.984c-3.666-0.013-6.224,2.285-6.252,5.617
			c-0.029,3.449,2.438,5.687,6.336,5.744c3.482,0.05,6.351-2.482,6.378-5.633C277.677,62.454,274.905,59.998,271.188,59.984z
			 M271.24,67.891c-1.449-0.061-2.36-0.891-2.277-2.36c0.077-1.347,0.98-2.083,2.357-2.062c1.445,0.023,1.965,1.009,2.216,2.062
			C273.295,67.012,272.681,67.951,271.24,67.891z"/>
		<path fill-rule="evenodd" clip-rule="evenodd" fill="#4BBCCB" d="M238.586,82.972c1.315-0.03,2.633-0.006,3.949-0.012
			c2.293-0.012,2.668-0.556,1.886-2.724c-0.918-2.547-3.668-4.001-6.568-3.472c-2.93,0.534-4.604,2.519-4.63,5.488
			c-0.025,3.061,1.41,4.942,4.196,5.502c3.737,0.75,5.942-0.239,7.191-3.391c-2.419-0.197-2.418-0.196-4.501,0.624
			c-0.641,0.251-1.299,0.28-1.918-0.021c-0.535-0.262-1.03-0.636-0.962-1.328C237.319,82.747,238.055,82.984,238.586,82.972z
			 M237.132,80.61c1.511-1.637,2.627-1.697,3.963,0C239.707,80.61,238.594,80.61,237.132,80.61z"/>
		<path fill-rule="evenodd" clip-rule="evenodd" fill="#4BBCCB" d="M272.167,84.969c-0.701,0.537-1.698,0.272-2.412-0.411
			c-0.342-0.328-0.556-0.773-0.303-1.176c0.491-0.779,1.326-0.37,2.008-0.403c1.239-0.062,2.496-0.122,3.726,0.007
			c1.668,0.176,1.822-0.741,1.634-1.981c-0.415-2.734-3.252-4.607-6.442-4.273c-2.909,0.305-4.884,2.342-4.992,5.147
			c-0.129,3.342,1.285,5.299,4.249,5.883c3.742,0.737,5.962-0.292,7.083-3.405c-0.294-0.054-0.438-0.106-0.58-0.102
			C274.785,84.299,273.431,83.997,272.167,84.969z M272.976,80.61c-1.133,0-2.242,0-3.458,0
			C271.045,78.896,271.816,78.919,272.976,80.61z"/>
		<path fill-rule="evenodd" clip-rule="evenodd" fill="#4BBCCB" d="M244.12,68.192c-0.569,0.466-1.407,0.351-2.09-0.023
			c-0.54-0.296-0.976-0.739-0.828-1.404c0.153-0.683,0.788-0.527,1.271-0.532c1.535-0.02,3.078-0.104,4.604,0.018
			c1.516,0.121,1.726-0.641,1.578-1.845c-0.34-2.746-3.092-4.674-6.324-4.417c-2.913,0.232-4.984,2.255-5.131,5.011
			c-0.197,3.67,1.282,5.501,4.971,6.153c3.154,0.559,5.429-0.694,6.324-3.591C246.988,67.62,245.502,67.062,244.12,68.192z
			 M244.839,63.889c-1.168,0-2.282,0-3.488,0C242.803,62.164,243.569,62.172,244.839,63.889z"/>
	</g>
</g>
</svg>
