<?xml version="1.0" encoding="utf-8"?>
<!-- Generator: Adobe Illustrator 20.1.0, SVG Export Plug-In . SVG Version: 6.00 Build 0)  -->
<svg version="1.1" id="Layer_1" xmlns="http://www.w3.org/2000/svg" xmlns:xlink="http://www.w3.org/1999/xlink" x="0px" y="0px"
	 viewBox="0 0 360.5 61.7" style="enable-background:new 0 0 360.5 61.7;" xml:space="preserve">
<style type="text/css">
	.st0{fill:#ED0722;}
</style>
<title>logo</title>
<path class="st0" d="M12.3,30.7c-2-3.1-2.4-7.3-2.4-10.5C9.9,9.3,19.6,0,29.9,0h31.8L49.3,12.5H29.6C21.7,12.5,12.1,20.5,12.3,30.7
	L12.3,30.7z M24.5,21.8c1.2-3,3.2-5.7,5.7-7.7c-4.6,0-9.8,2.2-13.8,7.7H24.5z M30.9,15.6c-2,1.7-3.6,3.8-4.8,6.2h9.6
	C34.4,19.4,32.8,17.3,30.9,15.6z M15.8,23.4c-1.1,2.2-1.8,4.6-2,7h8.9c0-2.4,0.4-4.8,1.2-7H15.8z M25.5,23.4c-0.8,2.3-1.2,4.6-1.4,7
	h13.5c-0.2-2.4-0.6-4.7-1.4-7H25.5z M45,21.8c-3.8-5.5-9-7.7-13.5-7.7c2.5,2.1,4.5,4.7,5.7,7.7H45z M37.8,23.4
	c0.8,2.2,1.2,4.6,1.2,7h9c-0.1-2.5-0.8-4.9-2-7H37.8z M16.5,40.1c4,5.7,9.2,7.7,13.8,7.7c-2.4-1.9-5-5.2-5.7-7.7H16.5z M30.9,46.5
	c2-1.8,3.6-4,4.8-6.4h-9.6C27.2,42.5,28.9,44.7,30.9,46.5z M23.9,38.7c-0.8-2.2-1.2-4.6-1.2-7h-9c0.2,2.4,0.9,4.8,2,7H23.9z
	 M36.2,38.7c0.8-2.3,1.2-4.6,1.4-7H24.1c0.2,2.4,0.6,4.7,1.4,7H36.2z M37.2,40.1c-1.3,3-3.2,5.6-5.7,7.7c4.5,0,9.7-2,13.5-7.7H37.2z
	 M45.9,38.7c1.2-2.1,1.9-4.5,2-7h-9c0,2.4-0.4,4.7-1.2,7H45.9z M49.2,30.9C49.5,41.4,40,49.4,32,49.4H12.3L0,61.7h31.8
	c10.1,0,19.9-9.2,19.9-20c0-3.2-0.4-7.4-2.4-10.5V31L49.2,30.9z"/>
<path class="st0" d="M142.4,47.8c-8.2,0-14.2-5-14.2-12.7s6.2-12.7,14.2-12.7s14.2,5.1,14.2,12.7S150.5,47.8,142.4,47.8z
	 M283.7,22.9v24.4h-8.2l-0.1-2.5h-0.2c-0.9,0.8-2.8,3-8.1,3c-6,0-11.1-5.1-11.1-12.7c0-7.1,4.6-12.7,11.6-12.7
	c4.8,0,6.7,2.1,7.4,2.8h0.2l0.1-2.2L283.7,22.9L283.7,22.9z M220,22.9v24.4h-8.2l-0.1-2.5h-0.2c-0.9,0.8-2.8,3-8.1,3
	c-5.9,0-11.1-5.1-11.1-12.7c0-7.1,4.6-12.7,11.6-12.7c4.8,0,6.7,2.1,7.4,2.8h0.2l0.1-2.2L220,22.9L220,22.9z M179.9,22.9h8.6v24.4
	h-8.6V22.9z M225.4,47.3V12.8h8.4v11.8h0.1c2.2-1.5,4.8-2.3,7.4-2.3c6.6,0,11.5,5.3,11.5,12.3c0,8.8-5.4,13.2-11.5,13.2
	c-4.6,0-7-2.2-7.5-2.8h-0.1l-0.1,2.2L225.4,47.3L225.4,47.3L225.4,47.3z M142.4,41.6c3.4,0,5.4-3,5.4-6.6s-2-6.7-5.4-6.7
	c-3.6,0-5.4,3-5.4,6.7S138.9,41.6,142.4,41.6z M175.9,40.6c-0.8,0.2-1.5,0.4-2.3,0.4c-1.9,0.1-3.5-1.2-3.7-3.1c0-0.2,0-0.4,0-0.6V29
	h5.3v-6.1h-5.3V15h-8.4v7.8h-3.8V29h3.8v9.6c0,5.3,2.5,9.1,8.8,9.1c1.6,0,3.1-0.1,4.7-0.4L175.9,40.6L175.9,40.6z M79.3,46.3
	c3.2,0.9,6.5,1.4,9.8,1.4c7.2,0,14.5-2.6,14.5-10.5c0-11-15-9.4-15-13.8c0-2.2,2.3-2.7,4.6-2.7c2.8,0.2,5.5,0.8,8,1.9L102,15
	c-2.8-0.8-5.7-1.2-8.7-1.1c-7.2,0-14.2,2.8-14.2,9.9c0,10.8,15,8.5,15,14.1c0,2.2-2.2,3-4.9,3c-3.8,0-7.3-1.9-8.9-2.6L79.3,46.3
	L79.3,46.3z M264.9,34.9c0,4.1,2.3,6.6,5.2,6.6c2.6,0,5.2-2.5,5.2-6.3s-2.3-6.4-5.2-6.4C267,28.8,264.9,31.5,264.9,34.9z
	 M201.2,34.9c0,4.1,2.3,6.6,5.2,6.6c2.6,0,5.2-2.5,5.2-6.3s-2.3-6.4-5.2-6.4S201.2,31.5,201.2,34.9z M126,23.3c-2-0.6-4-0.9-6.1-0.9
	c-7.6,0-13.4,4.8-13.4,12.7c0,7.2,5.1,12.7,13,12.7c2.2,0,4.3-0.4,6.4-1l-0.4-7.1c-1.3,0.8-2.8,1.2-4.3,1.2
	c-3.1,0.2-5.8-2.3-5.9-5.4c0-0.2,0-0.3,0-0.5c0-3.2,2.5-5.8,5.7-5.8c0.1,0,0.3,0,0.4,0c1.5,0.1,2.9,0.5,4.2,1.1L126,23.3L126,23.3z
	 M319.8,47.3h8.5V36h0.1l7.5,11.3h9.4l-9.1-12.9l8.9-11.5h-9.4l-7.3,10h-0.1v-20h-8.5V47.3L319.8,47.3z M289.1,47.3h8.2V34.7
	c0-2.9,2-5,4.5-5c2.8,0,4.5,1.9,4.5,5v12.6h8.2V32.6c0-5.5-3.5-10.2-10.1-10.2c-2.9,0-5.7,1.2-7.6,3.3h-0.2l-0.1-2.7h-7.4V47.3
	L289.1,47.3z M184.2,10.5c-2.7,0-4.8,2.1-4.8,4.8s2.1,4.8,4.8,4.8s4.8-2.1,4.8-4.8C189,12.7,186.9,10.6,184.2,10.5z M244.1,35.1
	c0-3.2-1.9-6.2-5.1-6.2c-2.8,0-5.1,2.4-5.1,6.2s1.9,6.2,5.1,6.2C241.9,41.2,244.1,38.8,244.1,35.1z"/>
<path class="st0" d="M360.5,16.7c0,0.6-0.1,1.3-0.3,1.9c-0.2,0.6-0.5,1.2-0.9,1.7s-1,0.9-1.7,1.1c-0.7,0.3-1.5,0.5-2.3,0.4
	c-0.8,0-1.6-0.1-2.3-0.4c-0.6-0.3-1.2-0.7-1.7-1.1c-0.4-0.5-0.7-1.1-0.9-1.7c-0.4-1.2-0.4-2.5,0-3.8c0.2-0.6,0.5-1.2,0.9-1.7
	c0.5-0.5,1-0.9,1.7-1.1c1.5-0.6,3.1-0.6,4.6,0c0.6,0.3,1.2,0.7,1.7,1.1c0.4,0.5,0.7,1.1,0.9,1.7C360.4,15.4,360.5,16.1,360.5,16.7z
	 M359.6,16.7c0-0.5-0.1-1.1-0.3-1.6c-0.2-0.5-0.5-1-0.8-1.4c-0.4-0.4-0.8-0.8-1.4-0.9c-0.6-0.3-1.2-0.4-1.9-0.4
	c-0.7,0-1.3,0.1-1.9,0.4c-0.5,0.2-1,0.5-1.4,0.9c-0.3,0.4-0.6,0.9-0.8,1.4c-0.4,1-0.4,2.1,0,3.1c0.2,0.5,0.5,1,0.8,1.4
	c0.4,0.4,0.8,0.8,1.4,0.9c0.6,0.3,1.2,0.4,1.9,0.4c0.7,0,1.3-0.1,1.9-0.4c0.5-0.3,1-0.6,1.4-0.9c0.3-0.4,0.6-0.9,0.8-1.4
	C359.5,17.8,359.6,17.2,359.6,16.7z M353.5,14c0-0.1,0-0.2,0.1-0.3s0.3-0.2,0.4-0.2h1.4c0.3,0,0.6,0.1,0.9,0.2c0.4,0.2,0.8,0.6,1,1
	c0.1,0.2,0.1,0.4,0.1,0.6c0,0.4-0.1,0.7-0.3,1c-0.2,0.3-0.6,0.6-0.9,0.7c0.2,0.3,0.4,0.5,0.6,0.8s0.4,0.5,0.6,0.7
	c0.1,0.1,0.2,0.2,0.2,0.3V19c0,0.2-0.1,0.3-0.2,0.4s-0.2,0.1-0.3,0.1c-0.2,0-0.3-0.1-0.5-0.3c-0.2-0.3-0.4-0.5-0.6-0.8
	c-0.3-0.4-0.5-0.7-0.8-1.1l-0.1-0.1h-0.5v2c0,0.1,0,0.3-0.1,0.4s-0.2,0.1-0.4,0.1c-0.1,0-0.3,0-0.4-0.1s-0.1-0.2-0.1-0.4L353.5,14z
	 M354.5,16.3h0.8c0.3,0,0.5-0.1,0.7-0.3s0.3-0.5,0.2-0.7c0-0.2-0.1-0.4-0.2-0.6c-0.2-0.2-0.5-0.3-0.7-0.3h-0.8V16.3z"/>
</svg>
