<?xml version="1.0" encoding="UTF-8" standalone="no"?>
<!-- Created with Inkscape (http://www.inkscape.org/) -->

<svg
   xmlns:dc="http://purl.org/dc/elements/1.1/"
   xmlns:cc="http://creativecommons.org/ns#"
   xmlns:rdf="http://www.w3.org/1999/02/22-rdf-syntax-ns#"
   xmlns:svg="http://www.w3.org/2000/svg"
   xmlns="http://www.w3.org/2000/svg"
   xmlns:sodipodi="http://sodipodi.sourceforge.net/DTD/sodipodi-0.dtd"
   xmlns:inkscape="http://www.inkscape.org/namespaces/inkscape"
   width="400"
   height="140"
   viewBox="0 0 400 140"
   id="svg2"
   version="1.1"
   inkscape:version="0.91 r13725"
   sodipodi:docname="pulled this shit outta my ass.svg">
  <defs
     id="defs4" />
  <sodipodi:namedview
     id="base"
     pagecolor="#ffffff"
     bordercolor="#666666"
     borderopacity="1.0"
     inkscape:pageopacity="0.0"
     inkscape:pageshadow="2"
     inkscape:zoom="2.6124924"
     inkscape:cx="273.92303"
     inkscape:cy="-11.012936"
     inkscape:document-units="px"
     inkscape:current-layer="g4375"
     showgrid="false"
     units="px"
     inkscape:window-width="2560"
     inkscape:window-height="1377"
     inkscape:window-x="2552"
     inkscape:window-y="-8"
     inkscape:window-maximized="1" />
  <metadata
     id="metadata7">
    <rdf:RDF>
      <cc:Work
         rdf:about="">
        <dc:format>image/svg+xml</dc:format>
        <dc:type
           rdf:resource="http://purl.org/dc/dcmitype/StillImage" />
        <dc:title></dc:title>
      </cc:Work>
    </rdf:RDF>
  </metadata>
  <g
     inkscape:label="Layer 1"
     inkscape:groupmode="layer"
     id="layer1"
     transform="translate(0,-912.36216)">
    <g
       id="g4291"
       transform="translate(447.0827,404.21171)">
      <path
         style="fill:#000000;fill-opacity:0"
         d="m -2701.0754,-23.41412 0,-870.5 2517,0 2517,0 -0.2109,509.25 c -0.116,280.0875 -0.331,504.525 -0.4779,498.75 -0.3416,-13.43594 -2.9733,-48.70354 -4.8875,-65.5 -10.423,-91.45386 -36.042,-166.67065 -77.8276,-228.5 -23.6351,-34.97237 -59.8839,-71.46552 -94.5961,-95.23373 -63.9921,-43.81679 -142.8176,-71.21246 -238,-82.71646 -39.3072,-4.75078 -54.807,-5.51151 -112,-5.49695 -53.1982,0.0135 -70.1752,0.63249 -110,4.01044 -109.305,9.2713 -204.8945,32.91183 -309.8604,76.6325 -27.4372,11.42821 -29.4014,12.42838 -28.6759,14.60128 0.3127,0.93661 18.7619,57.23099 40.9982,125.09863 22.2362,67.86764 40.8688,123.835 41.4057,124.37192 0.635,0.63496 10.0051,-2.17412 26.8043,-8.03565 93.9923,-32.79553 162.3794,-47.34514 245.9565,-52.32815 25.441,-1.51684 87.5917,-0.62865 103.8716,1.48442 66.2079,8.59355 112.4733,28.81053 146.0167,63.80607 30.9687,32.30934 47.4336,72.56313 51.458,125.80568 1.547,20.4665 1.3628,39.9333 -0.3842,40.6037 -0.7753,0.2975 -9.2128,-1.9983 -18.75,-5.1018 -93.1435,-30.309 -178.424,-42.81372 -280.8405,-41.1798 -73.5597,1.1735 -132.3815,9.1376 -189.7286,25.6878 -140.7443,40.6187 -229.0673,126.9688 -257.7473,251.9901 -5.4987,23.97 -8.0469,43.6042 -9.6906,74.6669 -2.9788,56.2931 4.6476,109.9948 22.3435,157.3331 59.0189,157.8809 233.5481,245.1576 444.823,222.4421 108.9754,-11.7165 200.5297,-55.2293 274.4069,-130.4165 9.2729,-9.4373 13.14,-12.7683 13.7347,-11.8307 0.4553,0.7178 0.8347,28.8676 0.8431,62.5551 l 0.015,61.25 160.5,0 160.5,0 0,13.5 0,13.5 -1448.75,-0.2056 c -796.8125,-0.1131 -1444.7,-0.3218 -1439.75,-0.4638 18.5299,-0.5315 58.4778,-4.2005 80.5,-7.3935 128.7154,-18.6624 239.3588,-73.2817 328.0146,-161.925 19.9177,-19.9148 43.2186,-46.5627 42.7666,-48.9095 -0.3377,-1.7538 -186.6727,-167.081 -188.3264,-167.0943 -0.5748,0 -4.6248,3.1943 -9,7.1086 -75.1013,67.1905 -140.9878,99.3485 -224.4548,109.5522 -20.6785,2.528 -77.8478,2.5418 -96.5,0.023 -70.8662,-9.5684 -122.3525,-33.9318 -165.5145,-78.3219 -28.598,-29.4116 -48.4746,-62.728 -63.4608,-106.3705 -5.6777,-16.5344 -11.8684,-39.662 -11.1309,-41.5838 0.4675,-1.2184 57.3133,-1.4162 407.0158,-1.4162 243.6183,0 406.6981,-0.3652 407.0358,-0.9116 1.322,-2.1391 3.7228,-45.1421 4.2479,-76.0884 3.0792,-181.4826 -49.3795,-347.32642 -146.4535,-463 -86.6098,-103.20448 -208.5088,-165.12506 -353.2395,-179.43359 -96.9269,-9.58251 -187.2645,0.83583 -270.4381,31.18873 -207.49,75.72024 -350.9096,268.94584 -375.0126,505.24516 -4.052,39.7245 -4.5069,95.5552 -1.0918,134 11.6436,131.0774 57.023,244.7801 134.687,337.4723 90.3338,107.8137 221.6458,178.7919 370.8555,200.459 22.9235,3.3287 60.2325,6.8237 79,7.4004 4.675,0.1437 -464.7875,0.3528 -1043.25,0.4648 l -1051.75,0.2035 0,-870.5 z m 3105.0051,515.75 c 0,-210.3224 0.3718,-334.5574 1.0283,-346.75 3.2819,-60.94586 18.1246,-107.73061 46.0039,-145.00553 8.3839,-11.2094 26.7057,-29.00642 38.269,-37.17287 23.4901,-16.58971 55.2091,-28.42856 88.1937,-32.91754 19.2268,-2.61663 53.344,-2.40225 72,0.45242 41.3958,6.33424 73.0965,20.83337 98.8605,45.21636 35.5597,33.65363 54.9164,78.2586 63.3339,145.94446 1.5332,12.3284 1.7058,42.7836 2.0162,355.7327 l 0.3394,342.25 165.4929,0 165.4929,0 -0.3243,-404.25 -0.3242,-404.25 -2.1359,-18 c -3.8124,-32.12766 -7.4163,-52.89411 -13.3632,-77 -27.9322,-113.22527 -90.2858,-197.31763 -181.3882,-244.6271 -49.2415,-25.57108 -104.3699,-39.91806 -168.5,-43.85156 -106.2377,-6.51621 -196.6664,20.67116 -273.8114,82.3214 -25.7636,20.58888 -55.8424,50.5166 -80.0614,79.65922 -8.4551,10.17392 -16.2666,19.57032 -17.3589,20.88088 -1.5902,1.90783 -2.1607,2.10717 -2.8619,1 -0.4821,-0.76119 -0.8827,-37.68357 -0.8911,-82.13284 l -0.0153,-80.75 -165.5,0 -165.5,0 0,585.5 0,585.5 165.5,0 165.5,0 0.01,-327.75 z m -3102.2542,-534 0.2491,850.75 356.0674,0 356.0674,0 -0.6849,-2.1578 c -0.3767,-1.1869 -104.5999,-264.3144 -231.6071,-584.7279 -127.0072,-320.41352 -230.7918,-583.47998 -230.6325,-584.59216 0.2894,-2.02036 0.4567,-2.02236 189.5149,-2.27473 l 189.2253,-0.25259 1.3806,2.25259 c 0.7594,1.23892 57.7843,171.12562 126.7219,377.52599 68.9377,206.4004 125.6427,374.7004 126.011,374 0.3684,-0.7004 57.5028,-170.0234 126.9654,-376.2734 69.4625,-206.25 126.7275,-375.5625 127.2555,-376.25 0.758,-0.98701 24.8142,-1.25 114.3375,-1.25 l 113.3776,0 0,-263 0,-263 -406.75,-0.24818 -406.75,-0.24817 407.5,-0.50365 c 374.4178,-0.46276 351.991,-0.5238 -276.25,-0.75182 l -683.75,-0.24818 0.2491,851.75 0.2491,851.75 0.5018,-851.5 0.5018,-851.5 0.2491,850.75 z m 1364.2491,453.0833 c 0,-218.7166 -0.1893,-397.47736 -0.4206,-397.24602 -0.4604,0.4604 -317.5794,793.79552 -317.5794,794.48692 0,0.2342 71.55,0.4258 159,0.4258 l 159,0 0,-397.6667 z m 3065.7313,200.6092 c -50.3419,-4.4705 -90.8164,-21.0357 -118.2949,-48.4152 -18.646,-18.5788 -29.7897,-39.6223 -35.1335,-66.3451 -2.4008,-12.006 -2.4329,-45.8646 -0.055,-58.6822 8.7816,-47.3461 35.1551,-81.8348 80.2401,-104.9301 52.7502,-27.0219 132.5759,-35.8955 220.5125,-24.5128 42.285,5.4735 91.542,18.5622 127.1142,33.7773 l 11.3858,4.87 -0.04,40.8978 c -0.043,44.1483 -0.3916,48.1216 -6.0928,69.3978 -19.3228,72.1105 -83.3324,126.4527 -172.4288,146.3868 -32.5659,7.2862 -75.8725,10.3383 -107.2075,7.5557 z M -866.7285,141.54758 c -0.7907,-2.0607 0.052,-7.0574 4.2935,-25.4617 11.0734,-48.04709 31.4169,-93.83079 56.7908,-127.80939 39.5089,-52.90712 92.0069,-83.83777 157.5688,-92.83603 17.1076,-2.34799 51.9987,-2.33494 68.5,0.0256 27.3089,3.90662 48.7769,10.27654 71.3693,21.17649 64.657,31.1945 110.4694,92.98104 132.1646,178.24847 4.2803,16.82253 9.4456,45.61003 8.4677,47.19233 -0.4115,0.6657 -84.2724,1.0025 -249.592,1.0025 -223.141,0 -249.0336,-0.1596 -249.5627,-1.5383 z"
         id="path4323"
         inkscape:connector-curvature="0" />
      <path
         style="fill:#000000;fill-opacity:0"
         d="m -2701.0754,-23.41412 0,-870.5 2517,0 2517,0 -0.2109,509.25 c -0.116,280.0875 -0.331,504.525 -0.4779,498.75 -0.3416,-13.43594 -2.9733,-48.70354 -4.8875,-65.5 -10.423,-91.45386 -36.042,-166.67065 -77.8276,-228.5 -23.6351,-34.97237 -59.8839,-71.46552 -94.5961,-95.23373 -63.9921,-43.81679 -142.8176,-71.21246 -238,-82.71646 -39.3072,-4.75078 -54.807,-5.51151 -112,-5.49695 -53.1982,0.0135 -70.1752,0.63249 -110,4.01044 -109.305,9.2713 -204.8945,32.91183 -309.8604,76.6325 -27.4372,11.42821 -29.4014,12.42838 -28.6759,14.60128 0.3127,0.93661 18.7619,57.23099 40.9982,125.09863 22.2362,67.86764 40.8688,123.835 41.4057,124.37192 0.635,0.63496 10.0051,-2.17412 26.8043,-8.03565 93.9923,-32.79553 162.3794,-47.34514 245.9565,-52.32815 25.441,-1.51684 87.5917,-0.62865 103.8716,1.48442 66.2079,8.59355 112.4733,28.81053 146.0167,63.80607 30.9687,32.30934 47.4336,72.56313 51.458,125.80568 1.547,20.4665 1.3628,39.9333 -0.3842,40.6037 -0.7753,0.2975 -9.2128,-1.9983 -18.75,-5.1018 -93.1435,-30.309 -178.424,-42.81372 -280.8405,-41.1798 -73.5597,1.1735 -132.3815,9.1376 -189.7286,25.6878 -140.7443,40.6187 -229.0673,126.9688 -257.7473,251.9901 -5.4987,23.97 -8.0469,43.6042 -9.6906,74.6669 -2.9788,56.2931 4.6476,109.9948 22.3435,157.3331 59.0189,157.8809 233.5481,245.1576 444.823,222.4421 108.9754,-11.7165 200.5297,-55.2293 274.4069,-130.4165 9.2729,-9.4373 13.14,-12.7683 13.7347,-11.8307 0.4553,0.7178 0.8347,28.8676 0.8431,62.5551 l 0.015,61.25 160.5,0 160.5,0 0,13.5 0,13.5 -1448.75,-0.2056 c -796.8125,-0.1131 -1444.7,-0.3218 -1439.75,-0.4638 18.5299,-0.5315 58.4778,-4.2005 80.5,-7.3935 128.7154,-18.6624 239.3588,-73.2817 328.0146,-161.925 19.9177,-19.9148 43.2186,-46.5627 42.7666,-48.9095 -0.3377,-1.7538 -186.6727,-167.081 -188.3264,-167.0943 -0.5748,0 -4.6248,3.1943 -9,7.1086 -75.1013,67.1905 -140.9878,99.3485 -224.4548,109.5522 -20.6785,2.528 -77.8478,2.5418 -96.5,0.023 -70.8662,-9.5684 -122.3525,-33.9318 -165.5145,-78.3219 -28.598,-29.4116 -48.4746,-62.728 -63.4608,-106.3705 -5.6777,-16.5344 -11.8684,-39.662 -11.1309,-41.5838 0.4675,-1.2184 57.3133,-1.4162 407.0158,-1.4162 243.6183,0 406.6981,-0.3652 407.0358,-0.9116 1.322,-2.1391 3.7228,-45.1421 4.2479,-76.0884 3.0792,-181.4826 -49.3795,-347.32642 -146.4535,-463 -86.6098,-103.20448 -208.5088,-165.12506 -353.2395,-179.43359 -96.9269,-9.58251 -187.2645,0.83583 -270.4381,31.18873 -207.49,75.72024 -350.9096,268.94584 -375.0126,505.24516 -4.052,39.7245 -4.5069,95.5552 -1.0918,134 11.6436,131.0774 57.023,244.7801 134.687,337.4723 90.3338,107.8137 221.6458,178.7919 370.8555,200.459 22.9235,3.3287 60.2325,6.8237 79,7.4004 4.675,0.1437 -464.7875,0.3528 -1043.25,0.4648 l -1051.75,0.2035 0,-870.5 z m 3105.0051,515.75 c 0,-210.3224 0.3718,-334.5574 1.0283,-346.75 3.2819,-60.94586 18.1246,-107.73061 46.0039,-145.00553 8.3839,-11.2094 26.7057,-29.00642 38.269,-37.17287 23.4901,-16.58971 55.2091,-28.42856 88.1937,-32.91754 19.2268,-2.61663 53.344,-2.40225 72,0.45242 41.3958,6.33424 73.0965,20.83337 98.8605,45.21636 35.5597,33.65363 54.9164,78.2586 63.3339,145.94446 1.5332,12.3284 1.7058,42.7836 2.0162,355.7327 l 0.3394,342.25 165.4929,0 165.4929,0 -0.3243,-404.25 -0.3242,-404.25 -2.1359,-18 c -3.8124,-32.12766 -7.4163,-52.89411 -13.3632,-77 -27.9322,-113.22527 -90.2858,-197.31763 -181.3882,-244.6271 -49.2415,-25.57108 -104.3699,-39.91806 -168.5,-43.85156 -106.2377,-6.51621 -196.6664,20.67116 -273.8114,82.3214 -25.7636,20.58888 -55.8424,50.5166 -80.0614,79.65922 -8.4551,10.17392 -16.2666,19.57032 -17.3589,20.88088 -1.5902,1.90783 -2.1607,2.10717 -2.8619,1 -0.4821,-0.76119 -0.8827,-37.68357 -0.8911,-82.13284 l -0.0153,-80.75 -165.5,0 -165.5,0 0,585.5 0,585.5 165.5,0 165.5,0 0.01,-327.75 z m -2389.0051,316.7845 c 0,-0.5311 -104.175,-263.7869 -231.5,-585.0129 -127.325,-321.22605 -231.5,-584.94155 -231.5,-586.03447 0,-1.97583 1.0747,-1.98713 188.941,-1.98713 136.3418,0 189.1302,0.30625 189.6209,1.10009 0.3739,0.60504 57.27,170.36754 126.4356,377.25 69.1657,206.88241 126.1488,376.14991 126.6292,376.14991 0.4803,0 57.4113,-167.768 126.5133,-372.81778 69.102,-205.04978 126.401,-374.81036 127.3311,-377.24575 l 1.6911,-4.42798 113.6689,-0.25424 113.6689,-0.25425 0.2519,-264.25 0.2518,-264.25 -683.5018,0 -683.5019,0 0,851.5 0,851.5 357.5,0 c 229.1606,0 357.5,-0.3466 357.5,-0.9655 z m 651.7512,-398.9857 c 0.1529,-243.0784 -0.1088,-399.0789 -0.6685,-398.50004 -1.0487,1.08467 -319.0827,795.91844 -319.0827,797.45484 0,0.6669 53.4826,0.9178 159.75,0.7495 l 159.75,-0.2531 0.2512,-399.4512 z m 3064.9801,201.8937 c -50.3419,-4.4705 -90.8164,-21.0357 -118.2949,-48.4152 -18.646,-18.5788 -29.7897,-39.6223 -35.1335,-66.3451 -2.4008,-12.006 -2.4329,-45.8646 -0.055,-58.6822 8.7816,-47.3461 35.1551,-81.8348 80.2401,-104.9301 52.7502,-27.0219 132.5759,-35.8955 220.5125,-24.5128 42.285,5.4735 91.542,18.5622 127.1142,33.7773 l 11.3858,4.87 -0.04,40.8978 c -0.043,44.1483 -0.3916,48.1216 -6.0928,69.3978 -19.3228,72.1105 -83.3324,126.4527 -172.4288,146.3868 -32.5659,7.2862 -75.8725,10.3383 -107.2075,7.5557 z M -866.7285,141.54758 c -0.7907,-2.0607 0.052,-7.0574 4.2935,-25.4617 11.0734,-48.04709 31.4169,-93.83079 56.7908,-127.80939 39.5089,-52.90712 92.0069,-83.83777 157.5688,-92.83603 17.1076,-2.34799 51.9987,-2.33494 68.5,0.0256 27.3089,3.90662 48.7769,10.27654 71.3693,21.17649 64.657,31.1945 110.4694,92.98104 132.1646,178.24847 4.2803,16.82253 9.4456,45.61003 8.4677,47.19233 -0.4115,0.6657 -84.2724,1.0025 -249.592,1.0025 -223.141,0 -249.0336,-0.1596 -249.5627,-1.5383 z"
         id="path4321"
         inkscape:connector-curvature="0" />
      <path
         style="fill:#000000;fill-opacity:0"
         d="m -2701.0754,-23.41412 0,-870.5 2517,0 2517,0 -0.2075,509.25 c -0.1142,280.0875 -0.3213,504.975 -0.4602,499.75 -0.3616,-13.59742 -2.2152,-41.10984 -3.9076,-58 -11.7443,-117.20291 -49.6704,-211.40034 -112.6105,-279.69109 -67.8368,-73.60383 -168.8938,-119.50414 -297.8142,-135.26781 -31.5989,-3.86374 -53.19,-5.16765 -95,-5.73715 -154.6634,-2.10668 -279.232,18.83195 -407.5,68.49634 -21.672,8.39123 -56.9197,23.25063 -58.261,24.56115 -1.0111,0.98779 6.8823,26.10003 39.8138,126.66576 22.5911,68.98854 41.2853,125.64419 41.5425,125.90144 0.6216,0.62154 2.0223,0.17496 44.9047,-14.31609 79.1302,-26.7401 132.1717,-38.32051 207.5,-45.30289 23.655,-2.19264 101.3714,-2.53071 118.5,-0.51547 59.9382,7.05193 103.9505,23.38294 137.9997,51.20553 35.4795,28.99138 58.4208,74.5432 64.4649,128.00028 1.7005,15.0401 2.5496,50.5641 1.2282,51.3809 -0.6116,0.3779 -9.7853,-2.0594 -20.3861,-5.4163 -77.4482,-24.5252 -140.4312,-36.0593 -218.8067,-40.0702 -28.1599,-1.44116 -92.7139,-0.5855 -117.8075,1.5615 -118.2214,10.115 -208.2519,40.9009 -278.1925,95.1278 -14.2706,11.0645 -39.9726,36.4533 -51.038,50.4163 -45.9612,57.9965 -69.0711,127.2419 -71.5869,214.5 -2.9295,101.6049 26.3033,185.7512 87.8444,252.8588 48.878,53.2991 124.2807,93.3575 207.2805,110.1196 33.6469,6.7951 58.065,9.4151 95,10.1935 126.488,2.6654 229.9573,-30.1889 315.8327,-100.2856 6.6615,-5.4375 20.3667,-17.9643 30.4562,-27.8375 14.3118,-14.005 18.5462,-17.6321 19.2624,-16.5 0.531,0.8393 0.9245,27.067 0.9334,62.2012 l 0.015,60.75 160.5,0 160.5,0 0,13.5 0,13.5 -1448.75,-0.1575 c -796.8125,-0.087 -1441.325,-0.4905 -1432.25,-0.8975 148.9628,-6.6815 276.0255,-55.8422 377,-145.862 27.4252,-24.4498 69.0918,-69.4536 67.2074,-72.5903 -0.51,-0.849 -171.4546,-152.3979 -186.5257,-165.3622 -2.4058,-2.0695 -3.1038,-1.6053 -19.8242,13.1849 -54.3634,48.0874 -108.9526,78.5836 -166.8575,93.2145 -28.9357,7.3113 -53.3533,10.3737 -89,11.162 -37.843,0.837 -66.0895,-2.009 -97.2566,-9.7992 -99.9145,-24.9734 -168.564,-96.25 -196.1617,-203.6686 -2.0173,-7.8517 -3.3968,-14.7142 -3.0657,-15.25 0.3891,-0.6296 144.5006,-0.9741 407.4448,-0.9741 l 406.8428,0 0.5841,-5.75 c 3.3347,-32.8284 4.3501,-114.4143 1.814,-145.75 -8.558,-105.74225 -31.3676,-193.61095 -71.2207,-274.36097 -17.3056,-35.06451 -34.6552,-63.58287 -55.75,-91.63903 -59.2745,-78.83538 -135.4647,-135.61055 -227.9686,-169.87701 -89.3156,-33.08539 -202.1189,-43.89363 -302.7624,-29.00918 -104.3108,15.42682 -198.5907,58.00578 -279.5,126.22854 -16.535,13.94229 -49.8094,47.29718 -64.0028,64.15765 -66.7596,79.30396 -112.0955,174.32619 -132.9153,278.58495 -9.9215,49.68405 -13.7538,94.81885 -12.7712,150.41505 0.7592,42.9578 3.5874,73.3833 10.2715,110.5 43.3086,240.4899 214.2138,416.3116 454.9178,468.0047 34.7665,7.4663 85.3934,13.6199 122,14.8286 4.4,0.1453 -465.2875,0.3548 -1043.75,0.4655 l -1051.7497,0.2012 0,-870.5 z m 3105.2896,503.25 c 0.3786,-370.1961 0.014,-345.9163 5.6908,-378.8544 14.2896,-82.90941 59.5727,-139.5598 129.3062,-161.76578 23.4673,-7.47294 44.2918,-10.47204 72.7134,-10.47204 39.6133,0 70.5566,6.78748 100,21.93518 49.4894,25.46076 81.4253,72.90137 94.8554,140.90704 2.8377,14.36889 4.9696,32.4781 6.1219,52 0.6344,10.7487 1.0069,138.257 1.013,346.75 l 0.01,329.75 165.5,0 165.5,0 0,-395.75 c 0,-257.6538 -0.358,-400.63527 -1.0184,-409.75 -16.0046,-220.89682 -134.6554,-358.34988 -330.9951,-383.44697 -56.549,-7.22836 -114.9818,-4.55024 -164.1534,7.52355 -84.8745,20.84043 -155.3455,68.97606 -226.8751,154.96837 -17.2367,20.7219 -15.826,19.27242 -16.9802,17.44669 -0.5702,-0.90185 -0.9491,-33.2223 -0.9584,-81.74164 l -0.0197,-80.25 -165.5,0 -165.5,0 0,585.5 0,585.5 165.4708,0 165.4709,0 0.3479,-340.25 z m -2389.2896,329.2845 c 0,-0.5311 -104.175,-263.7869 -231.5,-585.0129 -127.325,-321.22605 -231.5,-584.94155 -231.5,-586.03447 0,-1.97583 1.0747,-1.98713 188.941,-1.98713 136.3418,0 189.1302,0.30625 189.6209,1.10009 0.3739,0.60504 57.27,170.36754 126.4356,377.25 69.1657,206.88241 126.1488,376.14991 126.6292,376.14991 0.4803,0 57.4113,-167.768 126.5133,-372.81778 69.102,-205.04978 126.401,-374.81036 127.3311,-377.24575 l 1.6911,-4.42798 113.6689,-0.25424 113.6689,-0.25425 0.2519,-264.25 0.2518,-264.25 -683.5018,0 -683.5019,0 0,851.5 0,851.5 357.5,0 c 229.1606,0 357.5,-0.3466 357.5,-0.9655 z m 651.7512,-398.9857 c 0.1529,-243.0784 -0.1088,-399.0789 -0.6685,-398.50004 -1.0487,1.08467 -319.0827,795.91844 -319.0827,797.45484 0,0.6669 53.4826,0.9178 159.75,0.7495 l 159.75,-0.2531 0.2512,-399.4512 z m 3066.2488,201.8464 c -78.0914,-6.8208 -132.6709,-42.6456 -150.3806,-98.7064 -9.0309,-28.5882 -8.495,-67.4892 1.339,-97.1888 3.4379,-10.3828 11.3393,-25.785 18.0865,-35.2558 7.8373,-11.0011 24.821,-27.4547 36.1999,-35.0701 17.8057,-11.9165 40.469,-22.1315 63.2552,-28.5107 77.4585,-21.6854 188.7051,-15.4609 277.8869,15.5484 14.2765,4.9641 32.8213,12.5394 36.3379,14.8436 l 2.2752,1.4907 0,33.871 c 0,18.629 -0.4703,38.5312 -1.0452,44.2269 -3.573,35.4018 -18.0743,70.7037 -39.9919,97.356 -7.2331,8.7957 -25.5555,26.689 -33.4629,32.6792 -30.3204,22.9691 -68.9591,39.8604 -110.5636,48.3338 -31.7387,6.464 -70.5916,8.9453 -99.9364,6.3822 z m -2599.658,-470.4465 c -1.3584,-3.5397 7.2169,-39.22433 15.1367,-62.98908 24.7974,-74.40917 68.7319,-129.7219 126.685,-159.49423 65.4149,-33.6057 153.4988,-34.10688 219.2294,-1.24736 48.2086,24.1001 86.6136,66.53163 111.1305,122.78197 10.9401,25.10038 19.6395,54.88314 24.9481,85.411 1.8625,10.711 2.2206,14.7548 1.3947,15.75 -0.923,1.1121 -43.2076,1.339 -249.5202,1.339 -223.5346,0 -248.4686,-0.1553 -249.0042,-1.5513 z"
         id="path4319"
         inkscape:connector-curvature="0" />
      <path
         style="fill:#000000;fill-opacity:0"
         d="m -2701.0754,-23.41412 0,-870.5 2517,0 2517,0 -0.2075,509.25 c -0.1142,280.0875 -0.3256,504.975 -0.4699,499.75 -0.4798,-17.38211 -2.398,-45.28861 -4.3373,-63.10063 -21.5851,-198.25634 -114.8536,-324.37738 -282.022,-381.3603 -50.8317,-17.32707 -99.9875,-26.88416 -168.4633,-32.75338 -20.6397,-1.76908 -124.1637,-1.74745 -150.5,0.0314 -132.6056,8.95686 -230.9376,32.17459 -351,82.87667 -9.625,4.06461 -18.0928,7.98016 -18.8173,8.70122 -1.2358,1.22993 15.9977,55.05695 76.9532,240.35498 3.1036,9.43465 4.43,12.25 5.7713,12.25 0.9578,0 9.808,-2.86859 19.6671,-6.37466 111.4771,-39.64303 197.3799,-55.62242 299.0305,-55.62476 75.8662,-0.002 130.8177,13.30573 173.8952,42.11176 49.7151,33.24461 76.39,84.67821 80.4733,155.16576 1.2204,21.0676 1.2708,32.7886 0.1484,34.5593 -0.6762,1.0667 -4.2729,0.2236 -17.771,-4.1657 -66.35,-21.5759 -124.1458,-33.278 -194.3507,-39.3506 -25.8846,-2.2389 -115.6203,-2.58276 -139.5,-0.5345 -36.5489,3.135 -61.8598,6.634 -92,12.7182 -123.1267,24.8548 -213.988,81.5812 -265.0816,165.4952 -34.6,56.8256 -51.0011,125.6286 -49.1058,206 1.4015,59.4311 12.1868,105.8209 35.6879,153.5 9.96,20.2069 17.9377,33.3039 30.3625,49.846 32.3568,43.0793 74.0072,76.6003 126.8743,102.1107 48.1776,23.2475 98.5245,36.7097 159.7627,42.7186 18.1069,1.7767 83.8478,1.7796 102,0 85.2242,-8.3341 152.6915,-30.8535 214.5,-71.5961 26.2606,-17.3103 42.5015,-30.601 67.5581,-55.286 9.657,-9.5137 17.866,-17.2977 18.2424,-17.2977 0.3763,0 0.8002,27.7875 0.9419,61.75 l 0.2576,61.75 160.75,0.253 160.75,0.2531 0,13.4969 0,13.497 -1448.75,-0.1531 c -796.8125,-0.084 -1440.7876,-0.5018 -1431.0557,-0.9281 157.2057,-6.8862 290.4369,-62.004 394.3889,-163.1588 20.2134,-19.6695 49.929,-52.7783 49.213,-54.8327 -0.621,-1.7819 -188.0377,-166.9273 -189.439,-166.9273 -0.8109,0 -5.6105,3.7282 -10.6658,8.2849 -35.7934,32.2634 -75.8825,60.0325 -109.6914,75.9815 -47.7689,22.5346 -92.5938,32.7119 -151.5,34.3975 -78.1655,2.2367 -143.3986,-16.3156 -196.2075,-55.8015 -20.4058,-15.2577 -45.7784,-43.3719 -60.7658,-67.3318 -13.3255,-21.303 -26.8244,-51.8998 -34.4262,-78.0306 -5.8396,-20.0735 -7.1107,-26.0898 -5.7908,-27.4097 0.7835,-0.7835 115.4162,-1.0903 407.329,-1.0903 l 406.2388,0 0.5356,-4.25 c 0.2946,-2.3375 1.0216,-11.9 1.6156,-21.25 4.623,-72.7681 1.8331,-137.9183 -8.6285,-201.5 -27.7254,-168.49946 -103.1869,-304.06847 -217.4723,-390.69149 -76.7572,-58.17838 -171.5226,-92.99206 -279.9279,-102.83624 -24.2298,-2.20029 -75.0741,-3.01454 -98,-1.56943 -98.8268,6.22943 -187.2643,33.96915 -267.7553,83.98532 -56.5564,35.14356 -110.5614,85.07183 -152.0261,140.54991 -61.2642,81.96917 -101.457,181.0517 -116.6513,287.56647 -5.1824,36.3294 -6.0173,50.1343 -6.0173,99.5 0,49.3255 0.7863,62.3095 6.056,100 12.7471,91.1719 44.089,175.1899 92.8863,249 20.8118,31.4796 41.335,56.4317 69.9555,85.0522 29.5734,29.5735 55.1667,50.4721 89.0522,72.7171 93.3897,61.3081 208.247,96.2924 328.5,100.0575 4.675,0.1463 -464.7875,0.3577 -1043.25,0.4697 l -1051.75,0.2035 0,-870.5 z m 3106.0455,498 c 0.6001,-379.54872 0.093,-349.5847 6.4503,-381 18.4203,-91.02324 72.4824,-146.46244 157.5042,-161.51622 15.8818,-2.812 54.1254,-3.88725 71.2905,-2.00439 42.9428,4.71043 76.5524,18.59405 104.7572,43.27349 16.4948,14.43319 29.7391,32.27937 41.0006,55.24712 12.3346,25.15602 18.866,48.07648 24.6493,86.5 1.6075,10.6803 1.7691,36.1986 2.2667,358 l 0.5357,346.5 166,0 166,0 0.2986,-380.5 c 0.302,-384.82263 0.11,-410.46186 -3.3248,-443.915 -16.1695,-157.48575 -86.1479,-270.40685 -202.9738,-327.52981 -42.0277,-20.54979 -88.3445,-33.05756 -143.5,-38.7519 -19.6688,-2.03063 -77.9232,-1.71096 -96,0.52681 -30.3101,3.75216 -51.7927,8.34665 -76.2667,16.3112 -76.6271,24.93661 -140.8533,72.67801 -206.649,153.6087 -5.7011,7.0125 -10.7497,12.75 -11.2191,12.75 -0.4694,0 -0.9686,-36.5625 -1.1093,-81.25 l -0.2559,-81.25 -166,0 -166,0 -0.2556,584 c -0.1406,321.2 -0.042,584.5638 0.2197,585.253 0.3788,0.9983 34.1567,1.2015 166.2556,1 l 165.7803,-0.253 0.5455,-345 z m -2390.0455,334.5345 c 0,-0.5311 -104.175,-263.7869 -231.5,-585.0129 -127.325,-321.22605 -231.5,-584.94155 -231.5,-586.03447 0,-1.97583 1.0747,-1.98713 188.941,-1.98713 136.3418,0 189.1302,0.30625 189.6209,1.10009 0.3739,0.60504 57.27,170.36754 126.4356,377.25 69.1657,206.88241 126.1488,376.14991 126.6292,376.14991 0.4803,0 57.4113,-167.768 126.5133,-372.81778 69.102,-205.04978 126.401,-374.81036 127.3311,-377.24575 l 1.6911,-4.42798 113.6689,-0.25424 113.6689,-0.25425 0.2519,-264.25 0.2518,-264.25 -683.5018,0 -683.5019,0 0,851.5 0,851.5 357.5,0 c 229.1606,0 357.5,-0.3466 357.5,-0.9655 z m 651.7512,-398.9857 c 0.1529,-243.0784 -0.1088,-399.0789 -0.6685,-398.50004 -1.0487,1.08467 -319.0827,795.91844 -319.0827,797.45484 0,0.6669 53.4826,0.9178 159.75,0.7495 l 159.75,-0.2531 0.2512,-399.4512 z m 3068.9909,201.8901 c -69.7007,-4.9998 -122.2318,-34.1008 -145.61,-80.6644 -11.156,-22.2199 -15.8904,-50.4505 -13.2026,-78.7252 3.5937,-37.8053 15.3911,-63.9 40.0485,-88.5836 20.9356,-20.9579 45.5893,-34.9133 80.061,-45.3193 69.9877,-21.1272 171.3717,-18.4314 258.961,6.8859 22.7395,6.5727 53.0812,17.7785 59.75,22.0669 l 2.25,1.4469 -8e-4,32.727 c 0,45.3904 -1.7906,61.2058 -9.6415,85.2132 -10.5784,32.3481 -32.1738,63.3011 -60.1821,86.2599 -24.1481,19.7944 -56.7609,36.352 -91.0024,46.202 -37.1274,10.6801 -82.1335,15.3096 -121.4311,12.4907 z M -866.7082,141.60048 c -1.2846,-3.3478 7.6476,-40.44963 15.129,-62.84138 31.8613,-95.36023 94.0139,-158.00456 176.6254,-178.02288 21.8734,-5.30035 30.2869,-6.15034 60.8784,-6.15034 22.9776,0 30.6314,0.35544 39.5,1.83434 41.0553,6.84632 72.3545,19.88625 103.0479,42.932 42.3608,31.80603 75.2252,83.65124 92.9003,146.55484 5.8108,20.67992 11.9665,53.96832 10.3424,55.92882 -0.8233,0.9939 -51.9362,1.25 -249.4444,1.25 -218.7984,0 -248.4769,-0.1771 -248.979,-1.4854 z"
         id="path4317"
         inkscape:connector-curvature="0" />
      <path
         style="fill:#000000;fill-opacity:0"
         d="m -2701.0754,-23.41412 0,-870.5 2517,0 2517,0 -0.1927,504.25 c -0.106,277.3375 -0.3219,501.325 -0.4798,497.75 -4.3813,-99.18085 -21.454,-174.15968 -54.9008,-241.11045 -20.3026,-40.64004 -40.8645,-69.43175 -71.3745,-99.94172 -34.8018,-34.80179 -73.9463,-61.18502 -121.5522,-81.92572 -91.9805,-40.07357 -198.6173,-54.87124 -345.5,-47.94399 -101.0419,4.76532 -191.0699,21.30799 -279.8948,51.43079 -41.4327,14.05089 -102.3377,38.75597 -102.9149,41.7457 -0.4003,2.07319 80.6174,249.82195 82.2638,251.5593 1.0211,1.07746 5.2763,-0.1192 23.6455,-6.64966 97.8938,-34.80222 170.5952,-49.8616 261.9004,-54.25012 99.3913,-4.77717 170.4213,11.26929 219.5,49.58749 29.8334,23.29246 51.4049,57.01141 61.5884,96.2707 5.103,19.67271 7.0221,35.13683 7.6296,61.47768 0.6415,27.8137 2.1508,25.5971 -13.7715,20.2261 -102.7535,-34.6617 -210.1317,-48.21242 -327.9465,-41.3855 -111.7966,6.4782 -207.5858,35.5663 -277.2286,84.1856 -60.5282,42.2561 -103.4221,102.1742 -123.7271,172.8334 -11.5868,40.3205 -15.6779,75.5491 -14.7357,126.8904 0.5626,30.6581 1.4988,41.3044 5.6962,64.7752 25.2398,141.1353 131.5688,243.3292 286.7576,275.6058 43.4828,9.0436 84.0598,12.2491 133.2376,10.5255 127.6271,-4.4731 229.8478,-46.9124 313.3648,-130.1003 8.1756,-8.1434 15.2631,-14.8062 15.75,-14.8062 0.504,0 0.8852,26.4735 0.8852,61.4809 l 0,61.481 2.25,0.5444 c 1.2375,0.2993 73.6875,0.4204 161,0.269 l 158.7501,-0.2753 -1e-4,13.25 0,13.25 -1444.25,-0.1483 c -794.3375,-0.082 -1437.5,-0.5003 -1429.25,-0.9306 127.1218,-6.6302 238.4551,-44.9261 331,-113.8559 26.9529,-20.0751 54.6385,-44.9365 77.2792,-69.3956 16.9355,-18.2957 29.2022,-32.7326 29.2129,-34.3811 0.01,-1.525 -187.7597,-167.7885 -189.4919,-167.7885 -0.7006,0 -7.3764,5.3433 -14.8352,11.8739 -63.3947,55.5065 -119.1416,85.4677 -184.165,98.9796 -42.4758,8.8265 -93.156,10.7313 -135,5.0738 -105.1364,-14.215 -180.1914,-71.7373 -218.4585,-167.4273 -6.6752,-16.692 -17.0415,-51.0188 -17.0415,-56.4312 0,-1.4225 37.9012,-1.5688 406.3776,-1.5688 323.8922,0 406.5842,-0.2537 407.3959,-1.25 2.0974,-2.5745 4.6754,-53.9586 4.6032,-91.75 -0.069,-35.9113 -0.8868,-53.322 -3.9473,-84 -11.8996,-119.28125 -48.3668,-227.71819 -105.9538,-315.05834 -38.3187,-58.11672 -88.0185,-108.05429 -144.5409,-145.23241 -19.6025,-12.89371 -32.7149,-20.27956 -56.3886,-31.76209 -58.4109,-28.33124 -120.0801,-45.06966 -193.5461,-52.53278 -20.8844,-2.12156 -85.4553,-3.03525 -107.1189,-1.51575 -79.9859,5.6103 -148.8819,24.19706 -217.8811,58.78003 -54.8846,27.50858 -99.3864,59.64815 -143.0249,103.29364 -99.112,99.12804 -159.6168,231.26304 -174.4732,381.0277 -5.1433,51.8485 -3.2989,122.9904 4.524,174.5 37.5739,247.4038 208.4058,430.6046 452.329,485.0793 38.308,8.5552 77.2393,13.5758 122.1451,15.7518 3.3,0.1599 -465.4875,0.3758 -1041.75,0.4798 l -1047.75,0.1891 0,-870.5 z m 3104.7331,843.6861 c 0.9726,-0.6177 1.293,-73.1234 1.5167,-343.2347 0.2664,-321.4395 0.3928,-343.2797 2.0608,-355.9514 14.6694,-111.44305 70.5638,-174.67203 167.6894,-189.69376 16.4656,-2.54662 57.6771,-2.50942 74.5,0.0673 30.8806,4.7298 55.6303,13.959 79,29.45921 14.4918,9.61186 33.8357,29.13042 43.7719,44.16729 20.4807,30.99409 31.8631,64.45482 38.4395,113 1.5583,11.5033 1.7185,39.9661 2.0092,356.9522 0.2489,271.4768 0.5768,344.618 1.5476,345.2347 1.4315,0.9093 327.7866,1.113 330.15,0.2061 1.4387,-0.5521 1.5809,-35.8634 1.5721,-390.25 -0.01,-389.12728 -0.1363,-404.96089 -3.5089,-438.643 -12.1417,-121.2589 -61.4913,-221.96577 -139.2046,-284.07281 -26.5735,-21.23705 -64.3396,-42.51704 -96.6196,-54.44202 -36.1096,-13.33973 -76.3206,-21.76559 -119.5458,-25.04977 -23.2097,-1.76343 -75.4904,-0.69145 -94.6114,1.93996 -69.264,9.53204 -126.9153,33.42338 -181.7157,75.30508 -30.8911,23.60877 -67.6335,60.48188 -95.6522,95.99243 -4.1976,5.32007 -8.1946,9.70757 -8.8821,9.75 -0.9903,0.0611 -1.25,-16.727 -1.25,-80.81588 0,-72.84136 -0.1574,-80.95343 -1.5818,-81.5 -2.0678,-0.79349 -327.7686,-0.79349 -329.8364,0 -1.4399,0.55254 -1.5818,53.11328 -1.5818,585.91671 0,467.312 0.252,585.4113 1.25,585.814 2.0838,0.8409 329.1569,0.6908 330.4831,-0.1516 z m -2388.7331,-11.1516 c 0,-0.5311 -104.175,-263.7869 -231.5,-585.0129 -127.325,-321.22605 -231.5,-584.94155 -231.5,-586.03447 0,-1.97583 1.0747,-1.98713 188.941,-1.98713 136.3418,0 189.1302,0.30625 189.6209,1.10009 0.3739,0.60504 57.27,170.36754 126.4356,377.25 69.1657,206.88241 126.1488,376.14991 126.6292,376.14991 0.4803,0 57.4113,-167.768 126.5133,-372.81778 69.102,-205.04978 126.401,-374.81036 127.3311,-377.24575 l 1.6911,-4.42798 113.6689,-0.25424 113.6689,-0.25425 0.2519,-264.25 0.2518,-264.25 -683.5018,0 -683.5019,0 0,851.5 0,851.5 357.5,0 c 229.1606,0 357.5,-0.3466 357.5,-0.9655 z m 651.7512,-398.9857 c 0.1529,-243.0784 -0.1088,-399.0789 -0.6685,-398.50004 -1.0487,1.08467 -319.0827,795.91844 -319.0827,797.45484 0,0.6669 53.4826,0.9178 159.75,0.7495 l 159.75,-0.2531 0.2512,-399.4512 z m 3064.2488,201.3275 c -54.6543,-6.517 -89.4598,-20.8982 -117.0587,-48.3672 -18.4503,-18.3635 -29.0365,-37.9361 -34.6208,-64.0091 -2.8501,-13.3072 -2.5741,-51.7098 0.472,-65.6884 6.0471,-27.7494 18.1509,-50.2909 37.1867,-69.2544 12.6317,-12.5837 25.203,-21.3921 43.5208,-30.494 42.0868,-20.9123 90.1485,-29.588 156.5,-28.25 45.952,0.9266 83.7897,5.9689 125.6813,16.7484 16.2275,4.1756 47.2884,14.6474 62.074,20.9275 10.1691,4.3192 12.3617,5.6287 12.8797,7.6928 1.2616,5.0265 -0.4154,73.3721 -2.0688,84.3136 -13.0134,86.1182 -80.9921,149.4005 -182.5662,169.9534 -25.7047,5.2012 -37.0316,6.2803 -69,6.5739 -16.225,0.149 -31.075,0.083 -33,-0.1465 z M -866.4803,141.23978 c -0.2876,-0.4653 0.5454,-5.9778 1.851,-12.25 21.356,-102.59413 71.5165,-176.24997 143.9887,-211.43376 21.3971,-10.38785 43.5961,-17.14083 69.5652,-21.16187 16.2705,-2.51931 57.7295,-2.51931 74,0 52.6875,8.15811 92.7337,28.04934 128.0096,63.58327 30.3576,30.57958 51.1817,66.32141 66.4827,114.10846 6.074,18.97011 14.5077,57.2567 14.5077,65.8611 l 0,2.1389 -248.941,0 c -136.9175,0 -249.1763,-0.3807 -249.4639,-0.8461 z"
         id="path4315"
         inkscape:connector-curvature="0" />
      <path
         style="fill:#000000;fill-opacity:0"
         d="m -2700.826,-23.66412 0.2494,-870.75 0.2512,852.75 0.2512,852.75 357.9994,0 c 320.4716,0 357.9994,-0.1602 357.9994,-1.528 0,-0.8404 -104.175,-264.3465 -231.5,-585.5691 -127.325,-321.22265 -231.5,-584.68505 -231.5,-585.47203 0,-1.23608 25.5761,-1.43087 187.8776,-1.43087 149.1203,0 188.0767,0.25786 188.8432,1.25 0.5311,0.6875 57.6237,170.7867 126.8724,377.99823 110.1005,329.45137 128.4068,383.10597 128.4068,376.35207 0,-0.8417 253.8344,-753.52327 254.4592,-754.53421 0.4601,-0.74459 34.6587,-1.06609 113.3998,-1.06609 86.3541,0 113.0219,-0.28086 113.941,-1.2 0.9273,-0.92727 1.2,-61.15529 1.2,-264.99879 l 0,-263.79879 -408.75,-0.25242 c -224.8125,-0.13884 599.8125,-0.36438 1832.5,-0.50122 l 2241.25,-0.24878 -0.15,504.25 c -0.083,277.3375 -0.5083,495.925 -0.9463,485.75 -5.1771,-120.28282 -37.7756,-221.38311 -95.1856,-295.2065 -45.2813,-58.22711 -104.9663,-100.1273 -182.7181,-128.27214 -52.7276,-19.08651 -106.045,-29.63628 -180.5,-35.71506 -20.9759,-1.71255 -115.8399,-1.69703 -142,0.0232 -135.3258,8.89888 -231.7072,31.26408 -352.2927,81.74915 -11.389,4.7682 -21.4777,9.40113 -22.4192,10.29539 -1.6079,1.52712 0.7955,9.28308 39.5482,127.62153 30.1784,92.15499 41.6865,126.0777 42.8473,126.30123 0.8728,0.1681 11.6511,-3.27088 23.9517,-7.64216 91.8774,-32.65064 164.6922,-48.25449 248.4931,-53.25084 25.3497,-1.5114 87.5665,-0.6283 103.8716,1.47434 70.0266,9.03035 120.3982,32.62265 152.9187,71.62183 16.0357,19.23039 27.7549,41.65956 35.0074,67 5.9483,20.78394 8.3945,38.71887 9.2405,67.75 0.5566,19.098 0.4424,22.25 -0.8059,22.25 -0.7999,0 -6.8333,-1.8168 -13.4075,-4.0374 -65.3302,-22.0664 -130.4046,-34.9772 -207.4532,-41.1591 -21.1455,-1.69654 -104.5373,-1.6993 -125.5,0 -115.9958,9.3801 -200.6801,35.3781 -269.8405,82.8406 -17.6085,12.0841 -28.9746,21.5987 -45.7759,38.3189 -25.8941,25.7693 -43.3087,49.8808 -58.893,81.5411 -19.7267,40.0755 -30.2739,79.0864 -35.1475,130 -1.6325,17.0539 -1.6405,65.5712 -0.014,81.5 6.6222,64.8336 24.3485,115.7145 56.9614,163.5 78.8797,115.577 233.4211,173.9497 410.209,154.9421 67.1692,-7.2217 131.33,-27.8059 184.2475,-59.1106 31.7237,-18.767 55.7297,-37.47 84.9783,-66.2061 11.6779,-11.4734 17.9049,-16.9393 18.2509,-16.0203 0.2888,0.7672 0.6372,28.6199 0.7742,61.8949 l 0.2491,60.5 160.75,0.253 160.75,0.2531 0,12.9969 0,12.997 -1444.25,-0.1384 c -1165.5883,-0.1117 -1439.8123,-0.3788 -1421.25,-1.384 149.3853,-8.0902 279.6029,-63.7372 381.3629,-162.9712 22.9427,-22.3732 48.465,-51.4023 47.9458,-54.5337 -0.3616,-2.1811 -187.398,-167.9727 -189.497,-167.9727 -0.7806,0 -6.1811,4.2997 -12.0011,9.555 -61.3405,55.3884 -123.8112,89.0633 -188.8106,101.7787 -31.0722,6.0785 -43.2596,7.156 -81,7.1615 -34.7595,0.01 -43.9435,-0.6813 -68.5,-5.1191 -92.4273,-16.7034 -161.7261,-71.2405 -198.029,-155.8457 -9.1387,-21.2981 -22.1192,-62.8636 -20.4666,-65.5374 0.4045,-0.6547 139.0736,-0.993 406.9956,-0.993 223.5101,0 406.6187,-0.383 406.908,-0.8511 1.2927,-2.0916 3.7665,-46.6347 4.2848,-77.1489 2.4853,-146.3422 -31.5168,-284.85346 -96.4149,-392.75734 -80.7603,-134.28225 -204.5889,-218.37004 -360.2774,-244.65671 -74.5864,-12.59327 -149.89,-12.63296 -220.2524,-0.11609 -96.529,17.17167 -184.6772,58.25939 -260.7722,121.55128 -16.2998,13.5573 -54.6839,51.98422 -68.3985,68.47479 -70.4242,84.67868 -116.1977,185.36201 -135.0244,297 -7.0346,41.7135 -8.9511,66.5658 -8.9841,116.5 -0.03,45.8069 1.1111,63.6434 6.4799,101.2628 24.1622,169.3071 110.0233,310.1459 245.129,402.0874 88.6317,60.3153 199.6171,96.9046 312.8227,103.1303 18.1512,0.9983 -179.9112,1.2647 -1024.75,1.3785 l -1047.25,0.141 0.2494,-870.75 z m 3105.804,503.75 c 0.5882,-361.8784 0.3527,-345.7476 5.501,-376.73577 14.9314,-89.87369 64.561,-148.10779 142.4456,-167.14204 20.3259,-4.96744 34.5628,-6.49795 60,-6.45019 17.7849,0.0334 25.4338,0.49014 36.5,2.17956 55.2878,8.44055 95.884,33.09635 123.6528,75.09971 19.756,29.88325 31.3813,65.51561 37.5409,115.06603 1.5281,12.2924 1.726,43.7204 2.2412,355.9827 l 0.5651,342.5 166,0 166,0 0,-402.5 c 0,-381.69455 -0.094,-403.37874 -1.8124,-419.5 -4.9921,-46.82387 -12.4312,-82.90069 -24.6414,-119.5 -47.6512,-142.83194 -155.2518,-230.06188 -307.0462,-248.91706 -101.9918,-12.66894 -191.7897,4.61313 -267.713,51.52275 -43.794,27.05839 -85.2916,65.01171 -127.0663,116.2138 -5.5281,6.77572 -10.4268,12.28832 -10.8859,12.25021 -0.4592,-0.0381 -1.0598,-36.40687 -1.3348,-80.81949 l -0.5,-80.75021 -166,0 -166,0 -0.2556,585 c -0.1406,321.75 -0.042,585.5638 0.2197,586.253 0.3788,0.9983 34.1567,1.2015 166.2556,1 l 165.7803,-0.253 0.5534,-340.5 z m -1737.3022,-70.8337 c 0.1912,-305.38742 -0.028,-401.24084 -0.9152,-400.94497 -1.1459,0.38197 -319.3287,794.64877 -320.4922,800.03167 l -0.595,2.7531 160.8756,-0.2531 160.8756,-0.253 0.2512,-401.3337 z m 3068.7488,202.1735 c -39.9258,-3.2344 -74.1156,-13.5365 -99.2215,-29.8974 -17.9363,-11.6886 -29.3384,-22.8394 -39.8203,-38.9424 -6.8344,-10.4994 -8.6045,-14.1199 -12.7294,-26.0354 -5.9927,-17.3111 -7.1855,-25.3771 -7.1671,-48.4646 0.018,-22.0665 1.1022,-30.7125 5.9585,-47.5 15.9401,-55.1031 67.4493,-94.0145 143.4798,-108.3885 64.2465,-12.1461 146.5821,-8.0011 218,10.9748 22.2139,5.9022 56.0119,17.7978 68.124,23.977 l 3.876,1.9773 -0.01,35.2297 c -0.01,44.5471 -1.5811,58.7931 -9.0115,81.7297 -4.2518,13.125 -16.6089,37.6036 -24.7213,48.9713 -7.8449,10.9929 -25.4583,29.606 -36.259,38.3168 -47.3642,38.1995 -116.0394,59.3031 -190.5,58.5397 -8.8,-0.09 -17.8,-0.3098 -20,-0.488 z M -866.0689,139.33588 c 0.01,-4.3555 6.4464,-31.8765 10.9849,-46.9711 6.0961,-20.27528 13.2548,-38.85299 21.4936,-55.7789 39.5782,-81.30968 102.2144,-128.62636 185.5157,-140.1423 18.7204,-2.58798 52.9424,-2.33586 71.7962,0.52893 26.3208,3.99942 46.0962,10.06734 68.7031,21.08105 66.3658,32.33233 112.855,97.71934 132.9772,187.03232 3.2952,14.6261 6.6457,34.9921 5.9435,36.1283 -0.304,0.4918 -108.8019,0.8717 -248.9797,0.8717 l -248.441,0 0.01,-2.75 z"
         id="path4307"
         inkscape:connector-curvature="0" />
      <path
         style="fill:#000000;fill-opacity:0"
         d="m -2700.826,-23.66412 0.2494,-870.75 0.2512,852.44134 c 0.2005,680.43106 0.5033,852.60146 1.5006,853.23466 0.6872,0.4364 161.801,0.8003 358.0308,0.8087 313.3071,0.013 356.8502,-0.1642 357.3466,-1.4576 0.3108,-0.8101 -103.4937,-263.9476 -230.6767,-584.75 -127.183,-320.8024 -231.4539,-584.2896 -231.7131,-585.5271 l -0.4714,-2.25 187.5576,0 c 110.5481,0 187.7867,0.37082 188.1157,0.90313 0.307,0.49672 56.8526,169.35922 125.6568,375.25 68.8042,205.89077 125.7399,375.88907 126.5238,377.77397 1.1248,2.7047 1.6838,3.1691 2.6522,2.2032 0.6749,-0.6731 58.4357,-170.9652 128.3574,-378.42704 l 127.1303,-377.20326 113.6563,-0.5 c 99.573,-0.43804 113.7737,-0.68587 114.6044,-2 1.1633,-1.84048 1.3174,-525.91844 0.1551,-527.74878 -0.6314,-0.99437 -83.9041,-1.30022 -408.7347,-1.50122 -224.3679,-0.13884 600.3958,-0.36439 1832.8083,-0.50122 l 2240.75,-0.24878 -0.1681,500.25 c -0.092,275.1375 -0.3099,498.675 -0.4831,496.75 -0.1733,-1.925 -0.7568,-13.625 -1.2967,-26 -1.8458,-42.30915 -9.7312,-89.43396 -22.0973,-132.05693 -47.3612,-163.24349 -160.5339,-261.48225 -341.9548,-296.83144 -27.8515,-5.42676 -59.1229,-9.37543 -97.5,-12.31142 -20.6584,-1.58044 -106.6064,-1.55276 -132.5,0.0427 -62.4741,3.84935 -105.9624,9.1009 -155.1173,18.73163 -70.2659,13.76693 -143.9088,37.25191 -216.1327,68.9255 -9.0619,3.97407 -10.75,5.06596 -10.75,6.95328 0,2.23931 80.2111,248.20404 82.0803,251.69684 0.5446,1.01743 1.5553,1.84987 2.2462,1.84987 0.6908,0 7.3682,-2.21158 14.8385,-4.91463 72.6232,-26.27774 138.477,-43.20853 198.335,-50.99129 56.9174,-7.40042 123.123,-8.83194 165.5,-3.57851 47.7038,5.9138 87.5732,20.11401 119.2819,42.48443 11.8508,8.36074 30.3547,26.89613 38.9458,39.01201 18.3506,25.87989 30.271,59.85274 34.2905,97.72769 1.442,13.5874 2.0595,47.2603 0.8667,47.2603 -0.3383,0 -8.3258,-2.4497 -17.75,-5.4438 -72.6936,-23.0951 -130.8182,-34.2441 -207.1349,-39.7309 -22.3533,-1.60709 -95.3084,-1.61043 -116.5,-0.005 -68.747,5.20703 -117.4211,14.22833 -168,31.13733 -50.3153,16.8209 -90.2978,37.9579 -127.3297,67.3138 -13.2539,10.5066 -39.2333,36.4808 -49.523,49.5131 -51.2699,64.9354 -75.3122,148.5433 -71.095,247.2351 3.4127,79.8643 27.2428,146.719 72.5298,203.4807 11.1919,14.0277 35.7246,38.5309 49.9179,49.8579 62.8577,50.1638 141.2289,79.1843 237,87.7599 20.5696,1.8419 72.9125,1.5661 95.4648,-0.503 86.6901,-7.9534 156.4058,-31.5118 220.2949,-74.4425 23.5758,-15.8419 40.0287,-29.4634 63.4903,-52.5644 l 17.25,-16.9849 0,61.0661 c 0,50.3419 0.2394,61.2647 1.3634,62.1975 1.005,0.8341 43.4639,1.0635 161.5,0.8725 l 160.1367,-0.2591 -1e-4,12.75 0,12.75 -1440.75,-0.16 c -792.4125,-0.088 -1439.4,-0.3074 -1437.75,-0.4876 1.65,-0.1801 12.45,-0.7573 24,-1.2827 11.55,-0.5254 26.625,-1.6896 33.5,-2.5869 133.691,-17.4507 245.1867,-69.9234 335.966,-158.1141 23.9808,-23.2969 50.3735,-53.2142 49.8339,-56.4889 -0.3382,-2.05236 -188.3992,-168.88016 -190.3742,-168.88016 -0.6985,0 -6.3675,4.5468 -12.5979,10.1039 -66.5309,59.3424 -129.4808,91.9558 -200.3278,103.7866 -24.6648,4.1189 -32.1319,4.6097 -70,4.6012 -30.0423,-0.01 -39.3506,-0.3421 -49.5,-1.7834 -54.3069,-7.7119 -96.4585,-24.2461 -134.6898,-52.8326 -12.5715,-9.4 -35.6314,-32.4508 -45.6266,-45.6085 -23.8824,-31.4388 -40.1723,-65.6935 -52.1623,-109.6877 -1.9367,-7.1062 -3.5213,-13.5187 -3.5213,-14.25 0,-1.1038 68.9756,-1.3295 406.3776,-1.3295 323.8988,0 406.5817,-0.2537 407.3836,-1.25 1.4348,-1.7826 4.2743,-46.5462 4.9319,-77.75 1.0106,-47.9456 -3.1221,-104.0148 -11.2403,-152.5 -18.8403,-112.52246 -58.8821,-210.34148 -118.4627,-289.39513 -55.9759,-74.27062 -128.5606,-130.21252 -212.9041,-164.08768 -102.3164,-41.09367 -230.3906,-52.62381 -343.086,-30.88702 -146.5224,28.26137 -272.46,111.53955 -358.2069,236.86983 -40.1296,58.65452 -71.4117,129.60164 -89.2867,202.5 -26.3673,107.5315 -25.6493,229.696 1.9751,336.0388 22.3101,85.8848 60.7503,161.0227 117.1507,228.9903 13.7971,16.6269 49.1051,51.9458 65.8678,65.8881 57.3024,47.6613 120.1953,82.9158 190.2283,106.6322 53.5692,18.141 111.6733,29.7003 160.7717,31.9842 12.1,0.5629 23.125,1.1682 24.5,1.3451 1.375,0.1769 -467.4125,0.3891 -1041.75,0.4715 l -1044.25,0.1498 0.2494,-870.75 z m 3105.6071,844.4229 c 0.7958,-0.9589 1.1907,-96.3483 1.423,-343.75 0.3537,-376.57744 -0.1249,-347.4554 6.2578,-380.75382 16.9363,-88.35574 69.1127,-145.13337 148.0042,-161.05617 19.0059,-3.83599 27.5611,-4.58845 51.9585,-4.56996 33.3479,0.0253 54.7129,3.48674 80,12.96124 70.7959,26.52561 111.2641,92.35642 118.4483,192.68321 0.7042,9.835 1.0517,125.1537 1.0517,349.05 0,258.7265 0.2715,334.6341 1.2,335.5626 1.9,1.9 331.1172,1.7276 332.6956,-0.1742 0.8509,-1.0253 1.0607,-103.2706 0.8264,-402.75 -0.3455,-441.58991 0.1422,-406.45292 -6.2545,-450.66335 -20.327,-140.48997 -88.3742,-244.22487 -195.9675,-298.74351 -18.1855,-9.21476 -28.7987,-13.63981 -49.5,-20.63828 -70.8865,-23.96458 -162.1383,-29.13182 -235.3875,-13.32907 -91.7047,19.78433 -167.1168,70.24485 -242.103,161.99841 -5.3939,6.6 -10.1901,12.15 -10.6583,12.33333 -0.4682,0.18334 -0.8512,-35.61416 -0.8512,-79.55 0,-60.79814 -0.2867,-80.17003 -1.2,-81.08333 -1.7451,-1.74511 -330.8549,-1.74511 -332.6,0 -1.7499,1.74995 -1.7499,1170.8501 0,1172.6 1.8584,1.8584 331.1131,1.7326 332.6565,-0.1271 z m -1736.8917,-10.6072 c 1.3656,-2.5515 1.4267,-800.89801 0.062,-803.05734 -0.6101,-0.96505 -1.2595,-1.14157 -1.8395,-0.5 -1.9529,2.16007 -321.3567,802.60654 -320.8219,804.00014 0.504,1.3134 19.7352,1.4915 161.0685,1.4915 157.6545,0 160.5146,-0.034 161.5314,-1.9343 z m 3065.5352,-199.6526 c -1.65,-0.2267 -7.275,-0.8986 -12.5,-1.493 -42.2452,-4.8058 -81.4705,-21.8081 -105.9402,-45.9201 -19.2629,-18.9813 -31.3572,-42.9242 -35.6107,-70.4979 -2.3308,-15.1097 -1.5649,-44.5683 1.534,-59.0021 3.9822,-18.5481 10.6141,-34.5216 20.6128,-49.6476 6.6278,-10.0267 25.8162,-29.0089 36.9041,-36.5076 40.9581,-27.6998 96.4779,-41.3592 168,-41.3325 70.0684,0.026 138.716,13.2546 198.5,38.2511 l 10.5,4.3902 -0.037,41.9232 c -0.036,41.6137 -0.056,42.0159 -2.7169,54.4816 -5.8849,27.5708 -16.3191,50.9368 -32.5608,72.9158 -6.8292,9.2416 -23.1647,26.2015 -33.0102,34.272 -35.7463,29.3016 -85.1606,48.8764 -142.1756,56.3207 -11.8072,1.5417 -63.9232,2.8873 -71.5,1.8462 z M -865.2901,140.53788 c -0.8781,-0.8781 5.0362,-27.6032 9.772,-44.1571 12.0809,-42.2286 32.7848,-84.36428 55.3333,-112.61177 39.1198,-49.00721 88.142,-77.27297 149.6094,-86.26338 22.9974,-3.36368 56.1401,-2.87295 80.5,1.19192 93.2369,15.55817 161.2363,83.06879 190.3933,189.02463 3.4692,12.6069 8.7434,37.7163 10.1062,48.1137 l 0.6882,5.25 -247.9272,0 c -136.3599,0 -248.1738,-0.2466 -248.4752,-0.548 z"
         id="path4299"
         inkscape:connector-curvature="0" />
      <path
         style="fill:#000000;fill-opacity:0"
         d="m -2701.0754,829.33588 0,-17.75 358.8914,0.2541 c 289.8466,0.2052 358.9854,0.01 359.38,-1.019 0.2687,-0.7002 -103.8556,-264.5145 -231.3872,-586.2541 -127.5317,-321.73954 -231.8777,-585.3185 -231.88,-585.731 0,-0.4125 84.3161,-0.75 187.3742,-0.75 l 187.3784,0 15.6232,46.25 c 8.5928,25.4375 65.5175,195.65 126.4995,378.25 93.5119,280.0055 111.1617,332 112.6988,332 1.5356,0 21.8942,-59.5626 129.2866,-378.25 l 127.464,-378.25 113.2131,0 c 94.2003,0 113.4025,-0.22826 114.3411,-1.35917 0.8325,-1.0031 1.0611,-70.68704 0.8725,-266.00001 l -0.2556,-264.64085 1832.25,10e-6 1832.25,2e-5 -0.1681,500.25 c -0.092,275.1375 -0.3099,498.675 -0.4831,496.75 -0.1733,-1.925 -0.7568,-13.625 -1.2967,-26 -1.8458,-42.30915 -9.7312,-89.43396 -22.0973,-132.05693 -47.3612,-163.24349 -160.5339,-261.48225 -341.9548,-296.83144 -27.8515,-5.42676 -59.1229,-9.37543 -97.5,-12.31142 -20.6584,-1.58044 -106.6064,-1.55276 -132.5,0.0427 -62.4741,3.84935 -105.9624,9.1009 -155.1173,18.73163 -70.2659,13.76693 -143.9088,37.25191 -216.1327,68.9255 -9.0619,3.97407 -10.75,5.06596 -10.75,6.95328 0,2.23931 80.2111,248.20404 82.0803,251.69684 0.5446,1.01743 1.5553,1.84987 2.2462,1.84987 0.6908,0 7.3682,-2.21158 14.8385,-4.91463 72.6232,-26.27774 138.477,-43.20853 198.335,-50.99129 56.9174,-7.40042 123.123,-8.83194 165.5,-3.57851 47.7038,5.9138 87.5732,20.11401 119.2819,42.48443 11.8508,8.36074 30.3547,26.89613 38.9458,39.01201 18.3506,25.87989 30.271,59.85274 34.2905,97.72769 1.442,13.5874 2.0595,47.2603 0.8667,47.2603 -0.3383,0 -8.3258,-2.4497 -17.75,-5.4438 -72.6936,-23.0951 -130.8182,-34.2441 -207.1349,-39.7309 -22.3533,-1.60709 -95.3084,-1.61043 -116.5,-0.005 -68.747,5.20703 -117.4211,14.22833 -168,31.13733 -50.3153,16.8209 -90.2978,37.9579 -127.3297,67.3138 -13.2539,10.5066 -39.2333,36.4808 -49.523,49.5131 -51.2699,64.9354 -75.3122,148.5433 -71.095,247.2351 3.4127,79.8643 27.2428,146.719 72.5298,203.4807 11.1919,14.0277 35.7246,38.5309 49.9179,49.8579 62.8577,50.1638 141.2289,79.1843 237,87.7599 20.5696,1.8419 72.9125,1.5661 95.4648,-0.503 86.6901,-7.9534 156.4058,-31.5118 220.2949,-74.4425 23.5758,-15.8419 40.0287,-29.4634 63.4903,-52.5644 l 17.25,-16.9849 0,61.0661 c 0,50.3419 0.2394,61.2647 1.3634,62.1975 1.005,0.8341 43.4639,1.0635 161.5,0.8725 l 160.1367,-0.2591 -1e-4,12.75 0,12.75 -1440.75,-0.16 c -792.4125,-0.088 -1439.4,-0.3074 -1437.75,-0.4876 1.65,-0.1801 12.45,-0.7573 24,-1.2827 11.55,-0.5254 26.625,-1.6896 33.5,-2.5869 133.691,-17.4507 245.1867,-69.9234 335.966,-158.1141 23.9808,-23.2969 50.3735,-53.2142 49.8339,-56.4889 -0.3382,-2.05236 -188.3992,-168.88016 -190.3742,-168.88016 -0.6985,0 -6.3675,4.5468 -12.5979,10.1039 -66.5309,59.3424 -129.4808,91.9558 -200.3278,103.7866 -24.6648,4.1189 -32.1319,4.6097 -70,4.6012 -30.0423,-0.01 -39.3506,-0.3421 -49.5,-1.7834 -54.3069,-7.7119 -96.4585,-24.2461 -134.6898,-52.8326 -12.5715,-9.4 -35.6314,-32.4508 -45.6266,-45.6085 -23.8824,-31.4388 -40.1723,-65.6935 -52.1623,-109.6877 -1.9367,-7.1062 -3.5213,-13.5187 -3.5213,-14.25 0,-1.1038 68.9756,-1.3295 406.3776,-1.3295 323.8988,0 406.5817,-0.2537 407.3836,-1.25 1.4348,-1.7826 4.2743,-46.5462 4.9319,-77.75 1.0106,-47.9456 -3.1221,-104.0148 -11.2403,-152.5 -18.8403,-112.52246 -58.8821,-210.34148 -118.4627,-289.39513 -55.9759,-74.27062 -128.5606,-130.21252 -212.9041,-164.08768 -102.3164,-41.09367 -230.3906,-52.62381 -343.086,-30.88702 -146.5224,28.26137 -272.46,111.53955 -358.2069,236.86983 -40.1296,58.65452 -71.4117,129.60164 -89.2867,202.5 -26.3673,107.5315 -25.6493,229.696 1.9751,336.0388 22.3101,85.8848 60.7503,161.0227 117.1507,228.9903 13.7971,16.6269 49.1051,51.9458 65.8678,65.8881 57.3024,47.6613 120.1953,82.9158 190.2283,106.6322 53.5692,18.141 111.6733,29.7003 160.7717,31.9842 12.1,0.5629 23.125,1.1682 24.5,1.3451 1.375,0.1769 -467.4125,0.3891 -1041.75,0.4715 l -1044.25,0.1498 0,-17.75 z m 3105.8565,-8.5771 c 0.7958,-0.9589 1.1907,-96.3483 1.423,-343.75 0.3537,-376.57744 -0.1249,-347.4554 6.2578,-380.75382 16.9363,-88.35574 69.1127,-145.13337 148.0042,-161.05617 19.0059,-3.83599 27.5611,-4.58845 51.9585,-4.56996 33.3479,0.0253 54.7129,3.48674 80,12.96124 70.7959,26.52561 111.2641,92.35642 118.4483,192.68321 0.7042,9.835 1.0517,125.1537 1.0517,349.05 0,258.7265 0.2715,334.6341 1.2,335.5626 1.9,1.9 331.1172,1.7276 332.6956,-0.1742 0.8509,-1.0253 1.0607,-103.2706 0.8264,-402.75 -0.3455,-441.58991 0.1422,-406.45292 -6.2545,-450.66335 -20.327,-140.48997 -88.3742,-244.22487 -195.9675,-298.74351 -18.1855,-9.21476 -28.7987,-13.63981 -49.5,-20.63828 -70.8865,-23.96458 -162.1383,-29.13182 -235.3875,-13.32907 -91.7047,19.78433 -167.1168,70.24485 -242.103,161.99841 -5.3939,6.6 -10.1901,12.15 -10.6583,12.33333 -0.4682,0.18334 -0.8512,-35.61416 -0.8512,-79.55 0,-60.79814 -0.2867,-80.17003 -1.2,-81.08333 -1.7451,-1.74511 -330.8549,-1.74511 -332.6,0 -1.7499,1.74995 -1.7499,1170.8501 0,1172.6 1.8584,1.8584 331.1131,1.7326 332.6565,-0.1271 z m -1736.3565,-412.1729 c 0,-337.68684 -0.2188,-403 -1.3502,-403 -1.5858,0 -323.2036,803.1961 -322.4276,805.2184 0.4007,1.0443 31.0464,1.2398 162.1359,1.0346 l 161.6419,-0.253 0,-403 z m 3065,201.9131 c -1.65,-0.2267 -7.275,-0.8986 -12.5,-1.493 -42.2452,-4.8058 -81.4705,-21.8081 -105.9402,-45.9201 -19.2629,-18.9813 -31.3572,-42.9242 -35.6107,-70.4979 -2.3308,-15.1097 -1.5649,-44.5683 1.534,-59.0021 3.9822,-18.5481 10.6141,-34.5216 20.6128,-49.6476 6.6278,-10.0267 25.8162,-29.0089 36.9041,-36.5076 40.9581,-27.6998 96.4779,-41.3592 168,-41.3325 70.0684,0.026 138.716,13.2546 198.5,38.2511 l 10.5,4.3902 -0.037,41.9232 c -0.036,41.6137 -0.056,42.0159 -2.7169,54.4816 -5.8849,27.5708 -16.3191,50.9368 -32.5608,72.9158 -6.8292,9.2416 -23.1647,26.2015 -33.0102,34.272 -35.7463,29.3016 -85.1606,48.8764 -142.1756,56.3207 -11.8072,1.5417 -63.9232,2.8873 -71.5,1.8462 z M -865.2901,140.53788 c -0.8781,-0.8781 5.0362,-27.6032 9.772,-44.1571 12.0809,-42.2286 32.7848,-84.36428 55.3333,-112.61177 39.1198,-49.00721 88.142,-77.27297 149.6094,-86.26338 22.9974,-3.36368 56.1401,-2.87295 80.5,1.19192 93.2369,15.55817 161.2363,83.06879 190.3933,189.02463 3.4692,12.6069 8.7434,37.7163 10.1062,48.1137 l 0.6882,5.25 -247.9272,0 c -136.3599,0 -248.1738,-0.2466 -248.4752,-0.548 z"
         id="path4297"
         inkscape:connector-curvature="0" />
      <path
         style="fill:#000000;fill-opacity:0"
         d="m -2701.0754,829.08588 c 0,-11.3333 0.3704,-18 1,-18 0.55,0 1,0.4506 1,1.0014 0,0.6671 119.5866,0.9174 358.25,0.75 l 358.25,-0.2514 0.2934,-2.0503 c 0.1613,-1.1277 -103.9012,-264.9167 -231.25,-586.1978 -127.3489,-321.2811 -231.5434,-584.39597 -231.5434,-584.69969 0,-0.30371 84.0724,-0.55221 186.8277,-0.55221 l 186.8276,0 125.835,376.75 c 69.2093,207.2125 126.2277,377.5375 126.7075,378.5 3.0416,6.1005 -0.5627,16.3935 131.8394,-376.5 l 127.4673,-378.25 113.7843,-0.5 c 99.6869,-0.43805 113.9018,-0.68584 114.7325,-2 1.3379,-2.11675 1.3167,-529 -0.021,-529 -0.55,0 -1,-0.45 -1,-1 0,-0.6663 611.5,-1 1832.5,-1 l 1832.5,0 -0.1681,500.25 c -0.092,275.1375 -0.3099,498.675 -0.4831,496.75 -0.1733,-1.925 -0.7568,-13.625 -1.2967,-26 -1.8458,-42.30915 -9.7312,-89.43396 -22.0973,-132.05693 -47.3615,-163.24349 -160.5342,-261.48225 -341.9551,-296.83144 -27.8515,-5.42676 -59.1229,-9.37543 -97.5,-12.31142 -20.6584,-1.58044 -106.6064,-1.55276 -132.5,0.0427 -62.4741,3.84935 -105.9624,9.1009 -155.1173,18.73163 -70.2659,13.76693 -143.9088,37.25191 -216.1327,68.9255 -9.0619,3.97407 -10.75,5.06596 -10.75,6.95328 0,2.23931 80.2111,248.20404 82.0803,251.69684 0.5446,1.01743 1.5553,1.84987 2.2462,1.84987 0.6908,0 7.3682,-2.21158 14.8385,-4.91463 72.6232,-26.27774 138.477,-43.20853 198.335,-50.99129 56.9174,-7.40042 123.123,-8.83194 165.5,-3.57851 47.7038,5.9138 87.5732,20.11401 119.2819,42.48443 11.8508,8.36074 30.3547,26.89613 38.9458,39.01201 18.3506,25.87989 30.271,59.85274 34.2905,97.72769 1.442,13.5874 2.0595,47.2603 0.8667,47.2603 -0.3383,0 -8.3258,-2.4497 -17.75,-5.4438 -72.6936,-23.0951 -130.8182,-34.2441 -207.1349,-39.7309 -22.3533,-1.60709 -95.3084,-1.61043 -116.5,-0.005 -68.747,5.20703 -117.4211,14.22833 -168,31.13733 -50.3153,16.8209 -90.2978,37.9579 -127.3297,67.3138 -13.2539,10.5066 -39.2333,36.4808 -49.523,49.5131 -51.2699,64.9354 -75.3122,148.5433 -71.095,247.2351 3.4127,79.8643 27.2428,146.719 72.5298,203.4807 11.1919,14.0277 35.7246,38.5309 49.9179,49.8579 62.8577,50.1638 141.2289,79.1843 237,87.7599 20.5696,1.8419 72.9125,1.5661 95.4648,-0.503 86.6901,-7.9534 156.4058,-31.5118 220.2949,-74.4425 23.5758,-15.8419 40.0287,-29.4634 63.4903,-52.5644 l 17.25,-16.9849 0,61.0661 c 0,50.3419 0.2394,61.2647 1.3634,62.1975 1.005,0.8341 43.4639,1.0635 161.5,0.8725 l 160.1367,-0.2591 -1e-4,12.75 0,12.75 -1440.75,-0.16 c -792.4125,-0.088 -1439.4,-0.3074 -1437.75,-0.4876 1.65,-0.1801 12.45,-0.7573 24,-1.2827 11.55,-0.5254 26.625,-1.6896 33.5,-2.5869 133.691,-17.4507 245.1867,-69.9234 335.966,-158.1141 23.9808,-23.2969 50.3735,-53.2142 49.8339,-56.4889 -0.3382,-2.05236 -188.3992,-168.88016 -190.3742,-168.88016 -0.6985,0 -6.3675,4.5468 -12.5979,10.1039 -66.5309,59.3424 -129.4808,91.9558 -200.3278,103.7866 -24.6648,4.1189 -32.1319,4.6097 -70,4.6012 -30.0423,-0.01 -39.3506,-0.3421 -49.5,-1.7834 -54.3069,-7.7119 -96.4585,-24.2461 -134.6898,-52.8326 -12.5715,-9.4 -35.6314,-32.4508 -45.6266,-45.6085 -23.8824,-31.4388 -40.1723,-65.6935 -52.1623,-109.6877 -1.9367,-7.1062 -3.5213,-13.5187 -3.5213,-14.25 0,-1.1038 68.9756,-1.3295 406.3776,-1.3295 323.8988,0 406.5817,-0.2537 407.3836,-1.25 1.4348,-1.7826 4.2743,-46.5462 4.9319,-77.75 1.0106,-47.9456 -3.1221,-104.0148 -11.2403,-152.5 -18.8403,-112.52246 -58.8821,-210.34148 -118.4627,-289.39513 -55.9759,-74.27062 -128.5606,-130.21252 -212.9041,-164.08768 -102.3164,-41.09367 -230.3906,-52.62381 -343.086,-30.88702 -146.5224,28.26137 -272.46,111.53955 -358.2069,236.86983 -40.1296,58.65452 -71.4117,129.60164 -89.2867,202.5 -26.3673,107.5315 -25.6493,229.696 1.9751,336.0388 22.3101,85.8848 60.7503,161.0227 117.1507,228.9903 13.7971,16.6269 49.1051,51.9458 65.8678,65.8881 57.3024,47.6613 120.1953,82.9158 190.2283,106.6322 53.5692,18.141 111.6733,29.7003 160.7717,31.9842 12.1,0.5629 23.125,1.1682 24.5,1.3451 1.375,0.1769 -467.4125,0.3891 -1041.75,0.4715 l -1044.25,0.1498 0,-18 z m 3105.8565,-8.3271 c 0.7958,-0.9589 1.1907,-96.3483 1.423,-343.75 0.3537,-376.57744 -0.1249,-347.4554 6.2578,-380.75382 16.9363,-88.35574 69.1127,-145.13337 148.0042,-161.05617 19.0059,-3.83599 27.5611,-4.58845 51.9585,-4.56996 33.3479,0.0253 54.7129,3.48674 80,12.96124 70.7959,26.52561 111.2641,92.35642 118.4483,192.68321 0.7042,9.835 1.0517,125.1537 1.0517,349.05 0,258.7265 0.2715,334.6341 1.2,335.5626 1.9,1.9 331.1172,1.7276 332.6956,-0.1742 0.8509,-1.0253 1.0607,-103.2706 0.8264,-402.75 -0.3455,-441.58991 0.1422,-406.45292 -6.2545,-450.66335 -20.327,-140.48997 -88.3742,-244.22487 -195.9675,-298.74351 -18.1855,-9.21476 -28.7987,-13.63981 -49.5,-20.63828 -70.8865,-23.96458 -162.1383,-29.13182 -235.3875,-13.32907 -91.7047,19.78433 -167.1168,70.24485 -242.103,161.99841 -5.3939,6.6 -10.1901,12.15 -10.6583,12.33333 -0.4682,0.18334 -0.8512,-35.61416 -0.8512,-79.55 0,-60.79814 -0.2867,-80.17003 -1.2,-81.08333 -1.7451,-1.74511 -330.8549,-1.74511 -332.6,0 -1.7499,1.74995 -1.7499,1170.8501 0,1172.6 1.8584,1.8584 331.1131,1.7326 332.6565,-0.1271 z m -1736.4279,-9.2443 c 1.4234,-1.4234 1.57,-39.408 1.5561,-403.25 -0.01,-230.8156 -0.3913,-402.2723 -0.8991,-403.07432 -0.4861,-0.76764 -1.5598,-1.13628 -2.3862,-0.81919 -0.8968,0.34415 -66.0913,162.13501 -161.7446,401.39571 -88.1332,220.4506 -160.4533,401.6 -160.7112,402.5543 -0.258,0.9542 -0.2074,2.4167 0.1123,3.25 0.516,1.3445 18.6826,1.5149 161.5413,1.5149 144.9939,0 161.1158,-0.1559 162.5314,-1.5714 z m 3065.0714,-201.0155 c -1.65,-0.2267 -7.275,-0.8986 -12.5,-1.493 -42.2452,-4.8058 -81.4705,-21.8081 -105.9402,-45.9201 -19.2629,-18.9813 -31.3572,-42.9242 -35.6107,-70.4979 -2.3308,-15.1097 -1.5649,-44.5683 1.534,-59.0021 3.9822,-18.5481 10.6141,-34.5216 20.6128,-49.6476 6.6278,-10.0267 25.8162,-29.0089 36.9041,-36.5076 40.9581,-27.6998 96.4779,-41.3592 168,-41.3325 70.0684,0.026 138.716,13.2546 198.5,38.2511 l 10.5,4.3902 -0.037,41.9232 c -0.036,41.6137 -0.056,42.0159 -2.7169,54.4816 -5.8849,27.5708 -16.3191,50.9368 -32.5608,72.9158 -6.8292,9.2416 -23.1647,26.2015 -33.0102,34.272 -35.7463,29.3016 -85.1606,48.8764 -142.1756,56.3207 -11.8072,1.5417 -63.9232,2.8873 -71.5,1.8462 z M -865.2901,140.53788 c -0.8781,-0.8781 5.0362,-27.6032 9.772,-44.1571 12.0809,-42.2286 32.7848,-84.36428 55.3333,-112.61177 39.1198,-49.00721 88.142,-77.27297 149.6094,-86.26338 22.9974,-3.36368 56.1401,-2.87295 80.5,1.19192 93.2369,15.55817 161.2363,83.06879 190.3933,189.02463 3.4692,12.6069 8.7434,37.7163 10.1062,48.1137 l 0.6882,5.25 -247.9272,0 c -136.3599,0 -248.1738,-0.2466 -248.4752,-0.548 z"
         id="path4295"
         inkscape:connector-curvature="0" />
      <path
         style="fill:#000000;fill-opacity:0"
         d="m -2701.0754,829.08588 c 0,-11.3333 0.3704,-18 1,-18 0.55,0 1,0.4506 1,1.0014 0,0.6671 119.5866,0.9174 358.25,0.75 l 358.25,-0.2514 0.2934,-2.0503 c 0.1613,-1.1277 -103.9012,-264.9167 -231.25,-586.1978 -127.3489,-321.2811 -231.5434,-584.39597 -231.5434,-584.69969 0,-0.30371 84.0724,-0.55221 186.8277,-0.55221 l 186.8276,0 125.835,376.75 c 69.2093,207.2125 126.2277,377.5375 126.7075,378.5 3.0416,6.1005 -0.5627,16.3935 131.8394,-376.5 l 127.4673,-378.25 113.7843,-0.5 c 99.6869,-0.43805 113.9018,-0.68584 114.7325,-2 1.3379,-2.11675 1.3167,-529 -0.021,-529 -0.55,0 -1,-0.45 -1,-1 0,-0.6663 611.5,-1 1832.5,-1 l 1832.5,0 -0.1729,500.25 c -0.095,275.1375 -0.4859,495.075 -0.8684,488.75 -0.3826,-6.325 -0.7548,-17.37579 -0.8271,-24.55731 -0.375,-37.21694 -13.0759,-102.9125 -28.738,-148.6474 -10.3621,-30.25826 -25.7404,-63.08533 -41.6144,-88.83183 -71.2583,-115.57482 -196.0133,-181.13405 -373.7795,-196.42229 -53.9284,-4.63794 -123.8476,-4.08567 -191,1.50867 -112.9602,9.41049 -212.8805,34.60126 -322,81.17899 -15.1693,6.475 -19.5635,8.76194 -19.786,10.29738 -0.372,2.56753 81.455,252.53667 83.2671,254.36847 1.1787,1.19155 3.3196,0.69694 14.6993,-3.39612 103.7635,-37.32164 178.0535,-53.17624 269.8196,-57.58353 79.4585,-3.81619 137.9365,4.65461 183.7926,26.62318 62.361,29.8757 96.3895,80.65293 104.183,155.46179 1.0408,9.99 1.4141,45 0.4799,45 -0.2995,0 -9.862,-2.9473 -21.25,-6.5495 -103.3614,-32.695 -203.4856,-44.86811 -315.7055,-38.38363 -139.2474,8.04623 -249.4089,48.64373 -321.3687,118.43313 -28.0884,27.2412 -46.7233,52.9728 -63.7297,88 -19.4789,40.1193 -30.3344,82.3883 -34.387,133.8952 -1.2948,16.456 -1.2912,55.5401 0.01,71.1048 6.2454,74.9062 31.4981,139.6677 74.815,191.8659 68.2657,82.2622 178.7143,130.9864 307.1197,135.4852 111.9829,3.9234 207.8021,-20.1756 288.3221,-72.5145 25.0168,-16.2612 44.2119,-31.8504 67.9721,-55.2034 l 16.75,-16.463 0.015,59.9149 c 0.01,36.0095 0.3936,60.5134 0.9635,61.4149 0.8352,1.3214 20.0073,1.5309 160.9847,1.7591 107.1536,0.1734 160.0365,-0.074 160.0365,-0.75 0,-0.555 0.45,-1.0091 1,-1.0091 0.6154,0 1,5 1,13 l 0,13 -1440.75,-0.1704 c -792.4125,-0.094 -1435.8,-0.4865 -1429.75,-0.8728 6.05,-0.3863 16.625,-0.7688 23.5,-0.85 31.1971,-0.3685 92.6105,-11.9227 136,-25.587 92.7574,-29.2112 171.597,-77.7715 239.0348,-147.2307 15.1011,-15.5537 33.9407,-36.894 36.9533,-41.8584 1.0338,-1.7034 1.1864,-2.9047 0.5,-3.9344 -1.8025,-2.7039 -189.828,-168.4963 -191.092,-168.4963 -0.6822,0 -6.3379,4.5504 -12.5683,10.1121 -36.119,32.2425 -76.3513,59.9532 -110.2796,75.9571 -48.95,23.0897 -97.0842,33.1619 -159.0482,33.2814 -28.6187,0.055 -40.7404,-0.8042 -63.3375,-4.4905 -101.2539,-16.5179 -174.1855,-77.4913 -209.5918,-175.226 -4.1713,-11.5145 -12.5707,-40.4466 -12.5707,-43.3006 0,-1.1091 68.2252,-1.3335 405.5,-1.3335 389.0436,0 405.573,-0.073 407.2987,-1.7987 1.5114,-1.5114 1.9928,-4.9066 3.0133,-21.25 3.5407,-56.706 3.7836,-82.8916 1.1405,-122.9513 -6.0204,-91.2481 -24.1207,-172.15023 -55.5969,-248.5 -7.2264,-17.52071 -25.7538,-54.99426 -35.3538,-71.5 -65.8577,-113.23249 -161.7594,-192.12778 -282.005,-231.9964 -42.2143,-13.99657 -84.3885,-22.70095 -133.5,-27.55319 -21.8423,-2.15804 -82.1659,-3.0459 -104.033,-1.53118 -65.8969,4.56463 -125.9066,18.30627 -183.967,42.12669 -16.7159,6.85801 -54.5676,25.80007 -70,35.02992 -58.6403,35.07178 -110.3016,80.3218 -153.4393,134.39706 -74.7328,93.68132 -120.5722,211.69929 -132.0698,340.0271 -3.2017,35.7344 -2.9645,92.0927 0.5445,129.3807 12.1523,129.1335 59.6954,245.2568 138.0233,337.1193 13.6344,15.9904 48.3674,50.4141 63.9122,63.343 78.8548,65.5854 169.3998,108.0884 274.0291,128.6328 30.2502,5.9397 47.5405,8.0613 74,9.08 13.75,0.5293 26.125,1.1159 27.5,1.3035 1.375,0.1876 -467.4125,0.4085 -1041.75,0.4909 l -1044.25,0.1498 0,-18 z m 3107.0212,-8 c 0.5926,-0.9375 0.9539,-127.3498 0.9635,-337.1048 0.01,-221.2353 0.3665,-339.9993 1.0459,-348.5 8.1207,-101.60681 52.3157,-167.59158 129.4694,-193.30221 25.6148,-8.53588 49.88,-11.68072 82.9904,-10.75583 36.2752,1.01331 61.886,6.80459 87.9643,19.89108 60.245,30.23188 94.0343,90.51743 101.491,181.07626 0.7113,8.6384 1.0593,122.5142 1.0696,350 0.01,210.7703 0.3708,337.7579 0.9635,338.6955 0.8367,1.3235 20.5445,1.5 167.5212,1.5 146.9767,0 166.6845,-0.1765 167.5212,-1.5 1.3597,-2.1511 1.2991,-770.5525 -0.063,-795.5 -6.8195,-124.91974 -46.191,-225.54589 -115.369,-294.86198 -61.6995,-61.82265 -143.5815,-96.84872 -244.5392,-104.60474 -17.4159,-1.33796 -58.381,-1.32643 -74.7456,0.0211 -116.0768,9.55786 -207.1326,61.98517 -295.6632,170.23441 l -9.6413,11.78874 -0.015,-79.28874 c -0.01,-48.22261 -0.3868,-79.87646 -0.9635,-80.78874 -0.8367,-1.32353 -20.5445,-1.5 -167.5212,-1.5 -146.9767,0 -166.6845,0.17647 -167.5212,1.5 -1.1264,1.78191 -1.3393,1170.9144 -0.2135,1172.6001 0.4041,0.605 1.4097,1.359 2.2347,1.6756 0.825,0.3166 75.8789,0.4966 166.7865,0.3999 145.7051,-0.1548 165.3989,-0.3533 166.2347,-1.6756 z m -1737.5926,-9.5714 c 1.4234,-1.4234 1.57,-39.408 1.5561,-403.25 -0.01,-230.8156 -0.3913,-402.2723 -0.8991,-403.07432 -0.4861,-0.76764 -1.5598,-1.13628 -2.3862,-0.81919 -0.8968,0.34415 -66.0913,162.13501 -161.7446,401.39571 -88.1332,220.4506 -160.4533,401.6 -160.7112,402.5543 -0.258,0.9542 -0.2074,2.4167 0.1123,3.25 0.516,1.3445 18.6826,1.5149 161.5413,1.5149 144.9939,0 161.1158,-0.1559 162.5314,-1.5714 z m 3054.2367,-202.956 c -32.6767,-3.9524 -63.1995,-14.1708 -85.1653,-28.5113 -31.9561,-20.863 -51.0919,-49.6374 -57.0438,-85.7767 -1.3736,-8.3405 -1.5966,-14.3714 -1.165,-31.5 0.5835,-23.1573 1.5366,-29.2309 7.3197,-46.6441 18.2561,-54.9692 72.2434,-92.2036 151.3891,-104.4111 23.576,-3.6364 31.8137,-4.1294 69,-4.1294 39.9793,0 52.9244,0.9152 85.8366,6.0683 39.3661,6.1637 86.3513,19.5461 115.9134,33.0148 l 7.25,3.3031 -0.023,29.8069 c -0.027,34.9687 -1.0107,49.7818 -4.4287,66.6627 -3.2849,16.2234 -7.1314,27.1193 -15.5841,44.1442 -8.6014,17.3246 -17.2499,29.5179 -31.3688,44.2263 -18.8395,19.6261 -36.6305,32.4033 -63.0957,45.3143 -31.2865,15.2631 -63.9714,24.2051 -104,28.4525 -17.308,1.8365 -59.5774,1.8249 -74.8347,-0.02 z M -864.6307,137.83588 c 0.2655,-1.2375 1.6706,-7.875 3.1226,-14.75 17.6754,-83.69552 59.0548,-151.16456 116.0759,-189.26161 30.329,-20.26347 62.5539,-31.75638 101.8568,-36.32689 17.5866,-2.04514 51.4061,-1.52083 68.5,1.06196 106.3143,16.06346 179.0695,96.50205 202.4619,223.84314 1.396,7.5991 2.5381,14.6866 2.5381,15.75 0,1.906 -3.5075,1.9334 -247.5191,1.9334 l -247.519,0 0.4828,-2.25 z"
         id="path4293"
         inkscape:connector-curvature="0" />
      <g
         id="g4375"
         transform="matrix(0.07903541,0,0,0.07903541,-142.07678,418.58406)">
        <path
           sodipodi:nodetypes="cccccsssccscscsccccssscss"
           inkscape:connector-curvature="0"
           id="path4325"
           d="m -3842.2803,1155.7038 2,1702 356.0683,0 356.0664,0 -0.6835,-2.1582 c -0.3767,-1.1869 -104.6003,-264.3131 -231.6075,-584.7266 -127.0072,-320.4136 -230.7921,-583.4796 -230.6328,-584.5918 0.2894,-2.0204 0.4574,-2.0231 189.5156,-2.2754 l 189.2247,-0.2519 1.3808,2.2519 c 0.7594,1.2389 57.7831,171.125 126.7207,377.5254 68.9377,206.4004 125.6434,374.7004 126.0117,374 0.3684,-0.7004 57.5023,-170.0234 126.9649,-376.2734 69.4625,-206.25 126.7278,-375.5625 127.2558,-376.25 0.758,-0.9871 24.8146,-1.25 114.3379,-1.25 l 113.377,0 0,-263 0,-263 z m 1365.5801,907.0879 c -0.4604,0.4604 -317.5801,793.7949 -317.5801,794.4863 0,0.2342 71.55,0.4258 159,0.4258 l 159,0 0,-397.666 c 0,-218.7166 -0.1886,-397.4774 -0.4199,-397.2461 z"
           style="fill:#00ad3e;fill-opacity:1" />
        <path
           style="fill:#6c6d70;fill-opacity:1"
           d="m 1184.7294,2095.7546 z m 0,0 c -8.2312,-69.1136 -25.2928,-129.5625 -51.125,-181.0118 -48.7732,-97.1404 -126.1697,-161.2456 -238.88469,-197.8652 -81.7902,-26.5725 -175.0028,-35.9896 -298,-30.1055 -113.1678,5.4139 -209.5252,24.7918 -310.5137,62.4454 -30.511,11.376 -69.607,27.7308 -70.7969,29.6171 -0.5797,0.9191 12.8131,43.2162 39.8555,125.877 22.4002,68.4708 41.0398,124.8443 41.4219,125.2734 0.382,0.4291 8.7574,-2.1031 18.6133,-5.6269 112.2934,-40.1488 196.2492,-55.9302 298.4199,-56.0957 22.5528,-0.036 40.0589,0.4173 48,1.2461 43.1923,4.5081 73.8775,12.3416 102.8027,26.2422 59.3926,28.5424 93.3085,75.2102 104.2539,143.4531 2.3136,14.4248 4.026,61.7138 2.2735,62.7969 -0.5175,0.3198 -9.1545,-2.0805 -19.1934,-5.334 -70.9647,-22.999 -134.6061,-35.1667 -209.6367,-40.0801 -23.2869,-1.525 -90.0204,-1.5337 -112.5,-0.016 -73.2165,4.9444 -132.9735,16.8387 -187.1973,37.2636 -119.0786,44.8541 -194.0273,127.1272 -219.2363,240.6621 -7.6833,34.6034 -10.0582,61.5935 -9.2578,105.2071 0.7108,38.736 3.3632,59.53 11.6933,91.6758 37.1442,143.338 162.1524,238.8595 335.4981,256.3613 28.3745,2.8649 82.0365,2.8709 111,0.012 113.8554,-11.2395 204.8198,-53.1307 280.373,-129.1172 8.1655,-8.2124 15.3552,-14.9316 15.9785,-14.9316 0.8295,0 1.2022,16.6874 1.3907,62.25 l 0.2578,62.25 160.24999,0.2539 154.2597,0.2422 z m -2878.5097,798.9257 c 11.785,-0.7011 0,0 0,0 z m 11.7852,-0.7011 c 15.9567,-1.0973 36.4279,-3.0217 50.7148,-4.8379 119.353,-15.172 219.7637,-58.1822 307.1914,-131.584 27.1834,-22.8224 79.5329,-78.0327 77.2324,-81.4531 -1.1362,-1.6894 -187.3029,-166.4004 -188.0761,-166.4004 -0.3049,0 -4.2207,3.3005 -8.7012,7.334 -47.536,42.7932 -93.4788,72.2342 -139.6465,89.4863 -76.3098,28.5158 -173.7747,30.5606 -247.3438,5.1914 -79.7491,-27.5003 -136.6278,-87.6638 -165.2675,-174.8145 -3.8391,-11.6823 -9.3887,-33.0436 -9.3887,-36.1386 l 0,-2.0586 406.9824,0 406.9805,0 0.5058,-2.25 c 1.753,-7.791 3.9262,-57.1267 3.9102,-88.75 -0.023,-46.3043 -2.2298,-77.927 -8.4824,-121.5 -16.8666,-117.5378 -58.1409,-222.1015 -120.3887,-305 -82.2201,-109.4967 -199.3658,-177.3768 -341.6113,-197.9492 -36.6821,-5.3052 -47.2372,-5.9633 -96.3965,-6.0079 -48.4198,-0.044 -59.1543,0.6036 -92.5,5.5821 -146.8917,21.931 -277.1935,100.0279 -365.6172,219.1347 -67.362,90.7367 -108.2976,199.2005 -119.8613,317.586 -3.8122,39.0284 -3.8157,96.3554 -0.01,136.7695 15.7924,167.6423 89.8985,309.051 213.9785,408.3145 89.2559,71.4043 205.9842,116.5369 328.5098,127.0156 6.875,0.588 14.75,1.3592 17.5,1.7129 1.3131,0.1689 3.9947,0.391 7.2285,0.6172 l 82.5567,0 z M -392.28031,1677.2175 c -43.9757,-0.014 -53.2644,0.7538 -84.5,6.9863 -94.8133,18.9182 -173.21811,70.9755 -248.88281,165.25 -5.4075,6.7375 -10.45595,12.25 -11.21875,12.25 -1.1693,0 -1.42688,-12.8341 -1.64258,-81.75 l -0.25586,-81.75 -165,0 -164.99999,0 -0.2559,584 c -0.1406,321.2 -0.041,584.5647 0.2207,585.2539 0.3787,0.9983 33.9569,1.2015 165.25589,1 l 164.7793,-0.2539 0.54883,-343 c 0.6025,-376.8458 0.11588,-348.0758 6.45898,-381.1719 9.4079,-49.0867 30.82455,-90.4592 61.21875,-118.2617 27.0195,-24.7155 61.38994,-40.2791 103.27344,-46.7617 16.4272,-2.5426 58.7561,-2.5103 75,0.057 86.329,13.6426 139.56933,68.4285 157.51953,162.0957 6.3148,32.9517 5.8314,4.1769 6.4336,382.543 l 0.54687,344.5 165,0 165.0000237,0 0.3008,-386 c 0.2057,-264.2345 -0.036,-392.6246 -0.7676,-407 -6.3706,-125.1296 -45.2648997,-224.752 -114.9961037,-294.5489 -51.48551,-51.534 -118.27302,-84.4535 -198.53712,-97.8613 -29.1776,-4.8741 -39.1197,-5.5626 -80.5,-5.5761 z m -1360.25979,264.9492 c 12.2713,0.031 23.8949,0.4751 30.2598,1.3613 74.0548,10.3106 130.6411,48.1741 169.6152,113.4961 15.8985,26.6463 27.8062,57.0595 36.3067,92.7266 3.3132,13.9015 7.0781,34.6906 7.0781,39.0839 l 0,2.8692 -249.9395,0 c -166.9215,0 -250.1483,-0.3344 -250.5644,-1.0078 -1.3358,-2.1613 7.9269,-40.9439 14.6152,-61.1914 16.7965,-50.848 40.7591,-90.8938 73.5274,-122.877 35.2641,-34.4194 76.7228,-54.6418 128.3613,-62.6094 8.1154,-1.2521 24.9629,-1.8918 40.7402,-1.8515 z m 2422.77741,410.9902 c 17.443,0.023 33.9448,0.458 42.4824,1.3438 50.3669,5.2255 92.9899,14.7046 133.6152,29.7148 20.9648,7.746 29.1887,11.8589 29.9746,14.9902 1.271,5.064 -0.3346,73.3182 -1.9804,84.1856 -5.8754,38.7975 -22.4187,73.0517 -48.6094,100.6484 -38.7516,40.8319 -92.6259,65.8487 -162,75.2266 -17.2169,2.3273 -67.1306,2.8903 -82.6309,0.9316 -48.9507,-6.1859 -85.4154,-22.3329 -111.7715,-49.4941 -19.4662,-20.0609 -30.6045,-43.1354 -34.6699,-71.8242 -1.7863,-12.6058 -0.6547,-45.0944 1.9981,-57.375 6.0306,-27.9184 17.7342,-49.5427 37.5312,-69.3457 30.9325,-30.9419 76.7133,-49.7505 139.043,-57.1231 10.6086,-1.2548 34.5908,-1.9082 57.0176,-1.8789 z"
           id="path4373"
           inkscape:connector-curvature="0"
           sodipodi:nodetypes="cccsssscscscssscsscssssscsssccccccccsscssssssccccsssssssscsssccccsssscccscscsssscsscccscsscscsssscscsssscssssssssssss" />
      </g>
    </g>
  </g>
</svg>
