<svg id="Layer_1" xmlns="http://www.w3.org/2000/svg" viewBox="0 0 1136.3 202.3"><style>.st0{fill:#221f1f}</style><path class="st0" d="M200 53.6c-1.4.9-2.8 2.2-4.3 4.1-2.1 2.5-4.1 5.4-6.3 8.8-2.1 3.4-4 6.9-5.6 10.5l-39.6 85.7-30.5-70.1-34.6 70.1-38.7-86.1c-1.5-3.5-3.4-7-5.5-10.6-2.2-3.6-4.2-6.4-6-8.6-1.5-1.8-3.1-3.2-4.9-4.1-1.7-.9-4.2-1.8-7.3-2.7V49h59.6v1.6c-2.4 1-4.1 2.1-5.1 3.3-1 1.2-1.5 2.9-1.5 5 0 1.7.5 3.7 1.5 6L96.5 123l16.6-33.3-9.6-22.4c-2.8-6.5-5.5-11-8-13.5-.9-.9-1.9-1.5-3-2s-2.7-.9-4.8-1.2V49h58.8v1.6c-5.8 1-8.8 4.1-8.8 9.4 0 1.3.3 3.1.9 5.4.6 2.3 1.4 4.6 2.4 7l20.3 48.2 4.1-8.3c4.1-8.5 7.3-16.5 9.5-23.7 2.2-7.3 3.3-13.6 3.3-19.2 0-6.3-1.4-11.1-4.1-14.5-1-1.2-2.1-2.1-3.2-2.7-1.2-.6-3-1.2-5.4-1.7V49h40.8v1.6c-2.9 1.1-4.9 2.1-6.3 3m35.4 48.6c0-1.3 0-2.5-.1-3.5s-.1-2-.2-2.9c-.1-.9-.1-1.9-.2-3-.4-5.9-1.5-10.2-3.2-12.9-1.7-2.7-4.2-4-7.5-4-4.5 0-8 2.7-10.3 8-2.3 5.3-3.5 13-3.5 23.1h25v-4.8zm26.8 30c-.8 1.8-1.5 3.4-2.3 4.8-.8 1.4-1.6 2.8-2.5 4.1-.9 1.3-2 2.7-3.2 4.2-3.8 4.5-8.3 8-13.6 10.5-5.3 2.4-11.2 3.7-17.5 3.7-6.1 0-11.7-1.1-17-3.2-5.3-2.1-9.8-5-13.6-8.8-3.8-3.7-6.8-8.1-9-13.2s-3.2-10.6-3.2-16.6c0-6.1 1.1-11.7 3.4-17 2.3-5.3 5.4-9.9 9.4-13.9s8.7-7.1 14-9.3c5.4-2.3 11.1-3.4 17.3-3.4 5.4 0 10.4.8 14.9 2.4 4.5 1.6 8.5 4 12 7s6.3 6.7 8.5 11 3.7 9.1 4.3 14.5h-53.7c.1 20.2 9.1 30.4 27.1 30.4 6.8 0 12.6-1.7 17.4-5 1.8-1.2 3.3-2.4 4.4-3.7 1.1-1.2 2.4-3.1 4.1-5.6l1.5.6c-1 2.6-1.9 4.8-2.7 6.5m62.9-21.1c-3.1 1.1-5.5 1.9-7 2.5-1.5.6-3 1.5-4.5 2.7-2.7 1.8-4.7 4.1-5.8 6.8-1.2 2.7-1.8 6.1-1.8 10.2 0 4.9.8 8.6 2.4 11.2 1.6 2.6 3.9 3.9 7 3.9 3 0 5.4-1.1 7.1-3.2 1.7-2.2 2.6-5.1 2.6-8.9v-25.2zm28.6 45.5c-4.1 2-8.2 3-12.3 3-8.8 0-14.2-5.2-16.2-15.6-1.9 2.7-3.6 4.7-4.9 6-1.3 1.3-2.9 2.6-4.9 3.9-5.4 3.7-11.9 5.5-19.4 5.5-6.8 0-12.4-1.6-16.7-4.9-4.3-3.2-6.5-7.5-6.5-12.8 0-6.8 3.8-12.4 11.4-16.7 9.8-5.5 23.5-10.8 40.9-15.9v-8.4c0-8-.4-13.4-1.1-16.1-.5-1.9-1.6-3.5-3.1-4.6-1.5-1.1-3.3-1.7-5.4-1.7-1.5 0-3 .3-4.5.8s-2.7 1.2-3.8 2.1c-1.4 1.2-2.5 2.8-3.2 4.7-.7 1.9-1.3 4.7-1.9 8.1l-.6 4.9c-.6 5.2-2.5 9.3-5.6 12.3-3.1 3-6.9 4.5-11.4 4.5-3.4 0-6.1-1.1-8.2-3.2-2.1-2.1-3.2-4.8-3.2-8.2 0-7.9 6.3-14.7 18.8-20.5 6.7-3.1 13.7-5.5 20.9-7.2 7.2-1.7 13.8-2.5 19.8-2.5 6.2 0 11.1 1.5 14.7 4.4 2.4 1.9 4 4.2 4.9 6.9.9 2.7 1.4 6.4 1.4 11.1v37.3c0 3.1.1 5.4.2 6.7.1 1.4.4 2.5 1 3.5.4 1.1 1.2 1.9 2.3 2.5 1.1.6 2.3.9 3.7.9 1 0 1.9-.1 2.8-.4.9-.3 2.1-.8 3.7-1.7l1 1.1c-5.6 4.8-10.5 8.2-14.6 10.2"/><path class="st0" d="M367.7 157.3v-1.9c2.8-.2 4.9-.6 6.3-1.1 1.4-.5 2.5-1.3 3.5-2.5.8-1.1 1.3-2.7 1.6-4.8.3-2.1.5-5.7.5-10.8V69.7c0-4.9-.2-8.4-.6-10.8-.4-2.3-1.3-4.3-2.6-6.1-1.2-1.6-2.6-2.8-4.1-3.5-1.6-.7-3.7-1.1-6.4-1.2l-.3-1.8c2.2-.4 4-.8 5.6-1.1 1.6-.3 3.1-.7 4.6-1.1 1.5-.4 3.2-.8 4.9-1.2 1.8-.4 3.9-1 6.4-1.6 2.6-.6 4.7-1.2 6.5-1.7 1.7-.5 3.3-1 4.8-1.5s2.9-1 4.4-1.5c1.5-.5 3.3-1 5.5-1.7v101.2c0 2.5 0 4.6.1 6.3.1 1.7.2 3.2.3 4.3.2 1.1.4 2.1.6 2.8.3.8.6 1.5 1.1 2.1.9 1.2 2 2 3.3 2.5 1.4.5 3.5.8 6.4 1.1v1.9h-52.4zm104.7-.6c-4.4 1.8-8.8 2.8-13.4 2.8-6.4 0-11.7-1.7-16-5.2-2.7-2.2-4.6-4.9-5.7-8.1-1.1-3.3-1.6-7.9-1.6-13.8V83.6h-20c2.3-1 4.3-1.9 6-2.8 1.7-.9 3.3-1.7 4.8-2.6 1.5-.9 2.9-1.8 4.4-2.8 1.5-1 3.2-2.2 5.1-3.6 4.8-3.6 9.2-7.2 13.1-10.9 1.6-1.5 3-2.9 4.3-4.1 1.2-1.2 2.4-2.5 3.6-3.9 1.1-1.4 2.3-2.8 3.4-4.4 1.1-1.6 2.4-3.4 4-5.6V76h20.5l-4.1 7.5h-16.4v46.9c0 6.2 1 10.6 3.1 13.3 2.1 2.7 5.5 4 10.4 4 1.5 0 2.9-.1 4.2-.3 1.3-.2 3-.7 5-1.5l1 1.3c-6.1 4.5-11.3 7.6-15.7 9.5m73.1.6v-1.9c3-.3 5.1-1.2 6.1-2.8s1.5-4.5 1.5-9.1v-42.9c0-2.9-.1-5.1-.4-6.6-.3-1.5-.8-2.8-1.7-4-.8-1.1-1.8-1.9-3.1-2.6-1.3-.6-2.7-1-4.1-1-1.9 0-3.8.5-5.8 1.4-2 .9-4.3 2.5-6.8 4.6v51.9c0 1.3.1 2.4.2 3.2.1.9.2 1.6.3 2.1.1.5.3 1.1.5 1.6.5 1.2 1.3 2.1 2.3 2.7 1 .6 2.4 1 4.4 1.2v1.9h-49.2v-1.9c3.1-.2 5.5-.6 7-1.1 1.5-.5 2.8-1.3 3.7-2.5.9-1.2 1.5-2.8 1.8-4.9.3-2.1.5-5.6.5-10.7V69.7c0-4.9-.2-8.4-.6-10.8-.4-2.3-1.2-4.3-2.4-6.1-1.2-1.6-2.6-2.8-4.1-3.5-1.6-.7-3.8-1.1-6.6-1.2l-.2-1.8c2.3-.4 4.3-.8 6-1.2 1.7-.4 3.4-.8 4.9-1.1 1.6-.4 3.2-.8 4.9-1.2 1.7-.4 3.6-.9 5.7-1.5 2.3-.6 4.2-1.2 5.9-1.6 1.7-.4 3.3-.9 4.8-1.4 1.5-.5 3.1-1 4.7-1.5s3.5-1.1 5.7-1.9V90c1.5-1.3 2.8-2.4 3.9-3.2 1.1-.9 2.1-1.6 2.9-2.3.9-.6 1.7-1.2 2.4-1.8.8-.5 1.6-1.1 2.6-1.8 3.8-2.5 7.3-4.3 10.6-5.4 3.3-1.1 6.7-1.7 10.1-1.7 6 0 10.4 1.8 13.5 5.5 1.5 1.8 2.6 4 3.2 6.6.6 2.5 1 6.1 1 10.6v42.9l.2 4.1c.1 2.4.2 4.1.2 5.1.1 1 .4 2 .9 2.8.6 1.2 1.6 2.1 2.8 2.7 1.2.6 3.1 1 5.6 1.2v1.9h-45.8zm119.6-15.5c-1.8 3.6-4.3 6.8-7.5 9.4-3.2 2.6-7 4.6-11.4 6.1s-9.3 2.2-14.5 2.2c-1.5 0-3-.1-4.5-.2s-3.1-.3-4.8-.6c-1.7-.3-3.6-.7-5.7-1.1-2.1-.5-4.5-1.1-7.3-2-1.8-.5-3.3-1-4.5-1.3-1.1-.3-2.2-.6-3.2-1-1-.3-1.9-.6-2.8-1-.9-.3-2-.8-3.3-1.3l-1.6-32.3h1.6c2.6 6 5.4 11.3 8.5 16.2 3.1 4.8 6.3 8.9 9.7 12.3 3.4 3.4 6.9 5.9 10.4 7.7 3.5 1.8 7 2.7 10.5 2.7 3.6 0 6.4-1.1 8.6-3.3 2.2-2.2 3.2-5 3.2-8.5 0-3.6-1.1-6.5-3.3-8.8-2.2-2.3-6.2-4.4-11.9-6.3l-8-2.8c-10.4-3.6-17.8-7.5-22.2-11.8-4.4-4.3-6.7-9.4-6.7-15.4 0-3.8.9-7.3 2.7-10.6 1.8-3.3 4.2-6.1 7.3-8.5 3.1-2.4 6.7-4.3 11-5.6 4.2-1.4 8.8-2 13.8-2 4.3 0 8.7.3 13.2 1 4.4.6 9.7 1.8 15.7 3.6l1.6 26.6h-1.6c-1.7-4.2-3.8-8.1-6.2-11.7-2.4-3.6-4.9-6.7-7.6-9.3-2.7-2.6-5.5-4.6-8.3-6.1-2.8-1.5-5.5-2.2-8.1-2.2-3.1 0-5.8 1.1-8 3.2s-3.3 4.7-3.3 7.7c0 6.5 5.1 11.4 15.4 14.8l11 3.6c8.7 2.8 14.9 6.2 18.8 10.1 3.9 3.9 5.8 8.8 5.8 14.6.2 4.3-.7 8.3-2.5 11.9m45.5-83.4c-.9 2.1-2.2 3.9-3.7 5.4-1.6 1.5-3.4 2.7-5.5 3.7-2.1.9-4.4 1.4-6.7 1.4-2.4 0-4.6-.5-6.7-1.4-2.1-.9-3.9-2.1-5.4-3.7-1.6-1.5-2.8-3.3-3.7-5.4-.9-2.1-1.4-4.4-1.4-6.7 0-2.4.5-4.6 1.4-6.7.9-2.1 2.1-3.9 3.7-5.4 1.5-1.6 3.3-2.8 5.4-3.7 2.1-.9 4.4-1.4 6.7-1.4 2.4 0 4.6.5 6.7 1.4 2.1.9 3.9 2.1 5.5 3.7 1.6 1.5 2.8 3.3 3.7 5.4.9 2.1 1.4 4.4 1.4 6.7-.1 2.3-.5 4.6-1.4 6.7m-40.4 98.9v-1.9c2.9-.2 5.1-.6 6.4-1.1 1.4-.5 2.5-1.3 3.3-2.5.9-1.2 1.5-2.8 1.8-4.9.3-2.1.5-5.6.5-10.7v-26.6c0-2.4-.1-4.5-.2-6.3-.1-1.8-.3-3.3-.6-4.6-.3-1.3-.6-2.4-1-3.4s-.9-1.9-1.5-2.8c-1.2-1.5-2.6-2.6-4.1-3.3-1.6-.7-3.8-1.2-6.6-1.4l-.2-1.6c2.2-.4 4-.8 5.6-1.2 1.6-.4 3.1-.8 4.6-1.2 1.5-.4 3.2-.9 5-1.4 1.8-.5 3.9-1.1 6.4-1.9 2.5-.8 4.6-1.4 6.3-1.9 1.7-.5 3.4-1 4.9-1.5l4.5-1.5c1.5-.5 3.3-1.2 5.4-1.9v62.5c0 2.5 0 4.6.1 6.3.1 1.7.2 3.2.3 4.3s.4 2.1.7 2.8c.3.8.7 1.5 1.1 2.1.9 1.2 2 2 3.3 2.5 1.4.5 3.5.8 6.4 1.1v1.9h-52.4z"/><path class="st0" d="M826.4 157.3v-1.9c3-.3 5.1-1.2 6.1-2.8 1-1.5 1.5-4.5 1.5-9.1v-41.1c0-3.8-.1-6.7-.4-8.6-.3-1.9-.8-3.5-1.6-4.7-.7-1.1-1.7-1.9-3-2.6-1.4-.6-2.8-1-4.2-1-1.9 0-3.7.5-5.6 1.4-1.9.9-4 2.5-6.4 4.6v52c0 2.3.1 4.1.3 5.6.2 1.5.6 2.6 1.1 3.5.5.9 1.3 1.5 2.3 1.9 1 .4 2.3.7 3.9.8v1.9h-43.7v-1.9c1.5-.1 2.8-.4 3.7-.8 1-.4 1.7-1.1 2.3-1.9.5-.9.9-2 1.1-3.5.2-1.5.3-3.3.3-5.6v-41.1c0-3.7-.1-6.4-.4-8.2-.3-1.8-.8-3.4-1.7-4.8-.6-1.2-1.7-2.1-3-2.8-1.4-.6-2.8-1-4.5-1-1.8 0-3.7.4-5.4 1.3-1.8.9-3.8 2.4-6.1 4.5v52c0 2.3.1 4.1.3 5.6.2 1.5.6 2.6 1.1 3.5.5.9 1.3 1.5 2.4 1.9 1 .4 2.3.7 3.8.8v1.9h-49.4v-1.9c3.1-.2 5.5-.6 7-1s2.8-1.3 3.7-2.5c1-1.2 1.6-2.8 1.9-4.9.3-2 .4-5.6.4-10.7v-26.5c0-2.4-.1-4.4-.2-6.2-.1-1.8-.3-3.3-.5-4.6-.2-1.3-.5-2.4-.9-3.4s-.9-1.9-1.5-2.7c-1.2-1.5-2.6-2.6-4.1-3.3-1.6-.7-3.8-1.2-6.6-1.4l-.2-1.6c1.2-.2 2.2-.4 3.2-.6.9-.2 1.6-.4 2.2-.6 2.6-.6 5.1-1.3 7.5-1.9 2.4-.6 4.8-1.2 7.1-1.9 2.4-.7 4.9-1.5 7.5-2.3 2.6-.8 5.5-1.7 8.6-2.8L763 74v15.4l2.6-2.6c.8-.8 1.5-1.4 2.3-2 .8-.6 1.5-1.2 2.4-1.8.8-.6 1.8-1.3 3-2 3.8-2.5 7.3-4.3 10.5-5.4 3.2-1.1 6.5-1.6 9.9-1.6 10.8 0 17.1 5.1 19 15.4 1.2-1.1 2.2-2 3.1-2.8.9-.8 1.7-1.5 2.4-2.2.8-.6 1.5-1.2 2.2-1.8.7-.5 1.5-1.1 2.4-1.6 3.5-2.4 6.9-4.1 10.4-5.3 3.5-1.1 6.9-1.7 10.4-1.7 12.4 0 18.7 7.7 18.7 23v42.5l.2 4c.1 2.4.2 4.1.2 5.1.1 1 .4 2 .9 2.8.6 1.2 1.6 2.1 2.8 2.7 1.2.6 3.1 1 5.6 1.2v1.9h-45.6z"/><path class="st0" d="M933.7 92.5c-2.6-6.2-6.2-9.3-10.8-9.3-1.3 0-2.6.3-3.9.8-1.3.5-3.2 1.6-5.6 3.1v64c2.4 2.4 5.1 3.6 8 3.6 5.1 0 9.1-3.2 11.9-9.6 2.8-6.4 4.2-15.3 4.2-26.8.1-11-1.2-19.6-3.8-25.8m31.3 38.6c-2 5.7-4.7 10.6-8.2 14.9-3.5 4.2-7.5 7.5-12.2 9.9-4.7 2.4-9.7 3.6-15.1 3.6-3.2 0-5.9-.4-8.2-1.3-2.3-.9-4.9-2.4-7.7-4.5v14.8c0 2.5 0 4.5.1 6.2.1 1.7.2 3.1.4 4.3.2 1.2.5 2.1.8 2.9.3.7.8 1.4 1.3 2.1 1 1.2 2.3 2 3.9 2.5s4.2.8 7.6 1v1.9h-57.8v-1.9c3.7-.3 6.3-.8 8-1.4 1.6-.6 3-1.6 4.2-3.2 1.1-1.2 1.8-2.8 2.1-4.9.2-.9.4-1.7.5-2.6.1-.9.2-1.9.2-3.1.1-1.2.1-2.7.1-4.5v-57.9c0-2.4-.1-4.5-.2-6.2-.1-1.8-.3-3.3-.5-4.6-.2-1.3-.5-2.4-.9-3.4s-.9-1.9-1.5-2.8c-1.2-1.5-2.6-2.6-4.1-3.3-1.6-.7-3.8-1.2-6.6-1.4l-.2-1.6c2.1-.4 3.9-.8 5.4-1.2 1.6-.4 3.1-.8 4.6-1.2 1.5-.4 3.2-.9 4.9-1.4 1.8-.5 4-1.1 6.5-1.9 2.6-.8 4.7-1.4 6.5-1.9 1.7-.5 3.3-1 4.8-1.5s2.9-1 4.4-1.5c1.5-.5 3.3-1.2 5.3-1.9v10.6c4.4-3.8 8.6-6.5 12.5-8.1 3.9-1.6 7.8-2.4 12-2.4 4.5 0 8.5.9 12.2 2.8 3.7 1.9 6.9 4.5 9.5 8 2.7 3.4 4.7 7.5 6.2 12.2 1.5 4.7 2.2 9.9 2.2 15.7 0 6.4-1 12.5-3 18.2"/><path class="st0" d="M966 157.3v-1.9c2.8-.2 4.9-.6 6.3-1.1 1.4-.5 2.5-1.3 3.5-2.5.8-1.1 1.3-2.7 1.6-4.8.3-2.1.5-5.7.5-10.8V69.7c0-4.9-.2-8.4-.6-10.8-.4-2.3-1.3-4.3-2.6-6.1-1.2-1.6-2.6-2.8-4.1-3.5-1.6-.7-3.7-1.1-6.4-1.2l-.3-1.8c2.2-.4 4-.8 5.6-1.1 1.6-.3 3.1-.7 4.6-1.1 1.5-.4 3.2-.8 4.9-1.2 1.8-.4 3.9-1 6.4-1.6 2.6-.6 4.7-1.2 6.5-1.7 1.7-.5 3.3-1 4.8-1.5s2.9-1 4.4-1.5c1.5-.5 3.3-1 5.5-1.7v101.2c0 2.5 0 4.6.1 6.3.1 1.7.2 3.2.3 4.3.2 1.1.4 2.1.6 2.8.3.8.6 1.5 1.1 2.1.9 1.2 2 2 3.3 2.5 1.4.5 3.5.8 6.4 1.1v1.9H966zm105.3-55.1c0-1.3 0-2.5-.1-3.5s-.1-2-.2-2.9c-.1-.9-.1-1.9-.2-3-.4-5.9-1.5-10.2-3.2-12.9-1.7-2.7-4.2-4-7.5-4-4.5 0-8 2.7-10.3 8-2.3 5.3-3.5 13-3.5 23.1h25v-4.8zm26.8 30c-.8 1.8-1.5 3.4-2.3 4.8-.8 1.4-1.6 2.8-2.5 4.1-.9 1.3-2 2.7-3.2 4.2-3.8 4.5-8.3 8-13.6 10.5-5.3 2.4-11.2 3.7-17.5 3.7-6.1 0-11.7-1.1-17-3.2-5.3-2.1-9.8-5-13.6-8.8-3.8-3.7-6.8-8.1-9-13.2s-3.2-10.6-3.2-16.6c0-6.1 1.1-11.7 3.4-17 2.3-5.3 5.4-9.9 9.4-13.9s8.7-7.1 14-9.3c5.4-2.3 11.1-3.4 17.3-3.4 5.4 0 10.4.8 14.9 2.4 4.5 1.6 8.5 4 12 7s6.3 6.7 8.5 11 3.7 9.1 4.3 14.5h-53.7c.1 20.2 9.1 30.4 27.1 30.4 6.8 0 12.6-1.7 17.4-5 1.8-1.2 3.3-2.4 4.4-3.7 1.1-1.2 2.4-3.1 4.1-5.6l1.5.6c-1.1 2.6-2 4.8-2.7 6.5"/></svg>