<?xml version="1.0" encoding="UTF-8"?>
<svg width="133px" height="32px" viewBox="0 0 133 32" version="1.1" xmlns="http://www.w3.org/2000/svg" xmlns:xlink="http://www.w3.org/1999/xlink">
    <!-- Generator: Sketch 54.1 (76490) - https://sketchapp.com -->
    <title>Combined Shape</title>
    <desc>Created with Sketch.</desc>
    <g id="Page-1" stroke="none" stroke-width="1" fill="none" fill-rule="evenodd">
        <path d="M7.60765964,23.2441406 C3.30316361,23.2441406 0.634765625,20.5976562 0.634765625,15.9492188 C0.634765625,11.3007812 3.31290229,8.6640625 7.60765964,8.6640625 C11.3180963,8.6640625 14.1228357,11.0859375 14.1325744,14.5820312 L10.1786708,14.5820312 C10.081284,12.9804688 9.03924542,11.9160156 7.60765964,11.9160156 C5.91312953,11.9160156 4.84187486,13.4199219 4.84187486,15.9394531 C4.84187486,18.4882812 5.90339085,19.9921875 7.61739831,19.9921875 C9.03924542,19.9921875 10.0715454,18.9472656 10.1981482,17.3164062 L14.1520518,17.3164062 C14.1325744,20.8320312 11.3960057,23.2441406 7.60765964,23.2441406 Z M22.4494061,8.6640625 C26.7928568,8.6640625 29.5294256,11.4570312 29.5294256,15.9589844 C29.5294256,20.4609375 26.7928568,23.2441406 22.4494061,23.2441406 C18.0962167,23.2441406 15.3693866,20.4609375 15.3693866,15.9589844 C15.3693866,11.4570312 18.1059554,8.6640625 22.4494061,8.6640625 Z M22.4494061,11.9648438 C20.72566,11.9648438 19.5764959,13.5175781 19.5764959,15.9589844 C19.5764959,18.390625 20.7159213,19.9433594 22.4494061,19.9433594 C24.1828909,19.9433594 25.3223163,18.390625 25.3223163,15.9589844 C25.3223163,13.5175781 24.1731523,11.9648438 22.4494061,11.9648438 Z M31.1363076,8.90820312 L37.1450724,8.90820312 C41.4106137,8.90820312 43.9134541,11.3398438 43.9134541,15.8515625 C43.9134541,20.3632812 41.400875,23 37.1450724,23 L31.1363076,23 L31.1363076,8.90820312 Z M35.2655074,12.1992188 L35.2655074,19.7089844 L36.5607517,19.7089844 C38.6253516,19.7089844 39.7063449,18.4492188 39.7063449,15.8515625 C39.7063449,13.4785156 38.5377035,12.1992188 36.5607517,12.1992188 L35.2655074,12.1992188 Z M55.4343112,19.7089844 L55.4343112,23 L45.5203361,23 L45.5203361,8.90820312 L55.4343112,8.90820312 L55.4343112,12.1992188 L49.649536,12.1992188 L49.649536,14.4746094 L55.07398,14.4746094 L55.07398,17.4433594 L49.649536,17.4433594 L49.649536,19.7089844 L55.4343112,19.7089844 Z M84.0231766,23 L82.3870786,23 L82.3870786,12.140625 L82.3189078,12.140625 L77.8391156,22.9023438 L76.3588364,22.9023438 L71.8790442,12.140625 L71.8108734,12.140625 L71.8108734,23 L70.1747754,23 L70.1747754,8.90820312 L72.2101592,8.90820312 L77.0600213,20.6660156 L77.1379307,20.6660156 L81.9877927,8.90820312 L84.0231766,8.90820312 L84.0231766,23 Z M92.680862,8.67382812 C96.6639817,8.67382812 99.1570834,11.4863281 99.1570834,15.9589844 C99.1570834,20.4316406 96.6639817,23.234375 92.680862,23.234375 C88.6977424,23.234375 86.2046406,20.4316406 86.2046406,15.9589844 C86.2046406,11.4863281 88.6977424,8.67382812 92.680862,8.67382812 Z M92.680862,10.2949219 C89.8079518,10.2949219 88.0062962,12.4824219 88.0062962,15.9589844 C88.0062962,19.4257812 89.8079518,21.6132812 92.680862,21.6132812 C95.5537723,21.6132812 97.3554279,19.4257812 97.3554279,15.9589844 C97.3554279,12.4824219 95.5537723,10.2949219 92.680862,10.2949219 Z M101.338547,8.90820312 L106.061807,8.90820312 C110.229961,8.90820312 112.693847,11.515625 112.693847,15.9492188 C112.693847,20.3925781 110.2397,23 106.061807,23 L101.338547,23 L101.338547,8.90820312 Z M103.09151,10.4902344 L103.09151,21.4179688 L105.944943,21.4179688 C109.129491,21.4179688 110.90193,19.4648438 110.90193,15.96875 C110.90193,12.4433594 109.139229,10.4902344 105.944943,10.4902344 L103.09151,10.4902344 Z M123.571951,21.4179688 L123.571951,23 L114.865572,23 L114.865572,8.90820312 L123.571951,8.90820312 L123.571951,10.4902344 L116.618534,10.4902344 L116.618534,15.0117188 L123.21162,15.0117188 L123.21162,16.5742188 L116.618534,16.5742188 L116.618534,21.4179688 L123.571951,21.4179688 Z M130.640284,2 L122.662359,2 L122.662359,0 L132.634766,0 L132.634766,10 L130.640284,10 L130.640284,2 Z M130.640284,30 L130.640284,22 L132.634766,22 L132.634766,32 L122.662359,32 L122.662359,30 L130.640284,30 Z M63.8251568,30 L71.8030825,30 L71.8030825,32 L61.8306754,32 L61.8306754,22 L63.8251568,22 L63.8251568,30 Z M63.8251568,2 L63.8251568,10 L61.8306754,10 L61.8306754,0 L71.8030825,0 L71.8030825,2 L63.8251568,2 Z" id="Combined-Shape" fill="#354E68" fill-rule="nonzero"></path>
    </g>
</svg>