<svg version="1.1" id="Layer_4" xmlns="http://www.w3.org/2000/svg" xmlns:xlink="http://www.w3.org/1999/xlink"
viewBox="20 22 280 130" xml:space="preserve">
<g>
	<g>
		<g>
			<g>
				<polygon fill="#E31837" points="64.3,146.4 24.2,146.4 24.2,28.7 64.3,28.7 64.3,41.1 36.5,41.1 36.5,134.1 64.3,134.1 				"/>
				<polygon fill="#E31837" points="294.7,146.4 254.6,146.4 254.6,134.1 282.4,134.1 282.4,41.1 254.6,41.1 254.6,28.7 294.7,28.7 
									"/>
			</g>
			<g>
				<path d="M124.1,86.6c0-7.2-1.9-9.4-3.4-11c-2.5-2.6-6.5-4.2-10.6-4.2c-1.7,0-8.7,0.2-13.9,7.4v-6.2H79.9v2.2h6.7v38h-4.4h-2.3
					h-4.4V72.7H58.8v2.2h7v38h-7.1v2.2h21.1h2.3h21v-2.2h-6.9v-18c0.1-7.8,0.2-14,5-18c2-1.5,4.3-2.5,6.6-2.5c1.5,0,5,0.5,6.1,4.7
					c0.2,1,0.3,1.8,0.4,6.1v27.6h-6.5v2.2h23v-2.2H124L124.1,86.6L124.1,86.6z"/>
				<path d="M192,113.2c-2.4,0-2.4-2.5-2.4-5.9V85.8c0-3.9,0-7.3-2.9-10.3c-2.6-2.5-7.4-4.1-12.3-4.1c-10.4,0-17,5.9-17,10.9
					c0,2.6,1.7,4.8,4.5,4.8s4.7-2.2,4.7-4.4c0-2.4-2.2-3.7-2.2-4.9c0-1.5,3.8-4.3,8.4-4.3c6.8,0,7,4.8,7.2,7.8v10.3
					c-3.8,0-9.4,0.4-14,1.8c-6.9,2.2-11.6,6.6-11.6,12.8c0,0.5,0,1,0.1,1.5c-0.4,1.9-1.4,5.3-6.1,5.3c-5.1,0-5-4.3-5-7.5V74.8h11
					v-2.2h-11v-17H142c-0.5,2.2-1.2,5.2-5.2,10.1c-2.6,3.2-5.6,6.1-9.5,7.7v1.4h6.7v25.9c0,5.2,0,7.5,0.8,9.4
					c1.5,4.1,5.6,6.1,10.7,6.1c6.1,0,8.9-2.7,10.2-5.3c1.9,3.4,5.8,5.3,10.4,5.3c7,0,11.5-4,13.8-8.5c0.2,2.1,0.5,4.6,2.9,6.6
					c1.5,1.2,3.7,1.9,6,1.9c4.3,0,6.7-2.4,7.7-3.4l-1.2-1.4C194.5,112,193.4,113.2,192,113.2z M180.1,97.1c-0.2,5.2-0.4,8.8-3.7,12
					c-0.9,0.8-2.9,2.4-5.7,2.4c-3.3,0-6.5-2.2-6.5-7.2c0-8.4,7.9-10.8,15.9-10.9V97.1z"/>
				<path d="M217.2,113.9c-5.3,0-8.1-3-9.2-6.4c-1-2.9-1-6.8-1-10.3c0-4.6,0.1-14.1,1.8-18.1c2-5,6.4-5.8,9.2-5.8
					c5.5,0,8.1,2.6,8.1,3.5c0,0.4-0.2,0.6-0.5,1c-0.8,0.8-2.1,2.5-2.1,4.8c0,2.8,1.8,5.4,4.8,5.4s5.2-2.5,5.2-5.8
					c0-5.1-5.9-11.1-15.4-11.1c-12.1,0-22.4,9.5-22.4,22.8c0,12.1,9.1,22,21.2,22c11.1,0,16.5-7.7,18-15h-2.6
					C230.8,107.4,225.8,113.9,217.2,113.9z"/>
				<path d="M261.2,107.1c-0.3,1.6-1,5.9-6.2,5.9c-5.1,0-5-4.3-5-7.5V74.8h11v-2.2h-11v-17h-1.5c-0.5,2.2-1.2,5.2-5.2,10.1
					c-2.6,3.2-5.6,6.1-9.4,7.7v1.4h6.7v25.9c0,5.2,0,7.5,0.8,9.4c1.5,4.1,5.6,6.1,10.7,6.1c9.5,0,11-6.7,11.5-9.1
					C263.6,107.1,261.2,107.1,261.2,107.1z"/>
				<ellipse cx="69.9" cy="56.8" rx="7" ry="7"/>
			</g>
		</g>
		<g>
			<path fill="#E31837" d="M91.3,146.4V134h3.1v12.4H91.3z"/>
			<path fill="#E31837" d="M109.3,146.4l-4.7-8v8h-2.9V134h3.2l4.5,7.6V134h2.9v12.4H109.3z"/>
			<path fill="#E31837" d="M127,137.5c-0.7-0.6-2.1-1.3-3.2-1.3s-1.7,0.3-1.7,1s0.8,1,1.1,1.1c0.4,0.2,1.9,0.6,2.3,0.8
				c0.3,0.1,1,0.4,1.6,0.9s1.2,1.2,1.2,2.6c0,1.3-0.6,2.3-1.4,2.9c-0.7,0.6-1.8,1.1-3.6,1.1c-1.8,0-3.7-0.7-4.8-1.8l1.4-2.2
				c0.8,0.7,2.2,1.4,3.4,1.4c1.2,0,1.8-0.4,1.8-1.1c0-0.7-0.8-1-1.2-1.1c-0.4-0.2-1.7-0.6-2-0.7c-0.3-0.1-1.1-0.4-1.7-0.9
				s-1.2-1.3-1.2-2.6s0.7-2.3,1.5-2.8c0.7-0.5,1.6-0.9,3.3-0.9c1.9,0,3.6,0.9,4.4,1.6L127,137.5z"/>
			<path fill="#E31837" d="M141.8,134h3.1v7.5c0,1.8-0.3,2.9-1.2,3.8c-0.9,0.9-2.1,1.3-4,1.3s-3.1-0.4-4-1.3c-0.8-0.9-1.2-2-1.2-3.8
				V134h3.1v7.6c0,0.9,0.1,1.3,0.5,1.7s0.9,0.6,1.6,0.6c0.7,0,1.3-0.2,1.6-0.6c0.4-0.4,0.5-0.8,0.5-1.7L141.8,134L141.8,134z"/>
			<path fill="#E31837" d="M158.7,146.4l-2.5-4.5H155v4.5h-3.1V134h4.9c1.3,0,2.5,0.2,3.3,0.8s1.5,1.6,1.5,3c0,1.6-0.8,2.9-2.3,3.5
				l3.1,5.1L158.7,146.4L158.7,146.4z M157.8,136.7c-0.4-0.2-0.8-0.3-1.3-0.3H155v3.2h1.6c0.5,0,1-0.1,1.3-0.3
				c0.3-0.3,0.6-0.7,0.6-1.3C158.4,137.4,158.2,137,157.8,136.7z"/>
			<path fill="#E31837" d="M175.7,146.4L175,144h-4.4l-0.7,2.3h-3L171,134h3.7l4.2,12.4H175.7z M172.8,136.9l-1.5,4.7h3L172.8,136.9z"
				/>
			<path fill="#E31837" d="M192.4,146.4l-4.7-8v8h-2.9V134h3.2l4.5,7.6V134h2.9v12.4H192.4z"/>
			<path fill="#E31837" d="M212.7,144.5c0,0-1.3,2.1-4.7,2.1s-6.1-2.2-6.1-6.4s3-6.4,6.2-6.4s4.6,2,4.6,2.1l-1.5,2.1c0,0-1-1.5-2.9-1.5
				s-3.2,1.4-3.2,3.6c0,2.2,1.3,3.7,3.2,3.7s2.9-1.5,2.9-1.5L212.7,144.5z"/>
			<path fill="#E31837" d="M219.1,146.4V134h8.3v2.4h-5.3v2.4h4.9v2.4h-4.9v2.7h5.4v2.5L219.1,146.4L219.1,146.4z"/>
		</g>
	</g>
</g>
</svg>
