<?xml version="1.0" encoding="utf-8"?>
<!-- Generator: Adobe Illustrator 23.0.3, SVG Export Plug-In . SVG Version: 6.00 Build 0)  -->
<svg version="1.1" id="Layer_1" xmlns="http://www.w3.org/2000/svg" xmlns:xlink="http://www.w3.org/1999/xlink"
	 viewBox="173 180 420 200" style="enable-background:new 0 0 792 612;" xml:space="preserve">
<style type="text/css">
	.st0{fill:#D50032;}
	.st1{fill:#727575;}
	.st2{fill:#EAAA00;}
	.st3{fill:#FCB813;}
</style>
<g>
	<path class="st0" d="M362.38,287.24h-9.44v29.68h-5.53v-29.68h-9.96v-4.7h26.45L362.38,287.24z"/>
	<path class="st0" d="M368.63,316.92v-34.38H387l-1.67,4.7h-11.22v9.76h11.16l-1.74,4.7h-9.43v10.54h12.94v4.7H368.63z"/>
	<path class="st0" d="M415.63,316.92l-3.44-8.76h-12.73l-3.23,8.76h-5.43l13.3-34.48h3.81l13.62,34.48H415.63z M407.24,294.39
		c-0.57-1.72-1.04-3.13-1.25-4.23h-0.05c-0.31,1.2-0.73,2.56-1.36,4.17l-3.39,9.23h9.23L407.24,294.39z"/>
	<path class="st0" d="M438.46,317.44c-10.69,0-17.01-7.51-17.01-17.32c0-9.96,7.2-17.89,18.15-17.89c3.81,0,6.94,0.89,8.87,1.93
		l-0.1,5.22c-2.71-1.67-5.37-2.5-8.71-2.5c-7.88,0-12.26,5.84-12.26,12.83c0,7.41,4.49,12.89,11.89,12.89
		c3.03,0,5.84-0.89,8.29-2.24l1.57,4.07C445.56,316.56,442.01,317.44,438.46,317.44z"/>
	<path class="st0" d="M478.11,316.92v-15.08h-17.37v15.08h-5.48v-34.38h5.48v14.5h17.37v-14.5h5.48v34.38H478.11z"/>
	<path class="st0" d="M489.71,316.92v-34.38h18.36l-1.67,4.7h-11.22v9.76h11.16l-1.73,4.7h-9.44v10.54h12.94v4.7H489.71z"/>
	<path class="st0" d="M532.4,316.92c-5.37-8.87-8.03-13.56-9.39-13.93h-3.18v13.93h-5.48v-34.38h8.56c8.61,0,11.9,4.33,11.9,9.6
		c0,4.7-3.08,7.72-6.47,9.08v0.05c1.41,0.73,5.06,6.83,10.43,15.65H532.4z M522.96,287.29h-3.13v11.42h3.23c3.55,0,6.16-2.71,6.16-6
		C529.22,289.74,527.4,287.29,522.96,287.29z"/>
	<path class="st0" d="M551.42,317.44c-4.75,0-7.98-1.57-10.17-2.97l2.3-4.12c1.72,1.2,4.43,2.56,7.67,2.56c2.82,0,6.1-1.25,6.1-4.38
		c0-5.27-8.29-6.31-12.47-10.96c-1.41-1.56-2.35-3.5-2.35-6.16c0-5.01,3.86-9.18,10.8-9.18c3.65,0,6.36,0.94,8.14,1.88l-0.05,5.11
		c-2.35-1.41-5.01-2.4-7.83-2.4c-2.97,0-5.43,1.25-5.43,3.96c0,6.78,15.02,6.57,15.02,17.11
		C563.15,313.69,558.04,317.44,551.42,317.44z"/>
	<path class="st0" d="M568.16,294.77l-2.91-1.36c1.7-3.45,1.84-6.02,1.36-9.61l4.86-0.92C572.29,287.1,571.27,291.32,568.16,294.77z
		"/>
</g>
<g>
	<path class="st1" d="M351.82,341.33h-1.2v7.2h-3.23v-20.26h4.83c4.33,0,7.13,2.28,7.13,6.43
		C359.35,337.73,357.29,341.33,351.82,341.33z M351.91,331.06h-1.29v7.66h1.41c2.77,0,4-1.57,4-3.94
		C356.03,332.59,354.65,331.06,351.91,331.06z"/>
	<path class="st1" d="M362.95,348.52v-20.26h10.82l-0.98,2.77h-6.61v5.75h6.58v2.77h-6.58v6.21h7.62v2.77H362.95z"/>
	<path class="st1" d="M392.53,348.52l-9.53-12.45c-0.98-1.29-1.54-2.09-2.03-2.92h-0.06c0.06,0.68,0.06,1.66,0.06,2.64v12.73h-3.2
		v-20.26h3.26l9.16,11.99c1.11,1.45,1.66,2.21,2.12,3.04h0.06c-0.03-0.83-0.06-1.85-0.06-2.83v-12.21h3.23v20.26H392.53z"/>
	<path class="st1" d="M405.22,348.83c-2.8,0-4.7-0.92-6-1.75l1.35-2.43c1.02,0.71,2.61,1.51,4.52,1.51c1.66,0,3.6-0.74,3.6-2.58
		c0-3.11-4.89-3.72-7.35-6.46c-0.83-0.92-1.38-2.06-1.38-3.63c0-2.95,2.27-5.41,6.36-5.41c2.15,0,3.75,0.55,4.8,1.11l-0.03,3.01
		c-1.38-0.83-2.95-1.41-4.61-1.41c-1.75,0-3.2,0.74-3.2,2.34c0,4,8.85,3.87,8.85,10.08C412.14,346.61,409.12,348.83,405.22,348.83z"
		/>
	<path class="st1" d="M415.8,348.52v-20.26h3.23v20.26H415.8z"/>
	<path class="st1" d="M425.66,331.03c1.81-1.85,4.37-2.95,7.35-2.95c3.2,0,5.87,1.17,7.69,3.17c1.66,1.84,2.55,4.33,2.55,7.19
		c0,3.04-1.05,5.72-2.92,7.56c-1.85,1.81-4.34,2.83-7.32,2.83c-2.86,0-5.26-0.89-7.04-2.49c-2.03-1.88-3.2-4.61-3.2-7.78
		C422.77,335.54,423.82,332.9,425.66,331.03z M433.01,330.87c-4.09,0-6.83,2.89-6.83,7.62c0,4.7,2.74,7.59,6.83,7.59
		c4.06,0,6.79-2.89,6.79-7.59C439.81,333.95,437.26,330.87,433.01,330.87z"/>
	<path class="st1" d="M461.76,348.52l-9.53-12.45c-0.98-1.29-1.54-2.09-2.03-2.92h-0.06c0.06,0.68,0.06,1.66,0.06,2.64v12.73H447
		v-20.26h3.26l9.16,11.99c1.11,1.45,1.66,2.21,2.12,3.04h0.06c-0.03-0.83-0.06-1.85-0.06-2.83v-12.21h3.23v20.26H461.76z"/>
	<path class="st1" d="M481.74,341.33h-1.2v7.2h-3.23v-20.26h4.83c4.33,0,7.13,2.28,7.13,6.43
		C489.27,337.73,487.21,341.33,481.74,341.33z M481.83,331.06h-1.29v7.66h1.41c2.77,0,4-1.57,4-3.94
		C485.95,332.59,484.57,331.06,481.83,331.06z"/>
	<path class="st1" d="M492.87,348.52v-20.26h3.2v17.49h7.41v2.77H492.87z"/>
	<path class="st1" d="M519.55,348.52l-2.03-5.17h-7.5l-1.91,5.17h-3.2l7.84-20.32H515l8.02,20.32H519.55z M514.6,335.24
		c-0.34-1.02-0.61-1.85-0.74-2.49h-0.03c-0.18,0.71-0.43,1.51-0.8,2.46l-2,5.44h5.44L514.6,335.24z"/>
	<path class="st1" d="M540.64,348.52l-9.53-12.45c-0.98-1.29-1.54-2.09-2.03-2.92h-0.06c0.06,0.68,0.06,1.66,0.06,2.64v12.73h-3.2
		v-20.26h3.26l9.16,11.99c1.11,1.45,1.66,2.21,2.12,3.04h0.06c-0.03-0.83-0.06-1.85-0.06-2.83v-12.21h3.23v20.26H540.64z"/>
</g>
<path class="st0" d="M339.61,241.94c3.08-3.13,7.41-5.01,12.47-5.01c5.43,0,9.96,1.98,13.04,5.37c2.82,3.13,4.33,7.36,4.33,12.21
	c0,5.16-1.77,9.7-4.96,12.83c-3.13,3.08-7.36,4.8-12.42,4.8c-4.85,0-8.92-1.51-11.95-4.23c-3.44-3.18-5.43-7.83-5.43-13.2
	C334.7,249.61,336.47,245.12,339.61,241.94z M352.07,241.68c-6.94,0-11.58,4.9-11.58,12.94c0,7.98,4.64,12.89,11.58,12.89
	c6.89,0,11.53-4.9,11.53-12.89C363.6,246.9,359.27,241.68,352.07,241.68z"/>
<path class="st0" d="M400.33,271.62l-16.17-21.13c-1.67-2.19-2.61-3.55-3.44-4.96h-0.1c0.1,1.15,0.1,2.82,0.1,4.49v21.6h-5.43
	v-34.38h5.53l15.55,20.35c1.88,2.45,2.82,3.76,3.6,5.16h0.1c-0.05-1.41-0.1-3.13-0.1-4.8v-20.71h5.48v34.38H400.33z"/>
<path class="st0" d="M435.02,241.94h-9.44v29.68h-5.53v-29.68h-9.96v-4.7h26.45L435.02,241.94z"/>
<path class="st0" d="M456.45,271.62l-3.44-8.76h-12.73l-3.23,8.76h-5.43l13.3-34.48h3.81l13.62,34.48H456.45z M448.05,249.09
	c-0.57-1.72-1.04-3.13-1.25-4.23h-0.05c-0.31,1.2-0.73,2.56-1.36,4.17l-3.39,9.23h9.23L448.05,249.09z"/>
<path class="st0" d="M484.72,271.62c-5.37-8.87-8.03-13.56-9.39-13.93h-3.18v13.93h-5.48v-34.38h8.56c8.61,0,11.89,4.33,11.89,9.6
	c0,4.7-3.08,7.72-6.47,9.08v0.05c1.41,0.73,5.06,6.83,10.43,15.65H484.72z M475.28,241.99h-3.13v11.42h3.23c3.55,0,6.16-2.71,6.16-6
	C481.54,244.44,479.71,241.99,475.28,241.99z"/>
<path class="st0" d="M495.41,271.62v-34.38h5.48v34.38H495.41z"/>
<path class="st0" d="M511.64,241.94c3.08-3.13,7.41-5.01,12.47-5.01c5.43,0,9.96,1.98,13.04,5.37c2.82,3.13,4.33,7.36,4.33,12.21
	c0,5.16-1.77,9.7-4.96,12.83c-3.13,3.08-7.36,4.8-12.42,4.8c-4.85,0-8.92-1.51-11.95-4.23c-3.44-3.18-5.43-7.83-5.43-13.2
	C506.73,249.61,508.5,245.12,511.64,241.94z M524.1,241.68c-6.94,0-11.58,4.9-11.58,12.94c0,7.98,4.64,12.89,11.58,12.89
	c6.89,0,11.53-4.9,11.53-12.89C535.63,246.9,531.3,241.68,524.1,241.68z"/>
<g>
	<g>
		<path class="st2" d="M273.36,202.65c-28.53,6.04-28.43,19.43-26.15,26.42C252.7,217.8,261.81,208.39,273.36,202.65z"/>
		<path class="st2" d="M250.6,233.36c31.19-4.21,30.87-20.87,29.12-28.19C266.39,210.39,256.06,220.73,250.6,233.36z"/>
	</g>
	<path class="st3" d="M253,239.44"/>
	<g>
		<path class="st0" d="M240.21,267.74c-20.99,7.75-36.74,26.39-40.35,49.04c9.93,18.17,23.52,31.89,32.78,31.89
			c4.05,0,5.17-1.66,6.99-2.53c-11.77-8.95-19.39-23.09-19.39-38.98C220.24,291,228.11,276.66,240.21,267.74z"/>
		<path class="st0" d="M191.24,296.81c0.39,1.21,0.8,2.42,1.23,3.62c0.04,0.11,0.08,0.23,0.12,0.34c0.3,0.82,0.62,1.63,0.94,2.44
			c9.78-28.37,36.73-48.82,68.38-48.82c19.24,0,38.69,7.67,53.35,21.03c0.19,0.17,0.36,0.35,0.55,0.53c0.06-1.13,0.1-2.26,0.1-3.37
			c0-5.95-0.83-11.37-2.42-16.17c-0.4-1.2-0.84-2.36-1.34-3.48c-0.49-1.12-1.03-2.19-1.61-3.23c-0.58-1.03-1.21-2.02-1.88-2.97
			c-0.34-0.47-0.68-0.93-1.04-1.39c-3.94-4.95-9.19-8.53-15.57-10.44c-3.48-1.04-7.29-1.58-11.4-1.58c-6.13,0-11.76,0.7-16.68,2.26
			c-0.1,0.03-0.2,0.06-0.29,0.1c-1.39,0.4-2.74,0.84-4.03,1.32c-2.72,0.87-5.51,1.62-8.14,1.62c-2.63,0-5.42-0.75-8.14-1.62
			c-1.29-0.48-2.63-0.92-4.03-1.32c-0.1-0.03-0.2-0.07-0.29-0.1c-4.92-1.56-10.55-2.26-16.68-2.26c-4.12,0-7.93,0.54-11.4,1.58
			c-6.38,1.91-11.63,5.48-15.57,10.44c-0.36,0.45-0.71,0.91-1.04,1.39c-0.67,0.95-1.3,1.94-1.88,2.97
			c-0.58,1.03-1.12,2.11-1.61,3.23c-0.49,1.12-0.94,2.28-1.34,3.48c-1.59,4.79-2.42,10.22-2.42,16.17c0,1.21,0.05,2.43,0.12,3.65
			c0.02,0.37,0.06,0.75,0.09,1.12c0.06,0.87,0.14,1.75,0.24,2.62c0.05,0.41,0.1,0.81,0.15,1.22c0.12,0.89,0.25,1.78,0.39,2.68
			c0.06,0.35,0.11,0.7,0.18,1.06c0.2,1.11,0.42,2.23,0.67,3.35c0.03,0.12,0.05,0.24,0.07,0.36c0.59,2.64,1.31,5.27,2.14,7.88
			C191.18,296.61,191.21,296.71,191.24,296.81z"/>
	</g>
	<path class="st3" d="M251.51,238.44"/>
	<g>
		
			<ellipse transform="matrix(0.0166 -0.9999 0.9999 0.0166 -39.6627 571.6078)" class="st0" cx="270.77" cy="305.97" rx="38.34" ry="38.34"/>
	</g>
</g>
</svg>
