<svg viewBox="0 0 81 36" version="1.1" xmlns="http://www.w3.org/2000/svg" xmlns:xlink="http://www.w3.org/1999/xlink" class="logo-text-svg">
    <defs>
        <polygon id="path-1" points="3.85312273 15.7595512 0 15.7595512 0 0.168802304 7.70624546 0.168802304 7.70624546 15.7595512 3.85312273 15.7595512"></polygon>
        <polygon id="path-3" points="0.206397358 15.7595512 8.03576004 15.7595512 8.03576004 0.168872347 0.206397358 0.168872347 0.206397358 15.7595512"></polygon>
        <polygon id="path-5" points="7.18372702 15.1991766 7.18372702 0.0286823833 0.0543295542 0.0286823833 0.0543295542 15.1991766 7.18372702 15.1991766"></polygon>
    </defs>

    <g stroke="none" stroke-width="1" fill="none" fill-rule="evenodd">
        <g>
            <g transform="translate(1.000000, 1.000000)">
                <g transform="translate(0.000000, 0.181445)" fill="#000000">
                    <path fill="#000000" d="M2.55503445,6.83649333 L3.46167177,6.83649333 C4.84223313,6.83649333 5.35736797,6.31117495 5.35736797,4.50407975 C5.35736797,2.69698454 4.84223313,2.17201637 3.46167177,2.17201637 L2.55503445,2.17201637 L2.55503445,6.83649333 Z M2.55503445,15.1992116 L-3.43423235e-05,15.1992116 L-3.43423235e-05,0.0287174045 L3.58530413,0.0287174045 C6.4491104,0.0287174045 7.91209334,1.26846877 7.91209334,4.50407975 C7.91209334,6.941557 6.98485063,7.92915555 6.11942411,8.32839751 L8.28299042,15.1992116 L5.68705427,15.1992116 L3.87377964,8.91640388 C3.54409334,8.95877956 3.00835311,8.9797923 2.55503445,8.9797923 L2.55503445,15.1992116 Z"></path>
                </g>
                <path d="M12.0335498,11.6404598 C12.0335498,12.7751475 12.3632361,13.3214786 13.3935058,13.3214786 C14.4237755,13.3214786 14.7534618,12.7751475 14.7534618,11.6404598 L14.7534618,3.95014903 C14.7534618,2.81546134 14.4237755,2.26913023 13.3935058,2.26913023 C12.3632361,2.26913023 12.0335498,2.81546134 12.0335498,3.95014903 L12.0335498,11.6404598 Z M9.47882444,3.88711082 C9.47882444,1.74381186 10.7148046,0.000105063675 13.3935058,0.000105063675 C16.0722069,0.000105063675 17.3081871,1.74381186 17.3081871,3.88711082 L17.3081871,11.703498 C17.3081871,13.846797 16.0722069,15.590854 13.3935058,15.590854 C10.7148046,15.590854 9.47882444,13.846797 9.47882444,11.703498 L9.47882444,3.88711082 Z" fill="#000000"></path>
                <polygon fill="#000000" points="20.4407221 2.47936264 17.9680748 2.47936264 17.9680748 0.209987265 25.4680947 0.209987265 25.4680947 2.47936264 22.9954474 2.47936264 22.9954474 15.3804815 20.4407221 15.3804815"></polygon>
                <polygon fill="#000000" points="37.2127912 0.209987265 37.2127912 15.3804815 34.9877521 15.3804815 34.9877521 3.52964918 34.9461979 3.52964918 32.6387373 15.3804815 31.4024136 15.3804815 29.0946096 3.52964918 29.0533988 3.52964918 29.0533988 15.3804815 26.8280163 15.3804815 26.8280163 0.209987265 30.1866954 0.209987265 31.9999701 9.07701122 32.0411808 9.07701122 33.8544555 0.209987265"></polygon>
                <path d="M41.8697818,9.7495238 L43.9303212,9.7495238 L42.9206569,3.23557596 L42.8794461,3.23557596 L41.8697818,9.7495238 Z M41.0459095,15.3805866 L38.5729189,15.3805866 L41.3134362,0.210092329 L44.4866668,0.210092329 L47.2271841,15.3805866 L44.7545369,15.3805866 L44.3012183,12.018549 L41.4988848,12.018549 L41.0459095,15.3805866 Z" fill="#000000"></path>
                <polygon fill="#000000" points="48.5045125 15.3806216 48.5045125 0.21012735 50.8741327 0.21012735 53.9852037 8.88803669 54.026758 8.88803669 54.026758 0.21012735 56.3342186 0.21012735 56.3342186 15.3806216 54.1088361 15.3806216 50.8535274 5.90422832 50.8123166 5.90422832 50.8123166 15.3806216"></polygon>
                <g id="Group-16" transform="translate(0.000000, 18.042270)">
                    <mask id="mask-2" fill="white">
                        <use xlink:href="#path-1"></use>
                    </mask>
                    <g></g>
                    <path d="M5.15117666,5.44264857 L5.15117666,4.26593542 C5.15117666,2.98415858 4.57422565,2.43782747 3.91485305,2.43782747 C2.88458338,2.43782747 2.55489708,2.98415858 2.55489708,4.11884627 L2.55489708,11.8091571 C2.55489708,12.9438448 2.88458338,13.4901759 3.91485305,13.4901759 C4.84209576,13.4901759 5.15117666,12.9438448 5.15117666,11.9562462 L5.15117666,10.1281383 L7.70624546,10.1281383 L7.70624546,11.8721953 C7.70624546,14.0154942 6.46992185,15.7595512 3.91485305,15.7595512 C1.23649532,15.7595512 -0.000171711614,14.0154942 -0.000171711614,11.8721953 L-0.000171711614,4.05580807 C-0.000171711614,1.9125091 1.23649532,0.168802304 3.91485305,0.168802304 C6.46992185,0.168802304 7.70624546,2.05959824 7.70624546,4.32897362 L7.70624546,5.44264857 L5.15117666,5.44264857 Z" fill="#000000" mask="url(#mask-2)"></path>
                </g>
                <g transform="translate(9.272427, 18.042270)">
                    <mask id="mask-4" fill="white">
                        <use xlink:href="#path-3"></use>
                    </mask>
                    <g></g>
                    <path d="M2.76112273,11.8092271 C2.76112273,12.9439148 3.09080903,13.4902459 4.1210787,13.4902459 C5.15134838,13.4902459 5.48103467,12.9439148 5.48103467,11.8092271 L5.48103467,4.11891631 C5.48103467,2.98422862 5.15134838,2.43789751 4.1210787,2.43789751 C3.09080903,2.43789751 2.76112273,2.98422862 2.76112273,4.11891631 L2.76112273,11.8092271 Z M0.206397358,4.05587811 C0.206397358,1.91257914 1.44237755,0.168872347 4.1210787,0.168872347 C6.79977986,0.168872347 8.03576004,1.91257914 8.03576004,4.05587811 L8.03576004,11.8722653 C8.03576004,14.0155643 6.79977986,15.7596213 4.1210787,15.7596213 C1.44237755,15.7596213 0.206397358,14.0155643 0.206397358,11.8722653 L0.206397358,4.05587811 Z" fill="#000000" mask="url(#mask-4)"></path>
                </g>
                <polygon fill="#000000" points="29.1974992 18.4210243 29.1974992 33.5915185 26.9724601 33.5915185 26.9724601 21.7406862 26.9309059 21.7406862 24.6234452 33.5915185 23.3871216 33.5915185 21.0793176 21.7406862 21.0381068 21.7406862 21.0381068 33.5915185 18.8127243 33.5915185 18.8127243 18.4210243 22.1714034 18.4210243 23.984678 27.2880482 24.0258888 27.2880482 25.8391635 18.4210243"></polygon>
                <polygon fill="#000000" points="41.7871199 18.4210243 41.7871199 33.5915185 39.5620808 33.5915185 39.5620808 21.7406862 39.5205266 21.7406862 37.2130659 33.5915185 35.9767423 33.5915185 33.6689382 21.7406862 33.6277275 21.7406862 33.6277275 33.5915185 31.402345 33.5915185 31.402345 18.4210243 34.7610241 18.4210243 36.5742987 27.2880482 36.6155095 27.2880482 38.4287841 18.4210243"></polygon>
                <polygon fill="#000000" points="44.1365812 33.5916586 44.1365812 18.4211643 50.9772284 18.4211643 50.9772284 20.6905397 46.6913065 20.6905397 46.6913065 24.5985582 49.9881695 24.5985582 49.9881695 26.8679336 46.6913065 26.8679336 46.6913065 31.3226334 51.2657039 31.3226334 51.2657039 33.5916586"></polygon>
                <path d="M55.4277873,25.2289753 L56.3344247,25.2289753 C57.714986,25.2289753 58.2301209,24.7036569 58.2301209,22.8965617 C58.2301209,21.0894665 57.714986,20.5644983 56.3344247,20.5644983 L55.4277873,20.5644983 L55.4277873,25.2289753 Z M55.4277873,33.5916936 L52.8727185,33.5916936 L52.8727185,18.4211994 L56.458057,18.4211994 C59.3218633,18.4211994 60.7848462,19.6609507 60.7848462,22.8965617 C60.7848462,25.334039 59.8576035,26.3216375 58.992177,26.7208795 L61.1557433,33.5916936 L58.5598072,33.5916936 L56.7465325,27.3088858 C56.4168462,27.3512615 55.881106,27.3722743 55.4277873,27.3722743 L55.4277873,33.5916936 Z" fill="#000000"></path>
                <path d="M67.5024449,23.4849183 L67.5024449,22.3082051 C67.5024449,21.0264283 66.9254939,20.4800972 66.2661213,20.4800972 C65.2358516,20.4800972 64.9061653,21.0264283 64.9061653,22.161116 L64.9061653,29.8514268 C64.9061653,30.9861145 65.2358516,31.5324456 66.2661213,31.5324456 C67.193364,31.5324456 67.5024449,30.9861145 67.5024449,29.9985159 L67.5024449,28.170408 L70.0575137,28.170408 L70.0575137,29.914465 C70.0575137,32.0577639 68.8211901,33.801821 66.2661213,33.801821 C63.5877636,33.801821 62.35144,32.0577639 62.35144,29.914465 L62.35144,22.0980778 C62.35144,19.9547788 63.5877636,18.211072 66.2661213,18.211072 C68.8211901,18.211072 70.0575137,20.101868 70.0575137,22.3712433 L70.0575137,23.4849183 L67.5024449,23.4849183 Z" fill="#000000"></path>
                <g transform="translate(71.775454, 18.392482)">
                    <mask id="mask-6" fill="white">
                        <use xlink:href="#path-5"></use>
                    </mask>
                    <g></g>
                    <polygon fill="#000000" mask="url(#mask-6)" points="0.0543295542 15.1991766 0.0543295542 0.0286823833 6.8953202 0.0286823833 6.8953202 2.29805776 2.60939835 2.29805776 2.60939835 6.20607626 5.90626131 6.20607626 5.90626131 8.47545164 2.60939835 8.47545164 2.60939835 12.9301515 7.18379571 12.9301515 7.18379571 15.1991766"></polygon>
                </g>
            </g>
        </g>
    </g>
</svg>