<?xml version="1.0" encoding="utf-8"?>
<!-- Generator: Adobe Illustrator 22.0.0, SVG Export Plug-In . SVG Version: 6.00 Build 0)  -->
<svg version="1.1" id="Layer_1" xmlns="http://www.w3.org/2000/svg" xmlns:xlink="http://www.w3.org/1999/xlink" x="0px" y="0px"
	 viewBox="0 0 565.9 215.7" style="enable-background:new 0 0 565.9 215.7;" xml:space="preserve">
<style type="text/css">
	.st0{fill:#0B0A0A;}
</style>
<g>
	<path d="M67.9,70h16.7l12.8,32.3l22.9-7.1l-11.7-28.2c4.9-1.7,6.4-2.5,9.4-4.5c5.8-4.1,9.5-11.4,9.5-19c0-6.3-2.5-11.7-7.1-15
		c-2.3-1.7-5.1-3-8.1-3.8c-5.1-1.3-6.4-1.4-19.6-1.4H53.1l-16.5,72h25.5L67.9,70L67.9,70z M71.6,54.3l3.6-15.4h18.7c5.4,0,8,2,8,6
		c0,5.6-4.4,9.4-10.9,9.4H71.6L71.6,54.3z"/>
	<path d="M210,65c0-6.7-2.7-13.4-7.1-17.6c-6-5.9-16.3-8.9-30.4-8.9c-26.4,0-42.4,11.7-42.4,31.2c0,17.3,13.5,27.3,36.7,27.3
		C192.8,97,210,84.3,210,65L210,65z M185.3,65.2c0,10.5-6.7,17.2-17.1,17.2c-8.5,0-13.8-4.8-13.8-12.6c0-9.8,7.1-16.7,17.1-16.7
		C180.2,53.2,185.3,57.6,185.3,65.2L185.3,65.2z"/>
	<path d="M247.6,57.1l-3.8,16.1c-0.2,1.1-0.3,2-0.3,2.9c0,3,2.3,4.6,6.6,4.6c1.2,0,1.9-0.1,3.7-0.5l-3.5,14.9
		c-5.1,0.2-7,0.2-11.5,0.2c-8.7,0-12-0.3-15-1.8c-3-1.5-5-5.1-5-9.1c0-2.5,0.4-5.1,2-12.2l3.5-15.2h-7.7l3.1-14h7.8l4.3-18.9h23.3
		l-4.3,18.9h9.3l-3.2,14H247.6L247.6,57.1z"/>
	<path d="M342.6,95.2l7-30.5c0.2-1,0.3-2.5,0.3-3.7c0-3.9-2.7-6.4-7.1-6.4c-5.1,0-8.9,3.2-10.2,8.7l-7.3,31.7H302l7-30.5
		c0.3-1.6,0.5-2.9,0.5-3.9c0-3.9-2.4-6.1-6.6-6.1c-5.6,0-9.2,3-10.5,8.7l-7.3,31.7h-23.3l12.5-54.6h23.4l-1.7,7.1
		c7.1-6.3,13.5-9.1,21.7-9.1c7.6,0,12.5,2.8,16.4,9.1c3.7-3.2,5-4.2,7.6-5.7c4.2-2.3,8.7-3.4,14-3.4c11.6,0,18.6,5.7,18.6,15.2
		c0,3.3-0.6,8-1.8,12.9L366,95.2H342.6L342.6,95.2z"/>
	<path d="M502,95.2l6-26.3c0.5-2.6,0.9-4.2,0.9-5.4c0-4.9-3.7-8.1-9.2-8.1c-6.5,0-11.5,4.7-13.4,12.7l-6.2,27h-23.3l12.5-54.6h23.4
		l-1.8,7.8c6.2-6.4,14-9.9,23.2-9.9c12.1,0,19.3,6.4,19.3,17.2c0,2.8-0.5,6.1-1.4,9.9l-6.8,29.5H502L502,95.2z"/>
	<path d="M416.1,55.8c9,0,12.9,5.7,11.3,12.4c-1.7,6.9-8.2,12.2-17.2,12.2c-9,0-13-5.4-11.3-12.3C400.6,61.3,407.1,55.7,416.1,55.8
		L416.1,55.8z M458.1,40.7l-21.9-0.1l-1.3,5.3c-3.5-4.8-10.4-7.2-17.6-7.2C399,38.7,383.1,52,379.4,67.7
		c-3.8,15.6,5.9,29.2,24.2,29.2c7.3,0,15.5-2.4,20.7-7.8l0.2,0l-1.4,6l21.8,0.1L458.1,40.7L458.1,40.7z"/>
</g>
<g>
	<path d="M346.8,110.3h6.1l4.8,12.6l5.1-12.6h6.1l3.6,23.7h-6.2l-1.7-13.6h-0.1l-5.7,13.6h-2.4l-5.4-13.6h-0.1l-2,13.6h-6.1
		L346.8,110.3z"/>
	<path d="M392.6,134h-5.7v-1.8h-0.1c-1,1.6-3,2.3-4.9,2.3c-4.8,0-8.1-4-8.1-8.6c0-4.6,3.3-8.6,8.1-8.6c1.9,0,3.8,0.7,5,2.1v-1.6h5.7
		V134z M379.7,125.9c0,2,1.3,3.6,3.7,3.6s3.7-1.6,3.7-3.6c0-2-1.3-3.6-3.7-3.6S379.7,124,379.7,125.9z"/>
	<path d="M407,122c-0.9-0.5-2.1-0.8-3.1-0.8c-0.7,0-1.8,0.3-1.8,1.1c0,1.1,1.8,1.3,2.6,1.4c2.7,0.5,4.7,1.8,4.7,4.8
		c0,4.2-3.9,6-7.6,6c-2.3,0-4.6-0.7-6.5-1.9l2.1-4c1.2,0.8,3.1,1.6,4.5,1.6c0.7,0,1.8-0.3,1.8-1.2c0-1.3-1.8-1.3-3.6-1.8
		s-3.6-1.3-3.6-4.2c0-4,3.6-5.7,7.1-5.7c1.8,0,3.6,0.3,5.3,1L407,122z"/>
	<path d="M418.7,134H413v-11.4h-1.9v-4.7h1.9V113h5.7v4.8h3.2v4.7h-3.2V134z"/>
	<path d="M440.3,126.9h-12c0,2.3,1.2,3.6,3.6,3.6c1.2,0,2.1-0.4,2.7-1.5h5.5c-0.4,1.9-1.6,3.3-3,4.2s-3.3,1.3-5.1,1.3
		c-5.3,0-9.3-3-9.3-8.6c0-5.4,3.7-8.6,8.9-8.6c5.6,0,8.8,3.5,8.8,8.9V126.9z M435,123.6c-0.3-1.5-1.7-2.5-3.2-2.5
		c-1.7,0-3,0.9-3.4,2.5H435z"/>
	<path d="M448.6,120.5L448.6,120.5c1.2-2,3-2.9,5.3-2.9h1.1v5.5c-0.8-0.4-1.5-0.5-2.4-0.5c-3.2,0-4,2.1-4,4.9v6.5h-5.7v-16.1h5.7
		V120.5z"/>
	<path d="M483.6,125.9c0,5.5-4.5,8.6-9.7,8.6c-5.1,0-9.7-3.1-9.7-8.6c0-5.5,4.5-8.6,9.7-8.6S483.6,120.4,483.6,125.9z M470.2,125.9
		c0,2,1.3,3.6,3.7,3.6s3.7-1.6,3.7-3.6c0-2-1.3-3.6-3.7-3.6S470.2,124,470.2,125.9z"/>
	<path d="M492.4,134h-5.7v-11.4h-2v-4.7h2v-2c0-2.2,0.1-3.9,1.6-5.6c1.4-1.7,3.5-2.6,5.6-2.6c0.9,0,1.7,0.2,2.4,0.6v4.9
		c-0.7-0.3-1.3-0.5-2-0.5c-1.5,0-2,0.9-2,2.7v2.6h4v4.7h-4V134z"/>
</g>
<g>
	<path class="st0" d="M309.7,131.3h6.1l4.8,12.6l5.1-12.6h6.1l3.6,23.7h-6.2l-1.7-13.6h-0.1l-5.7,13.6h-2.4l-5.4-13.6h-0.1l-2,13.6
		h-6.1L309.7,131.3z"/>
	<path class="st0" d="M355.4,155h-5.7v-1.8h-0.1c-1,1.6-3,2.3-4.9,2.3c-4.8,0-8.1-4-8.1-8.6c0-4.6,3.3-8.6,8.1-8.6
		c1.9,0,3.8,0.7,5,2.1v-1.6h5.7V155z M342.5,146.9c0,2,1.3,3.6,3.7,3.6s3.7-1.6,3.7-3.6c0-2-1.3-3.6-3.7-3.6
		S342.5,144.9,342.5,146.9z"/>
	<path class="st0" d="M364.9,140.9L364.9,140.9c1.4-1.9,3-2.6,5.2-2.6c4.3,0,6.1,2.7,6.1,6.7v9.9h-5.7v-7.8c0-1.5,0.3-4.2-2.6-4.2
		c-2.3,0-3,1.7-3,3.7v8.3h-5.7v-16.1h5.7V140.9z"/>
	<path class="st0" d="M397.5,155h-5.7v-1.8h-0.1c-1,1.6-3,2.3-4.9,2.3c-4.8,0-8.1-4-8.1-8.6c0-4.6,3.3-8.6,8.1-8.6
		c1.9,0,3.8,0.7,5,2.1v-1.6h5.7V155z M384.7,146.9c0,2,1.3,3.6,3.7,3.6s3.7-1.6,3.7-3.6c0-2-1.3-3.6-3.7-3.6
		S384.7,144.9,384.7,146.9z"/>
	<path class="st0" d="M419,153.4c0,6.8-3.4,9.6-9.3,9.6c-3.7,0-8.7-1.9-9.2-6.2h6.4c0.2,0.6,0.6,1,1.1,1.2c0.5,0.3,1.1,0.4,1.6,0.4
		c3.1,0,3.7-2,3.7-4.6v-0.8c-1.5,1.5-3,2.2-5.1,2.2c-4.7,0-7.9-3.6-7.9-8.2c0-4.7,3.3-8.7,8.3-8.7c1.9,0,3.6,0.6,4.7,2.2h0.1v-1.7
		h5.7V153.4z M406.1,146.8c0,2,1.3,3.6,3.7,3.6s3.7-1.6,3.7-3.6c0-2-1.3-3.6-3.7-3.6S406.1,144.8,406.1,146.8z"/>
	<path class="st0" d="M439.1,147.9h-12c0,2.3,1.2,3.6,3.6,3.6c1.2,0,2.1-0.4,2.7-1.5h5.5c-0.4,1.9-1.6,3.3-3,4.2s-3.3,1.3-5.1,1.3
		c-5.3,0-9.3-3-9.3-8.6c0-5.4,3.7-8.6,8.9-8.6c5.6,0,8.8,3.5,8.8,8.9V147.9z M433.8,144.6c-0.3-1.5-1.7-2.5-3.2-2.5
		c-1.7,0-3,0.9-3.4,2.5H433.8z"/>
	<path class="st0" d="M447.4,140.9L447.4,140.9c1.4-1.8,3.1-2.5,5.1-2.5c2.3,0,4.3,0.9,5.5,3.1c1.1-2,3.3-3.1,5.5-3.1
		c4.1,0,5.5,2.7,5.5,6.4V155h-5.7v-7.7c0-1.7,0.1-4.4-2.4-4.4c-2.6,0-2.7,2.5-2.7,4.4v7.7h-5.7v-7.7c0-1.8,0-4.5-2.5-4.5
		s-2.5,2.7-2.5,4.5v7.7h-5.7v-16.1h5.7V140.9z"/>
	<path class="st0" d="M489.3,147.9h-12c0,2.3,1.2,3.6,3.6,3.6c1.2,0,2.1-0.4,2.7-1.5h5.5c-0.4,1.9-1.6,3.3-3,4.2s-3.3,1.3-5.1,1.3
		c-5.3,0-9.3-3-9.3-8.6c0-5.4,3.7-8.6,8.9-8.6c5.6,0,8.8,3.5,8.8,8.9V147.9z M484,144.6c-0.3-1.5-1.7-2.5-3.2-2.5
		c-1.7,0-3,0.9-3.4,2.5H484z"/>
	<path class="st0" d="M497.6,140.9L497.6,140.9c1.4-1.9,3-2.6,5.2-2.6c4.3,0,6.1,2.7,6.1,6.7v9.9h-5.7v-7.8c0-1.5,0.3-4.2-2.6-4.2
		c-2.3,0-3,1.7-3,3.7v8.3h-5.7v-16.1h5.7V140.9z"/>
	<path class="st0" d="M518.9,155h-5.7v-11.4h-1.9v-4.7h1.9V134h5.7v4.8h3.2v4.7h-3.2V155z"/>
</g>
<g>
	<path d="M333.8,179.9l-1.6,4.1h-6.5l9.1-23.7h6.7l8.9,23.7h-6.6l-1.5-4.1H333.8z M338.1,167.6L338.1,167.6l-2.6,7.5h5.1
		L338.1,167.6z"/>
	<path d="M357.9,169.9L357.9,169.9c1.4-1.9,3-2.6,5.2-2.6c4.3,0,6.1,2.7,6.1,6.7v10h-5.7v-7.8c0-1.5,0.3-4.2-2.6-4.2
		c-2.3,0-3,1.7-3,3.7v8.3h-5.7v-16.1h5.7V169.9z"/>
	<path d="M389.3,184h-5.7v-1.8h-0.1c-1,1.6-3,2.3-4.9,2.3c-4.8,0-8.1-4-8.1-8.6s3.3-8.6,8.1-8.6c1.9,0,3.8,0.7,5,2.1v-1.6h5.7V184z
		 M376.4,175.9c0,2,1.3,3.6,3.7,3.6s3.7-1.6,3.7-3.6c0-2-1.3-3.6-3.7-3.6S376.4,174,376.4,175.9z"/>
	<path d="M397.5,184h-5.7v-26.1h5.7V184z"/>
	<path d="M399,167.9h6.6l4.3,8.3l4.2-8.3h6.5L407.6,192h-6.4l5.5-10.2L399,167.9z"/>
	<path d="M429.3,184h-5.7v-11.4h-1.9v-4.7h1.9V163h5.7v4.8h3.2v4.7h-3.2V184z"/>
	<path d="M440.4,161.7c0,1.8-1.4,3.2-3.2,3.2c-1.8,0-3.2-1.4-3.2-3.2c0-1.8,1.4-3.2,3.2-3.2C439,158.5,440.4,159.9,440.4,161.7z
		 M440.1,184h-5.7v-16.1h5.7V184z"/>
	<path d="M455.5,173.1c-0.8-0.6-1.9-1.1-3-1.1c-2.2,0-3.9,1.7-3.9,3.9c0,2.3,1.7,4,4,4c1,0,2.1-0.4,2.9-1.1v4.8
		c-1.3,0.6-2.6,0.9-4,0.9c-4.8,0-8.8-3.5-8.8-8.4c0-5.2,4-8.8,9-8.8c1.3,0,2.6,0.3,3.8,0.9V173.1z"/>
	<path d="M469.7,172c-0.9-0.5-2.1-0.8-3.1-0.8c-0.7,0-1.8,0.3-1.8,1.1c0,1.1,1.8,1.3,2.6,1.4c2.7,0.5,4.7,1.8,4.7,4.8
		c0,4.2-3.9,6-7.6,6c-2.3,0-4.6-0.7-6.5-1.9l2.1-4c1.2,0.8,3.1,1.6,4.5,1.6c0.7,0,1.8-0.3,1.8-1.2c0-1.3-1.8-1.3-3.6-1.8
		s-3.6-1.3-3.6-4.2c0-4,3.6-5.7,7.1-5.7c1.8,0,3.6,0.3,5.3,1L469.7,172z"/>
</g>
</svg>
