<?xml version="1.0" encoding="utf-8"?>
<!-- Generator: Adobe Illustrator 23.0.0, SVG Export Plug-In . SVG Version: 6.00 Build 0)  -->
<svg version="1.1" id="Layer_1" xmlns="http://www.w3.org/2000/svg" xmlns:xlink="http://www.w3.org/1999/xlink" x="0px" y="0px"
	 viewBox="0 0 747.7 116.3" style="enable-background:new 0 0 747.7 116.3;" xml:space="preserve">
<g id="XMLID_36_">
	<g>
		<linearGradient id="XMLID_2_" gradientUnits="userSpaceOnUse" x1="341.0029" y1="201.98" x2="624.708" y2="-81.725">
			<stop  offset="8.556548e-04" style="stop-color:#23B5AF"/>
			<stop  offset="0.2335" style="stop-color:#29AAA7"/>
			<stop  offset="0.6261" style="stop-color:#309D9E"/>
			<stop  offset="1" style="stop-color:#32999B"/>
		</linearGradient>
		<path id="XMLID_20_" fill="url(#XMLID_2_)" d="M732.7,94c-166.5,67.8-333.1-67.8-499.6,0c0-22.6,0-45.2,0-67.8
			c166.5-67.8,333.1,67.8,499.6,0c-11.1,15.8-22.2,30.7-33.2,44.8C710.5,79.5,721.6,87.2,732.7,94z"/>
		<g id="XMLID_19_">
			<path fill="#FFFFFF" d="M291.4,30.2c2.1-0.3,4.2-0.6,6.2-0.9c0,3.5,0,7,0,10.6c4-0.5,8.1-1,12.1-1.3c0-3.5,0-7,0-10.6
				c2.1-0.2,4.2-0.4,6.2-0.5c0,9.4,0,18.9,0,28.3c-2.1,0.1-4.2,0.3-6.2,0.5c0-4.1,0-8.2,0-12.2c-4,0.4-8.1,0.8-12.1,1.3
				c0,4.1,0,8.2,0,12.2c-2.1,0.3-4.2,0.6-6.2,0.9C291.4,49.1,291.4,39.7,291.4,30.2z"/>
			<path fill="#FFFFFF" d="M331.1,26.8c1.7,0,3.4-0.1,5.2-0.1c4.1,9.4,8.2,18.9,12.3,28.4c-2.3-0.1-4.7-0.1-7-0.1c-0.8-2-1.6-4-2.4-6
				c-3.7,0-7.3,0-11,0.2c-0.8,2-1.6,4.1-2.4,6.1c-2.3,0.1-4.6,0.2-6.9,0.3C322.9,45.9,327,36.3,331.1,26.8z M333.5,35
				c-1.1,3-2.3,5.9-3.4,8.9c2.3-0.1,4.6-0.1,6.9-0.1C335.8,40.9,334.7,37.9,333.5,35z"/>
			<path fill="#FFFFFF" d="M369.9,35.4c-0.6-0.8-1.4-1.4-2.3-1.9c-0.9-0.5-1.9-0.7-3.1-0.8c-1.2-0.1-2.3,0.1-3.3,0.5
				c-1,0.4-1.9,1-2.6,1.8c-0.7,0.8-1.3,1.7-1.7,2.8c-0.4,1.1-0.6,2.3-0.6,3.6c0,1.3,0.2,2.6,0.6,3.7c0.4,1.1,1,2.1,1.7,3
				c0.7,0.9,1.6,1.5,2.5,2c1,0.5,2,0.8,3.1,0.9c1.3,0.1,2.4-0.1,3.4-0.6c1-0.5,1.8-1.1,2.4-2.1c1.7,1.4,3.5,2.9,5.2,4.3
				c-1.2,1.6-2.7,2.7-4.6,3.3c-1.8,0.7-3.7,0.9-5.7,0.8c-2.2-0.2-4.3-0.6-6.1-1.4c-1.9-0.8-3.5-1.9-4.8-3.2c-1.4-1.4-2.4-3-3.2-4.8
				c-0.8-1.9-1.1-3.9-1.1-6.2c0-2.3,0.4-4.3,1.1-6.1c0.8-1.8,1.8-3.3,3.2-4.6c1.4-1.2,3-2.2,4.8-2.7c1.9-0.6,3.9-0.8,6.1-0.7
				c0.8,0.1,1.6,0.2,2.5,0.4c0.9,0.2,1.7,0.5,2.6,0.9c0.8,0.4,1.6,0.9,2.4,1.5c0.8,0.6,1.5,1.3,2.1,2.1
				C373.1,33,371.5,34.2,369.9,35.4z"/>
			<path fill="#FFFFFF" d="M379.1,28.8c2.1,0.2,4.2,0.4,6.2,0.7c0,3.9,0,7.8,0,11.8c3.7-3.5,7.3-7,11-10.4c2.7,0.4,5.4,0.7,8.2,1.1
				c-4.2,3.8-8.4,7.6-12.6,11.5c4.6,5.6,9.1,11.3,13.7,17c-2.9-0.4-5.8-0.8-8.7-1.2c-3.8-5-7.7-9.9-11.5-14.8c0,4.5,0,9,0,13.4
				c-2.1-0.2-4.2-0.4-6.2-0.7C379.1,47.7,379.1,38.3,379.1,28.8z"/>
			<path fill="#FFFFFF" d="M425,40.7c-2.7-0.5-5.4-0.9-8.1-1.3c0-1.8,0-3.7,0-5.5c7.5,1.2,14.9,2.5,22.4,3.9c0,1.8,0,3.7,0,5.5
				c-2.7-0.5-5.4-1-8.1-1.5c0,7.6,0,15.2,0,22.8c-2.1-0.4-4.2-0.7-6.2-1.1C425,55.9,425,48.3,425,40.7z"/>
			<path fill="#FFFFFF" d="M442.5,38.3c2.1,0.4,4.2,0.8,6.2,1.2c0,3.5,0,7,0,10.6c4,0.8,8.1,1.6,12.1,2.4c0-3.5,0-7,0-10.6
				c2.1,0.4,4.2,0.8,6.2,1.2c0,9.4,0,18.9,0,28.3c-2.1-0.4-4.2-0.8-6.2-1.2c0-4.1,0-8.2,0-12.2c-4-0.8-8.1-1.6-12.1-2.4
				c0,4.1,0,8.2,0,12.2c-2.1-0.4-4.2-0.8-6.2-1.2C442.5,57.2,442.5,47.7,442.5,38.3z"/>
			<path fill="#FFFFFF" d="M473.1,44.3c6.4,1.3,12.8,2.6,19.2,3.9c0,1.9,0,3.8,0,5.8c-4.3-0.9-8.7-1.8-13-2.6c0,1.8,0,3.5,0,5.3
				c4.1,0.8,8.2,1.7,12.3,2.5c0,1.9,0,3.8,0,5.8c-4.1-0.8-8.2-1.7-12.3-2.5c0,1.9,0,3.8,0,5.8c4.6,0.9,9.1,1.9,13.7,2.8
				c0,1.9,0,3.8,0,5.8c-6.7-1.3-13.3-2.7-20-4.1C473.1,63.2,473.1,53.8,473.1,44.3z"/>
			<path fill="#FFFFFF" d="M518.5,63.5c0.3,0,0.6,0,1,0c0.3,0,0.7,0,1,0.1c1.3,0.3,2.5,0.7,3.6,1.4c1.1,0.7,2,1.5,2.8,2.5
				c0.8,1,1.4,2.1,1.8,3.3c0.4,1.2,0.6,2.5,0.6,3.7c0,1.5-0.3,2.7-0.8,3.8c-0.5,1.1-1.3,2-2.2,2.6c-0.9,0.7-2.1,1.1-3.4,1.4
				c-1.3,0.2-2.7,0.2-4.1-0.1c-1.5-0.3-2.9-0.8-4.2-1.5c-1.3-0.7-2.4-1.6-3.3-2.6c-0.9-1-1.7-2.2-2.2-3.5c-0.5-1.3-0.8-2.7-0.8-4.1
				c0-1,0.1-1.9,0.3-2.7c0.2-0.8,0.4-1.5,0.7-2.2c0.3-0.7,0.7-1.3,1.1-1.9c0.4-0.6,0.8-1.2,1.3-1.8c2.1-2.8,4.1-5.6,6.2-8.5
				c2.4,0.5,4.9,0.9,7.3,1.4C522.9,57.6,520.7,60.6,518.5,63.5z M523.3,73.2c0-1.3-0.4-2.4-1.3-3.4c-0.8-1-1.9-1.6-3.3-1.9
				c-1.4-0.3-2.5-0.1-3.3,0.6c-0.8,0.7-1.3,1.7-1.3,2.9c0,1.3,0.4,2.4,1.3,3.4c0.8,1,1.9,1.6,3.3,1.9c1.4,0.3,2.5,0,3.3-0.6
				C522.9,75.4,523.3,74.5,523.3,73.2z"/>
			<path fill="#FFFFFF" d="M533.5,56.2c2.1,0.4,4.2,0.7,6.2,1.1c0,9.4,0,18.9,0,28.3c-2.1-0.4-4.2-0.7-6.2-1.1
				C533.5,75.1,533.5,65.6,533.5,56.2z"/>
			<path fill="#FFFFFF" d="M552.5,72.9c-3.1-5-6.2-10-9.4-15c2.6,0.4,5.2,0.9,7.8,1.3c2,3.6,4,7.2,6,10.9c1.9-3,3.9-6,5.8-9.1
				c2.5,0.4,5,0.7,7.6,1c-3.1,4.1-6.1,8.1-9.2,12.2c3.4,5.5,6.8,10.9,10.2,16.3c-2.6-0.3-5.2-0.7-7.8-1c-2.3-4.1-4.6-8.3-6.9-12.4
				c-2.2,3.5-4.5,6.9-6.7,10.4c-2.5-0.4-4.9-0.8-7.4-1.2C545.8,81.7,549.2,77.3,552.5,72.9z"/>
			<path fill="#FFFFFF" d="M603.2,93.4c-6-0.4-12-0.9-18-1.5c0-1.1,0-2.2,0-3.3c3.8-3.4,7.5-6.9,11.3-10.5c0.4-0.4,0.9-0.8,1.3-1.3
				c0.4-0.4,0.8-0.9,1.2-1.4c0.3-0.5,0.6-1,0.8-1.6c0.2-0.6,0.3-1.2,0.3-1.8c0-0.8-0.1-1.5-0.4-2.1c-0.3-0.6-0.7-1.2-1.2-1.6
				c-0.5-0.5-1.1-0.8-1.8-1.1c-0.7-0.3-1.4-0.4-2.1-0.5c-1.4-0.1-2.7,0.2-3.7,0.9c-1,0.7-1.7,1.7-2,3.1c-1-0.2-2-0.4-3-0.6
				c0.4-2.1,1.4-3.6,2.9-4.7c1.5-1.1,3.4-1.5,5.6-1.3c1.1,0.1,2.2,0.3,3.3,0.7c1,0.4,1.9,0.9,2.7,1.6c0.8,0.7,1.4,1.5,1.9,2.4
				c0.5,0.9,0.7,2,0.7,3.3c0,1.1-0.2,2.1-0.5,3c-0.3,0.9-0.8,1.7-1.3,2.5c-0.5,0.8-1.1,1.5-1.8,2.2c-0.7,0.7-1.4,1.3-2.1,2
				c-3,2.7-5.9,5.4-8.9,8.1c5,0.5,9.9,0.9,14.9,1.2C603.2,91.7,603.2,92.6,603.2,93.4z"/>
			<path fill="#FFFFFF" d="M616.6,65.2c2,0.1,3.7,0.6,4.9,1.5c1.3,1,2.2,2.1,2.9,3.6c0.7,1.4,1.2,3,1.4,4.7c0.2,1.7,0.4,3.4,0.4,4.9
				c0,1.6-0.1,3.2-0.4,4.9c-0.2,1.7-0.7,3.3-1.4,4.7c-0.7,1.4-1.7,2.6-2.9,3.5c-1.3,0.9-2.9,1.3-4.9,1.3c-2-0.1-3.7-0.6-4.9-1.6
				c-1.3-1-2.2-2.2-2.9-3.7c-0.7-1.5-1.2-3.1-1.4-4.8c-0.2-1.7-0.4-3.4-0.4-5c0-1.6,0.1-3.2,0.4-4.9c0.2-1.7,0.7-3.3,1.4-4.7
				c0.7-1.4,1.7-2.5,2.9-3.4C613,65.6,614.6,65.2,616.6,65.2z M616.6,67.9c-1.5,0-2.8,0.3-3.7,1.1c-0.9,0.8-1.6,1.8-2,3
				c-0.5,1.2-0.7,2.5-0.9,3.9c-0.1,1.4-0.2,2.6-0.2,3.8c0,1.1,0.1,2.4,0.2,3.8c0.1,1.4,0.4,2.7,0.9,4c0.5,1.2,1.1,2.3,2,3.2
				c0.9,0.9,2.1,1.3,3.7,1.4c1.5,0,2.8-0.3,3.7-1.2c0.9-0.8,1.6-1.8,2-3c0.5-1.2,0.7-2.5,0.9-3.9c0.1-1.4,0.2-2.6,0.2-3.8
				c0-1.1-0.1-2.4-0.2-3.8c-0.1-1.4-0.4-2.7-0.9-3.9c-0.5-1.2-1.1-2.3-2-3.1C619.4,68.4,618.2,67.9,616.6,67.9z"/>
			<path fill="#FFFFFF" d="M641.7,93.9c-1,0-1.9,0.1-2.9,0.1c0-8.2,0-16.5,0-24.7c-1.7,1.6-3.4,3.1-5.1,4.6c-0.6-0.7-1.2-1.4-1.8-2.1
				c2.4-2,4.8-4,7.2-6.1c0.9,0,1.7-0.1,2.6-0.1C641.7,75,641.7,84.4,641.7,93.9z"/>
			<path fill="#FFFFFF" d="M664.5,79.9C664.5,79.9,664.5,79.8,664.5,79.9c-0.5,0.3-1.1,0.6-1.9,0.9c-0.8,0.2-1.5,0.4-2.1,0.5
				c-1.2,0.1-2.4,0-3.4-0.3c-1.1-0.3-2-0.9-2.7-1.6c-0.8-0.7-1.4-1.6-1.8-2.6c-0.4-1-0.7-2.2-0.7-3.5c0-1.3,0.2-2.5,0.7-3.6
				c0.5-1.1,1.1-2.1,1.9-2.9c0.8-0.8,1.8-1.5,2.9-2.1c1.1-0.5,2.3-0.9,3.7-1c1.3-0.1,2.6-0.1,3.7,0.2c1.1,0.3,2.1,0.8,2.9,1.4
				c0.8,0.7,1.5,1.5,1.9,2.5c0.5,1,0.7,2.2,0.7,3.5c0,1.6-0.2,3-0.7,4.2c-0.5,1.2-1,2.5-1.7,3.7c-2.5,4.5-5.1,8.9-7.6,13.3
				c-1.1,0.1-2.3,0.2-3.4,0.3C659.4,88.6,662,84.2,664.5,79.9z M667.4,71.6c0-0.9-0.2-1.7-0.5-2.4c-0.3-0.7-0.7-1.3-1.3-1.8
				c-0.6-0.5-1.2-0.8-2-1c-0.8-0.2-1.6-0.3-2.6-0.2c-0.9,0.1-1.8,0.3-2.6,0.7c-0.8,0.4-1.4,0.9-2,1.5c-0.6,0.6-1,1.3-1.3,2
				c-0.3,0.8-0.5,1.6-0.5,2.5c0,0.9,0.2,1.7,0.5,2.4c0.3,0.7,0.7,1.3,1.3,1.8c0.6,0.5,1.2,0.9,2,1.1c0.8,0.2,1.6,0.3,2.6,0.2
				c0.9-0.1,1.8-0.3,2.6-0.7c0.8-0.4,1.4-0.9,2-1.5c0.6-0.6,1-1.3,1.3-2.1C667.3,73.4,667.4,72.6,667.4,71.6z"/>
		</g>
	</g>
</g>
<linearGradient id="XMLID_3_" gradientUnits="userSpaceOnUse" x1="68.0227" y1="25.8533" x2="80.1865" y2="25.8533">
	<stop  offset="8.556548e-04" style="stop-color:#23B5AF"/>
	<stop  offset="0.2335" style="stop-color:#29AAA7"/>
	<stop  offset="0.6261" style="stop-color:#309D9E"/>
	<stop  offset="1" style="stop-color:#32999B"/>
</linearGradient>
<path id="XMLID_12_" fill="url(#XMLID_3_)" d="M68,26.1c0,0,7.7-7.7,12.2-4.6L77,31C77,31,71.8,27.5,68,26.1z"/>
<linearGradient id="XMLID_4_" gradientUnits="userSpaceOnUse" x1="68.0227" y1="46.4068" x2="80.1865" y2="46.4068">
	<stop  offset="8.556548e-04" style="stop-color:#23B5AF"/>
	<stop  offset="0.2335" style="stop-color:#29AAA7"/>
	<stop  offset="0.6261" style="stop-color:#309D9E"/>
	<stop  offset="1" style="stop-color:#32999B"/>
</linearGradient>
<path id="XMLID_276_" fill="url(#XMLID_4_)" d="M68,46.2c0,0,7.7,7.7,12.2,4.6L77,41.2C77,41.2,71.8,44.7,68,46.2z"/>
<linearGradient id="XMLID_5_" gradientUnits="userSpaceOnUse" x1="14.9991" y1="36.0702" x2="82.1865" y2="36.0702">
	<stop  offset="8.556548e-04" style="stop-color:#23B5AF"/>
	<stop  offset="0.2335" style="stop-color:#29AAA7"/>
	<stop  offset="0.6261" style="stop-color:#309D9E"/>
	<stop  offset="1" style="stop-color:#32999B"/>
</linearGradient>
<ellipse id="XMLID_11_" fill="url(#XMLID_5_)" cx="48.6" cy="36.1" rx="33.6" ry="15.9"/>
<linearGradient id="XMLID_6_" gradientUnits="userSpaceOnUse" x1="79.6865" y1="73.3459" x2="233.55" y2="73.3459">
	<stop  offset="8.556548e-04" style="stop-color:#23D0AF"/>
	<stop  offset="0.3035" style="stop-color:#26C4AA"/>
	<stop  offset="0.8551" style="stop-color:#2FA39F"/>
	<stop  offset="1" style="stop-color:#32999B"/>
</linearGradient>
<path id="XMLID_330_" fill="none" stroke="url(#XMLID_6_)" stroke-linecap="round" stroke-linejoin="round" stroke-miterlimit="10" d="M80.2,50.8c0,0,1.4,55.7,152.9,43.2"/>
<linearGradient id="XMLID_7_" gradientUnits="userSpaceOnUse" x1="79.6865" y1="31.8242" x2="233.55" y2="31.8242">
	<stop  offset="8.556548e-04" style="stop-color:#23D0AF"/>
	<stop  offset="0.3035" style="stop-color:#26C4AA"/>
	<stop  offset="0.8551" style="stop-color:#2FA39F"/>
	<stop  offset="1" style="stop-color:#32999B"/>
</linearGradient>
<path id="XMLID_333_" fill="none" stroke="url(#XMLID_7_)" stroke-linecap="round" stroke-linejoin="round" stroke-miterlimit="10" d="M80.2,21.4c0,0,12.8,43.4,152.9,4.8"/>
<linearGradient id="XMLID_8_" gradientUnits="userSpaceOnUse" x1="78.7723" y1="21.4162" x2="81.6008" y2="21.4162">
	<stop  offset="8.556548e-04" style="stop-color:#23D0AF"/>
	<stop  offset="0.3035" style="stop-color:#26C4AA"/>
	<stop  offset="0.8551" style="stop-color:#2FA39F"/>
	<stop  offset="1" style="stop-color:#32999B"/>
</linearGradient>
<path id="XMLID_317_" fill="url(#XMLID_8_)" d="M80.2,22.8L80.2,22.8c-0.8,0-1.4-0.6-1.4-1.4v0c0-0.8,0.6-1.4,1.4-1.4l0,0
	c0.8,0,1.4,0.6,1.4,1.4v0C81.6,22.2,81,22.8,80.2,22.8z"/>
<linearGradient id="XMLID_9_" gradientUnits="userSpaceOnUse" x1="78.7723" y1="50.8438" x2="81.6008" y2="50.8438">
	<stop  offset="8.556548e-04" style="stop-color:#23D0AF"/>
	<stop  offset="0.3035" style="stop-color:#26C4AA"/>
	<stop  offset="0.8551" style="stop-color:#2FA39F"/>
	<stop  offset="1" style="stop-color:#32999B"/>
</linearGradient>
<path id="XMLID_337_" fill="url(#XMLID_9_)" d="M80.2,52.3L80.2,52.3c-0.8,0-1.4-0.6-1.4-1.4v0c0-0.8,0.6-1.4,1.4-1.4h0c0.8,0,1.4,0.6,1.4,1.4
	v0C81.6,51.6,81,52.3,80.2,52.3z"/>
</svg>
