<?xml version="1.0" encoding="UTF-8"?>
<svg width="2094px" height="1175px" viewBox="0 0 2094 1175" version="1.1" xmlns="http://www.w3.org/2000/svg" xmlns:xlink="http://www.w3.org/1999/xlink">
    <!-- Generator: Sketch 45.2 (43514) - http://www.bohemiancoding.com/sketch -->
    <title>Group 2</title>
    <desc>Created with Sketch.</desc>
    <defs></defs>
    <g id="Page-1" stroke="none" stroke-width="1" fill="none" fill-rule="evenodd">
        <g id="Group-2">
            <g id="Group" transform="translate(22.000000, 0.000000)" fill="#77D3CC">
                <path d="M349,753.244587 L392.406429,753.244587 L392.406429,785.256942 L437.964828,785.256942 L437.964828,707.131286 L449.54524,707.131286 L449.54524,694.674246 L454.415314,694.674246 L454.415314,707.131286 L459.348815,707.131286 L459.348815,694.674246 L464.272346,694.674246 L464.272346,707.131286 L479.45076,707.131286 L479.45076,753.244587 L490.71871,753.244587 L490.71871,745.211202 L495.30374,745.211202 L495.30374,738.081332 L511.519999,738.061548 L511.519999,742.897079 L518.444319,742.897079 L518.444319,747.182828 L538.697957,747.182828 L538.697957,708.801724 L550.222011,708.801724 C550.014873,699.383405 550.014873,694.674246 550.222011,694.674246 C550.321543,694.674246 551.928241,694.674246 555.042106,694.674246 L555.042106,708.801724 L560.094876,708.801724 C559.928811,699.383405 559.928811,694.674246 560.094876,694.674246 C560.160471,694.674246 561.730716,694.674246 564.805611,694.674246 L564.805611,708.801724 L579.345026,708.801724 L580.845036,546.826644 L583.459676,388.361231 C587.976282,387.285626 592.088206,386.75105 595.795446,386.757503 C599.502687,386.763956 603.381036,387.298532 607.430494,388.361231 L611.538071,737.611498 L626.46308,737.611498 L626.46308,724.491908 L640.625447,724.491908 L640.625447,729.081096 L651.473557,729.081096 L651.473557,738.081332 L666.307028,738.061548 L666.307028,787.046313 L675.055579,787.046313 C675.055579,785.051873 675.055579,781.598315 675.055579,776.685641 C675.055579,769.316629 678.621964,767.136627 681.677878,763.128317 C683.715154,760.45611 687.20044,757.508325 692.133737,754.284961 C697.314139,758.05119 700.74625,760.998976 702.430071,763.128317 C704.955802,766.322328 709.17415,770.058207 709.17415,775.834077 C709.17415,779.684656 709.17415,783.422068 709.17415,787.046313 L714.181449,787.046313 L714.181449,585.848008 L718.375931,585.848008 L718.375931,573.195345 L729.62666,573.195345 L729.62666,585.287673 L803.589794,585.287673 L803.589794,737.389645 L812.801128,737.389645 L812.801128,708.769761 L821.260246,708.801724 L821.260246,695.734014 L839.034807,695.734014 L839.034807,681.748602 L882.097279,681.748602 L882.097279,697.730005 L885.315733,697.730005 L885.315733,709.038794 L901.613811,709.038794 L901.613811,731.433867 L904.719074,731.433867 L904.719074,668.882434 L907.533967,668.882434 L907.533967,646.547096 L925.086436,646.547096 L925.086436,622.964576 L947.498922,622.964576 L947.498922,618.168187 L958.002071,618.168187 L958.002071,622.964576 L966.983565,622.964576 L966.983565,646.547096 L973.2653,646.547096 L973.2653,668.204566 L980.1612,668.204566 L980.1612,672.661502 L988.938193,672.661502 L988.938193,652.87186 L1000.52348,652.87186 L1000.52348,637.677243 L1013.50028,637.561707 L1013.50028,567.811056 L1023.1911,567.811056 L1023.1911,557.074474 L1032.16196,557.074474 L1032.16196,567.811056 L1036.47589,567.811056 L1036.47589,549.87977 L1068.77562,549.87977 L1068.77562,567.811056 L1073.52058,567.811056 L1073.52058,558.059829 L1082.53397,558.059829 L1082.53397,569.621469 L1089.19833,569.621469 L1089.19833,520.669123 L1142.19433,520.669123 L1145.43385,520.669123 L1161.91537,520.669123 L1161.91537,621.856975 L1169.9789,621.856975 L1169.9789,614.387989 L1175.44369,614.387989 L1175.44369,611.276195 L1208.19815,611.276195 L1208.19815,618.168187 L1216.84308,618.168187 L1216.84308,620.23673 L1224.39062,620.23673 L1224.39062,663.392581 L1232.59952,663.392581 L1232.59952,668.204566 L1239.60013,668.204566 L1239.60013,605.005059 L1243.89106,605.005059 L1243.89106,581.258337 L1248.35804,581.132547 L1248.35804,554.771807 L1256.62762,554.771807 L1256.62762,525.29389 L1289.14258,525.29389 L1289.14258,557.074474 L1295.87452,557.074474 L1295.87452,583.077371 L1303.28454,583.077371 L1303.28454,571.597756 L1307.84328,571.597756 L1307.84328,564.271382 L1318.1914,564.271382 L1321.72732,564.271382 L1330.16108,564.271382 L1332.09462,564.271382 L1337.94486,564.271382 L1337.94486,571.597756 L1349.2008,571.597756 L1349.2008,687.119508 L1375.45137,687.119508 L1375.45137,674.616693 L1383.40689,674.583626 L1383.40689,665.639039 L1389.52109,665.746036 L1389.52109,685.081501 L1393.02857,685.081501 L1393.02857,693.27838 L1398.07077,693.27838 L1398.07077,672.661502 L1412.20712,672.661502 L1412.20712,661.053709 L1428.49992,661.053709 L1428.49992,651.553429 L1438.24455,651.553429 L1438.24455,647.582424 L1441.862,647.582424 L1441.862,600.044504 L1452.39494,600.044504 L1452.80144,580.605248 L1455.13276,580.605248 L1455.13276,564.271382 L1459.73463,564.271382 L1459.73463,580.605248 L1479.40788,580.605248 L1479.40788,600.638764 L1488.99674,600.638764 L1489.16474,610.96801 L1497.20725,610.96801 L1497.20725,707.131286 L1570.94676,707.160812 L1570.94676,768.613714 L1590.63625,768.613714 L1590.63625,674.616693 L1597.31391,674.616693 L1597.31391,667.152489 L1599.95049,667.152489 L1599.95049,658.622817 L1605.0046,658.622817 L1605.0046,655.938022 L1617.22948,655.938022 L1617.22948,658.622817 L1621.95085,658.622817 L1621.95085,667.152489 L1624.50957,667.152489 L1624.50957,674.616693 L1630.77659,674.616693 L1630.77659,781.609946 L1637.92657,781.609946 L1637.92657,712.76639 L1644.70122,712.76639 L1644.70122,707.160812 L1637.92657,707.160812 L1637.92657,695.493181 L1644.20654,695.493181 L1644.20654,683.362601 L1669.06321,683.362601 L1669.06321,695.493181 L1675.82924,695.734014 L1675.82924,707.131286 L1669.49175,707.131286 L1669.49175,712.76639 L1689.45619,712.76639 L1689.45619,794.461517 L1742.97023,794.461517 L1742.97023,768.613714 L1781.58368,768.613714 L1781.58368,765.624798 L1785.7691,765.624798 L1807.49451,745.824554 L1819.33172,745.824554 L1839.51344,765.624798 L1842.89988,765.624798 L1842.89988,811.715652 L1907.2078,811.715652 L1907.2078,725.851368 L1933.16564,725.851368 L1933.16564,731.433867 L1942.66799,731.433867 L1942.66799,825.107823 L1953.63286,825.107823 L1953.63286,800.747449 L1996.96406,800.747449 L1996.96406,842.012648 L2037.57942,842.012648 L2037.57942,873.367175 L2068.18697,873.367175 L2068.18697,1166.46786 L0.210397323,1166.46786 L13.7095156,836.868541 L67.2590137,836.868541 L67.2590137,789.082252 L114.831955,789.082252 L114.831955,740.385932 L140.055304,740.385932 L140.055304,766.84381 L142.816029,766.84381 L142.816029,755.940707 L148.546516,755.940707 L148.546516,798.016026 L159.384355,798.016026 L159.384355,781.609946 L187.245698,781.609946 L187.245698,768.613714 L224.245579,768.613714 L224.245579,753.244587 L243.921784,753.244587 L243.921784,855.123334 L287.360039,855.123334 L287.360039,798.016026 L330.302293,798.016026 L330.302293,836.868541 L349,836.868541 L349,753.244587 Z" id="Path-2-Copy-9"></path>
                <path d="M583.730996,375.074006 C579.06538,375.212751 577.263715,375.397875 574.132123,375.397875 C571.000532,375.397875 568.614011,373.85596 568.614011,370.441753 C568.614011,367.027546 570.965262,365.983665 574.413318,365.520145 C577.861374,365.056624 581.637575,364.299707 595.441548,364.400617 C607.652737,364.489885 615.118091,365.08625 616.716569,365.373872 C618.315047,365.661495 622.269085,366.292702 622.269085,370.441753 C622.269085,374.590805 619.313516,375.397875 616.716569,375.397875 C614.119623,375.397875 613.315994,375.252391 607.327075,375.074006 C601.338156,374.895622 599.358965,374.764182 595.441548,374.764182 C591.524131,374.764182 588.396613,374.935262 583.730996,375.074006 Z" id="Path-2-Copy-8"></path>
                <path d="M572.906417,356.411603 C566.957642,352.785134 563.983255,348.657421 563.983255,344.028463 C563.983255,339.399504 566.957642,335.203157 572.906417,331.439421 C581.799748,330.186229 589.198675,329.534883 595.103198,329.485384 C601.007721,329.435884 608.632215,330.08723 617.976679,331.439421 C623.47432,335.203157 626.223141,339.500847 626.223141,344.332492 C626.223141,349.164136 623.47432,353.190507 617.976679,356.411603 C609.506036,355.255335 601.881542,354.69892 595.103198,354.742358 C588.324853,354.785797 580.925926,355.342212 572.906417,356.411603 Z" id="Path-2-Copy-7"></path>
                <path d="M573,325.520139 L573,316.966588 L587.943598,315.318363 C589.366529,315.085803 591.805122,314.980654 595.259378,315.002918 C598.713635,315.025181 601.164171,315.130329 602.610986,315.318363 L618.070262,316.966588 L618.070262,325.520139 C609.944229,324.404963 602.432519,323.828801 595.535131,323.791654 C588.637743,323.754506 581.126033,324.330668 573,325.520139 Z" id="Path-2-Copy-6"></path>
                <path d="M588.395302,306.756041 C585.219984,303.790635 583.698887,300.896273 583.832013,298.072953 C583.965139,295.249634 585.486235,292.654222 588.395302,290.286716 L589.995915,196.528293 C591.24609,195.696438 593.070324,195.271992 595.468616,195.254955 C597.866908,195.237918 599.657076,195.662364 600.839118,196.528293 L601.86134,290.286716 C604.511373,293.086328 605.917345,295.681741 606.079257,298.072953 C606.241169,300.464166 604.835196,303.358529 601.86134,306.756041 C599.644854,306.06919 597.423594,305.729333 595.197559,305.736471 C592.971525,305.743609 590.704106,306.083466 588.395302,306.756041 Z" id="Path-2-Copy-4"></path>
                <path d="M590.076041,190.716742 C585.818228,188.815375 583.672025,186.729485 583.637432,184.459072 C583.602839,182.188659 585.749042,180.248179 590.076041,178.637631 L591.148814,173.805986 L592.222244,111.282347 L592.222244,83.5844783 L594.368447,83.5844783 L595.435736,0 L596.51465,83.5844783 L598.660853,83.5844783 L598.660853,111.282347 L599.715821,173.805986 L600.807056,178.637631 C605.099462,180.248179 607.245665,182.188659 607.245665,184.459072 C607.245665,186.729485 605.099462,188.815375 600.807056,190.716742 C599.376254,189.974966 597.585814,189.608641 595.435736,189.617764 C593.285659,189.626888 591.499094,189.993214 590.076041,190.716742 Z" id="cn-tower"></path>
            </g>
            <g id="SHADOW" transform="translate(618.000000, 83.000000)" fill="#47A2A9">
                <path d="M5.84168087,207.191608 C8.43938114,209.925831 9.8453534,212.521244 10.0595976,214.977845 C10.2738419,217.434447 8.86786964,220.366015 5.84168087,223.77255 C4.93004174,223.455402 3.94990009,223.209929 2.90125593,223.03613 C3.38908418,220.885981 4.7764514,218.904134 4.7873964,214.977845 C4.79834139,211.051557 3.56559562,208.678481 2.90125593,207.268621 C2.89017676,192.572652 2.64481741,160.972452 2.16517788,112.468022 C2.64474028,112.554109 3.11704321,112.68507 3.58208666,112.860903 C4.0471301,113.036737 4.46692161,113.260949 4.84146118,113.533539 L5.84168087,207.191608 Z" id="Path-2-Copy-4"></path>
                <path d="M3,232.070999 C3.13570643,232.07402 4.29510498,232.088501 6.01986173,232.259722 C7.00538544,232.357557 12.3544523,232.926226 22.0670624,233.965729 L22.0846348,242.525131 C15.8105799,241.652005 9.44903496,241.08644 3,240.828436 C3.40971682,238.96883 3.64182852,237.422737 3.64127752,236.488678 C3.64004837,234.405047 3.46587544,233.965729 3,232.070999 Z" id="Path-2-Copy-10"></path>
                <path d="M21.9570202,248.446348 C27.4546611,252.14206 30.2034816,256.405739 30.2034816,261.237384 C30.2034816,266.069028 27.4546611,270.125943 21.9570202,273.408129 C18.9236453,273.01121 16.7360615,272.743621 15.3942687,272.605361 C9.75254072,272.024033 5.58141873,271.79219 3,271.757253 C3.40732468,270.207249 5,264.20071 5,259.017268 C5,253.833826 3.40059598,248.171547 3,246.573868 C4.83763724,246.573868 8.17351043,246.861255 13.0437766,247.336053 C15.842959,247.608943 18.8140402,247.979041 21.9570202,248.446348 Z" id="Path-2-Copy-11"></path>
                <path d="M20.4495891,282.356149 C22.3918602,282.716754 26.2494261,283.197594 26.2494261,287.346645 C26.2494261,291.495697 23.4838851,292.35825 20.7817041,292.382234 C18.0795231,292.406218 15.3642155,292.187241 11.2518062,292.063336 C7.13939675,291.939432 5.44612846,291.863071 3,291.815663 C3.58148447,291.119259 4.3099905,288.907619 4.3099905,286.454988 C4.3099905,284.002356 3.36303689,282.08189 3,281.448306 C6.4075275,281.416918 18.507318,281.995544 20.4495891,282.356149 Z" id="Path-2-Copy-12"></path>
                <path d="M3.712737,90.7897698 L4.80519104,95.6456451 C9.00319987,97.1487566 11.1493991,99.0701715 11.2437888,101.40989 C11.2388722,103.726416 9.10278951,105.825993 4.83554056,107.70862 C4.20228061,107.422445 3.68833207,107.220298 3.29369493,107.102179 C2.8990578,106.984059 2.41605297,106.88567 1.84468045,106.807012 C2.81069011,104.905934 3.29369493,103.004195 3.29369493,101.101793 C3.29369493,98.24819 2.4638737,97.0737049 1.84468045,95.7495583 L0.5,0.5 L2.63501904,0.5 L3.712737,90.7897698 Z" id="Path-2-Copy-4"></path>
                <path d="M3,303.888123 C3.44220607,303.910744 4.10887274,303.980397 5,304.09708 C6.33669089,304.272106 7.06196065,304.414597 7.6684274,304.520705 C8.69848665,304.700925 9.95247399,304.981204 11.4303894,305.361542 L15.5340279,654.386208 L3,654.386208 L3,303.888123 Z" id="Path-2"></path>
            </g>
            <path d="M334.410499,831.486449 C350.369021,810.772511 366.526964,797.404125 382.884328,791.381291 C399.241692,785.358457 424.935192,782.101342 459.964828,781.609946 L459.964828,707.131286 L471.54524,707.131286 L471.54524,694.674246 L476.415314,694.674246 L476.415314,707.131286 L481.348815,707.131286 L481.348815,694.674246 L486.272346,694.674246 L486.272346,707.131286 L501.45076,707.131286 L501.45076,753.244587 L520.378447,753.244587 L520.378447,769.292842 L529.464951,769.292842 L529.464951,793.089691 L543.327164,793.089691 L543.327164,758.346743 L560.697957,758.346743 L560.697957,747.182828 L560.697957,708.801724 L572.222011,708.801724 C572.014873,699.383405 572.014873,694.674246 572.222011,694.674246 C572.321543,694.674246 573.928241,694.674246 577.042106,694.674246 L577.042106,708.801724 L582.094876,708.801724 C581.928811,699.383405 581.928811,694.674246 582.094876,694.674246 C582.160471,694.674246 583.730716,694.674246 586.805611,694.674246 L586.805611,708.801724 L606.872105,708.769761 L606.872105,737.389645 L636.573156,737.389645 L636.573156,816.049575 L672.768937,816.049575 L672.768937,787.262366 L697.055579,787.046313 C697.055579,785.051873 697.055579,781.598315 697.055579,776.685641 C697.055579,769.316629 700.621964,767.136627 703.677878,763.128317 C705.715154,760.45611 709.20044,757.508325 714.133737,754.284961 C719.314139,758.05119 722.74625,760.998976 724.430071,763.128317 C726.955802,766.322328 731.17415,770.058207 731.17415,775.834077 C731.17415,779.684656 731.17415,783.422068 731.17415,787.046313 L751.798029,787.262366 L751.798029,849.010411 L788.265027,849.010411 L788.265027,738.081332 L834.801128,737.389645 L834.801128,708.769761 L843.260246,708.801724 L843.260246,695.734014 L861.034807,695.734014 L861.034807,681.748602 L904.097279,681.748602 L904.097279,697.730005 L907.315733,697.730005 L907.315733,709.038794 L923.613811,709.038794 L923.613811,803.237957 L926.719074,803.237957 L926.719074,668.882434 L929.533967,668.882434 L929.533967,646.547096 L947.086436,646.547096 L947.086436,622.964576 L969.498922,622.964576 L969.498922,618.168187 L980.002071,618.168187 L980.002071,622.964576 L988.983565,622.964576 L988.983565,646.547096 L995.2653,646.547096 L995.2653,668.204566 L1002.1612,668.204566 L1002.1612,672.661502 L1010.93819,672.661502 L1010.93819,652.87186 L1022.52348,652.87186 L1022.52348,637.562622 L1051.57509,637.562622 L1051.57509,717.547216 L1117.23442,717.547216 L1117.23442,621.856975 L1191.9789,621.856975 L1191.9789,614.387989 L1197.44369,614.387989 L1197.44369,611.276195 L1230.19815,611.276195 L1230.19815,618.168187 L1238.84308,618.168187 L1238.84308,620.23673 L1249,620.23673 L1249,769.292842 L1262.74185,769.292842 L1261.60013,605.005059 L1265.89106,605.005059 L1265.89106,581.258337 L1270.35804,581.132547 L1270.35804,554.771807 L1278.62762,554.771807 L1278.62762,525.29389 L1311.14258,525.29389 L1311.14258,557.074474 L1317.87452,557.074474 L1317.87452,583.077371 L1335.86448,583.077371 L1335.86448,687.119508 L1371.2008,687.119508 L1397.45137,687.119508 L1397.45137,791.381291 L1420.07077,791.381291 L1420.07077,672.661502 L1434.20712,672.661502 L1434.20712,661.053709 L1450.49992,661.053709 L1450.49992,651.553429 L1460.24455,651.553429 L1460.24455,647.582424 L1463.862,647.582424 L1463.862,600.044504 L1474.39494,600.044504 L1474.80144,580.605248 L1477.13276,580.605248 L1477.13276,564.271382 L1481.73463,564.271382 L1481.73463,580.605248 L1501.40788,580.605248 L1501.40788,600.638764 L1510.99674,600.638764 L1511.16474,610.96801 L1519.20725,610.96801 L1519.20725,787.046313 L1573.38756,789.082252 L1612.63625,849.010411 L1612.63625,674.616693 L1619.31391,674.616693 L1619.31391,667.152489 L1621.95049,667.152489 L1621.95049,658.622817 L1627.0046,658.622817 L1627.0046,655.938022 L1639.22948,655.938022 L1639.22948,658.622817 L1643.95085,658.622817 L1643.95085,667.152489 L1646.50957,667.152489 L1646.50957,674.616693 L1652.77659,674.616693 L1652.77659,781.609946 L1659.92657,781.609946 L1659.92657,712.76639 L1666.70122,712.76639 L1666.70122,707.160812 L1659.92657,707.160812 L1659.92657,695.493181 L1666.20654,695.493181 L1666.20654,683.362601 L1691.06321,683.362601 L1691.06321,695.493181 L1697.82924,695.734014 L1697.82924,707.131286 L1691.49175,707.131286 L1691.49175,712.76639 L1711.45619,712.76639 L1711.45619,821.449978 L1728.41235,809.340804 L1779.8354,809.340804 L1779.8354,765.609821 L1794.0907,747.182828 L1807.75439,765.609821 L1807.75439,781.609946 L1850.78563,781.609946 L1850.78563,765.609821 L1864.87592,765.609821 L1864.87592,755.800127 L1876.43723,745.535827 L1887.90307,755.800127 L1887.90307,765.609821 L1890.6486,765.609821 L1903.93994,765.609821 L1903.93994,809.340804 L1923.85122,809.340804 L1923.85122,765.609821 L1947.80028,765.609821 L1947.80028,731.404793 L1964.71659,731.404793 L1964.71659,825.102241 L1993.7533,825.102241 L1993.7533,869.215413 L2055.98064,869.215413 L2093.23818,869.215413 L2093.23818,1174.43976 L0.377251272,1174.43976 L0.377251272,864.513798 L18.561905,849.010411 L57.4980791,849.010411 L57.4980791,807.35452 L93.1637559,807.35452 L93.1637559,784.24417 L110.461025,784.24417 L110.461025,789.082252 L120.541694,789.082252 L120.541694,807.35452 L128.046728,807.35452 L128.046728,770.160287 L143.63781,770.160287 L143.63781,787.262366 L153.591953,787.262366 L153.591953,809.340804 L157.114915,809.340804 L161.76736,803.237957 L166.26718,809.340804 L173.694005,809.340804 L173.694005,789.082252 L183.97594,775.834077 L194.378636,789.082252 L194.378636,809.340804 L204.472963,809.340804 L204.472963,835.357962 L216.476594,835.357962 L216.476594,724.767892 L250.963991,724.767892 L250.963991,835.357962 L261.990932,835.357962 L261.990932,681.748602 C275.284616,681.907003 285.183045,681.433314 291.686221,680.327536 C298.189397,679.221758 308.771583,676.21299 323.432779,671.301234 L323.432779,864.513798 L334.410499,864.513798 L334.410499,831.486449 Z" id="Path-2-Copy-5" fill="#47A2A9"></path>
        </g>
    </g>
</svg>