
<svg width="264px" height="98px" viewBox="0 0 264 98" version="1.1" xmlns="http://www.w3.org/2000/svg" xmlns:xlink="http://www.w3.org/1999/xlink">
    <!-- Generator: Sketch 50.2 (55047) - http://www.bohemiancoding.com/sketch -->
    <desc>Created with Sketch.</desc>
    <defs>
        <linearGradient x1="50%" y1="0%" x2="50%" y2="100%" id="linearGradient-1">
            <stop stop-color="#D06400" stop-opacity="0.569746377" offset="0%"></stop>
            <stop stop-color="#DA5256" stop-opacity="0.79370471" offset="100%"></stop>
        </linearGradient>
        <linearGradient x1="50%" y1="0%" x2="50%" y2="100%" id="linearGradient-2">
            <stop stop-color="#BE7325" stop-opacity="0.814509737" offset="0%"></stop>
            <stop stop-color="#B74848" stop-opacity="0.783514493" offset="100%"></stop>
        </linearGradient>
    </defs>
    <g id="Page-1" stroke="none" stroke-width="1" fill="none" fill-rule="evenodd">
        <g id="Desktop-HD-Copy-3" transform="translate(-903.000000, -107.000000)" fill-rule="nonzero">
            <g id="clouds-copy" transform="translate(58.000000, 107.000000)">
                <g id="Background">
                    <g id="cloud-3" transform="translate(845.000000, 0.000000)">
                        <path d="M263.505571,97.1503454 C262.931963,80.8179624 249.519248,67.7515523 233.047713,67.7515523 C229.039388,67.7515523 225.215549,68.5323131 221.709681,69.9395715 C221.56864,52.6224224 207.492908,38.6260254 190.143017,38.6260254 C190.12035,38.6260254 190.098942,38.6279143 190.076275,38.6279143 C188.879318,17.1620289 171.095601,0.123812855 149.330004,0.123812855 C127.410144,0.123812855 109.529462,17.4044425 108.560437,39.0844075 C93.9331351,41.3775776 82.0926454,52.0721119 78.1346917,66.0760647 C75.2414692,65.2285614 72.1832794,64.7657718 69.0155313,64.7657718 C55.8364145,64.7657718 44.5046786,72.642641 39.4486226,83.9410057 C35.2312549,80.1845387 29.6752602,77.899554 23.5828072,77.899554 C11.9790643,77.899554 2.31463052,86.1781373 0.161241801,97.1503454 L263.505571,97.1503454 Z" id="Shape" fill="url(#linearGradient-1)"></path>
                        <path d="M187.180533,79.8955313 C185.108369,79.8955313 183.096651,80.1436117 181.162379,80.598216 C180.326209,63.0197639 165.808465,49.0233669 148.0216,49.0233669 C132.379939,49.0233669 119.267564,59.8482379 115.762956,74.4163533 C112.495094,72.8630171 108.84,71.9909576 104.980271,71.9909576 C91.085247,71.9909576 79.8221425,83.2553214 79.8221425,97.1497158 L211.779537,97.1497158 C208.137665,87.0867162 198.500306,79.8955313 187.180533,79.8955313 Z" id="Shape" fill="url(#linearGradient-2)"></path>
                    </g>
                </g>
            </g>
        </g>
    </g>
</svg>