
<svg width="351px" height="91px" viewBox="0 0 351 91" version="1.1" xmlns="http://www.w3.org/2000/svg" xmlns:xlink="http://www.w3.org/1999/xlink">
    <!-- Generator: Sketch 50.2 (55047) - http://www.bohemiancoding.com/sketch -->
    <desc>Created with Sketch.</desc>
    <defs>
        <linearGradient x1="50%" y1="0%" x2="50%" y2="100%" id="linearGradient-1">
            <stop stop-color="#D06400" stop-opacity="0.585427989" offset="0%"></stop>
            <stop stop-color="#DA5256" stop-opacity="0.83520154" offset="100%"></stop>
        </linearGradient>
        <linearGradient x1="50%" y1="0%" x2="50%" y2="100%" id="linearGradient-2">
            <stop stop-color="#BE7325" stop-opacity="0.779495018" offset="0%"></stop>
            <stop stop-color="#B74848" offset="100%"></stop>
        </linearGradient>
    </defs>
    <g id="Page-1" stroke="none" stroke-width="1" fill="none" fill-rule="evenodd">
        <g id="Desktop-HD-Copy-3" transform="translate(-58.000000, -178.000000)" fill-rule="nonzero">
            <g id="clouds-copy" transform="translate(58.000000, 107.000000)">
                <g id="Background">
                    <g id="cloud-2" transform="translate(0.000000, 71.000000)">
                        <path d="M351,91 C350.215023,83.9395055 344.204745,78.4485076 336.903617,78.4485076 C336.17885,78.4485076 335.46815,78.5028407 334.771518,78.6070257 C331.042456,70.4912379 322.813986,64.850124 313.260902,64.850124 C310.461996,64.850124 307.777881,65.3352004 305.286213,66.2241338 C299.682772,56.9404657 289.469633,50.729135 277.797393,50.729135 C275.544876,50.729135 273.345815,50.9621509 271.224408,51.4024166 C262.257103,34.6941666 244.56727,23.325118 224.207391,23.325118 C215.853999,23.325118 207.949085,25.2413379 200.912429,28.6525566 C199.33516,28.0515324 197.625655,27.7188125 195.836808,27.7188125 C192.025591,27.7188125 188.566629,29.2182924 186.018127,31.6520765 C180.476584,26.487637 173.029714,23.325118 164.838945,23.325118 C163.076546,23.325118 161.349034,23.4729935 159.667664,23.7547411 C150.649715,9.48475634 134.690208,0 116.502942,0 C96.80143,0 79.7136942,11.1304313 71.2325681,27.4174602 C70.1707392,27.2718252 69.0869647,27.195647 67.9857463,27.195647 C54.9292464,27.195647 44.3430319,37.7328959 44.3430319,50.7296951 C44.3430319,52.5019605 44.5416676,54.2260543 44.9147426,55.8857326 C35.684653,58.3032728 28.2124613,65.0316076 24.8047053,73.779227 C24.1435241,73.7237737 23.4772785,73.6946467 22.803155,73.6946467 C11.9125158,73.6946467 2.74376132,81.0256862 0,91 L351,91 Z" id="Shape" fill="url(#linearGradient-1)"></path>
                        <path d="M36,91 C36.3702651,80.3946967 45.0285127,71.9109062 55.6616948,71.9109062 C58.2490556,71.9109062 60.7178641,72.4178313 62.9804704,73.3316529 C63.0714916,62.0877483 72.1578758,52.9992644 83.3579736,52.9992644 C83.3725819,52.9992644 83.3866284,53.0009598 83.4017986,53.0009598 C84.1743548,39.0630618 95.6542584,28 109.704667,28 C123.854525,28 135.397918,39.220169 136.023268,53.29709 C145.46587,54.7862179 153.108839,61.7300185 155.664174,70.8230234 C157.531793,70.2731481 159.506166,69.9724968 161.551332,69.9724968 C170.059002,69.9724968 177.373844,75.0869589 180.638245,82.4229624 C183.360452,79.9838443 186.94736,78.5003678 190.880374,78.5003678 C198.371078,78.5003678 204.610523,83.8759217 206,91 L36,91 Z" id="Shape" fill="url(#linearGradient-2)"></path>
                    </g>
                </g>
            </g>
        </g>
    </g>
</svg>