
<svg width="299px" height="71px" viewBox="0 0 299 71" version="1.1" xmlns="http://www.w3.org/2000/svg" xmlns:xlink="http://www.w3.org/1999/xlink">
    <!-- Generator: Sketch 50.2 (55047) - http://www.bohemiancoding.com/sketch -->
    <desc>Created with Sketch.</desc>
    <defs>
        <linearGradient x1="50%" y1="0%" x2="50%" y2="100%" id="linearGradient-1">
            <stop stop-color="#D06400" stop-opacity="0.575152853" offset="0%"></stop>
            <stop stop-color="#D06004" stop-opacity="0.827332428" offset="0%"></stop>
            <stop stop-color="#DA5256" stop-opacity="0.736781024" offset="100%"></stop>
        </linearGradient>
        <linearGradient x1="50%" y1="0%" x2="50%" y2="100%" id="linearGradient-2">
            <stop stop-color="#9E4507" stop-opacity="0.90868433" offset="0%"></stop>
            <stop stop-color="#A56060" offset="100%"></stop>
        </linearGradient>
    </defs>
    <g id="Page-1" stroke="none" stroke-width="1" fill="none" fill-rule="evenodd">
        <g id="Desktop-HD-Copy-3" transform="translate(-1017.000000, -285.000000)" fill-rule="nonzero">
            <g id="clouds-copy" transform="translate(58.000000, 107.000000)">
                <g id="Background">
                    <g id="cloud-1" transform="translate(959.000000, 178.000000)">
                        <path d="M285.630507,57.5899622 C283.157603,57.5899622 280.843729,58.2656927 278.856748,59.4390267 C274.708296,51.5389618 266.444081,46.151285 256.923535,46.151285 C251.25282,46.151285 246.027387,48.0641562 241.851988,51.2797471 C239.53458,46.7800467 235.472268,43.3322703 230.561801,41.8381305 C227.157252,28.6966125 215.250827,18.9940088 201.083979,18.9940088 C199.620028,18.9940088 198.180372,19.0999101 196.770313,19.3006353 C192.480944,8.01748693 181.594072,0 168.838167,0 C153.257727,0 140.464714,11.9597651 139.078952,27.2250708 C135.218077,22.2618857 129.199707,19.0706654 122.43655,19.0706654 C113.279563,19.0706654 105.485367,24.922713 102.567182,33.1014891 C101.117808,32.4789308 99.5222152,32.1328682 97.8457828,32.1328682 C94.2605587,32.1328682 91.0446357,33.7111974 88.8447323,36.2089631 C85.9786735,30.7113971 80.2394878,26.9592097 73.6247583,26.9592097 C65.3097419,26.9592097 58.3751871,32.8905725 56.7963809,40.7649375 C50.8478068,42.3725115 46.3335874,47.4774892 45.5759902,53.7478251 C42.3658099,51.1193442 38.2668333,49.5427874 33.8003227,49.5427874 C24.7444955,49.5427874 17.1981201,56.0218243 15.5137363,64.6113559 C13.8699932,62.9421908 11.5883665,61.9066615 9.06466211,61.9066615 C4.05877756,61.9066615 0,65.9778823 0,71 L299,71 C298.999558,63.5935507 293.013436,57.5899622 285.630507,57.5899622 Z" id="Shape" fill="url(#linearGradient-1)"></path>
                        <path d="M86.2664451,64.6923419 C86.756101,64.6923419 87.2316024,64.7511131 87.688526,64.8570793 C89.9399699,60.2747106 94.629962,57.1233304 100.05289,57.1233304 C101.965511,57.1233304 103.787456,57.5155833 105.443085,58.2243989 C107.936482,52.3833482 113.703098,48.29252 120.418947,48.29252 C124.457834,48.29252 128.15259,49.7729297 131.000291,52.2221728 C132.091511,46.9180766 136.759387,42.9309884 142.352168,42.9309884 C142.783437,42.9309884 143.207628,42.9568121 143.626512,43.0026714 C143.613684,42.769813 143.605722,42.5356189 143.605722,42.300089 C143.605722,35.5066785 149.075979,30 155.825003,30 C160.384951,30 164.358816,32.5160285 166.458984,36.2426536 C169.555272,32.7960819 174.031178,30.6308994 179.010894,30.6308994 C188.355934,30.6308994 195.930782,38.2560107 195.930782,47.6616207 C195.930782,48.2003562 195.904685,48.7328584 195.855587,49.2600178 C203.675926,49.643366 210.100724,55.3726625 211.604193,62.8926981 C216.39017,62.8842386 220,66.5178094 220,71 L80,71 C79.9995577,67.5164737 82.8052372,64.6923419 86.2664451,64.6923419 Z" id="Shape" fill="url(#linearGradient-2)"></path>
                    </g>
                </g>
            </g>
        </g>
    </g>
</svg>