<svg xmlns="http://www.w3.org/2000/svg" viewBox="0 0 206.00937 163.0454"><defs><style>.cls-1{opacity:0.3;}.cls-2{opacity:0;}.cls-3{opacity:0.01724;}.cls-4{opacity:0.03448;}.cls-5{opacity:0.05172;}.cls-6{opacity:0.06897;}.cls-7{opacity:0.08621;}.cls-8{opacity:0.10345;}.cls-9{opacity:0.12069;}.cls-10{opacity:0.13793;}.cls-11{opacity:0.15517;}.cls-12{opacity:0.17241;}.cls-13{opacity:0.18966;}.cls-14{opacity:0.2069;}.cls-15{opacity:0.22414;}.cls-16{opacity:0.24138;}.cls-17{opacity:0.25862;}.cls-18{opacity:0.27586;}.cls-19{opacity:0.2931;}.cls-20{opacity:0.31034;}.cls-21{opacity:0.32759;}.cls-22{opacity:0.34483;}.cls-23{opacity:0.36207;}.cls-24{opacity:0.37931;}.cls-25{opacity:0.39655;}.cls-26{opacity:0.41379;}.cls-27{opacity:0.43103;}.cls-28{opacity:0.44828;}.cls-29{opacity:0.46552;}.cls-30{opacity:0.48276;}.cls-31{opacity:0.5;}.cls-32{opacity:0.51724;}.cls-33{opacity:0.53448;}.cls-34{opacity:0.55172;}.cls-35{opacity:0.56897;}.cls-36{opacity:0.58621;}.cls-37{opacity:0.60345;}.cls-38{opacity:0.62069;}.cls-39{opacity:0.63793;}.cls-40{opacity:0.65517;}.cls-41{opacity:0.67241;}.cls-42{opacity:0.68966;}.cls-43{opacity:0.7069;}.cls-44{opacity:0.72414;}.cls-45{opacity:0.74138;}.cls-46{opacity:0.75862;}.cls-47{opacity:0.77586;}.cls-48{opacity:0.7931;}.cls-49{opacity:0.81034;}.cls-50{opacity:0.82759;}.cls-51{opacity:0.84483;}.cls-52{opacity:0.86207;}.cls-53{opacity:0.87931;}.cls-54{opacity:0.89655;}.cls-55{opacity:0.91379;}.cls-56{opacity:0.93103;}.cls-57{opacity:0.94828;}.cls-58{opacity:0.96552;}.cls-59{opacity:0.98276;}.cls-60{fill:#ff8d07;}.cls-61{fill:#ffb50f;}.cls-62{fill:#ffd66e;}.cls-63{fill:#fff;}</style></defs><title>Asset 8</title><g id="Layer_2" data-name="Layer 2"><g id="Layer_3" data-name="Layer 3"><g class="cls-1"><g class="cls-2"><path d="M50.15244,127.06689a15.97413,15.97413,0,1,0,20.37549,23.814L168.2164,46.67627Z"/><path d="M120.28086,132.39941a11.59918,11.59918,0,1,0,14.79492,17.29248l70.93359-75.665Z"/></g><g class="cls-3"><path d="M49.4283,126.37724a15.97413,15.97413,0,1,0,20.37549,23.814L167.49226,45.98661Z"/><path d="M119.55672,131.70976a11.59918,11.59918,0,1,0,14.79492,17.29248l70.93359-75.665Z"/></g><g class="cls-4"><path d="M48.70416,125.68758a15.97413,15.97413,0,1,0,20.37549,23.814L166.76813,45.297Z"/><path d="M118.83258,131.0201a11.59918,11.59918,0,1,0,14.79492,17.29248l70.93359-75.665Z"/></g><g class="cls-5"><path d="M47.98,124.99793a15.97413,15.97413,0,1,0,20.37549,23.814L166.044,44.6073Z"/><path d="M118.10844,130.33045a11.59918,11.59918,0,1,0,14.79492,17.29248l70.93359-75.665Z"/></g><g class="cls-6"><path d="M47.25589,124.30827a15.97413,15.97413,0,1,0,20.37549,23.814L165.31985,43.91765Z"/><path d="M117.3843,129.64079a11.59918,11.59918,0,1,0,14.79492,17.29248l70.93359-75.665Z"/></g><g class="cls-7"><path d="M46.53175,123.61862a15.97413,15.97413,0,1,0,20.37549,23.814L164.59571,43.228Z"/><path d="M116.66017,128.95114a11.59918,11.59918,0,1,0,14.79492,17.29248l70.93359-75.665Z"/></g><g class="cls-8"><path d="M45.80761,122.929a15.97413,15.97413,0,1,0,20.37549,23.814L163.87157,42.53834Z"/><path d="M115.936,128.26148A11.59918,11.59918,0,1,0,130.73095,145.554l70.93359-75.665Z"/></g><g class="cls-9"><path d="M45.08347,122.23931a15.97413,15.97413,0,1,0,20.37549,23.814L163.14744,41.84868Z"/><path d="M115.21189,127.57183a11.59918,11.59918,0,1,0,14.79492,17.29248l70.93359-75.665Z"/></g><g class="cls-10"><path d="M44.35933,121.54965a15.97413,15.97413,0,1,0,20.37549,23.814L162.4233,41.159Z"/><path d="M114.48775,126.88217a11.59918,11.59918,0,1,0,14.79492,17.29248l70.93359-75.665Z"/></g><g class="cls-11"><path d="M43.6352,120.86a15.97413,15.97413,0,1,0,20.37549,23.814L161.69916,40.46937Z"/><path d="M113.76361,126.19252A11.59918,11.59918,0,1,0,128.55854,143.485L199.49213,67.82Z"/></g><g class="cls-12"><path d="M42.91106,120.17034a15.97413,15.97413,0,1,0,20.37549,23.814L160.975,39.77972Z"/><path d="M113.03948,125.50286a11.59918,11.59918,0,1,0,14.79492,17.29248L198.768,67.1303Z"/></g><g class="cls-13"><path d="M42.18692,119.48069a15.97413,15.97413,0,1,0,20.37549,23.814L160.25089,39.09006Z"/><path d="M112.31534,124.81321a11.59918,11.59918,0,1,0,14.79492,17.29248l70.93359-75.665Z"/></g><g class="cls-14"><path d="M41.46278,118.791a15.97413,15.97413,0,1,0,20.37549,23.814L159.52675,38.40041Z"/><path d="M111.5912,124.12355A11.59918,11.59918,0,1,0,126.38612,141.416l70.93359-75.665Z"/></g><g class="cls-15"><path d="M40.73864,118.10138a15.97413,15.97413,0,1,0,20.37549,23.814L158.80261,37.71075Z"/><path d="M110.86706,123.4339A11.59918,11.59918,0,1,0,125.662,140.72638l70.93359-75.665Z"/></g><g class="cls-16"><path d="M40.01451,117.41172A15.97413,15.97413,0,1,0,60.39,141.22569L158.07847,37.0211Z"/><path d="M110.14292,122.74424a11.59918,11.59918,0,1,0,14.79492,17.29248l70.93359-75.665Z"/></g><g class="cls-17"><path d="M39.29037,116.72207a15.97413,15.97413,0,1,0,20.37549,23.814L157.35433,36.33144Z"/><path d="M109.41879,122.05459a11.59918,11.59918,0,1,0,14.79492,17.29248L195.1473,63.682Z"/></g><g class="cls-18"><path d="M38.56623,116.03241a15.97413,15.97413,0,1,0,20.37549,23.814L156.6302,35.64179Z"/><path d="M108.69465,121.36493a11.59918,11.59918,0,1,0,14.79492,17.29248l70.93359-75.665Z"/></g><g class="cls-19"><path d="M37.84209,115.34276a15.97413,15.97413,0,1,0,20.37549,23.814L155.90606,34.95213Z"/><path d="M107.97051,120.67528a11.59918,11.59918,0,1,0,14.79492,17.29248l70.93359-75.665Z"/></g><g class="cls-20"><path d="M37.118,114.6531a15.97413,15.97413,0,1,0,20.37549,23.814L155.18192,34.26248Z"/><path d="M107.24637,119.98562a11.59918,11.59918,0,1,0,14.79492,17.29248l70.93359-75.665Z"/></g><g class="cls-21"><path d="M36.39382,113.96345a15.97413,15.97413,0,1,0,20.37549,23.814L154.45778,33.57282Z"/><path d="M106.52223,119.296a11.59918,11.59918,0,1,0,14.79492,17.29248l70.93359-75.665Z"/></g><g class="cls-22"><path d="M35.66968,113.27379a15.97413,15.97413,0,1,0,20.37549,23.814L153.73364,32.88317Z"/><path d="M105.7981,118.60631A11.59918,11.59918,0,1,0,120.593,135.89879l70.93359-75.665Z"/></g><g class="cls-23"><path d="M34.94554,112.58414A15.97413,15.97413,0,1,0,55.321,136.3981L153.00951,32.19351Z"/><path d="M105.074,117.91665a11.59918,11.59918,0,1,0,14.79492,17.29248l70.93359-75.665Z"/></g><g class="cls-24"><path d="M34.2214,111.89448a15.97413,15.97413,0,1,0,20.37549,23.814L152.28537,31.50385Z"/><path d="M104.34982,117.227a11.59918,11.59918,0,1,0,14.79492,17.29248l70.93359-75.665Z"/></g><g class="cls-25"><path d="M33.49727,111.20482a15.97413,15.97413,0,1,0,20.37549,23.814L151.56123,30.8142Z"/><path d="M103.62568,116.53734a11.59918,11.59918,0,1,0,14.79492,17.29248l70.93359-75.665Z"/></g><g class="cls-26"><path d="M32.77313,110.51517a15.97413,15.97413,0,1,0,20.37549,23.814L150.83709,30.12454Z"/><path d="M102.90155,115.84769a11.59918,11.59918,0,1,0,14.79492,17.29248l70.93359-75.665Z"/></g><g class="cls-27"><path d="M32.049,109.82551a15.97413,15.97413,0,1,0,20.37549,23.814L150.113,29.43489Z"/><path d="M102.17741,115.158a11.59918,11.59918,0,1,0,14.79492,17.29248l70.93359-75.665Z"/></g><g class="cls-28"><path d="M31.32485,109.13586a15.97413,15.97413,0,1,0,20.37549,23.814L149.38882,28.74523Z"/><path d="M101.45327,114.46838a11.59918,11.59918,0,1,0,14.79492,17.29248l70.93359-75.665Z"/></g><g class="cls-29"><path d="M30.60071,108.4462a15.97413,15.97413,0,1,0,20.37549,23.814L148.66468,28.05558Z"/><path d="M100.72913,113.77872a11.59918,11.59918,0,1,0,14.79492,17.29248l70.93359-75.665Z"/></g><g class="cls-30"><path d="M29.87658,107.75655a15.97413,15.97413,0,1,0,20.37549,23.814L147.94054,27.36592Z"/><path d="M100.005,113.08907a11.59918,11.59918,0,1,0,14.79492,17.29248l70.93359-75.665Z"/></g><g class="cls-31"><path d="M29.15244,107.06689a15.97413,15.97413,0,1,0,20.37549,23.814L147.2164,26.67627Z"/><path d="M99.28086,112.39941a11.59918,11.59918,0,1,0,14.79492,17.29248l70.93359-75.665Z"/></g><g class="cls-32"><path d="M28.4283,106.37724a15.97413,15.97413,0,1,0,20.37549,23.814L146.49226,25.98661Z"/><path d="M98.55672,111.70976a11.59918,11.59918,0,1,0,14.79492,17.29248l70.93359-75.665Z"/></g><g class="cls-33"><path d="M27.70416,105.68758a15.97413,15.97413,0,1,0,20.37549,23.814L145.76813,25.297Z"/><path d="M97.83258,111.0201a11.59918,11.59918,0,1,0,14.79492,17.29248l70.93359-75.665Z"/></g><g class="cls-34"><path d="M26.98,104.99793a15.97413,15.97413,0,1,0,20.37549,23.814L145.044,24.6073Z"/><path d="M97.10844,110.33045a11.59918,11.59918,0,1,0,14.79492,17.29248l70.93359-75.665Z"/></g><g class="cls-35"><path d="M26.25589,104.30827a15.97413,15.97413,0,1,0,20.37549,23.814L144.31985,23.91765Z"/><path d="M96.3843,109.64079a11.59918,11.59918,0,1,0,14.79492,17.29248l70.93359-75.665Z"/></g><g class="cls-36"><path d="M25.53175,103.61862a15.97413,15.97413,0,1,0,20.37549,23.814L143.59571,23.228Z"/><path d="M95.66017,108.95114a11.59918,11.59918,0,1,0,14.79492,17.29248l70.93359-75.665Z"/></g><g class="cls-37"><path d="M24.80761,102.929a15.97413,15.97413,0,1,0,20.37549,23.814L142.87157,22.53834Z"/><path d="M94.936,108.26148A11.59918,11.59918,0,1,0,109.73095,125.554l70.93359-75.665Z"/></g><g class="cls-38"><path d="M24.08347,102.23931a15.97413,15.97413,0,1,0,20.37549,23.814L142.14744,21.84868Z"/><path d="M94.21189,107.57183a11.59918,11.59918,0,1,0,14.79492,17.29248l70.93359-75.665Z"/></g><g class="cls-39"><path d="M23.35933,101.54965a15.97413,15.97413,0,1,0,20.37549,23.814L141.4233,21.159Z"/><path d="M93.48775,106.88217a11.59918,11.59918,0,1,0,14.79492,17.29248l70.93359-75.665Z"/></g><g class="cls-40"><path d="M22.6352,100.86a15.97413,15.97413,0,1,0,20.37549,23.814L140.69916,20.46937Z"/><path d="M92.76361,106.19252A11.59918,11.59918,0,1,0,107.55854,123.485L178.49213,47.82Z"/></g><g class="cls-41"><path d="M21.91106,100.17034a15.97413,15.97413,0,1,0,20.37549,23.814L139.975,19.77972Z"/><path d="M92.03948,105.50286a11.59918,11.59918,0,1,0,14.79492,17.29248L177.768,47.1303Z"/></g><g class="cls-42"><path d="M21.18692,99.48069a15.97413,15.97413,0,1,0,20.37549,23.814L139.25089,19.09006Z"/><path d="M91.31534,104.81321a11.59918,11.59918,0,1,0,14.79492,17.29248l70.93359-75.665Z"/></g><g class="cls-43"><path d="M20.46278,98.791a15.97413,15.97413,0,1,0,20.37549,23.814L138.52675,18.40041Z"/><path d="M90.5912,104.12355A11.59918,11.59918,0,1,0,105.38612,121.416l70.93359-75.665Z"/></g><g class="cls-44"><path d="M19.73864,98.10138a15.97413,15.97413,0,1,0,20.37549,23.814L137.80261,17.71075Z"/><path d="M89.86706,103.4339A11.59918,11.59918,0,1,0,104.662,120.72638l70.93359-75.665Z"/></g><g class="cls-45"><path d="M19.01451,97.41172A15.97413,15.97413,0,1,0,39.39,121.22569L137.07847,17.0211Z"/><path d="M89.14292,102.74424a11.59918,11.59918,0,1,0,14.79492,17.29248l70.93359-75.665Z"/></g><g class="cls-46"><path d="M18.29037,96.72207a15.97413,15.97413,0,1,0,20.37549,23.814L136.35433,16.33144Z"/><path d="M88.41879,102.05459a11.59918,11.59918,0,1,0,14.79492,17.29248L174.1473,43.682Z"/></g><g class="cls-47"><path d="M17.56623,96.03241a15.97413,15.97413,0,1,0,20.37549,23.814L135.6302,15.64179Z"/><path d="M87.69465,101.36493a11.59918,11.59918,0,1,0,14.79492,17.29248l70.93359-75.665Z"/></g><g class="cls-48"><path d="M16.84209,95.34276a15.97413,15.97413,0,1,0,20.37549,23.814L134.90606,14.95213Z"/><path d="M86.97051,100.67528a11.59918,11.59918,0,1,0,14.79492,17.29248l70.93359-75.665Z"/></g><g class="cls-49"><path d="M16.118,94.6531a15.97413,15.97413,0,1,0,20.37549,23.814L134.18192,14.26248Z"/><path d="M86.24637,99.98562a11.59918,11.59918,0,1,0,14.79492,17.29248l70.93359-75.665Z"/></g><g class="cls-50"><path d="M15.39382,93.96345a15.97413,15.97413,0,1,0,20.37549,23.814L133.45778,13.57282Z"/><path d="M85.52223,99.296a11.59918,11.59918,0,1,0,14.79492,17.29248l70.93359-75.665Z"/></g><g class="cls-51"><path d="M14.66968,93.27379a15.97413,15.97413,0,1,0,20.37549,23.814L132.73364,12.88317Z"/><path d="M84.7981,98.60631A11.59918,11.59918,0,1,0,99.593,115.89879l70.93359-75.665Z"/></g><g class="cls-52"><path d="M13.94554,92.58414A15.97413,15.97413,0,1,0,34.321,116.3981L132.00951,12.19351Z"/><path d="M84.074,97.91665a11.59918,11.59918,0,1,0,14.79492,17.29248l70.93359-75.665Z"/></g><g class="cls-53"><path d="M13.2214,91.89448a15.97413,15.97413,0,1,0,20.37549,23.814L131.28537,11.50385Z"/><path d="M83.34982,97.227a11.59918,11.59918,0,1,0,14.79492,17.29248l70.93359-75.665Z"/></g><g class="cls-54"><path d="M12.49727,91.20482a15.97413,15.97413,0,1,0,20.37549,23.814L130.56123,10.8142Z"/><path d="M82.62568,96.53734A11.59918,11.59918,0,1,0,97.4206,113.82982l70.93359-75.665Z"/></g><g class="cls-55"><path d="M11.77313,90.51517a15.97413,15.97413,0,1,0,20.37549,23.814L129.83709,10.12454Z"/><path d="M81.90155,95.84769a11.59918,11.59918,0,1,0,14.79492,17.29248l70.93359-75.665Z"/></g><g class="cls-56"><path d="M11.049,89.82551a15.97413,15.97413,0,1,0,20.37549,23.814L129.113,9.43489Z"/><path d="M81.17741,95.158a11.59918,11.59918,0,1,0,14.79492,17.29248l70.93359-75.665Z"/></g><g class="cls-57"><path d="M10.32485,89.13586a15.97413,15.97413,0,1,0,20.37549,23.814L128.38882,8.74523Z"/><path d="M80.45327,94.46838a11.59918,11.59918,0,1,0,14.79492,17.29248l70.93359-75.665Z"/></g><g class="cls-58"><path d="M9.60071,88.4462a15.97413,15.97413,0,1,0,20.37549,23.814L127.66468,8.05558Z"/><path d="M79.72913,93.77872A11.59918,11.59918,0,1,0,94.52405,111.0712l70.93359-75.665Z"/></g><g class="cls-59"><path d="M8.87658,87.75655a15.97413,15.97413,0,1,0,20.37549,23.814L126.94054,7.36592Z"/><path d="M79.005,93.08907a11.59918,11.59918,0,1,0,14.79492,17.29248l70.93359-75.665Z"/></g><path d="M8.15244,87.06689a15.97413,15.97413,0,1,0,20.37549,23.814L126.2164,6.67627Z"/><path d="M78.28086,92.39941a11.59918,11.59918,0,1,0,14.79492,17.29248l70.93359-75.665Z"/></g><g id="Comet2"><path class="cls-60" d="M126.21639,6.6763,8.15239,87.0669a15.97415,15.97415,0,1,0,20.3755,23.814Z"/><path class="cls-61" d="M112.68219,18.2563,9.19829,88.7773a13.95682,13.95682,0,1,0,17.8008,20.8057Z"/><path class="cls-62" d="M88.63239,38.833,10.41269,92.0654a10.60334,10.60334,0,1,0,13.5254,15.8096Z"/><circle class="cls-63" cx="16.38339" cy="100.64782" r="8.08411" transform="translate(-61.49793 34.82306) rotate(-40.55025)"/></g><g id="Comet1"><path class="cls-60" d="M164.00939,34.0269,78.28089,92.3994a11.59918,11.59918,0,1,0,14.7949,17.2925Z"/><path class="cls-61" d="M154.18129,42.4355,79.03969,93.6421a10.13415,10.13415,0,1,0,12.9257,15.1069Z"/><path class="cls-62" d="M136.71839,57.3765,79.92149,96.0293a7.69959,7.69959,0,1,0,9.8223,11.4795Z"/><circle class="cls-63" cx="84.25767" cy="102.26097" r="5.86977" transform="translate(-46.24637 79.34031) rotate(-40.5519)"/></g><g id="Star"><path class="cls-63" d="M14.97619,6.6763A6.67669,6.67669,0,0,1,8.29939,0a6.6766,6.6766,0,0,1-6.6767,6.6763,6.67662,6.67662,0,0,1,6.6767,6.6767A6.67671,6.67671,0,0,1,14.97619,6.6763Z"/><path class="cls-63" d="M57.37849,156.3687a6.67626,6.67626,0,0,1-6.6763-6.6763,6.67617,6.67617,0,0,1-6.6762,6.6763,6.67652,6.67652,0,0,1,6.6762,6.6767A6.6766,6.6766,0,0,1,57.37849,156.3687Z"/><path class="cls-63" d="M154.18129,108.1313a6.67671,6.67671,0,0,1-6.6768-6.6767,6.67585,6.67585,0,0,1-6.6758,6.6767,6.67551,6.67551,0,0,1,6.6758,6.6763A6.67637,6.67637,0,0,1,154.18129,108.1313Z"/></g></g></g></svg>