<svg xmlns="http://www.w3.org/2000/svg" viewBox="0 0 236.50745 155.7322"><defs><style>.cls-1{fill:#fff;}.cls-2{opacity:0.3;}.cls-3{opacity:0;}.cls-4{opacity:0.02;}.cls-5{opacity:0.04;}.cls-6{opacity:0.06;}.cls-7{opacity:0.08;}.cls-8{opacity:0.1;}.cls-9{opacity:0.12;}.cls-10{opacity:0.14;}.cls-11{opacity:0.16;}.cls-12{opacity:0.18;}.cls-13{opacity:0.2;}.cls-14{opacity:0.22;}.cls-15{opacity:0.24;}.cls-16{opacity:0.26;}.cls-17{opacity:0.28;}.cls-18{opacity:0.3;}.cls-19{opacity:0.32;}.cls-20{opacity:0.34;}.cls-21{opacity:0.36;}.cls-22{opacity:0.38;}.cls-23{opacity:0.4;}.cls-24{opacity:0.42;}.cls-25{opacity:0.44;}.cls-26{opacity:0.46;}.cls-27{opacity:0.48;}.cls-28{opacity:0.5;}.cls-29{opacity:0.52;}.cls-30{opacity:0.54;}.cls-31{opacity:0.56;}.cls-32{opacity:0.58;}.cls-33{opacity:0.6;}.cls-34{opacity:0.62;}.cls-35{opacity:0.64;}.cls-36{opacity:0.66;}.cls-37{opacity:0.68;}.cls-38{opacity:0.7;}.cls-39{opacity:0.72;}.cls-40{opacity:0.74;}.cls-41{opacity:0.76;}.cls-42{opacity:0.78;}.cls-43{opacity:0.8;}.cls-44{opacity:0.82;}.cls-45{opacity:0.84;}.cls-46{opacity:0.86;}.cls-47{opacity:0.88;}.cls-48{opacity:0.9;}.cls-49{opacity:0.92;}.cls-50{opacity:0.94;}.cls-51{opacity:0.96;}.cls-52{opacity:0.98;}.cls-53{fill:#ff886e;}.cls-54{fill:#ffbd66;}.cls-55{fill:#ff5b74;}</style></defs><title>Asset 11</title><g id="Layer_2" data-name="Layer 2"><g id="Layer_3" data-name="Layer 3"><g id="Star"><path class="cls-1" d="M40.06144,16.53293a5.11678,5.11678,0,0,1-5.11615-5.11615A5.11614,5.11614,0,0,1,29.829,16.53293a5.11626,5.11626,0,0,1,5.11627,5.11673A5.11691,5.11691,0,0,1,40.06144,16.53293Z"/><path class="cls-1" d="M121.82646,5.11685A5.11626,5.11626,0,0,1,116.7103,0a5.117,5.117,0,0,1-5.11615,5.11685A5.11649,5.11649,0,0,1,116.7103,10.233,5.11574,5.11574,0,0,1,121.82646,5.11685Z"/><path class="cls-1" d="M87.06293,37.82569A5.11626,5.11626,0,0,1,81.94666,32.709a5.117,5.117,0,0,1-5.11615,5.11673,5.117,5.117,0,0,1,5.11615,5.11673A5.11626,5.11626,0,0,1,87.06293,37.82569Z"/><path class="cls-1" d="M84.6217,122.43938a5.11715,5.11715,0,0,1-5.11732-5.11673,5.11634,5.11634,0,0,1-5.11627,5.11673,5.11621,5.11621,0,0,1,5.11627,5.11615A5.117,5.117,0,0,1,84.6217,122.43938Z"/><path class="cls-1" d="M168.35122,145.4992a5.11713,5.11713,0,0,1-5.11732-5.11627,5.11614,5.11614,0,0,1-5.11615,5.11627,5.11574,5.11574,0,0,1,5.11615,5.11615A5.11673,5.11673,0,0,1,168.35122,145.4992Z"/><path class="cls-1" d="M54.48959,150.61535a5.11574,5.11574,0,0,1-5.11615-5.11615,5.11649,5.11649,0,0,1-5.11615,5.11615,5.117,5.117,0,0,1,5.11615,5.11685A5.11626,5.11626,0,0,1,54.48959,150.61535Z"/><path class="cls-1" d="M203.88782,109.111a5.11641,5.11641,0,0,1-5.11627-5.11569,5.11564,5.11564,0,0,1-5.11615,5.11569,5.11616,5.11616,0,0,1,5.11615,5.11673A5.11693,5.11693,0,0,1,203.88782,109.111Z"/></g><g class="cls-2"><path class="cls-3" d="M183.72113,125.32617l-1.52863,1.1748-1.31775-.42609-35.70007-21.80835,1.91949-.62665-3.79266-2.60162,53.52765-52.23395,2.82855,3.88232.22644-.7663,24.59222,36.28857.303.85352Zm48.4906-37.31238-.008-5.21039-3.57892,2.751L202.63275,47.2005l3.45435-1.12756L201.79028,43.125l-.00677-5.20984-3.57916,2.75073-.03326-.04907-.36011.35144-.15857.12183L192.695,39.487l1.707,4.80768L138.80853,98.543l-.14917.11462-4.95844-1.60309L134.60461,99.6l-26.57043.38959-.00739-4.76971-4.131,3.1756-4.9574-1.60309,1.19727,3.374-28.70453.8299-.00653-4.23114-4.12994,3.175-4.95844-1.60248,1.74323,4.90961-1.50592,2.079L43.80316,124.63776l-2.03381,1.563-4.9574-1.60248,1.74323,4.90961L35.5,133.7276l5.20819-.14075,3.06763,4.21063,1.47534-4.99658,4.95288-1.61725-3.53772-2.4278L66.773,108.06921l2.5271,3.46741,1.47534-4.99646,2.01428-.65771,25.39581-.73444-.56012.77356,5.20807-.14075,3.06763,4.21118,1.47662-4.997.231-.07544,25.97083-.38043-1.19165,1.6452,5.20929-.14075,3.06757,4.21063.74365-2.51849,37.1297,22.68036-2.616,3.61169,5.20819-.1413,3.06879,4.21118,1.47534-4.99658,4.95276-1.61725-3.62433-2.48718L227.14172,93.545l2.93744,4.0304,1.4754-4.99707,4.95288-1.61664Z"/><path class="cls-4" d="M183.01113,124.61617l-1.52863,1.1748-1.31775-.42609-35.70007-21.80835,1.91949-.62665-3.79266-2.60162,53.52765-52.23395,2.82855,3.88232.22644-.7663,24.59222,36.28857.303.85352Zm48.4906-37.31238-.008-5.21039-3.57892,2.751L201.92275,46.4905l3.45435-1.12756L201.08028,42.415l-.00677-5.20984-3.57916,2.75073-.03326-.04907-.36011.35144-.15857.12183L191.985,38.777l1.707,4.80768L138.09853,97.833l-.14917.11462-4.95843-1.60309.90369,2.54541-26.57043.38959-.00739-4.76971-4.131,3.1756-4.9574-1.60309,1.19727,3.374-28.70453.82989-.00653-4.23114-4.12994,3.175-4.95844-1.60248,1.74323,4.90961-1.50592,2.079L43.09316,123.92776l-2.03381,1.563-4.9574-1.60248,1.74323,4.90961L34.79,133.0176l5.20819-.14075,3.06763,4.21063,1.47534-4.99658,4.95288-1.61725-3.53772-2.4278L66.063,107.35921l2.5271,3.46741,1.47534-4.99646,2.01428-.65771,25.39581-.73444-.56012.77356,5.20807-.14075,3.06763,4.21118,1.47662-4.997.231-.07544,25.97083-.38043-1.19165,1.6452,5.20929-.14075,3.06757,4.21063.74365-2.51849,37.1297,22.68036-2.616,3.61169,5.20819-.1413,3.06879,4.21118,1.47534-4.99658,4.95276-1.61725-3.62433-2.48718L226.43172,92.835l2.93744,4.0304,1.4754-4.99707,4.95288-1.61664Z"/><path class="cls-5" d="M182.30113,123.90617l-1.52863,1.1748-1.31775-.42609-35.70007-21.80835,1.91949-.62665-3.79266-2.60162,53.52765-52.23395,2.82855,3.88232.22644-.7663,24.59222,36.28857.303.85352Zm48.4906-37.31238-.008-5.21039-3.57892,2.751L201.21275,45.7805l3.45435-1.12756L200.37028,41.705l-.00677-5.20984-3.57916,2.75073-.03326-.04907-.36011.35144-.15857.12183L191.275,38.067l1.707,4.80768L137.38853,97.123l-.14917.11462-4.95844-1.60309.90369,2.54541-26.57043.38959-.00739-4.76971-4.131,3.1756-4.9574-1.60309,1.19727,3.374-28.70453.8299-.00653-4.23114-4.12994,3.175-4.95844-1.60248,1.74323,4.90961-1.50592,2.079L42.38316,123.21776l-2.03381,1.563-4.9574-1.60248,1.74323,4.90961L34.08,132.3076l5.20819-.14075,3.06763,4.21063,1.47534-4.99658,4.95288-1.61725-3.53772-2.4278L65.353,106.64921l2.5271,3.46741,1.47534-4.99646,2.01428-.65771,25.39581-.73444-.56012.77356,5.20807-.14075,3.06763,4.21118,1.47662-4.997.231-.07544,25.97083-.38043-1.19165,1.6452,5.20929-.14075,3.06757,4.21063.74365-2.51849,37.1297,22.68036-2.616,3.61169,5.20819-.1413,3.06879,4.21118,1.47534-4.99658,4.95276-1.61725-3.62433-2.48718L225.72172,92.125l2.93744,4.0304,1.4754-4.99707,4.95288-1.61664Z"/><path class="cls-6" d="M181.59113,123.19617l-1.52863,1.1748-1.31775-.42609-35.70007-21.80835,1.91949-.62665-3.79266-2.60162,53.52765-52.23395,2.82855,3.88232.22644-.7663,24.59222,36.28857.303.85352Zm48.4906-37.31238-.008-5.21039-3.57892,2.751L200.50275,45.0705l3.45435-1.12756L199.66028,40.995l-.00677-5.20984-3.57916,2.75073-.03326-.04907-.36011.35144-.15857.12183L190.565,37.357l1.707,4.80768L136.67853,96.413l-.14917.11462-4.95844-1.60309.90369,2.54541-26.57043.38959-.00739-4.76971-4.131,3.1756-4.9574-1.60309,1.19727,3.374-28.70453.8299-.00653-4.23114-4.12994,3.175-4.95844-1.60248,1.74323,4.90961-1.50592,2.079L41.67316,122.50776l-2.03381,1.563-4.9574-1.60248,1.74323,4.90961L33.37,131.5976l5.20819-.14075,3.06763,4.21063,1.47534-4.99658,4.95288-1.61725-3.53772-2.4278L64.643,105.93921l2.5271,3.46741,1.47534-4.99646,2.01428-.65771,25.39581-.73444-.56012.77356,5.20807-.14075,3.06763,4.21118,1.47662-4.997.231-.07544,25.97083-.38043-1.19165,1.6452,5.20929-.14075,3.06757,4.21063.74365-2.51849,37.1297,22.68036-2.616,3.61169,5.20819-.1413,3.06879,4.21118,1.47534-4.99658,4.95276-1.61725-3.62433-2.48718L225.01172,91.415l2.93744,4.0304,1.4754-4.99707,4.95288-1.61664Z"/><path class="cls-7" d="M180.88113,122.48617l-1.52863,1.1748-1.31775-.42609-35.70007-21.80835,1.91949-.62665-3.79266-2.60162,53.52765-52.23395,2.82855,3.88232.22644-.7663,24.59222,36.28857.303.85352Zm48.4906-37.31238-.008-5.21039-3.57892,2.751L199.79275,44.3605l3.45435-1.12756L198.95028,40.285l-.00677-5.20984-3.57916,2.75073-.03326-.04907-.36011.35144-.15857.12183L189.855,36.647l1.707,4.80768L135.96853,95.703l-.14917.11462-4.95844-1.60309.90369,2.54541-26.57043.38959-.00739-4.76971-4.131,3.1756-4.9574-1.60309,1.19727,3.374-28.70453.8299-.00653-4.23114-4.12994,3.175-4.95844-1.60248,1.74323,4.90961-1.50592,2.079L40.96316,121.79776l-2.03381,1.563-4.9574-1.60248,1.74323,4.90961L32.66,130.8876l5.20819-.14075,3.06763,4.21063,1.47534-4.99658,4.95288-1.61725-3.53772-2.4278L63.933,105.22921l2.5271,3.46741,1.47534-4.99646,2.01428-.65771,25.39581-.73444-.56012.77356,5.20807-.14075,3.06763,4.21118,1.47662-4.997.231-.07544,25.97083-.38043-1.19165,1.6452,5.20929-.14075,3.06757,4.21063.74365-2.51849,37.1297,22.68036-2.616,3.61169,5.20819-.1413,3.06879,4.21118,1.47534-4.99658,4.95276-1.61725-3.62433-2.48718L224.30172,90.705l2.93744,4.0304,1.4754-4.99707,4.95288-1.61664Z"/><path class="cls-8" d="M180.17113,121.77617l-1.52863,1.1748-1.31775-.42609-35.70007-21.80835,1.91949-.62665-3.79266-2.60162,53.52765-52.23395,2.82855,3.88232.22644-.7663,24.59222,36.28857.303.85352Zm48.4906-37.31238-.008-5.21039-3.57892,2.751L199.08275,43.6505l3.45435-1.12756L198.24028,39.575l-.00677-5.20984-3.57916,2.75073-.03326-.04907-.36011.35144-.15857.12183L189.145,35.937l1.707,4.80768L135.25853,94.993l-.14917.11462-4.95844-1.60309.90369,2.54541-26.57043.38959-.00739-4.76971-4.131,3.1756-4.9574-1.60309,1.19727,3.374-28.70453.8299-.00653-4.23114-4.12994,3.175-4.95844-1.60248,1.74323,4.90961-1.50592,2.079L40.25316,121.08776l-2.03381,1.563-4.9574-1.60248,1.74323,4.90961L31.95,130.1776l5.20819-.14075,3.06763,4.21063,1.47534-4.99658,4.95288-1.61725-3.53772-2.4278L63.223,104.51921l2.5271,3.46741,1.47534-4.99646,2.01428-.65771,25.39581-.73444-.56012.77356,5.20807-.14075,3.06763,4.21118,1.47662-4.997.231-.07544,25.97083-.38043-1.19165,1.6452,5.20929-.14075,3.06757,4.21063.74365-2.51849,37.1297,22.68036-2.616,3.61169,5.20819-.1413,3.06879,4.21118,1.47534-4.99658,4.95276-1.61725-3.62433-2.48718L223.59172,89.995l2.93744,4.0304,1.4754-4.99707,4.95288-1.61664Z"/><path class="cls-9" d="M179.46113,121.06617l-1.52863,1.1748-1.31775-.42609-35.70007-21.80835,1.91949-.62665-3.79266-2.60162,53.52765-52.23395,2.82855,3.88232.22644-.7663,24.59222,36.28857.303.85352Zm48.4906-37.31238-.008-5.21039-3.57892,2.751L198.37275,42.9405l3.45435-1.12756L197.53028,38.865l-.00677-5.20984-3.57916,2.75073-.03326-.04907-.36011.35144-.15857.12183L188.435,35.227l1.707,4.80768L134.54853,94.283l-.14917.11462-4.95844-1.60309.90369,2.54541-26.57043.38959-.00739-4.76971-4.131,3.1756-4.9574-1.60309,1.19727,3.374-28.70453.8299-.00653-4.23114-4.12994,3.175-4.95844-1.60248,1.74323,4.90961-1.50592,2.079L39.54316,120.37776l-2.03381,1.563-4.9574-1.60248,1.74323,4.90961L31.24,129.4676l5.20819-.14075,3.06763,4.21063,1.47534-4.99658,4.95288-1.61725-3.53772-2.4278L62.513,103.80921l2.5271,3.46741,1.47534-4.99646,2.01428-.65771,25.39581-.73444-.56012.77356,5.20807-.14075,3.06763,4.21118,1.47662-4.997.231-.07544,25.97083-.38043-1.19165,1.6452,5.20929-.14075,3.06757,4.21063.74365-2.51849,37.1297,22.68036-2.616,3.61169,5.20819-.1413,3.06879,4.21118,1.47534-4.99658,4.95276-1.61725-3.62433-2.48718L222.88172,89.285l2.93744,4.0304,1.4754-4.99707,4.95288-1.61664Z"/><path class="cls-10" d="M178.75113,120.35617l-1.52863,1.1748-1.31775-.42609L140.20468,99.29654l1.91949-.62665-3.79266-2.60162,53.52765-52.23395,2.82855,3.88232.22644-.7663,24.59222,36.28857.303.85352Zm48.4906-37.31238-.008-5.21039-3.57892,2.751L197.66275,42.2305l3.45435-1.12756L196.82028,38.155l-.00677-5.20984-3.57916,2.75073-.03326-.04907-.36011.35144-.15857.12183L187.725,34.517l1.707,4.80768L133.83853,93.573l-.14917.11462-4.95844-1.60309.90369,2.54541-26.57043.38959-.00739-4.76971-4.131,3.1756-4.9574-1.60309,1.19727,3.374-28.70453.8299-.00653-4.23114-4.12994,3.175-4.95844-1.60248,1.74323,4.90961-1.50592,2.079L38.83316,119.66776l-2.03381,1.563-4.9574-1.60248,1.74323,4.90961L30.53,128.7576l5.20819-.14075,3.06763,4.21063,1.47534-4.99658,4.95288-1.61725-3.53772-2.4278L61.803,103.09921l2.5271,3.46741,1.47534-4.99646,2.01428-.65771,25.39581-.73444-.56012.77356,5.20807-.14075,3.06763,4.21118,1.47662-4.997.231-.07544,25.97083-.38043-1.19165,1.6452,5.20929-.14075,3.06757,4.21063.74365-2.51849,37.1297,22.68036-2.616,3.61169,5.20819-.1413,3.06879,4.21118,1.47534-4.99658,4.95276-1.61725-3.62433-2.48718L222.17172,88.575l2.93744,4.0304,1.4754-4.99707,4.95288-1.61664Z"/><path class="cls-11" d="M178.04113,119.64617l-1.52863,1.1748-1.31775-.42609L139.49468,98.58654l1.91949-.62665-3.79266-2.60162,53.52765-52.23395,2.82855,3.88232.22644-.7663,24.59222,36.28857.303.85352Zm48.4906-37.31238-.008-5.21039-3.57892,2.751L196.95275,41.5205l3.45435-1.12756L196.11028,37.445l-.00677-5.20984-3.57916,2.75073-.03326-.04907-.36011.35144-.15857.12183L187.015,33.807l1.707,4.80768L133.12853,92.863l-.14917.11462-4.95844-1.60309.90369,2.54541-26.57043.38959-.00739-4.76971-4.131,3.1756-4.9574-1.60309,1.19727,3.374-28.70453.8299-.00653-4.23114-4.12994,3.175-4.95844-1.60248,1.74323,4.90961-1.50592,2.079L38.12316,118.95776l-2.03381,1.563-4.9574-1.60248,1.74323,4.90961L29.82,128.0476l5.20819-.14075,3.06763,4.21063,1.47534-4.99658,4.95288-1.61725-3.53772-2.4278L61.093,102.38921l2.5271,3.46741,1.47534-4.99646,2.01428-.65771L92.50555,99.468l-.56012.77356,5.20807-.14075,3.06763,4.21118,1.47662-4.997.231-.07544,25.97083-.38043-1.19165,1.6452,5.20929-.14075,3.06757,4.21063.74365-2.51849,37.1297,22.68036-2.616,3.61169,5.20819-.1413,3.06879,4.21118,1.47534-4.99658,4.95276-1.61725-3.62433-2.48718L221.46172,87.865l2.93744,4.0304,1.4754-4.99707,4.95288-1.61664Z"/><path class="cls-12" d="M177.33113,118.93617l-1.52863,1.1748-1.31775-.42609L138.78468,97.87654l1.91949-.62665-3.79266-2.60162,53.52765-52.23395,2.82855,3.88232.22644-.7663,24.59222,36.28857.303.85352Zm48.4906-37.31238-.008-5.21039-3.57892,2.751L196.24275,40.8105l3.45435-1.12756L195.40028,36.735l-.00677-5.20984-3.57916,2.75073-.03326-.04907-.36011.35144-.15857.12183L186.305,33.097l1.707,4.80768L132.41853,92.153l-.14917.11462-4.95844-1.60309.90369,2.54541-26.57043.38959-.00739-4.76971-4.131,3.1756-4.9574-1.60309,1.19727,3.374-28.70453.8299-.00653-4.23114-4.12994,3.175-4.95844-1.60248,1.74323,4.90961-1.50592,2.079L37.41316,118.24776l-2.03381,1.563-4.9574-1.60248,1.74323,4.90961L29.11,127.3376l5.20819-.14075,3.06763,4.21063,1.47534-4.99658,4.95288-1.61725-3.53772-2.4278L60.383,101.67921l2.5271,3.46741,1.47534-4.99646,2.01428-.65771L91.79555,98.758l-.56012.77356,5.20807-.14075,3.06763,4.21118,1.47662-4.997.231-.07544,25.97083-.38043-1.19165,1.6452,5.20929-.14075,3.06757,4.21063.74365-2.51849,37.1297,22.68036-2.616,3.61169,5.20819-.1413,3.06879,4.21118,1.47534-4.99658,4.95276-1.61725-3.62433-2.48718L220.75172,87.155l2.93744,4.0304,1.4754-4.99707,4.95288-1.61664Z"/><path class="cls-13" d="M176.62113,118.22617l-1.52863,1.1748-1.31775-.42609L138.07468,97.16654l1.91949-.62665-3.79266-2.60162,53.52765-52.23395,2.82855,3.88232.22644-.7663,24.59222,36.28857.303.85352Zm48.4906-37.31238-.008-5.21039-3.57892,2.751L195.53275,40.1005l3.45435-1.12756L194.69028,36.025l-.00677-5.20984-3.57916,2.75073-.03326-.04907-.36011.35144-.15857.12183L185.595,32.387l1.707,4.80768L131.70853,91.443l-.14917.11462-4.95844-1.60309L127.50461,92.5l-26.57043.38959-.00739-4.76971-4.131,3.1756-4.9574-1.60309,1.19727,3.374-28.70453.8299-.00653-4.23114-4.12994,3.175-4.95844-1.60248,1.74323,4.90961-1.50592,2.079L36.70316,117.53776l-2.03381,1.563-4.9574-1.60248,1.74323,4.90961L28.4,126.6276l5.20819-.14075,3.06763,4.21063,1.47534-4.99658,4.95288-1.61725-3.53772-2.4278L59.673,100.96921l2.5271,3.46741,1.47534-4.99646,2.01428-.65771L91.08555,98.048l-.56012.77356,5.20807-.14075,3.06763,4.21118,1.47662-4.997.231-.07544,25.97083-.38043-1.19165,1.6452,5.20929-.14075,3.06757,4.21063.74365-2.51849,37.1297,22.68036-2.616,3.61169,5.20819-.1413,3.06879,4.21118,1.47534-4.99658,4.95276-1.61725-3.62433-2.48718L220.04172,86.445l2.93744,4.0304,1.4754-4.99707,4.95288-1.61664Z"/><path class="cls-14" d="M175.91113,117.51617l-1.52863,1.1748-1.31775-.42609L137.36468,96.45654l1.91949-.62665-3.79266-2.60162,53.52765-52.23395,2.82855,3.88232.22644-.7663,24.59222,36.28857.303.85352Zm48.4906-37.31238-.008-5.21039-3.57892,2.751L194.82275,39.3905l3.45435-1.12756L193.98028,35.315l-.00677-5.20984-3.57916,2.75073-.03326-.04907-.36011.35144-.15857.12183L184.885,31.677l1.707,4.80768L130.99853,90.733l-.14917.11462-4.95844-1.60309.90369,2.54541-26.57043.38959-.00739-4.76971-4.131,3.1756-4.9574-1.60309,1.19727,3.374-28.70453.8299-.00653-4.23114-4.12994,3.175-4.95844-1.60248,1.74323,4.90961-1.50592,2.079L35.99316,116.82776l-2.03381,1.563-4.9574-1.60248,1.74323,4.90961L27.69,125.9176l5.20819-.14075,3.06763,4.21063,1.47534-4.99658,4.95288-1.61725-3.53772-2.4278L58.963,100.25921l2.5271,3.46741,1.47534-4.99646,2.01428-.65771L90.37555,97.338l-.56012.77356,5.20807-.14075,3.06763,4.21118,1.47662-4.997.231-.07544,25.97083-.38043-1.19165,1.6452,5.20929-.14075,3.06757,4.21063.74365-2.51849,37.1297,22.68036-2.616,3.61169,5.20819-.1413,3.06879,4.21118,1.47534-4.99658,4.95276-1.61725-3.62433-2.48718L219.33172,85.735l2.93744,4.0304,1.4754-4.99707,4.95288-1.61664Z"/><path class="cls-15" d="M175.20113,116.80617l-1.52863,1.1748-1.31775-.42609L136.65468,95.74654l1.91949-.62665-3.79266-2.60162,53.52765-52.23395,2.82855,3.88232.22644-.7663,24.59222,36.28857.303.85352Zm48.4906-37.31238-.008-5.21039-3.57892,2.751L194.11275,38.6805l3.45435-1.12756L193.27028,34.605l-.00677-5.20984-3.57916,2.75073-.03326-.04907-.36011.35144-.15857.12183L184.175,30.967l1.707,4.80768L130.28853,90.023l-.14917.11462-4.95844-1.60309.90369,2.54541-26.57043.38959-.00739-4.76971-4.131,3.1756-4.9574-1.60309,1.19727,3.374-28.70453.8299-.00653-4.23114-4.12994,3.175-4.95844-1.60248,1.74323,4.90961-1.50592,2.079L35.28316,116.11776l-2.03381,1.563-4.9574-1.60248,1.74323,4.90961L26.98,125.2076l5.20819-.14075,3.06763,4.21063,1.47534-4.99658,4.95288-1.61725-3.53772-2.4278L58.253,99.54921l2.5271,3.46741,1.47534-4.99646,2.01428-.65771L89.66555,96.628l-.56012.77356,5.20807-.14075,3.06763,4.21118,1.47662-4.997.231-.07544,25.97083-.38043-1.19165,1.6452,5.20929-.14075,3.06757,4.21063.74365-2.51849,37.1297,22.68036-2.616,3.61169,5.20819-.1413,3.06879,4.21118,1.47534-4.99658,4.95276-1.61725-3.62433-2.48718L218.62172,85.025l2.93744,4.0304,1.4754-4.99707,4.95288-1.61664Z"/><path class="cls-16" d="M174.49113,116.09617l-1.52863,1.1748-1.31775-.42609L135.94468,95.03654l1.91949-.62665-3.79266-2.60162,53.52765-52.23395,2.82855,3.88232.22644-.7663,24.59222,36.28857.303.85352Zm48.4906-37.31238-.008-5.21039-3.57892,2.751L193.40275,37.9705l3.45435-1.12756L192.56028,33.895l-.00677-5.20984-3.57916,2.75073-.03326-.04907-.36011.35144-.15857.12183L183.465,30.257l1.707,4.80768L129.57853,89.313l-.14917.11462-4.95844-1.60309.90369,2.54541-26.57043.38959-.00739-4.76971-4.131,3.1756-4.9574-1.60309,1.19727,3.374-28.70453.8299-.00653-4.23114-4.12994,3.175-4.95844-1.60248,1.74323,4.90961-1.50592,2.079L34.57316,115.40776l-2.03381,1.563-4.9574-1.60248,1.74323,4.90961L26.27,124.4976l5.20819-.14075,3.06763,4.21063,1.47534-4.99658,4.95288-1.61725-3.53772-2.4278L57.543,98.83921l2.5271,3.46741,1.47534-4.99646,2.01428-.65771L88.95555,95.918l-.56012.77356,5.20807-.14075,3.06763,4.21118,1.47662-4.997.231-.07544,25.97083-.38043-1.19165,1.6452,5.20929-.14075,3.06757,4.21063.74365-2.51849,37.1297,22.68036-2.616,3.61169,5.20819-.1413,3.06879,4.21118,1.47534-4.99658,4.95276-1.61725-3.62433-2.48718L217.91172,84.315l2.93744,4.0304,1.4754-4.99707,4.95288-1.61664Z"/><path class="cls-17" d="M173.78113,115.38617l-1.52863,1.1748-1.31775-.42609L135.23468,94.32654l1.91949-.62665-3.79266-2.60162,53.52765-52.23395,2.82855,3.88232.22644-.7663,24.59222,36.28857.303.85352Zm48.4906-37.31238-.008-5.21039-3.57892,2.751L192.69275,37.2605l3.45435-1.12756L191.85028,33.185l-.00677-5.20984-3.57916,2.75073-.03326-.04907-.36011.35144-.15857.12183L182.755,29.547l1.707,4.80768L128.86853,88.603l-.14917.11462-4.95844-1.60309.90369,2.54541-26.57043.38959-.00739-4.76971-4.131,3.1756-4.9574-1.60309,1.19727,3.374-28.70453.8299-.00653-4.23114-4.12994,3.175-4.95844-1.60248,1.74323,4.90961-1.50592,2.079L33.86316,114.69776l-2.03381,1.563-4.9574-1.60248,1.74323,4.90961L25.56,123.7876l5.20819-.14075,3.06763,4.21063,1.47534-4.99658,4.95288-1.61725-3.53772-2.4278L56.833,98.12921l2.5271,3.46741,1.47534-4.99646,2.01428-.65771L88.24555,95.208l-.56012.77356,5.20807-.14075,3.06763,4.21118,1.47662-4.997.231-.07544,25.97083-.38043-1.19165,1.6452,5.20929-.14075,3.06757,4.21063.74365-2.51849,37.1297,22.68036-2.616,3.61169,5.20819-.1413,3.06879,4.21118,1.47534-4.99658,4.95276-1.61725-3.62433-2.48718L217.20172,83.605l2.93744,4.0304,1.4754-4.99707,4.95288-1.61664Z"/><path class="cls-18" d="M173.07113,114.67617l-1.52863,1.1748-1.31775-.42609L134.52468,93.61654l1.91949-.62665-3.79266-2.60162,53.52765-52.23395,2.82855,3.88232.22644-.7663,24.59222,36.28857.303.85352Zm48.4906-37.31238-.008-5.21039-3.57892,2.751L191.98275,36.5505l3.45435-1.12756L191.14028,32.475l-.00677-5.20984-3.57916,2.75073-.03326-.04907-.36011.35144-.15857.12183L182.045,28.837l1.707,4.80768L128.15853,87.893l-.14917.11462-4.95844-1.60309.90369,2.54541-26.57043.38959-.00739-4.76971-4.131,3.1756-4.9574-1.60309,1.19727,3.374-28.70453.8299-.00653-4.23114-4.12994,3.175-4.95844-1.60248,1.74323,4.90961-1.50592,2.079L33.15316,113.98776l-2.03381,1.563-4.9574-1.60248,1.74323,4.90961L24.85,123.0776l5.20819-.14075,3.06763,4.21063,1.47534-4.99658,4.95288-1.61725-3.53772-2.4278L56.123,97.41921l2.5271,3.46741,1.47534-4.99646,2.01428-.65771L87.53555,94.498l-.56012.77356,5.20807-.14075L95.25112,99.342l1.47662-4.997.231-.07544,25.97083-.38043-1.19165,1.6452,5.20929-.14075,3.06757,4.21063.74365-2.51849,37.1297,22.68036-2.616,3.61169,5.20819-.1413,3.06879,4.21118,1.47534-4.99658,4.95276-1.61725-3.62433-2.48718L216.49172,82.895l2.93744,4.0304,1.4754-4.99707,4.95288-1.61664Z"/><path class="cls-19" d="M172.36113,113.96617l-1.52863,1.1748-1.31775-.42609L133.81468,92.90654l1.91949-.62665-3.79266-2.60162,53.52765-52.23395,2.82855,3.88232.22644-.7663,24.59222,36.28857.303.85352Zm48.4906-37.31238-.008-5.21039-3.57892,2.751L191.27275,35.8405l3.45435-1.12756L190.43028,31.765l-.00677-5.20984-3.57916,2.75073-.03326-.04907-.36011.35144-.15857.12183L181.335,28.127l1.707,4.80768L127.44853,87.183l-.14917.11462-4.95844-1.60309.90369,2.54541-26.57043.38959-.00739-4.76971-4.131,3.1756-4.9574-1.60309,1.19727,3.374-28.70453.8299-.00653-4.23114-4.12994,3.175-4.95844-1.60248,1.74323,4.90961-1.50592,2.079L32.44316,113.27776l-2.03381,1.563-4.9574-1.60248,1.74323,4.90961L24.14,122.3676l5.20819-.14075,3.06763,4.21063,1.47534-4.99658,4.95288-1.61725-3.53772-2.4278L55.413,96.70921l2.5271,3.46741,1.47534-4.99646,2.01428-.65771L86.82555,93.788l-.56012.77356,5.20807-.14075L94.54112,98.632l1.47662-4.997.231-.07544,25.97083-.38043-1.19165,1.6452,5.20929-.14075,3.06757,4.21063.74365-2.51849,37.1297,22.68036-2.616,3.61169,5.20819-.1413,3.06879,4.21118,1.47534-4.99658,4.95276-1.61725-3.62433-2.48718L215.78172,82.185l2.93744,4.0304,1.4754-4.99707,4.95288-1.61664Z"/><path class="cls-20" d="M171.65113,113.25617l-1.52863,1.1748-1.31775-.42609L133.10468,92.19654l1.91949-.62665-3.79266-2.60162,53.52765-52.23395,2.82855,3.88232.22644-.7663,24.59222,36.28857.303.85352Zm48.4906-37.31238-.008-5.21039-3.57892,2.751L190.56275,35.1305l3.45435-1.12756L189.72028,31.055l-.00677-5.20984-3.57916,2.75073-.03326-.04907-.36011.35144-.15857.12183L180.625,27.417l1.707,4.80768L126.73853,86.473l-.14917.11462-4.95844-1.60309.90369,2.54541-26.57043.38959-.00739-4.76971-4.131,3.1756-4.9574-1.60309,1.19727,3.374-28.70453.8299-.00653-4.23114-4.12994,3.175-4.95844-1.60248,1.74323,4.90961-1.50592,2.079L31.73316,112.56776l-2.03381,1.563-4.9574-1.60248,1.74323,4.90961L23.43,121.6576l5.20819-.14075,3.06763,4.21063,1.47534-4.99658,4.95288-1.61725-3.53772-2.4278L54.703,95.99921l2.5271,3.46741,1.47534-4.99646,2.01428-.65771L86.11555,93.078l-.56012.77356,5.20807-.14075L93.83112,97.922l1.47662-4.997.231-.07544,25.97083-.38043-1.19165,1.6452,5.20929-.14075,3.06757,4.21063.74365-2.51849,37.1297,22.68036-2.616,3.61169,5.20819-.1413,3.06879,4.21118,1.47534-4.99658,4.95276-1.61725-3.62433-2.48718L215.07172,81.475l2.93744,4.0304,1.4754-4.99707,4.95288-1.61664Z"/><path class="cls-21" d="M170.94113,112.54617l-1.52863,1.1748-1.31775-.42609L132.39468,91.48654l1.91949-.62665-3.79266-2.60162,53.52765-52.23395,2.82855,3.88232.22644-.7663,24.59222,36.28857.303.85352Zm48.4906-37.31238-.008-5.21039-3.57892,2.751L189.85275,34.4205l3.45435-1.12756L189.01028,30.345l-.00677-5.20984-3.57916,2.75073-.03326-.04907-.36011.35144-.15857.12183L179.915,26.707l1.707,4.80768L126.02853,85.763l-.14917.11462-4.95844-1.60309.90369,2.54541-26.57043.38959-.00739-4.76971-4.131,3.1756-4.9574-1.60309,1.19727,3.374-28.70453.8299-.00653-4.23114-4.12994,3.175-4.95844-1.60248,1.74323,4.90961-1.50592,2.079L31.02316,111.85776l-2.03381,1.563-4.9574-1.60248,1.74323,4.90961L22.72,120.9476l5.20819-.14075,3.06763,4.21063,1.47534-4.99658,4.95288-1.61725-3.53772-2.4278L53.993,95.28921l2.5271,3.46741,1.47534-4.99646,2.01428-.65771L85.40555,92.368l-.56012.77356,5.20807-.14075L93.12112,97.212l1.47662-4.997.231-.07544,25.97083-.38043-1.19165,1.6452,5.20929-.14075,3.06757,4.21063.74365-2.51849,37.1297,22.68036-2.616,3.61169,5.20819-.1413,3.06879,4.21118,1.47534-4.99658,4.95276-1.61725-3.62433-2.48718L214.36172,80.765l2.93744,4.0304,1.4754-4.99707,4.95288-1.61664Z"/><path class="cls-22" d="M170.23113,111.83617l-1.52863,1.1748-1.31775-.42609L131.68468,90.77654l1.91949-.62665-3.79266-2.60162,53.52765-52.23395,2.82855,3.88232.22644-.7663,24.59222,36.28857.303.85352Zm48.4906-37.31238-.008-5.21039-3.57892,2.751L189.14275,33.7105l3.45435-1.12756L188.30028,29.635l-.00677-5.20984-3.57916,2.75073-.03326-.04907-.36011.35144-.15857.12183L179.205,25.997l1.707,4.80768L125.31853,85.053l-.14917.11462-4.95844-1.60309.90369,2.54541-26.57043.38959-.00739-4.76971-4.131,3.1756-4.9574-1.60309,1.19727,3.374-28.70453.8299-.00653-4.23114-4.12994,3.175-4.95844-1.60248,1.74323,4.90961-1.50592,2.079L30.31316,111.14776l-2.03381,1.563-4.9574-1.60248,1.74323,4.90961L22.01,120.2376l5.20819-.14075,3.06763,4.21063,1.47534-4.99658,4.95288-1.61725-3.53772-2.4278L53.283,94.57921l2.5271,3.46741,1.47534-4.99646,2.01428-.65771L84.69555,91.658l-.56012.77356,5.20807-.14075L92.41112,96.502l1.47662-4.997.231-.07544,25.97083-.38043-1.19165,1.6452,5.20929-.14075,3.06757,4.21063.74365-2.51849,37.1297,22.68036-2.616,3.61169,5.20819-.1413,3.06879,4.21118,1.47534-4.99658,4.95276-1.61725-3.62433-2.48718L213.65172,80.055l2.93744,4.0304,1.4754-4.99707,4.95288-1.61664Z"/><path class="cls-23" d="M169.52113,111.12617l-1.52863,1.1748-1.31775-.42609L130.97468,90.06654l1.91949-.62665-3.79266-2.60162,53.52765-52.23395,2.82855,3.88232.22644-.7663,24.59222,36.28857.303.85352Zm48.4906-37.31238-.008-5.21039-3.57892,2.751L188.43275,33.0005l3.45435-1.12756L187.59028,28.925l-.00677-5.20984-3.57916,2.75073-.03326-.04907-.36011.35144-.15857.12183L178.495,25.287l1.707,4.80768L124.60853,84.343l-.14917.11462-4.95844-1.60309L120.40461,85.4l-26.57043.38959-.00739-4.76971-4.131,3.1756-4.9574-1.60309,1.19727,3.374-28.70453.8299-.00653-4.23114-4.12994,3.175-4.95844-1.60248,1.74323,4.90961-1.50592,2.079L29.60316,110.43776l-2.03381,1.563-4.9574-1.60248,1.74323,4.90961L21.3,119.5276l5.20819-.14075,3.06763,4.21063,1.47534-4.99658,4.95288-1.61725-3.53772-2.4278L52.573,93.86921l2.5271,3.46741,1.47534-4.99646,2.01428-.65771L83.98555,90.948l-.56012.77356,5.20807-.14075L91.70112,95.792l1.47662-4.997.231-.07544,25.97083-.38043-1.19165,1.6452,5.20929-.14075,3.06757,4.21063.74365-2.51849,37.1297,22.68036-2.616,3.61169,5.20819-.1413,3.06879,4.21118,1.47534-4.99658,4.95276-1.61725-3.62433-2.48718L212.94172,79.345l2.93744,4.0304,1.4754-4.99707,4.95288-1.61664Z"/><path class="cls-24" d="M168.81113,110.41617l-1.52863,1.1748-1.31775-.42609L130.26468,89.35654l1.91949-.62665-3.79266-2.60162,53.52765-52.23395,2.82855,3.88232.22644-.7663,24.59222,36.28857.303.85352Zm48.4906-37.31238-.008-5.21039-3.57892,2.751L187.72275,32.2905l3.45435-1.12756L186.88028,28.215l-.00677-5.20984-3.57916,2.75073-.03326-.04907-.36011.35144-.15857.12183L177.785,24.577l1.707,4.80768L123.89853,83.633l-.14917.11462-4.95844-1.60309.90369,2.54541-26.57043.38959-.00739-4.76971-4.131,3.1756-4.9574-1.60309,1.19727,3.374-28.70453.8299-.00653-4.23114-4.12994,3.175-4.95844-1.60248,1.74323,4.90961-1.50592,2.079L28.89316,109.72776l-2.03381,1.563-4.9574-1.60248,1.74323,4.90961L20.59,118.8176l5.20819-.14075,3.06763,4.21063,1.47534-4.99658,4.95288-1.61725-3.53772-2.4278L51.863,93.15921l2.5271,3.46741,1.47534-4.99646,2.01428-.65771L83.27555,90.238l-.56012.77356,5.20807-.14075L90.99112,95.082l1.47662-4.997.231-.07544,25.97083-.38043-1.19165,1.6452,5.20929-.14075,3.06757,4.21063.74365-2.51849,37.1297,22.68036-2.616,3.61169,5.20819-.1413,3.06879,4.21118,1.47534-4.99658,4.95276-1.61725-3.62433-2.48718L212.23172,78.635l2.93744,4.0304,1.4754-4.99707,4.95288-1.61664Z"/><path class="cls-25" d="M168.10113,109.70617l-1.52863,1.1748-1.31775-.42609L129.55468,88.64654l1.91949-.62665-3.79266-2.60162,53.52765-52.23395,2.82855,3.88232.22644-.7663,24.59222,36.28857.303.85352Zm48.4906-37.31238-.008-5.21039-3.57892,2.751L187.01275,31.5805l3.45435-1.12756L186.17028,27.505l-.00677-5.20984-3.57916,2.75073-.03326-.04907-.36011.35144-.15857.12183L177.075,23.867l1.707,4.80768L123.18853,82.923l-.14917.11462-4.95844-1.60309.90369,2.54541-26.57043.38959-.00739-4.76971-4.131,3.1756-4.9574-1.60309,1.19727,3.374-28.70453.8299-.00653-4.23114-4.12994,3.175-4.95844-1.60248,1.74323,4.90961-1.50592,2.079L28.18316,109.01776l-2.03381,1.563-4.9574-1.60248,1.74323,4.90961L19.88,118.1076l5.20819-.14075,3.06763,4.21063,1.47534-4.99658,4.95288-1.61725-3.53772-2.4278L51.153,92.44921l2.5271,3.46741,1.47534-4.99646,2.01428-.65771L82.56555,89.528l-.56012.77356,5.20807-.14075L90.28112,94.372l1.47662-4.997.231-.07544,25.97083-.38043-1.19165,1.6452,5.20929-.14075,3.06757,4.21063.74365-2.51849,37.1297,22.68036-2.616,3.61169,5.20819-.1413,3.06879,4.21118,1.47534-4.99658,4.95276-1.61725-3.62433-2.48718L211.52172,77.925l2.93744,4.0304,1.4754-4.99707,4.95288-1.61664Z"/><path class="cls-26" d="M167.39113,108.99617l-1.52863,1.1748-1.31775-.42609L128.84468,87.93654l1.91949-.62665-3.79266-2.60162,53.52765-52.23395,2.82855,3.88232.22644-.7663,24.59222,36.28857.303.85352Zm48.4906-37.31238-.008-5.21039-3.57892,2.751L186.30275,30.8705l3.45435-1.12756L185.46028,26.795l-.00677-5.20984-3.57916,2.75073-.03326-.04907-.36011.35144-.15857.12183L176.365,23.157l1.707,4.80768L122.47853,82.213l-.14917.11462-4.95844-1.60309.90369,2.54541-26.57043.38959-.00739-4.76971-4.131,3.1756-4.9574-1.60309,1.19727,3.374-28.70453.8299-.00653-4.23114-4.12994,3.175-4.95844-1.60248,1.74323,4.90961-1.50592,2.079L27.47316,108.30776l-2.03381,1.563-4.9574-1.60248,1.74323,4.90961L19.17,117.3976l5.20819-.14075,3.06763,4.21063,1.47534-4.99658,4.95288-1.61725-3.53772-2.4278L50.443,91.73921l2.5271,3.46741,1.47534-4.99646,2.01428-.65771L81.85555,88.818l-.56012.77356,5.20807-.14075L89.57112,93.662l1.47662-4.997.231-.07544,25.97083-.38043-1.19165,1.6452,5.20929-.14075,3.06757,4.21063.74365-2.51849,37.1297,22.68036-2.616,3.61169,5.20819-.1413,3.06879,4.21118,1.47534-4.99658,4.95276-1.61725-3.62433-2.48718L210.81172,77.215l2.93744,4.0304,1.4754-4.99707,4.95288-1.61664Z"/><path class="cls-27" d="M166.68113,108.28617l-1.52863,1.1748-1.31775-.42609L128.13468,87.22654l1.91949-.62665-3.79266-2.60162,53.52765-52.23395,2.82855,3.88232.22644-.7663,24.59222,36.28857.303.85352Zm48.4906-37.31238-.008-5.21039-3.57892,2.751L185.59275,30.1605l3.45435-1.12756L184.75028,26.085l-.00677-5.20984-3.57916,2.75073-.03326-.04907-.36011.35144-.15857.12183L175.655,22.447l1.707,4.80768L121.76853,81.503l-.14917.11462-4.95844-1.60309.90369,2.54541-26.57043.38959-.00739-4.76971-4.131,3.1756-4.9574-1.60309,1.19727,3.374-28.70453.8299-.00653-4.23114-4.12994,3.175-4.95844-1.60248,1.74323,4.90961-1.50592,2.079L26.76316,107.59776l-2.03381,1.563-4.9574-1.60248,1.74323,4.90961L18.46,116.6876l5.20819-.14075,3.06763,4.21063,1.47534-4.99658,4.95288-1.61725-3.53772-2.4278L49.733,91.02921l2.5271,3.46741,1.47534-4.99646,2.01428-.65771L81.14555,88.108l-.56012.77356,5.20807-.14075L88.86112,92.952l1.47662-4.997.231-.07544,25.97083-.38043-1.19165,1.6452,5.20929-.14075,3.06757,4.21063.74365-2.51849,37.1297,22.68036-2.616,3.61169,5.20819-.1413,3.06879,4.21118,1.47534-4.99658,4.95276-1.61725-3.62433-2.48718L210.10172,76.505l2.93744,4.0304,1.4754-4.99707,4.95288-1.61664Z"/><path class="cls-28" d="M165.97113,107.57617l-1.52863,1.1748-1.31775-.42609L127.42468,86.51654l1.91949-.62665-3.79266-2.60162,53.52765-52.23395,2.82855,3.88232.22644-.7663,24.59222,36.28857.303.85352Zm48.4906-37.31238-.008-5.21039-3.57892,2.751L184.88275,29.4505l3.45435-1.12756L184.04028,25.375l-.00677-5.20984-3.57916,2.75073-.03326-.04907-.36011.35144-.15857.12183L174.945,21.737l1.707,4.80768L121.05853,80.793l-.14917.11462-4.95844-1.60309.90369,2.54541-26.57043.38959-.00739-4.76971-4.131,3.1756-4.9574-1.60309,1.19727,3.374-28.70453.8299-.00653-4.23114-4.12994,3.175-4.95844-1.60248,1.74323,4.90961-1.50592,2.079L26.05316,106.88776l-2.03381,1.563-4.9574-1.60248,1.74323,4.90961L17.75,115.9776l5.20819-.14075,3.06763,4.21063,1.47534-4.99658,4.95288-1.61725-3.53772-2.4278L49.023,90.31921l2.5271,3.46741,1.47534-4.99646,2.01428-.65771L80.43555,87.398l-.56012.77356,5.20807-.14075L88.15112,92.242l1.47662-4.997.231-.07544,25.97083-.38043-1.19165,1.6452,5.20929-.14075,3.06757,4.21063.74365-2.51849,37.1297,22.68036-2.616,3.61169,5.20819-.1413,3.06879,4.21118,1.47534-4.99658,4.95276-1.61725-3.62433-2.48718L209.39172,75.795l2.93744,4.0304,1.4754-4.99707,4.95288-1.61664Z"/><path class="cls-29" d="M165.26113,106.86617l-1.52863,1.1748-1.31775-.42609L126.71468,85.80654l1.91949-.62665-3.79266-2.60162,53.52765-52.23395,2.82855,3.88232.22644-.7663,24.59222,36.28857.303.85352Zm48.4906-37.31238-.008-5.21039-3.57892,2.751L184.17275,28.7405l3.45435-1.12756L183.33028,24.665l-.00677-5.20984-3.57916,2.75073-.03326-.04907-.36011.35144-.15857.12183L174.235,21.027l1.707,4.80768L120.34853,80.083l-.14917.11462-4.95844-1.60309.90369,2.54541-26.57043.38959-.00739-4.76971-4.131,3.1756-4.9574-1.60309,1.19727,3.374-28.70453.8299-.00653-4.23114-4.12994,3.175-4.95844-1.60248,1.74323,4.90961-1.50592,2.079L25.34316,106.17776l-2.03381,1.563-4.9574-1.60248,1.74323,4.90961L17.04,115.2676l5.20819-.14075,3.06763,4.21063,1.47534-4.99658,4.95288-1.61725-3.53772-2.4278L48.313,89.60921l2.5271,3.46741,1.47534-4.99646,2.01428-.65771L79.72555,86.688l-.56012.77356,5.20807-.14075L87.44112,91.532l1.47662-4.997.231-.07544,25.97083-.38043-1.19165,1.6452,5.20929-.14075,3.06757,4.21063.74365-2.51849,37.1297,22.68036-2.616,3.61169,5.20819-.1413,3.06879,4.21118,1.47534-4.99658,4.95276-1.61725-3.62433-2.48718L208.68172,75.085l2.93744,4.0304,1.4754-4.99707,4.95288-1.61664Z"/><path class="cls-30" d="M164.55113,106.15617l-1.52863,1.1748-1.31775-.42609L126.00468,85.09654l1.91949-.62665-3.79266-2.60162,53.52765-52.23395,2.82855,3.88232.22644-.7663,24.59222,36.28857.303.85352Zm48.4906-37.31238-.008-5.21039-3.57892,2.751L183.46275,28.0305l3.45435-1.12756L182.62028,23.955l-.00677-5.20984-3.57916,2.75073-.03326-.04907-.36011.35144-.15857.12183L173.525,20.317l1.707,4.80768L119.63853,79.373l-.14917.11462-4.95844-1.60309.90369,2.54541-26.57043.38959-.00739-4.76971-4.131,3.1756-4.9574-1.60309,1.19727,3.374-28.70453.8299-.00653-4.23114-4.12994,3.175-4.95844-1.60248,1.74323,4.90961-1.50592,2.079L24.63316,105.46776l-2.03381,1.563-4.9574-1.60248,1.74323,4.90961L16.33,114.5576l5.20819-.14075,3.06763,4.21063,1.47534-4.99658,4.95288-1.61725-3.53772-2.4278L47.603,88.89921l2.5271,3.46741,1.47534-4.99646,2.01428-.65771L79.01555,85.978l-.56012.77356,5.20807-.14075L86.73112,90.822l1.47662-4.997.231-.07544,25.97083-.38043-1.19165,1.6452,5.20929-.14075,3.06757,4.21063.74365-2.51849,37.1297,22.68036-2.616,3.61169,5.20819-.1413,3.06879,4.21118,1.47534-4.99658,4.95276-1.61725-3.62433-2.48718L207.97172,74.375l2.93744,4.0304,1.4754-4.99707,4.95288-1.61664Z"/><path class="cls-31" d="M163.84113,105.44617l-1.52863,1.1748-1.31775-.42609L125.29468,84.38654l1.91949-.62665-3.79266-2.60162,53.52765-52.23395,2.82855,3.88232.22644-.7663,24.59222,36.28857.303.85352Zm48.4906-37.31238-.008-5.21039-3.57892,2.751L182.75275,27.3205l3.45435-1.12756L181.91028,23.245l-.00677-5.20984-3.57916,2.75073-.03326-.04907-.36011.35144-.15857.12183L172.815,19.607l1.707,4.80768L118.92853,78.663l-.14917.11462-4.95844-1.60309.90369,2.54541-26.57043.38959-.00739-4.76971-4.131,3.1756-4.9574-1.60309,1.19727,3.374-28.70453.8299-.00653-4.23114-4.12994,3.175-4.95844-1.60248,1.74323,4.90961-1.50592,2.079L23.92316,104.75776l-2.03381,1.563-4.9574-1.60248,1.74323,4.90961L15.62,113.8476l5.20819-.14075,3.06763,4.21063,1.47534-4.99658,4.95288-1.61725-3.53772-2.4278L46.893,88.18921l2.5271,3.46741,1.47534-4.99646,2.01428-.65771L78.30555,85.268l-.56012.77356,5.20807-.14075L86.02112,90.112l1.47662-4.997.231-.07544,25.97083-.38043-1.19165,1.6452,5.20929-.14075,3.06757,4.21063.74365-2.51849,37.1297,22.68036-2.616,3.61169,5.20819-.1413,3.06879,4.21118,1.47534-4.99658,4.95276-1.61725-3.62433-2.48718L207.26172,73.665l2.93744,4.0304,1.4754-4.99707,4.95288-1.61664Z"/><path class="cls-32" d="M163.13113,104.73617l-1.52863,1.1748-1.31775-.42609L124.58468,83.67654l1.91949-.62665-3.79266-2.60162,53.52765-52.23395,2.82855,3.88232.22644-.7663,24.59222,36.28857.303.85352Zm48.4906-37.31238-.008-5.21039-3.57892,2.751L182.04275,26.6105l3.45435-1.12756L181.20028,22.535l-.00677-5.20984-3.57916,2.75073-.03326-.04907-.36011.35144-.15857.12183L172.105,18.897l1.707,4.80768L118.21853,77.953l-.14917.11462-4.95844-1.60309.90369,2.54541-26.57043.38959-.00739-4.76971-4.131,3.1756-4.9574-1.60309,1.19727,3.374-28.70453.8299-.00653-4.23114-4.12994,3.175-4.95844-1.60248,1.74323,4.90961-1.50592,2.079L23.21316,104.04776l-2.03381,1.563-4.9574-1.60248,1.74323,4.90961L14.91,113.1376l5.20819-.14075,3.06763,4.21063,1.47534-4.99658,4.95288-1.61725-3.53772-2.4278L46.183,87.47921l2.5271,3.46741,1.47534-4.99646,2.01428-.65771L77.59555,84.558l-.56012.77356,5.20807-.14075L85.31112,89.402l1.47662-4.997.231-.07544,25.97083-.38043-1.19165,1.6452,5.20929-.14075,3.06757,4.21063.74365-2.51849,37.1297,22.68036-2.616,3.61169,5.20819-.1413,3.06879,4.21118,1.47534-4.99658,4.95276-1.61725-3.62433-2.48718L206.55172,72.955l2.93744,4.0304,1.4754-4.99707,4.95288-1.61664Z"/><path class="cls-33" d="M162.42113,104.02617l-1.52863,1.1748-1.31775-.42609L123.87468,82.96654l1.91949-.62665-3.79266-2.60162,53.52765-52.23395,2.82855,3.88232.22644-.7663,24.59222,36.28857.303.85352Zm48.4906-37.31238-.008-5.21039-3.57892,2.751L181.33275,25.9005l3.45435-1.12756L180.49028,21.825l-.00677-5.20984-3.57916,2.75073-.03326-.04907-.36011.35144-.15857.12183L171.395,18.187l1.707,4.80768L117.50853,77.243l-.14917.11462-4.95844-1.60309L113.30461,78.3l-26.57043.38959-.00739-4.76971-4.131,3.1756-4.9574-1.60309,1.19727,3.374-28.70453.8299-.00653-4.23114-4.12994,3.175-4.95844-1.60248,1.74323,4.90961-1.50592,2.079L22.50316,103.33776l-2.03381,1.563-4.9574-1.60248,1.74323,4.90961L14.2,112.4276l5.20819-.14075,3.06763,4.21063,1.47534-4.99658,4.95288-1.61725-3.53772-2.4278L45.473,86.76921l2.5271,3.46741,1.47534-4.99646,2.01428-.65771L76.88555,83.848l-.56012.77356,5.20807-.14075L84.60112,88.692l1.47662-4.997.231-.07544,25.97083-.38043-1.19165,1.6452,5.20929-.14075,3.06757,4.21063.74365-2.51849,37.1297,22.68036-2.616,3.61169,5.20819-.1413,3.06879,4.21118,1.47534-4.99658,4.95276-1.61725-3.62433-2.48718L205.84172,72.245l2.93744,4.0304,1.4754-4.99707,4.95288-1.61664Z"/><path class="cls-34" d="M161.71113,103.31617l-1.52863,1.1748-1.31775-.42609L123.16468,82.25654l1.91949-.62665-3.79266-2.60162,53.52765-52.23395,2.82855,3.88232.22644-.7663,24.59222,36.28857.303.85352Zm48.4906-37.31238-.008-5.21039-3.57892,2.751L180.62275,25.1905l3.45435-1.12756L179.78028,21.115l-.00677-5.20984-3.57916,2.75073-.03326-.04907-.36011.35144-.15857.12183L170.685,17.477l1.707,4.80768L116.79853,76.533l-.14917.11462-4.95844-1.60309.90369,2.54541-26.57043.38959-.00739-4.76971-4.131,3.1756-4.9574-1.60309,1.19727,3.374-28.70453.8299-.00653-4.23114-4.12994,3.175-4.95844-1.60248,1.74323,4.90961-1.50592,2.079L21.79316,102.62776l-2.03381,1.563-4.9574-1.60248,1.74323,4.90961L13.49,111.7176l5.20819-.14075,3.06763,4.21063,1.47534-4.99658,4.95288-1.61725-3.53772-2.4278L44.763,86.05921l2.5271,3.46741,1.47534-4.99646,2.01428-.65771L76.17555,83.138l-.56012.77356,5.20807-.14075L83.89112,87.982l1.47662-4.997.231-.07544,25.97083-.38043-1.19165,1.6452,5.20929-.14075,3.06757,4.21063.74365-2.51849,37.1297,22.68036-2.616,3.61169,5.20819-.1413,3.06879,4.21118,1.47534-4.99658,4.95276-1.61725-3.62433-2.48718L205.13172,71.535l2.93744,4.0304,1.4754-4.99707,4.95288-1.61664Z"/><path class="cls-35" d="M161.00113,102.60617l-1.52863,1.1748-1.31775-.42609L122.45468,81.54654l1.91949-.62665-3.79266-2.60162,53.52765-52.23395,2.82855,3.88232.22644-.7663,24.59222,36.28857.303.85352Zm48.4906-37.31238-.008-5.21039-3.57892,2.751L179.91275,24.4805l3.45435-1.12756L179.07028,20.405l-.00677-5.20984-3.57916,2.75073-.03326-.04907-.36011.35144-.15857.12183L169.975,16.767l1.707,4.80768L116.08853,75.823l-.14917.11462-4.95844-1.60309.90369,2.54541-26.57043.38959-.00739-4.76971-4.131,3.1756-4.9574-1.60309,1.19727,3.374-28.70453.8299-.00653-4.23114-4.12994,3.175-4.95844-1.60248,1.74323,4.90961-1.50592,2.079L21.08316,101.91776l-2.03381,1.563-4.9574-1.60248,1.74323,4.90961L12.78,111.0076l5.20819-.14075,3.06763,4.21063,1.47534-4.99658,4.95288-1.61725-3.53772-2.4278L44.053,85.34921l2.5271,3.46741,1.47534-4.99646,2.01428-.65771L75.46555,82.428l-.56012.77356,5.20807-.14075L83.18112,87.272l1.47662-4.997.231-.07544,25.97083-.38043-1.19165,1.6452,5.20929-.14075,3.06757,4.21063.74365-2.51849,37.1297,22.68036-2.616,3.61169,5.20819-.1413,3.06879,4.21118,1.47534-4.99658,4.95276-1.61725-3.62433-2.48718L204.42172,70.825l2.93744,4.0304,1.4754-4.99707,4.95288-1.61664Z"/><path class="cls-36" d="M160.29113,101.89617l-1.52863,1.1748-1.31775-.42609L121.74468,80.83654l1.91949-.62665-3.79266-2.60162,53.52765-52.23395,2.82855,3.88232.22644-.7663,24.59222,36.28857.303.85352Zm48.4906-37.31238-.008-5.21039-3.57892,2.751L179.20275,23.7705l3.45435-1.12756L178.36028,19.695l-.00677-5.20984-3.57916,2.75073-.03326-.04907-.36011.35144-.15857.12183L169.265,16.057l1.707,4.80768L115.37853,75.113l-.14917.11462-4.95844-1.60309.90369,2.54541-26.57043.38959-.00739-4.76971-4.131,3.1756-4.9574-1.60309,1.19727,3.374-28.70453.8299-.00653-4.23114-4.12994,3.175-4.95844-1.60248,1.74323,4.90961-1.50592,2.079L20.37316,101.20776l-2.03381,1.563-4.9574-1.60248,1.74323,4.90961L12.07,110.2976l5.20819-.14075,3.06763,4.21063,1.47534-4.99658,4.95288-1.61725-3.53772-2.4278L43.343,84.63921l2.5271,3.46741,1.47534-4.99646,2.01428-.65771L74.75555,81.718l-.56012.77356,5.20807-.14075L82.47112,86.562l1.47662-4.997.231-.07544,25.97083-.38043-1.19165,1.6452,5.20929-.14075,3.06757,4.21063.74365-2.51849,37.1297,22.68036-2.616,3.61169,5.20819-.1413,3.06879,4.21118,1.47534-4.99658,4.95276-1.61725-3.62433-2.48718L203.71172,70.115l2.93744,4.0304,1.4754-4.99707,4.95288-1.61664Z"/><path class="cls-37" d="M159.58113,101.18617l-1.52863,1.1748-1.31775-.42609L121.03468,80.12654l1.91949-.62665-3.79266-2.60162,53.52765-52.23395,2.82855,3.88232.22644-.7663,24.59222,36.28857.303.85352Zm48.4906-37.31238-.008-5.21039-3.57892,2.751L178.49275,23.0605l3.45435-1.12756L177.65028,18.985l-.00677-5.20984-3.57916,2.75073-.03326-.04907-.36011.35144-.15857.12183L168.555,15.347l1.707,4.80768L114.66853,74.403l-.14917.11462-4.95844-1.60309.90369,2.54541-26.57043.38959-.00739-4.76971-4.131,3.1756-4.9574-1.60309,1.19727,3.374-28.70453.8299-.00653-4.23114-4.12994,3.175-4.95844-1.60248,1.74323,4.90961-1.50592,2.079L19.66316,100.49776l-2.03381,1.563-4.9574-1.60248,1.74323,4.90961L11.36,109.5876l5.20819-.14075,3.06763,4.21063,1.47534-4.99658,4.95288-1.61725-3.53772-2.4278L42.633,83.92921l2.5271,3.46741,1.47534-4.99646,2.01428-.65771L74.04555,81.008l-.56012.77356,5.20807-.14075L81.76112,85.852l1.47662-4.997.231-.07544,25.97083-.38043-1.19165,1.6452,5.20929-.14075,3.06757,4.21063.74365-2.51849,37.1297,22.68036-2.616,3.61169,5.20819-.1413,3.06879,4.21118,1.47534-4.99658,4.95276-1.61725-3.62433-2.48718L203.00172,69.405l2.93744,4.0304,1.4754-4.99707,4.95288-1.61664Z"/><path class="cls-38" d="M158.87113,100.47617l-1.52863,1.1748-1.31775-.42609L120.32468,79.41654l1.91949-.62665-3.79266-2.60162,53.52765-52.23395,2.82855,3.88232.22644-.7663,24.59222,36.28857.303.85352Zm48.4906-37.31238-.008-5.21039-3.57892,2.751L177.78275,22.3505l3.45435-1.12756L176.94028,18.275l-.00677-5.20984-3.57916,2.75073-.03326-.04907-.36011.35144-.15857.12183L167.845,14.637l1.707,4.80768L113.95853,73.693l-.14917.11462-4.95844-1.60309.90369,2.54541-26.57043.38959-.00739-4.76971-4.131,3.1756-4.9574-1.60309,1.19727,3.374-28.70453.8299-.00653-4.23114-4.12994,3.175-4.95844-1.60248,1.74323,4.90961-1.50592,2.079L18.95316,99.78776l-2.03381,1.563L11.962,99.74833l1.74323,4.90961L10.65,108.8776l5.20819-.14075,3.06763,4.21063,1.47534-4.99658,4.95288-1.61725-3.53772-2.4278L41.923,83.21921l2.5271,3.46741,1.47534-4.99646,2.01428-.65771L73.33555,80.298l-.56012.77356,5.20807-.14075L81.05112,85.142l1.47662-4.997.231-.07544,25.97083-.38043-1.19165,1.6452,5.20929-.14075,3.06757,4.21063.74365-2.51849,37.1297,22.68036-2.616,3.61169,5.20819-.1413,3.06879,4.21118,1.47534-4.99658,4.95276-1.61725-3.62433-2.48718L202.29172,68.695l2.93744,4.0304,1.4754-4.99707,4.95288-1.61664Z"/><path class="cls-39" d="M158.16113,99.76617l-1.52863,1.1748-1.31775-.42609L119.61468,78.70654l1.91949-.62665-3.79266-2.60162,53.52765-52.23395,2.82855,3.88232.22644-.7663,24.59222,36.28857.303.85352Zm48.4906-37.31238-.008-5.21039-3.57892,2.751L177.07275,21.6405l3.45435-1.12756L176.23028,17.565l-.00677-5.20984-3.57916,2.75073-.03326-.04907-.36011.35144-.15857.12183L167.135,13.927l1.707,4.80768L113.24853,72.983l-.14917.11462-4.95844-1.60309.90369,2.54541-26.57043.38959-.00739-4.76971-4.131,3.1756-4.9574-1.60309,1.19727,3.374-28.70453.8299-.00653-4.23114-4.12994,3.175-4.95844-1.60248,1.74323,4.90961-1.50592,2.079L18.24316,99.07776l-2.03381,1.563L11.252,99.03833l1.74323,4.90961L9.94,108.1676l5.20819-.14075,3.06763,4.21063,1.47534-4.99658,4.95288-1.61725-3.53772-2.4278L41.213,82.50921l2.5271,3.46741,1.47534-4.99646,2.01428-.65771L72.62555,79.588l-.56012.77356,5.20807-.14075L80.34112,84.432l1.47662-4.997.231-.07544,25.97083-.38043-1.19165,1.6452,5.20929-.14075,3.06757,4.21063.74365-2.51849,37.1297,22.68036-2.616,3.61169,5.20819-.1413,3.06879,4.21118,1.47534-4.99658,4.95276-1.61725-3.62433-2.48718L201.58172,67.985l2.93744,4.0304,1.4754-4.99707,4.95288-1.61664Z"/><path class="cls-40" d="M157.45113,99.05617l-1.52863,1.1748-1.31775-.42609L118.90468,77.99654l1.91949-.62665-3.79266-2.60162,53.52765-52.23395,2.82855,3.88232.22644-.7663,24.59222,36.28857.303.85352Zm48.4906-37.31238-.008-5.21039-3.57892,2.751L176.36275,20.9305l3.45435-1.12756L175.52028,16.855l-.00677-5.20984-3.57916,2.75073-.03326-.04907-.36011.35144-.15857.12183L166.425,13.217l1.707,4.80768L112.53853,72.273l-.14917.11462-4.95844-1.60309.90369,2.54541-26.57043.38959-.00739-4.76971-4.131,3.1756-4.9574-1.60309,1.19727,3.374-28.70453.8299-.00653-4.23114-4.12994,3.175-4.95844-1.60248,1.74323,4.90961-1.50592,2.079L17.53316,98.36776l-2.03381,1.563L10.542,98.32833l1.74323,4.90961L9.23,107.4576l5.20819-.14075,3.06763,4.21063,1.47534-4.99658,4.95288-1.61725-3.53772-2.4278L40.503,81.79921l2.5271,3.46741,1.47534-4.99646,2.01428-.65771L71.91555,78.878l-.56012.77356,5.20807-.14075L79.63112,83.722l1.47662-4.997.231-.07544,25.97083-.38043-1.19165,1.6452,5.20929-.14075,3.06757,4.21063.74365-2.51849,37.1297,22.68036-2.616,3.61169,5.20819-.1413,3.06879,4.21118,1.47534-4.99658,4.95276-1.61725-3.62433-2.48718L200.87172,67.275l2.93744,4.0304,1.4754-4.99707,4.95288-1.61664Z"/><path class="cls-41" d="M156.74113,98.34617,155.2125,99.521l-1.31775-.42609L118.19468,77.28654l1.91949-.62665-3.79266-2.60162,53.52765-52.23395,2.82855,3.88232.22644-.7663,24.59222,36.28857.303.85352Zm48.4906-37.31238-.008-5.21039-3.57892,2.751L175.65275,20.2205l3.45435-1.12756L174.81028,16.145l-.00677-5.20984-3.57916,2.75073-.03326-.04907-.36011.35144-.15857.12183L165.715,12.507l1.707,4.80768L111.82853,71.563l-.14917.11462-4.95844-1.60309.90369,2.54541-26.57043.38959-.00739-4.76971-4.131,3.1756-4.9574-1.60309,1.19727,3.374-28.70453.8299-.00653-4.23114-4.12994,3.175-4.95844-1.60248,1.74323,4.90961-1.50592,2.079L16.82316,97.65776l-2.03381,1.563L9.832,97.61833l1.74323,4.90961L8.52,106.7476l5.20819-.14075,3.06763,4.21063,1.47534-4.99658,4.95288-1.61725-3.53772-2.4278L39.793,81.08921l2.5271,3.46741,1.47534-4.99646,2.01428-.65771L71.20555,78.168l-.56012.77356,5.20807-.14075L78.92112,83.012l1.47662-4.997.231-.07544,25.97083-.38043-1.19165,1.6452,5.20929-.14075,3.06757,4.21063.74365-2.51849,37.1297,22.68036-2.616,3.61169,5.20819-.1413,3.06879,4.21118,1.47534-4.99658,4.95276-1.61725-3.62433-2.48718L200.16172,66.565l2.93744,4.0304,1.4754-4.99707,4.95288-1.61664Z"/><path class="cls-42" d="M156.03113,97.63617,154.5025,98.811l-1.31775-.42609L117.48468,76.57654l1.91949-.62665-3.79266-2.60162,53.52765-52.23395,2.82855,3.88232.22644-.7663,24.59222,36.28857.303.85352Zm48.4906-37.31238-.008-5.21039-3.57892,2.751L174.94275,19.5105l3.45435-1.12756L174.10028,15.435l-.00677-5.20984-3.57916,2.75073-.03326-.04907-.36011.35144-.15857.12183L165.005,11.797l1.707,4.80768L111.11853,70.853l-.14917.11462-4.95844-1.60309.90369,2.54541-26.57043.38959-.00739-4.76971-4.131,3.1756-4.9574-1.60309,1.19727,3.374-28.70453.8299-.00653-4.23114-4.12994,3.175-4.95844-1.60248,1.74323,4.90961-1.50592,2.079L16.11316,96.94776l-2.03381,1.563L9.122,96.90833l1.74323,4.90961L7.81,106.0376l5.20819-.14075,3.06763,4.21063,1.47534-4.99658,4.95288-1.61725-3.53772-2.4278L39.083,80.37921l2.5271,3.46741,1.47534-4.99646,2.01428-.65771L70.49555,77.458l-.56012.77356,5.20807-.14075L78.21112,82.302l1.47662-4.997.231-.07544,25.97083-.38043-1.19165,1.6452,5.20929-.14075,3.06757,4.21063.74365-2.51849,37.1297,22.68036-2.616,3.61169,5.20819-.1413,3.06879,4.21118,1.47534-4.99658,4.95276-1.61725-3.62433-2.48718L199.45172,65.855l2.93744,4.0304,1.4754-4.99707,4.95288-1.61664Z"/><path class="cls-43" d="M155.32113,96.92617,153.7925,98.101l-1.31775-.42609L116.77468,75.86654l1.91949-.62665-3.79266-2.60162,53.52765-52.23395,2.82855,3.88232.22644-.7663,24.59222,36.28857.303.85352Zm48.4906-37.31238-.008-5.21039-3.57892,2.751L174.23275,18.8005l3.45435-1.12756L173.39028,14.725l-.00677-5.20984-3.57916,2.75073-.03326-.04907-.36011.35144-.15857.12183L164.295,11.087l1.707,4.80768L110.40853,70.143l-.14917.11462-4.95844-1.60309L106.20461,71.2l-26.57043.38959-.00739-4.76971-4.131,3.1756-4.9574-1.60309,1.19727,3.374-28.70453.8299-.00653-4.23114-4.12994,3.175-4.95844-1.60248,1.74323,4.90961-1.50592,2.079L15.40316,96.23776l-2.03381,1.563L8.412,96.19833l1.74323,4.90961L7.1,105.3276l5.20819-.14075,3.06763,4.21063,1.47534-4.99658,4.95288-1.61725-3.53772-2.4278L38.373,79.66921l2.5271,3.46741,1.47534-4.99646,2.01428-.65771L69.78555,76.748l-.56012.77356,5.20807-.14075L77.50112,81.592l1.47662-4.997.231-.07544,25.97083-.38043-1.19165,1.6452,5.20929-.14075,3.06757,4.21063.74365-2.51849,37.1297,22.68036-2.616,3.61169,5.20819-.1413,3.06879,4.21118,1.47534-4.99658,4.95276-1.61725-3.62433-2.48718L198.74172,65.145l2.93744,4.0304,1.4754-4.99707,4.95288-1.61664Z"/><path class="cls-44" d="M154.61113,96.21617,153.0825,97.391l-1.31775-.42609L116.06468,75.15654l1.91949-.62665-3.79266-2.60162,53.52765-52.23395,2.82855,3.88232.22644-.7663,24.59222,36.28857.303.85352Zm48.4906-37.31238-.008-5.21039-3.57892,2.751L173.52275,18.0905l3.45435-1.12756L172.68028,14.015l-.00677-5.20984-3.57916,2.75073-.03326-.04907-.36011.35144-.15857.12183L163.585,10.377l1.707,4.80768L109.69853,69.433l-.14917.11462-4.95844-1.60309.90369,2.54541-26.57043.38959-.00739-4.76971-4.131,3.1756-4.9574-1.60309,1.19727,3.374-28.70453.8299-.00653-4.23114-4.12994,3.175-4.95844-1.60248,1.74323,4.90961-1.50592,2.079L14.69316,95.52776l-2.03381,1.563L7.702,95.48833l1.74323,4.90961L6.39,104.6176l5.20819-.14075,3.06763,4.21063,1.47534-4.99658,4.95288-1.61725-3.53772-2.4278L37.663,78.95921l2.5271,3.46741,1.47534-4.99646,2.01428-.65771L69.07555,76.038l-.56012.77356,5.20807-.14075L76.79112,80.882l1.47662-4.997.231-.07544,25.97083-.38043-1.19165,1.6452,5.20929-.14075,3.06757,4.21063.74365-2.51849,37.1297,22.68036-2.616,3.61169,5.20819-.1413,3.06879,4.21118,1.47534-4.99658,4.95276-1.61725-3.62433-2.48718L198.03172,64.435l2.93744,4.0304,1.4754-4.99707,4.95288-1.61664Z"/><path class="cls-45" d="M153.90113,95.50617,152.3725,96.681l-1.31775-.42609L115.35468,74.44654l1.91949-.62665-3.79266-2.60162,53.52765-52.23395,2.82855,3.88232.22644-.7663,24.59222,36.28857.303.85352Zm48.4906-37.31238-.008-5.21039-3.57892,2.751L172.81275,17.3805l3.45435-1.12756L171.97028,13.305l-.00677-5.20984-3.57916,2.75073-.03326-.04907-.36011.35144-.15857.12183L162.875,9.667l1.707,4.80768L108.98853,68.723l-.14917.11462-4.95844-1.60309.90369,2.54541-26.57043.38959-.00739-4.76971-4.131,3.1756-4.9574-1.60309,1.19727,3.374-28.70453.8299-.00653-4.23114-4.12994,3.175-4.95844-1.60248,1.74323,4.90961-1.50592,2.079L13.98316,94.81776l-2.03381,1.563L6.992,94.77833l1.74323,4.90961L5.68,103.9076l5.20819-.14075,3.06763,4.21063,1.47534-4.99658,4.95288-1.61725-3.53772-2.4278L36.953,78.24921l2.5271,3.46741,1.47534-4.99646,2.01428-.65771L68.36555,75.328l-.56012.77356,5.20807-.14075L76.08112,80.172l1.47662-4.997.231-.07544,25.97083-.38043-1.19165,1.6452,5.20929-.14075,3.06757,4.21063.74365-2.51849,37.1297,22.68036-2.616,3.61169,5.20819-.1413,3.06879,4.21118,1.47534-4.99658,4.95276-1.61725-3.62433-2.48718L197.32172,63.725l2.93744,4.0304,1.4754-4.99707,4.95288-1.61664Z"/><path class="cls-46" d="M153.19113,94.79617,151.6625,95.971l-1.31775-.42609L114.64468,73.73654l1.91949-.62665-3.79266-2.60162,53.52765-52.23395,2.82855,3.88232.22644-.7663,24.59222,36.28857.303.85352Zm48.4906-37.31238-.008-5.21039-3.57892,2.751L172.10275,16.6705l3.45435-1.12756L171.26028,12.595l-.00677-5.20984-3.57916,2.75073-.03326-.04907-.36011.35144-.15857.12183L162.165,8.957l1.707,4.80768L108.27853,68.013l-.14917.11462-4.95844-1.60309.90369,2.54541-26.57043.38959-.00739-4.76971-4.131,3.1756-4.9574-1.60309,1.19727,3.374-28.70453.8299-.00653-4.23114-4.12994,3.175-4.95844-1.60248,1.74323,4.90961-1.50592,2.079L13.27316,94.10776l-2.03381,1.563L6.282,94.06833l1.74323,4.90961L4.97,103.1976l5.20819-.14075,3.06763,4.21063,1.47534-4.99658,4.95288-1.61725-3.53772-2.4278L36.243,77.53921l2.5271,3.46741,1.47534-4.99646,2.01428-.65771L67.65555,74.618l-.56012.77356,5.20807-.14075L75.37112,79.462l1.47662-4.997.231-.07544,25.97083-.38043-1.19165,1.6452,5.20929-.14075,3.06757,4.21063.74365-2.51849,37.1297,22.68036-2.616,3.61169,5.20819-.1413,3.06879,4.21118,1.47534-4.99658,4.95276-1.61725-3.62433-2.48718L196.61172,63.015l2.93744,4.0304,1.4754-4.99707,4.95288-1.61664Z"/><path class="cls-47" d="M152.48113,94.08617,150.9525,95.261l-1.31775-.42609L113.93468,73.02654l1.91949-.62665-3.79266-2.60162,53.52765-52.23395,2.82855,3.88232.22644-.7663,24.59222,36.28857.303.85352Zm48.4906-37.31238-.008-5.21039-3.57892,2.751L171.39275,15.9605l3.45435-1.12756L170.55028,11.885l-.00677-5.20984-3.57916,2.75073-.03326-.04907-.36011.35144-.15857.12183L161.455,8.247l1.707,4.80768L107.56853,67.303l-.14917.11462-4.95844-1.60309.90369,2.54541-26.57043.38959-.00739-4.76971-4.131,3.1756-4.9574-1.60309,1.19727,3.374-28.70453.8299-.00653-4.23114-4.12994,3.175-4.95844-1.60248,1.74323,4.90961-1.50592,2.079L12.56316,93.39776l-2.03381,1.563L5.572,93.35833l1.74323,4.90961L4.26,102.4876l5.20819-.14075,3.06763,4.21063,1.47534-4.99658L18.964,99.94365l-3.53772-2.4278L35.533,76.82921l2.5271,3.46741,1.47534-4.99646,2.01428-.65771L66.94555,73.908l-.56012.77356,5.20807-.14075L74.66112,78.752l1.47662-4.997.231-.07544,25.97083-.38043-1.19165,1.6452,5.20929-.14075,3.06757,4.21063.74365-2.51849,37.1297,22.68036-2.616,3.61169,5.20819-.1413,3.06879,4.21118,1.47534-4.99658,4.95276-1.61725-3.62433-2.48718L195.90172,62.305l2.93744,4.0304,1.4754-4.99707,4.95288-1.61664Z"/><path class="cls-48" d="M151.77113,93.37617,150.2425,94.551l-1.31775-.42609L113.22468,72.31654l1.91949-.62665-3.79266-2.60162,53.52765-52.23395,2.82855,3.88232.22644-.7663,24.59222,36.28857.303.85352Zm48.4906-37.31238-.008-5.21039-3.57892,2.751L170.68275,15.2505l3.45435-1.12756L169.84028,11.175l-.00677-5.20984-3.57916,2.75073-.03326-.04907-.36011.35144-.15857.12183L160.745,7.537l1.707,4.80768L106.85853,66.593l-.14917.11462-4.95844-1.60309.90369,2.54541-26.57043.38959-.00739-4.76971-4.131,3.1756-4.9574-1.60309,1.19727,3.374-28.70453.8299-.00653-4.23114-4.12994,3.175-4.95844-1.60248,1.74323,4.90961-1.50592,2.079L11.85316,92.68776l-2.03381,1.563L4.862,92.64833l1.74323,4.90961L3.55,101.7776l5.20819-.14075,3.06763,4.21063,1.47534-4.99658L18.254,99.23365l-3.53772-2.4278L34.823,76.11921l2.5271,3.46741,1.47534-4.99646,2.01428-.65771L66.23555,73.198l-.56012.77356,5.20807-.14075L73.95112,78.042l1.47662-4.997.231-.07544,25.97083-.38043-1.19165,1.6452,5.20929-.14075,3.06757,4.21063.74365-2.51849,37.1297,22.68036-2.616,3.61169,5.20819-.1413,3.06879,4.21118,1.47534-4.99658,4.95276-1.61725-3.62433-2.48718L195.19172,61.595l2.93744,4.0304,1.4754-4.99707,4.95288-1.61664Z"/><path class="cls-49" d="M151.06113,92.66617,149.5325,93.841l-1.31775-.42609L112.51468,71.60654l1.91949-.62665-3.79266-2.60162,53.52765-52.23395,2.82855,3.88232.22644-.7663,24.59222,36.28857.303.85352Zm48.4906-37.31238-.008-5.21039-3.57892,2.751L169.97275,14.5405l3.45435-1.12756L169.13028,10.465l-.00677-5.20984-3.57916,2.75073-.03326-.04907-.36011.35144-.15857.12183L160.035,6.827l1.707,4.80768L106.14853,65.883l-.14917.11462-4.95844-1.60309.90369,2.54541-26.57043.38959-.00739-4.76971-4.131,3.1756-4.9574-1.60309,1.19727,3.374-28.70453.8299-.00653-4.23114-4.12994,3.175-4.95844-1.60248,1.74323,4.90961-1.50592,2.079L11.14316,91.97776l-2.03381,1.563L4.152,91.93833l1.74323,4.90961L2.84,101.0676l5.20819-.14075,3.06763,4.21063,1.47534-4.99658L17.544,98.52365l-3.53772-2.4278L34.113,75.40921l2.5271,3.46741,1.47534-4.99646,2.01428-.65771L65.52555,72.488l-.56012.77356,5.20807-.14075L73.24112,77.332l1.47662-4.997.231-.07544,25.97083-.38043-1.19165,1.6452,5.20929-.14075,3.06757,4.21063.74365-2.51849,37.1297,22.68036-2.616,3.61169,5.20819-.1413,3.06879,4.21118,1.47534-4.99658,4.95276-1.61725-3.62433-2.48718L194.48172,60.885l2.93744,4.0304,1.4754-4.99707,4.95288-1.61664Z"/><path class="cls-50" d="M150.35113,91.95617,148.8225,93.131l-1.31775-.42609L111.80468,70.89654l1.91949-.62665-3.79266-2.60162,53.52765-52.23395,2.82855,3.88232.22644-.7663,24.59222,36.28857.303.85352Zm48.4906-37.31238-.008-5.21039-3.57892,2.751L169.26275,13.8305l3.45435-1.12756L168.42028,9.755l-.00677-5.20984-3.57916,2.75073-.03326-.04907-.36011.35144-.15857.12183L159.325,6.117l1.707,4.80768L105.43853,65.173l-.14917.11462-4.95844-1.60309.90369,2.54541-26.57043.38959-.00739-4.76971-4.131,3.1756-4.9574-1.60309,1.19727,3.374-28.70453.8299-.00653-4.23114-4.12994,3.175-4.95844-1.60248,1.74323,4.90961-1.50592,2.079L10.43316,91.26776l-2.03381,1.563L3.442,91.22833l1.74323,4.90961L2.13,100.3576l5.20819-.14075,3.06763,4.21063,1.47534-4.99658L16.834,97.81365l-3.53772-2.4278L33.403,74.69921l2.5271,3.46741,1.47534-4.99646,2.01428-.65771L64.81555,71.778l-.56012.77356,5.20807-.14075L72.53112,76.622l1.47662-4.997.231-.07544,25.97083-.38043-1.19165,1.6452,5.20929-.14075,3.06757,4.21063.74365-2.51849,37.1297,22.68036-2.616,3.61169,5.20819-.1413,3.06879,4.21118,1.47534-4.99658,4.95276-1.61725-3.62433-2.48718L193.77172,60.175l2.93744,4.0304,1.4754-4.99707,4.95288-1.61664Z"/><path class="cls-51" d="M149.64113,91.24617,148.1125,92.421l-1.31775-.42609L111.09468,70.18654l1.91949-.62665-3.79266-2.60162,53.52765-52.23395,2.82855,3.88232.22644-.7663,24.59222,36.28857.303.85352Zm48.4906-37.31238-.008-5.21039-3.57892,2.751L168.55275,13.1205l3.45435-1.12756L167.71028,9.045l-.00677-5.20984-3.57916,2.75073-.03326-.04907-.36011.35144-.15857.12183L158.615,5.407l1.707,4.80768L104.72853,64.463l-.14917.11462-4.95844-1.60309.90369,2.54541-26.57043.38959-.00739-4.76971-4.131,3.1756-4.9574-1.60309,1.19727,3.374-28.70453.8299-.00653-4.23114-4.12994,3.175-4.95844-1.60248,1.74323,4.90961-1.50592,2.079L9.72316,90.55776l-2.03381,1.563L2.732,90.51833l1.74323,4.90961L1.42,99.6476l5.20819-.14075,3.06763,4.21063,1.47534-4.99658L16.124,97.10365l-3.53772-2.4278L32.693,73.98921l2.5271,3.46741,1.47534-4.99646,2.01428-.65771L64.10555,71.068l-.56012.77356,5.20807-.14075L71.82112,75.912l1.47662-4.997.231-.07544,25.97083-.38043-1.19165,1.6452,5.20929-.14075,3.06757,4.21063.74365-2.51849,37.1297,22.68036-2.616,3.61169,5.20819-.1413,3.06879,4.21118,1.47534-4.99658,4.95276-1.61725-3.62433-2.48718L193.06172,59.465l2.93744,4.0304,1.4754-4.99707,4.95288-1.61664Z"/><path class="cls-52" d="M148.93113,90.53617,147.4025,91.711l-1.31775-.42609L110.38468,69.47654l1.91949-.62665-3.79266-2.60162,53.52765-52.23395,2.82855,3.88232.22644-.7663,24.59222,36.28857.303.85352Zm48.4906-37.31238-.008-5.21039-3.57892,2.751L167.84275,12.4105l3.45435-1.12756L167.00028,8.335l-.00677-5.20984-3.57916,2.75073-.03326-.04907-.36011.35144-.15857.12183L157.905,4.697l1.707,4.80768L104.01853,63.753l-.14917.11462-4.95844-1.60309L99.81461,64.81l-26.57043.38959-.00739-4.76971-4.131,3.1756-4.9574-1.60309,1.19727,3.374-28.70453.8299-.00653-4.23114-4.12994,3.175-4.95844-1.60248,1.74323,4.90961-1.50592,2.079L9.01316,89.84776l-2.03381,1.563L2.022,89.80833l1.74323,4.90961L.71,98.9376l5.20819-.14075,3.06763,4.21063,1.47534-4.99658L15.414,96.39365l-3.53772-2.4278L31.983,73.27921l2.5271,3.46741,1.47534-4.99646,2.01428-.65771L63.39555,70.358l-.56012.77356,5.20807-.14075L71.11112,75.202l1.47662-4.997.231-.07544,25.97083-.38043-1.19165,1.6452,5.20929-.14075,3.06757,4.21063.74365-2.51849,37.1297,22.68036-2.616,3.61169,5.20819-.1413,3.06879,4.21118,1.47534-4.99658,4.95276-1.61725-3.62433-2.48718L192.35172,58.755l2.93744,4.0304,1.4754-4.99707,4.95288-1.61664Z"/><path d="M148.22113,89.82617,146.6925,91.001l-1.31775-.42609L109.67468,68.76654l1.91949-.62665-3.79266-2.60162,53.52765-52.23395,2.82855,3.88232.22644-.7663,24.59222,36.28857.303.85352Zm48.4906-37.31238-.008-5.21039-3.57892,2.751L167.13275,11.7005l3.45435-1.12756L166.29028,7.625l-.00677-5.20984-3.57916,2.75073-.03326-.04907-.36011.35144-.15857.12183L157.195,3.987l1.707,4.80768L103.30853,63.043l-.14917.11462-4.95844-1.60309L99.10461,64.1l-26.57043.38959-.00739-4.76971-4.131,3.1756-4.9574-1.60309,1.19727,3.374-28.70453.8299-.00653-4.23114-4.12994,3.175-4.95844-1.60248,1.74323,4.90961-1.50592,2.079L8.30316,89.13776l-2.03381,1.563L1.312,89.09833l1.74323,4.90961L0,98.2276l5.20819-.14075,3.06763,4.21063L9.75116,97.3009,14.704,95.68365l-3.53772-2.4278L31.273,72.56921l2.5271,3.46741,1.47534-4.99646,2.01428-.65771L62.68555,69.648l-.56012.77356,5.20807-.14075L70.40112,74.492l1.47662-4.997.231-.07544,25.97083-.38043-1.19165,1.6452,5.20929-.14075,3.06757,4.21063.74365-2.51849,37.1297,22.68036-2.616,3.61169,5.20819-.1413,3.06879,4.21118,1.47534-4.99658,4.95276-1.61725-3.62433-2.48718L191.64172,58.045l2.93744,4.0304,1.4754-4.99707,4.95288-1.61664Z"/></g><g id="Constellations"><path class="cls-1" d="M195.957,54.23369l-48.865,43.1587L102.0245,69.86327l.54366-.88986-33.54931.49148L33.286,70.49827,8.45746,96.04289,4.92672,92.61152l26.22111-26.977L68.91216,64.5427l33.36081-.48915,60.3981-58.93669Zm-49.40075,37.063L189.45165,53.4103,161.897,12.75023,106.48811,66.81994Z"/><polygon class="cls-53" points="10.4 87.526 6.269 90.701 1.312 89.098 3.055 94.008 0 98.228 5.208 98.087 8.276 102.297 9.751 97.301 14.704 95.684 10.408 92.736 10.4 87.526"/><polygon class="cls-54" points="35.925 61.265 31.795 64.44 26.836 62.838 28.579 67.747 25.523 71.967 30.731 71.826 33.8 76.037 35.275 71.04 40.228 69.423 35.933 66.475 35.925 61.265"/><polygon class="cls-55" points="72.527 59.72 68.396 62.895 63.438 61.292 65.181 66.202 62.125 70.422 67.333 70.281 70.401 74.492 71.878 69.495 76.831 67.878 72.535 64.93 72.527 59.72"/><polygon class="cls-54" points="107.29 59.983 103.159 63.158 98.201 61.555 99.944 66.465 96.888 70.684 102.097 70.544 105.165 74.754 106.64 69.757 111.594 68.14 107.297 65.192 107.29 59.983"/><polygon class="cls-53" points="166.284 2.415 162.152 5.59 157.195 3.987 158.938 8.897 155.882 13.117 161.09 12.976 164.158 17.187 165.634 12.19 170.587 10.573 166.29 7.625 166.284 2.415"/><polygon class="cls-55" points="196.704 47.303 192.573 50.479 187.615 48.876 189.359 53.785 186.302 58.005 191.51 57.865 194.579 62.075 196.055 57.078 201.007 55.462 196.712 52.514 196.704 47.303"/><polygon class="cls-54" points="150.824 87.826 146.692 91.001 141.735 89.398 143.478 94.308 140.422 98.528 145.63 98.386 148.699 102.598 150.174 97.601 155.127 95.984 150.832 93.036 150.824 87.826"/></g></g></g></svg>