<?xml version="1.0" encoding="UTF-8"?>
<svg width="18px" height="18px" viewBox="0 0 18 18" version="1.1" xmlns="http://www.w3.org/2000/svg" xmlns:xlink="http://www.w3.org/1999/xlink">
    <!-- Generator: Sketch 50.2 (55047) - http://www.bohemiancoding.com/sketch -->
    <title>icons/social/facebook/black</title>
    <desc>Created with Sketch.</desc>
    <defs></defs>
    <g id="website" stroke="none" stroke-width="1" fill="none" fill-rule="evenodd">
        <g id="ht6_2018_website_v1" transform="translate(-1179.000000, -7338.000000)" fill="#383B41" fill-rule="nonzero">
            <g id="contact-us" transform="translate(0.000000, 6484.000000)">
                <g id="footer" transform="translate(0.000000, 831.000000)">
                    <g id="icons/social/facebook/black" transform="translate(1176.000000, 20.000000)">
                        <path d="M15,21 L15,14 L17,14 L18,11 L15,11 L15,10 C15.1926355,9.01675746 15.4128613,8.49063662 17,8 L18,8 L18,6 C17.749083,6.07260647 16.88831,6 16,6 C13.7960768,6 12.3647157,7.24266113 12,10 L12,11 L10,11 L10,14 L12,14 L12,21 L4,21 C3.44465451,21 3,20.5552049 3,20 L3,4 C3,3.44472483 3.44465451,3 4,3 L20,3 C20.5550642,3 20.9999297,3.44472483 21,4 L21,20 C20.9999297,20.5552049 20.5550642,21 20,21 L15,21 Z" id="Combined-Shape"></path>
                    </g>
                </g>
            </g>
        </g>
    </g>
</svg>