<?xml version="1.0" encoding="UTF-8"?>
<svg width="83px" height="84px" viewBox="0 0 83 84" version="1.1" xmlns="http://www.w3.org/2000/svg" xmlns:xlink="http://www.w3.org/1999/xlink">
    <!-- Generator: Sketch 43.2 (39069) - http://www.bohemiancoding.com/sketch -->
    <title>Group</title>
    <desc>Created with Sketch.</desc>
    <defs></defs>
    <g id="Page-1" stroke="none" stroke-width="1" fill="none" fill-rule="evenodd">
        <g id="Group" transform="translate(-38.000000, -36.000000)" fill="#FFFFFF">
            <path d="M114,59.9998827 L114,70 L100.339074,70 C101.409867,72.6225179 102,75.4923425 102,78.5 C102,90.9264069 91.9264069,101 79.5,101 C67.0735931,101 57,90.9264069 57,78.5 C57,75.4923425 57.5901332,72.6225179 58.6609259,70 L46,70 L46,59.9961863 L46,102.007627 C46,107.523281 50.4758524,112 55.9970961,112 L104.002904,112 C109.52519,112 114,107.522683 114,101.999632 L114,73.2163048 L114,59.9998827 Z M38,51.9974769 C38,43.1623144 45.1663766,36 54.0032349,36 L104.996765,36 C113.835108,36 121,43.1617928 121,51.9974769 L121,104.002523 C121,112.837686 113.833623,120 104.996765,120 L54.0032349,120 C45.1648923,120 38,112.838207 38,104.002523 L38,51.9974769 Z M79.5,93.5 C87.7842712,93.5 94.5,86.7842712 94.5,78.5 C94.5,70.2157288 87.7842712,63.5 79.5,63.5 C71.2157288,63.5 64.5,70.2157288 64.5,78.5 C64.5,86.7842712 71.2157288,93.5 79.5,93.5 Z M100,46 L100,60 L114,60 L114,46 L100,46 Z" id="Combined-Shape"></path>
        </g>
    </g>
</svg>