<?xml version="1.0" encoding="UTF-8"?>
<svg width="83px" height="84px" viewBox="0 0 83 84" version="1.1" xmlns="http://www.w3.org/2000/svg" xmlns:xlink="http://www.w3.org/1999/xlink">
    <!-- Generator: Sketch 43.2 (39069) - http://www.bohemiancoding.com/sketch -->
    <title>Group</title>
    <desc>Created with Sketch.</desc>
    <defs></defs>
    <g id="Page-1" stroke="none" stroke-width="1" fill="none" fill-rule="evenodd">
        <g id="Group" transform="translate(-38.000000, -36.000000)" fill="#FFFFFF">
            <path d="M112,70 L100.339074,70 C101.409867,72.6225179 102,75.4923425 102,78.5 C102,90.9264069 91.9264069,101 79.5,101 C67.0735931,101 57,90.9264069 57,78.5 C57,75.4923425 57.5901332,72.6225179 58.6609259,70 L47,70 L47,102.007627 C47,107.523281 51.4753827,112 56.9960471,112 L102.003953,112 C107.532287,112 112,107.522683 112,101.999632 L112,73.2163048 L112,70 Z M38,51.9974769 C38,43.1623144 45.1663766,36 54.0032349,36 L104.996765,36 C113.835108,36 121,43.1617928 121,51.9974769 L121,104.002523 C121,112.837686 113.833623,120 104.996765,120 L54.0032349,120 C45.1648923,120 38,112.838207 38,104.002523 L38,51.9974769 Z M79.5,92 C86.9558441,92 93,85.9558441 93,78.5 C93,71.0441559 86.9558441,65 79.5,65 C72.0441559,65 66,71.0441559 66,78.5 C66,85.9558441 72.0441559,92 79.5,92 Z M98,46 L98,60 L112,60 L112,46 L98,46 Z" id="Combined-Shape"></path>
        </g>
    </g>
</svg>