<?xml version="1.0" encoding="UTF-8"?>
<svg width="18px" height="18px" viewBox="0 0 18 18" version="1.1" xmlns="http://www.w3.org/2000/svg" xmlns:xlink="http://www.w3.org/1999/xlink">
    <!-- Generator: Sketch 50.2 (55047) - http://www.bohemiancoding.com/sketch -->
    <title>icons/social/instagram/black</title>
    <desc>Created with Sketch.</desc>
    <defs></defs>
    <g id="website" stroke="none" stroke-width="1" fill="none" fill-rule="evenodd">
        <g id="ht6_2018_website_v1" transform="translate(-1259.000000, -7338.000000)" fill="#383B41">
            <g id="contact-us" transform="translate(0.000000, 6484.000000)">
                <g id="footer" transform="translate(0.000000, 831.000000)">
                    <g id="icons/social/instagram/black" transform="translate(1256.000000, 20.000000)">
                        <g id="instagram" transform="translate(3.000000, 3.000000)">
                            <path d="M6.00072003,9 C6.00072003,7.34328 7.34357374,5.99976 9.00036001,5.99976 C10.6571463,5.99976 12.00072,7.34328 12.00072,9 C12.00072,10.65672 10.6571463,12.00024 9.00036001,12.00024 C7.34357374,12.00024 6.00072003,10.65672 6.00072003,9 M4.37849514,9 C4.37849514,11.5524 6.44785791,13.62168 9.00036001,13.62168 C11.5528621,13.62168 13.6222249,11.5524 13.6222249,9 C13.6222249,6.4476 11.5528621,4.37832 9.00036001,4.37832 C6.44785791,4.37832 4.37849514,6.4476 4.37849514,9 M12.725069,4.19544 C12.725069,4.7916 13.2082083,5.27544 13.8051122,5.27544 C14.4012961,5.27544 14.8851554,4.7916 14.8851554,4.19544 C14.8851554,3.59928 14.4020161,3.11616 13.8051122,3.11616 C13.2082083,3.11616 12.725069,3.59928 12.725069,4.19544 M5.36421457,16.326 C4.48649946,16.28568 4.00984039,16.14024 3.69302772,16.0164 C3.2725309,15.85296 2.97299892,15.65784 2.65762631,15.3432 C2.34297372,15.02856 2.14712589,14.72904 1.98439938,14.30856 C1.86055442,13.99176 1.71438858,13.5144 1.67478699,12.63744 C1.63086523,11.68848 1.62222489,11.40408 1.62222489,9.00072 C1.62222489,6.59736 1.63158526,6.31296 1.67478699,5.364 C1.7151086,4.48632 1.86127445,4.0104 1.98439938,3.69288 C2.14784591,3.2724 2.34297372,2.97288 2.65762631,2.65752 C2.97227889,2.34288 3.27181087,2.14704 3.69302772,1.98432 C4.00984039,1.86048 4.48721949,1.71432 5.36421457,1.67472 C6.31321253,1.6308 6.5976239,1.62216 9.00036001,1.62216 C11.4038162,1.62216 11.6882275,1.63152 12.6372255,1.67472 C13.5149406,1.71504 13.9908796,1.8612 14.3084123,1.98432 C14.7289092,2.14704 15.0284411,2.34288 15.3438138,2.65752 C15.6584663,2.97216 15.8535941,3.2724 16.0170407,3.69288 C16.1408856,4.00968 16.2870515,4.48704 16.3266531,5.364 C16.3705748,6.31368 16.3792152,6.59736 16.3792152,9.00072 C16.3792152,11.40336 16.3705748,11.68848 16.3266531,12.63744 C16.2863315,13.51512 16.1401656,13.99176 16.0170407,14.30856 C15.8535941,14.72904 15.6584663,15.02856 15.3438138,15.3432 C15.0291612,15.65784 14.7289092,15.85296 14.3084123,16.0164 C13.9915997,16.14024 13.5142206,16.2864 12.6372255,16.326 C11.6882275,16.36992 11.4038162,16.37856 9.00036001,16.37856 C6.5976239,16.37784 6.3124925,16.3692 5.36421457,16.326 M3.10548422,0.47304 C2.51362054,0.70272 2.01176047,1.01088 1.51134045,1.51128 C1.01020041,2.01096 0.702028081,2.51208 0.472338894,3.10464 C0.249849994,3.67704 0.097923917,4.3308 0.0540021601,5.28912 C0.0100804032,6.24888 0,6.5556 0,9 C0,11.4444 0.0100804032,11.75112 0.0547221889,12.71016 C0.0986439458,13.66848 0.250570023,14.32224 0.473058922,14.89464 C0.70274811,15.48648 1.01020041,15.98904 1.51134045,16.48872 C2.01176047,16.98912 2.51290052,17.29656 3.10548422,17.52696 C3.67862715,17.74944 4.33169327,17.90136 5.2900516,17.94528 C6.25057002,17.9892 6.55658226,18 9.00036001,18 C11.4455778,18 11.7515901,17.98992 12.7106684,17.94528 C13.6690268,17.90136 14.3228129,17.74944 14.8952358,17.52696 C15.4870995,17.29656 15.9889596,16.98912 16.4893796,16.48872 C16.9897996,15.98832 17.2972519,15.48648 17.5276611,14.89464 C17.75015,14.32224 17.9027961,13.66848 17.9459978,12.71016 C17.9899196,11.74968 18,11.44368 18,9 C18,6.55632 17.9899196,6.24888 17.9459978,5.28984 C17.9020761,4.33152 17.75015,3.67776 17.5276611,3.10536 C17.2972519,2.51352 16.9897996,2.01168 16.4893796,1.51128 C15.9889596,1.01088 15.4870995,0.70272 14.8959558,0.47304 C14.3228129,0.25056 13.6690268,0.09792 12.7113885,0.05472 C11.7523101,0.0108 11.4455778,0 9.00108004,0 C6.55586223,0 6.24984999,0.01008 5.2900516,0.05472 C4.33169327,0.09864 3.67790712,0.25056 3.10548422,0.47304 Z" id="Shape" fill-rule="nonzero"></path>
                        </g>
                    </g>
                </g>
            </g>
        </g>
    </g>
</svg>