<svg id="Layer_1" data-name="Layer 1" xmlns="http://www.w3.org/2000/svg" viewBox="0 0 203 500"><defs><style>.cls-1{fill:none;}.cls-1,.cls-2{stroke:#fff;stroke-linejoin:round;stroke-width:5px;}.cls-2{fill:#fff;}</style></defs><title>Logo</title><polygon class="cls-1" points="82.493 282.969 121.319 308.33 158.592 284.66 82.493 235.629 82.493 282.969"/><polygon class="cls-1" points="121.319 308.33 121.319 350.598 43.667 399.629 43.667 4 6.394 27.67 6.394 472.33 158.592 377.649 158.592 284.66 121.319 308.33"/><polygon class="cls-2" points="6.394 470.639 45.22 496 197.418 401.32 158.592 375.959 6.394 470.639"/><polygon class="cls-2" points="197.418 401.32 197.418 262.68 82.493 189.979 82.493 78.392 163.251 129.113 163.251 181.526 197.744 203.993 197.418 102.062 43.667 4 43.667 401.32 82.493 375.113 82.493 235.629 158.592 284.66 158.592 375.959 197.418 401.32"/><polygon class="cls-1" points="163.251 181.526 136.85 198.433 136.85 151.093 163.251 129.113 163.251 181.526"/><polygon class="cls-1" points="136.85 151.093 82.493 117.873 82.493 78.392 163.251 129.113 136.85 151.093"/><polygon class="cls-2" points="163.251 181.526 197.418 203.505 171.017 220.412 136.85 198.433 163.251 181.526"/></svg>