<svg id="Layer_1" data-name="Layer 1" xmlns="http://www.w3.org/2000/svg" viewBox="0 0 203 500"><defs><style>.cls-1{fill:#fff;}.cls-1,.cls-2{stroke:#000;stroke-linejoin:round;stroke-width:5px;}</style></defs><title>Logo</title><polygon class="cls-1" points="81.493 282.969 120.319 308.33 157.592 284.66 81.493 235.629 81.493 282.969"/><polygon class="cls-1" points="120.319 308.33 120.319 350.598 42.667 399.629 42.667 4 5.394 27.67 5.394 472.33 157.592 377.649 157.592 284.66 120.319 308.33"/><polygon class="cls-2" points="5.394 470.639 44.22 496 196.418 401.32 157.592 375.959 5.394 470.639"/><polygon class="cls-2" points="196.418 401.32 196.418 262.68 81.493 189.979 81.493 78.392 162.251 129.113 162.251 181.526 196.744 203.993 196.418 102.062 42.667 4 42.667 401.32 81.493 375.113 81.493 235.629 157.592 284.66 157.592 375.959 196.418 401.32"/><polygon class="cls-1" points="162.251 181.526 135.85 198.433 135.85 151.093 162.251 129.113 162.251 181.526"/><polygon class="cls-1" points="135.85 151.093 81.493 117.873 81.493 78.392 162.251 129.113 135.85 151.093"/><polygon class="cls-2" points="162.251 181.526 196.418 203.505 170.017 220.412 135.85 198.433 162.251 181.526"/></svg>