<svg xmlns="http://www.w3.org/2000/svg" viewBox="0 0 215.96384 175.10476"><defs><style>.cls-1{fill:#fff;}.cls-2{opacity:0.3;}.cls-3{opacity:0;}.cls-4{opacity:0.02703;}.cls-5{opacity:0.05405;}.cls-6{opacity:0.08108;}.cls-7{opacity:0.10811;}.cls-8{opacity:0.13514;}.cls-9{opacity:0.16216;}.cls-10{opacity:0.18919;}.cls-11{opacity:0.21622;}.cls-12{opacity:0.24324;}.cls-13{opacity:0.27027;}.cls-14{opacity:0.2973;}.cls-15{opacity:0.32432;}.cls-16{opacity:0.35135;}.cls-17{opacity:0.37838;}.cls-18{opacity:0.40541;}.cls-19{opacity:0.43243;}.cls-20{opacity:0.45946;}.cls-21{opacity:0.48649;}.cls-22{opacity:0.51351;}.cls-23{opacity:0.54054;}.cls-24{opacity:0.56757;}.cls-25{opacity:0.59459;}.cls-26{opacity:0.62162;}.cls-27{opacity:0.64865;}.cls-28{opacity:0.67568;}.cls-29{opacity:0.7027;}.cls-30{opacity:0.72973;}.cls-31{opacity:0.75676;}.cls-32{opacity:0.78378;}.cls-33{opacity:0.81081;}.cls-34{opacity:0.83784;}.cls-35{opacity:0.86486;}.cls-36{opacity:0.89189;}.cls-37{opacity:0.91892;}.cls-38{opacity:0.94595;}.cls-39{opacity:0.97297;}.cls-40{fill:#ffdf3c;}.cls-41{fill:#ff8948;}.cls-42{fill:#0096af;}.cls-43{fill:#047d89;}.cls-44{fill:#036166;}</style></defs><title>Asset 18</title><g id="Layer_2" data-name="Layer 2"><g id="Info"><g id="Star"><path class="cls-1" d="M71.65772,10.9375A10.93677,10.93677,0,0,1,60.72072,0a10.93739,10.93739,0,0,1-10.938,10.9375,10.93745,10.93745,0,0,1,10.938,10.9375A10.93684,10.93684,0,0,1,71.65772,10.9375Z"/><path class="cls-1" d="M21.875,72.8047A10.93782,10.93782,0,0,1,10.93752,61.8672,10.93791,10.93791,0,0,1,0,72.8047,10.938,10.938,0,0,1,10.93752,83.7422,10.93788,10.93788,0,0,1,21.875,72.8047Z"/><path class="cls-1" d="M90.00832,148.6045a10.9375,10.9375,0,0,1-10.9371-10.9375,10.93792,10.93792,0,0,1-10.9379,10.9375,10.93735,10.93735,0,0,1,10.9379,10.9375A10.93692,10.93692,0,0,1,90.00832,148.6045Z"/><path class="cls-1" d="M167.31252,36.5928a6.88414,6.88414,0,0,1-6.8843-6.8848,6.88478,6.88478,0,0,1-6.8843,6.8848,6.88478,6.88478,0,0,1,6.8843,6.8848A6.88414,6.88414,0,0,1,167.31252,36.5928Z"/><path class="cls-1" d="M181.081,136.3663a6.88406,6.88406,0,0,1-6.8843-6.8838,6.88429,6.88429,0,0,1-6.8842,6.8838,6.88442,6.88442,0,0,1,6.8842,6.8847A6.88419,6.88419,0,0,1,181.081,136.3663Z"/></g><g class="cls-2"><g class="cls-3"><path d="M215.96384,84.95121c-5.34082,1.917-33.36426,30.37012-37.252,34.335,8.62207-8.9707,11.24268-21.9082,11.24268-21.9082-10.7959,14.52539-37.2583,29.77539-37.2583,29.77539,2.356-3.72949,7.85205-8.24414,7.85205-8.24414-9.61865,3.92578-30.09961,28.93945-30.09961,28.93945l.00146.00146a15.97848,15.97848,0,0,0-4.59863,12.79932,1.37878,1.37878,0,0,1,.79541,1.69922.893.893,0,0,1-.14111,1.541,15.95381,15.95381,0,0,0,26.52,6.53613l.00684.00684s25.01367-20.48145,28.93945-30.09961c0,0-4.51416,5.49609-8.24414,7.85156,0,0,15.25-26.46191,29.77539-37.25781,0,0-12.90967,2.61523-21.87793,11.21484C185.6992,118.15434,214.05125,90.27934,215.96384,84.95121Z"/><path d="M117.68552,123.1182s21.44629-37.21484,41.874-52.39844c0,0-18.15527,3.67773-30.76855,15.77344,5.72949-5.6084,45.60254-44.80957,48.29248-52.30371-7.51123,2.69629-46.92187,42.71094-52.38965,48.28613,12.126-12.61426,15.81152-30.80957,15.81152-30.80957-15.18262,20.42773-52.39746,41.875-52.39746,41.875,3.313-5.24512,11.042-11.59473,11.042-11.59473C85.62351,87.46684,56.8198,122.64555,56.8198,122.64555l.002.002a22.46883,22.46883,0,0,0-6.4668,18,1.93891,1.93891,0,0,1,1.11816,2.38965,1.25463,1.25463,0,0,1-.19775,2.166,22.43648,22.43648,0,0,0,37.29553,9.19312l.00916.009s35.17822-28.80273,40.69922-42.33008C129.27927,112.07523,122.93015,119.8057,117.68552,123.1182Z"/></g><g class="cls-4"><path d="M215.24763,84.235c-5.34082,1.917-33.36426,30.37012-37.252,34.335,8.62207-8.9707,11.24268-21.9082,11.24268-21.9082-10.7959,14.52539-37.2583,29.77539-37.2583,29.77539,2.356-3.72949,7.85205-8.24414,7.85205-8.24414-9.61865,3.92578-30.09961,28.93945-30.09961,28.93945l.00146.00146a15.97848,15.97848,0,0,0-4.59863,12.79932,1.37878,1.37878,0,0,1,.79541,1.69922.893.893,0,0,1-.14111,1.541,15.95381,15.95381,0,0,0,26.52,6.53613l.00684.00684s25.01367-20.48145,28.93945-30.09961c0,0-4.51416,5.49609-8.24414,7.85156,0,0,15.25-26.46191,29.77539-37.25781,0,0-12.90967,2.61523-21.87793,11.21484C184.983,117.43812,213.335,89.56312,215.24763,84.235Z"/><path d="M116.96931,122.402s21.44629-37.21484,41.874-52.39844c0,0-18.15527,3.67773-30.76855,15.77344,5.72949-5.6084,45.60254-44.80957,48.29248-52.30371-7.51123,2.69629-46.92187,42.71094-52.38965,48.28613,12.126-12.61426,15.81152-30.80957,15.81152-30.80957-15.18262,20.42773-52.39746,41.875-52.39746,41.875,3.313-5.24512,11.042-11.59473,11.042-11.59473-13.52637,5.52051-42.33008,40.69922-42.33008,40.69922l.002.002a22.46883,22.46883,0,0,0-6.4668,18,1.93891,1.93891,0,0,1,1.11816,2.38965,1.25463,1.25463,0,0,1-.19775,2.166,22.43648,22.43648,0,0,0,37.29553,9.19312l.00916.009s35.17822-28.80273,40.69922-42.33008C128.56306,111.359,122.21394,119.08949,116.96931,122.402Z"/></g><g class="cls-5"><path d="M214.53141,83.51878c-5.34082,1.917-33.36426,30.37012-37.252,34.335,8.62207-8.9707,11.24268-21.9082,11.24268-21.9082-10.7959,14.52539-37.2583,29.77539-37.2583,29.77539,2.356-3.72949,7.85205-8.24414,7.85205-8.24414-9.61865,3.92578-30.09961,28.93945-30.09961,28.93945l.00146.00146a15.97848,15.97848,0,0,0-4.59863,12.79932,1.37878,1.37878,0,0,1,.79541,1.69922.893.893,0,0,1-.14111,1.541,15.95381,15.95381,0,0,0,26.52,6.53613l.00684.00684s25.01367-20.48145,28.93945-30.09961c0,0-4.51416,5.49609-8.24414,7.85156,0,0,15.25-26.46191,29.77539-37.25781,0,0-12.90967,2.61523-21.87793,11.21484C184.26676,116.7219,212.61881,88.8469,214.53141,83.51878Z"/><path d="M116.25309,121.68577s21.44629-37.21484,41.874-52.39844c0,0-18.15527,3.67773-30.76855,15.77344,5.72949-5.6084,45.60254-44.80957,48.29248-52.30371-7.51123,2.69629-46.92187,42.71094-52.38965,48.28613,12.126-12.61426,15.81152-30.80957,15.81152-30.80957-15.18262,20.42773-52.39746,41.875-52.39746,41.875,3.313-5.24512,11.042-11.59473,11.042-11.59473-13.52637,5.52051-42.33008,40.69922-42.33008,40.69922l.002.002a22.46883,22.46883,0,0,0-6.4668,18,1.93891,1.93891,0,0,1,1.11816,2.38965,1.25463,1.25463,0,0,1-.19775,2.166,22.43648,22.43648,0,0,0,37.29553,9.19312l.00916.009s35.17822-28.80273,40.69922-42.33008C127.84684,110.6428,121.49772,118.37327,116.25309,121.68577Z"/></g><g class="cls-6"><path d="M213.8152,82.80256c-5.34082,1.917-33.36426,30.37012-37.252,34.335,8.62207-8.9707,11.24268-21.9082,11.24268-21.9082-10.7959,14.52539-37.2583,29.77539-37.2583,29.77539,2.356-3.72949,7.85205-8.24414,7.85205-8.24414C148.781,120.68635,128.30006,145.7,128.30006,145.7l.00146.00146a15.97848,15.97848,0,0,0-4.59863,12.79932A1.37878,1.37878,0,0,1,124.4983,160.2a.893.893,0,0,1-.14111,1.541,15.95381,15.95381,0,0,0,26.52,6.53613l.00684.00684s25.01367-20.48145,28.93945-30.09961c0,0-4.51416,5.49609-8.24414,7.85156,0,0,15.25-26.46191,29.77539-37.25781,0,0-12.90967,2.61523-21.87793,11.21484C183.55055,116.00569,211.9026,88.13069,213.8152,82.80256Z"/><path d="M115.53688,120.96955s21.44629-37.21484,41.874-52.39844c0,0-18.15527,3.67773-30.76855,15.77344,5.72949-5.6084,45.60254-44.80957,48.29248-52.30371-7.51123,2.69629-46.92187,42.71094-52.38965,48.28613,12.126-12.61426,15.81152-30.80957,15.81152-30.80957-15.18262,20.42773-52.39746,41.875-52.39746,41.875,3.313-5.24512,11.042-11.59473,11.042-11.59473C83.47486,85.31819,54.67115,120.4969,54.67115,120.4969l.002.002a22.46883,22.46883,0,0,0-6.4668,18,1.93891,1.93891,0,0,1,1.11816,2.38965,1.25463,1.25463,0,0,1-.19775,2.166,22.43648,22.43648,0,0,0,37.29553,9.19312l.00916.009s35.17822-28.80273,40.69922-42.33008C127.13063,109.92659,120.7815,117.65705,115.53688,120.96955Z"/></g><g class="cls-7"><path d="M213.099,82.08635c-5.34082,1.917-33.36426,30.37012-37.252,34.335,8.62207-8.9707,11.24268-21.9082,11.24268-21.9082-10.7959,14.52539-37.2583,29.77539-37.2583,29.77539,2.356-3.72949,7.85205-8.24414,7.85205-8.24414-9.61865,3.92578-30.09961,28.93945-30.09961,28.93945l.00146.00146a15.97848,15.97848,0,0,0-4.59863,12.79932,1.37878,1.37878,0,0,1,.79541,1.69922.893.893,0,0,1-.14111,1.541,15.95381,15.95381,0,0,0,26.52,6.53613l.00684.00684s25.01367-20.48145,28.93945-30.09961c0,0-4.51416,5.49609-8.24414,7.85156,0,0,15.25-26.46191,29.77539-37.25781,0,0-12.90967,2.61523-21.87793,11.21484C182.83433,115.28947,211.18638,87.41447,213.099,82.08635Z"/><path d="M114.82066,120.25334s21.44629-37.21484,41.874-52.39844c0,0-18.15527,3.67773-30.76855,15.77344,5.72949-5.6084,45.60254-44.80957,48.29248-52.30371-7.51123,2.69629-46.92188,42.71094-52.38965,48.28613,12.126-12.61426,15.81152-30.80957,15.81152-30.80957C122.45787,69.22892,85.243,90.67619,85.243,90.67619c3.313-5.24512,11.042-11.59473,11.042-11.59473C82.75865,84.602,53.95494,119.78068,53.95494,119.78068l.002.002a22.46883,22.46883,0,0,0-6.4668,18,1.93891,1.93891,0,0,1,1.11816,2.38965,1.25463,1.25463,0,0,1-.19775,2.166A22.43648,22.43648,0,0,0,85.706,151.53141l.00916.009s35.17822-28.80273,40.69922-42.33008C126.41441,109.21037,120.06529,116.94084,114.82066,120.25334Z"/></g><g class="cls-8"><path d="M212.38276,81.37013c-5.34082,1.917-33.36426,30.37012-37.252,34.335,8.62207-8.9707,11.24268-21.9082,11.24268-21.9082-10.7959,14.52539-37.2583,29.77539-37.2583,29.77539,2.356-3.72949,7.85205-8.24414,7.85205-8.24414-9.61865,3.92578-30.09961,28.93945-30.09961,28.93945l.00146.00146a15.97848,15.97848,0,0,0-4.59863,12.79932,1.37878,1.37878,0,0,1,.79541,1.69922.893.893,0,0,1-.14111,1.541,15.95381,15.95381,0,0,0,26.52,6.53613l.00684.00684s25.01367-20.48145,28.93945-30.09961c0,0-4.51416,5.49609-8.24414,7.85156,0,0,15.25-26.46191,29.77539-37.25781,0,0-12.90967,2.61523-21.87793,11.21484C182.11811,114.57325,210.47017,86.69825,212.38276,81.37013Z"/><path d="M114.10444,119.53712s21.44629-37.21484,41.874-52.39844c0,0-18.15527,3.67773-30.76855,15.77344,5.72949-5.6084,45.60254-44.80957,48.29248-52.30371-7.51123,2.69629-46.92187,42.71094-52.38965,48.28613,12.126-12.61426,15.81152-30.80957,15.81152-30.80957C121.74165,68.51271,84.52681,89.96,84.52681,89.96c3.313-5.24512,11.042-11.59473,11.042-11.59473-13.52637,5.52051-42.33008,40.69922-42.33008,40.69922l.002.002a22.46883,22.46883,0,0,0-6.4668,18,1.93891,1.93891,0,0,1,1.11816,2.38965,1.25463,1.25463,0,0,1-.19775,2.166,22.43648,22.43648,0,0,0,37.29553,9.19312l.00916.009s35.17822-28.80273,40.69922-42.33008C125.69819,108.49415,119.34907,116.22462,114.10444,119.53712Z"/></g><g class="cls-9"><path d="M211.66655,80.65391c-5.34082,1.917-33.36426,30.37012-37.252,34.335,8.62207-8.9707,11.24268-21.9082,11.24268-21.9082-10.7959,14.52539-37.2583,29.77539-37.2583,29.77539,2.356-3.72949,7.85205-8.24414,7.85205-8.24414-9.61865,3.92578-30.09961,28.93945-30.09961,28.93945l.00146.00146a15.97848,15.97848,0,0,0-4.59863,12.79932,1.37878,1.37878,0,0,1,.79541,1.69922.893.893,0,0,1-.14111,1.541,15.95381,15.95381,0,0,0,26.52,6.53613l.00684.00684s25.01367-20.48145,28.93945-30.09961c0,0-4.51416,5.49609-8.24414,7.85156,0,0,15.25-26.46191,29.77539-37.25781,0,0-12.90967,2.61523-21.87793,11.21484C181.4019,113.857,209.75395,85.982,211.66655,80.65391Z"/><path d="M113.38823,118.82091s21.44629-37.21484,41.874-52.39844c0,0-18.15527,3.67773-30.76855,15.77344,5.72949-5.6084,45.60254-44.80957,48.29248-52.30371-7.51123,2.69629-46.92187,42.71094-52.38965,48.28613,12.126-12.61426,15.81152-30.80957,15.81152-30.80957-15.18262,20.42773-52.39746,41.875-52.39746,41.875,3.313-5.24512,11.042-11.59473,11.042-11.59473C81.32621,83.16954,52.5225,118.34825,52.5225,118.34825l.002.002a22.46883,22.46883,0,0,0-6.4668,18,1.93891,1.93891,0,0,1,1.11816,2.38965,1.25463,1.25463,0,0,1-.19775,2.166A22.43648,22.43648,0,0,0,84.2736,150.099l.00916.009S119.461,121.30528,124.982,107.77794C124.982,107.77794,118.63286,115.50841,113.38823,118.82091Z"/></g><g class="cls-10"><path d="M210.95033,79.9377c-5.34082,1.917-33.36426,30.37012-37.252,34.335,8.62207-8.9707,11.24268-21.9082,11.24268-21.9082-10.7959,14.52539-37.2583,29.77539-37.2583,29.77539,2.356-3.72949,7.85205-8.24414,7.85205-8.24414-9.61865,3.92578-30.09961,28.93945-30.09961,28.93945l.00146.00146a15.97848,15.97848,0,0,0-4.59863,12.79932,1.37878,1.37878,0,0,1,.79541,1.69922.893.893,0,0,1-.14111,1.541,15.95381,15.95381,0,0,0,26.52,6.53613l.00684.00684s25.01367-20.48145,28.93945-30.09961c0,0-4.51416,5.49609-8.24414,7.85156,0,0,15.25-26.46191,29.77539-37.25781,0,0-12.90967,2.61523-21.87793,11.21484C180.68568,113.14082,209.03773,85.26582,210.95033,79.9377Z"/><path d="M112.672,118.10469s21.44629-37.21484,41.874-52.39844c0,0-18.15527,3.67773-30.76855,15.77344C129.507,75.87129,169.38,36.67012,172.07,29.176c-7.51123,2.69629-46.92188,42.71094-52.38965,48.28613,12.126-12.61426,15.81152-30.80957,15.81152-30.80957-15.18262,20.42773-52.39746,41.875-52.39746,41.875,3.313-5.24512,11.042-11.59473,11.042-11.59473C80.61,82.45332,51.80629,117.632,51.80629,117.632l.002.002a22.46883,22.46883,0,0,0-6.4668,18,1.93891,1.93891,0,0,1,1.11816,2.38965,1.25463,1.25463,0,0,1-.19775,2.166,22.43648,22.43648,0,0,0,37.29553,9.19312l.00916.009s35.17822-28.80273,40.69922-42.33008C124.26576,107.06172,117.91664,114.79219,112.672,118.10469Z"/></g><g class="cls-11"><path d="M210.23411,79.22148c-5.34082,1.917-33.36426,30.37012-37.252,34.335,8.62207-8.9707,11.24268-21.9082,11.24268-21.9082-10.7959,14.52539-37.2583,29.77539-37.2583,29.77539,2.356-3.72949,7.85205-8.24414,7.85205-8.24414-9.61865,3.92578-30.09961,28.93945-30.09961,28.93945l.00146.00146a15.97848,15.97848,0,0,0-4.59863,12.79932,1.37878,1.37878,0,0,1,.79541,1.69922.893.893,0,0,1-.14111,1.541,15.95381,15.95381,0,0,0,26.52,6.53613l.00684.00684s25.01367-20.48145,28.93945-30.09961c0,0-4.51416,5.49609-8.24414,7.85156,0,0,15.25-26.46191,29.77539-37.25781,0,0-12.90967,2.61523-21.87793,11.21484C179.96947,112.42461,208.32152,84.54961,210.23411,79.22148Z"/><path d="M111.95579,117.38847s21.44629-37.21484,41.874-52.39844c0,0-18.15527,3.67773-30.76855,15.77344,5.72949-5.6084,45.60254-44.80957,48.29248-52.30371-7.51123,2.69629-46.92187,42.71094-52.38965,48.28613,12.126-12.61426,15.81152-30.80957,15.81152-30.80957-15.18262,20.42773-52.39746,41.875-52.39746,41.875,3.313-5.24512,11.042-11.59473,11.042-11.59473-13.52637,5.52051-42.33008,40.69922-42.33008,40.69922l.002.002a22.46883,22.46883,0,0,0-6.4668,18,1.93891,1.93891,0,0,1,1.11816,2.38965,1.25463,1.25463,0,0,1-.19775,2.166,22.43648,22.43648,0,0,0,37.29553,9.19312l.00916.009s35.17822-28.80273,40.69922-42.33008C123.54954,106.3455,117.20042,114.076,111.95579,117.38847Z"/></g><g class="cls-12"><path d="M209.5179,78.50526c-5.34082,1.917-33.36426,30.37012-37.252,34.335,8.62207-8.9707,11.24268-21.9082,11.24268-21.9082-10.7959,14.52539-37.2583,29.77539-37.2583,29.77539,2.356-3.72949,7.85205-8.24414,7.85205-8.24414-9.61865,3.92578-30.09961,28.93945-30.09961,28.93945l.00146.00146a15.97848,15.97848,0,0,0-4.59863,12.79932,1.37878,1.37878,0,0,1,.79541,1.69922.893.893,0,0,1-.14111,1.541,15.95381,15.95381,0,0,0,26.52,6.53613l.00684.00684s25.01367-20.48145,28.93945-30.09961c0,0-4.51416,5.49609-8.24414,7.85156,0,0,15.25-26.46191,29.77539-37.25781,0,0-12.90967,2.61523-21.87793,11.21484C179.25325,111.70839,207.6053,83.83339,209.5179,78.50526Z"/><path d="M111.23958,116.67226s21.44629-37.21484,41.874-52.39844c0,0-18.15527,3.67773-30.76855,15.77344,5.72949-5.6084,45.60254-44.80957,48.29248-52.30371-7.51123,2.69629-46.92187,42.71094-52.38965,48.28613,12.126-12.61426,15.81152-30.80957,15.81152-30.80957-15.18262,20.42773-52.39746,41.875-52.39746,41.875,3.313-5.24512,11.042-11.59473,11.042-11.59473C79.17757,81.02089,50.37386,116.1996,50.37386,116.1996l.002.002a22.46883,22.46883,0,0,0-6.4668,18,1.93891,1.93891,0,0,1,1.11816,2.38965,1.25463,1.25463,0,0,1-.19775,2.166A22.43648,22.43648,0,0,0,82.125,147.95033l.00916.009s35.17822-28.80273,40.69922-42.33008C122.83333,105.62929,116.48421,113.35976,111.23958,116.67226Z"/></g><g class="cls-13"><path d="M208.80168,77.789c-5.34082,1.917-33.36426,30.37012-37.252,34.335,8.62207-8.9707,11.24268-21.9082,11.24268-21.9082-10.7959,14.52539-37.2583,29.77539-37.2583,29.77539,2.356-3.72949,7.85205-8.24414,7.85205-8.24414-9.61865,3.92578-30.09961,28.93945-30.09961,28.93945l.00146.00146a15.97848,15.97848,0,0,0-4.59863,12.79932,1.37878,1.37878,0,0,1,.79541,1.69922.893.893,0,0,1-.14111,1.541,15.95381,15.95381,0,0,0,26.52,6.53613l.00684.00684S170.8842,142.789,174.81,133.17088c0,0-4.51416,5.49609-8.24414,7.85156,0,0,15.25-26.46191,29.77539-37.25781,0,0-12.90967,2.61523-21.87793,11.21484C178.537,110.99217,206.88908,83.11717,208.80168,77.789Z"/><path d="M110.52336,115.956s21.44629-37.21484,41.874-52.39844c0,0-18.15527,3.67773-30.76855,15.77344,5.72949-5.6084,45.60254-44.80957,48.29248-52.30371-7.51123,2.69629-46.92187,42.71094-52.38965,48.28613,12.126-12.61426,15.81152-30.80957,15.81152-30.80957-15.18262,20.42773-52.39746,41.875-52.39746,41.875,3.313-5.24512,11.042-11.59473,11.042-11.59473-13.52637,5.52051-42.33008,40.69922-42.33008,40.69922l.002.002a22.46883,22.46883,0,0,0-6.4668,18A1.93891,1.93891,0,0,1,44.311,135.875a1.25463,1.25463,0,0,1-.19775,2.166,22.43648,22.43648,0,0,0,37.29553,9.19312l.00916.009s35.17822-28.80273,40.69922-42.33008C122.11711,104.91307,115.768,112.64354,110.52336,115.956Z"/></g><g class="cls-14"><path d="M208.08547,77.07283c-5.34082,1.917-33.36426,30.37012-37.252,34.335,8.62207-8.9707,11.24268-21.9082,11.24268-21.9082-10.7959,14.52539-37.2583,29.77539-37.2583,29.77539,2.356-3.72949,7.85205-8.24414,7.85205-8.24414-9.61865,3.92578-30.09961,28.93945-30.09961,28.93945l.00146.00146a15.97848,15.97848,0,0,0-4.59863,12.79932,1.37878,1.37878,0,0,1,.79541,1.69922.893.893,0,0,1-.14111,1.541,15.95381,15.95381,0,0,0,26.52,6.53613l.00684.00684s25.01367-20.48145,28.93945-30.09961c0,0-4.51416,5.49609-8.24414,7.85156,0,0,15.25-26.46191,29.77539-37.25781,0,0-12.90967,2.61523-21.87793,11.21484C177.82082,110.276,206.17287,82.401,208.08547,77.07283Z"/><path d="M109.80715,115.23982s21.44629-37.21484,41.874-52.39844c0,0-18.15527,3.67773-30.76855,15.77344,5.72949-5.6084,45.60254-44.80957,48.29248-52.30371-7.51123,2.69629-46.92187,42.71094-52.38965,48.28613C128.94142,61.983,132.627,43.78768,132.627,43.78768c-15.18262,20.42773-52.39746,41.875-52.39746,41.875,3.313-5.24512,11.042-11.59473,11.042-11.59473-13.52637,5.52051-42.33008,40.69922-42.33008,40.69922l.002.002a22.46883,22.46883,0,0,0-6.4668,18,1.93891,1.93891,0,0,1,1.11816,2.38965,1.25463,1.25463,0,0,1-.19775,2.166,22.43648,22.43648,0,0,0,37.29553,9.19312l.00916.009s35.17822-28.80273,40.69922-42.33008C121.4009,104.19686,115.05177,111.92732,109.80715,115.23982Z"/></g><g class="cls-15"><path d="M207.36925,76.35662c-5.34082,1.917-33.36426,30.37012-37.252,34.335,8.62207-8.9707,11.24268-21.9082,11.24268-21.9082-10.7959,14.52539-37.2583,29.77539-37.2583,29.77539,2.356-3.72949,7.85205-8.24414,7.85205-8.24414-9.61865,3.92578-30.09961,28.93945-30.09961,28.93945l.00146.00146a15.97848,15.97848,0,0,0-4.59863,12.79932,1.37878,1.37878,0,0,1,.79541,1.69922.893.893,0,0,1-.14111,1.541,15.95381,15.95381,0,0,0,26.52,6.53613l.00684.00684s25.01367-20.48145,28.93945-30.09961c0,0-4.51416,5.49609-8.24414,7.85156,0,0,15.25-26.46191,29.77539-37.25781,0,0-12.90967,2.61523-21.87793,11.21484C177.1046,109.55974,205.45665,81.68474,207.36925,76.35662Z"/><path d="M109.09093,114.52361s21.44629-37.21484,41.874-52.39844c0,0-18.15527,3.67773-30.76855,15.77344,5.72949-5.6084,45.60254-44.80957,48.29248-52.30371C160.97765,28.29119,121.567,68.30584,116.09923,73.881c12.126-12.61426,15.81152-30.80957,15.81152-30.80957-15.18262,20.42773-52.39746,41.875-52.39746,41.875,3.313-5.24512,11.042-11.59473,11.042-11.59473C77.02892,78.87224,48.22521,114.051,48.22521,114.051l.002.002a22.46883,22.46883,0,0,0-6.4668,18,1.93891,1.93891,0,0,1,1.11816,2.38965,1.25463,1.25463,0,0,1-.19775,2.166,22.43648,22.43648,0,0,0,37.29553,9.19312l.00916.009s35.17822-28.80273,40.69922-42.33008C120.68468,103.48064,114.33556,111.21111,109.09093,114.52361Z"/></g><g class="cls-16"><path d="M206.653,75.6404c-5.34082,1.917-33.36426,30.37012-37.252,34.335,8.62207-8.9707,11.24268-21.9082,11.24268-21.9082-10.7959,14.52539-37.2583,29.77539-37.2583,29.77539,2.356-3.72949,7.85205-8.24414,7.85205-8.24414-9.61865,3.92578-30.09961,28.93945-30.09961,28.93945l.00146.00146a15.97848,15.97848,0,0,0-4.59863,12.79932,1.37878,1.37878,0,0,1,.79541,1.69922.893.893,0,0,1-.14111,1.541,15.95381,15.95381,0,0,0,26.52,6.53613l.00684.00684s25.01367-20.48145,28.93945-30.09961c0,0-4.51416,5.49609-8.24414,7.85156,0,0,15.25-26.46191,29.77539-37.25781,0,0-12.90967,2.61523-21.87793,11.21484C176.38838,108.84353,204.74044,80.96853,206.653,75.6404Z"/><path d="M108.37471,113.80739S129.821,76.59255,150.24874,61.409c0,0-18.15527,3.67773-30.76855,15.77344,5.72949-5.6084,45.60254-44.80957,48.29248-52.30371C160.26143,27.575,120.85079,67.58962,115.383,73.16481c12.126-12.61426,15.81152-30.80957,15.81152-30.80957-15.18262,20.42773-52.39746,41.875-52.39746,41.875,3.313-5.24512,11.042-11.59473,11.042-11.59473C76.3127,78.156,47.509,113.33474,47.509,113.33474l.002.002a22.46883,22.46883,0,0,0-6.4668,18,1.93891,1.93891,0,0,1,1.11816,2.38965,1.25463,1.25463,0,0,1-.19775,2.166,22.43648,22.43648,0,0,0,37.29553,9.19312l.00916.009s35.17822-28.80273,40.69922-42.33008C119.96846,102.76442,113.61934,110.49489,108.37471,113.80739Z"/></g><g class="cls-17"><path d="M205.93682,74.92418c-5.34082,1.917-33.36426,30.37012-37.252,34.335,8.62207-8.9707,11.24268-21.9082,11.24268-21.9082-10.7959,14.52539-37.2583,29.77539-37.2583,29.77539,2.356-3.72949,7.85205-8.24414,7.85205-8.24414-9.61865,3.92578-30.09961,28.93945-30.09961,28.93945l.00146.00146a15.97848,15.97848,0,0,0-4.59863,12.79932,1.37878,1.37878,0,0,1,.79541,1.69922.893.893,0,0,1-.14111,1.541,15.95381,15.95381,0,0,0,26.52,6.53613l.00684.00684s25.01367-20.48145,28.93945-30.09961c0,0-4.51416,5.49609-8.24414,7.85156,0,0,15.25-26.46191,29.77539-37.25781,0,0-12.90967,2.61523-21.87793,11.21484C175.67217,108.12731,204.02422,80.25231,205.93682,74.92418Z"/><path d="M107.6585,113.09118s21.44629-37.21484,41.874-52.39844c0,0-18.15527,3.67773-30.76855,15.77344,5.72949-5.6084,45.60254-44.80957,48.29248-52.30371-7.51123,2.69629-46.92187,42.71094-52.38965,48.28613,12.126-12.61426,15.81152-30.80957,15.81152-30.80957C115.2957,62.06676,78.08086,83.514,78.08086,83.514c3.313-5.24512,11.042-11.59473,11.042-11.59473-13.52637,5.52051-42.33008,40.69922-42.33008,40.69922l.002.002a22.46883,22.46883,0,0,0-6.4668,18,1.93891,1.93891,0,0,1,1.11816,2.38965,1.25463,1.25463,0,0,1-.19775,2.166,22.43648,22.43648,0,0,0,37.29553,9.19312l.00916.009s35.17822-28.80273,40.69922-42.33008C119.25225,102.04821,112.90313,109.77868,107.6585,113.09118Z"/></g><g class="cls-18"><path d="M205.2206,74.208c-5.34082,1.917-33.36426,30.37012-37.252,34.335,8.62207-8.9707,11.24268-21.9082,11.24268-21.9082-10.7959,14.52539-37.2583,29.77539-37.2583,29.77539,2.356-3.72949,7.85205-8.24414,7.85205-8.24414-9.61865,3.92578-30.09961,28.93945-30.09961,28.93945l.00146.00146a15.97848,15.97848,0,0,0-4.59863,12.79932,1.37878,1.37878,0,0,1,.79541,1.69922.893.893,0,0,1-.14111,1.541,15.95381,15.95381,0,0,0,26.52,6.53613l.00684.00684S167.30312,139.208,171.2289,129.5898c0,0-4.51416,5.49609-8.24414,7.85156,0,0,15.25-26.46191,29.77539-37.25781,0,0-12.90967,2.61523-21.87793,11.21484C174.956,107.41109,203.308,79.53609,205.2206,74.208Z"/><path d="M106.94228,112.375s21.44629-37.21484,41.874-52.39844c0,0-18.15527,3.67773-30.76855,15.77344,5.72949-5.6084,45.60254-44.80957,48.29248-52.30371-7.51123,2.69629-46.92187,42.71094-52.38965,48.28613,12.126-12.61426,15.81152-30.80957,15.81152-30.80957-15.18262,20.42773-52.39746,41.875-52.39746,41.875,3.313-5.24512,11.042-11.59473,11.042-11.59473C74.88027,76.72359,46.07656,111.9023,46.07656,111.9023l.002.002a22.46883,22.46883,0,0,0-6.4668,18,1.93891,1.93891,0,0,1,1.11816,2.38965,1.25463,1.25463,0,0,1-.19775,2.166A22.43648,22.43648,0,0,0,77.82766,143.653l.00916.009S113.015,114.85933,118.536,101.332C118.536,101.332,112.18691,109.06246,106.94228,112.375Z"/></g><g class="cls-19"><path d="M204.50438,73.49175c-5.34082,1.917-33.36426,30.37012-37.252,34.335,8.62207-8.9707,11.24268-21.9082,11.24268-21.9082-10.7959,14.52539-37.2583,29.77539-37.2583,29.77539,2.356-3.72949,7.85205-8.24414,7.85205-8.24414-9.61865,3.92578-30.09961,28.93945-30.09961,28.93945l.00146.00146A15.97848,15.97848,0,0,0,114.39208,149.19a1.37878,1.37878,0,0,1,.79541,1.69922.893.893,0,0,1-.14111,1.541,15.95381,15.95381,0,0,0,26.52,6.53613l.00684.00684s25.01367-20.48145,28.93945-30.09961c0,0-4.51416,5.49609-8.24414,7.85156,0,0,15.25-26.46191,29.77539-37.25781,0,0-12.90967,2.61523-21.87793,11.21484C174.23974,106.69488,202.59179,78.81988,204.50438,73.49175Z"/><path d="M106.22606,111.65874s21.44629-37.21484,41.874-52.39844c0,0-18.15527,3.67773-30.76855,15.77344C123.061,69.42535,162.93407,30.22417,165.624,22.73c-7.51123,2.69629-46.92188,42.71094-52.38965,48.28613,12.126-12.61426,15.81152-30.80957,15.81152-30.80957-15.18262,20.42773-52.39746,41.875-52.39746,41.875,3.313-5.24512,11.042-11.59473,11.042-11.59473-13.52637,5.52051-42.33008,40.69922-42.33008,40.69922l.002.002a22.46883,22.46883,0,0,0-6.4668,18,1.93891,1.93891,0,0,1,1.11816,2.38965,1.25463,1.25463,0,0,1-.19775,2.166,22.43648,22.43648,0,0,0,37.29553,9.19312l.00916.009s35.17822-28.80273,40.69922-42.33008C117.81981,100.61577,111.47069,108.34624,106.22606,111.65874Z"/></g><g class="cls-20"><path d="M203.78817,72.77554c-5.34082,1.917-33.36426,30.37012-37.252,34.335,8.62207-8.9707,11.24268-21.9082,11.24268-21.9082-10.7959,14.52539-37.2583,29.77539-37.2583,29.77539,2.356-3.72949,7.85205-8.24414,7.85205-8.24414C138.754,110.65932,118.273,135.673,118.273,135.673l.00146.00146a15.97848,15.97848,0,0,0-4.59863,12.79932,1.37878,1.37878,0,0,1,.79541,1.69922.893.893,0,0,1-.14111,1.541,15.95381,15.95381,0,0,0,26.52,6.53613l.00684.00684s25.01367-20.48145,28.93945-30.09961c0,0-4.51416,5.49609-8.24414,7.85156,0,0,15.25-26.46191,29.77539-37.25781,0,0-12.90967,2.61523-21.87793,11.21484C173.52352,105.97866,201.87557,78.10366,203.78817,72.77554Z"/><path d="M105.50985,110.94253s21.44629-37.21484,41.874-52.39844c0,0-18.15527,3.67773-30.76855,15.77344,5.72949-5.6084,45.60254-44.80957,48.29248-52.30371-7.51123,2.69629-46.92187,42.71094-52.38965,48.28613,12.126-12.61426,15.81152-30.80957,15.81152-30.80957-15.18262,20.42773-52.39746,41.875-52.39746,41.875,3.313-5.24512,11.042-11.59473,11.042-11.59473-13.52637,5.52051-42.33008,40.69922-42.33008,40.69922l.002.002a22.46883,22.46883,0,0,0-6.4668,18,1.93891,1.93891,0,0,1,1.11816,2.38965,1.25463,1.25463,0,0,1-.19775,2.166,22.43648,22.43648,0,0,0,37.29553,9.19312l.00916.009S111.5826,113.4269,117.1036,99.89956C117.1036,99.89956,110.75448,107.63,105.50985,110.94253Z"/></g><g class="cls-21"><path d="M203.072,72.05932c-5.34082,1.917-33.36426,30.37012-37.252,34.335,8.62207-8.9707,11.24268-21.9082,11.24268-21.9082-10.7959,14.52539-37.2583,29.77539-37.2583,29.77539,2.356-3.72949,7.85205-8.24414,7.85205-8.24414-9.61865,3.92578-30.09961,28.93945-30.09961,28.93945l.00146.00146a15.97848,15.97848,0,0,0-4.59863,12.79932,1.37878,1.37878,0,0,1,.79541,1.69922.893.893,0,0,1-.14111,1.541,15.95381,15.95381,0,0,0,26.52,6.53613l.00684.00684s25.01367-20.48145,28.93945-30.09961c0,0-4.51416,5.49609-8.24414,7.85156,0,0,15.25-26.46191,29.77539-37.25781,0,0-12.90967,2.61523-21.87793,11.21484C172.8073,105.26244,201.15935,77.38744,203.072,72.05932Z"/><path d="M104.79363,110.22631s21.44629-37.21484,41.874-52.39844c0,0-18.15527,3.67773-30.76855,15.77344,5.72949-5.6084,45.60254-44.80957,48.29248-52.30371-7.51123,2.69629-46.92188,42.71094-52.38965,48.28613,12.126-12.61426,15.81152-30.80957,15.81152-30.80957C112.43084,59.2019,75.216,80.64916,75.216,80.64916,78.529,75.404,86.258,69.05444,86.258,69.05444c-13.52637,5.52051-42.33008,40.69922-42.33008,40.69922l.002.002a22.46883,22.46883,0,0,0-6.4668,18,1.93891,1.93891,0,0,1,1.11816,2.38965,1.25463,1.25463,0,0,1-.19775,2.166A22.43648,22.43648,0,0,0,75.679,141.50439l.00916.009s35.17822-28.80273,40.69922-42.33008C116.38738,99.18334,110.03826,106.91381,104.79363,110.22631Z"/></g><g class="cls-22"><path d="M202.35574,71.3431c-5.34082,1.917-33.36426,30.37012-37.252,34.335,8.62207-8.9707,11.24268-21.9082,11.24268-21.9082-10.7959,14.52539-37.2583,29.77539-37.2583,29.77539,2.356-3.72949,7.85205-8.24414,7.85205-8.24414-9.61865,3.92578-30.09961,28.93945-30.09961,28.93945l.00146.00146a15.97848,15.97848,0,0,0-4.59863,12.79932,1.37878,1.37878,0,0,1,.79541,1.69922.893.893,0,0,1-.14111,1.541,15.95381,15.95381,0,0,0,26.52,6.53613l.00684.00684s25.01367-20.48145,28.93945-30.09961c0,0-4.51416,5.49609-8.24414,7.85156,0,0,15.25-26.46191,29.77539-37.25781,0,0-12.90967,2.61523-21.87793,11.21484C172.09109,104.54623,200.44314,76.67123,202.35574,71.3431Z"/><path d="M104.07742,109.5101s21.44629-37.21484,41.874-52.39844c0,0-18.15527,3.67773-30.76855,15.77344,5.72949-5.6084,45.60254-44.80957,48.29248-52.30371-7.51123,2.69629-46.92187,42.71094-52.38965,48.28613,12.126-12.61426,15.81152-30.80957,15.81152-30.80957-15.18262,20.42773-52.39746,41.875-52.39746,41.875,3.313-5.24512,11.042-11.59473,11.042-11.59473-13.52637,5.52051-42.33008,40.69922-42.33008,40.69922l.002.002a22.46883,22.46883,0,0,0-6.4668,18A1.93891,1.93891,0,0,1,37.865,129.429a1.25463,1.25463,0,0,1-.19775,2.166,22.43648,22.43648,0,0,0,37.29553,9.19312l.00916.009s35.17822-28.80273,40.69922-42.33008C115.67117,98.46713,109.322,106.1976,104.07742,109.5101Z"/></g><g class="cls-23"><path d="M201.63952,70.62689c-5.34082,1.917-33.36426,30.37012-37.252,34.335,8.62207-8.9707,11.24268-21.9082,11.24268-21.9082-10.7959,14.52539-37.2583,29.77539-37.2583,29.77539,2.356-3.72949,7.85205-8.24414,7.85205-8.24414-9.61865,3.92578-30.09961,28.93945-30.09961,28.93945l.00146.00146a15.97848,15.97848,0,0,0-4.59863,12.79932,1.37878,1.37878,0,0,1,.79541,1.69922.893.893,0,0,1-.14111,1.541,15.95381,15.95381,0,0,0,26.52,6.53613l.00684.00684s25.01367-20.48145,28.93945-30.09961c0,0-4.51416,5.49609-8.24414,7.85156,0,0,15.25-26.46191,29.77539-37.25781,0,0-12.90967,2.61523-21.87793,11.21484C171.37487,103.83,199.72692,75.955,201.63952,70.62689Z"/><path d="M103.3612,108.79388s21.44629-37.21484,41.874-52.39844c0,0-18.15527,3.67773-30.76855,15.77344,5.72949-5.6084,45.60254-44.80957,48.29248-52.30371-7.51123,2.69629-46.92187,42.71094-52.38965,48.28613C122.49548,55.537,126.181,37.34173,126.181,37.34173c-15.18262,20.42773-52.39746,41.875-52.39746,41.875,3.313-5.24512,11.042-11.59473,11.042-11.59473-13.52637,5.52051-42.33008,40.69922-42.33008,40.69922l.002.002a22.46883,22.46883,0,0,0-6.4668,18,1.93891,1.93891,0,0,1,1.11816,2.38965,1.25463,1.25463,0,0,1-.19775,2.166A22.43648,22.43648,0,0,0,74.24658,140.072l.00916.009s35.17822-28.80273,40.69922-42.33008C114.95495,97.75091,108.60583,105.48138,103.3612,108.79388Z"/></g><g class="cls-24"><path d="M200.9233,69.91067c-5.34082,1.917-33.36426,30.37012-37.252,34.335,8.62207-8.9707,11.24268-21.9082,11.24268-21.9082-10.7959,14.52539-37.2583,29.77539-37.2583,29.77539,2.356-3.72949,7.85205-8.24414,7.85205-8.24414-9.61865,3.92578-30.09961,28.93945-30.09961,28.93945l.00146.00146a15.97848,15.97848,0,0,0-4.59863,12.79932,1.37878,1.37878,0,0,1,.79541,1.69922.893.893,0,0,1-.14111,1.541,15.95381,15.95381,0,0,0,26.52,6.53613l.00684.00684s25.01367-20.48145,28.93945-30.09961c0,0-4.51416,5.49609-8.24414,7.85156,0,0,15.25-26.46191,29.77539-37.25781,0,0-12.90967,2.61523-21.87793,11.21484C170.65866,103.1138,199.01071,75.2388,200.9233,69.91067Z"/><path d="M102.645,108.07766s21.44629-37.21484,41.874-52.39844c0,0-18.15527,3.67773-30.76855,15.77344,5.72949-5.6084,45.60254-44.80957,48.29248-52.30371-7.51123,2.69629-46.92187,42.71094-52.38965,48.28613,12.126-12.61426,15.81152-30.80957,15.81152-30.80957-15.18262,20.42773-52.39746,41.875-52.39746,41.875,3.313-5.24512,11.042-11.59473,11.042-11.59473C70.583,72.4263,41.77926,107.605,41.77926,107.605l.002.002a22.46883,22.46883,0,0,0-6.4668,18,1.93891,1.93891,0,0,1,1.11816,2.38965,1.25463,1.25463,0,0,1-.19775,2.166,22.43648,22.43648,0,0,0,37.29553,9.19312l.00916.009s35.17822-28.80273,40.69922-42.33008C114.23873,97.03469,107.88961,104.76516,102.645,108.07766Z"/></g><g class="cls-25"><path d="M200.20709,69.19445c-5.34082,1.917-33.36426,30.37012-37.252,34.335,8.62207-8.9707,11.24268-21.9082,11.24268-21.9082-10.7959,14.52539-37.2583,29.77539-37.2583,29.77539,2.356-3.72949,7.85205-8.24414,7.85205-8.24414-9.61865,3.92578-30.09961,28.93945-30.09961,28.93945l.00146.00146a15.97848,15.97848,0,0,0-4.59863,12.79932,1.37878,1.37878,0,0,1,.79541,1.69922.893.893,0,0,1-.14111,1.541,15.95381,15.95381,0,0,0,26.52,6.53613l.00684.00684s25.01367-20.48145,28.93945-30.09961c0,0-4.51416,5.49609-8.24414,7.85156,0,0,15.25-26.46191,29.77539-37.25781,0,0-12.90967,2.61523-21.87793,11.21484C169.94244,102.39758,198.29449,74.52258,200.20709,69.19445Z"/><path d="M101.92877,107.36145s21.44629-37.21484,41.874-52.39844c0,0-18.15527,3.67773-30.76855,15.77344,5.72949-5.6084,45.60254-44.80957,48.29248-52.30371-7.51123,2.69629-46.92187,42.71094-52.38965,48.28613,12.126-12.61426,15.81152-30.80957,15.81152-30.80957C109.566,56.337,72.35113,77.7843,72.35113,77.7843c3.313-5.24512,11.042-11.59473,11.042-11.59473C69.86676,71.71008,41.063,106.88879,41.063,106.88879l.002.002a22.46883,22.46883,0,0,0-6.4668,18,1.93891,1.93891,0,0,1,1.11816,2.38965,1.25463,1.25463,0,0,1-.19775,2.166,22.43648,22.43648,0,0,0,37.29553,9.19312l.00916.009s35.17822-28.80273,40.69922-42.33008C113.52252,96.31848,107.1734,104.04895,101.92877,107.36145Z"/></g><g class="cls-26"><path d="M199.49087,68.47824c-5.34082,1.917-33.36426,30.37012-37.252,34.335,8.62207-8.9707,11.24268-21.9082,11.24268-21.9082-10.7959,14.52539-37.2583,29.77539-37.2583,29.77539,2.356-3.72949,7.85205-8.24414,7.85205-8.24414-9.61865,3.92578-30.09961,28.93945-30.09961,28.93945l.00146.00146a15.97848,15.97848,0,0,0-4.59863,12.79932,1.37878,1.37878,0,0,1,.79541,1.69922.893.893,0,0,1-.14111,1.541,15.95381,15.95381,0,0,0,26.52,6.53613l.00684.00684s25.01367-20.48145,28.93945-30.09961c0,0-4.51416,5.49609-8.24414,7.85156,0,0,15.25-26.46191,29.77539-37.25781,0,0-12.90967,2.61523-21.87793,11.21484C169.22622,101.68136,197.57827,73.80636,199.49087,68.47824Z"/><path d="M101.21255,106.64523s21.44629-37.21484,41.874-52.39844c0,0-18.15527,3.67773-30.76855,15.77344,5.72949-5.6084,45.60254-44.80957,48.29248-52.30371-7.51123,2.69629-46.92187,42.71094-52.38965,48.28613,12.126-12.61426,15.81152-30.80957,15.81152-30.80957-15.18262,20.42773-52.39746,41.875-52.39746,41.875,3.313-5.24512,11.042-11.59473,11.042-11.59473-13.52637,5.52051-42.33008,40.69922-42.33008,40.69922l.002.002a22.46883,22.46883,0,0,0-6.4668,18,1.93891,1.93891,0,0,1,1.11816,2.38965,1.25463,1.25463,0,0,1-.19775,2.166,22.43648,22.43648,0,0,0,37.29553,9.19312l.00916.009s35.17822-28.80273,40.69922-42.33008C112.8063,95.60226,106.45718,103.33273,101.21255,106.64523Z"/></g><g class="cls-27"><path d="M198.77465,67.762c-5.34082,1.917-33.36426,30.37012-37.252,34.335,8.62207-8.9707,11.24268-21.9082,11.24268-21.9082-10.7959,14.52539-37.2583,29.77539-37.2583,29.77539,2.356-3.72949,7.85205-8.24414,7.85205-8.24414-9.61865,3.92578-30.09961,28.93945-30.09961,28.93945l.00146.00146a15.97848,15.97848,0,0,0-4.59863,12.79932,1.37878,1.37878,0,0,1,.79541,1.69922.893.893,0,0,1-.14111,1.541,15.95381,15.95381,0,0,0,26.52,6.53613l.00684.00684S160.85717,132.762,164.783,123.14386c0,0-4.51416,5.49609-8.24414,7.85156,0,0,15.25-26.46191,29.77539-37.25781,0,0-12.90967,2.61523-21.87793,11.21484C168.51,100.96515,196.86206,73.09015,198.77465,67.762Z"/><path d="M100.49633,105.929s21.44629-37.21484,41.874-52.39844c0,0-18.15527,3.67773-30.76855,15.77344,5.72949-5.6084,45.60254-44.80957,48.29248-52.30371-7.51123,2.69629-46.92188,42.71094-52.38965,48.28613,12.126-12.61426,15.81152-30.80957,15.81152-30.80957-15.18262,20.42773-52.39746,41.875-52.39746,41.875,3.313-5.24512,11.042-11.59473,11.042-11.59473-13.52637,5.52051-42.33008,40.69922-42.33008,40.69922l.002.002a22.46883,22.46883,0,0,0-6.4668,18,1.93891,1.93891,0,0,1,1.11816,2.38965,1.25463,1.25463,0,0,1-.19775,2.166,22.43648,22.43648,0,0,0,37.29553,9.19312l.00916.009s35.17822-28.80273,40.69922-42.33008C112.09008,94.886,105.741,102.61651,100.49633,105.929Z"/></g><g class="cls-28"><path d="M198.05844,67.04581c-5.34082,1.917-33.36426,30.37012-37.252,34.335,8.62207-8.9707,11.24268-21.9082,11.24268-21.9082-10.7959,14.52539-37.2583,29.77539-37.2583,29.77539,2.356-3.72949,7.85205-8.24414,7.85205-8.24414-9.61865,3.92578-30.09961,28.93945-30.09961,28.93945l.00146.00146a15.97848,15.97848,0,0,0-4.59863,12.79932,1.37878,1.37878,0,0,1,.79541,1.69922.893.893,0,0,1-.14111,1.541,15.95381,15.95381,0,0,0,26.52,6.53613l.00684.00684s25.01367-20.48145,28.93945-30.09961c0,0-4.51416,5.49609-8.24414,7.85156,0,0,15.25-26.46191,29.77539-37.25781,0,0-12.90967,2.61523-21.87793,11.21484C167.79379,100.24893,196.14584,72.37393,198.05844,67.04581Z"/><path d="M99.78012,105.2128s21.44629-37.21484,41.874-52.39844c0,0-18.15527,3.67773-30.76855,15.77344,5.72949-5.6084,45.60254-44.80957,48.29248-52.30371-7.51123,2.69629-46.92187,42.71094-52.38965,48.28613,12.126-12.61426,15.81152-30.80957,15.81152-30.80957-15.18262,20.42773-52.39746,41.875-52.39746,41.875,3.313-5.24512,11.042-11.59473,11.042-11.59473C67.71811,69.56143,38.9144,104.74014,38.9144,104.74014l.002.002a22.46883,22.46883,0,0,0-6.4668,18,1.93891,1.93891,0,0,1,1.11816,2.38965,1.25463,1.25463,0,0,1-.19775,2.166,22.43648,22.43648,0,0,0,37.29553,9.19312l.00916.009s35.17822-28.80273,40.69922-42.33008C111.37387,94.16983,105.02475,101.9003,99.78012,105.2128Z"/></g><g class="cls-29"><path d="M197.34222,66.32959c-5.34082,1.917-33.36426,30.37012-37.252,34.335,8.62207-8.9707,11.24268-21.9082,11.24268-21.9082-10.7959,14.52539-37.2583,29.77539-37.2583,29.77539,2.356-3.72949,7.85205-8.24414,7.85205-8.24414-9.61865,3.92578-30.09961,28.93945-30.09961,28.93945l.00146.00146a15.97848,15.97848,0,0,0-4.59863,12.79932,1.37878,1.37878,0,0,1,.79541,1.69922.893.893,0,0,1-.14111,1.541,15.95381,15.95381,0,0,0,26.52,6.53613l.00684.00684s25.01367-20.48145,28.93945-30.09961c0,0-4.51416,5.49609-8.24414,7.85156,0,0,15.25-26.46191,29.77539-37.25781,0,0-12.90967,2.61523-21.87793,11.21484C167.07757,99.53271,195.42962,71.65771,197.34222,66.32959Z"/><path d="M99.0639,104.49658s21.44629-37.21484,41.874-52.39844c0,0-18.15527,3.67773-30.76855,15.77344,5.72949-5.6084,45.60254-44.80957,48.29248-52.30371C150.95062,18.26416,111.54,58.27881,106.0722,63.854c12.126-12.61426,15.81152-30.80957,15.81152-30.80957-15.18262,20.42773-52.39746,41.875-52.39746,41.875,3.313-5.24512,11.042-11.59473,11.042-11.59473-13.52637,5.52051-42.33008,40.69922-42.33008,40.69922l.002.002a22.46883,22.46883,0,0,0-6.4668,18,1.93891,1.93891,0,0,1,1.11816,2.38965,1.25463,1.25463,0,0,1-.19775,2.166,22.43648,22.43648,0,0,0,37.29553,9.19312l.00916.009s35.17822-28.80273,40.69922-42.33008C110.65765,93.45361,104.30853,101.18408,99.0639,104.49658Z"/></g><g class="cls-30"><path d="M196.626,65.61337c-5.34082,1.917-33.36426,30.37012-37.252,34.335,8.62207-8.9707,11.24268-21.9082,11.24268-21.9082-10.7959,14.52539-37.2583,29.77539-37.2583,29.77539,2.356-3.72949,7.85205-8.24414,7.85205-8.24414-9.61865,3.92578-30.09961,28.93945-30.09961,28.93945l.00146.00146a15.97848,15.97848,0,0,0-4.59863,12.79932,1.37878,1.37878,0,0,1,.79541,1.69922.893.893,0,0,1-.14111,1.541,15.95381,15.95381,0,0,0,26.52,6.53613l.00684.00684s25.01367-20.48145,28.93945-30.09961c0,0-4.51416,5.49609-8.24414,7.85156,0,0,15.25-26.46191,29.77539-37.25781,0,0-12.90967,2.61523-21.87793,11.21484C166.36136,98.8165,194.71341,70.9415,196.626,65.61337Z"/><path d="M98.34769,103.78037s21.44629-37.21484,41.874-52.39844c0,0-18.15527,3.67773-30.76855,15.77344,5.72949-5.6084,45.60254-44.80957,48.29248-52.30371-7.51123,2.69629-46.92188,42.71094-52.38965,48.28613,12.126-12.61426,15.81152-30.80957,15.81152-30.80957C105.98489,52.756,68.77,74.20322,68.77,74.20322c3.313-5.24512,11.042-11.59473,11.042-11.59473C66.28567,68.129,37.482,103.30771,37.482,103.30771l.002.002a22.46883,22.46883,0,0,0-6.4668,18,1.93891,1.93891,0,0,1,1.11816,2.38965,1.25463,1.25463,0,0,1-.19775,2.166,22.43648,22.43648,0,0,0,37.29553,9.19312l.00916.009s35.17822-28.80273,40.69922-42.33008C109.94144,92.7374,103.59231,100.46787,98.34769,103.78037Z"/></g><g class="cls-31"><path d="M195.90979,64.89716c-5.34082,1.917-33.36426,30.37012-37.252,34.335,8.62207-8.9707,11.24268-21.9082,11.24268-21.9082-10.7959,14.52539-37.2583,29.77539-37.2583,29.77539,2.356-3.72949,7.85205-8.24414,7.85205-8.24414-9.61865,3.92578-30.09961,28.93945-30.09961,28.93945l.00146.00146a15.97848,15.97848,0,0,0-4.59863,12.79932,1.37878,1.37878,0,0,1,.79541,1.69922.893.893,0,0,1-.14111,1.541,15.95381,15.95381,0,0,0,26.52,6.53613l.00684.00684s25.01367-20.48145,28.93945-30.09961c0,0-4.51416,5.49609-8.24414,7.85156,0,0,15.25-26.46191,29.77539-37.25781,0,0-12.90967,2.61523-21.87793,11.21484C165.64514,98.10028,193.99719,70.22528,195.90979,64.89716Z"/><path d="M97.63147,103.06415s21.44629-37.21484,41.874-52.39844c0,0-18.15527,3.67773-30.76855,15.77344,5.72949-5.6084,45.60254-44.80957,48.29248-52.30371-7.51123,2.69629-46.92187,42.71094-52.38965,48.28613,12.126-12.61426,15.81152-30.80957,15.81152-30.80957C105.26868,52.03974,68.05383,73.487,68.05383,73.487c3.313-5.24512,11.042-11.59473,11.042-11.59473-13.52637,5.52051-42.33008,40.69922-42.33008,40.69922l.002.002a22.46883,22.46883,0,0,0-6.4668,18,1.93891,1.93891,0,0,1,1.11816,2.38965,1.25463,1.25463,0,0,1-.19775,2.166,22.43648,22.43648,0,0,0,37.29553,9.19312l.00916.009s35.17822-28.80273,40.69922-42.33008C109.22522,92.02118,102.8761,99.75165,97.63147,103.06415Z"/></g><g class="cls-32"><path d="M195.19357,64.18094c-5.34082,1.917-33.36426,30.37012-37.252,34.335,8.62207-8.9707,11.24268-21.9082,11.24268-21.9082-10.7959,14.52539-37.2583,29.77539-37.2583,29.77539,2.356-3.72949,7.85205-8.24414,7.85205-8.24414-9.61865,3.92578-30.09961,28.93945-30.09961,28.93945l.00146.00146a15.97848,15.97848,0,0,0-4.59863,12.79932,1.37878,1.37878,0,0,1,.79541,1.69922.893.893,0,0,1-.14111,1.541,15.95381,15.95381,0,0,0,26.52,6.53613l.00684.00684s25.01367-20.48145,28.93945-30.09961c0,0-4.51416,5.49609-8.24414,7.85156,0,0,15.25-26.46191,29.77539-37.25781,0,0-12.90967,2.61523-21.87793,11.21484C164.92893,97.38407,193.281,69.50907,195.19357,64.18094Z"/><path d="M96.91525,102.34793s21.44629-37.21484,41.874-52.39844c0,0-18.15527,3.67773-30.76855,15.77344,5.72949-5.6084,45.60254-44.80957,48.29248-52.30371-7.51123,2.69629-46.92187,42.71094-52.38965,48.28613,12.126-12.61426,15.81152-30.80957,15.81152-30.80957-15.18262,20.42773-52.39746,41.875-52.39746,41.875,3.313-5.24512,11.042-11.59473,11.042-11.59473-13.52637,5.52051-42.33008,40.69922-42.33008,40.69922l.002.002a22.46883,22.46883,0,0,0-6.4668,18,1.93891,1.93891,0,0,1,1.11816,2.38965,1.25463,1.25463,0,0,1-.19775,2.166A22.43648,22.43648,0,0,0,67.80063,133.626l.00916.009S102.988,104.83231,108.509,91.305C108.509,91.305,102.15988,99.03543,96.91525,102.34793Z"/></g><g class="cls-33"><path d="M194.47736,63.46472c-5.34082,1.917-33.36426,30.37012-37.252,34.335,8.62207-8.9707,11.24268-21.9082,11.24268-21.9082-10.7959,14.52539-37.2583,29.77539-37.2583,29.77539,2.356-3.72949,7.85205-8.24414,7.85205-8.24414-9.61865,3.92578-30.09961,28.93945-30.09961,28.93945l.00146.00146a15.97848,15.97848,0,0,0-4.59863,12.79932,1.37878,1.37878,0,0,1,.79541,1.69922.893.893,0,0,1-.14111,1.541,15.95381,15.95381,0,0,0,26.52,6.53613l.00684.00684s25.01367-20.48145,28.93945-30.09961c0,0-4.51416,5.49609-8.24414,7.85156,0,0,15.25-26.46191,29.77539-37.25781,0,0-12.90967,2.61523-21.87793,11.21484C164.21271,96.66785,192.56476,68.79285,194.47736,63.46472Z"/><path d="M96.199,101.63172s21.44629-37.21484,41.874-52.39844c0,0-18.15527,3.67773-30.76855,15.77344C113.034,59.39832,152.907,20.19715,155.597,12.703c-7.51123,2.69629-46.92188,42.71094-52.38965,48.28613,12.126-12.61426,15.81152-30.80957,15.81152-30.80957-15.18262,20.42773-52.39746,41.875-52.39746,41.875,3.313-5.24512,11.042-11.59473,11.042-11.59473C64.137,65.98035,35.33331,101.15906,35.33331,101.15906l.002.002a22.46883,22.46883,0,0,0-6.4668,18,1.93891,1.93891,0,0,1,1.11816,2.38965,1.25463,1.25463,0,0,1-.19775,2.166,22.43648,22.43648,0,0,0,37.29553,9.19312l.00916.009s35.17822-28.80273,40.69922-42.33008C107.79279,90.58875,101.44367,98.31922,96.199,101.63172Z"/></g><g class="cls-34"><path d="M193.76114,62.74851c-5.34082,1.917-33.36426,30.37012-37.252,34.335,8.62207-8.9707,11.24268-21.9082,11.24268-21.9082-10.7959,14.52539-37.2583,29.77539-37.2583,29.77539,2.356-3.72949,7.85205-8.24414,7.85205-8.24414C128.727,100.6323,108.246,125.646,108.246,125.646l.00146.00146a15.97848,15.97848,0,0,0-4.59863,12.79932,1.37878,1.37878,0,0,1,.79541,1.69922.893.893,0,0,1-.14111,1.541,15.95381,15.95381,0,0,0,26.52,6.53613l.00684.00684s25.01367-20.48145,28.93945-30.09961c0,0-4.51416,5.49609-8.24414,7.85156,0,0,15.25-26.46191,29.77539-37.25781,0,0-12.90967,2.61523-21.87793,11.21484C163.49649,95.95163,191.84854,68.07663,193.76114,62.74851Z"/><path d="M95.48282,100.9155s21.44629-37.21484,41.874-52.39844c0,0-18.15527,3.67773-30.76855,15.77344,5.72949-5.6084,45.60254-44.80957,48.29248-52.30371-7.51123,2.69629-46.92187,42.71094-52.38965,48.28613,12.126-12.61426,15.81152-30.80957,15.81152-30.80957-15.18262,20.42773-52.39746,41.875-52.39746,41.875,3.313-5.24512,11.042-11.59473,11.042-11.59473C63.42081,65.26413,34.6171,100.44284,34.6171,100.44284l.002.002a22.46883,22.46883,0,0,0-6.4668,18,1.93891,1.93891,0,0,1,1.11816,2.38965,1.25463,1.25463,0,0,1-.19775,2.166,22.43648,22.43648,0,0,0,37.29553,9.19312l.00916.009s35.17822-28.80273,40.69922-42.33008C107.07657,89.87253,100.72745,97.603,95.48282,100.9155Z"/></g><g class="cls-35"><path d="M193.04493,62.03229c-5.34082,1.917-33.36426,30.37012-37.252,34.335,8.62207-8.9707,11.24268-21.9082,11.24268-21.9082-10.7959,14.52539-37.2583,29.77539-37.2583,29.77539,2.356-3.72949,7.85205-8.24414,7.85205-8.24414-9.61865,3.92578-30.09961,28.93945-30.09961,28.93945l.00146.00146a15.97848,15.97848,0,0,0-4.59863,12.79932,1.37878,1.37878,0,0,1,.79541,1.69922.893.893,0,0,1-.14111,1.541,15.95381,15.95381,0,0,0,26.52,6.53613l.00684.00684s25.01367-20.48145,28.93945-30.09961c0,0-4.51416,5.49609-8.24414,7.85156,0,0,15.25-26.46191,29.77539-37.25781,0,0-12.90967,2.61523-21.87793,11.21484C162.78028,95.23542,191.13233,67.36042,193.04493,62.03229Z"/><path d="M94.7666,100.19928s21.44629-37.21484,41.874-52.39844c0,0-18.15527,3.67773-30.76855,15.77344,5.72949-5.6084,45.60254-44.80957,48.29248-52.30371-7.51123,2.69629-46.92187,42.71094-52.38965,48.28613,12.126-12.61426,15.81152-30.80957,15.81152-30.80957C102.40381,49.17487,65.189,70.62214,65.189,70.62214,68.502,65.377,76.231,59.02741,76.231,59.02741,62.70459,64.54792,33.90088,99.72663,33.90088,99.72663l.002.002a22.46883,22.46883,0,0,0-6.4668,18,1.93891,1.93891,0,0,1,1.11816,2.38965,1.25463,1.25463,0,0,1-.19775,2.166A22.43648,22.43648,0,0,0,65.652,131.47736l.00916.009s35.17822-28.80273,40.69922-42.33008C106.36035,89.15632,100.01123,96.88678,94.7666,100.19928Z"/></g><g class="cls-36"><path d="M192.32871,61.31608c-5.34082,1.917-33.36426,30.37012-37.252,34.335,8.62207-8.9707,11.24268-21.9082,11.24268-21.9082-10.7959,14.52539-37.2583,29.77539-37.2583,29.77539,2.356-3.72949,7.85205-8.24414,7.85205-8.24414-9.61865,3.92578-30.09961,28.93945-30.09961,28.93945l.00146.00146a15.97848,15.97848,0,0,0-4.59863,12.79932,1.37878,1.37878,0,0,1,.79541,1.69922.893.893,0,0,1-.14111,1.541,15.95381,15.95381,0,0,0,26.52,6.53613l.00684.00684s25.01367-20.48145,28.93945-30.09961c0,0-4.51416,5.49609-8.24414,7.85156,0,0,15.25-26.46191,29.77539-37.25781,0,0-12.90967,2.61523-21.87793,11.21484C162.06406,94.5192,190.41611,66.6442,192.32871,61.31608Z"/><path d="M94.05039,99.48307s21.44629-37.21484,41.874-52.39844c0,0-18.15527,3.67773-30.76855,15.77344,5.72949-5.6084,45.60254-44.80957,48.29248-52.30371-7.51123,2.69629-46.92188,42.71094-52.38965,48.28613,12.126-12.61426,15.81152-30.80957,15.81152-30.80957-15.18262,20.42773-52.39746,41.875-52.39746,41.875,3.313-5.24512,11.042-11.59473,11.042-11.59473C61.98838,63.8317,33.18467,99.01041,33.18467,99.01041l.002.002a22.46883,22.46883,0,0,0-6.4668,18A1.93891,1.93891,0,0,1,27.838,119.402a1.25463,1.25463,0,0,1-.19775,2.166,22.43648,22.43648,0,0,0,37.29553,9.19312l.00916.009s35.17822-28.80273,40.69922-42.33008C105.64414,88.4401,99.295,96.17057,94.05039,99.48307Z"/></g><g class="cls-37"><path d="M191.61249,60.59986c-5.34082,1.917-33.36426,30.37012-37.252,34.335,8.62207-8.9707,11.24268-21.9082,11.24268-21.9082-10.7959,14.52539-37.2583,29.77539-37.2583,29.77539,2.356-3.72949,7.85205-8.24414,7.85205-8.24414-9.61865,3.92578-30.09961,28.93945-30.09961,28.93945l.00146.00146a15.97848,15.97848,0,0,0-4.59863,12.79932,1.37878,1.37878,0,0,1,.79541,1.69922.893.893,0,0,1-.14111,1.541,15.95381,15.95381,0,0,0,26.52,6.53613l.00684.00684s25.01367-20.48145,28.93945-30.09961c0,0-4.51416,5.49609-8.24414,7.85156,0,0,15.25-26.46191,29.77539-37.25781,0,0-12.90967,2.61523-21.87793,11.21484C161.34784,93.803,189.6999,65.928,191.61249,60.59986Z"/><path d="M93.33417,98.76685s21.44629-37.21484,41.874-52.39844c0,0-18.15527,3.67773-30.76855,15.77344,5.72949-5.6084,45.60254-44.80957,48.29248-52.30371-7.51123,2.69629-46.92187,42.71094-52.38965,48.28613C112.46845,45.51,116.154,27.3147,116.154,27.3147c-15.18262,20.42773-52.39746,41.875-52.39746,41.875,3.313-5.24512,11.042-11.59473,11.042-11.59473C61.27216,63.11548,32.46845,98.2942,32.46845,98.2942l.002.002a22.46883,22.46883,0,0,0-6.4668,18,1.93891,1.93891,0,0,1,1.11816,2.38965,1.25463,1.25463,0,0,1-.19775,2.166,22.43648,22.43648,0,0,0,37.29553,9.19312l.00916.009s35.17822-28.80273,40.69922-42.33008C104.92792,87.72388,98.5788,95.45435,93.33417,98.76685Z"/></g><g class="cls-38"><path d="M190.89628,59.88364c-5.34082,1.917-33.36426,30.37012-37.252,34.335,8.62207-8.9707,11.24268-21.9082,11.24268-21.9082-10.7959,14.52539-37.2583,29.77539-37.2583,29.77539,2.356-3.72949,7.85205-8.24414,7.85205-8.24414-9.61865,3.92578-30.09961,28.93945-30.09961,28.93945l.00146.00146a15.97848,15.97848,0,0,0-4.59863,12.79932,1.37878,1.37878,0,0,1,.79541,1.69922.893.893,0,0,1-.14111,1.541,15.95381,15.95381,0,0,0,26.52,6.53613l.00684.00684s25.01367-20.48145,28.93945-30.09961c0,0-4.51416,5.49609-8.24414,7.85156,0,0,15.25-26.46191,29.77539-37.25781,0,0-12.90967,2.61523-21.87793,11.21484C160.63163,93.08677,188.98368,65.21177,190.89628,59.88364Z"/><path d="M92.618,98.05064s21.44629-37.21484,41.874-52.39844c0,0-18.15527,3.67773-30.76855,15.77344,5.72949-5.6084,45.60254-44.80957,48.29248-52.30371-7.51123,2.69629-46.92187,42.71094-52.38965,48.28613,12.126-12.61426,15.81152-30.80957,15.81152-30.80957-15.18262,20.42773-52.39746,41.875-52.39746,41.875,3.313-5.24512,11.042-11.59473,11.042-11.59473C60.55594,62.39927,31.75223,97.578,31.75223,97.578l.002.002a22.46883,22.46883,0,0,0-6.4668,18,1.93891,1.93891,0,0,1,1.11816,2.38965,1.25463,1.25463,0,0,1-.19775,2.166,22.43648,22.43648,0,0,0,37.29553,9.19312l.00916.009S98.69071,100.535,104.21171,87.00767C104.21171,87.00767,97.86259,94.73814,92.618,98.05064Z"/></g><g class="cls-39"><path d="M190.18006,59.16743c-5.34082,1.917-33.36426,30.37012-37.252,34.335,8.62207-8.9707,11.24268-21.9082,11.24268-21.9082-10.7959,14.52539-37.2583,29.77539-37.2583,29.77539,2.356-3.72949,7.85205-8.24414,7.85205-8.24414-9.61865,3.92578-30.09961,28.93945-30.09961,28.93945l.00146.00146a15.97848,15.97848,0,0,0-4.59863,12.79932,1.37878,1.37878,0,0,1,.79541,1.69922.893.893,0,0,1-.14111,1.541,15.95381,15.95381,0,0,0,26.52,6.53613l.00684.00684s25.01367-20.48145,28.93945-30.09961c0,0-4.51416,5.49609-8.24414,7.85156,0,0,15.25-26.46191,29.77539-37.25781,0,0-12.90967,2.61523-21.87793,11.21484C159.91541,92.37055,188.26746,64.49555,190.18006,59.16743Z"/><path d="M91.90174,97.33442S113.348,60.11958,133.77576,44.936c0,0-18.15527,3.67773-30.76855,15.77344,5.72949-5.6084,45.60254-44.80957,48.29248-52.30371C143.78846,11.102,104.37781,51.11665,98.91,56.69184c12.126-12.61426,15.81152-30.80957,15.81152-30.80957C99.53895,46.31,62.3241,67.75727,62.3241,67.75727c3.313-5.24512,11.042-11.59473,11.042-11.59473C59.83973,61.68305,31.036,96.86176,31.036,96.86176l.002.002a22.46883,22.46883,0,0,0-6.4668,18,1.93891,1.93891,0,0,1,1.11816,2.38965,1.25463,1.25463,0,0,1-.19775,2.166,22.43648,22.43648,0,0,0,37.29553,9.19312l.00916.009s35.17822-28.80273,40.69922-42.33008C103.49549,86.29145,97.14637,94.02192,91.90174,97.33442Z"/></g><path d="M189.46384,58.45121c-5.34082,1.917-33.36426,30.37012-37.252,34.335,8.62207-8.9707,11.24268-21.9082,11.24268-21.9082-10.7959,14.52539-37.2583,29.77539-37.2583,29.77539,2.356-3.72949,7.85205-8.24414,7.85205-8.24414-9.61865,3.92578-30.09961,28.93945-30.09961,28.93945l.00146.00146a15.97848,15.97848,0,0,0-4.59863,12.79932,1.37878,1.37878,0,0,1,.79541,1.69922.893.893,0,0,1-.14111,1.541,15.95381,15.95381,0,0,0,26.52,6.53613l.00684.00684s25.01367-20.48145,28.93945-30.09961c0,0-4.51416,5.49609-8.24414,7.85156,0,0,15.25-26.46191,29.77539-37.25781,0,0-12.90967,2.61523-21.87793,11.21484C159.1992,91.65434,187.55125,63.77934,189.46384,58.45121Z"/><path d="M91.18552,96.6182s21.44629-37.21484,41.874-52.39844c0,0-18.15527,3.67773-30.76855,15.77344,5.72949-5.6084,45.60254-44.80957,48.29248-52.30371-7.51123,2.69629-46.92187,42.71094-52.38965,48.28613,12.126-12.61426,15.81152-30.80957,15.81152-30.80957-15.18262,20.42773-52.39746,41.875-52.39746,41.875,3.313-5.24512,11.042-11.59473,11.042-11.59473C59.12351,60.96684,30.3198,96.14555,30.3198,96.14555l.002.002a22.46883,22.46883,0,0,0-6.4668,18,1.93891,1.93891,0,0,1,1.11816,2.38965,1.25463,1.25463,0,0,1-.19775,2.166,22.43648,22.43648,0,0,0,37.29553,9.19312l.00916.009s35.17822-28.80273,40.69922-42.33008C102.77927,85.57523,96.43015,93.3057,91.18552,96.6182Z"/></g><g id="Meteor_2" data-name="Meteor 2"><path class="cls-40" d="M155.47212,113.833s-4.5141,5.4961-8.2441,7.8516c0,0,15.25-26.4619,29.7754-37.2578,0,0-12.9097,2.6152-21.878,11.2148,4.0738-3.9873,32.4258-31.8623,34.3384-37.1904-5.3408,1.917-33.3642,30.3701-37.2519,34.335,8.622-8.9707,11.2426-21.9082,11.2426-21.9082-10.7959,14.5254-37.2583,29.7754-37.2583,29.7754,2.356-3.7295,7.8521-8.2442,7.8521-8.2442-9.6187,3.9258-30.0996,28.9395-30.0996,28.9395l11.2998,11.2842,11.2842,11.2998S151.54632,123.4512,155.47212,113.833Z"/><path class="cls-41" d="M135.06,123.1426a22.17013,22.17013,0,0,1-3.9717,3.7832s7.3467-12.749,14.3448-17.9502a24.0742,24.0742,0,0,0-10.5406,5.4033c1.9629-1.9209,15.6221-15.3505,16.5435-17.9169-2.5728.9238-16.0737,14.6308-17.9468,16.541a24.066,24.066,0,0,0,5.4165-10.5547c-5.2016,6.998-17.9497,14.3447-17.9497,14.3447a22.16333,22.16333,0,0,1,3.7822-3.9717c-4.6338,1.8916-14.5009,13.9424-14.5009,13.9424l5.4438,5.4365,5.4365,5.4444S133.16892,127.7764,135.06,123.1426Z"/><path class="cls-42" d="M131.02052,133.7002a2.97523,2.97523,0,0,1-1.7339-5.6865,1.845,1.845,0,0,1,.5337-1.916,15.97,15.97,0,0,0-30.4688,8.0518,1.37884,1.37884,0,0,1,.7954,1.6992.893.893,0,0,1-.1411,1.541,15.97,15.97,0,0,0,31.1817-3.7383C131.13282,133.669,131.07712,133.6846,131.02052,133.7002Z"/><circle class="cls-43" cx="109.7357" cy="127.43825" r="2.81578"/><path class="cls-44" d="M108.55372,129.9942a2.81584,2.81584,0,0,1,3.0849-4.6309,2.8157,2.8157,0,1,0-3.0849,4.6309Z"/><circle class="cls-43" cx="110.11335" cy="141.15605" r="1.88733"/><path class="cls-44" d="M109.32122,142.8682a1.88736,1.88736,0,0,1,2.0679-3.1035,1.8872,1.8872,0,1,0-2.0679,3.1035Z"/><circle class="cls-43" cx="119.23885" cy="137.81742" r="1.45105"/><path class="cls-44" d="M118.62982,139.1338a1.45075,1.45075,0,0,1,.9805-2.5195,1.42814,1.42814,0,0,1,.6094.1348,1.45044,1.45044,0,1,0-1.5899,2.3847Z"/></g><g id="Meteor_1" data-name="Meteor 1"><path class="cls-40" d="M102.77932,85.5752s-6.3492,7.7305-11.5938,11.043c0,0,21.4463-37.2148,41.874-52.3984,0,0-18.1552,3.6777-30.7685,15.7734,5.7295-5.6084,45.6025-44.8096,48.2924-52.3037-7.5112,2.6963-46.9218,42.7109-52.3896,48.2861,12.126-12.6142,15.8115-30.8095,15.8115-30.8095-15.1826,20.4277-52.3974,41.875-52.3974,41.875,3.313-5.2452,11.042-11.5948,11.042-11.5948C59.12352,60.9668,30.3198,96.1455,30.3198,96.1455l15.8916,15.8692L62.08,127.9053S97.25832,99.1026,102.77932,85.5752Z"/><path class="cls-41" d="M74.07272,98.669a31.15673,31.15673,0,0,1-5.5859,5.3193s10.3325-17.9287,20.1743-25.2431c0,0-8.7471,1.7714-14.8237,7.5976,2.7602-2.7012,21.9697-21.5879,23.2661-25.1973-3.6187,1.2989-22.606,20.5762-25.2398,23.2627,5.8418-6.0771,7.6172-14.8437,7.6172-14.8437C72.16652,79.4063,54.2373,89.7383,54.2373,89.7383a31.20478,31.20478,0,0,1,5.31983-5.5859c-6.5166,2.6601-20.3936,19.6084-20.3936,19.6084l7.65628,7.6445,7.6455,7.6563S71.413,105.1856,74.07272,98.669Z"/><path class="cls-42" d="M68.39162,113.5147a4.18416,4.18416,0,0,1-2.4385-7.9971,2.60314,2.60314,0,0,1,.7505-2.6943A22.4591,22.4591,0,0,0,23.8549,114.1475a1.94161,1.94161,0,0,1,1.211,1.7988,1.92155,1.92155,0,0,1-.0928.5908,1.2547,1.2547,0,0,1-.1978,2.1661,22.45884,22.45884,0,0,0,43.85162-5.2569C68.54932,113.4707,68.47112,113.4942,68.39162,113.5147Z"/><circle class="cls-43" cx="38.45797" cy="104.70902" r="3.95995"/><path class="cls-44" d="M36.7959,108.3038a3.96016,3.96016,0,0,1,4.3388-6.5127,3.96,3.96,0,1,0-4.3388,6.5127Z"/><circle class="cls-43" cx="38.98921" cy="124" r="2.65431"/><path class="cls-44" d="M37.8754,126.4092a2.65461,2.65461,0,0,1,2.9082-4.3652,2.65431,2.65431,0,1,0-2.9082,4.3652Z"/><circle class="cls-43" cx="51.8232" cy="119.30545" r="2.0405"/><path class="cls-44" d="M50.9668,121.1573a2.04038,2.04038,0,0,1,2.2358-3.3555,2.04043,2.04043,0,1,0-2.2358,3.3555Z"/></g></g></g></svg>