<svg xmlns="http://www.w3.org/2000/svg" viewBox="0 0 173.21908 169.0903"><defs><style>.cls-1{fill:#fff;}.cls-2{opacity:0.3;}.cls-3{opacity:0;}.cls-4{opacity:0.02632;}.cls-5{opacity:0.05263;}.cls-6{opacity:0.07895;}.cls-7{opacity:0.10526;}.cls-8{opacity:0.13158;}.cls-9{opacity:0.15789;}.cls-10{opacity:0.18421;}.cls-11{opacity:0.21053;}.cls-12{opacity:0.23684;}.cls-13{opacity:0.26316;}.cls-14{opacity:0.28947;}.cls-15{opacity:0.31579;}.cls-16{opacity:0.34211;}.cls-17{opacity:0.36842;}.cls-18{opacity:0.39474;}.cls-19{opacity:0.42105;}.cls-20{opacity:0.44737;}.cls-21{opacity:0.47368;}.cls-22{opacity:0.5;}.cls-23{opacity:0.52632;}.cls-24{opacity:0.55263;}.cls-25{opacity:0.57895;}.cls-26{opacity:0.60526;}.cls-27{opacity:0.63158;}.cls-28{opacity:0.65789;}.cls-29{opacity:0.68421;}.cls-30{opacity:0.71053;}.cls-31{opacity:0.73684;}.cls-32{opacity:0.76316;}.cls-33{opacity:0.78947;}.cls-34{opacity:0.81579;}.cls-35{opacity:0.84211;}.cls-36{opacity:0.86842;}.cls-37{opacity:0.89474;}.cls-38{opacity:0.92105;}.cls-39{opacity:0.94737;}.cls-40{opacity:0.97368;}.cls-41{fill:#d1f4ff;}.cls-42{fill:#a6cddd;}.cls-43{opacity:0.1;}</style></defs><title>Asset 16</title><g id="Layer_2" data-name="Layer 2"><g id="Info"><g id="Star"><path class="cls-1" d="M158.56592,35.3599a7.20834,7.20834,0,0,1-9.6777-3.2075,7.20915,7.20915,0,0,1-3.2076,9.6777,7.20885,7.20885,0,0,1,9.6773,3.2075A7.20924,7.20924,0,0,1,158.56592,35.3599Z"/><path class="cls-1" d="M51.67382,165.3091a8.95948,8.95948,0,0,1-3.7808-12.0938,8.95967,8.95967,0,0,1-12.09423,3.7803,8.96044,8.96044,0,0,1,3.78083,12.0947A8.96008,8.96008,0,0,1,51.67382,165.3091Z"/><path class="cls-1" d="M62.88572,1.4653A4.53824,4.53824,0,0,1,56.63772,0a4.5369,4.5369,0,0,1-1.4654,6.2476,4.53834,4.53834,0,0,1,6.2481,1.4653A4.53733,4.53733,0,0,1,62.88572,1.4653Z"/><path class="cls-1" d="M28.9155,57.7505a3.35574,3.35574,0,0,1-4.62007-1.0835,3.35544,3.35544,0,0,1-1.08352,4.6201,3.3554,3.3554,0,0,1,4.6201,1.0835A3.35542,3.35542,0,0,1,28.9155,57.7505Z"/><path class="cls-1" d="M161.41752,86.8433a3.35568,3.35568,0,0,1-4.6202-1.084,3.35671,3.35671,0,0,1-1.0835,4.6211,3.35453,3.35453,0,0,1,4.6202,1.083A3.35487,3.35487,0,0,1,161.41752,86.8433Z"/><path class="cls-1" d="M11.8213,90.0767a4.53765,4.53765,0,0,1-6.2476-1.4649,4.53718,4.53718,0,0,1-1.46528,6.2471,4.53785,4.53785,0,0,1,6.24748,1.4658A4.53783,4.53783,0,0,1,11.8213,90.0767Z"/><path class="cls-1" d="M155.97952,108.0269a4.53792,4.53792,0,0,1-6.2476-1.4659,4.53855,4.53855,0,0,1-1.4653,6.2481,4.53671,4.53671,0,0,1,6.2475,1.4648A4.5371,4.5371,0,0,1,155.97952,108.0269Z"/></g><g class="cls-2"><path class="cls-3" d="M158.40742,135.42921c.28894-.34619.57727-.69238.8595-1.04565.40283-.50415.79437-1.01929,1.18311-1.53772.27228-.36316.54633-.72412.81152-1.09412.382-.533.74988-1.07886,1.11676-1.626.25018-.373.50464-.7417.74768-1.12134.36865-.576.72009-1.16687,1.0719-1.75781.21936-.36841.446-.73022.65863-1.10449.37372-.65747.7265-1.33228,1.079-2.00757.16931-.32422.34875-.64014.51312-.96838q.75888-1.51611,1.44788-3.08655A63.65035,63.65035,0,0,0,152.56,47.70851,63.654,63.654,0,0,1,46.27387,101.09572a63.9456,63.9456,0,0,0,10.7843,29.45752,25.72656,25.72656,0,0,0-10.84778,12.43652A15.57188,15.57188,0,0,0,26.58979,159.6714H128.812a15.63031,15.63031,0,0,0,1.11279-4.74744c.62909-.21252,1.24927-.44983,1.87134-.68176.22375-.08337.45-.15967.67285-.24573q1.34683-.51947,2.66827-1.10181c.09229-.04041.18646-.07629.27856-.11707a63.98441,63.98441,0,0,0,5.83472-2.95581c.02472-.01416.04852-.02991.07318-.04407q1.34271-.77161,2.64838-1.60974c.2088-.13379.41162-.27747.619-.41382.68079-.44788,1.35724-.90234,2.02142-1.377.27271-.19482.53851-.39966.80835-.59888.58752-.43384,1.17188-.87207,1.74524-1.3269.299-.23718.59143-.48315.88647-.72583.531-.43726,1.05835-.87866,1.576-1.334.308-.27075.61047-.54858.9137-.82568.4892-.44751.97339-.90039,1.44952-1.36426q.46252-.45044.915-.91211.68289-.69305,1.34595-1.40833.45255-.48834.89618-.98621Q157.78934,136.17378,158.40742,135.42921Z"/><path class="cls-4" d="M157.71,134.70312c.289-.34621.5773-.69242.85955-1.04571.40281-.50413.79434-1.01924,1.18305-1.53765.2723-.36318.54636-.72416.81157-1.09418.38194-.53294.74984-1.07881,1.11671-1.6259.2502-.37307.50467-.74174.74773-1.12141.36864-.576.72008-1.16684,1.07188-1.75777.21937-.36841.446-.73024.65864-1.10451.37372-.65747.7265-1.33228,1.079-2.00757.16931-.32422.34875-.64014.51312-.96839q.75888-1.51611,1.44788-3.08654a63.65035,63.65035,0,0,0-15.33655-72.37109A63.654,63.654,0,0,1,45.5765,100.36959a63.94562,63.94562,0,0,0,10.7843,29.45752A25.72655,25.72655,0,0,0,45.513,142.26363a15.57188,15.57188,0,0,0-19.62061,16.68164H128.11465a15.63032,15.63032,0,0,0,1.11279-4.74744c.629-.21251,1.24917-.44979,1.87119-.68171.22381-.0834.45013-.15971.673-.24579q1.34671-.51942,2.668-1.10171c.09237-.04044.18663-.07636.27881-.11717a63.98258,63.98258,0,0,0,5.83466-2.95578c.02481-.01421.0487-.03.07345-.04423q1.34257-.77153,2.64811-1.60958c.20885-.13382.41171-.27752.61909-.41391.68075-.44785,1.35717-.9023,2.02132-1.37688.27271-.19483.53853-.39967.80837-.59889.58751-.43383,1.17185-.872,1.7452-1.32687.299-.23721.59149-.4832.88656-.7259.531-.43723,1.05829-.87861,1.5759-1.33391.30807-.27078.61052-.54863.91377-.82575.48917-.44749.97334-.90035,1.44945-1.36419q.46256-.45047.9151-.91217.68286-.693,1.34588-1.40826.45257-.48837.89624-.98627Q157.092,135.44766,157.71,134.70312Z"/><path class="cls-5" d="M157.01262,133.977c.289-.34622.57734-.69246.8596-1.04577.4028-.50411.7943-1.0192,1.183-1.53758.27231-.3632.54639-.7242.81162-1.09424.38192-.53291.74981-1.07875,1.11666-1.62583.25022-.37309.5047-.74179.74777-1.12148.36864-.576.72006-1.16682,1.07185-1.75774.21937-.36842.446-.73025.65866-1.10453.37372-.65748.7265-1.33228,1.079-2.00757.16931-.32422.34875-.64014.51312-.96839q.75888-1.51611,1.44788-3.08654a63.65035,63.65035,0,0,0-15.33655-72.37109A63.654,63.654,0,0,1,44.87913,99.64347,63.94563,63.94563,0,0,0,55.66344,129.101a25.72653,25.72653,0,0,0-10.84778,12.43652,15.57188,15.57188,0,0,0-19.62061,16.68164H127.41728a15.63035,15.63035,0,0,0,1.11279-4.74744c.629-.21249,1.24907-.44976,1.87105-.68165.22387-.08342.45025-.15976.6732-.24586q1.34659-.51937,2.66777-1.10161c.09245-.04048.1868-.07642.27906-.11727a63.9807,63.9807,0,0,0,5.83461-2.95575c.0249-.01426.04888-.03012.07372-.04439q1.34243-.77146,2.64784-1.60941c.20889-.13385.41179-.27758.61922-.414.68072-.44783,1.35709-.90226,2.02121-1.37681.27272-.19484.53854-.39968.80839-.59891.5875-.43382,1.17182-.872,1.74516-1.32683.29907-.23723.59154-.48324.88664-.726.53095-.4372,1.05823-.87856,1.57582-1.33383.3081-.2708.61057-.54867.91384-.82582.48915-.44746.97329-.9003,1.44938-1.36412q.46259-.4505.91516-.91224.68283-.693,1.34582-1.4082.4526-.48839.89629-.98633Q156.3946,134.72153,157.01262,133.977Z"/><path class="cls-6" d="M156.31522,133.25093c.289-.34624.57737-.6925.85965-1.04583.40278-.50408.79427-1.01915,1.18295-1.53752.27233-.36322.54642-.72425.81167-1.09431.3819-.53289.74977-1.0787,1.11661-1.62575.25023-.37311.50474-.74183.74782-1.12155.36863-.576.72-1.16679,1.07183-1.7577.21937-.36843.446-.73026.65867-1.10455.37372-.65748.7265-1.33229,1.079-2.00757.16931-.32422.34875-.64014.51312-.96839q.75888-1.51611,1.44788-3.08654A63.65035,63.65035,0,0,0,150.4679,45.53013,63.654,63.654,0,0,1,44.18177,98.91734a63.94564,63.94564,0,0,0,10.7843,29.45752,25.72652,25.72652,0,0,0-10.84778,12.43652A15.57188,15.57188,0,0,0,24.49768,157.493H126.71991a15.63037,15.63037,0,0,0,1.11279-4.74745c.62894-.21248,1.249-.44972,1.87091-.6816.22393-.08344.45037-.1598.67338-.24592q1.34646-.51933,2.66752-1.10151c.09253-.04051.187-.07648.27931-.11737a63.97889,63.97889,0,0,0,5.83455-2.95572c.025-.01431.04906-.03023.074-.04455q1.34229-.77139,2.64757-1.60925c.20894-.13388.41188-.27764.61935-.41408.68068-.44781,1.357-.90222,2.02111-1.37674.27273-.19484.53855-.3997.80841-.59893.58748-.43381,1.17179-.872,1.74511-1.3268.2991-.23725.59159-.48329.88672-.726.53092-.43717,1.05817-.87851,1.57573-1.33375.30812-.27083.61062-.54871.91391-.82589.48912-.44744.97324-.90026,1.44931-1.364q.46262-.45053.91522-.9123.6828-.693,1.34576-1.40813.45263-.48841.89635-.98639Q155.69723,133.99541,156.31522,133.25093Z"/><path class="cls-7" d="M155.61782,132.52484c.289-.34626.57741-.69254.8597-1.04589.40276-.50406.79423-1.01911,1.18289-1.53745.27235-.36324.54645-.72429.81172-1.09437.38188-.53287.74974-1.07865,1.11655-1.62568.25025-.37314.50477-.74188.74787-1.12162.36862-.576.72-1.16677,1.07181-1.75766.21938-.36843.446-.73028.65868-1.10457.37372-.65748.7265-1.33229,1.079-2.00757.16931-.32422.34875-.64014.51312-.9684q.75888-1.51611,1.44788-3.08653A63.65035,63.65035,0,0,0,149.77053,44.804,63.654,63.654,0,0,1,43.4844,98.19121a63.94566,63.94566,0,0,0,10.7843,29.45752,25.7265,25.7265,0,0,0-10.84778,12.43652A15.57188,15.57188,0,0,0,23.80032,156.7669H126.02254a15.63039,15.63039,0,0,0,1.11279-4.74745c.6289-.21246,1.24888-.44969,1.87077-.68154.224-.08346.45049-.15985.67356-.246q1.34634-.51928,2.66727-1.10141c.09261-.04055.18713-.07654.27955-.11748a63.9771,63.9771,0,0,0,5.8345-2.95569c.02508-.01437.04924-.03033.07426-.04471q1.34215-.77132,2.6473-1.60909c.209-.1339.412-.2777.61948-.41417.68064-.44779,1.35695-.90218,2.021-1.37667.27274-.19485.53856-.39971.80843-.59894.58747-.4338,1.17177-.872,1.74507-1.32676.29913-.23727.59165-.48333.8868-.72611.53089-.43714,1.05811-.87846,1.57564-1.33368.30815-.27085.61067-.54875.914-.826.48909-.44742.97319-.90021,1.44923-1.364q.46265-.45056.91528-.91237.68277-.69292,1.3457-1.40807.45266-.48844.8964-.98645Q154.99986,133.26928,155.61782,132.52484Z"/><path class="cls-8" d="M154.92042,131.79875c.289-.34627.57744-.69258.85975-1.04594.40274-.504.7942-1.01906,1.18284-1.53738.27237-.36326.54649-.72433.81176-1.09444.38186-.53285.7497-1.0786,1.1165-1.62561.25026-.37316.5048-.74192.74791-1.12169.36861-.576.72-1.16674,1.07179-1.75762.21938-.36844.446-.73029.65869-1.10459.37372-.65749.7265-1.33229,1.079-2.00757.16931-.32422.34875-.64014.51312-.9684q.75888-1.51611,1.44788-3.08653a63.65035,63.65035,0,0,0-15.33655-72.37109A63.654,63.654,0,0,1,42.787,97.46509a63.94567,63.94567,0,0,0,10.7843,29.45752,25.72649,25.72649,0,0,0-10.84778,12.43652,15.57188,15.57188,0,0,0-19.62061,16.68164H125.32518a15.6304,15.6304,0,0,0,1.11279-4.74745c.62885-.21244,1.24879-.44965,1.87062-.68149.22405-.08349.45061-.15989.67373-.246q1.34622-.51923,2.667-1.10131c.09269-.04058.1873-.0766.2798-.11758a63.97529,63.97529,0,0,0,5.83444-2.95567c.02517-.01442.04941-.03044.07453-.04487q1.342-.77125,2.647-1.60892c.209-.13393.41205-.27776.61961-.41425.68061-.44776,1.35688-.90213,2.02089-1.3766.27275-.19486.53858-.39972.80845-.599.58745-.43379,1.17174-.872,1.745-1.32673.29916-.2373.5917-.48338.88688-.72618.53086-.43711,1.05805-.87841,1.57556-1.3336.30817-.27088.61071-.54879.91406-.826.48907-.4474.97314-.90017,1.44916-1.3639q.46268-.45058.91534-.91243.68274-.69289,1.34563-1.408.45269-.48846.89646-.98651Q154.30249,132.54316,154.92042,131.79875Z"/><path class="cls-9" d="M154.223,131.07265c.289-.34629.57747-.69261.8598-1.046.40273-.504.79416-1.019,1.18279-1.53732.27238-.36327.54652-.72437.81181-1.0945.38184-.53282.74967-1.07855,1.11645-1.62553.25028-.37318.50483-.742.748-1.12176.3686-.576.72-1.16672,1.07176-1.75758.21939-.36845.446-.7303.65871-1.10461.37372-.65749.7265-1.33229,1.079-2.00757.16931-.32422.34875-.64014.51312-.9684q.75888-1.51611,1.44788-3.08653a63.65035,63.65035,0,0,0-15.33655-72.37109A63.654,63.654,0,0,1,42.08966,96.739,63.94568,63.94568,0,0,0,52.874,126.19648,25.72648,25.72648,0,0,0,42.02618,138.633a15.57188,15.57188,0,0,0-19.62061,16.68164H124.62781a15.63042,15.63042,0,0,0,1.11279-4.74746c.6288-.21243,1.24869-.44962,1.87048-.68144.22411-.08351.45073-.15994.67391-.24611q1.3461-.51918,2.66676-1.10121c.09278-.04062.18746-.07666.28-.11768a63.97345,63.97345,0,0,0,5.83439-2.95564c.02526-.01447.04959-.03054.0748-.045q1.34187-.77117,2.64676-1.60876c.20907-.134.41214-.27781.61974-.41434.68057-.44774,1.35681-.90209,2.02079-1.37653.27275-.19486.53859-.39974.80847-.599.58744-.43378,1.17171-.87194,1.745-1.32669.29918-.23732.59176-.48342.887-.72625.53083-.43708,1.058-.87835,1.57547-1.33352.3082-.27091.61076-.54883.91413-.82609.489-.44737.97309-.90012,1.44909-1.36383q.46271-.45061.91541-.91249.6827-.69285,1.34557-1.40794.45272-.48849.89652-.98657Q153.60511,131.817,154.223,131.07265Z"/><path class="cls-10" d="M153.52562,130.34656c.28905-.3463.57751-.69265.85985-1.04606.40271-.504.79413-1.019,1.18273-1.53725.2724-.36329.54655-.72441.81186-1.09457.38182-.5328.74963-1.0785,1.1164-1.62546.2503-.3732.50486-.742.748-1.12183.3686-.57594.72-1.16669,1.07174-1.75754.21939-.36845.446-.73031.65872-1.10463.37372-.65749.7265-1.3323,1.079-2.00757.16931-.32422.34875-.64014.51312-.96841q.75888-1.51611,1.44788-3.08653a63.65035,63.65035,0,0,0-15.33655-72.37109A63.654,63.654,0,0,1,41.39229,96.01284a63.94569,63.94569,0,0,0,10.7843,29.45752,25.72646,25.72646,0,0,0-10.84778,12.43652,15.57188,15.57188,0,0,0-19.62061,16.68164H123.93044a15.63045,15.63045,0,0,0,1.11279-4.74746c.62875-.21241,1.24859-.44958,1.87034-.68138.22417-.08353.45084-.16.67409-.24618q1.346-.51913,2.66651-1.10111c.09286-.04065.18763-.07672.2803-.11778a63.97163,63.97163,0,0,0,5.83433-2.95561c.02535-.01452.04977-.03065.07507-.04519q1.34173-.7711,2.64649-1.60859c.20912-.134.41223-.27787.61987-.41443.68054-.44772,1.35673-.90205,2.02068-1.37646.27276-.19487.5386-.39975.80848-.599.58742-.43377,1.17168-.87191,1.74495-1.32666.29921-.23734.59181-.48347.887-.72632.5308-.43705,1.05793-.8783,1.57538-1.33344.30822-.27093.61081-.54888.9142-.82616.489-.44735.973-.90008,1.449-1.36376q.46274-.45064.91547-.91256.68267-.69282,1.34551-1.40788.45275-.48851.89657-.98663Q152.90774,131.09091,153.52562,130.34656Z"/><path class="cls-11" d="M152.82822,129.62046c.28907-.34632.57754-.69269.8599-1.04612.40269-.504.79409-1.01893,1.18268-1.53718.27242-.36331.54658-.72446.81191-1.09463.3818-.53278.7496-1.07845,1.11635-1.62539.25031-.37323.5049-.74206.74805-1.1219.36859-.57592.72-1.16666,1.07172-1.7575.2194-.36846.446-.73033.65873-1.10465.37372-.6575.7265-1.3323,1.079-2.00757.16931-.32422.34875-.64014.51312-.96841q.75888-1.51611,1.44788-3.08652A63.65035,63.65035,0,0,0,146.98106,41.8995,63.654,63.654,0,0,1,40.69492,95.28671a63.94571,63.94571,0,0,0,10.7843,29.45752,25.72645,25.72645,0,0,0-10.84778,12.43652A15.57188,15.57188,0,0,0,21.01084,153.8624H123.23307a15.63047,15.63047,0,0,0,1.11279-4.74746c.6287-.2124,1.2485-.44955,1.87019-.68133.22423-.08355.451-.16.67427-.24624q1.34585-.51908,2.66626-1.101c.09294-.04069.1878-.07678.28054-.11789a63.96982,63.96982,0,0,0,5.83428-2.95558c.02544-.01457.04995-.03076.07534-.04535q1.34159-.771,2.64622-1.60843c.20916-.134.41232-.27793.62-.41451.6805-.4477,1.35666-.902,2.02058-1.37639.27277-.19488.53862-.39976.8085-.599.58741-.43376,1.17166-.87189,1.74491-1.32662.29924-.23736.59187-.48351.88713-.7264.53077-.437,1.05787-.87825,1.57529-1.33337.30825-.271.61086-.54892.91427-.82622.489-.44733.973-.9,1.44895-1.36369q.46278-.45067.91553-.91262.68264-.69278,1.34545-1.40781.45278-.48854.89663-.98669Q152.21037,130.36479,152.82822,129.62046Z"/><path class="cls-12" d="M152.13083,128.89437c.28908-.34634.57757-.69273.85995-1.04617.40267-.50395.79405-1.01888,1.18263-1.53711.27244-.36333.54661-.7245.812-1.09469.38178-.53276.74956-1.07839,1.1163-1.62531.25033-.37325.50493-.7421.7481-1.122.36858-.57591.72-1.16664,1.0717-1.75747.2194-.36847.44606-.73034.65875-1.10467.37372-.6575.7265-1.3323,1.079-2.00757.16931-.32422.34875-.64014.51312-.96841q.75888-1.51611,1.44788-3.08652a63.65035,63.65035,0,0,0-15.33655-72.37109A63.654,63.654,0,0,1,39.99756,94.56059a63.94572,63.94572,0,0,0,10.7843,29.45752,25.72643,25.72643,0,0,0-10.84778,12.43652,15.57188,15.57188,0,0,0-19.62061,16.68164H122.5357a15.63049,15.63049,0,0,0,1.11279-4.74747c.62866-.21238,1.2484-.44951,1.87005-.68127.22429-.08358.45108-.16007.67444-.24631q1.34573-.519,2.666-1.10091c.093-.04072.188-.07684.28079-.118a63.968,63.968,0,0,0,5.83423-2.95555c.02553-.01462.05013-.03086.07561-.04551q1.34145-.771,2.64595-1.60827c.20921-.134.4124-.278.62013-.4146.68047-.44767,1.35659-.902,2.02047-1.37632.27278-.19488.53863-.39977.80852-.599.58739-.43375,1.17163-.87187,1.74486-1.32659.29927-.23738.59192-.48356.88721-.72647.53075-.437,1.05781-.8782,1.57521-1.33329.30828-.271.61091-.549.91435-.82629.489-.44731.97294-.9,1.44887-1.36362q.46281-.4507.91559-.91269.68261-.69275,1.34538-1.40775.45281-.48856.89669-.98676Q151.513,129.63866,152.13083,128.89437Z"/><path class="cls-13" d="M151.43343,128.16828c.2891-.34635.57761-.69277.86-1.04623.40266-.50393.794-1.01884,1.18258-1.537.27245-.36335.54665-.72454.812-1.09476.38177-.53273.74952-1.07834,1.11625-1.62524.25034-.37327.505-.74215.74815-1.122.36857-.57589.71995-1.16661,1.07167-1.75743.21941-.36847.44606-.73035.65876-1.10468.37372-.6575.7265-1.33231,1.079-2.00757.16931-.32422.34875-.64014.51312-.96842q.75888-1.51611,1.44788-3.08652a63.65035,63.65035,0,0,0-15.33655-72.37109A63.654,63.654,0,0,1,39.30019,93.83446,63.94573,63.94573,0,0,0,50.08449,123.292,25.72642,25.72642,0,0,0,39.23671,135.7285,15.57188,15.57188,0,0,0,19.6161,152.41014H121.83833a15.6305,15.6305,0,0,0,1.11279-4.74747c.62861-.21236,1.2483-.44948,1.86991-.68122.22435-.0836.4512-.16012.67462-.24637q1.3456-.519,2.66575-1.10081c.0931-.04076.18813-.0769.281-.11809a63.96619,63.96619,0,0,0,5.83417-2.95552c.02562-.01467.05031-.031.07588-.04567q1.34131-.77088,2.64568-1.6081c.20925-.13408.41249-.278.62026-.41469.68043-.44765,1.35652-.90193,2.02036-1.37625.27279-.19489.53864-.39979.80854-.599.58738-.43374,1.1716-.87185,1.74482-1.32655.2993-.23741.592-.4836.88729-.72654.53072-.437,1.05776-.87815,1.57512-1.33321.3083-.271.611-.549.91442-.82636.48894-.44728.97289-.89994,1.4488-1.36355q.46284-.45073.91565-.91275.68258-.69272,1.34532-1.40768.45283-.48858.89674-.98682Q150.81563,128.91254,151.43343,128.16828Z"/><path class="cls-14" d="M150.736,127.44218c.28912-.34637.57764-.69281.86-1.04629.40264-.5039.794-1.01879,1.18252-1.537.27247-.36337.54668-.72458.81205-1.09482.38175-.53271.74949-1.07829,1.11619-1.62516.25036-.37329.505-.74219.74819-1.12212.36856-.57587.71993-1.16659,1.07165-1.75739.21941-.36848.44607-.73037.65877-1.1047.37372-.65751.7265-1.33231,1.079-2.00757.16931-.32422.34875-.64014.51312-.96842q.75888-1.51611,1.44788-3.08651A63.65035,63.65035,0,0,0,144.889,39.72113,63.654,63.654,0,0,1,38.60282,93.10833a63.94575,63.94575,0,0,0,10.7843,29.45752,25.7264,25.7264,0,0,0-10.84778,12.43652A15.57188,15.57188,0,0,0,18.91874,151.684H121.141a15.63053,15.63053,0,0,0,1.11279-4.74747c.62856-.21235,1.24821-.44944,1.86977-.68116.22441-.08362.45132-.16016.6748-.24643q1.34548-.51894,2.6655-1.10071c.09319-.04079.1883-.077.28129-.1182a63.96435,63.96435,0,0,0,5.83412-2.95549c.02571-.01473.05048-.03107.07615-.04583q1.34118-.77081,2.64541-1.60794c.2093-.13411.41258-.2781.62039-.41477.6804-.44763,1.35644-.90188,2.02026-1.37618.27279-.19489.53865-.3998.80856-.59905.58737-.43373,1.17157-.87182,1.74478-1.32652.29933-.23743.592-.48365.88738-.72661.53069-.43694,1.0577-.8781,1.575-1.33314.30833-.271.611-.549.91449-.82643.48891-.44726.97284-.8999,1.44873-1.36348q.46287-.45076.91571-.91282.68255-.69268,1.34526-1.40762.45286-.48861.8968-.98688Q150.11826,128.18642,150.736,127.44218Z"/><path class="cls-15" d="M150.03863,126.71609c.28913-.34638.57768-.69285.86009-1.04635.40262-.50388.79395-1.01875,1.18247-1.53691.27249-.36339.54671-.72462.8121-1.09489.38173-.53269.74945-1.07824,1.11614-1.62509.25038-.37332.505-.74224.74824-1.12219.36856-.57586.71992-1.16656,1.07163-1.75735.21942-.36849.44608-.73038.65878-1.10472.37372-.65751.7265-1.33231,1.079-2.00757.16931-.32422.34875-.64014.51312-.96842q.75888-1.51611,1.44788-3.08651A63.65035,63.65035,0,0,0,144.19158,38.995,63.654,63.654,0,0,1,37.90545,92.38221a63.94576,63.94576,0,0,0,10.7843,29.45752A25.72639,25.72639,0,0,0,37.842,134.27625a15.57188,15.57188,0,0,0-19.62061,16.68164H120.4436a15.63055,15.63055,0,0,0,1.11279-4.74748c.62851-.21233,1.24811-.44941,1.86962-.68111.22447-.08364.45144-.16021.675-.2465q1.34536-.51889,2.66525-1.10061c.09327-.04083.18847-.077.28153-.1183a63.96254,63.96254,0,0,0,5.83406-2.95546c.0258-.01478.05066-.03118.07642-.046q1.341-.77074,2.64514-1.60778c.20934-.13414.41266-.27816.62052-.41486.68036-.44761,1.35637-.90184,2.02015-1.37611.2728-.1949.53867-.39981.80858-.59907.58735-.43372,1.17155-.8718,1.74474-1.32648.29936-.23745.59209-.48369.88746-.72668.53066-.43691,1.05764-.878,1.57495-1.33306.30835-.27106.61105-.54909.91456-.82649.48889-.44724.97279-.89985,1.44866-1.36341q.4629-.45079.91577-.91288.68252-.69265,1.3452-1.40755.45289-.48863.89685-.98694Q149.42088,127.46029,150.03863,126.71609Z"/><path class="cls-16" d="M149.34123,125.99c.28915-.3464.57771-.69288.86014-1.04641.4026-.50386.79391-1.0187,1.18242-1.53684.27251-.36341.54674-.72466.81215-1.095.38171-.53267.74942-1.07819,1.11609-1.625.25039-.37334.50506-.74228.74829-1.12226.36855-.57584.7199-1.16654,1.07161-1.75731.21942-.36849.44609-.73039.6588-1.10474.37372-.65751.7265-1.33232,1.079-2.00757.16931-.32422.34875-.64014.51312-.96843q.75888-1.51611,1.44788-3.08651a63.65035,63.65035,0,0,0-15.33655-72.37109A63.654,63.654,0,0,1,37.20808,91.65608a63.94577,63.94577,0,0,0,10.7843,29.45752,25.72638,25.72638,0,0,0-10.84778,12.43652A15.57188,15.57188,0,0,0,17.524,150.23177H119.74623a15.63057,15.63057,0,0,0,1.11279-4.74748c.62846-.21232,1.248-.44937,1.86948-.68105.22453-.08367.45156-.16025.67515-.24656q1.34523-.51884,2.665-1.10051c.09335-.04086.18863-.07709.28178-.1184a63.96069,63.96069,0,0,0,5.834-2.95543c.02589-.01483.05084-.03129.07669-.04616q1.3409-.77067,2.64487-1.60761c.20939-.13416.41275-.27822.62065-.41495.68033-.44758,1.3563-.9018,2.02-1.376.27281-.19491.53868-.39983.8086-.59909.58734-.43371,1.17152-.87178,1.7447-1.32645.29939-.23747.59214-.48374.88754-.72675.53063-.43688,1.05758-.878,1.57486-1.333.30838-.27109.6111-.54913.91464-.82656.48886-.44722.97274-.89981,1.44858-1.36334q.46293-.45082.91583-.91294.68248-.69262,1.34513-1.40749.45292-.48866.89691-.987Q148.72351,126.73417,149.34123,125.99Z"/><path class="cls-17" d="M148.64383,125.2639c.28917-.34642.57774-.69292.86019-1.04646.40258-.50384.79388-1.01866,1.18236-1.53678.27253-.36343.54678-.72471.8122-1.095.38169-.53264.74938-1.07814,1.116-1.62494.25041-.37336.50509-.74233.74833-1.12233.36854-.57582.71989-1.16651,1.07158-1.75727.21943-.3685.4461-.7304.65881-1.10476.37372-.65752.7265-1.33232,1.079-2.00757.16931-.32422.34875-.64014.51312-.96843q.75888-1.51611,1.44788-3.0865a63.65035,63.65035,0,0,0-15.33655-72.37109A63.654,63.654,0,0,1,36.51071,90.93,63.94579,63.94579,0,0,0,47.295,120.38748,25.72636,25.72636,0,0,0,36.44724,132.824a15.57188,15.57188,0,0,0-19.62061,16.68164H119.04886a15.63059,15.63059,0,0,0,1.11279-4.74748c.62841-.2123,1.24792-.44933,1.86934-.681.22459-.08369.45168-.1603.67533-.24663q1.34511-.5188,2.66474-1.10041c.09343-.0409.1888-.07715.282-.1185a63.95889,63.95889,0,0,0,5.834-2.95541c.026-.01488.051-.03139.077-.04632q1.34076-.77059,2.6446-1.60745c.20943-.13419.41284-.27828.62078-.415.68029-.44756,1.35623-.90176,2.01994-1.376.27282-.19491.53869-.39984.80862-.5991.58732-.4337,1.17149-.87176,1.74465-1.32641.29942-.2375.5922-.48378.88762-.72682.5306-.43685,1.05752-.87794,1.57477-1.33291.3084-.27111.61115-.54917.91471-.82663.48884-.44719.97269-.89976,1.44851-1.36327q.463-.45084.91589-.913.68245-.69258,1.34507-1.40743.45295-.48868.897-.98706Q148.02614,126.008,148.64383,125.2639Z"/><path class="cls-18" d="M147.94643,124.53781c.28918-.34643.57778-.693.86024-1.04652.40257-.50381.79384-1.01861,1.18231-1.53671.27254-.36345.54681-.72475.81225-1.09508.38167-.53262.74935-1.07809,1.116-1.62487.25042-.37338.50512-.74237.74838-1.1224.36853-.57581.71988-1.16648,1.07156-1.75723.21943-.3685.4461-.73042.65882-1.10478.37372-.65752.7265-1.33232,1.079-2.00757.16931-.32422.34875-.64014.51312-.96843q.75888-1.51611,1.44788-3.0865a63.65035,63.65035,0,0,0-15.33655-72.37109A63.654,63.654,0,0,1,35.81334,90.20383a63.9458,63.9458,0,0,0,10.7843,29.45752,25.72635,25.72635,0,0,0-10.84778,12.43652,15.57188,15.57188,0,0,0-19.62061,16.68164H118.35149a15.63061,15.63061,0,0,0,1.11279-4.74748c.62837-.21228,1.24782-.4493,1.86919-.68094.22465-.08371.4518-.16034.6755-.24669q1.345-.51875,2.66449-1.10031c.09351-.04094.189-.07721.28227-.11861a63.95706,63.95706,0,0,0,5.8339-2.95538c.02607-.01493.0512-.0315.07723-.04648q1.34062-.77052,2.64433-1.60728c.20948-.13422.41292-.27833.62091-.41512.68026-.44754,1.35615-.90172,2.01983-1.37589.27283-.19492.53871-.39985.80864-.59912.58731-.43369,1.17147-.87173,1.74461-1.32637.29944-.23752.59225-.48383.8877-.72689.53057-.43682,1.05746-.87789,1.57469-1.33283.30843-.27114.6112-.54921.91478-.8267.48881-.44717.97264-.89972,1.44844-1.3632q.463-.45087.916-.91307.68242-.69255,1.345-1.40736.453-.4887.897-.98712Q147.32877,125.28192,147.94643,124.53781Z"/><path class="cls-19" d="M147.249,123.81172c.2892-.34645.57781-.693.86029-1.04658.40255-.50379.79381-1.01857,1.18226-1.53664.27256-.36347.54684-.72479.81229-1.09514.38165-.5326.74931-1.078,1.11594-1.62479.25044-.37341.50515-.74242.74843-1.12247.36852-.57579.71986-1.16646,1.07154-1.7572.21944-.36851.44611-.73043.65884-1.1048.37372-.65752.7265-1.33233,1.079-2.00757.16931-.32422.34875-.64014.51312-.96844q.75888-1.51611,1.44788-3.0865A63.65035,63.65035,0,0,0,141.40211,36.0905,63.654,63.654,0,0,1,35.116,89.47771a63.94581,63.94581,0,0,0,10.7843,29.45752A25.72633,25.72633,0,0,0,35.0525,131.37175a15.57188,15.57188,0,0,0-19.62061,16.68164H117.65412a15.63063,15.63063,0,0,0,1.11279-4.74749c.62832-.21227,1.24773-.44926,1.86905-.68089.22471-.08373.45191-.16039.67568-.24676q1.34487-.5187,2.66424-1.10021c.0936-.041.18914-.07727.28252-.11871a63.95521,63.95521,0,0,0,5.83384-2.95535c.02616-.015.05138-.0316.0775-.04664q1.34048-.77045,2.64406-1.60712c.20952-.13425.413-.27839.621-.41521.68022-.44752,1.35608-.90168,2.01973-1.37582.27283-.19493.53872-.39986.80866-.59913.58729-.43368,1.17144-.87171,1.74457-1.32634.29947-.23754.5923-.48387.88779-.727.53054-.43679,1.0574-.87784,1.5746-1.33275.30846-.27116.61124-.54925.91485-.82676.48879-.44715.97259-.89967,1.44837-1.36313q.463-.4509.916-.91314.68239-.69251,1.34494-1.4073.453-.48873.89708-.98718Q146.6314,124.5558,147.249,123.81172Z"/><path class="cls-20" d="M146.55163,123.08562c.28921-.34646.57784-.693.86034-1.04664.40253-.50377.79377-1.01852,1.1822-1.53657.27258-.36349.54687-.72483.81234-1.09521.38163-.53258.74928-1.078,1.11589-1.62472.25046-.37343.50518-.74246.74847-1.12254.36852-.57578.71985-1.16643,1.07152-1.75716.21944-.36852.44612-.73044.65885-1.10482.37372-.65753.7265-1.33233,1.079-2.00757.16931-.32422.34875-.64014.51312-.96844q.75888-1.51611,1.44788-3.08649a63.65035,63.65035,0,0,0-15.33655-72.37109A63.654,63.654,0,0,1,34.41861,88.75158a63.94583,63.94583,0,0,0,10.7843,29.45752,25.72632,25.72632,0,0,0-10.84778,12.43652,15.57188,15.57188,0,0,0-19.62061,16.68164H116.95675a15.63065,15.63065,0,0,0,1.11279-4.74749c.62827-.21225,1.24763-.44923,1.86891-.68083.22477-.08376.452-.16043.67586-.24682q1.34474-.51865,2.664-1.10011c.09368-.041.1893-.07733.28277-.11881a63.95342,63.95342,0,0,0,5.83379-2.95532c.02625-.015.05155-.03171.07777-.0468q1.34034-.77038,2.64379-1.607c.20957-.13428.4131-.27845.62117-.41529.68019-.44749,1.356-.90163,2.01962-1.37575.27284-.19493.53873-.39988.80868-.59915.58728-.43367,1.17141-.87169,1.74453-1.3263.2995-.23756.59236-.48392.88787-.727.53051-.43676,1.05734-.87779,1.57451-1.33267.30848-.27119.61129-.54929.91493-.82683.48876-.44713.97254-.89963,1.4483-1.36306q.46306-.45093.91608-.9132.68236-.69248,1.34488-1.40723.453-.48875.89713-.98724Q145.934,123.82967,146.55163,123.08562Z"/><path class="cls-21" d="M145.85424,122.35953c.28923-.34648.57788-.69308.86039-1.0467.40251-.50375.79374-1.01848,1.18215-1.53651.2726-.36351.5469-.72487.81239-1.09527.38161-.53255.74924-1.07793,1.11584-1.62465.25047-.37345.50522-.74251.74852-1.12261.36851-.57576.71983-1.16641,1.07149-1.75712.21945-.36852.44613-.73046.65886-1.10484.37372-.65753.7265-1.33233,1.079-2.00757.16931-.32422.34875-.64014.51312-.96844q.75888-1.51611,1.44788-3.08649a63.65035,63.65035,0,0,0-15.33655-72.37109A63.654,63.654,0,0,1,33.72124,88.02546,63.94584,63.94584,0,0,0,44.50554,117.483,25.72631,25.72631,0,0,0,33.65776,129.9195a15.57188,15.57188,0,0,0-19.62061,16.68164H116.25939a15.63067,15.63067,0,0,0,1.11279-4.74749c.62822-.21224,1.24753-.44919,1.86876-.68078.22482-.08378.45215-.16048.676-.24688q1.34462-.5186,2.66373-1.1c.09376-.041.18947-.07739.283-.11892a63.95162,63.95162,0,0,0,5.83373-2.95529c.02634-.01509.05173-.03182.078-.047q1.3402-.77031,2.64352-1.60679c.20961-.13431.41318-.27851.6213-.41538.68015-.44747,1.35594-.90159,2.01952-1.37568.27285-.19494.53874-.39989.8087-.59917.58726-.43366,1.17138-.87167,1.74449-1.32627.29953-.23759.59241-.484.88795-.7271.53049-.43674,1.05728-.87774,1.57443-1.3326.30851-.27121.61134-.54934.915-.8269.48873-.44711.97249-.89958,1.44822-1.363q.46309-.451.91614-.91327.68233-.69245,1.34482-1.40717.45307-.48878.89719-.9873Q145.23665,123.10355,145.85424,122.35953Z"/><path class="cls-22" d="M145.15684,121.63344c.28925-.3465.57791-.69312.86044-1.04675.4025-.50372.7937-1.01843,1.1821-1.53644.27261-.36353.54694-.72491.81244-1.09534.38159-.53253.74921-1.07788,1.11578-1.62457.25049-.37347.50525-.74255.74857-1.12268.3685-.57574.71982-1.16638,1.07147-1.75708.21945-.36853.44614-.73047.65887-1.10486.37372-.65753.7265-1.33234,1.079-2.00757.16931-.32422.34875-.64014.51312-.96844q.75888-1.51611,1.44788-3.08649A63.65035,63.65035,0,0,0,139.31,33.91212,63.654,63.654,0,0,1,33.02387,87.29933a63.94585,63.94585,0,0,0,10.7843,29.45752,25.72629,25.72629,0,0,0-10.84778,12.43652A15.57188,15.57188,0,0,0,13.33979,145.875H115.562a15.63069,15.63069,0,0,0,1.11279-4.7475c.62817-.21222,1.24744-.44916,1.86862-.68073.22488-.0838.45227-.16052.67621-.24695q1.3445-.51855,2.66348-1.09991c.09384-.04108.18964-.07745.28326-.119a63.94977,63.94977,0,0,0,5.83368-2.95526c.02643-.01514.05191-.03192.07831-.04712q1.34006-.77023,2.64325-1.60663c.20966-.13434.41327-.27856.62143-.41547.68011-.44745,1.35587-.90155,2.01941-1.37561.27286-.19495.53876-.3999.80872-.59918.58725-.43365,1.17136-.87164,1.74445-1.32623.29956-.23761.59247-.484.888-.72717.53046-.43671,1.05722-.87769,1.57434-1.33252.30853-.27124.61139-.54938.91507-.827.48871-.44708.97244-.89954,1.44815-1.36292.30875-.30066.61313-.6059.9162-.91333q.6823-.69241,1.34476-1.4071.45309-.4888.89725-.98737Q144.53928,122.37742,145.15684,121.63344Z"/><path class="cls-23" d="M144.45944,120.90734c.28926-.34651.57795-.69315.86049-1.04681.40248-.5037.79367-1.01839,1.182-1.53637.27263-.36354.547-.725.81249-1.0954.38157-.53251.74917-1.07783,1.11573-1.6245.2505-.3735.50528-.7426.74861-1.12275.36849-.57573.7198-1.16636,1.07145-1.757.21946-.36854.44614-.73048.65889-1.10488.37372-.65753.7265-1.33234,1.079-2.00757.16931-.32422.34875-.64014.51312-.96845q.75888-1.51611,1.44788-3.08648A63.65035,63.65035,0,0,0,138.61264,33.186,63.654,63.654,0,0,1,32.3265,86.5732a63.94587,63.94587,0,0,0,10.7843,29.45752A25.72628,25.72628,0,0,0,32.263,128.46725a15.57188,15.57188,0,0,0-19.62061,16.68164H114.86465a15.63071,15.63071,0,0,0,1.11279-4.7475c.62813-.2122,1.24734-.44912,1.86848-.68067.22494-.08382.45239-.16057.67639-.247q1.34437-.51851,2.66323-1.09982c.09392-.04111.1898-.07751.28351-.11912a63.948,63.948,0,0,0,5.83362-2.95523c.02652-.01519.05209-.032.07858-.04728q1.33992-.77016,2.643-1.60646c.2097-.13437.41336-.27862.62156-.41555.68008-.44743,1.35579-.90151,2.0193-1.37554.27287-.195.53877-.39992.80874-.5992.58724-.43365,1.17133-.87162,1.7444-1.3262.29959-.23763.59252-.48405.88811-.72724.53043-.43668,1.05716-.87763,1.57425-1.33244.30856-.27127.61144-.54942.91514-.827.48868-.44706.97239-.89949,1.44808-1.36284.30877-.30068.61317-.60594.91626-.91339q.68227-.69238,1.34469-1.407.45312-.48882.8973-.98743Q143.84191,121.6513,144.45944,120.90734Z"/><path class="cls-24" d="M143.762,120.18125c.28928-.34653.578-.69319.86054-1.04687.40246-.50368.79363-1.01834,1.182-1.5363.27265-.36356.547-.725.81254-1.09547.38155-.53249.74914-1.07778,1.11568-1.62442.25052-.37352.50531-.74264.74866-1.12282.36848-.57571.71979-1.16633,1.07143-1.757.21946-.36854.44615-.73049.6589-1.1049.37372-.65754.7265-1.33234,1.079-2.00757.16931-.32422.34875-.64014.51312-.96845q.75888-1.51611,1.44788-3.08648a63.65035,63.65035,0,0,0-15.33655-72.37109A63.654,63.654,0,0,1,31.62913,85.84708a63.94588,63.94588,0,0,0,10.7843,29.45752,25.72626,25.72626,0,0,0-10.84778,12.43652,15.57188,15.57188,0,0,0-19.62061,16.68164H114.16728a15.63073,15.63073,0,0,0,1.11279-4.7475c.62808-.21219,1.24724-.44909,1.86834-.68062.225-.08385.45251-.16061.67656-.24708q1.34425-.51846,2.663-1.09972c.094-.04115.19-.07758.28376-.11922a63.94612,63.94612,0,0,0,5.83357-2.9552c.02661-.01524.05227-.03213.07885-.04744q1.33978-.77009,2.64271-1.6063c.20975-.1344.41344-.27868.62169-.41564.68-.4474,1.35572-.90147,2.0192-1.37547.27287-.195.53878-.39993.80875-.59921.58722-.43364,1.1713-.8716,1.74436-1.32616.29962-.23765.59258-.4841.88819-.72731.5304-.43665,1.0571-.87758,1.57417-1.33237.30858-.27129.61149-.54946.91521-.8271.48866-.447.97234-.89945,1.448-1.36277.30879-.3007.61321-.606.91632-.91346q.68223-.69235,1.34463-1.407.45315-.48885.89736-.98749Q143.14454,120.92518,143.762,120.18125Z"/><path class="cls-25" d="M143.06464,119.45516c.28929-.34654.578-.69323.86059-1.04693.40244-.50366.7936-1.0183,1.18194-1.53624.27267-.36358.547-.725.81258-1.09553.38153-.53246.7491-1.07773,1.11563-1.62435.25054-.37354.50535-.74269.74871-1.12289.36848-.5757.71977-1.1663,1.0714-1.757.21947-.36855.44616-.73051.65891-1.10492.37372-.65754.7265-1.33235,1.079-2.00757.16931-.32422.34875-.64014.51312-.96845q.75888-1.51611,1.44788-3.08648A63.65035,63.65035,0,0,0,137.2179,31.73375,63.654,63.654,0,0,1,30.93177,85.121a63.94589,63.94589,0,0,0,10.7843,29.45752A25.72625,25.72625,0,0,0,30.86829,127.015a15.57188,15.57188,0,0,0-19.62061,16.68164H113.46991a15.63075,15.63075,0,0,0,1.11279-4.74751c.628-.21217,1.24715-.44905,1.86819-.68056.22506-.08387.45263-.16066.67674-.24714q1.34413-.51841,2.66273-1.09962c.09409-.04118.19014-.07764.284-.11933a63.94431,63.94431,0,0,0,5.83352-2.95517c.0267-.01529.05245-.03224.07912-.0476q1.33964-.77,2.64244-1.60614c.20979-.13443.41353-.27874.62182-.41573.68-.44738,1.35565-.90142,2.01909-1.3754.27288-.195.5388-.39994.80877-.59923.58721-.43363,1.17127-.87158,1.74432-1.32613.29965-.23768.59263-.48414.88828-.72738.53037-.43662,1.057-.87753,1.57408-1.33229.30861-.27132.61153-.5495.91529-.82717.48863-.447.97229-.8994,1.44793-1.3627.30881-.30072.61325-.606.91638-.91352q.6822-.69231,1.34457-1.40691.45318-.48887.89742-.98755Q142.44717,120.19905,143.06464,119.45516Z"/><path class="cls-26" d="M142.36724,118.72906c.28931-.34656.578-.69327.86064-1.047.40243-.50363.79356-1.01825,1.18189-1.53617.27268-.3636.54706-.72508.81263-1.09559.38151-.53244.74907-1.07768,1.11558-1.62428.25055-.37356.50538-.74273.74875-1.123.36847-.57568.71976-1.16628,1.07138-1.75693.21947-.36856.44617-.73052.65893-1.10494.37372-.65754.7265-1.33235,1.079-2.00757.16931-.32422.34875-.64014.51312-.96846q.75888-1.51611,1.44788-3.08647a63.65035,63.65035,0,0,0-15.33655-72.37109A63.654,63.654,0,0,1,30.2344,84.39483a63.94591,63.94591,0,0,0,10.7843,29.45752,25.72623,25.72623,0,0,0-10.84778,12.43652,15.57188,15.57188,0,0,0-19.62061,16.68164H112.77254a15.63077,15.63077,0,0,0,1.11279-4.74751c.628-.21215,1.24705-.449,1.86805-.68051.22512-.08389.45275-.1607.67692-.24721q1.344-.51836,2.66247-1.09952c.09417-.04122.1903-.0777.28425-.11943a63.94251,63.94251,0,0,0,5.83346-2.95515c.02679-.01534.05262-.03235.07939-.04776q1.3395-.76994,2.64217-1.606c.20984-.13445.41362-.2788.62195-.41581.68-.44736,1.35558-.90138,2.019-1.37533.27289-.195.53881-.4.80879-.59925.58719-.43362,1.17125-.87155,1.74428-1.32609.29968-.2377.59269-.48419.88836-.72746.53034-.43659,1.057-.87748,1.574-1.33221.30864-.27134.61158-.54954.91536-.82724.48861-.447.97224-.89936,1.44786-1.36263.30883-.30074.61329-.60606.91644-.91359q.68217-.69228,1.34451-1.40685.45321-.4889.89747-.98761Q141.7498,119.47293,142.36724,118.72906Z"/><path class="cls-27" d="M141.66984,118.003c.28933-.34658.57808-.69331.86069-1.047.40241-.50361.79352-1.01821,1.18183-1.5361.2727-.36362.5471-.72512.81268-1.09566.3815-.53242.749-1.07762,1.11553-1.6242.25057-.37359.50541-.74278.7488-1.123.36846-.57566.71975-1.16625,1.07136-1.75689.21948-.36856.44618-.73053.65894-1.105.37372-.65755.7265-1.33235,1.079-2.00757.16931-.32422.34875-.64014.51312-.96846q.75888-1.51611,1.44788-3.08647a63.65035,63.65035,0,0,0-15.33655-72.37109A63.654,63.654,0,0,1,29.537,83.6687a63.94592,63.94592,0,0,0,10.7843,29.45752,25.72622,25.72622,0,0,0-10.84778,12.43652A15.57188,15.57188,0,0,0,9.85295,142.24439H112.07518a15.63079,15.63079,0,0,0,1.11279-4.74751c.62793-.21214,1.247-.449,1.86791-.68045.22518-.08391.45286-.16075.67709-.24727q1.34388-.51831,2.66222-1.09942c.09425-.04125.19047-.07776.2845-.11953a63.94068,63.94068,0,0,0,5.83341-2.95512c.02688-.01539.0528-.03245.07966-.04792q1.33936-.76987,2.6419-1.60581c.20988-.13448.4137-.27885.62208-.4159.67994-.44734,1.3555-.90134,2.01888-1.37526.2729-.195.53882-.4.80881-.59926.58718-.43361,1.17122-.87153,1.74424-1.32606.29971-.23772.59274-.48423.88844-.72753.53031-.43656,1.05692-.87743,1.57391-1.33213.30866-.27137.61163-.54959.91543-.8273.48858-.447.97219-.89931,1.44779-1.36256.30885-.30076.61333-.6061.9165-.91365q.68214-.69224,1.34444-1.40678.45324-.48892.89753-.98767Q141.05242,118.7468,141.66984,118.003Z"/><path class="cls-28" d="M140.97244,117.27688c.28934-.34659.57811-.69335.86074-1.0471.40239-.50359.79349-1.01816,1.18178-1.536.27272-.36364.54713-.72517.81273-1.09572.38148-.5324.749-1.07757,1.11548-1.62413.25058-.37361.50544-.74282.74885-1.1231.36845-.57565.71973-1.16623,1.07134-1.75685.21948-.36857.44618-.73055.659-1.105.37372-.65755.7265-1.33236,1.079-2.00757.16931-.32422.34875-.64014.51312-.96846q.75888-1.51611,1.44788-3.08647a63.65035,63.65035,0,0,0-15.33655-72.37109A63.654,63.654,0,0,1,28.83966,82.94258,63.94593,63.94593,0,0,0,39.624,112.4001a25.72621,25.72621,0,0,0-10.84778,12.43652A15.57188,15.57188,0,0,0,9.15558,141.51826H111.37781a15.63081,15.63081,0,0,0,1.11279-4.74752c.62788-.21212,1.24686-.44895,1.86776-.6804.22524-.08394.453-.16079.67727-.24733q1.34376-.51827,2.662-1.09932c.09433-.04129.19064-.07782.28475-.11964a63.93887,63.93887,0,0,0,5.83335-2.95509c.027-.01545.053-.03256.07993-.04808q1.33922-.7698,2.64163-1.60565c.20993-.13451.41379-.27891.62221-.416.6799-.44731,1.35543-.9013,2.01877-1.37519.27291-.195.53883-.4.80883-.59928.58716-.4336,1.17119-.87151,1.7442-1.326.29973-.23774.5928-.48428.88852-.7276.53028-.43653,1.05686-.87738,1.57382-1.33206.30869-.27139.61168-.54963.9155-.82737.48855-.44695.97214-.89927,1.44772-1.36249.30887-.30077.61337-.60615.91656-.91372q.68211-.69221,1.34438-1.40672.45327-.48894.89758-.98773Q140.35505,118.02068,140.97244,117.27688Z"/><path class="cls-29" d="M140.275,116.55078c.28936-.34661.57815-.69339.86079-1.04716.40237-.50357.79345-1.01812,1.18173-1.536.27274-.36366.54716-.72521.81278-1.09579.38146-.53237.749-1.07752,1.11542-1.62406.2506-.37363.50547-.74287.74889-1.12318.36844-.57563.71972-1.1662,1.07131-1.75681.21949-.36858.44619-.73056.659-1.105.37372-.65755.7265-1.33236,1.079-2.00757.16931-.32422.34875-.64014.51312-.96847q.75888-1.51611,1.44788-3.08646a63.65035,63.65035,0,0,0-15.33655-72.37109A63.654,63.654,0,0,1,28.14229,82.21645,63.94594,63.94594,0,0,0,38.92659,111.674a25.72619,25.72619,0,0,0-10.84778,12.43652A15.57188,15.57188,0,0,0,8.45821,140.79213H110.68044a15.63083,15.63083,0,0,0,1.11279-4.74752c.62784-.21211,1.24676-.44891,1.86762-.68034.2253-.084.4531-.16084.67745-.2474q1.34364-.51822,2.66172-1.09922c.09441-.04132.19081-.07788.285-.11974a63.937,63.937,0,0,0,5.8333-2.95506c.02706-.0155.05316-.03266.0802-.04824q1.33908-.76973,2.64136-1.60548c.21-.13454.41388-.279.62234-.41607.67987-.44729,1.35536-.90126,2.01867-1.37512.27291-.195.53885-.4.80885-.59929.58715-.43359,1.17117-.87149,1.74415-1.326.29976-.23777.59285-.48432.8886-.72767.53025-.4365,1.0568-.87733,1.57373-1.332.30871-.27142.61173-.54967.91558-.82744.48853-.44693.97209-.89922,1.44764-1.36242.30889-.30079.61341-.60619.91663-.91378q.68208-.69218,1.34432-1.40665.4533-.489.89764-.98779Q139.65768,117.29456,140.275,116.55078Z"/><path class="cls-30" d="M139.57764,115.82469c.28937-.34663.57818-.69342.86084-1.04722.40236-.50354.79342-1.01807,1.18167-1.5359.27275-.36368.54719-.72525.81282-1.09585.38144-.53235.74892-1.07747,1.11537-1.624.25062-.37365.50551-.74291.74894-1.12325.36844-.57562.7197-1.16618,1.07129-1.75677.21949-.36858.4462-.73057.659-1.105.37372-.65756.7265-1.33236,1.079-2.00757.16931-.32422.34875-.64014.51312-.96847q.75888-1.51611,1.44788-3.08646a63.65035,63.65035,0,0,0-15.33655-72.37109A63.654,63.654,0,0,1,27.44492,81.49032a63.946,63.946,0,0,0,10.7843,29.45752,25.72618,25.72618,0,0,0-10.84778,12.43652A15.57188,15.57188,0,0,0,7.76084,140.066H109.98307a15.63086,15.63086,0,0,0,1.11279-4.74752c.62779-.21209,1.24667-.44888,1.86748-.68029.22536-.084.45322-.16088.67762-.24746q1.34351-.51817,2.66147-1.09912c.0945-.04136.191-.07794.28524-.11984a63.93522,63.93522,0,0,0,5.83324-2.955c.02715-.01555.05334-.03277.08047-.0484q1.33894-.76965,2.64109-1.60532c.21-.13457.414-.279.62247-.41616.67983-.44727,1.35529-.90122,2.01856-1.375.27292-.195.53886-.4.80887-.59931.58713-.43358,1.17114-.87146,1.74411-1.326.29979-.23779.59291-.48437.88869-.72774.53023-.43648,1.05675-.87727,1.57365-1.3319.30874-.27145.61177-.54971.91565-.82751.4885-.4469.972-.89918,1.44757-1.36235.30891-.30081.61345-.60623.91669-.91384q.682-.69214,1.34426-1.40659.45333-.489.8977-.98785Q138.96031,116.56843,139.57764,115.82469Z"/><path class="cls-31" d="M138.88025,115.09859c.28939-.34664.57822-.69346.86089-1.04727.40234-.50352.79338-1.018,1.18162-1.53583.27277-.3637.54723-.72529.81287-1.09592.38142-.53233.74889-1.07742,1.11532-1.62391.25063-.37368.50554-.743.749-1.12332.36843-.5756.71969-1.16615,1.07127-1.75673.2195-.36859.44621-.73058.659-1.105.37372-.65756.7265-1.33237,1.079-2.00757.16931-.32422.34875-.64014.51312-.96847q.75888-1.51611,1.44788-3.08646A63.65035,63.65035,0,0,0,133.03369,27.377,63.654,63.654,0,0,1,26.74756,80.7642a63.946,63.946,0,0,0,10.7843,29.45752,25.72616,25.72616,0,0,0-10.84778,12.43652A15.57188,15.57188,0,0,0,7.06347,139.33988H109.2857a15.63087,15.63087,0,0,0,1.11279-4.74753c.62774-.21207,1.24657-.44884,1.86734-.68023.22542-.084.45334-.16093.6778-.24753q1.34339-.51812,2.66121-1.099c.09458-.04139.19114-.078.28549-.11994a63.93339,63.93339,0,0,0,5.83319-2.955c.02724-.0156.05351-.03288.08074-.04856q1.3388-.76958,2.64082-1.60515c.21006-.1346.414-.27908.6226-.41625.6798-.44725,1.35521-.90117,2.01846-1.375.27293-.195.53887-.4.80889-.59933.58712-.43357,1.17111-.87144,1.74407-1.32591.29982-.23781.593-.48441.88877-.72781.5302-.43645,1.05669-.87722,1.57356-1.33183.30876-.27147.61182-.54975.91572-.82757.48848-.44688.972-.89913,1.4475-1.36228.30893-.30083.61349-.60627.91675-.91391q.682-.69211,1.34419-1.40653.45335-.489.89775-.98792Q138.26294,115.84231,138.88025,115.09859Z"/><path class="cls-32" d="M138.18285,114.3725c.28941-.34666.57825-.6935.86094-1.04733.40232-.5035.79335-1.018,1.18157-1.53576.27279-.36372.54726-.72533.81292-1.096.3814-.53231.74885-1.07737,1.11527-1.62383.25065-.3737.50557-.743.749-1.12339.36842-.57558.71967-1.16612,1.07125-1.75669.2195-.36859.44622-.7306.659-1.10505.37372-.65756.7265-1.33237,1.079-2.00757.16931-.32422.34875-.64014.51312-.96848q.75888-1.51611,1.44788-3.08645a63.65035,63.65035,0,0,0-15.33655-72.37109A63.654,63.654,0,0,1,26.05019,80.03807a63.946,63.946,0,0,0,10.7843,29.45752,25.72615,25.72615,0,0,0-10.84778,12.43652A15.57188,15.57188,0,0,0,6.3661,138.61376H108.58833a15.63089,15.63089,0,0,0,1.11279-4.74753c.62769-.21206,1.24647-.4488,1.86719-.68018.22548-.084.45346-.161.678-.24759q1.34327-.51807,2.661-1.09892c.09466-.04143.19131-.07806.28574-.12a63.93159,63.93159,0,0,0,5.83313-2.955c.02733-.01565.05369-.033.081-.04873q1.33866-.76951,2.64055-1.605c.21011-.13463.41414-.27914.62273-.41633.67976-.44722,1.35514-.90113,2.01835-1.3749.27294-.195.53889-.4.80891-.59934.58711-.43356,1.17108-.87142,1.744-1.32588.29985-.23783.593-.48446.88885-.72788.53017-.43642,1.05663-.87717,1.57347-1.33175.30879-.2715.61187-.5498.91579-.82764.48845-.44686.97194-.89909,1.44743-1.36221.309-.30085.61353-.60631.91681-.914q.682-.69208,1.34413-1.40646.45338-.489.89781-.988Q137.56557,115.11618,138.18285,114.3725Z"/><path class="cls-33" d="M137.48545,113.64641c.28942-.34667.57828-.69354.861-1.04739.4023-.50348.79331-1.01794,1.18152-1.5357.27281-.36374.54729-.72537.813-1.096.38138-.53228.74882-1.07732,1.11522-1.62376.25066-.37372.5056-.743.74908-1.12346.36841-.57557.71966-1.1661,1.07122-1.75666.2195-.3686.44622-.73061.659-1.10507.37372-.65757.7265-1.33237,1.079-2.00757.16931-.32422.34875-.64014.51312-.96848q.75888-1.51611,1.44788-3.08645A63.65035,63.65035,0,0,0,131.639,25.92474,63.654,63.654,0,0,1,25.35282,79.31195a63.946,63.946,0,0,0,10.7843,29.45752A25.72614,25.72614,0,0,0,25.28934,121.206,15.57188,15.57188,0,0,0,5.66874,137.88763H107.891a15.63091,15.63091,0,0,0,1.11279-4.74753c.62764-.212,1.24638-.44877,1.867-.68012.22554-.084.45358-.161.67815-.24765q1.34315-.518,2.66071-1.09882c.09474-.04147.19147-.07812.286-.12015a63.92976,63.92976,0,0,0,5.83308-2.95494c.02742-.0157.05387-.03309.08128-.04889q1.33852-.76944,2.64028-1.60483c.21015-.13466.41422-.2792.62286-.41642.67973-.4472,1.35507-.90109,2.01824-1.37483.27295-.195.5389-.4.80893-.59936.58709-.43355,1.17106-.8714,1.744-1.32584.29988-.23786.59307-.4845.88893-.728.53014-.43639,1.05657-.87712,1.57339-1.33167.30882-.27152.61192-.54984.91586-.82771.48843-.44684.97189-.899,1.44736-1.36214.309-.30087.61357-.60636.91687-.914q.682-.692,1.34407-1.4064.45341-.48907.89787-.988Q136.86819,114.39006,137.48545,113.64641Z"/><path class="cls-34" d="M136.788,112.92031c.28944-.34669.57832-.69358.861-1.04745.40228-.50345.79328-1.01789,1.18146-1.53563.27283-.36376.54732-.72542.813-1.09611.38136-.53226.74878-1.07726,1.11517-1.62369.25068-.37374.50563-.74309.74912-1.12353.3684-.57555.71964-1.16607,1.0712-1.75662.21951-.36861.44623-.73062.659-1.10509.37372-.65757.7265-1.33237,1.079-2.00757.16931-.32422.34875-.64014.51312-.96848q.75888-1.51611,1.44788-3.08645a63.65035,63.65035,0,0,0-15.33655-72.37109A63.654,63.654,0,0,1,24.65545,78.58582a63.946,63.946,0,0,0,10.7843,29.45752A25.72612,25.72612,0,0,0,24.592,120.47987,15.57188,15.57188,0,0,0,4.97137,137.16151H107.1936a15.63093,15.63093,0,0,0,1.11279-4.74754c.6276-.212,1.24628-.44873,1.86691-.68007.2256-.08407.4537-.16106.67833-.24772q1.343-.518,2.66046-1.09872c.09482-.0415.19164-.07819.28623-.12025a63.92791,63.92791,0,0,0,5.833-2.95491c.02751-.01575.054-.03319.08155-.049q1.33838-.76937,2.64-1.60466c.2102-.13469.41431-.27926.623-.41651.67969-.44718,1.355-.901,2.01814-1.37476.273-.195.53891-.40006.80895-.59937.58708-.43354,1.171-.87137,1.74394-1.32581.29991-.23788.59312-.48455.889-.728.53011-.43636,1.05651-.87707,1.5733-1.33159.30884-.27155.612-.54988.91594-.82777.4884-.44681.97185-.899,1.44728-1.36207.309-.30089.61361-.6064.91693-.9141q.68192-.692,1.344-1.40633.45344-.48909.89792-.9881Q136.17082,113.66394,136.788,112.92031Z"/><path class="cls-35" d="M136.09065,112.19422c.28945-.34671.57835-.69362.86109-1.0475.40227-.50343.79324-1.01785,1.18141-1.53556.27284-.36378.54735-.72546.81307-1.09617.38134-.53224.74875-1.07721,1.11512-1.62361.2507-.37377.50567-.74314.74917-1.1236.3684-.57554.71963-1.166,1.07118-1.75658.21951-.36861.44624-.73064.659-1.10511.37372-.65757.7265-1.33238,1.079-2.00757.16931-.32422.34875-.64014.51312-.96849q.75888-1.51611,1.44788-3.08645a63.65035,63.65035,0,0,0-15.33655-72.37109A63.654,63.654,0,0,1,23.95808,77.8597a63.946,63.946,0,0,0,10.7843,29.45752,25.72611,25.72611,0,0,0-10.84778,12.43652A15.57188,15.57188,0,0,0,4.274,136.43538H106.49623a15.631,15.631,0,0,0,1.11279-4.74754c.62755-.212,1.24618-.4487,1.86676-.68.22566-.08409.45382-.16111.67851-.24778q1.3429-.51793,2.6602-1.09862c.09491-.04154.19181-.07825.28648-.12035a63.92615,63.92615,0,0,0,5.833-2.95489c.0276-.0158.05423-.0333.08182-.04921q1.33824-.76929,2.63974-1.6045c.21024-.13471.4144-.27932.62312-.41659.67966-.44716,1.35493-.901,2.018-1.37469.273-.195.53892-.40007.809-.59939.58706-.43353,1.171-.87135,1.7439-1.32577.29994-.2379.59318-.48459.8891-.72809.53008-.43633,1.05645-.877,1.57321-1.33152.30887-.27157.612-.54992.916-.82784.48837-.44679.9718-.899,1.44721-1.362.309-.30091.61365-.60644.917-.91417q.68189-.692,1.34394-1.40627.45347-.48911.898-.98816Q135.47345,112.93781,136.09065,112.19422Z"/><path class="cls-36" d="M135.39325,111.46813c.28947-.34672.57838-.69365.86114-1.04756.40225-.50341.79321-1.0178,1.18136-1.53549.27286-.3638.54739-.7255.81311-1.09624.38132-.53222.74871-1.07716,1.11506-1.62354.25071-.37379.5057-.74318.74922-1.12367.36839-.57552.71962-1.166,1.07116-1.75654.21952-.36862.44625-.73065.65905-1.10513.37372-.65758.7265-1.33238,1.079-2.00757.16931-.32422.34875-.64014.51312-.96849q.75888-1.51611,1.44788-3.08644a63.65035,63.65035,0,0,0-15.33655-72.37109A63.654,63.654,0,0,1,23.26071,77.13357,63.946,63.946,0,0,0,34.045,106.59109a25.72609,25.72609,0,0,0-10.84778,12.43652A15.57188,15.57188,0,0,0,3.57663,135.70925H105.79886a15.631,15.631,0,0,0,1.11279-4.74754c.6275-.212,1.24609-.44866,1.86662-.68.22572-.08412.45393-.16115.67868-.24785q1.34278-.51788,2.66-1.09852c.095-.04157.192-.07831.28673-.12046a63.92429,63.92429,0,0,0,5.83291-2.95486c.02769-.01586.05441-.03341.08209-.04937q1.3381-.76922,2.63947-1.60433c.21029-.13474.41448-.27937.62325-.41668.67962-.44713,1.35485-.901,2.01793-1.37462.273-.195.53894-.40008.809-.59941.587-.43352,1.171-.87133,1.74386-1.32574.3-.23792.59323-.48464.88918-.72816.53005-.4363,1.05639-.877,1.57313-1.33144.30889-.2716.61206-.55.91608-.82791.48835-.44677.97175-.89891,1.44714-1.36193.309-.30093.61369-.60648.91705-.91423q.68186-.69194,1.34388-1.4062.4535-.48914.898-.98822Q134.77608,112.21169,135.39325,111.46813Z"/><path class="cls-37" d="M134.69585,110.742c.28949-.34674.57842-.69369.86119-1.04762.40223-.50339.79317-1.01776,1.1813-1.53543.27288-.36381.54742-.72554.81316-1.0963.3813-.53219.74868-1.07711,1.115-1.62346.25073-.37381.50573-.74323.74926-1.12374.36838-.5755.7196-1.166,1.07113-1.7565.21952-.36863.44626-.73066.65907-1.10515.37372-.65758.7265-1.33238,1.079-2.00757.16931-.32422.34875-.64014.51312-.96849q.75888-1.51611,1.44788-3.08644a63.65035,63.65035,0,0,0-15.33655-72.37109A63.654,63.654,0,0,1,22.56334,76.40745,63.94605,63.94605,0,0,0,33.34765,105.865a25.72608,25.72608,0,0,0-10.84778,12.43652A15.57188,15.57188,0,0,0,2.87926,134.98313H105.10149a15.631,15.631,0,0,0,1.11279-4.74755c.62745-.212,1.246-.44863,1.86648-.67991.22578-.08414.45405-.1612.67886-.24791q1.34265-.51783,2.6597-1.09842c.09507-.04161.19214-.07837.287-.12056a63.92248,63.92248,0,0,0,5.83286-2.95483c.02778-.01591.05458-.03351.08236-.04953q1.338-.76915,2.6392-1.60417c.21033-.13477.41457-.27943.62338-.41677.67958-.44711,1.35478-.90092,2.01782-1.37455.273-.195.539-.4001.809-.59942.587-.43351,1.17095-.87131,1.74382-1.3257.3-.23795.59329-.48468.88926-.72823.53-.43627,1.05633-.87691,1.573-1.33136.30892-.27163.61211-.55.91615-.828.48832-.44675.9717-.89886,1.44707-1.36185.30906-.30095.61373-.60652.91711-.91429q.68183-.69191,1.34382-1.40614.45353-.48916.89809-.98828Q134.07871,111.48556,134.69585,110.742Z"/><path class="cls-38" d="M133.99845,110.01594c.2895-.34675.57845-.69373.86124-1.04768.40221-.50336.79314-1.01771,1.18125-1.53536.2729-.36383.54745-.72558.81321-1.09636.38128-.53217.74864-1.07706,1.115-1.62339.25075-.37383.50576-.74327.74931-1.12381.36837-.57549.71959-1.166,1.07111-1.75646.21953-.36863.44626-.73067.65908-1.10517.37372-.65758.7265-1.33239,1.079-2.00757.16931-.32422.34875-.64014.51312-.9685q.75888-1.51611,1.44788-3.08644a63.65035,63.65035,0,0,0-15.33655-72.37109A63.654,63.654,0,0,1,21.866,75.68132a63.94606,63.94606,0,0,0,10.7843,29.45752A25.72606,25.72606,0,0,0,21.8025,117.57536,15.57188,15.57188,0,0,0,2.18189,134.257H104.40412a15.631,15.631,0,0,0,1.11279-4.74755c.6274-.212,1.24589-.44859,1.86633-.67985.22583-.08416.45417-.16124.679-.248q1.34253-.51778,2.65945-1.09832c.09515-.04164.19231-.07843.28722-.12066a63.92066,63.92066,0,0,0,5.83281-2.9548c.02787-.016.05476-.03362.08263-.04969q1.33782-.76908,2.63893-1.604c.21038-.1348.41466-.27949.62351-.41685.67955-.44709,1.35471-.90088,2.01771-1.37448.273-.195.539-.40011.809-.59944.587-.4335,1.17092-.87128,1.74378-1.32567.3-.238.59334-.48473.88934-.7283.53-.43624,1.05627-.87686,1.573-1.33129.30894-.27165.61216-.55.91623-.828.4883-.44672.97165-.89882,1.447-1.36178.30908-.301.61377-.60656.91718-.91436q.6818-.69187,1.34375-1.40608.45356-.48919.89815-.98834Q133.38134,110.75944,133.99845,110.01594Z"/><path class="cls-39" d="M133.30105,109.28985c.28952-.34677.57848-.69377.86129-1.04774.4022-.50334.7931-1.01767,1.1812-1.53529.27291-.36385.54748-.72562.81326-1.09643.38126-.53215.74861-1.077,1.11491-1.62332.25076-.37386.5058-.74332.74936-1.12388.36836-.57547.71957-1.16594,1.07109-1.75642.21953-.36864.44627-.73069.65909-1.10519.37372-.65759.7265-1.33239,1.079-2.00757.16931-.32422.34875-.64014.51312-.9685q.75888-1.51611,1.44788-3.08643A63.65035,63.65035,0,0,0,127.45474,21.568,63.654,63.654,0,0,1,21.16861,74.95519a63.94608,63.94608,0,0,0,10.7843,29.45752,25.726,25.726,0,0,0-10.84778,12.43652A15.57188,15.57188,0,0,0,1.48453,133.53088H103.70675a15.631,15.631,0,0,0,1.11279-4.74755c.62735-.21195,1.2458-.44856,1.86619-.6798.22589-.08418.45429-.16129.67921-.248q1.34241-.51774,2.6592-1.09822c.09523-.04168.19248-.07849.28747-.12077a63.91882,63.91882,0,0,0,5.83275-2.95477c.028-.016.05494-.03372.0829-.04985q1.33768-.769,2.63866-1.60384c.21042-.13483.41474-.27955.62364-.41694.67951-.44707,1.35464-.90084,2.01761-1.37441.273-.19506.539-.40012.809-.59946.587-.43349,1.17089-.87126,1.74374-1.32563.30005-.238.5934-.48477.88942-.72837.53-.43622,1.05621-.87681,1.57287-1.33121.309-.27168.61221-.55009.9163-.82811.48827-.4467.9716-.89877,1.44692-1.36171.3091-.301.61381-.60661.91724-.91442q.68176-.69184,1.34369-1.406.45359-.48921.8982-.9884Q132.684,110.03332,133.30105,109.28985Z"/><path class="cls-40" d="M132.60366,108.56375c.28953-.34679.57852-.69381.86134-1.04779.40218-.50332.79307-1.01762,1.18114-1.53522.27293-.36387.54751-.72567.81331-1.09649.38124-.53213.74857-1.077,1.11486-1.62324.25078-.37388.50583-.74336.7494-1.124.36836-.57546.71956-1.16592,1.07107-1.75639.21954-.36865.44628-.7307.65911-1.10521.37372-.65759.7265-1.33239,1.079-2.00757.16931-.32422.34875-.64014.51312-.9685q.75888-1.51611,1.44788-3.08643a63.65035,63.65035,0,0,0-15.33655-72.37109A63.654,63.654,0,0,1,20.47124,74.22907a63.94609,63.94609,0,0,0,10.7843,29.45752,25.726,25.726,0,0,0-10.84778,12.43652A15.57188,15.57188,0,0,0,.78716,132.80475H103.00939a15.63106,15.63106,0,0,0,1.11279-4.74756c.62731-.21193,1.2457-.44852,1.866-.67974.226-.08421.45441-.16133.67939-.2481q1.34229-.51769,2.65894-1.09812c.09532-.04171.19264-.07855.28772-.12087a63.917,63.917,0,0,0,5.8327-2.95474c.028-.01606.05512-.03383.08317-.05q1.33754-.76893,2.63839-1.60368c.21047-.13486.41483-.27961.62377-.417.67948-.447,1.35456-.9008,2.0175-1.37434.273-.19506.539-.40013.80906-.59947.587-.43348,1.17086-.87124,1.74369-1.3256.30008-.238.59345-.48482.88951-.72844.52994-.43619,1.05615-.87676,1.57278-1.33113.309-.2717.61226-.55013.91637-.82818.48825-.44668.97155-.89873,1.44685-1.36164.30912-.301.61385-.60665.9173-.91449q.68173-.69181,1.34363-1.40595.45361-.48923.89826-.98846Q131.98659,109.30719,132.60366,108.56375Z"/><path d="M131.90626,107.83766c.28955-.3468.57855-.69385.86139-1.04785.40216-.5033.793-1.01758,1.18109-1.53516.27295-.36389.54755-.72571.81335-1.09656.38123-.5321.74854-1.0769,1.11481-1.62317.25079-.3739.50586-.74341.74945-1.124.36835-.57544.71954-1.16589,1.071-1.75635.21954-.36865.44629-.73071.65912-1.10522.37372-.65759.7265-1.3324,1.079-2.00757.16931-.32422.34875-.64014.51312-.96851q.75888-1.51611,1.44788-3.08643A63.65035,63.65035,0,0,0,126.06,20.11574,63.654,63.654,0,0,1,19.77387,73.50294a63.9461,63.9461,0,0,0,10.7843,29.45752A25.726,25.726,0,0,0,19.71039,115.397,15.57188,15.57188,0,0,0,.08979,132.07863H102.312a15.63108,15.63108,0,0,0,1.11279-4.74756c.62726-.21191,1.24561-.44849,1.86591-.67969.226-.08423.45453-.16138.67957-.24817q1.34216-.51764,2.65869-1.098c.0954-.04175.19281-.07861.288-.121a63.91522,63.91522,0,0,0,5.83264-2.95471c.02814-.01611.0553-.03394.08344-.05017q1.3374-.76886,2.63812-1.60352c.21051-.13489.41492-.27966.6239-.41711.67944-.447,1.35449-.90076,2.0174-1.37427.273-.19507.539-.40015.80908-.59949.587-.43347,1.17084-.87122,1.74365-1.32556.30011-.238.59351-.48486.88959-.72852.52991-.43616,1.05609-.87671,1.57269-1.33105.309-.27173.6123-.55017.91644-.82825.48822-.44666.9715-.89868,1.44678-1.36157.30914-.301.61389-.60669.91736-.91455q.6817-.69177,1.34357-1.40588.45364-.48926.89832-.98853Q131.28922,108.58107,131.90626,107.83766Z"/></g><g id="Moon_Crestcent" data-name="Moon Crestcent"><path class="cls-41" d="M126.06,20.1157A63.65389,63.65389,0,0,1,19.7739,73.5029,63.632,63.632,0,1,0,126.06,20.1157Z"/><circle class="cls-42" cx="80.00927" cy="104.91407" r="8.23623" transform="translate(-48.14504 136.2975) rotate(-66.43047)"/><g class="cls-43"><path d="M84.31692,100.1362a8.20533,8.20533,0,0,1,3.8091,3.3809,8.23584,8.23584,0,1,0-15.2183,5.5664,8.23579,8.23579,0,0,1,11.4092-8.9473Z"/></g><circle class="cls-42" cx="133.68787" cy="70.99695" r="4.71375" transform="translate(15.15928 165.1457) rotate(-66.43177)"/><g class="cls-43"><path d="M136.15332,68.2627a4.69286,4.69286,0,0,1,2.1797,1.9346,4.71357,4.71357,0,1,0-8.71,3.186,4.71379,4.71379,0,0,1,6.5303-5.1206Z"/></g><ellipse class="cls-42" cx="126.88097" cy="106.45145" rx="3.36245" ry="1.82541" transform="translate(-37.02197 130.25306) rotate(-48.25881)"/><g class="cls-43"><path d="M128.876,104.8931a1.38041,1.38041,0,0,1,.3725,1.1953,1.90775,1.90775,0,0,0-.1289-2.1455c-.7529-.6719-2.3642-.0928-3.6006,1.293a4.68462,4.68462,0,0,0-1.2495,2.5293,5.55034,5.55034,0,0,1,1.0059-1.5782C126.51172,104.8013,128.124,104.2222,128.876,104.8931Z"/></g><circle class="cls-42" cx="135.31422" cy="44.46267" r="2.4758" transform="translate(40.4537 150.70932) rotate(-66.43038)"/><g class="cls-43"><path d="M136.60892,43.0264a2.46451,2.46451,0,0,1,1.145,1.0161,2.47552,2.47552,0,1,0-4.5742,1.6733,2.47505,2.47505,0,0,1,3.4292-2.6894Z"/></g><circle class="cls-42" cx="47.61087" cy="104.18705" r="2.47598" transform="translate(-66.92229 106.15946) rotate(-66.4274)"/><g class="cls-43"><path d="M48.90572,102.7505a2.46913,2.46913,0,0,1,1.1446,1.0166,2.47549,2.47549,0,1,0-4.5742,1.6729,2.476,2.476,0,0,1,3.4296-2.6895Z"/></g><ellipse class="cls-42" cx="96.86522" cy="123.3584" rx="3.06689" ry="2.61005" transform="translate(-39.51324 45.89176) rotate(-22.26205)"/><g class="cls-43"><path d="M99.21242,123.0952a2.34638,2.34638,0,0,1,.0386,1.6426,2.53581,2.53581,0,0,0,.4526-2.541,2.86485,2.86485,0,0,0-3.8272-1.2539,3.25543,3.25543,0,0,0-1.8881,1.9346,3.44409,3.44409,0,0,1,1.3969-1.0362A2.86642,2.86642,0,0,1,99.21242,123.0952Z"/></g><path class="cls-43" d="M102.73782,127.5552A63.634,63.634,0,0,0,126.06,20.1157S150.48972,77.6714,102.73782,127.5552Z"/></g><path id="Cloud" class="cls-1" d="M87.78472,110.4253a15.64207,15.64207,0,0,0-10.71,4.2246,15.50766,15.50766,0,0,0-8.0376-2.2324,15.665,15.665,0,0,0-3.1885.3281,25.62374,25.62374,0,0,0-46.1382,2.6514A15.57174,15.57174,0,0,0,.0898,132.0786H102.312a15.70021,15.70021,0,0,0-14.5273-21.6533Z"/></g></g></svg>