<svg xmlns="http://www.w3.org/2000/svg" viewBox="-20 0 140 50">
<path fill="#fff" d="M3.2 12h35.7v17.7H3.2z"></path>
<path fill="#d8292f" d="M35.8 18.3v7h-1.9v-7h-2.7v-1.8h7.3v1.8h-2.7zm-7.7 7l-2-3-2 3H22l3.1-4.5-2.9-4.3h2.3l1.8 2.8 1.9-2.8h2.2l-2.9 4.3 3.1 4.5h-2.5zm-7.2 0h-6.7v-8.8h6.6v1.7h-4.7V20h4.1v1.7h-4.1v1.8h4.8v1.8zm-8.8 0h-1.6l-4.2-5.6v5.6H4.4v-8.8h1.8l4.1 5.4v-5.4h1.9v8.8zM21 0C9.7 0 .4 9.2.4 20.6.4 32 9.6 41.2 21 41.2c11.4 0 20.6-9.2 20.6-20.6C41.6 9.2 32.4 0 21 0z"></path>
<path fill="#fff" d="M42.8 20.9c0-2.5 1.9-4.6 4.6-4.6 1.7 0 2.6.6 3.5 1.4l-1.2 1.4c-.7-.6-1.4-1-2.2-1-1.5 0-2.5 1.2-2.5 2.7 0 1.5 1 2.8 2.5 2.8 1 0 1.6-.4 2.3-1l1.2 1.2c-.9 1-1.9 1.6-3.6 1.6-2.7 0-4.6-2-4.6-4.5"></path>
<path fill="#fff" d="M55.5 16.5h1.8l3.8 8.8h-2l-.8-2h-3.7l-.8 2h-2l3.7-8.8zm2 5.1l-1.2-2.8-1.2 2.8h2.4z"></path>
<path fill="#fff" d="M62.3 16.5h1.8l4.1 5.4v-5.4h1.9v8.8h-1.6l-4.3-5.6v5.6h-1.9z"></path>
<path fill="#fff" d="M75.2 16.5H77l3.8 8.8h-2l-.8-2h-3.7l-.8 2h-2l3.7-8.8zm2.1 5.1l-1.2-2.8-1.2 2.8h2.4z"></path>
<path fill="#fff" d="M82.1 16.5h3.4c2.8 0 4.7 1.9 4.7 4.4 0 2.5-1.9 4.4-4.7 4.4h-3.4v-8.8zm3.4 7c1.6 0 2.6-1.1 2.6-2.6 0-1.6-1.1-2.6-2.6-2.6H84v5.3h1.5z"></path>
<path fill="#fff" d="M94.3 16.5H96l3.8 8.8h-2l-.8-2h-3.7l-.8 2h-2l3.8-8.8zm2 5.1l-1.2-2.8-1.1 2.8h2.3z"></path>
</svg>