<svg xmlns="http://www.w3.org/2000/svg" viewBox="0 0 241.14681 210.63137"><defs><style>.cls-1{fill:#fff;}.cls-2{opacity:0.3;}.cls-3{opacity:0;}.cls-4{opacity:0.01389;}.cls-5{opacity:0.02778;}.cls-6{opacity:0.04167;}.cls-7{opacity:0.05556;}.cls-8{opacity:0.06944;}.cls-9{opacity:0.08333;}.cls-10{opacity:0.09722;}.cls-11{opacity:0.11111;}.cls-12{opacity:0.125;}.cls-13{opacity:0.13889;}.cls-14{opacity:0.15278;}.cls-15{opacity:0.16667;}.cls-16{opacity:0.18056;}.cls-17{opacity:0.19444;}.cls-18{opacity:0.20833;}.cls-19{opacity:0.22222;}.cls-20{opacity:0.23611;}.cls-21{opacity:0.25;}.cls-22{opacity:0.26389;}.cls-23{opacity:0.27778;}.cls-24{opacity:0.29167;}.cls-25{opacity:0.30556;}.cls-26{opacity:0.31944;}.cls-27{opacity:0.33333;}.cls-28{opacity:0.34722;}.cls-29{opacity:0.36111;}.cls-30{opacity:0.375;}.cls-31{opacity:0.38889;}.cls-32{opacity:0.40278;}.cls-33{opacity:0.41667;}.cls-34{opacity:0.43056;}.cls-35{opacity:0.44444;}.cls-36{opacity:0.45833;}.cls-37{opacity:0.47222;}.cls-38{opacity:0.48611;}.cls-39{opacity:0.5;}.cls-40{opacity:0.51389;}.cls-41{opacity:0.52778;}.cls-42{opacity:0.54167;}.cls-43{opacity:0.55556;}.cls-44{opacity:0.56944;}.cls-45{opacity:0.58333;}.cls-46{opacity:0.59722;}.cls-47{opacity:0.61111;}.cls-48{opacity:0.625;}.cls-49{opacity:0.63889;}.cls-50{opacity:0.65278;}.cls-51{opacity:0.66667;}.cls-52{opacity:0.68056;}.cls-53{opacity:0.69444;}.cls-54{opacity:0.70833;}.cls-55{opacity:0.72222;}.cls-56{opacity:0.73611;}.cls-57{opacity:0.75;}.cls-58{opacity:0.76389;}.cls-59{opacity:0.77778;}.cls-60{opacity:0.79167;}.cls-61{opacity:0.80556;}.cls-62{opacity:0.81944;}.cls-63{opacity:0.83333;}.cls-64{opacity:0.84722;}.cls-65{opacity:0.86111;}.cls-66{opacity:0.875;}.cls-67{opacity:0.88889;}.cls-68{opacity:0.90278;}.cls-69{opacity:0.91667;}.cls-70{opacity:0.93056;}.cls-71{opacity:0.94444;}.cls-72{opacity:0.95833;}.cls-73{opacity:0.97222;}.cls-74{opacity:0.98611;}.cls-75{fill:#d2d3d4;}.cls-76{fill:#f15c4d;}.cls-77{fill:#9edbf0;}.cls-78{fill:#7cd0e0;}.cls-79{fill:#f1607f;}.cls-80{fill:#002c40;}.cls-81{fill:#d8f0fa;}</style></defs><title>Asset 15</title><g id="Layer_2" data-name="Layer 2"><g id="Info"><g id="Star"><path class="cls-1" d="M41.3481,122.2105a10.93722,10.93722,0,0,1-10.9375-10.937,10.93716,10.93716,0,0,1-10.9375,10.937,10.938,10.938,0,0,1,10.9375,10.938A10.938,10.938,0,0,1,41.3481,122.2105Z"/><path class="cls-1" d="M179.2075,49.8623A10.93812,10.93812,0,0,1,168.269,38.9248a10.9372,10.9372,0,0,1-10.9375,10.9375A10.93726,10.93726,0,0,1,168.269,60.7998,10.93818,10.93818,0,0,1,179.2075,49.8623Z"/><path class="cls-1" d="M36.3042,76.1529A18.15173,18.15173,0,0,1,18.1523,58.001,18.15207,18.15207,0,0,1,0,76.1529,18.152,18.152,0,0,1,18.1523,94.3047,18.15165,18.15165,0,0,1,36.3042,76.1529Z"/><path class="cls-1" d="M133.2251,10.9375A10.93726,10.93726,0,0,1,122.2876,0a10.9379,10.9379,0,0,1-10.9375,10.9375A10.938,10.938,0,0,1,122.2876,21.875,10.93733,10.93733,0,0,1,133.2251,10.9375Z"/></g><g class="cls-2"><g class="cls-3"><path d="M191.49358,139.37356l3.78351-10.42523,37.91974,13.76117,4.91309-13.53864-37.91925-13.76147,3.78345-10.425L166.03869,91.21731l.6698-1.8457-54.59521-19.8125-13.8194,38.08057,54.59534,19.813.67-1.84613.75378.27356v12.33966a6.60284,6.60284,0,0,0-2.48584,2.48584h-5.57526v6.43207l-17.55505,63.14313h6.81335l17.13831-61.95959a6.59753,6.59753,0,0,0,1.66449,1.34595v60.96423h6.47565V149.66751a6.60571,6.60571,0,0,0,1.8382-1.53717l17.1911,62.15045h6.82025l-17.78809-63.95911v-5.61609h-5.5755a6.60368,6.60368,0,0,0-2.486-2.48621v-9.9892Z"/><path d="M98.98388,86.34909l.00018-.00037-.00055.0014Zm12.94434-16.28021a4.14615,4.14615,0,0,0-2.47559-5.2959l-2.33154-.84619-7.923,21.83209,7.7428-21.38391s-3.22949.70514-10.5918,21.01221l-.00244.00592-.002.00592c-7.35443,20.29193-5.3363,22.91406-5.33313,22.91821l-.16046.44208,2.332.84619a4.14655,4.14655,0,0,0,5.2959-2.47614Z"/><path d="M239.71337,126.11428l-.43658-.1582-7.246,19.96783.43549.15857a1.93643,1.93643,0,0,0,2.542-.94531l6.04883-16.66736A1.93745,1.93745,0,0,0,239.71337,126.11428Z"/></g><g class="cls-4"><path d="M190.695,138.78328l3.78351-10.42523,37.91974,13.76117,4.91309-13.53864-37.91925-13.76147,3.78345-10.425L165.24008,90.627l.6698-1.8457-54.59521-19.8125L97.49526,107.0494l54.59534,19.813.67-1.84613.75378.27356v12.33966a6.60284,6.60284,0,0,0-2.48584,2.48584h-5.57526v6.43207l-17.55505,63.14313h6.81335l17.13831-61.95959a6.59754,6.59754,0,0,0,1.66449,1.34595V210.0411H159.99V149.07723a6.60571,6.60571,0,0,0,1.8382-1.53717l17.1911,62.15045h6.82025L168.05148,145.7314v-5.61609H162.476a6.60368,6.60368,0,0,0-2.486-2.48621v-9.9892Z"/><path d="M98.18527,85.75881l.00018-.00037-.00055.0014ZM111.1296,69.4786a4.14615,4.14615,0,0,0-2.47559-5.2959l-2.33154-.84619L98.3995,85.1686l7.7428-21.38391s-3.22949.70514-10.5918,21.01221l-.00244.00592-.002.00592c-7.35443,20.29193-5.3363,22.91406-5.33313,22.91821l-.16046.44208,2.332.84619a4.14655,4.14655,0,0,0,5.2959-2.47614Z"/><path d="M238.91476,125.524l-.43658-.1582-7.246,19.96783.43549.15857a1.93643,1.93643,0,0,0,2.542-.94531l6.04883-16.66736A1.93745,1.93745,0,0,0,238.91476,125.524Z"/></g><g class="cls-5"><path d="M189.89636,138.193l3.78351-10.42523,37.91974,13.76117,4.91309-13.53864-37.91925-13.76147,3.78345-10.425L164.44147,90.03676l.6698-1.8457-54.59521-19.8125-13.8194,38.08057,54.59534,19.813.67-1.84613.75378.27356V137.0392a6.60284,6.60284,0,0,0-2.48584,2.48584h-5.57526v6.43207l-17.55505,63.14313H133.913l17.13831-61.95959a6.59754,6.59754,0,0,0,1.66449,1.34595v60.96423h6.47565V148.487a6.60571,6.60571,0,0,0,1.8382-1.53717l17.1911,62.15045H185.041l-17.78809-63.95911V139.525h-5.5755a6.60368,6.60368,0,0,0-2.486-2.48621v-9.9892Z"/><path d="M97.38666,85.16853l.00018-.00037-.00055.0014ZM110.331,68.88832a4.14615,4.14615,0,0,0-2.47559-5.2959l-2.33154-.84619-7.923,21.83209,7.7428-21.38391s-3.22949.70514-10.5918,21.01221l-.00244.00592-.002.00592c-7.35443,20.29193-5.3363,22.91406-5.33313,22.91821l-.16046.44208,2.332.84619a4.14655,4.14655,0,0,0,5.2959-2.47614Z"/><path d="M238.11615,124.93373l-.43658-.1582-7.246,19.96783.43549.15857a1.93643,1.93643,0,0,0,2.542-.94531l6.04883-16.66736A1.93745,1.93745,0,0,0,238.11615,124.93373Z"/></g><g class="cls-6"><path d="M189.09775,137.60273l3.78351-10.42523L230.801,140.93867,235.71408,127.4l-37.91925-13.76147,3.78345-10.425L163.64285,89.44648l.6698-1.8457-54.59521-19.8125L95.898,105.86884l54.59534,19.813.67-1.84613.75378.27356v12.33966a6.60284,6.60284,0,0,0-2.48584,2.48584h-5.57526v6.43207L126.301,208.51h6.81335l17.13831-61.95959a6.59754,6.59754,0,0,0,1.66449,1.34595v60.96423h6.47565V147.89667a6.60571,6.60571,0,0,0,1.8382-1.53717L177.42209,208.51h6.82025l-17.78809-63.95911v-5.61609h-5.5755a6.60368,6.60368,0,0,0-2.486-2.48621v-9.9892Z"/><path d="M96.588,84.57825l.00018-.00037-.00055.0014ZM109.53238,68.298a4.14615,4.14615,0,0,0-2.47559-5.2959l-2.33154-.84619L96.80228,83.988l7.7428-21.38391s-3.22949.70514-10.5918,21.01221l-.00244.00592-.002.00592c-7.35443,20.29193-5.3363,22.91406-5.33313,22.91821l-.16046.44208,2.332.84619a4.14655,4.14655,0,0,0,5.2959-2.47614Z"/><path d="M237.31754,124.34345l-.43658-.1582-7.246,19.96783.43549.15857a1.93643,1.93643,0,0,0,2.542-.94531l6.04883-16.66736A1.93745,1.93745,0,0,0,237.31754,124.34345Z"/></g><g class="cls-7"><path d="M188.29914,137.01245l3.78351-10.42523,37.91974,13.76117,4.91309-13.53864-37.91925-13.76147,3.78345-10.425L162.84424,88.8562l.6698-1.8457L108.91883,67.198l-13.8194,38.08057,54.59534,19.813.67-1.84613.75378.27356v12.33966a6.60284,6.60284,0,0,0-2.48584,2.48584h-5.57526v6.43207l-17.55505,63.14313h6.81335L149.454,145.96008a6.59754,6.59754,0,0,0,1.66449,1.34595v60.96423h6.47565V147.3064a6.60571,6.60571,0,0,0,1.8382-1.53717l17.1911,62.15045h6.82025l-17.78809-63.95911v-5.61609h-5.5755a6.60368,6.60368,0,0,0-2.486-2.48621v-9.9892Z"/><path d="M95.78943,83.988l.00018-.00037-.00055.0014Zm12.94434-16.28021a4.14615,4.14615,0,0,0-2.47559-5.2959l-2.33154-.84619-7.923,21.83209,7.7428-21.38391s-3.22949.70514-10.5918,21.01221l-.00244.00592-.002.00592c-7.35443,20.29193-5.3363,22.91406-5.33313,22.91821l-.16046.44208,2.332.84619a4.14655,4.14655,0,0,0,5.2959-2.47614Z"/><path d="M236.51893,123.75317l-.43658-.1582-7.246,19.96783.43549.15857a1.93643,1.93643,0,0,0,2.542-.94531l6.04883-16.66736A1.93745,1.93745,0,0,0,236.51893,123.75317Z"/></g><g class="cls-8"><path d="M187.50053,136.42217l3.78351-10.42523,37.91974,13.76117,4.91309-13.53864L196.19761,112.458l3.78345-10.425L162.04563,88.26592l.6698-1.8457-54.59521-19.8125-13.8194,38.08057,54.59534,19.813.67-1.84613.75378.27356v12.33966a6.60284,6.60284,0,0,0-2.48584,2.48584h-5.57526v6.43207L124.70377,207.3294h6.81335l17.13831-61.95959a6.59753,6.59753,0,0,0,1.66449,1.34595V207.68h6.47565V146.71612a6.60571,6.60571,0,0,0,1.8382-1.53717l17.1911,62.15045h6.82025L164.857,143.37029V137.7542h-5.5755a6.60368,6.60368,0,0,0-2.486-2.48621v-9.9892Z"/><path d="M94.99082,83.3977l.00018-.00037-.00055.0014Zm12.94434-16.28021a4.14615,4.14615,0,0,0-2.47559-5.2959l-2.33154-.84619-7.923,21.83209,7.7428-21.38391s-3.22949.70514-10.5918,21.01221l-.00244.00592-.002.00592c-7.35443,20.29193-5.3363,22.91406-5.33313,22.91821l-.16046.44208,2.332.84619a4.14655,4.14655,0,0,0,5.2959-2.47614Z"/><path d="M235.72031,123.16289l-.43658-.1582-7.246,19.96783.43549.15857a1.93643,1.93643,0,0,0,2.542-.94531l6.04883-16.66736A1.93745,1.93745,0,0,0,235.72031,123.16289Z"/></g><g class="cls-9"><path d="M186.70192,135.83189l3.78351-10.42523,37.91974,13.76117,4.91309-13.53864L195.399,111.86772l3.78345-10.425L161.247,87.67564l.6698-1.8457-54.59521-19.8125L93.50221,104.098l54.59534,19.813.67-1.84613.75378.27356v12.33966a6.60284,6.60284,0,0,0-2.48584,2.48584h-5.57526V143.596l-17.55505,63.14313h6.81335l17.13831-61.95959a6.59754,6.59754,0,0,0,1.66449,1.34595v60.96423H155.997V146.12584a6.60571,6.60571,0,0,0,1.8382-1.53717l17.1911,62.15045h6.82025L164.05842,142.78v-5.61609h-5.5755a6.60368,6.60368,0,0,0-2.486-2.48621v-9.9892Z"/><path d="M94.19221,82.80742l.00018-.00037-.00055.0014Zm12.94434-16.28021a4.14615,4.14615,0,0,0-2.47559-5.2959l-2.33154-.84619-7.923,21.83209,7.7428-21.38391s-3.22949.70514-10.5918,21.01221l-.00244.00592-.002.00592c-7.35443,20.29193-5.3363,22.91406-5.33313,22.91821l-.16046.44208,2.332.84619a4.14655,4.14655,0,0,0,5.2959-2.47614Z"/><path d="M234.9217,122.57262l-.43658-.1582-7.246,19.96783.43549.15857a1.93643,1.93643,0,0,0,2.542-.94531l6.04883-16.66736A1.93745,1.93745,0,0,0,234.9217,122.57262Z"/></g><g class="cls-10"><path d="M185.9033,135.24162l3.78351-10.42523,37.91974,13.76117,4.91309-13.53864-37.91925-13.76147,3.78345-10.425L160.44841,87.08537l.6698-1.8457L106.523,65.42716,92.7036,103.50773l54.59534,19.813.67-1.84613.75378.27356v12.33966a6.60284,6.60284,0,0,0-2.48584,2.48584h-5.57526v6.43207l-17.55505,63.14313h6.81335l17.13831-61.95959a6.59754,6.59754,0,0,0,1.66449,1.34595v60.96423h6.47565V145.53556a6.60571,6.60571,0,0,0,1.8382-1.53717l17.1911,62.15045h6.82025l-17.78809-63.95911v-5.61609h-5.5755a6.60368,6.60368,0,0,0-2.486-2.48621v-9.9892Z"/><path d="M93.3936,82.21714l.00018-.00037-.00055.0014Zm12.94434-16.28021a4.14615,4.14615,0,0,0-2.47559-5.2959l-2.33154-.84619-7.923,21.83209,7.7428-21.38391s-3.22949.70514-10.5918,21.01221l-.00244.00592-.002.00592C83.4,101.559,85.41814,104.18113,85.42131,104.18528l-.16046.44208,2.332.84619a4.14655,4.14655,0,0,0,5.2959-2.47614Z"/><path d="M234.12309,121.98234l-.43658-.1582-7.246,19.96783.43549.15857a1.93643,1.93643,0,0,0,2.542-.94531l6.04883-16.66736A1.93745,1.93745,0,0,0,234.12309,121.98234Z"/></g><g class="cls-11"><path d="M185.10469,134.65134l3.78351-10.42523,37.91974,13.76117,4.91309-13.53864-37.91925-13.76147,3.78345-10.425L159.6498,86.49509l.6698-1.8457-54.59521-19.8125L91.905,102.91745l54.59534,19.813.67-1.84613.75378.27356v12.33966a6.60284,6.60284,0,0,0-2.48584,2.48584H139.863v6.43207l-17.55505,63.14313h6.81335L146.2596,143.599a6.59754,6.59754,0,0,0,1.66449,1.34595v60.96423h6.47565V144.94528a6.60571,6.60571,0,0,0,1.8382-1.53717l17.1911,62.15045h6.82025L162.4612,141.59946v-5.61609h-5.5755a6.60368,6.60368,0,0,0-2.486-2.48621V123.508Z"/><path d="M92.595,81.62686l.00018-.00037-.00055.0014Zm12.94434-16.28021a4.14615,4.14615,0,0,0-2.47559-5.2959l-2.33154-.84619-7.923,21.83209,7.7428-21.38391s-3.22949.70514-10.5918,21.01221l-.00244.00592-.002.00592c-7.35443,20.29193-5.3363,22.91406-5.33313,22.91821l-.16046.44208,2.332.84619a4.14655,4.14655,0,0,0,5.2959-2.47614Z"/><path d="M233.32448,121.39206l-.43658-.1582-7.246,19.96783.43549.15857a1.93643,1.93643,0,0,0,2.542-.94531l6.04883-16.66736A1.93745,1.93745,0,0,0,233.32448,121.39206Z"/></g><g class="cls-12"><path d="M184.30608,134.06106l3.78351-10.42523L226.00933,137.397l4.91309-13.53864-37.91925-13.76147,3.78345-10.425L158.85119,85.90481l.6698-1.8457-54.59521-19.8125-13.8194,38.08057,54.59534,19.813.67-1.84613.75378.27356v12.33966a6.60284,6.60284,0,0,0-2.48584,2.48584h-5.57526v6.43207l-17.55505,63.14313h6.81335L145.461,143.00869a6.59753,6.59753,0,0,0,1.66449,1.34595v60.96423h6.47565V144.355a6.60571,6.60571,0,0,0,1.8382-1.53717l17.1911,62.15045h6.82025l-17.78809-63.95911v-5.61609h-5.5755a6.60368,6.60368,0,0,0-2.486-2.48621v-9.9892Z"/><path d="M91.79638,81.03659l.00018-.00037-.00055.0014Zm12.94434-16.28021a4.14615,4.14615,0,0,0-2.47559-5.2959l-2.33154-.84619-7.923,21.83209,7.7428-21.38391s-3.22949.70514-10.5918,21.01221l-.00244.00592-.002.00592c-7.35443,20.29193-5.3363,22.91406-5.33313,22.91821l-.16046.44208,2.332.84619a4.14655,4.14655,0,0,0,5.2959-2.47614Z"/><path d="M232.52587,120.80178l-.43658-.1582-7.246,19.96783.43549.15857a1.93643,1.93643,0,0,0,2.542-.94531l6.04883-16.66736A1.93745,1.93745,0,0,0,232.52587,120.80178Z"/></g><g class="cls-13"><path d="M183.50747,133.47078l3.78351-10.42523,37.91974,13.76117,4.91309-13.53864-37.91925-13.76147,3.78345-10.425L158.05258,85.31453l.6698-1.8457-54.59521-19.8125L90.30776,101.7369l54.59534,19.813.67-1.84613.75378.27356V132.317a6.60284,6.60284,0,0,0-2.48584,2.48584h-5.57526v6.43207L120.71072,204.378h6.81335l17.13831-61.95959a6.59754,6.59754,0,0,0,1.66449,1.34595V204.7286h6.47565V143.76473a6.60571,6.60571,0,0,0,1.8382-1.53717l17.1911,62.15045h6.82025L160.864,140.4189v-5.61609h-5.5755a6.60368,6.60368,0,0,0-2.486-2.48621v-9.9892Z"/><path d="M90.99777,80.44631l.00018-.00037-.00055.0014ZM103.9421,64.1661a4.14615,4.14615,0,0,0-2.47559-5.2959L99.135,58.024,91.212,79.8561l7.7428-21.38391s-3.22949.70514-10.5918,21.01221l-.00244.00592-.002.00592c-7.35443,20.29193-5.3363,22.91406-5.33313,22.91821l-.16046.44208,2.332.84619a4.14655,4.14655,0,0,0,5.2959-2.47614Z"/><path d="M231.72726,120.21151l-.43658-.1582-7.246,19.96783.43549.15857a1.93643,1.93643,0,0,0,2.542-.94531L233.071,122.567A1.93745,1.93745,0,0,0,231.72726,120.21151Z"/></g><g class="cls-14"><path d="M182.70886,132.88051l3.78351-10.42523,37.91974,13.76117,4.91309-13.53864-37.91925-13.76147,3.78345-10.425L157.254,84.72426l.6698-1.8457-54.59521-19.8125-13.8194,38.08057,54.59534,19.813.67-1.84613.75378.27356V131.7267a6.60284,6.60284,0,0,0-2.48584,2.48584h-5.57526v6.43207l-17.55505,63.14313h6.81335l17.13831-61.95959a6.59754,6.59754,0,0,0,1.66449,1.34595v60.96423h6.47565V143.17445a6.60571,6.60571,0,0,0,1.8382-1.53717l17.1911,62.15045h6.82025l-17.78809-63.95911v-5.61609h-5.5755a6.60368,6.60368,0,0,0-2.486-2.48621v-9.9892Z"/><path d="M90.19916,79.856l.00018-.00037-.00055.0014Zm12.94434-16.28021a4.14615,4.14615,0,0,0-2.47559-5.2959l-2.33154-.84619-7.923,21.83209,7.7428-21.38391s-3.22949.70514-10.5918,21.01221L87.56195,78.9l-.002.00592c-7.35443,20.29193-5.3363,22.91406-5.33313,22.91821l-.16046.44208,2.332.84619a4.14655,4.14655,0,0,0,5.2959-2.47614Z"/><path d="M230.92865,119.62123l-.43658-.1582-7.246,19.96783.43549.15857a1.93643,1.93643,0,0,0,2.542-.94531l6.04883-16.66736A1.93745,1.93745,0,0,0,230.92865,119.62123Z"/></g><g class="cls-15"><path d="M181.91025,132.29023l3.78351-10.42523,37.91974,13.76117,4.91309-13.53864-37.91925-13.76147,3.78345-10.425L156.45535,84.134l.6698-1.8457-54.59521-19.8125-13.8194,38.08057,54.59534,19.813.67-1.84613.75378.27356v12.33966a6.60284,6.60284,0,0,0-2.48584,2.48584h-5.57526v6.43207L119.1135,203.19745h6.81335l17.13831-61.95959a6.59754,6.59754,0,0,0,1.66449,1.34595V203.548h6.47565V142.58417a6.60571,6.60571,0,0,0,1.8382-1.53717l17.1911,62.15045h6.82025l-17.78809-63.95911v-5.61609h-5.5755a6.60368,6.60368,0,0,0-2.486-2.48621v-9.9892Z"/><path d="M89.40054,79.26575l.00018-.00037-.00055.0014Zm12.94434-16.28021a4.14615,4.14615,0,0,0-2.47559-5.2959l-2.33154-.84619-7.923,21.83209,7.7428-21.38391s-3.22949.70514-10.5918,21.01221l-.00244.00592-.002.00592c-7.35443,20.29193-5.3363,22.91406-5.33313,22.91821l-.16046.44208,2.332.84619a4.14655,4.14655,0,0,0,5.2959-2.47614Z"/><path d="M230.13,119.031l-.43658-.1582-7.246,19.96783.43549.15857a1.93643,1.93643,0,0,0,2.542-.94531l6.04883-16.66736A1.93745,1.93745,0,0,0,230.13,119.031Z"/></g><g class="cls-16"><path d="M181.11164,131.69995l3.78351-10.42523,37.91974,13.76117,4.91309-13.53864-37.91925-13.76147,3.78345-10.425L155.65674,83.5437l.6698-1.8457L101.73133,61.8855,87.91193,99.96606l54.59534,19.813.67-1.84613.75378.27356v12.33966a6.60284,6.60284,0,0,0-2.48584,2.48584h-5.57526V139.464l-17.55505,63.14313h6.81335l17.13831-61.95959a6.59754,6.59754,0,0,0,1.66449,1.34595v60.96423h6.47565V141.9939a6.60571,6.60571,0,0,0,1.8382-1.53717l17.1911,62.15045h6.82025l-17.78809-63.95911V133.032h-5.5755a6.60368,6.60368,0,0,0-2.486-2.48621v-9.9892Z"/><path d="M88.60193,78.67547l.00018-.00037-.00055.0014Zm12.94434-16.28021a4.14615,4.14615,0,0,0-2.47559-5.2959l-2.33154-.84619-7.923,21.83209L96.559,56.70135s-3.22949.70514-10.5918,21.01221l-.00244.00592-.002.00592c-7.35443,20.29193-5.3363,22.91406-5.33313,22.91821l-.16046.44208,2.332.84619a4.14655,4.14655,0,0,0,5.2959-2.47614Z"/><path d="M229.33143,118.44067l-.43658-.1582-7.246,19.96783.43549.15857a1.93643,1.93643,0,0,0,2.542-.94531l6.04883-16.66736A1.93745,1.93745,0,0,0,229.33143,118.44067Z"/></g><g class="cls-17"><path d="M180.313,131.10967l3.78351-10.42523,37.91974,13.76117,4.91309-13.53864L189.01011,107.1455l3.78345-10.425L154.85813,82.95342l.6698-1.8457-54.59521-19.8125L87.11332,99.37579l54.59534,19.813.67-1.84613.75378.27356v12.33966a6.60284,6.60284,0,0,0-2.48584,2.48584h-5.57526v6.43207L117.51627,202.0169h6.81335l17.13831-61.95959a6.59753,6.59753,0,0,0,1.66449,1.34595v60.96423h6.47565V141.40362a6.60571,6.60571,0,0,0,1.8382-1.53717l17.1911,62.15045h6.82025l-17.78809-63.95911V132.4417H152.094a6.60368,6.60368,0,0,0-2.486-2.48621v-9.9892Z"/><path d="M87.80332,78.0852l.00018-.00037-.00055.0014ZM100.74766,61.805a4.14615,4.14615,0,0,0-2.47559-5.2959l-2.33154-.84619L88.01756,77.495l7.7428-21.38391s-3.22949.70514-10.5918,21.01221l-.00244.00592-.002.00592c-7.35443,20.29193-5.3363,22.91406-5.33313,22.91821l-.16046.44208,2.332.84619a4.14655,4.14655,0,0,0,5.2959-2.47614Z"/><path d="M228.53281,117.85039l-.43658-.1582-7.246,19.96783.43549.15857a1.93643,1.93643,0,0,0,2.542-.94531l6.04883-16.66736A1.93745,1.93745,0,0,0,228.53281,117.85039Z"/></g><g class="cls-18"><path d="M179.51442,130.51939l3.78351-10.42523,37.91974,13.76117,4.91309-13.53864L188.2115,106.55522l3.78345-10.425L154.05952,82.36314l.6698-1.8457-54.59521-19.8125L86.31471,98.78551,140.91,118.5985l.67-1.84613.75378.27356v12.33966a6.60284,6.60284,0,0,0-2.48584,2.48584h-5.57526v6.43207l-17.55505,63.14313H123.531L140.66932,139.467a6.59754,6.59754,0,0,0,1.66449,1.34595v60.96423h6.47565V140.81334a6.60571,6.60571,0,0,0,1.8382-1.53717l17.1911,62.15045H174.659l-17.78809-63.95911v-5.61609h-5.5755a6.60368,6.60368,0,0,0-2.486-2.48621V119.376Z"/><path d="M87.00471,77.49492l.00018-.00037-.00055.0014ZM99.949,61.21471a4.14615,4.14615,0,0,0-2.47559-5.2959l-2.33154-.84619-7.923,21.83209,7.7428-21.38391s-3.22949.70514-10.5918,21.01221l-.00244.00592-.002.00592c-7.35443,20.29193-5.3363,22.91406-5.33313,22.91821l-.16046.44208,2.332.84619a4.14655,4.14655,0,0,0,5.2959-2.47614Z"/><path d="M227.7342,117.26012l-.43658-.1582-7.246,19.96783.43549.15857a1.93643,1.93643,0,0,0,2.542-.94531l6.04883-16.66736A1.93745,1.93745,0,0,0,227.7342,117.26012Z"/></g><g class="cls-19"><path d="M178.7158,129.92912l3.78351-10.42523,37.91974,13.76117,4.91309-13.53864-37.91925-13.76147,3.78345-10.425L153.26091,81.77287l.6698-1.8457L99.33549,60.11466,85.5161,98.19523l54.59534,19.813.67-1.84613.75378.27356v12.33966a6.60284,6.60284,0,0,0-2.48584,2.48584h-5.57526v6.43207l-17.55505,63.14313h6.81335l17.13831-61.95959a6.59754,6.59754,0,0,0,1.66449,1.34595v60.96423h6.47565V140.22306a6.60571,6.60571,0,0,0,1.8382-1.53717l17.1911,62.15045h6.82025l-17.78809-63.95911v-5.61609h-5.5755a6.60368,6.60368,0,0,0-2.486-2.48621v-9.9892Z"/><path d="M86.2061,76.90464l.00018-.00037-.00055.0014ZM99.15044,60.62443a4.14615,4.14615,0,0,0-2.47559-5.2959l-2.33154-.84619-7.923,21.83209,7.7428-21.38391s-3.22949.70514-10.5918,21.01221l-.00244.00592-.002.00592c-7.35443,20.29193-5.3363,22.91406-5.33313,22.91821l-.16046.44208,2.332.84619a4.14655,4.14655,0,0,0,5.2959-2.47614Z"/><path d="M226.93559,116.66984l-.43658-.1582-7.246,19.96783.43549.15857a1.93643,1.93643,0,0,0,2.542-.94531l6.04883-16.66736A1.93745,1.93745,0,0,0,226.93559,116.66984Z"/></g><g class="cls-20"><path d="M177.91719,129.33884l3.78351-10.42523,37.91974,13.76117,4.91309-13.53864-37.91925-13.76147,3.78345-10.425L152.4623,81.18259l.6698-1.8457L98.53688,59.52439,84.71749,97.605l54.59534,19.813.67-1.84613.75378.27356V128.185a6.60284,6.60284,0,0,0-2.48584,2.48584h-5.57526v6.43207l-17.55505,63.14313h6.81335l17.13831-61.95959a6.59754,6.59754,0,0,0,1.66449,1.34595v60.96423h6.47565V139.63278a6.60571,6.60571,0,0,0,1.8382-1.53717l17.1911,62.15045h6.82025L155.2737,136.287v-5.61609h-5.5755a6.60368,6.60368,0,0,0-2.486-2.48621v-9.9892Z"/><path d="M85.40749,76.31436l.00018-.00037-.00055.0014ZM98.35183,60.03415a4.14615,4.14615,0,0,0-2.47559-5.2959l-2.33154-.84619-7.923,21.83209,7.7428-21.38391s-3.22949.70514-10.5918,21.01221l-.00244.00592-.002.00592C75.4139,95.65622,77.432,98.27835,77.4352,98.2825l-.16046.44208,2.332.84619a4.14655,4.14655,0,0,0,5.2959-2.47614Z"/><path d="M226.137,116.07956l-.43658-.1582-7.246,19.96783.43549.15857a1.93643,1.93643,0,0,0,2.542-.94531l6.04883-16.66736A1.93745,1.93745,0,0,0,226.137,116.07956Z"/></g><g class="cls-21"><path d="M177.11858,128.74856l3.78351-10.42523,37.91974,13.76117,4.91309-13.53864-37.91925-13.76147,3.78345-10.425L151.66369,80.59231l.6698-1.8457L97.73827,58.93411,83.91888,97.01467l54.59534,19.813.67-1.84613.75378.27356v12.33966a6.60284,6.60284,0,0,0-2.48584,2.48584h-5.57526v6.43207l-17.55505,63.14313h6.81335l17.13831-61.95959a6.59753,6.59753,0,0,0,1.66449,1.34595v60.96423h6.47565V139.04251a6.60571,6.60571,0,0,0,1.8382-1.53717l17.1911,62.15045h6.82025l-17.78809-63.95911v-5.61609h-5.5755a6.60368,6.60368,0,0,0-2.486-2.48621v-9.9892Z"/><path d="M84.60888,75.72409l.00018-.00037-.00055.0014ZM97.55321,59.44387a4.14615,4.14615,0,0,0-2.47559-5.2959l-2.33154-.84619-7.923,21.83209L92.56591,53.75s-3.22949.70514-10.5918,21.01221l-.00244.00592-.002.00592c-7.35443,20.29193-5.3363,22.91406-5.33313,22.91821l-.16046.44208,2.332.84619a4.14655,4.14655,0,0,0,5.2959-2.47614Z"/><path d="M225.33837,115.48928l-.43658-.1582-7.246,19.96783.43549.15857a1.93643,1.93643,0,0,0,2.542-.94531l6.04883-16.66736A1.93745,1.93745,0,0,0,225.33837,115.48928Z"/></g><g class="cls-22"><path d="M176.32,128.15828l3.78351-10.42523,37.91974,13.76117,4.91309-13.53864-37.91925-13.76147,3.78345-10.425L150.86508,80.002l.6698-1.8457L96.93966,58.34383,83.12026,96.4244l54.59534,19.813.67-1.84613.75378.27356v12.33966a6.60284,6.60284,0,0,0-2.48584,2.48584h-5.57526v6.43207l-17.55505,63.14313h6.81335l17.13831-61.95959a6.59754,6.59754,0,0,0,1.66449,1.34595V199.4161H145.615V138.45223a6.60571,6.60571,0,0,0,1.8382-1.53717l17.1911,62.15045h6.82025L153.67648,135.1064v-5.61609H148.101a6.60368,6.60368,0,0,0-2.486-2.48621v-9.9892Z"/><path d="M83.81027,75.13381l.00018-.00037-.00055.0014ZM96.7546,58.8536A4.14615,4.14615,0,0,0,94.279,53.5577l-2.33154-.84619L84.0245,74.5436l7.7428-21.38391s-3.22949.70514-10.5918,21.01221l-.00244.00592-.002.00592C73.81668,94.47567,75.8348,97.0978,75.838,97.10195l-.16046.44208,2.332.84619a4.14655,4.14655,0,0,0,5.2959-2.47614Z"/><path d="M224.53976,114.899l-.43658-.1582-7.246,19.96783.43549.15857a1.93643,1.93643,0,0,0,2.542-.94531l6.04883-16.66736A1.93745,1.93745,0,0,0,224.53976,114.899Z"/></g><g class="cls-23"><path d="M175.52136,127.568l3.78351-10.42523,37.91974,13.76117,4.91309-13.53864-37.91925-13.76147,3.78345-10.425L150.06647,79.41176l.6698-1.8457L96.14105,57.75355,82.32165,95.83412l54.59534,19.813.67-1.84613.75378.27356V126.4142A6.60284,6.60284,0,0,0,135.85492,128.9h-5.57526v6.43207l-17.55505,63.14313H119.538l17.13831-61.95959a6.59754,6.59754,0,0,0,1.66449,1.34595v60.96423h6.47565V137.862a6.60571,6.60571,0,0,0,1.8382-1.53717l17.1911,62.15045H170.666l-17.78809-63.95911V128.9h-5.5755a6.60368,6.60368,0,0,0-2.486-2.48621v-9.9892Z"/><path d="M83.01166,74.54353l.00018-.00037-.00055.0014ZM95.956,58.26332a4.14615,4.14615,0,0,0-2.47559-5.2959l-2.33154-.84619-7.923,21.83209,7.7428-21.38391s-3.22949.70514-10.5918,21.01221l-.00244.00592-.002.00592c-7.35443,20.29193-5.3363,22.91406-5.33313,22.91821l-.16046.44208,2.332.84619a4.14655,4.14655,0,0,0,5.2959-2.47614Z"/><path d="M223.74115,114.30873l-.43658-.1582-7.246,19.96783.43549.15857a1.93643,1.93643,0,0,0,2.542-.94531l6.04883-16.66736A1.93745,1.93745,0,0,0,223.74115,114.30873Z"/></g><g class="cls-24"><path d="M174.72275,126.97773l3.78351-10.42523L216.426,130.31367l4.91309-13.53864-37.91925-13.76147,3.78345-10.425L149.26785,78.82148l.6698-1.8457L95.34244,57.16327,81.523,95.24384l54.59534,19.813.67-1.84613.75378.27356v12.33966a6.60284,6.60284,0,0,0-2.48584,2.48584h-5.57526v6.43207L111.926,197.885h6.81335l17.13831-61.95959a6.59754,6.59754,0,0,0,1.66449,1.34595v60.96423h6.47565V137.27167a6.60571,6.60571,0,0,0,1.8382-1.53717l17.1911,62.15045h6.82025l-17.78809-63.95911v-5.61609h-5.5755a6.60368,6.60368,0,0,0-2.486-2.48621v-9.9892Z"/><path d="M82.213,73.95325l.00018-.00037-.00055.0014ZM95.15738,57.673a4.14615,4.14615,0,0,0-2.47559-5.2959L90.35025,51.531,82.42728,73.363l7.7428-21.38391s-3.22949.70514-10.5918,21.01221l-.00244.00592-.002.00592c-7.35443,20.29193-5.3363,22.91406-5.33313,22.91821l-.16046.44208,2.332.84619a4.14655,4.14655,0,0,0,5.2959-2.47614Z"/><path d="M222.94254,113.71845l-.43658-.1582-7.246,19.96783.43549.15857a1.93643,1.93643,0,0,0,2.542-.94531l6.04883-16.66736A1.93745,1.93745,0,0,0,222.94254,113.71845Z"/></g><g class="cls-25"><path d="M173.92414,126.38745l3.78351-10.42523,37.91974,13.76117,4.91309-13.53864-37.91925-13.76147,3.78345-10.425L148.46924,78.2312l.6698-1.8457L94.54383,56.573,80.72443,94.65356l54.59534,19.813.67-1.84613.75378.27356v12.33966a6.60284,6.60284,0,0,0-2.48584,2.48584h-5.57526v6.43207l-17.55505,63.14313h6.81335L135.079,135.33508a6.59754,6.59754,0,0,0,1.66449,1.34595v60.96423h6.47565V136.6814a6.60571,6.60571,0,0,0,1.8382-1.53717l17.1911,62.15045h6.82025l-17.78809-63.95911v-5.61609h-5.5755a6.60368,6.60368,0,0,0-2.486-2.48621v-9.9892Z"/><path d="M81.41443,73.363l.00018-.00037-.00055.0014ZM94.35877,57.08276a4.14615,4.14615,0,0,0-2.47559-5.2959l-2.33154-.84619-7.923,21.83209,7.7428-21.38391S86.142,52.094,78.77967,72.40106l-.00244.00592-.002.00592C71.42084,92.70483,73.439,95.327,73.44214,95.33111l-.16046.44208,2.332.84619a4.14655,4.14655,0,0,0,5.2959-2.47614Z"/><path d="M222.14393,113.12817l-.43658-.1582-7.246,19.96783.43549.15857a1.93643,1.93643,0,0,0,2.542-.94531l6.04883-16.66736A1.93745,1.93745,0,0,0,222.14393,113.12817Z"/></g><g class="cls-26"><path d="M173.12553,125.79717l3.78351-10.42523,37.91974,13.76117,4.91309-13.53864L181.82261,101.833l3.78345-10.425L147.67063,77.64092l.6698-1.8457L93.74522,55.98272,79.92582,94.06329l54.59534,19.813.67-1.84613.75378.27356v12.33966a6.60284,6.60284,0,0,0-2.48584,2.48584h-5.57526v6.43207L110.32877,196.7044h6.81335l17.13831-61.95959a6.59753,6.59753,0,0,0,1.66449,1.34595V197.055h6.47565V136.09112a6.60571,6.60571,0,0,0,1.8382-1.53717l17.1911,62.15045h6.82025L150.482,132.74529V127.1292h-5.5755a6.60368,6.60368,0,0,0-2.486-2.48621v-9.9892Z"/><path d="M80.61582,72.7727l.00018-.00037-.00055.0014ZM93.56016,56.49248a4.14615,4.14615,0,0,0-2.47559-5.2959L88.753,50.35039l-7.923,21.83209,7.7428-21.38391s-3.22949.70514-10.5918,21.01221l-.00244.00592-.002.00592c-7.35443,20.29193-5.3363,22.91406-5.33313,22.91821l-.16046.44208,2.332.84619a4.14655,4.14655,0,0,0,5.2959-2.47614Z"/><path d="M221.34531,112.53789l-.43658-.1582-7.246,19.96783.43549.15857a1.93643,1.93643,0,0,0,2.542-.94531l6.04883-16.66736A1.93745,1.93745,0,0,0,221.34531,112.53789Z"/></g><g class="cls-27"><path d="M172.32692,125.20689l3.78351-10.42523,37.91974,13.76117,4.91309-13.53864L181.024,101.24272l3.78345-10.425L146.872,77.05064l.6698-1.8457L92.94661,55.39244,79.12721,93.473l54.59534,19.813.67-1.84613.75378.27356v12.33966a6.60284,6.60284,0,0,0-2.48584,2.48584h-5.57526V132.971l-17.55505,63.14313h6.81335l17.13831-61.95959a6.59754,6.59754,0,0,0,1.66449,1.34595v60.96423H141.622V135.50084a6.60571,6.60571,0,0,0,1.8382-1.53717l17.1911,62.15045h6.82025L149.68342,132.155v-5.61609h-5.5755a6.60368,6.60368,0,0,0-2.486-2.48621v-9.9892Z"/><path d="M79.81721,72.18242l.00018-.00037-.00055.0014ZM92.76155,55.90221a4.14615,4.14615,0,0,0-2.47559-5.2959l-2.33154-.84619-7.923,21.83209,7.7428-21.38391s-3.22949.70514-10.5918,21.01221l-.00244.00592-.002.00592c-7.35443,20.29193-5.3363,22.91406-5.33313,22.91821l-.16046.44208,2.332.84619a4.14655,4.14655,0,0,0,5.2959-2.47614Z"/><path d="M220.5467,111.94762l-.43658-.1582-7.246,19.96783.43549.15857a1.93643,1.93643,0,0,0,2.542-.94531l6.04883-16.66736A1.93745,1.93745,0,0,0,220.5467,111.94762Z"/></g><g class="cls-28"><path d="M171.5283,124.61662l3.78351-10.42523,37.91974,13.76117,4.91309-13.53864-37.91925-13.76147,3.78345-10.425L146.07341,76.46037l.6698-1.8457L92.148,54.80216,78.3286,92.88273l54.59534,19.813.67-1.84613.75378.27356v12.33966a6.60284,6.60284,0,0,0-2.48584,2.48584h-5.57526v6.43207l-17.55505,63.14313h6.81335l17.13831-61.95959a6.59754,6.59754,0,0,0,1.66449,1.34595v60.96423h6.47565V134.91056a6.60571,6.60571,0,0,0,1.8382-1.53717l17.1911,62.15045h6.82025l-17.78809-63.95911v-5.61609h-5.5755a6.60368,6.60368,0,0,0-2.486-2.48621v-9.9892Z"/><path d="M79.0186,71.59214l.00018-.00037-.00055.0014ZM91.96294,55.31193a4.14615,4.14615,0,0,0-2.47559-5.2959l-2.33154-.84619-7.923,21.83209L86.97563,49.618s-3.22949.70514-10.5918,21.01221l-.00244.00592-.002.00592C69.025,90.934,71.04314,93.55613,71.04631,93.56028l-.16046.44208,2.332.84619a4.14655,4.14655,0,0,0,5.2959-2.47614Z"/><path d="M219.74809,111.35734l-.43658-.1582-7.246,19.96783.43549.15857a1.93643,1.93643,0,0,0,2.542-.94531l6.04883-16.66736A1.93745,1.93745,0,0,0,219.74809,111.35734Z"/></g><g class="cls-29"><path d="M170.72969,124.02634l3.78351-10.42523,37.91974,13.76117,4.91309-13.53864-37.91925-13.76147,3.78345-10.425L145.2748,75.87009l.6698-1.8457L91.34938,54.21189,77.53,92.29245l54.59534,19.813.67-1.84613.75378.27356v12.33966a6.60284,6.60284,0,0,0-2.48584,2.48584H125.488v6.43207l-17.55505,63.14313h6.81335L131.8846,132.974a6.59753,6.59753,0,0,0,1.66449,1.34595v60.96423h6.47565V134.32028a6.60571,6.60571,0,0,0,1.8382-1.53717l17.1911,62.15045h6.82025L148.0862,130.97446v-5.61609h-5.5755a6.60368,6.60368,0,0,0-2.486-2.48621V112.883Z"/><path d="M78.22,71.00186l.00018-.00037-.00055.0014ZM91.16433,54.72165a4.14615,4.14615,0,0,0-2.47559-5.2959l-2.33154-.84619-7.923,21.83209L86.177,49.02774s-3.22949.70514-10.5918,21.01221l-.00244.00592-.002.00592C68.2264,90.34372,70.24453,92.96585,70.2477,92.97l-.16046.44208,2.332.84619a4.14655,4.14655,0,0,0,5.2959-2.47614Z"/><path d="M218.94948,110.76706l-.43658-.1582-7.246,19.96783.43549.15857a1.93643,1.93643,0,0,0,2.542-.94531l6.04883-16.66736A1.93745,1.93745,0,0,0,218.94948,110.76706Z"/></g><g class="cls-30"><path d="M169.93108,123.43606l3.78351-10.42523L211.63433,126.772l4.91309-13.53864L178.62817,99.47189l3.78345-10.425L144.47619,75.27981l.6698-1.8457L90.55077,53.62161,76.73138,91.70217l54.59534,19.813.67-1.84613.75378.27356v12.33966a6.60284,6.60284,0,0,0-2.48584,2.48584h-5.57526v6.43207l-17.55505,63.14313h6.81335L131.086,132.38369a6.59753,6.59753,0,0,0,1.66449,1.34595v60.96423h6.47565V133.73a6.60571,6.60571,0,0,0,1.8382-1.53717l17.1911,62.15045h6.82025l-17.78809-63.95911v-5.61609h-5.5755a6.60368,6.60368,0,0,0-2.486-2.48621v-9.9892Z"/><path d="M77.42138,70.41159l.00018-.00037-.00055.0014ZM90.36571,54.13137a4.14615,4.14615,0,0,0-2.47559-5.2959l-2.33154-.84619-7.923,21.83209,7.7428-21.38391s-3.22949.70514-10.5918,21.01221l-.00244.00592-.002.00592c-7.35443,20.29193-5.3363,22.91406-5.33313,22.91821l-.16046.44208,2.332.84619a4.14655,4.14655,0,0,0,5.2959-2.47614Z"/><path d="M218.15087,110.17678l-.43658-.1582-7.246,19.96783.43549.15857a1.93643,1.93643,0,0,0,2.542-.94531l6.04883-16.66736A1.93745,1.93745,0,0,0,218.15087,110.17678Z"/></g><g class="cls-31"><path d="M169.13247,122.84578l3.78351-10.42523,37.91974,13.76117,4.91309-13.53864L177.82955,98.88161l3.78345-10.425L143.67758,74.68953l.6698-1.8457L89.75216,53.03133,75.93276,91.1119l54.59534,19.813.67-1.84613.75378.27356V121.692a6.60284,6.60284,0,0,0-2.48584,2.48584h-5.57526v6.43207L106.33572,193.753h6.81335l17.13831-61.95959a6.59754,6.59754,0,0,0,1.66449,1.34595V194.1036h6.47565V133.13973a6.60571,6.60571,0,0,0,1.8382-1.53717l17.1911,62.15045h6.82025L146.489,129.7939v-5.61609h-5.5755a6.60368,6.60368,0,0,0-2.486-2.48621v-9.9892Z"/><path d="M76.62277,69.82131l.00018-.00037-.00055.0014ZM89.5671,53.5411a4.14615,4.14615,0,0,0-2.47559-5.2959L84.76,47.399,76.837,69.2311l7.7428-21.38391s-3.22949.70514-10.5918,21.01221l-.00244.00592-.002.00592c-7.35443,20.29193-5.3363,22.91406-5.33313,22.91821l-.16046.44208,2.332.84619a4.14655,4.14655,0,0,0,5.2959-2.47614Z"/><path d="M217.35226,109.58651l-.43658-.1582-7.246,19.96783.43549.15857a1.93643,1.93643,0,0,0,2.542-.94531L218.696,111.942A1.93745,1.93745,0,0,0,217.35226,109.58651Z"/></g><g class="cls-32"><path d="M168.33386,122.25551l3.78351-10.42523,37.91974,13.76117,4.91309-13.53864L177.03094,98.29133l3.78345-10.425L142.879,74.09926l.6698-1.8457L88.95355,52.44105,75.13415,90.52162l54.59534,19.813.67-1.84613.75378.27356V121.1017a6.60284,6.60284,0,0,0-2.48584,2.48584h-5.57526v6.43207l-17.55505,63.14313h6.81335l17.13831-61.95959a6.59754,6.59754,0,0,0,1.66449,1.34595v60.96423h6.47565V132.54945a6.60571,6.60571,0,0,0,1.8382-1.53717l17.1911,62.15045h6.82025l-17.78809-63.95911v-5.61609h-5.5755a6.60368,6.60368,0,0,0-2.486-2.48621v-9.9892Z"/><path d="M75.82416,69.231l.00018-.00037-.00055.0014ZM88.76849,52.95082a4.14615,4.14615,0,0,0-2.47559-5.2959l-2.33154-.84619-7.923,21.83209,7.7428-21.38391s-3.22949.70514-10.5918,21.01221l-.00244.00592-.002.00592c-7.35443,20.29193-5.3363,22.91406-5.33313,22.91821l-.16046.44208,2.332.84619a4.14655,4.14655,0,0,0,5.2959-2.47614Z"/><path d="M216.55365,108.99623l-.43658-.1582-7.246,19.96783.43549.15857a1.93643,1.93643,0,0,0,2.542-.94531l6.04883-16.66736A1.93745,1.93745,0,0,0,216.55365,108.99623Z"/></g><g class="cls-33"><path d="M167.53525,121.66523,171.31876,111.24l37.91974,13.76117,4.91309-13.53864L176.23233,97.70106l3.78345-10.425L142.08035,73.509l.6698-1.8457L88.15494,51.85077,74.33554,89.93134l54.59534,19.813.67-1.84613.75378.27356v12.33966a6.60284,6.60284,0,0,0-2.48584,2.48584h-5.57526v6.43207L104.7385,192.57245h6.81335l17.13831-61.95959a6.59753,6.59753,0,0,0,1.66449,1.34595V192.923h6.47565V131.95917a6.60571,6.60571,0,0,0,1.8382-1.53717l17.1911,62.15045h6.82025l-17.78809-63.95911v-5.61609h-5.5755a6.60368,6.60368,0,0,0-2.486-2.48621v-9.9892Z"/><path d="M75.02554,68.64075l.00018-.00037-.00055.0014ZM87.96988,52.36054a4.14615,4.14615,0,0,0-2.47559-5.2959l-2.33154-.84619-7.923,21.83209,7.7428-21.38391s-3.22949.70514-10.5918,21.01221l-.00244.00592-.002.00592c-7.35443,20.29193-5.3363,22.91406-5.33313,22.91821l-.16046.44208,2.332.84619a4.14655,4.14655,0,0,0,5.2959-2.47614Z"/><path d="M215.755,108.406l-.43658-.1582-7.246,19.96783.43549.15857a1.93643,1.93643,0,0,0,2.542-.94531l6.04883-16.66736A1.93745,1.93745,0,0,0,215.755,108.406Z"/></g><g class="cls-34"><path d="M166.73664,121.07495l3.78351-10.42523,37.91974,13.76117,4.91309-13.53864L175.43372,97.11078l3.78345-10.425L141.28174,72.9187l.6698-1.8457L87.35633,51.2605,73.53693,89.34106l54.59534,19.813.67-1.84613.75378.27356v12.33966a6.60284,6.60284,0,0,0-2.48584,2.48584h-5.57526V128.839l-17.55505,63.14313h6.81335l17.13831-61.95959a6.59754,6.59754,0,0,0,1.66449,1.34595v60.96423h6.47565V131.3689a6.60571,6.60571,0,0,0,1.8382-1.53717l17.1911,62.15045h6.82025l-17.78809-63.95911V122.407h-5.5755a6.60368,6.60368,0,0,0-2.486-2.48621v-9.9892Z"/><path d="M74.22693,68.05047l.00018-.00037-.00055.0014ZM87.17127,51.77026a4.14615,4.14615,0,0,0-2.47559-5.2959l-2.33154-.84619-7.923,21.83209L82.184,46.07635s-3.22949.70514-10.5918,21.01221l-.00244.00592-.002.00592c-7.35443,20.29193-5.3363,22.91406-5.33313,22.91821l-.16046.44208,2.332.84619a4.14655,4.14655,0,0,0,5.2959-2.47614Z"/><path d="M214.95643,107.81567l-.43658-.1582-7.246,19.96783.43549.15857a1.93643,1.93643,0,0,0,2.542-.94531l6.04883-16.66736A1.93745,1.93745,0,0,0,214.95643,107.81567Z"/></g><g class="cls-35"><path d="M165.938,120.48467l3.78351-10.42523,37.91974,13.76117,4.91309-13.53864L174.63511,96.5205l3.78345-10.425L140.48313,72.32842l.6698-1.8457L86.55772,50.67022,72.73832,88.75079l54.59534,19.813.67-1.84613.75378.27356v12.33966a6.60284,6.60284,0,0,0-2.48584,2.48584h-5.57526v6.43207L103.14127,191.3919h6.81335l17.13831-61.95959a6.59753,6.59753,0,0,0,1.66449,1.34595v60.96423h6.47565V130.77862a6.60571,6.60571,0,0,0,1.8382-1.53717l17.1911,62.15045h6.82025l-17.78809-63.95911V121.8167H137.719a6.60368,6.60368,0,0,0-2.486-2.48621v-9.9892Z"/><path d="M73.42832,67.4602l.00018-.00037-.00055.0014ZM86.37266,51.18a4.14615,4.14615,0,0,0-2.47559-5.2959l-2.33154-.84619L73.64256,66.87l7.7428-21.38391s-3.22949.70514-10.5918,21.01221l-.00244.00592-.002.00592c-7.35443,20.29193-5.3363,22.91406-5.33313,22.91821l-.16046.44208,2.332.84619a4.14655,4.14655,0,0,0,5.2959-2.47614Z"/><path d="M214.15781,107.22539l-.43658-.1582-7.246,19.96783.43549.15857a1.93643,1.93643,0,0,0,2.542-.94531l6.04883-16.66736A1.93745,1.93745,0,0,0,214.15781,107.22539Z"/></g><g class="cls-36"><path d="M165.13942,119.89439l3.78351-10.42523,37.91974,13.76117,4.91309-13.53864L173.8365,95.93022l3.78345-10.425L139.68452,71.73814l.6698-1.8457L85.75911,50.07994,71.93971,88.16051l54.59534,19.813.67-1.84613.75378.27356v12.33966a6.60284,6.60284,0,0,0-2.48584,2.48584h-5.57526v6.43207l-17.55505,63.14313H109.156L126.29432,128.842a6.59754,6.59754,0,0,0,1.66449,1.34595v60.96423h6.47565V130.18834a6.60571,6.60571,0,0,0,1.8382-1.53717l17.1911,62.15045H160.284l-17.78809-63.95911v-5.61609h-5.5755a6.60368,6.60368,0,0,0-2.486-2.48621V108.751Z"/><path d="M72.62971,66.86992l.00018-.00037-.00055.0014ZM85.574,50.58971a4.14615,4.14615,0,0,0-2.47559-5.2959l-2.33154-.84619-7.923,21.83209,7.7428-21.38391s-3.22949.70514-10.5918,21.01221l-.00244.00592-.002.00592c-7.35443,20.29193-5.3363,22.91406-5.33313,22.91821l-.16046.44208,2.332.84619a4.14655,4.14655,0,0,0,5.2959-2.47614Z"/><path d="M213.3592,106.63512l-.43658-.1582-7.246,19.96783.43549.15857a1.93643,1.93643,0,0,0,2.542-.94531l6.04883-16.66736A1.93745,1.93745,0,0,0,213.3592,106.63512Z"/></g><g class="cls-37"><path d="M164.3408,119.30412l3.78351-10.42523,37.91974,13.76117,4.91309-13.53864L173.03789,95.33994l3.78345-10.425L138.88591,71.14787l.6698-1.8457L84.96049,49.48966,71.1411,87.57023l54.59534,19.813.67-1.84613.75378.27356v12.33966a6.60284,6.60284,0,0,0-2.48584,2.48584h-5.57526v6.43207l-17.55505,63.14313h6.81335l17.13831-61.95959a6.59754,6.59754,0,0,0,1.66449,1.34595v60.96423h6.47565V129.59806a6.60571,6.60571,0,0,0,1.8382-1.53717l17.1911,62.15045h6.82025l-17.78809-63.95911v-5.61609h-5.5755a6.60368,6.60368,0,0,0-2.486-2.48621v-9.9892Z"/><path d="M71.8311,66.27964l.00018-.00037-.00055.0014ZM84.77544,49.99943a4.14615,4.14615,0,0,0-2.47559-5.2959l-2.33154-.84619-7.923,21.83209,7.7428-21.38391s-3.22949.70514-10.5918,21.01221l-.00244.00592-.002.00592c-7.35443,20.29193-5.3363,22.91406-5.33313,22.91821l-.16046.44208,2.332.84619a4.14655,4.14655,0,0,0,5.2959-2.47614Z"/><path d="M212.56059,106.04484l-.43658-.1582-7.246,19.96783.43549.15857a1.93643,1.93643,0,0,0,2.542-.94531l6.04883-16.66736A1.93745,1.93745,0,0,0,212.56059,106.04484Z"/></g><g class="cls-38"><path d="M163.54219,118.71384l3.78351-10.42523,37.91974,13.76117,4.91309-13.53864L172.23928,94.74967l3.78345-10.425L138.0873,70.55759l.6698-1.8457L84.16188,48.89939,70.34249,86.98l54.59534,19.813.67-1.84613.75378.27356V117.56a6.60284,6.60284,0,0,0-2.48584,2.48584h-5.57526v6.43207l-17.55505,63.14313h6.81335l17.13831-61.95959a6.59753,6.59753,0,0,0,1.66449,1.34595v60.96423h6.47565V129.00778a6.60571,6.60571,0,0,0,1.8382-1.53717l17.1911,62.15045h6.82025L140.8987,125.662v-5.61609h-5.5755a6.60368,6.60368,0,0,0-2.486-2.48621v-9.9892Z"/><path d="M71.03249,65.68936l.00018-.00037-.00055.0014ZM83.97683,49.40915a4.14615,4.14615,0,0,0-2.47559-5.2959l-2.33154-.84619-7.923,21.83209,7.7428-21.38391s-3.22949.70514-10.5918,21.01221l-.00244.00592-.002.00592C61.0389,85.03122,63.057,87.65335,63.0602,87.6575l-.16046.44208,2.332.84619a4.14655,4.14655,0,0,0,5.2959-2.47614Z"/><path d="M211.762,105.45456l-.43658-.1582-7.246,19.96783.43549.15857a1.93643,1.93643,0,0,0,2.542-.94531l6.04883-16.66736A1.93745,1.93745,0,0,0,211.762,105.45456Z"/></g><g class="cls-39"><path d="M162.74358,118.12356l3.78351-10.42523,37.91974,13.76117,4.91309-13.53864L171.44067,94.15939l3.78345-10.425L137.28869,69.96731l.6698-1.8457L83.36327,48.30911,69.54388,86.38967l54.59534,19.813.67-1.84613.75378.27356v12.33966a6.60284,6.60284,0,0,0-2.48584,2.48584h-5.57526v6.43207L99.94683,189.03079h6.81335l17.13831-61.95959a6.59753,6.59753,0,0,0,1.66449,1.34595v60.96423h6.47565V128.41751a6.60571,6.60571,0,0,0,1.8382-1.53717l17.1911,62.15045h6.82025l-17.78809-63.95911v-5.61609h-5.5755a6.60368,6.60368,0,0,0-2.486-2.48621v-9.9892Z"/><path d="M70.23388,65.09909l.00018-.00037-.00055.0014ZM83.17821,48.81887a4.14615,4.14615,0,0,0-2.47559-5.2959l-2.33154-.84619-7.923,21.83209L78.19091,43.125s-3.22949.70514-10.5918,21.01221l-.00244.00592-.002.00592c-7.35443,20.29193-5.3363,22.91406-5.33313,22.91821l-.16046.44208,2.332.84619a4.14655,4.14655,0,0,0,5.2959-2.47614Z"/><path d="M210.96337,104.86428l-.43658-.1582-7.246,19.96783.43549.15857a1.93643,1.93643,0,0,0,2.542-.94531l6.04883-16.66736A1.93745,1.93745,0,0,0,210.96337,104.86428Z"/></g><g class="cls-40"><path d="M161.945,117.53328l3.78351-10.42523,37.91974,13.76117,4.91309-13.53864L170.64205,93.56911l3.78345-10.425L136.49008,69.377l.6698-1.8457L82.56466,47.71883,68.74526,85.7994l54.59534,19.813.67-1.84613.75378.27356v12.33966a6.60284,6.60284,0,0,0-2.48584,2.48584h-5.57526v6.43207L99.14822,188.44051h6.81335l17.13831-61.95959a6.59754,6.59754,0,0,0,1.66449,1.34595V188.7911H131.24V127.82723a6.60571,6.60571,0,0,0,1.8382-1.53717l17.1911,62.15045h6.82025L139.30148,124.4814v-5.61609H133.726a6.60368,6.60368,0,0,0-2.486-2.48621v-9.9892Z"/><path d="M69.43527,64.50881l.00018-.00037-.00055.0014ZM82.3796,48.2286A4.14615,4.14615,0,0,0,79.904,42.9327l-2.33154-.84619L69.6495,63.9186l7.7428-21.38391s-3.22949.70514-10.5918,21.01221l-.00244.00592-.002.00592C59.44168,83.85067,61.4598,86.4728,61.463,86.47695l-.16046.44208,2.332.84619a4.14655,4.14655,0,0,0,5.2959-2.47614Z"/><path d="M210.16476,104.274l-.43658-.1582-7.246,19.96783.43549.15857a1.93643,1.93643,0,0,0,2.542-.94531l6.04883-16.66736A1.93745,1.93745,0,0,0,210.16476,104.274Z"/></g><g class="cls-41"><path d="M161.14636,116.943l3.78351-10.42523,37.91974,13.76117,4.91309-13.53864L169.84344,92.97883l3.78345-10.425L135.69147,68.78676l.6698-1.8457L81.76605,47.12855,67.94665,85.20912l54.59534,19.813.67-1.84613.75378.27356V115.7892a6.60284,6.60284,0,0,0-2.48584,2.48584h-5.57526v6.43207L98.34961,187.85023H105.163l17.13831-61.95959a6.59754,6.59754,0,0,0,1.66449,1.34595v60.96423h6.47565V127.237a6.60571,6.60571,0,0,0,1.8382-1.53717l17.1911,62.15045H156.291l-17.78809-63.95911V118.275h-5.5755a6.60368,6.60368,0,0,0-2.486-2.48621v-9.9892Z"/><path d="M68.63666,63.91853l.00018-.00037-.00055.0014ZM81.581,47.63832a4.14615,4.14615,0,0,0-2.47559-5.2959l-2.33154-.84619-7.923,21.83209,7.7428-21.38391s-3.22949.70514-10.5918,21.01221l-.00244.00592-.002.00592c-7.35443,20.29193-5.3363,22.91406-5.33313,22.91821l-.16046.44208,2.332.84619a4.14655,4.14655,0,0,0,5.2959-2.47614Z"/><path d="M209.36615,103.68373l-.43658-.1582-7.246,19.96783.43549.15857a1.93643,1.93643,0,0,0,2.542-.94531l6.04883-16.66736A1.93745,1.93745,0,0,0,209.36615,103.68373Z"/></g><g class="cls-42"><path d="M160.34775,116.35273l3.78351-10.42523L202.051,119.68867,206.96408,106.15,169.04483,92.38856l3.78345-10.425L134.89285,68.19648l.6698-1.8457L80.96744,46.53827,67.148,84.61884l54.59534,19.813.67-1.84613.75378.27356v12.33966a6.60284,6.60284,0,0,0-2.48584,2.48584h-5.57526v6.43207L97.551,187.26h6.81335l17.13831-61.95959a6.59753,6.59753,0,0,0,1.66449,1.34595v60.96423h6.47565V126.64667a6.60571,6.60571,0,0,0,1.8382-1.53717L148.67209,187.26h6.82025l-17.78809-63.95911v-5.61609h-5.5755a6.60368,6.60368,0,0,0-2.486-2.48621v-9.9892Z"/><path d="M67.838,63.32825l.00018-.00037-.00055.0014ZM80.78238,47.048a4.14615,4.14615,0,0,0-2.47559-5.2959L75.97525,40.906,68.05228,62.738l7.7428-21.38391s-3.22949.70514-10.5918,21.01221l-.00244.00592-.002.00592c-7.35443,20.29193-5.3363,22.91406-5.33313,22.91821l-.16046.44208,2.332.84619a4.14655,4.14655,0,0,0,5.2959-2.47614Z"/><path d="M208.56754,103.09345l-.43658-.1582-7.246,19.96783.43549.15857a1.93643,1.93643,0,0,0,2.542-.94531l6.04883-16.66736A1.93745,1.93745,0,0,0,208.56754,103.09345Z"/></g><g class="cls-43"><path d="M159.54914,115.76245l3.78351-10.42523,37.91974,13.76117,4.91309-13.53864L168.24622,91.79828l3.78345-10.425L134.09424,67.6062l.6698-1.8457L80.16883,45.948,66.34943,84.02856l54.59534,19.813.67-1.84613.75378.27356v12.33966a6.60284,6.60284,0,0,0-2.48584,2.48584h-5.57526v6.43207L96.75239,186.66968h6.81335L120.704,124.71008a6.59754,6.59754,0,0,0,1.66449,1.34595v60.96423h6.47565V126.0564a6.60571,6.60571,0,0,0,1.8382-1.53717l17.1911,62.15045h6.82025l-17.78809-63.95911v-5.61609h-5.5755a6.60368,6.60368,0,0,0-2.486-2.48621v-9.9892Z"/><path d="M67.03943,62.738l.00018-.00037-.00055.0014ZM79.98377,46.45776a4.14615,4.14615,0,0,0-2.47559-5.2959l-2.33154-.84619-7.923,21.83209,7.7428-21.38391S71.767,41.469,64.40467,61.77606l-.00244.00592-.002.00592C57.04584,82.07983,59.064,84.702,59.06714,84.70611l-.16046.44208,2.332.84619a4.14655,4.14655,0,0,0,5.2959-2.47614Z"/><path d="M207.76893,102.50317l-.43658-.1582-7.246,19.96783.43549.15857a1.93643,1.93643,0,0,0,2.542-.94531l6.04883-16.66736A1.93745,1.93745,0,0,0,207.76893,102.50317Z"/></g><g class="cls-44"><path d="M158.75053,115.17217l3.78351-10.42523,37.91974,13.76117,4.91309-13.53864L167.44761,91.208l3.78345-10.425L133.29563,67.01592l.6698-1.8457L79.37022,45.35772,65.55082,83.43829l54.59534,19.813.67-1.84613.75378.27356v12.33966a6.60284,6.60284,0,0,0-2.48584,2.48584h-5.57526v6.43207L95.95377,186.0794h6.81335l17.13831-61.95959a6.59754,6.59754,0,0,0,1.66449,1.34595V186.43h6.47565V125.46612a6.60571,6.60571,0,0,0,1.8382-1.53717l17.1911,62.15045h6.82025L136.107,122.12029V116.5042h-5.5755a6.60368,6.60368,0,0,0-2.486-2.48621v-9.9892Z"/><path d="M66.24082,62.1477l.00018-.00037-.00055.0014ZM79.18516,45.86748a4.14615,4.14615,0,0,0-2.47559-5.2959L74.378,39.72539l-7.923,21.83209,7.7428-21.38391s-3.22949.70514-10.5918,21.01221l-.00244.00592-.002.00592c-7.35443,20.29193-5.3363,22.91406-5.33313,22.91821l-.16046.44208,2.332.84619a4.14655,4.14655,0,0,0,5.2959-2.47614Z"/><path d="M206.97031,101.91289l-.43658-.1582-7.246,19.96783.43549.15857a1.93643,1.93643,0,0,0,2.542-.94531l6.04883-16.66736A1.93745,1.93745,0,0,0,206.97031,101.91289Z"/></g><g class="cls-45"><path d="M157.95192,114.58189l3.78351-10.42523,37.91974,13.76117,4.91309-13.53864L166.649,90.61772l3.78345-10.425L132.497,66.42564l.6698-1.8457L78.57161,44.76744,64.75221,82.848l54.59534,19.813.67-1.84613.75378.27356v12.33966a6.60284,6.60284,0,0,0-2.48584,2.48584h-5.57526V122.346L95.15516,185.48912h6.81335l17.13831-61.95959a6.59754,6.59754,0,0,0,1.66449,1.34595v60.96423H127.247V124.87584a6.60571,6.60571,0,0,0,1.8382-1.53717l17.1911,62.15045h6.82025L135.30842,121.53v-5.61609h-5.5755a6.60368,6.60368,0,0,0-2.486-2.48621v-9.9892Z"/><path d="M65.44221,61.55742l.00018-.00037-.00055.0014ZM78.38655,45.27721a4.14615,4.14615,0,0,0-2.47559-5.2959l-2.33154-.84619-7.923,21.83209,7.7428-21.38391s-3.22949.70514-10.5918,21.01221l-.00244.00592-.002.00592c-7.35443,20.29193-5.3363,22.91406-5.33313,22.91821l-.16046.44208,2.332.84619a4.14655,4.14655,0,0,0,5.2959-2.47614Z"/><path d="M206.1717,101.32262l-.43658-.1582-7.246,19.96783.43549.15857a1.93643,1.93643,0,0,0,2.542-.94531l6.04883-16.66736A1.93745,1.93745,0,0,0,206.1717,101.32262Z"/></g><g class="cls-46"><path d="M157.1533,113.99162l3.78351-10.42523,37.91974,13.76117,4.91309-13.53864L165.85039,90.02744l3.78345-10.425L131.69841,65.83537l.6698-1.8457L77.773,44.17716,63.9536,82.25773l54.59534,19.813.67-1.84613.75378.27356v12.33966a6.60284,6.60284,0,0,0-2.48584,2.48584h-5.57526v6.43207L94.35655,184.89884h6.81335l17.13831-61.95959a6.59754,6.59754,0,0,0,1.66449,1.34595v60.96423h6.47565V124.28556a6.60571,6.60571,0,0,0,1.8382-1.53717l17.1911,62.15045h6.82025l-17.78809-63.95911v-5.61609h-5.5755a6.60368,6.60368,0,0,0-2.486-2.48621v-9.9892Z"/><path d="M64.6436,60.96714l.00018-.00037-.00055.0014ZM77.58794,44.68693a4.14615,4.14615,0,0,0-2.47559-5.2959l-2.33154-.84619-7.923,21.83209L72.60063,38.993s-3.22949.70514-10.5918,21.01221l-.00244.00592-.002.00592C54.65,80.309,56.66814,82.93113,56.67131,82.93528l-.16046.44208,2.332.84619a4.14655,4.14655,0,0,0,5.2959-2.47614Z"/><path d="M205.37309,100.73234l-.43658-.1582-7.246,19.96783.43549.15857a1.93643,1.93643,0,0,0,2.542-.94531l6.04883-16.66736A1.93745,1.93745,0,0,0,205.37309,100.73234Z"/></g><g class="cls-47"><path d="M156.35469,113.40134l3.78351-10.42523,37.91974,13.76117,4.91309-13.53864L165.05178,89.43717l3.78345-10.425L130.8998,65.24509l.6698-1.8457L76.97438,43.58689,63.155,81.66745l54.59534,19.813.67-1.84613.75378.27356v12.33966a6.60284,6.60284,0,0,0-2.48584,2.48584H111.113v6.43207L93.55794,184.30857h6.81335L117.5096,122.349a6.59753,6.59753,0,0,0,1.66449,1.34595v60.96423h6.47565V123.69528a6.60571,6.60571,0,0,0,1.8382-1.53717l17.1911,62.15045h6.82025L133.7112,120.34946v-5.61609h-5.5755a6.60368,6.60368,0,0,0-2.486-2.48621V102.258Z"/><path d="M63.845,60.37686l.00018-.00037-.00055.0014ZM76.78933,44.09665a4.14615,4.14615,0,0,0-2.47559-5.2959l-2.33154-.84619-7.923,21.83209L71.802,38.40274s-3.22949.70514-10.5918,21.01221l-.00244.00592-.002.00592C53.8514,79.71872,55.86953,82.34085,55.8727,82.345l-.16046.44208,2.332.84619a4.14655,4.14655,0,0,0,5.2959-2.47614Z"/><path d="M204.57448,100.14206l-.43658-.1582-7.246,19.96783.43549.15857a1.93643,1.93643,0,0,0,2.542-.94531l6.04883-16.66736A1.93745,1.93745,0,0,0,204.57448,100.14206Z"/></g><g class="cls-48"><path d="M155.55608,112.81106l3.78351-10.42523L197.25933,116.147l4.91309-13.53864L164.25317,88.84689l3.78345-10.425L130.10119,64.65481l.6698-1.8457L76.17577,42.99661,62.35638,81.07717l54.59534,19.813.67-1.84613.75378.27356v12.33966a6.60284,6.60284,0,0,0-2.48584,2.48584h-5.57526v6.43207L92.75933,183.71829h6.81335L116.711,121.75869a6.59753,6.59753,0,0,0,1.66449,1.34595v60.96423h6.47565V123.105a6.60571,6.60571,0,0,0,1.8382-1.53717l17.1911,62.15045h6.82025l-17.78809-63.95911v-5.61609h-5.5755a6.60368,6.60368,0,0,0-2.486-2.48621v-9.9892Z"/><path d="M63.04638,59.78659l.00018-.00037-.00055.0014ZM75.99071,43.50637a4.14615,4.14615,0,0,0-2.47559-5.2959l-2.33154-.84619-7.923,21.83209,7.7428-21.38391s-3.22949.70514-10.5918,21.01221l-.00244.00592-.002.00592c-7.35443,20.29193-5.3363,22.91406-5.33313,22.91821l-.16046.44208,2.332.84619a4.14655,4.14655,0,0,0,5.2959-2.47614Z"/><path d="M203.77587,99.55178l-.43658-.1582-7.246,19.96783.43549.15857a1.93643,1.93643,0,0,0,2.542-.94531l6.04883-16.66736A1.93745,1.93745,0,0,0,203.77587,99.55178Z"/></g><g class="cls-49"><path d="M154.75747,112.22078l3.78351-10.42523,37.91974,13.76117,4.91309-13.53864L163.45455,88.25661l3.78345-10.425L129.30258,64.06453l.6698-1.8457L75.37716,42.40633,61.55776,80.4869l54.59534,19.813.67-1.84613.75378.27356V111.067a6.60284,6.60284,0,0,0-2.48584,2.48584h-5.57526v6.43207L91.96072,183.128h6.81335l17.13831-61.95959a6.59754,6.59754,0,0,0,1.66449,1.34595V183.4786h6.47565V122.51473a6.60571,6.60571,0,0,0,1.8382-1.53717l17.1911,62.15045h6.82025L132.114,119.1689v-5.61609h-5.5755a6.60368,6.60368,0,0,0-2.486-2.48621v-9.9892Z"/><path d="M62.24777,59.19631l.00018-.00037-.00055.0014ZM75.1921,42.9161a4.14615,4.14615,0,0,0-2.47559-5.2959L70.385,36.774,62.462,58.6061l7.7428-21.38391s-3.22949.70514-10.5918,21.01221l-.00244.00592-.002.00592c-7.35443,20.29193-5.3363,22.91406-5.33313,22.91821l-.16046.44208,2.332.84619a4.14655,4.14655,0,0,0,5.2959-2.47614Z"/><path d="M202.97726,98.96151l-.43658-.1582-7.246,19.96783.43549.15857a1.93643,1.93643,0,0,0,2.542-.94531L204.321,101.317A1.93745,1.93745,0,0,0,202.97726,98.96151Z"/></g><g class="cls-50"><path d="M153.95886,111.63051l3.78351-10.42523,37.91974,13.76117,4.91309-13.53864L162.65594,87.66633l3.78345-10.425L128.504,63.47426l.6698-1.8457L74.57855,41.81605,60.75915,79.89662l54.59534,19.813.67-1.84613.75378.27356V110.4767a6.60284,6.60284,0,0,0-2.48584,2.48584h-5.57526v6.43207L91.16211,182.53773h6.81335l17.13831-61.95959a6.59754,6.59754,0,0,0,1.66449,1.34595v60.96423h6.47565V121.92445a6.60571,6.60571,0,0,0,1.8382-1.53717l17.1911,62.15045h6.82025l-17.78809-63.95911v-5.61609h-5.5755a6.60368,6.60368,0,0,0-2.486-2.48621v-9.9892Z"/><path d="M61.44916,58.606l.00018-.00037-.00055.0014ZM74.39349,42.32582a4.14615,4.14615,0,0,0-2.47559-5.2959l-2.33154-.84619-7.923,21.83209,7.7428-21.38391s-3.22949.70514-10.5918,21.01221l-.00244.00592-.002.00592C51.45556,77.94789,53.47369,80.57,53.47687,80.57417l-.16046.44208,2.332.84619a4.14655,4.14655,0,0,0,5.2959-2.47614Z"/><path d="M202.17865,98.37123l-.43658-.1582-7.246,19.96783.43549.15857a1.93643,1.93643,0,0,0,2.542-.94531l6.04883-16.66736A1.93745,1.93745,0,0,0,202.17865,98.37123Z"/></g><g class="cls-51"><path d="M153.16025,111.04023l3.78351-10.42523,37.91974,13.76117,4.91309-13.53864L161.85733,87.07606l3.78345-10.425L127.70535,62.884l.6698-1.8457L73.77994,41.22577,59.96054,79.30634l54.59534,19.813.67-1.84613.75378.27356v12.33966a6.60284,6.60284,0,0,0-2.48584,2.48584h-5.57526v6.43207L90.3635,181.94745h6.81335l17.13831-61.95959a6.59753,6.59753,0,0,0,1.66449,1.34595V182.298h6.47565V121.33417a6.60571,6.60571,0,0,0,1.8382-1.53717l17.1911,62.15045h6.82025l-17.78809-63.95911v-5.61609h-5.5755a6.60368,6.60368,0,0,0-2.486-2.48621v-9.9892Z"/><path d="M60.65054,58.01575l.00018-.00037-.00055.0014ZM73.59488,41.73554a4.14615,4.14615,0,0,0-2.47559-5.2959l-2.33154-.84619-7.923,21.83209,7.7428-21.38391s-3.22949.70514-10.5918,21.01221l-.00244.00592-.002.00592c-7.35443,20.29193-5.3363,22.91406-5.33313,22.91821l-.16046.44208,2.332.84619a4.14655,4.14655,0,0,0,5.2959-2.47614Z"/><path d="M201.38,97.781l-.43658-.1582-7.246,19.96783.43549.15857a1.93643,1.93643,0,0,0,2.542-.94531l6.04883-16.66736A1.93745,1.93745,0,0,0,201.38,97.781Z"/></g><g class="cls-52"><path d="M152.36164,110.44995l3.78351-10.42523,37.91974,13.76117,4.91309-13.53864L161.05872,86.48578l3.78345-10.425L126.90674,62.2937l.6698-1.8457L72.98133,40.6355,59.16193,78.71606l54.59534,19.813.67-1.84613.75378.27356v12.33966a6.60284,6.60284,0,0,0-2.48584,2.48584h-5.57526V118.214L89.56489,181.35718h6.81335l17.13831-61.95959a6.59754,6.59754,0,0,0,1.66449,1.34595v60.96423h6.47565V120.7439a6.60571,6.60571,0,0,0,1.8382-1.53717l17.1911,62.15045h6.82025l-17.78809-63.95911V111.782h-5.5755a6.60368,6.60368,0,0,0-2.486-2.48621v-9.9892Z"/><path d="M59.85193,57.42547l.00018-.00037-.00055.0014ZM72.79627,41.14526a4.14615,4.14615,0,0,0-2.47559-5.2959l-2.33154-.84619-7.923,21.83209L67.809,35.45135s-3.22949.70514-10.5918,21.01221l-.00244.00592-.002.00592c-7.35443,20.29193-5.3363,22.91406-5.33313,22.91821l-.16046.44208,2.332.84619a4.14655,4.14655,0,0,0,5.2959-2.47614Z"/><path d="M200.58143,97.19067l-.43658-.1582-7.246,19.96783.43549.15857a1.93643,1.93643,0,0,0,2.542-.94531l6.04883-16.66736A1.93745,1.93745,0,0,0,200.58143,97.19067Z"/></g><g class="cls-53"><path d="M151.563,109.85967l3.78351-10.42523,37.91974,13.76117L198.17936,99.657,160.26011,85.8955l3.78345-10.425L126.10813,61.70342l.6698-1.8457L72.18272,40.04522,58.36332,78.12579l54.59534,19.813.67-1.84613.75378.27356v12.33966a6.60284,6.60284,0,0,0-2.48584,2.48584h-5.57526v6.43207L88.76627,180.7669h6.81335l17.13831-61.95959a6.59754,6.59754,0,0,0,1.66449,1.34595v60.96423h6.47565V120.15362a6.60571,6.60571,0,0,0,1.8382-1.53717l17.1911,62.15045h6.82025l-17.78809-63.95911V111.1917H123.344a6.60368,6.60368,0,0,0-2.486-2.48621V98.7163Z"/><path d="M59.05332,56.8352l.00018-.00037-.00055.0014ZM71.99766,40.555a4.14615,4.14615,0,0,0-2.47559-5.2959l-2.33154-.84619L59.26756,56.245l7.7428-21.38391s-3.22949.70514-10.5918,21.01221l-.00244.00592-.002.00592c-7.35443,20.29193-5.3363,22.91406-5.33313,22.91821l-.16046.44208,2.332.84619a4.14655,4.14655,0,0,0,5.2959-2.47614Z"/><path d="M199.78281,96.60039l-.43658-.1582-7.246,19.96783.43549.15857a1.93643,1.93643,0,0,0,2.542-.94531l6.04883-16.66736A1.93745,1.93745,0,0,0,199.78281,96.60039Z"/></g><g class="cls-54"><path d="M150.76442,109.26939l3.78351-10.42523,37.91974,13.76117,4.91309-13.53864L159.4615,85.30522l3.78345-10.425L125.30952,61.11314l.6698-1.8457L71.38411,39.45494,57.56471,77.53551,112.16,97.3485l.67-1.84613.75378.27356v12.33966a6.60284,6.60284,0,0,0-2.48584,2.48584h-5.57526v6.43207L87.96766,180.17662H94.781L111.91932,118.217a6.59754,6.59754,0,0,0,1.66449,1.34595v60.96423h6.47565V119.56334a6.60571,6.60571,0,0,0,1.8382-1.53717l17.1911,62.15045H145.909l-17.78809-63.95911v-5.61609h-5.5755a6.60368,6.60368,0,0,0-2.486-2.48621V98.126Z"/><path d="M58.25471,56.24492l.00018-.00037-.00055.0014ZM71.199,39.96471a4.14615,4.14615,0,0,0-2.47559-5.2959l-2.33154-.84619-7.923,21.83209,7.7428-21.38391s-3.22949.70514-10.5918,21.01221l-.00244.00592-.002.00592c-7.35443,20.29193-5.3363,22.91406-5.33313,22.91821l-.16046.44208,2.332.84619a4.14655,4.14655,0,0,0,5.2959-2.47614Z"/><path d="M198.9842,96.01012l-.43658-.1582-7.246,19.96783.43549.15857a1.93643,1.93643,0,0,0,2.542-.94531L200.328,98.36565A1.93745,1.93745,0,0,0,198.9842,96.01012Z"/></g><g class="cls-55"><path d="M149.9658,108.67912l3.78351-10.42523,37.91974,13.76117,4.91309-13.53864L158.66289,84.71494l3.78345-10.425L124.51091,60.52287l.6698-1.8457L70.58549,38.86466,56.7661,76.94523l54.59534,19.813.67-1.84613.75378.27356v12.33966a6.60284,6.60284,0,0,0-2.48584,2.48584h-5.57526v6.43207L87.16905,179.58634h6.81335l17.13831-61.95959a6.59754,6.59754,0,0,0,1.66449,1.34595v60.96423h6.47565V118.97306a6.60571,6.60571,0,0,0,1.8382-1.53717l17.1911,62.15045h6.82025l-17.78809-63.95911v-5.61609h-5.5755a6.60368,6.60368,0,0,0-2.486-2.48621v-9.9892Z"/><path d="M57.4561,55.65464l.00018-.00037-.00055.0014ZM70.40044,39.37443a4.14615,4.14615,0,0,0-2.47559-5.2959l-2.33154-.84619-7.923,21.83209,7.7428-21.38391s-3.22949.70514-10.5918,21.01221l-.00244.00592-.002.00592c-7.35443,20.29193-5.3363,22.91406-5.33313,22.91821l-.16046.44208,2.332.84619a4.14655,4.14655,0,0,0,5.2959-2.47614Z"/><path d="M198.18559,95.41984l-.43658-.1582-7.246,19.96783.43549.15857a1.93643,1.93643,0,0,0,2.542-.94531l6.04883-16.66736A1.93745,1.93745,0,0,0,198.18559,95.41984Z"/></g><g class="cls-56"><path d="M149.16719,108.08884l3.78351-10.42523,37.91974,13.76117,4.91309-13.53864L157.86428,84.12467l3.78345-10.425L123.7123,59.93259l.6698-1.8457L69.78688,38.27439,55.96749,76.355l54.59534,19.813.67-1.84613.75378.27356V106.935a6.60284,6.60284,0,0,0-2.48584,2.48584h-5.57526v6.43207L86.37044,178.99607H93.1838l17.13831-61.95959a6.59753,6.59753,0,0,0,1.66449,1.34595v60.96423h6.47565V118.38278a6.60571,6.60571,0,0,0,1.8382-1.53717l17.1911,62.15045h6.82025L126.5237,115.037v-5.61609h-5.5755a6.60368,6.60368,0,0,0-2.486-2.48621v-9.9892Z"/><path d="M56.65749,55.06436l.00018-.00037-.00055.0014ZM69.60183,38.78415a4.14615,4.14615,0,0,0-2.47559-5.2959l-2.33154-.84619-7.923,21.83209,7.7428-21.38391s-3.22949.70514-10.5918,21.01221l-.00244.00592-.002.00592C46.6639,74.40622,48.682,77.02835,48.6852,77.0325l-.16046.44208,2.332.84619a4.14655,4.14655,0,0,0,5.2959-2.47614Z"/><path d="M197.387,94.82956l-.43658-.1582-7.246,19.96783.43549.15857a1.93643,1.93643,0,0,0,2.542-.94531l6.04883-16.66736A1.93745,1.93745,0,0,0,197.387,94.82956Z"/></g><g class="cls-57"><path d="M148.36858,107.49856l3.78351-10.42523,37.91974,13.76117,4.91309-13.53864L157.06567,83.53439l3.78345-10.425L122.91369,59.34231l.6698-1.8457L68.98827,37.68411,55.16888,75.76467l54.59534,19.813.67-1.84613.75378.27356v12.33966a6.60284,6.60284,0,0,0-2.48584,2.48584h-5.57526v6.43207L85.57183,178.40579h6.81335l17.13831-61.95959a6.59753,6.59753,0,0,0,1.66449,1.34595v60.96423h6.47565V117.79251a6.60571,6.60571,0,0,0,1.8382-1.53717l17.1911,62.15045h6.82025l-17.78809-63.95911v-5.61609h-5.5755a6.60368,6.60368,0,0,0-2.486-2.48621v-9.9892Z"/><path d="M55.85888,54.47409l.00018-.00037-.00055.0014ZM68.80321,38.19387a4.14615,4.14615,0,0,0-2.47559-5.2959l-2.33154-.84619-7.923,21.83209L63.81591,32.5s-3.22949.70514-10.5918,21.01221l-.00244.00592-.002.00592c-7.35443,20.29193-5.3363,22.91406-5.33313,22.91821l-.16046.44208,2.332.84619a4.14655,4.14655,0,0,0,5.2959-2.47614Z"/><path d="M196.58837,94.23928l-.43658-.1582-7.246,19.96783.43549.15857a1.93643,1.93643,0,0,0,2.542-.94531l6.04883-16.66736A1.93745,1.93745,0,0,0,196.58837,94.23928Z"/></g><g class="cls-58"><path d="M147.57,106.90828l3.78351-10.42523,37.91974,13.76117,4.91309-13.53864L156.26705,82.94411l3.78345-10.425L122.11508,58.752l.6698-1.8457L68.18966,37.09383,54.37026,75.1744l54.59534,19.813.67-1.84613.75378.27356v12.33966a6.60284,6.60284,0,0,0-2.48584,2.48584h-5.57526v6.43207L84.77322,177.81551h6.81335l17.13831-61.95959a6.59754,6.59754,0,0,0,1.66449,1.34595V178.1661H116.865V117.20223a6.60571,6.60571,0,0,0,1.8382-1.53717l17.1911,62.15045h6.82025L124.92648,113.8564v-5.61609H119.351a6.60368,6.60368,0,0,0-2.486-2.48621v-9.9892Z"/><path d="M55.06027,53.88381l.00018-.00037-.00055.0014ZM68.0046,37.6036A4.14615,4.14615,0,0,0,65.529,32.3077l-2.33154-.84619L55.2745,53.2936l7.7428-21.38391s-3.22949.70514-10.5918,21.01221l-.00244.00592-.002.00592C45.06668,73.22567,47.0848,75.8478,47.088,75.85195l-.16046.44208,2.332.84619a4.14655,4.14655,0,0,0,5.2959-2.47614Z"/><path d="M195.78976,93.649l-.43658-.1582-7.246,19.96783.43549.15857a1.93643,1.93643,0,0,0,2.542-.94531l6.04883-16.66736A1.93745,1.93745,0,0,0,195.78976,93.649Z"/></g><g class="cls-59"><path d="M146.77136,106.318l3.78351-10.42523,37.91974,13.76117,4.91309-13.53864L155.46844,82.35383l3.78345-10.425L121.31647,58.16176l.6698-1.8457L67.39105,36.50355,53.57165,74.58412l54.59534,19.813.67-1.84613.75378.27356V105.1642a6.60284,6.60284,0,0,0-2.48584,2.48584h-5.57526v6.43207L83.97461,177.22523H90.788l17.13831-61.95959a6.59754,6.59754,0,0,0,1.66449,1.34595v60.96423h6.47565V116.612a6.60571,6.60571,0,0,0,1.8382-1.53717l17.1911,62.15045H141.916l-17.78809-63.95911V107.65h-5.5755a6.60368,6.60368,0,0,0-2.486-2.48621v-9.9892Z"/><path d="M54.26166,53.29353l.00018-.00037-.00055.0014ZM67.206,37.01332a4.14615,4.14615,0,0,0-2.47559-5.2959l-2.33154-.84619-7.923,21.83209,7.7428-21.38391s-3.22949.70514-10.5918,21.01221l-.00244.00592-.002.00592c-7.35443,20.29193-5.3363,22.91406-5.33313,22.91821l-.16046.44208,2.332.84619a4.14655,4.14655,0,0,0,5.2959-2.47614Z"/><path d="M194.99115,93.05873l-.43658-.1582-7.246,19.96783.43549.15857a1.93643,1.93643,0,0,0,2.542-.94531l6.04883-16.66736A1.93745,1.93745,0,0,0,194.99115,93.05873Z"/></g><g class="cls-60"><path d="M145.97275,105.72773l3.78351-10.42523L187.676,109.06367,192.58908,95.525,154.66983,81.76356l3.78345-10.425L120.51785,57.57148l.6698-1.8457L66.59244,35.91327,52.773,73.99384l54.59534,19.813.67-1.84613.75378.27356v12.33966a6.60284,6.60284,0,0,0-2.48584,2.48584h-5.57526v6.43207L83.176,176.635h6.81335l17.13831-61.95959a6.59753,6.59753,0,0,0,1.66449,1.34595v60.96423h6.47565V116.02167a6.60571,6.60571,0,0,0,1.8382-1.53717l17.1911,62.15045h6.82025l-17.78809-63.95911v-5.61609h-5.5755a6.60368,6.60368,0,0,0-2.486-2.48621v-9.9892Z"/><path d="M53.463,52.70325l.00018-.00037-.00055.0014ZM66.40738,36.423a4.14615,4.14615,0,0,0-2.47559-5.2959L61.60025,30.281,53.67728,52.113l7.7428-21.38391s-3.22949.70514-10.5918,21.01221l-.00244.00592-.002.00592c-7.35443,20.29193-5.3363,22.91406-5.33313,22.91821l-.16046.44208,2.332.84619a4.14655,4.14655,0,0,0,5.2959-2.47614Z"/><path d="M194.19254,92.46845l-.43658-.1582-7.246,19.96783.43549.15857a1.93643,1.93643,0,0,0,2.542-.94531L195.53629,94.824A1.93745,1.93745,0,0,0,194.19254,92.46845Z"/></g><g class="cls-61"><path d="M145.17414,105.13745l3.78351-10.42523,37.91974,13.76117,4.91309-13.53864L153.87122,81.17328l3.78345-10.425L119.71924,56.9812l.6698-1.8457L65.79383,35.323,51.97443,73.40356l54.59534,19.813.67-1.84613.75378.27356v12.33966a6.60284,6.60284,0,0,0-2.48584,2.48584H99.93244v6.43207L82.37739,176.04468h6.81335L106.329,114.08508a6.59754,6.59754,0,0,0,1.66449,1.34595v60.96423h6.47565V115.4314a6.60571,6.60571,0,0,0,1.8382-1.53717l17.1911,62.15045h6.82025l-17.78809-63.95911v-5.61609h-5.5755a6.60368,6.60368,0,0,0-2.486-2.48621v-9.9892Z"/><path d="M52.66443,52.113l.00018-.00037-.00055.0014ZM65.60877,35.83276a4.14615,4.14615,0,0,0-2.47559-5.2959l-2.33154-.84619-7.923,21.83209,7.7428-21.38391S57.392,30.844,50.02967,51.15106l-.00244.00592-.002.00592C42.67084,71.45483,44.689,74.077,44.69214,74.08111l-.16046.44208,2.332.84619a4.14655,4.14655,0,0,0,5.2959-2.47614Z"/><path d="M193.39393,91.87817l-.43658-.1582-7.246,19.96783.43549.15857a1.93643,1.93643,0,0,0,2.542-.94531l6.04883-16.66736A1.93745,1.93745,0,0,0,193.39393,91.87817Z"/></g><g class="cls-62"><path d="M144.37553,104.54717,148.159,94.12194l37.91974,13.76117,4.91309-13.53864L153.07261,80.583l3.78345-10.425L118.92063,56.39092l.6698-1.8457L64.99522,34.73272,51.17582,72.81329l54.59534,19.813.67-1.84613.75378.27356v12.33966a6.60284,6.60284,0,0,0-2.48584,2.48584H99.13383v6.43207L81.57877,175.4544h6.81335l17.13831-61.95959a6.59754,6.59754,0,0,0,1.66449,1.34595V175.805h6.47565V114.84112a6.60571,6.60571,0,0,0,1.8382-1.53717l17.1911,62.15045h6.82025L121.732,111.49529V105.8792h-5.5755a6.60368,6.60368,0,0,0-2.486-2.48621V93.4038Z"/><path d="M51.86582,51.5227l.00018-.00037-.00055.0014ZM64.81016,35.24248a4.14615,4.14615,0,0,0-2.47559-5.2959L60.003,29.10039l-7.923,21.83209,7.7428-21.38391s-3.22949.70514-10.5918,21.01221l-.00244.00592-.002.00592c-7.35443,20.29193-5.3363,22.91406-5.33313,22.91821l-.16046.44208,2.332.84619a4.14655,4.14655,0,0,0,5.2959-2.47614Z"/><path d="M192.59531,91.28789l-.43658-.1582-7.246,19.96783.43549.15857a1.93643,1.93643,0,0,0,2.542-.94531l6.04883-16.66736A1.93745,1.93745,0,0,0,192.59531,91.28789Z"/></g><g class="cls-63"><path d="M143.57692,103.95689l3.78351-10.42523,37.91974,13.76117,4.91309-13.53864L152.274,79.99272l3.78345-10.425L118.122,55.80064l.6698-1.8457L64.19661,34.14244,50.37721,72.223l54.59534,19.813.67-1.84613.75378.27356v12.33966a6.60284,6.60284,0,0,0-2.48584,2.48584H98.33522V111.721L80.78016,174.86412h6.81335l17.13831-61.95959a6.59754,6.59754,0,0,0,1.66449,1.34595v60.96423H112.872V114.25084a6.60571,6.60571,0,0,0,1.8382-1.53717l17.1911,62.15045h6.82025L120.93342,110.905v-5.61609h-5.5755a6.60368,6.60368,0,0,0-2.486-2.48621v-9.9892Z"/><path d="M51.06721,50.93242l.00018-.00037-.00055.0014ZM64.01155,34.65221a4.14615,4.14615,0,0,0-2.47559-5.2959l-2.33154-.84619-7.923,21.83209,7.7428-21.38391s-3.22949.70514-10.5918,21.01221l-.00244.00592-.002.00592c-7.35443,20.29193-5.3363,22.91406-5.33313,22.91821l-.16046.44208,2.332.84619a4.14655,4.14655,0,0,0,5.2959-2.47614Z"/><path d="M191.7967,90.69762l-.43658-.1582-7.246,19.96783.43549.15857a1.93643,1.93643,0,0,0,2.542-.94531l6.04883-16.66736A1.93745,1.93745,0,0,0,191.7967,90.69762Z"/></g><g class="cls-64"><path d="M142.7783,103.36662l3.78351-10.42523,37.91974,13.76117,4.91309-13.53864L151.47539,79.40244l3.78345-10.425L117.32341,55.21037l.6698-1.8457L63.398,33.55216,49.5786,71.63273l54.59534,19.813.67-1.84613.75378.27356v12.33966a6.60284,6.60284,0,0,0-2.48584,2.48584H97.53661v6.43207L79.98155,174.27384h6.81335l17.13831-61.95959a6.59754,6.59754,0,0,0,1.66449,1.34595v60.96423h6.47565V113.66056a6.60571,6.60571,0,0,0,1.8382-1.53717l17.1911,62.15045h6.82025l-17.78809-63.95911v-5.61609h-5.5755a6.60368,6.60368,0,0,0-2.486-2.48621v-9.9892Z"/><path d="M50.2686,50.34214l.00018-.00037-.00055.0014ZM63.21294,34.06193a4.14615,4.14615,0,0,0-2.47559-5.2959l-2.33154-.84619-7.923,21.83209L58.22563,28.368s-3.22949.70514-10.5918,21.01221l-.00244.00592-.002.00592C40.275,69.684,42.29314,72.30613,42.29631,72.31028l-.16046.44208,2.332.84619a4.14655,4.14655,0,0,0,5.2959-2.47614Z"/><path d="M190.99809,90.10734l-.43658-.1582-7.246,19.96783.43549.15857a1.93643,1.93643,0,0,0,2.542-.94531l6.04883-16.66736A1.93745,1.93745,0,0,0,190.99809,90.10734Z"/></g><g class="cls-65"><path d="M141.97969,102.77634l3.78351-10.42523,37.91974,13.76117L188.596,92.57364,150.67678,78.81217l3.78345-10.425L116.5248,54.62009l.6698-1.8457L62.59938,32.96189,48.78,71.04245l54.59534,19.813.67-1.84613.75378.27356v12.33966a6.60284,6.60284,0,0,0-2.48584,2.48584H96.738v6.43207L79.18294,173.68357H85.9963L103.1346,111.724a6.59753,6.59753,0,0,0,1.66449,1.34595v60.96423h6.47565V113.07028a6.60571,6.60571,0,0,0,1.8382-1.53717l17.1911,62.15045h6.82025L119.3362,109.72446v-5.61609h-5.5755a6.60368,6.60368,0,0,0-2.486-2.48621V91.633Z"/><path d="M49.47,49.75186l.00018-.00037-.00055.0014ZM62.41433,33.47165a4.14615,4.14615,0,0,0-2.47559-5.2959l-2.33154-.84619-7.923,21.83209L57.427,27.77774s-3.22949.70514-10.5918,21.01221l-.00244.00592-.002.00592C39.4764,69.09372,41.49453,71.71585,41.4977,71.72l-.16046.44208,2.332.84619a4.14655,4.14655,0,0,0,5.2959-2.47614Z"/><path d="M190.19948,89.51706l-.43658-.1582-7.246,19.96783.43549.15857a1.93643,1.93643,0,0,0,2.542-.94531l6.04883-16.66736A1.93745,1.93745,0,0,0,190.19948,89.51706Z"/></g><g class="cls-66"><path d="M141.18108,102.18606l3.78351-10.42523L182.88433,105.522l4.91309-13.53864L149.87817,78.22189l3.78345-10.425L115.72619,54.02981l.6698-1.8457L61.80077,32.37161,47.98138,70.45217l54.59534,19.813.67-1.84613.75378.27356v12.33966a6.60284,6.60284,0,0,0-2.48584,2.48584H95.93938v6.43207L78.38433,173.09329h6.81335L102.336,111.13369a6.59753,6.59753,0,0,0,1.66449,1.34595v60.96423h6.47565V112.48a6.60571,6.60571,0,0,0,1.8382-1.53717l17.1911,62.15045h6.82025l-17.78809-63.95911v-5.61609h-5.5755a6.60368,6.60368,0,0,0-2.486-2.48621v-9.9892Z"/><path d="M48.67138,49.16159l.00018-.00037-.00055.0014ZM61.61571,32.88137a4.14615,4.14615,0,0,0-2.47559-5.2959l-2.33154-.84619-7.923,21.83209,7.7428-21.38391s-3.22949.70514-10.5918,21.01221l-.00244.00592-.002.00592c-7.35443,20.29193-5.3363,22.91406-5.33313,22.91821l-.16046.44208,2.332.84619a4.14655,4.14655,0,0,0,5.2959-2.47614Z"/><path d="M189.40087,88.92678l-.43658-.1582-7.246,19.96783.43549.15857a1.93643,1.93643,0,0,0,2.542-.94531l6.04883-16.66736A1.93745,1.93745,0,0,0,189.40087,88.92678Z"/></g><g class="cls-67"><path d="M140.38247,101.59578,144.166,91.17055l37.91974,13.76117,4.91309-13.53864L149.07955,77.63161l3.78345-10.425L114.92758,53.43953l.6698-1.8457L61.00216,31.78133,47.18276,69.8619l54.59534,19.813.67-1.84613.75378.27356V100.442a6.60284,6.60284,0,0,0-2.48584,2.48584H95.14077v6.43207L77.58572,172.503h6.81335l17.13831-61.95959a6.59754,6.59754,0,0,0,1.66449,1.34595V172.8536h6.47565V111.88973a6.60571,6.60571,0,0,0,1.8382-1.53717l17.1911,62.15045h6.82025L117.739,108.5439v-5.61609h-5.5755a6.60368,6.60368,0,0,0-2.486-2.48621v-9.9892Z"/><path d="M47.87277,48.57131l.00018-.00037-.00055.0014ZM60.8171,32.2911a4.14615,4.14615,0,0,0-2.47559-5.2959L56.01,26.149,48.087,47.9811l7.7428-21.38391s-3.22949.70514-10.5918,21.01221l-.00244.00592-.002.00592c-7.35443,20.29193-5.3363,22.91406-5.33313,22.91821l-.16046.44208,2.332.84619a4.14655,4.14655,0,0,0,5.2959-2.47614Z"/><path d="M188.60226,88.33651l-.43658-.1582-7.246,19.96783.43549.15857a1.93643,1.93643,0,0,0,2.542-.94531L189.946,90.692A1.93745,1.93745,0,0,0,188.60226,88.33651Z"/></g><g class="cls-68"><path d="M139.58386,101.00551l3.78351-10.42523,37.91974,13.76117,4.91309-13.53864L148.28094,77.04133l3.78345-10.425L114.129,52.84926l.6698-1.8457L60.20355,31.19105,46.38415,69.27162l54.59534,19.813.67-1.84613.75378.27356V99.8517a6.60284,6.60284,0,0,0-2.48584,2.48584H94.34216v6.43207L76.78711,171.91273h6.81335l17.13831-61.95959a6.59754,6.59754,0,0,0,1.66449,1.34595v60.96423h6.47565V111.29945a6.60571,6.60571,0,0,0,1.8382-1.53717l17.1911,62.15045h6.82025l-17.78809-63.95911v-5.61609h-5.5755a6.60368,6.60368,0,0,0-2.486-2.48621v-9.9892Z"/><path d="M47.07416,47.981l.00018-.00037-.00055.0014ZM60.01849,31.70082a4.14615,4.14615,0,0,0-2.47559-5.2959l-2.33154-.84619-7.923,21.83209,7.7428-21.38391s-3.22949.70514-10.5918,21.01221l-.00244.00592-.002.00592c-7.35443,20.29193-5.3363,22.91406-5.33313,22.91821l-.16046.44208,2.332.84619a4.14655,4.14655,0,0,0,5.2959-2.47614Z"/><path d="M187.80365,87.74623l-.43658-.1582-7.246,19.96783.43549.15857a1.93643,1.93643,0,0,0,2.542-.94531l6.04883-16.66736A1.93745,1.93745,0,0,0,187.80365,87.74623Z"/></g><g class="cls-69"><path d="M138.78525,100.41523,142.56876,89.99l37.91974,13.76117,4.91309-13.53864L147.48233,76.45106l3.78345-10.425L113.33035,52.259l.6698-1.8457L59.40494,30.60077,45.58554,68.68134l54.59534,19.813.67-1.84613.75378.27356V99.26142a6.60284,6.60284,0,0,0-2.48584,2.48584H93.54355v6.43207L75.9885,171.32245h6.81335l17.13831-61.95959a6.59753,6.59753,0,0,0,1.66449,1.34595V171.673h6.47565V110.70917a6.60571,6.60571,0,0,0,1.8382-1.53717l17.1911,62.15045h6.82025l-17.78809-63.95911v-5.61609h-5.5755a6.60368,6.60368,0,0,0-2.486-2.48621v-9.9892Z"/><path d="M46.27554,47.39075l.00018-.00037-.00055.0014ZM59.21988,31.11054a4.14615,4.14615,0,0,0-2.47559-5.2959l-2.33154-.84619-7.923,21.83209,7.7428-21.38391s-3.22949.70514-10.5918,21.01221l-.00244.00592-.002.00592c-7.35443,20.29193-5.3363,22.91406-5.33313,22.91821l-.16046.44208,2.332.84619a4.14655,4.14655,0,0,0,5.2959-2.47614Z"/><path d="M187.005,87.156l-.43658-.1582-7.246,19.96783.43549.15857a1.93643,1.93643,0,0,0,2.542-.94531l6.04883-16.66736A1.93745,1.93745,0,0,0,187.005,87.156Z"/></g><g class="cls-70"><path d="M137.98664,99.82495l3.78351-10.42523,37.91974,13.76117L184.603,89.62225,146.68372,75.86078l3.78345-10.425L112.53174,51.6687l.6698-1.8457L58.60633,30.0105,44.78693,68.09106l54.59534,19.813.67-1.84613.75378.27356V98.67114A6.60284,6.60284,0,0,0,98.3202,101.157H92.74494V107.589L75.18989,170.73218h6.81335l17.13831-61.95959a6.59754,6.59754,0,0,0,1.66449,1.34595v60.96423h6.47565V110.1189a6.60571,6.60571,0,0,0,1.8382-1.53717l17.1911,62.15045h6.82025l-17.78809-63.95911V101.157h-5.5755a6.60368,6.60368,0,0,0-2.486-2.48621v-9.9892Z"/><path d="M45.47693,46.80047l.00018-.00037-.00055.0014ZM58.42127,30.52026a4.14615,4.14615,0,0,0-2.47559-5.2959l-2.33154-.84619-7.923,21.83209L53.434,24.82635s-3.22949.70514-10.5918,21.01221l-.00244.00592-.002.00592c-7.35443,20.29193-5.3363,22.91406-5.33313,22.91821l-.16046.44208,2.332.84619a4.14655,4.14655,0,0,0,5.2959-2.47614Z"/><path d="M186.20643,86.56567l-.43658-.1582-7.246,19.96783.43549.15857a1.93643,1.93643,0,0,0,2.542-.94531l6.04883-16.66736A1.93745,1.93745,0,0,0,186.20643,86.56567Z"/></g><g class="cls-71"><path d="M137.188,99.23467l3.78351-10.42523,37.91974,13.76117L183.80436,89.032,145.88511,75.2705l3.78345-10.425L111.73313,51.07842l.6698-1.8457L57.80772,29.42022,43.98832,67.50079l54.59534,19.813.67-1.84613.75378.27356V98.08086a6.60284,6.60284,0,0,0-2.48584,2.48584H91.94633v6.43207L74.39127,170.1419h6.81335L98.34293,108.1823a6.59754,6.59754,0,0,0,1.66449,1.34595v60.96423h6.47565V109.52862a6.60571,6.60571,0,0,0,1.8382-1.53717l17.1911,62.15045h6.82025l-17.78809-63.95911V100.5667H108.969a6.60368,6.60368,0,0,0-2.486-2.48621V88.0913Z"/><path d="M44.67832,46.2102l.00018-.00037-.00055.0014ZM57.62266,29.93a4.14615,4.14615,0,0,0-2.47559-5.2959l-2.33154-.84619L44.89256,45.62l7.7428-21.38391s-3.22949.70514-10.5918,21.01221l-.00244.00592-.002.00592c-7.35443,20.29193-5.3363,22.91406-5.33313,22.91821l-.16046.44208,2.332.84619a4.14655,4.14655,0,0,0,5.2959-2.47614Z"/><path d="M185.40781,85.97539l-.43658-.1582-7.246,19.96783.43549.15857a1.93643,1.93643,0,0,0,2.542-.94531l6.04883-16.66736A1.93745,1.93745,0,0,0,185.40781,85.97539Z"/></g><g class="cls-72"><path d="M136.38942,98.64439l3.78351-10.42523,37.91974,13.76117,4.91309-13.53864L145.0865,74.68022l3.78345-10.425L110.93452,50.48814l.6698-1.8457L57.00911,28.82994,43.18971,66.91051,97.785,86.7235l.67-1.84613.75378.27356V97.49059A6.60284,6.60284,0,0,0,96.723,99.97643H91.14772v6.43207L73.59266,169.55162H80.406L97.54432,107.592a6.59754,6.59754,0,0,0,1.66449,1.34595v60.96423h6.47565V108.93834a6.60571,6.60571,0,0,0,1.8382-1.53717l17.1911,62.15045H131.534l-17.78809-63.95911V99.97643h-5.5755a6.60368,6.60368,0,0,0-2.486-2.48621V87.501Z"/><path d="M43.87971,45.61992l.00018-.00037-.00055.0014ZM56.824,29.33971a4.14615,4.14615,0,0,0-2.47559-5.2959l-2.33154-.84619-7.923,21.83209,7.7428-21.38391s-3.22949.70514-10.5918,21.01221l-.00244.00592-.002.00592c-7.35443,20.29193-5.3363,22.91406-5.33313,22.91821l-.16046.44208,2.332.84619a4.14655,4.14655,0,0,0,5.2959-2.47614Z"/><path d="M184.6092,85.38512l-.43658-.1582-7.246,19.96783.43549.15857a1.93643,1.93643,0,0,0,2.542-.94531L185.953,87.74065A1.93745,1.93745,0,0,0,184.6092,85.38512Z"/></g><g class="cls-73"><path d="M135.5908,98.05412l3.78351-10.42523,37.91974,13.76117,4.91309-13.53864L144.28789,74.08994l3.78345-10.425L110.13591,49.89787l.6698-1.8457L56.21049,28.23966,42.3911,66.32023l54.59534,19.813.67-1.84613.75378.27356V96.90031a6.60284,6.60284,0,0,0-2.48584,2.48584H90.34911v6.43207L72.79405,168.96134h6.81335l17.13831-61.95959a6.59754,6.59754,0,0,0,1.66449,1.34595v60.96423h6.47565V108.34806a6.60571,6.60571,0,0,0,1.8382-1.53717l17.1911,62.15045h6.82025l-17.78809-63.95911V99.38615h-5.5755a6.60368,6.60368,0,0,0-2.486-2.48621v-9.9892Z"/><path d="M43.0811,45.02964l.00018-.00037-.00055.0014ZM56.02544,28.74943a4.14615,4.14615,0,0,0-2.47559-5.2959l-2.33154-.84619-7.923,21.83209,7.7428-21.38391s-3.22949.70514-10.5918,21.01221l-.00244.00592-.002.00592c-7.35443,20.29193-5.3363,22.91406-5.33313,22.91821l-.16046.44208,2.332.84619a4.14655,4.14655,0,0,0,5.2959-2.47614Z"/><path d="M183.81059,84.79484l-.43658-.1582-7.246,19.96783.43549.15857a1.93643,1.93643,0,0,0,2.542-.94531l6.04883-16.66736A1.93745,1.93745,0,0,0,183.81059,84.79484Z"/></g><g class="cls-74"><path d="M134.79219,97.46384l3.78351-10.42523,37.91974,13.76117,4.91309-13.53864L143.48928,73.49967l3.78345-10.425L109.3373,49.30759l.6698-1.8457L55.41188,27.64939,41.59249,65.73l54.59534,19.813.67-1.84613.75378.27356V96.31a6.60284,6.60284,0,0,0-2.48584,2.48584H89.55049v6.43207L71.99544,168.37107H78.8088L95.9471,106.41147a6.59754,6.59754,0,0,0,1.66449,1.34595v60.96423h6.47565V107.75778a6.60571,6.60571,0,0,0,1.8382-1.53717l17.1911,62.15045h6.82025L112.1487,104.412V98.79587h-5.5755a6.60368,6.60368,0,0,0-2.486-2.48621v-9.9892Z"/><path d="M42.28249,44.43936l.00018-.00037-.00055.0014ZM55.22683,28.15915a4.14615,4.14615,0,0,0-2.47559-5.2959l-2.33154-.84619-7.923,21.83209,7.7428-21.38391s-3.22949.70514-10.5918,21.01221l-.00244.00592-.002.00592C32.2889,63.78122,34.307,66.40335,34.3102,66.4075l-.16046.44208,2.332.84619a4.14655,4.14655,0,0,0,5.2959-2.47614Z"/><path d="M183.012,84.20456l-.43658-.1582-7.246,19.96783.43549.15857a1.93643,1.93643,0,0,0,2.542-.94531l6.04883-16.66736A1.93745,1.93745,0,0,0,183.012,84.20456Z"/></g><path d="M133.99358,96.87356l3.78351-10.42523,37.91974,13.76117,4.91309-13.53864L142.69067,72.90939l3.78345-10.425L108.53869,48.71731l.6698-1.8457L54.61327,27.05911,40.79388,65.13967l54.59534,19.813.67-1.84613.75378.27356V95.71975a6.60284,6.60284,0,0,0-2.48584,2.48584H88.75188v6.43207L71.19683,167.78079h6.81335l17.13831-61.95959a6.59753,6.59753,0,0,0,1.66449,1.34595v60.96423h6.47565V107.16751a6.60571,6.60571,0,0,0,1.8382-1.53717l17.1911,62.15045h6.82025l-17.78809-63.95911V98.20559h-5.5755a6.60368,6.60368,0,0,0-2.486-2.48621v-9.9892Z"/><path d="M41.48388,43.84909l.00018-.00037-.00055.0014ZM54.42821,27.56887a4.14615,4.14615,0,0,0-2.47559-5.2959l-2.33154-.84619-7.923,21.83209L49.44091,21.875s-3.22949.70514-10.5918,21.01221l-.00244.00592-.002.00592c-7.35443,20.29193-5.3363,22.91406-5.33313,22.91821l-.16046.44208,2.332.84619a4.14655,4.14655,0,0,0,5.2959-2.47614Z"/><path d="M182.21337,83.61428l-.43658-.1582-7.246,19.96783.43549.15857a1.93643,1.93643,0,0,0,2.542-.94531l6.04883-16.66736A1.93745,1.93745,0,0,0,182.21337,83.61428Z"/></g><g id="Telescope"><rect class="cls-75" x="96.813" y="79.3623" width="6.4756" height="22.0816"/><rect class="cls-75" x="96.813" y="101.0879" width="6.4756" height="67.0435"/><polygon class="cls-75" points="71.197 167.781 89.642 101.438 95.883 103.165 78.01 167.781 71.197 167.781"/><polygon class="cls-75" points="129.138 167.781 110.687 101.438 104.445 103.165 122.318 167.781 129.138 167.781"/><circle class="cls-76" cx="100.05105" cy="101.44365" r="6.5796"/><rect class="cls-76" x="88.7519" y="98.2056" width="22.5982" height="6.4761"/><rect class="cls-77" x="54.74582" y="26.96621" width="40.51081" height="58.07914" transform="matrix(0.34112, -0.94002, 0.94002, 0.34112, -3.22997, 107.40335)"/><rect class="cls-78" x="102.9745" y="52.61751" width="36.58371" height="40.35588" transform="translate(11.4682 161.95301) rotate(-70.05319)"/><rect class="cls-79" x="151.98468" y="66.37906" width="14.40274" height="40.35542" transform="translate(23.51839 206.66739) rotate(-70.05438)"/><path class="cls-80" d="M49.6211,21.4268l2.3315.8462a4.14609,4.14609,0,0,1,2.4756,5.2959L40.979,64.6294a4.14654,4.14654,0,0,1-5.2959,2.4761l-2.332-.8462Z"/><path class="cls-80" d="M182.2134,83.6143a1.93745,1.93745,0,0,1,1.3437,2.3555l-6.0488,16.6674a1.93645,1.93645,0,0,1-2.542.9453l-.4355-.1586,7.246-19.9678Z"/><rect class="cls-81" x="78.05948" y="13.44848" width="4.50334" height="54.84119" transform="translate(14.49821 102.42245) rotate(-70.05537)"/><rect class="cls-81" x="123.92091" y="41.71892" width="4.50343" height="36.37691" transform="translate(26.7972 158.05496) rotate(-70.04244)"/><path class="cls-1" d="M41.4839,43.8491l.0024-.0053h0L49.4409,21.875s-3.2295.7051-10.5918,21.0122h0l-.0024.0059-.002.0059h0c-7.3603,20.3081-5.333,22.9184-5.333,22.9184L41.4819,43.855h0Z"/></g></g></g></svg>