<?xml version="1.0" encoding="UTF-8"?>
<svg width="20px" height="16px" viewBox="0 0 20 16" version="1.1" xmlns="http://www.w3.org/2000/svg" xmlns:xlink="http://www.w3.org/1999/xlink">
    <!-- Generator: Sketch 50.2 (55047) - http://www.bohemiancoding.com/sketch -->
    <title>icons/social/twitter/black</title>
    <desc>Created with Sketch.</desc>
    <defs></defs>
    <g id="website" stroke="none" stroke-width="1" fill="none" fill-rule="evenodd">
        <g id="ht6_2018_website_v1" transform="translate(-1218.000000, -7339.000000)" fill="#383B41" fill-rule="nonzero">
            <g id="contact-us" transform="translate(0.000000, 6484.000000)">
                <g id="footer" transform="translate(0.000000, 831.000000)">
                    <g id="icons/social/twitter/black" transform="translate(1216.000000, 20.000000)">
                        <path d="M22,5.89404892 C21.2641282,6.21530485 20.4733165,6.43242806 19.6432934,6.53007949 C20.490508,6.030156 21.1410805,5.23857448 21.447456,4.29540279 C20.6546691,4.75823889 19.7765098,5.09440179 18.8418742,5.27558985 C18.0933465,4.49056162 17.0269578,4 15.8468123,4 C13.5806723,4 11.7434434,5.80849589 11.7434434,8.03913979 C11.7434434,8.35571479 11.7798017,8.66400814 11.8497384,8.95962696 C8.43951863,8.79118544 5.41607228,7.18310544 3.39229672,4.73937113 C3.03910165,5.33593785 2.83675336,6.02979593 2.83675336,6.77003124 C2.83675336,8.1713581 3.56121292,9.40770013 4.66220418,10.1320203 C3.98953876,10.1110641 3.35688942,9.92937195 2.80361388,9.62683974 C2.80332127,9.6436911 2.80332127,9.66061446 2.80332127,9.67760984 C2.80332127,11.6346713 4.21771096,13.2672362 6.09480961,13.638254 C5.75046637,13.7305764 5.38798054,13.7799062 5.01371667,13.7799062 C4.74933245,13.7799062 4.4922638,13.7546291 4.24177914,13.7074598 C4.76389041,15.3122272 6.27923479,16.4800115 8.07476498,16.512634 C6.67047076,17.5959456 4.90120341,18.2416981 2.97882146,18.2416981 C2.64764622,18.2416981 2.32100662,18.2226143 2,18.1853109 C3.81586745,19.3313469 5.97271298,20 8.28991551,20 C15.8372288,20 19.9643732,13.8451512 19.9643732,8.50752099 C19.9643732,8.33238215 19.9604228,8.15817948 19.952522,7.98498501 C20.7541607,7.41549568 21.4498702,6.70406611 22,5.89404892" id="Shape"></path>
                    </g>
                </g>
            </g>
        </g>
    </g>
</svg>