<?xml version="1.0" encoding="UTF-8"?>
<svg width="159px" height="156px" viewBox="0 0 159 156" version="1.1" xmlns="http://www.w3.org/2000/svg" xmlns:xlink="http://www.w3.org/1999/xlink">
    <!-- Generator: Sketch 43.2 (39069) - http://www.bohemiancoding.com/sketch -->
    <title>Combined Shape</title>
    <desc>Created with Sketch.</desc>
    <defs></defs>
    <g id="Page-1" stroke="none" stroke-width="1" fill="none" fill-rule="evenodd">
        <path d="M79.5,156 C35.5933624,156 0,121.07821 0,78 C0,34.9217895 35.5933624,0 79.5,0 C123.406638,0 159,34.9217895 159,78 C159,121.07821 123.406638,156 79.5,156 Z M109.78573,62.6281756 L117.286688,54.3374264 L110.798085,55.6702957 L115.084044,48.5836922 L106.248344,52.1343254 C106.248344,52.1343254 103.105168,48.1744467 98.8885337,46.9675671 C94.6718998,45.7606875 91.4396805,46.1100011 86.9882729,47.6268663 C82.5368654,49.1437315 79.0540708,54.6642989 78.405587,57.948356 C77.7571031,61.2324131 78.401019,66.5506364 78.401019,66.5506364 C78.401019,66.5506364 68.7862086,65.4611202 61.0297151,61.4752362 C53.2732217,57.4893521 45.1548865,49.4662116 45.1548865,49.4662116 C45.1548865,49.4662116 43.3060964,55.7100935 44.5140093,61.4752362 C45.7219222,67.2403788 50.3168838,71.5799746 50.3168838,71.5799746 L43.5689096,69.1991082 C43.5689096,69.1991082 43.9532371,74.9918857 46.5025891,78.3528198 C49.0519411,81.7137538 55.6606132,85.1401861 55.6606132,85.1401861 L49.3584687,85.4437869 C49.3584687,85.4437869 51.643246,90.4138182 55.9370675,93.5067195 C58.149479,94.9916184 63.0140281,96.4146914 63.0140281,96.4146914 C63.0140281,96.4146914 61.0297151,100.483044 52.5526101,101.976117 C47.5883777,102.621015 41.0139267,102.621015 41.0139267,102.621015 C41.0139267,102.621015 49.7552245,108.538825 56.854207,109.49626 C60.6117664,110.090102 67.3305112,110.366469 74.0309035,109.229038 C80.7312958,108.091607 93.4739118,104.836918 103.105168,88.8488689 C110.798085,72.9517081 109.78573,62.6281756 109.78573,62.6281756 Z" id="Combined-Shape" fill="#FFFFFF"></path>
    </g>
</svg>