<svg xmlns="http://www.w3.org/2000/svg" viewBox="0 0 216.74889 197.36697"><defs><style>.cls-1{opacity:0.3;}.cls-2{opacity:0;}.cls-3{opacity:0.01724;}.cls-4{opacity:0.03448;}.cls-5{opacity:0.05172;}.cls-6{opacity:0.06897;}.cls-7{opacity:0.08621;}.cls-8{opacity:0.10345;}.cls-9{opacity:0.12069;}.cls-10{opacity:0.13793;}.cls-11{opacity:0.15517;}.cls-12{opacity:0.17241;}.cls-13{opacity:0.18966;}.cls-14{opacity:0.2069;}.cls-15{opacity:0.22414;}.cls-16{opacity:0.24138;}.cls-17{opacity:0.25862;}.cls-18{opacity:0.27586;}.cls-19{opacity:0.2931;}.cls-20{opacity:0.31034;}.cls-21{opacity:0.32759;}.cls-22{opacity:0.34483;}.cls-23{opacity:0.36207;}.cls-24{opacity:0.37931;}.cls-25{opacity:0.39655;}.cls-26{opacity:0.41379;}.cls-27{opacity:0.43103;}.cls-28{opacity:0.44828;}.cls-29{opacity:0.46552;}.cls-30{opacity:0.48276;}.cls-31{opacity:0.5;}.cls-32{opacity:0.51724;}.cls-33{opacity:0.53448;}.cls-34{opacity:0.55172;}.cls-35{opacity:0.56897;}.cls-36{opacity:0.58621;}.cls-37{opacity:0.60345;}.cls-38{opacity:0.62069;}.cls-39{opacity:0.63793;}.cls-40{opacity:0.65517;}.cls-41{opacity:0.67241;}.cls-42{opacity:0.68966;}.cls-43{opacity:0.7069;}.cls-44{opacity:0.72414;}.cls-45{opacity:0.74138;}.cls-46{opacity:0.75862;}.cls-47{opacity:0.77586;}.cls-48{opacity:0.7931;}.cls-49{opacity:0.81034;}.cls-50{opacity:0.82759;}.cls-51{opacity:0.84483;}.cls-52{opacity:0.86207;}.cls-53{opacity:0.87931;}.cls-54{opacity:0.89655;}.cls-55{opacity:0.91379;}.cls-56{opacity:0.93103;}.cls-57{opacity:0.94828;}.cls-58{opacity:0.96552;}.cls-59{opacity:0.98276;}.cls-60{fill:#0f171f;}.cls-61{fill:#e43d25;}.cls-62{fill:#f0512f;}.cls-63{fill:#9edbf0;}.cls-64{fill:#010101;opacity:0.1;}.cls-65{fill:#fff;}</style></defs><title>Asset 6</title><g id="Layer_2" data-name="Layer 2"><g id="Layer_3" data-name="Layer 3"><g class="cls-1"><path class="cls-2" d="M216.68376,111.25382l-.22864.10657a5.03185,5.03185,0,0,0-.15942-1.47748c-2.02734-7.16235-20.27649-8.74274-45.66333-5.14722-.15234-.65533-.31458-1.31049-.49976-1.96472a41.81791,41.81791,0,0,0-9.2052-16.67914c-.58875-.6524-1.19934-1.282-1.82532-1.8938-.01465-.0141-.02832-.02875-.043-.04285q-.94757-.9234-1.95044-1.78137l-.00317-.00281-.00293-.00244a42.19934,42.19934,0,0,0-6.61768-4.6568c-.0415-.02362-.0835-.04669-.125-.07019q-.62842-.35468-1.26831-.68756c-.05859-.0304-.11694-.06073-.17566-.09088q-.63483-.32648-1.2804-.63135c-.05054-.02393-.10107-.0484-.15186-.07214q-.70312-.32858-1.41772-.63214l-.0144-.00641-.00024.00012a41.98577,41.98577,0,0,0-56.73657,50.126c.18518.65424.39038,1.29718.60425,1.93512-23.505,10.24384-38.21851,21.1546-36.19116,28.317a5.03159,5.03159,0,0,0,.63867,1.34186l-.25049.02905s6.19971,16.17371,48.34717,11.60626l5.948,21.01312a4.33188,4.33188,0,1,0,3.821-1.08185l-5.77881-20.415a259.93437,259.93437,0,0,0,36.387-7.84473,265.258,265.258,0,0,0,33.547-11.7016l5.71338,20.18445a4.33223,4.33223,0,1,0,3.821-1.08173l-5.87341-20.74969C219.95963,128.72983,216.68376,111.25382,216.68376,111.25382Z"/><path class="cls-3" d="M215.97686,110.54692l-.22864.10657a5.03184,5.03184,0,0,0-.15942-1.47748c-2.02734-7.16235-20.27649-8.74274-45.66333-5.14722-.15234-.65533-.31458-1.31049-.49976-1.96472a41.81791,41.81791,0,0,0-9.2052-16.67914q-.88312-.97861-1.82532-1.8938l-.043-.04285c-.63362-.61364-1.279-1.21333-1.95044-1.78137l-.00317-.00281-.00293-.00244a41.18733,41.18733,0,0,0-6.61768-4.6568c-.0415-.02362-.0835-.04669-.125-.07019q-.62842-.35468-1.26831-.68756c-.05859-.0304-.11694-.06073-.17566-.09088q-.63483-.32648-1.2804-.63135c-.05054-.02393-.10107-.0484-.15186-.07214-.46875-.21906-.94012-.43255-1.41772-.63214l-.0144-.00641-.00024.00012a41.98577,41.98577,0,0,0-56.73657,50.126c.18518.65424.39038,1.29718.60425,1.93512-23.505,10.24384-38.21851,21.1546-36.19116,28.317a5.03159,5.03159,0,0,0,.63867,1.34186l-.25049.02905s6.19971,16.17371,48.34717,11.60626l5.948,21.01312a4.33188,4.33188,0,1,0,3.821-1.08185l-5.77881-20.415a259.93436,259.93436,0,0,0,36.387-7.84473,265.258,265.258,0,0,0,33.547-11.7016l5.71338,20.18445a4.33223,4.33223,0,1,0,3.821-1.08173l-5.87341-20.74969C219.25274,128.02293,215.97686,110.54692,215.97686,110.54692Z"/><path class="cls-4" d="M215.27,109.84l-.22864.10657a5.03185,5.03185,0,0,0-.15942-1.47748c-2.02734-7.16235-20.27649-8.74274-45.66333-5.14722-.15234-.65533-.31458-1.31049-.49976-1.96472a41.81791,41.81791,0,0,0-9.2052-16.67914q-.88312-.97861-1.82532-1.8938l-.043-.04285c-.63362-.61364-1.279-1.21333-1.95044-1.78137l-.00317-.00281-.00293-.00244a41.18733,41.18733,0,0,0-6.61768-4.6568c-.0415-.02362-.0835-.04669-.125-.07019q-.62842-.35468-1.26831-.68756c-.05859-.0304-.11694-.06073-.17566-.09088q-.63483-.32648-1.2804-.63135c-.05054-.02393-.10107-.0484-.15186-.07214-.46875-.21906-.94012-.43255-1.41772-.63214l-.0144-.00641-.00024.00012a41.98577,41.98577,0,0,0-56.73657,50.126c.18518.65424.39038,1.29718.60425,1.93512-23.505,10.24384-38.21851,21.1546-36.19116,28.317a5.03159,5.03159,0,0,0,.63867,1.34186l-.25049.02905s6.19971,16.17371,48.34717,11.60626l5.948,21.01312a4.33188,4.33188,0,1,0,3.821-1.08185l-5.77881-20.415a259.93437,259.93437,0,0,0,36.387-7.84473,265.258,265.258,0,0,0,33.547-11.7016l5.71338,20.18445a4.33223,4.33223,0,1,0,3.821-1.08173l-5.87341-20.74969C218.54584,127.316,215.27,109.84,215.27,109.84Z"/><path class="cls-5" d="M214.56307,109.13313l-.22864.10657a5.03184,5.03184,0,0,0-.15942-1.47748c-2.02734-7.16235-20.27649-8.74274-45.66333-5.14722-.15234-.65533-.31458-1.31049-.49976-1.96472a41.81791,41.81791,0,0,0-9.2052-16.67914q-.88312-.97861-1.82532-1.8938l-.043-.04285c-.63362-.61364-1.279-1.21333-1.95044-1.78137l-.00317-.00281-.00293-.00244a41.18733,41.18733,0,0,0-6.61768-4.6568c-.0415-.02362-.0835-.04669-.125-.07019q-.62842-.35468-1.26831-.68756c-.05859-.0304-.11694-.06073-.17566-.09088q-.63483-.32648-1.2804-.63135c-.05054-.02393-.10107-.0484-.15186-.07214-.46875-.21906-.94012-.43255-1.41772-.63214l-.0144-.00641-.00024.00012a41.98577,41.98577,0,0,0-56.73657,50.126c.18518.65424.39038,1.29718.60425,1.93512-23.505,10.24384-38.21851,21.1546-36.19116,28.317a5.03159,5.03159,0,0,0,.63867,1.34186l-.25049.02905s6.19971,16.17371,48.34717,11.60626l5.948,21.01312a4.33188,4.33188,0,1,0,3.821-1.08185l-5.77881-20.415a259.93436,259.93436,0,0,0,36.387-7.84473,265.258,265.258,0,0,0,33.547-11.7016l5.71338,20.18445a4.33223,4.33223,0,1,0,3.821-1.08173l-5.87341-20.74969C217.83894,126.60914,214.56307,109.13313,214.56307,109.13313Z"/><path class="cls-6" d="M213.85617,108.42623l-.22864.10657a5.03185,5.03185,0,0,0-.15942-1.47748c-2.02734-7.16235-20.27649-8.74274-45.66333-5.14722-.15234-.65533-.31458-1.31049-.49976-1.96472a41.81791,41.81791,0,0,0-9.2052-16.67914q-.88312-.97861-1.82532-1.8938l-.043-.04285c-.63362-.61364-1.279-1.21333-1.95044-1.78137l-.00317-.00281L154.275,79.541a41.18733,41.18733,0,0,0-6.61768-4.6568c-.0415-.02362-.0835-.04669-.125-.07019q-.62842-.35468-1.26831-.68756c-.05859-.0304-.11694-.06073-.17566-.09088q-.63483-.32648-1.2804-.63135c-.05054-.02393-.10107-.0484-.15186-.07214-.46875-.21906-.94012-.43255-1.41772-.63214l-.0144-.00641-.00024.00012a41.98577,41.98577,0,0,0-56.73657,50.126c.18518.65424.39038,1.29718.60425,1.93512-23.505,10.24384-38.21851,21.1546-36.19116,28.317a5.03159,5.03159,0,0,0,.63867,1.34186l-.25049.02905s6.19971,16.17371,48.34717,11.60626l5.948,21.01312a4.33188,4.33188,0,1,0,3.821-1.08185l-5.77881-20.415a259.93437,259.93437,0,0,0,36.387-7.84473,265.258,265.258,0,0,0,33.547-11.7016l5.71338,20.18445a4.33223,4.33223,0,1,0,3.821-1.08173l-5.87341-20.74969C217.132,125.90224,213.85617,108.42623,213.85617,108.42623Z"/><path class="cls-7" d="M213.14927,107.71933l-.22864.10657a5.03184,5.03184,0,0,0-.15942-1.47748c-2.02734-7.16235-20.27649-8.74274-45.66333-5.14722-.15234-.65533-.31458-1.31049-.49976-1.96472a41.81791,41.81791,0,0,0-9.2052-16.67914q-.88312-.97861-1.82532-1.8938l-.043-.04285c-.63362-.61364-1.279-1.21333-1.95044-1.78137l-.00317-.00281-.00293-.00244a41.18733,41.18733,0,0,0-6.61768-4.6568c-.0415-.02362-.0835-.04669-.125-.07019q-.62842-.35468-1.26831-.68756c-.05859-.0304-.11694-.06073-.17566-.09088q-.63483-.32648-1.2804-.63135c-.05054-.02393-.10107-.0484-.15186-.07214-.46875-.21906-.94012-.43255-1.41772-.63214l-.0144-.00641-.00024.00012a41.98577,41.98577,0,0,0-56.73657,50.126c.18518.65424.39038,1.29718.60425,1.93512-23.505,10.24384-38.21851,21.1546-36.19116,28.317a5.03159,5.03159,0,0,0,.63867,1.34186l-.25049.02905s6.19971,16.17371,48.34717,11.60626l5.948,21.01312a4.33188,4.33188,0,1,0,3.821-1.08185l-5.77881-20.415a259.93435,259.93435,0,0,0,36.387-7.84473,265.258,265.258,0,0,0,33.547-11.7016l5.71338,20.18445a4.33223,4.33223,0,1,0,3.821-1.08173L176.5139,143.665C216.42515,125.19535,213.14927,107.71933,213.14927,107.71933Z"/><path class="cls-8" d="M212.44238,107.01244l-.22864.10657a5.03185,5.03185,0,0,0-.15942-1.47748c-2.02734-7.16235-20.27649-8.74274-45.66333-5.14722-.15234-.65533-.31458-1.31049-.49976-1.96472a41.81791,41.81791,0,0,0-9.2052-16.67914q-.88312-.97861-1.82532-1.8938l-.043-.04285c-.63362-.61364-1.279-1.21333-1.95044-1.78137l-.00317-.00281-.00293-.00244a41.18733,41.18733,0,0,0-6.61768-4.6568c-.0415-.02362-.0835-.04669-.125-.07019q-.62842-.35468-1.26831-.68756c-.05859-.0304-.11694-.06073-.17566-.09088q-.63483-.32648-1.2804-.63135c-.05054-.02393-.10107-.0484-.15186-.07214-.46875-.21906-.94012-.43255-1.41772-.63214l-.0144-.00641-.00024.00012a41.98577,41.98577,0,0,0-56.73657,50.126c.18518.65424.39038,1.29718.60425,1.93512-23.505,10.24384-38.21851,21.1546-36.19116,28.317a5.03159,5.03159,0,0,0,.63867,1.34186l-.25049.02905s6.19971,16.17371,48.34717,11.60626l5.948,21.01312a4.33188,4.33188,0,1,0,3.821-1.08185l-5.77881-20.415a259.93437,259.93437,0,0,0,36.387-7.84473,265.258,265.258,0,0,0,33.547-11.7016l5.71338,20.18445a4.33223,4.33223,0,1,0,3.821-1.08173L175.807,142.95811C215.71825,124.48845,212.44238,107.01244,212.44238,107.01244Z"/><path class="cls-9" d="M211.73548,106.30554l-.22864.10657a5.03184,5.03184,0,0,0-.15942-1.47748c-2.02734-7.16235-20.27649-8.74274-45.66333-5.14722-.15234-.65533-.31458-1.31049-.49976-1.96472a41.81791,41.81791,0,0,0-9.2052-16.67914q-.88312-.97861-1.82532-1.8938l-.043-.04285c-.63362-.61364-1.279-1.21333-1.95044-1.78137l-.00317-.00281-.00293-.00244a41.18733,41.18733,0,0,0-6.61768-4.6568c-.0415-.02362-.0835-.04669-.125-.07019q-.62842-.35468-1.26831-.68756c-.05859-.0304-.11694-.06073-.17566-.09088q-.63483-.32648-1.2804-.63135c-.05054-.02393-.10107-.0484-.15186-.07214-.46875-.21906-.94012-.43255-1.41772-.63214l-.0144-.00641-.00024.00012a41.98577,41.98577,0,0,0-56.73657,50.126c.18518.65424.39038,1.29718.60425,1.93512-23.505,10.24384-38.21851,21.1546-36.19116,28.317a5.03159,5.03159,0,0,0,.63867,1.34186l-.25049.02905s6.19971,16.17371,48.34717,11.60626l5.948,21.01312a4.33188,4.33188,0,1,0,3.821-1.08185l-5.77881-20.415a259.93435,259.93435,0,0,0,36.387-7.84473,265.258,265.258,0,0,0,33.547-11.7016l5.71338,20.18445a4.33223,4.33223,0,1,0,3.821-1.08173l-5.87341-20.74969C215.01136,123.78155,211.73548,106.30554,211.73548,106.30554Z"/><path class="cls-10" d="M211.02858,105.59864l-.22864.10657a5.03185,5.03185,0,0,0-.15942-1.47748c-2.02734-7.16235-20.27649-8.74274-45.66333-5.14722-.15234-.65533-.31458-1.31049-.49976-1.96472a41.81791,41.81791,0,0,0-9.2052-16.67914q-.88312-.97861-1.82532-1.8938l-.043-.04285c-.63362-.61364-1.279-1.21333-1.95044-1.78137l-.00317-.00281-.00293-.00244a41.18733,41.18733,0,0,0-6.61768-4.6568c-.0415-.02362-.0835-.04669-.125-.07019q-.62842-.35468-1.26831-.68756c-.05859-.0304-.11694-.06073-.17566-.09088q-.63483-.32648-1.2804-.63135c-.05054-.02393-.10107-.0484-.15186-.07214-.46875-.21906-.94012-.43255-1.41772-.63214l-.0144-.00641-.00024.00012a41.98577,41.98577,0,0,0-56.73657,50.126c.18518.65424.39038,1.29718.60425,1.93512-23.505,10.24384-38.21851,21.1546-36.19116,28.317a5.03159,5.03159,0,0,0,.63867,1.34186l-.25049.02905s6.19971,16.17371,48.34717,11.60626l5.948,21.01312a4.33188,4.33188,0,1,0,3.821-1.08185l-5.77881-20.415a259.93437,259.93437,0,0,0,36.387-7.84473,265.258,265.258,0,0,0,33.547-11.7016l5.71338,20.18445a4.33223,4.33223,0,1,0,3.821-1.08173l-5.87341-20.74969C214.30446,123.07466,211.02858,105.59864,211.02858,105.59864Z"/><path class="cls-11" d="M210.32169,104.89175l-.22864.10657a5.03184,5.03184,0,0,0-.15942-1.47748c-2.02734-7.16235-20.27649-8.74274-45.66333-5.14722-.15234-.65533-.31458-1.31049-.49976-1.96472a41.81791,41.81791,0,0,0-9.2052-16.67914q-.88312-.97861-1.82532-1.8938l-.043-.04285c-.63362-.61364-1.279-1.21333-1.95044-1.78137l-.00317-.00281-.00293-.00244a41.18733,41.18733,0,0,0-6.61768-4.6568c-.0415-.02362-.0835-.04669-.125-.07019q-.62842-.35468-1.26831-.68756c-.05859-.0304-.11694-.06073-.17566-.09088q-.63483-.32648-1.2804-.63135c-.05054-.02393-.10107-.0484-.15186-.07214-.46875-.21906-.94012-.43255-1.41772-.63214l-.0144-.00641-.00024.00012a41.98577,41.98577,0,0,0-56.73657,50.126c.18518.65424.39038,1.29718.60425,1.93512-23.505,10.24384-38.21851,21.1546-36.19116,28.317a5.03159,5.03159,0,0,0,.63867,1.34186l-.25049.02905s6.19971,16.17371,48.34717,11.60626l5.948,21.01312a4.33188,4.33188,0,1,0,3.821-1.08185l-5.77881-20.415a259.93436,259.93436,0,0,0,36.387-7.84473,265.258,265.258,0,0,0,33.547-11.7016l5.71338,20.18445a4.33223,4.33223,0,1,0,3.821-1.08173l-5.87341-20.74969C213.59757,122.36776,210.32169,104.89175,210.32169,104.89175Z"/><path class="cls-12" d="M209.61479,104.18485l-.22864.10657a5.03185,5.03185,0,0,0-.15942-1.47748c-2.02734-7.16235-20.27649-8.74274-45.66333-5.14722-.15234-.65533-.31458-1.31049-.49976-1.96472a41.81791,41.81791,0,0,0-9.2052-16.67914q-.88312-.97861-1.82532-1.8938l-.043-.04285c-.63362-.61364-1.279-1.21333-1.95044-1.78137l-.00317-.00281-.00293-.00244a41.18733,41.18733,0,0,0-6.61768-4.6568c-.0415-.02362-.0835-.04669-.125-.07019q-.62842-.35468-1.26831-.68756c-.05859-.0304-.11694-.06073-.17566-.09088q-.63483-.32648-1.2804-.63135c-.05054-.02393-.10107-.0484-.15186-.07214-.46875-.21906-.94012-.43255-1.41772-.63214l-.0144-.00641-.00024.00012a41.98577,41.98577,0,0,0-56.73657,50.126c.18518.65424.39038,1.29718.60425,1.93512-23.505,10.24384-38.21851,21.1546-36.19116,28.317a5.03159,5.03159,0,0,0,.63867,1.34186l-.25049.02905s6.19971,16.17371,48.34717,11.60626l5.948,21.01312a4.33188,4.33188,0,1,0,3.821-1.08185l-5.77881-20.415a259.93437,259.93437,0,0,0,36.387-7.84473,265.258,265.258,0,0,0,33.547-11.7016l5.71338,20.18445a4.33223,4.33223,0,1,0,3.821-1.08173l-5.87341-20.74969C212.89067,121.66086,209.61479,104.18485,209.61479,104.18485Z"/><path class="cls-13" d="M208.90789,103.478l-.22864.10657a5.03185,5.03185,0,0,0-.15942-1.47748c-2.02734-7.16235-20.27649-8.74274-45.66333-5.14722-.15234-.65533-.31458-1.31049-.49976-1.96472a41.81791,41.81791,0,0,0-9.2052-16.67914q-.88312-.97861-1.82532-1.8938l-.043-.04285c-.63362-.61364-1.279-1.21333-1.95044-1.78137l-.00317-.00281-.00293-.00244a41.18733,41.18733,0,0,0-6.61768-4.6568c-.0415-.02362-.0835-.04669-.125-.07019q-.62842-.35468-1.26831-.68756c-.05859-.0304-.11694-.06073-.17566-.09088q-.63483-.32648-1.2804-.63135c-.05054-.02393-.10107-.0484-.15186-.07214-.46875-.21906-.94012-.43255-1.41772-.63214l-.0144-.00641-.00024.00012a41.98577,41.98577,0,0,0-56.73657,50.126c.18518.65424.39038,1.29718.60425,1.93512-23.505,10.24384-38.21851,21.1546-36.19116,28.317a5.03159,5.03159,0,0,0,.63867,1.34186l-.25049.02905s6.19971,16.17371,48.34717,11.60626l5.948,21.01312a4.33188,4.33188,0,1,0,3.821-1.08185l-5.77881-20.415a259.93436,259.93436,0,0,0,36.387-7.84473,265.258,265.258,0,0,0,33.547-11.7016l5.71338,20.18445a4.33223,4.33223,0,1,0,3.821-1.08173l-5.87341-20.74969C212.18377,120.954,208.90789,103.478,208.90789,103.478Z"/><path class="cls-14" d="M208.201,102.77106l-.22864.10657a5.03185,5.03185,0,0,0-.15942-1.47748c-2.02734-7.16235-20.27649-8.74274-45.66333-5.14722-.15234-.65533-.31458-1.31049-.49976-1.96472a41.81791,41.81791,0,0,0-9.2052-16.67914q-.88312-.97861-1.82532-1.8938l-.043-.04285c-.63362-.61364-1.279-1.21333-1.95044-1.78137l-.00317-.00281-.00293-.00244a41.18733,41.18733,0,0,0-6.61768-4.6568c-.0415-.02362-.0835-.04669-.125-.07019q-.62842-.35468-1.26831-.68756c-.05859-.0304-.11694-.06073-.17566-.09088q-.63483-.32648-1.2804-.63135c-.05054-.02393-.10107-.0484-.15186-.07214-.46875-.21906-.94012-.43255-1.41772-.63214l-.0144-.00641-.00024.00012a41.98577,41.98577,0,0,0-56.73657,50.126c.18518.65424.39038,1.29718.60425,1.93512-23.505,10.24384-38.21851,21.1546-36.19116,28.317a5.03159,5.03159,0,0,0,.63867,1.34186l-.25049.02905s6.19971,16.17371,48.34717,11.60626l5.948,21.01312a4.33188,4.33188,0,1,0,3.821-1.08185L97.97065,159.91a259.93436,259.93436,0,0,0,36.387-7.84473,265.258,265.258,0,0,0,33.547-11.7016l5.71338,20.18445a4.33223,4.33223,0,1,0,3.821-1.08173l-5.87341-20.74969C211.47688,120.24707,208.201,102.77106,208.201,102.77106Z"/><path class="cls-15" d="M207.4941,102.06416l-.22864.10657a5.03185,5.03185,0,0,0-.15942-1.47748c-2.02734-7.16235-20.27649-8.74274-45.66333-5.14722-.15234-.65533-.31458-1.31049-.49976-1.96472a41.81791,41.81791,0,0,0-9.2052-16.67914q-.88312-.97861-1.82532-1.8938l-.043-.04285c-.63362-.61364-1.279-1.21333-1.95044-1.78137l-.00317-.00281-.00293-.00244a41.18734,41.18734,0,0,0-6.61768-4.6568c-.0415-.02362-.0835-.04669-.125-.07019q-.62842-.35468-1.26831-.68756c-.05859-.0304-.11694-.06073-.17566-.09088q-.63483-.32648-1.2804-.63135c-.05054-.02393-.10107-.0484-.15186-.07214-.46875-.21906-.94012-.43255-1.41772-.63214l-.0144-.00641-.00024.00012a41.98577,41.98577,0,0,0-56.73657,50.126c.18518.65424.39038,1.29718.60425,1.93512-23.505,10.24384-38.21851,21.1546-36.19116,28.317a5.03159,5.03159,0,0,0,.63867,1.34186l-.25049.02905s6.19971,16.17371,48.34717,11.60626L99.22152,180.7a4.33188,4.33188,0,1,0,3.821-1.08185l-5.77881-20.415a259.93436,259.93436,0,0,0,36.387-7.84473,265.258,265.258,0,0,0,33.547-11.7016l5.71338,20.18445a4.33223,4.33223,0,1,0,3.821-1.08173l-5.87341-20.74969C210.77,119.54017,207.4941,102.06416,207.4941,102.06416Z"/><path class="cls-16" d="M206.7872,101.35726l-.22864.10657a5.03184,5.03184,0,0,0-.15942-1.47748c-2.02734-7.16235-20.27649-8.74274-45.66333-5.14722-.15234-.65533-.31458-1.31049-.49976-1.96472a41.81791,41.81791,0,0,0-9.2052-16.67914q-.88312-.97861-1.82532-1.8938l-.043-.04285c-.63362-.61364-1.279-1.21333-1.95044-1.78137l-.00317-.00281L147.206,72.472a41.18733,41.18733,0,0,0-6.61768-4.6568c-.0415-.02362-.0835-.04669-.125-.07019q-.62842-.35468-1.26831-.68756c-.05859-.0304-.11694-.06073-.17566-.09088q-.63483-.32648-1.2804-.63135c-.05054-.02393-.10107-.0484-.15186-.07214-.46875-.21906-.94012-.43255-1.41772-.63214l-.0144-.00641-.00024.00012a41.98577,41.98577,0,0,0-56.73657,50.126c.18518.65424.39038,1.29718.60425,1.93512-23.505,10.24384-38.21851,21.1546-36.19116,28.317a5.03159,5.03159,0,0,0,.63867,1.34186l-.25049.02905s6.19971,16.17371,48.34717,11.60626l5.948,21.01312a4.33188,4.33188,0,1,0,3.821-1.08185l-5.77881-20.415a259.93436,259.93436,0,0,0,36.387-7.84473,265.258,265.258,0,0,0,33.547-11.7016l5.71338,20.18445a4.33223,4.33223,0,1,0,3.821-1.08173l-5.87341-20.74969C210.06308,118.83328,206.7872,101.35726,206.7872,101.35726Z"/><path class="cls-17" d="M206.08031,100.65037l-.22864.10657a5.03185,5.03185,0,0,0-.15942-1.47748c-2.02734-7.16235-20.27649-8.74274-45.66333-5.14722-.15234-.65533-.31458-1.31049-.49976-1.96472a41.81791,41.81791,0,0,0-9.2052-16.67914q-.88312-.97861-1.82532-1.8938l-.043-.04285c-.63362-.61364-1.279-1.21333-1.95044-1.78137l-.00317-.00281-.00293-.00244a41.18734,41.18734,0,0,0-6.61768-4.6568c-.0415-.02362-.0835-.04669-.125-.07019q-.62842-.35468-1.26831-.68756c-.05859-.0304-.11694-.06073-.17566-.09088q-.63483-.32648-1.2804-.63135c-.05054-.02393-.10107-.0484-.15186-.07214-.46875-.21906-.94012-.43255-1.41772-.63214l-.0144-.00641-.00024.00012a41.98577,41.98577,0,0,0-56.73657,50.126c.18518.65424.39038,1.29718.60425,1.93512-23.505,10.24384-38.21851,21.1546-36.19116,28.317a5.03159,5.03159,0,0,0,.63867,1.34186l-.25049.02905s6.19971,16.17371,48.34717,11.60626l5.948,21.01312a4.33188,4.33188,0,1,0,3.821-1.08185L95.85,157.78934a259.93436,259.93436,0,0,0,36.387-7.84473,265.258,265.258,0,0,0,33.547-11.7016l5.71338,20.18445a4.33223,4.33223,0,1,0,3.821-1.08173L169.44493,136.596C209.35619,118.12638,206.08031,100.65037,206.08031,100.65037Z"/><path class="cls-18" d="M205.37341,99.94347l-.22864.10657a5.03184,5.03184,0,0,0-.15942-1.47748c-2.02734-7.16235-20.27649-8.74274-45.66333-5.14722-.15234-.65533-.31458-1.31049-.49976-1.96472a41.81791,41.81791,0,0,0-9.2052-16.67914q-.88312-.97861-1.82532-1.8938l-.043-.04285c-.63362-.61364-1.279-1.21333-1.95044-1.78137l-.00317-.00281-.00293-.00244a41.18733,41.18733,0,0,0-6.61768-4.6568c-.0415-.02362-.0835-.04669-.125-.07019q-.62842-.35468-1.26831-.68756c-.05859-.0304-.11694-.06073-.17566-.09088q-.63483-.32648-1.2804-.63135c-.05054-.02393-.10107-.0484-.15186-.07214-.46875-.21906-.94012-.43255-1.41772-.63214l-.0144-.00641-.00024.00012a41.98577,41.98577,0,0,0-56.73657,50.126c.18518.65424.39038,1.29718.60425,1.93512-23.505,10.24384-38.21851,21.1546-36.19116,28.317a5.03159,5.03159,0,0,0,.63867,1.34186l-.25049.02905s6.19971,16.17371,48.34717,11.60626l5.948,21.01312a4.33188,4.33188,0,1,0,3.821-1.08185l-5.77881-20.415a259.93436,259.93436,0,0,0,36.387-7.84473,265.258,265.258,0,0,0,33.547-11.7016l5.71338,20.18445a4.33223,4.33223,0,1,0,3.821-1.08173L168.738,135.88915C208.64929,117.41948,205.37341,99.94347,205.37341,99.94347Z"/><path class="cls-19" d="M204.66651,99.23657l-.22864.10657a5.03185,5.03185,0,0,0-.15942-1.47748c-2.02734-7.16235-20.27649-8.74274-45.66333-5.14722-.15234-.65533-.31458-1.31049-.49976-1.96472a41.81791,41.81791,0,0,0-9.2052-16.67914q-.88312-.97861-1.82532-1.8938l-.043-.04285c-.63362-.61364-1.279-1.21333-1.95044-1.78137l-.00317-.00281-.00293-.00244a41.18734,41.18734,0,0,0-6.61768-4.6568c-.0415-.02362-.0835-.04669-.125-.07019q-.62842-.35468-1.26831-.68756c-.05859-.0304-.11694-.06073-.17566-.09088q-.63483-.32648-1.2804-.63135c-.05054-.02393-.10107-.0484-.15186-.07214-.46875-.21906-.94012-.43255-1.41772-.63214l-.0144-.00641-.00024.00012A41.98577,41.98577,0,0,0,77.2975,113.63c.18518.65424.39038,1.29718.60425,1.93512-23.505,10.24384-38.21851,21.1546-36.19116,28.317a5.03159,5.03159,0,0,0,.63867,1.34186l-.25049.02905s6.19971,16.17371,48.34717,11.60626l5.948,21.01312a4.33188,4.33188,0,1,0,3.821-1.08185l-5.77881-20.415a259.93436,259.93436,0,0,0,36.387-7.84473,265.258,265.258,0,0,0,33.547-11.7016l5.71338,20.18445a4.33223,4.33223,0,1,0,3.821-1.08173l-5.87341-20.74969C207.94239,116.71259,204.66651,99.23657,204.66651,99.23657Z"/><path class="cls-20" d="M203.95962,98.52968l-.22864.10657a5.03184,5.03184,0,0,0-.15942-1.47748c-2.02734-7.16235-20.27649-8.74274-45.66333-5.14722-.15234-.65533-.31458-1.31049-.49976-1.96472a41.81791,41.81791,0,0,0-9.2052-16.67914q-.88312-.97861-1.82532-1.8938l-.043-.04285c-.63362-.61364-1.279-1.21333-1.95044-1.78137l-.00317-.00281-.00293-.00244a41.18733,41.18733,0,0,0-6.61768-4.6568c-.0415-.02362-.0835-.04669-.125-.07019q-.62842-.35468-1.26831-.68756c-.05859-.0304-.11694-.06073-.17566-.09088q-.63483-.32648-1.2804-.63135c-.05054-.02393-.10107-.0484-.15186-.07214-.46875-.21906-.94012-.43255-1.41772-.63214l-.0144-.00641-.00024.00012a41.98577,41.98577,0,0,0-56.73657,50.126c.18518.65424.39038,1.29718.60425,1.93512-23.505,10.24384-38.21851,21.1546-36.19116,28.317a5.03159,5.03159,0,0,0,.63867,1.34186l-.25049.02905S47.59158,160.7198,89.739,156.15236l5.948,21.01312a4.33188,4.33188,0,1,0,3.821-1.08185l-5.77881-20.415a259.93436,259.93436,0,0,0,36.387-7.84473,265.258,265.258,0,0,0,33.547-11.7016l5.71338,20.18445a4.33223,4.33223,0,1,0,3.821-1.08173l-5.87341-20.74969C207.2355,116.00569,203.95962,98.52968,203.95962,98.52968Z"/><path class="cls-21" d="M203.25272,97.82278l-.22864.10657a5.03185,5.03185,0,0,0-.15942-1.47748c-2.02734-7.16235-20.27649-8.74274-45.66333-5.14722-.15234-.65533-.31458-1.31049-.49976-1.96472a41.81791,41.81791,0,0,0-9.2052-16.67914q-.88312-.97861-1.82532-1.8938l-.043-.04285c-.63362-.61364-1.279-1.21333-1.95044-1.78137l-.00317-.00281-.00293-.00244a41.18734,41.18734,0,0,0-6.61768-4.6568c-.0415-.02362-.0835-.04669-.125-.07019q-.62842-.35468-1.26831-.68756c-.05859-.0304-.11694-.06073-.17566-.09088q-.63483-.32648-1.2804-.63135c-.05054-.02393-.10107-.0484-.15186-.07214-.46875-.21906-.94012-.43255-1.41772-.63214l-.0144-.00641-.00024.00012a41.98577,41.98577,0,0,0-56.73657,50.126c.18518.65424.39038,1.29718.60425,1.93512-23.505,10.24384-38.21851,21.1546-36.19116,28.317a5.03159,5.03159,0,0,0,.63867,1.34186l-.25049.02905s6.19971,16.17371,48.34717,11.60626l5.948,21.01312a4.33188,4.33188,0,1,0,3.821-1.08185l-5.77881-20.415a259.93436,259.93436,0,0,0,36.387-7.84473,265.258,265.258,0,0,0,33.547-11.7016l5.71338,20.18445a4.33223,4.33223,0,1,0,3.821-1.08173l-5.87341-20.74969C206.5286,115.29879,203.25272,97.82278,203.25272,97.82278Z"/><path class="cls-22" d="M202.54582,97.11588l-.22864.10657a5.03184,5.03184,0,0,0-.15942-1.47748c-2.02734-7.16235-20.27649-8.74274-45.66333-5.14722-.15234-.65533-.31458-1.31049-.49976-1.96472a41.81791,41.81791,0,0,0-9.2052-16.67914q-.88312-.97861-1.82532-1.8938l-.043-.04285c-.63362-.61364-1.279-1.21333-1.95044-1.78137l-.00317-.00281-.00293-.00244a41.18733,41.18733,0,0,0-6.61768-4.6568c-.0415-.02362-.0835-.04669-.125-.07019q-.62842-.35468-1.26831-.68756c-.05859-.0304-.11694-.06073-.17566-.09088q-.63483-.32648-1.2804-.63135c-.05054-.02393-.10107-.0484-.15186-.07214-.46875-.21906-.94012-.43255-1.41772-.63214l-.0144-.00641-.00024.00012a41.98577,41.98577,0,0,0-56.73657,50.126c.18518.65424.39038,1.29718.60425,1.93512-23.505,10.24384-38.21851,21.1546-36.19116,28.317a5.03159,5.03159,0,0,0,.63867,1.34186l-.25049.02905s6.19971,16.17371,48.34717,11.60626l5.948,21.01312a4.33188,4.33188,0,1,0,3.821-1.08185l-5.77881-20.415a259.93436,259.93436,0,0,0,36.387-7.84473,265.258,265.258,0,0,0,33.547-11.7016l5.71338,20.18445a4.33223,4.33223,0,1,0,3.821-1.08173l-5.87341-20.74969C205.8217,114.5919,202.54582,97.11588,202.54582,97.11588Z"/><path class="cls-23" d="M201.83893,96.409l-.22864.10657a5.03185,5.03185,0,0,0-.15942-1.47748c-2.02734-7.16235-20.27649-8.74274-45.66333-5.14722-.15234-.65533-.31458-1.31049-.49976-1.96472a41.81791,41.81791,0,0,0-9.2052-16.67914q-.88312-.97861-1.82532-1.8938l-.043-.04285c-.63362-.61364-1.279-1.21333-1.95044-1.78137l-.00317-.00281-.00293-.00244a41.18734,41.18734,0,0,0-6.61768-4.6568c-.0415-.02362-.0835-.04669-.125-.07019q-.62842-.35468-1.26831-.68756c-.05859-.0304-.11694-.06073-.17566-.09088q-.63483-.32648-1.2804-.63135c-.05054-.02393-.10107-.0484-.15186-.07214-.46875-.21906-.94012-.43255-1.41772-.63214l-.0144-.00641-.00024.00012a41.98577,41.98577,0,0,0-56.73657,50.126c.18518.65424.39038,1.29718.60425,1.93512-23.505,10.24384-38.21851,21.1546-36.19116,28.317a5.03159,5.03159,0,0,0,.63867,1.34186l-.25049.02905s6.19971,16.17371,48.34717,11.60626l5.948,21.01312a4.33188,4.33188,0,1,0,3.821-1.08185l-5.77881-20.415a259.93436,259.93436,0,0,0,36.387-7.84473,265.258,265.258,0,0,0,33.547-11.7016l5.71338,20.18445a4.33223,4.33223,0,1,0,3.821-1.08173l-5.87341-20.74969C205.11481,113.885,201.83893,96.409,201.83893,96.409Z"/><path class="cls-24" d="M201.132,95.70209l-.22864.10657a5.03184,5.03184,0,0,0-.15942-1.47748c-2.02734-7.16235-20.27649-8.74274-45.66333-5.14722-.15234-.65533-.31458-1.31049-.49976-1.96472a41.81791,41.81791,0,0,0-9.2052-16.67914q-.88312-.97861-1.82532-1.8938l-.043-.04285c-.63362-.61364-1.279-1.21333-1.95044-1.78137l-.00317-.00281-.00293-.00244a41.18733,41.18733,0,0,0-6.61768-4.6568c-.0415-.02362-.0835-.04669-.125-.07019q-.62842-.35468-1.26831-.68756c-.05859-.0304-.11694-.06073-.17566-.09088q-.63483-.32648-1.2804-.63135c-.05054-.02393-.10107-.0484-.15186-.07214-.46875-.21906-.94012-.43255-1.41772-.63214l-.0144-.00641-.00024.00012a41.98577,41.98577,0,0,0-56.73657,50.126c.18518.65424.39038,1.29718.60425,1.93512-23.505,10.24384-38.21851,21.1546-36.19116,28.317a5.03159,5.03159,0,0,0,.63867,1.34186l-.25049.02905s6.19971,16.17371,48.34717,11.60626l5.948,21.01312a4.33188,4.33188,0,1,0,3.821-1.08185l-5.77881-20.415a259.93436,259.93436,0,0,0,36.387-7.84473,265.258,265.258,0,0,0,33.547-11.7016l5.71338,20.18445a4.33223,4.33223,0,1,0,3.821-1.08173l-5.87341-20.74969C204.40791,113.1781,201.132,95.70209,201.132,95.70209Z"/><path class="cls-25" d="M200.42513,94.99519l-.22864.10657a5.03185,5.03185,0,0,0-.15942-1.47748c-2.02734-7.16235-20.27649-8.74274-45.66333-5.14722-.15234-.65533-.31458-1.31049-.49976-1.96472a41.81791,41.81791,0,0,0-9.2052-16.67914q-.88312-.97861-1.82532-1.8938l-.043-.04285c-.63362-.61364-1.279-1.21333-1.95044-1.78137l-.00317-.00281-.00293-.00244a41.18733,41.18733,0,0,0-6.61768-4.6568c-.0415-.02362-.0835-.04669-.125-.07019q-.62842-.35468-1.26831-.68756c-.05859-.0304-.11694-.06073-.17566-.09088q-.63483-.32648-1.2804-.63135c-.05054-.02393-.10107-.0484-.15186-.07214-.46875-.21906-.94012-.43255-1.41772-.63214l-.0144-.00641-.00024.00012a41.98577,41.98577,0,0,0-56.73657,50.126c.18518.65424.39038,1.29718.60425,1.93512-23.505,10.24384-38.21851,21.1546-36.19116,28.317a5.03159,5.03159,0,0,0,.63867,1.34186l-.25049.02905s6.19971,16.17371,48.34717,11.60626l5.948,21.01312a4.33188,4.33188,0,1,0,3.821-1.08185l-5.77881-20.415a259.93436,259.93436,0,0,0,36.387-7.84473,265.258,265.258,0,0,0,33.547-11.7016l5.71338,20.18445a4.33223,4.33223,0,1,0,3.821-1.08173l-5.87341-20.74969C203.701,112.47121,200.42513,94.99519,200.42513,94.99519Z"/><path class="cls-26" d="M199.71824,94.2883l-.22864.10657a5.03184,5.03184,0,0,0-.15942-1.47748c-2.02734-7.16235-20.27649-8.74274-45.66333-5.14722-.15234-.65533-.31458-1.31049-.49976-1.96472a41.81791,41.81791,0,0,0-9.2052-16.67914q-.88312-.97861-1.82532-1.8938l-.043-.04285c-.63362-.61364-1.279-1.21333-1.95044-1.78137l-.00317-.00281-.00293-.00244a41.18733,41.18733,0,0,0-6.61768-4.6568c-.0415-.02362-.0835-.04669-.125-.07019q-.62842-.35468-1.26831-.68756c-.05859-.0304-.11694-.06073-.17566-.09088q-.63483-.32648-1.2804-.63135c-.05054-.02393-.10107-.0484-.15186-.07214-.46875-.21906-.94012-.43255-1.41772-.63214l-.0144-.00641-.00024.00012a41.98577,41.98577,0,0,0-56.73657,50.126c.18518.65424.39038,1.29718.60425,1.93512-23.505,10.24384-38.21851,21.1546-36.19116,28.317a5.03159,5.03159,0,0,0,.63867,1.34186l-.25049.02905S43.3502,156.47842,85.49766,151.911l5.948,21.01312a4.33188,4.33188,0,1,0,3.821-1.08185l-5.77881-20.415a259.93436,259.93436,0,0,0,36.387-7.84473,265.258,265.258,0,0,0,33.547-11.7016l5.71338,20.18445a4.33223,4.33223,0,1,0,3.821-1.08173L163.08286,130.234C202.99412,111.76431,199.71824,94.2883,199.71824,94.2883Z"/><path class="cls-27" d="M199.01134,93.5814l-.22864.10657a5.03185,5.03185,0,0,0-.15942-1.47748c-2.02734-7.16235-20.27649-8.74274-45.66333-5.14722-.15234-.65533-.31458-1.31049-.49976-1.96472a41.81791,41.81791,0,0,0-9.2052-16.67914q-.88312-.97861-1.82532-1.8938l-.043-.04285c-.63362-.61364-1.279-1.21333-1.95044-1.78137l-.00317-.00281-.00293-.00244a41.18733,41.18733,0,0,0-6.61768-4.6568c-.0415-.02362-.0835-.04669-.125-.07019q-.62842-.35468-1.26831-.68756c-.05859-.0304-.11694-.06073-.17566-.09088q-.63483-.32648-1.2804-.63135c-.05054-.02393-.10107-.0484-.15186-.07214-.46875-.21906-.94012-.43255-1.41772-.63214l-.0144-.00641-.00024.00012a41.98577,41.98577,0,0,0-56.73657,50.126c.18518.65424.39038,1.29718.60425,1.93512-23.505,10.24384-38.21851,21.1546-36.19116,28.317a5.03159,5.03159,0,0,0,.63867,1.34186l-.25049.02905s6.19971,16.17371,48.34717,11.60626l5.948,21.01312a4.33188,4.33188,0,1,0,3.821-1.08185l-5.77881-20.415a259.93437,259.93437,0,0,0,36.387-7.84473,265.258,265.258,0,0,0,33.547-11.7016l5.71338,20.18445a4.33223,4.33223,0,1,0,3.821-1.08173L162.376,129.52708C202.28722,111.05741,199.01134,93.5814,199.01134,93.5814Z"/><path class="cls-28" d="M198.30444,92.8745l-.22864.10657a5.03184,5.03184,0,0,0-.15942-1.47748c-2.02734-7.16235-20.27649-8.74274-45.66333-5.14722-.15234-.65533-.31458-1.31049-.49976-1.96472a41.81791,41.81791,0,0,0-9.2052-16.67914q-.88312-.97861-1.82532-1.8938l-.043-.04285c-.63362-.61364-1.279-1.21333-1.95044-1.78137l-.00317-.00281-.00293-.00244a41.18733,41.18733,0,0,0-6.61768-4.6568c-.0415-.02362-.0835-.04669-.125-.07019q-.62842-.35468-1.26831-.68756c-.05859-.0304-.11694-.06073-.17566-.09088q-.63483-.32648-1.2804-.63135c-.05054-.02393-.10107-.0484-.15186-.07214-.46875-.21906-.94012-.43255-1.41772-.63214l-.0144-.00641-.00024.00012a41.98577,41.98577,0,0,0-56.73657,50.126c.18518.65424.39038,1.29718.60425,1.93512-23.505,10.24384-38.21851,21.1546-36.19116,28.317a5.03159,5.03159,0,0,0,.63867,1.34186l-.25049.02905s6.19971,16.17371,48.34717,11.60626l5.948,21.01312a4.33188,4.33188,0,1,0,3.821-1.08185l-5.77881-20.415a259.93436,259.93436,0,0,0,36.387-7.84473,265.258,265.258,0,0,0,33.547-11.7016l5.71338,20.18445a4.33223,4.33223,0,1,0,3.821-1.08173l-5.87341-20.74969C201.58032,110.35052,198.30444,92.8745,198.30444,92.8745Z"/><path class="cls-29" d="M197.59755,92.16761l-.22864.10657a5.03185,5.03185,0,0,0-.15942-1.47748c-2.02734-7.16235-20.27649-8.74274-45.66333-5.14722-.15234-.65533-.31458-1.31049-.49976-1.96472a41.81791,41.81791,0,0,0-9.2052-16.67914q-.88312-.97861-1.82532-1.8938l-.043-.04285c-.63362-.61364-1.279-1.21333-1.95044-1.78137l-.00317-.00281-.00293-.00244a41.18733,41.18733,0,0,0-6.61768-4.6568c-.0415-.02362-.0835-.04669-.125-.07019q-.62842-.35468-1.26831-.68756c-.05859-.0304-.11694-.06073-.17566-.09088q-.63483-.32648-1.2804-.63135c-.05054-.02393-.10107-.0484-.15186-.07214-.46875-.21906-.94012-.43255-1.41772-.63214l-.0144-.00641-.00024.00012a41.98577,41.98577,0,0,0-56.73657,50.126c.18518.65424.39038,1.29718.60425,1.93512-23.505,10.24384-38.21851,21.1546-36.19116,28.317a5.03159,5.03159,0,0,0,.63867,1.34186l-.25049.02905s6.19971,16.17371,48.34717,11.60626l5.948,21.01312a4.33188,4.33188,0,1,0,3.821-1.08185l-5.77881-20.415a259.93437,259.93437,0,0,0,36.387-7.84473,265.258,265.258,0,0,0,33.547-11.7016l5.71338,20.18445a4.33223,4.33223,0,1,0,3.821-1.08173l-5.87341-20.74969C200.87343,109.64362,197.59755,92.16761,197.59755,92.16761Z"/><path class="cls-30" d="M196.89065,91.46071l-.22864.10657a5.03184,5.03184,0,0,0-.15942-1.47748c-2.02734-7.16235-20.27649-8.74274-45.66333-5.14722-.15234-.65533-.31458-1.31049-.49976-1.96472a41.81791,41.81791,0,0,0-9.2052-16.67914q-.88312-.97861-1.82532-1.8938l-.043-.04285c-.63362-.61364-1.279-1.21333-1.95044-1.78137l-.00317-.00281-.00293-.00244a41.18733,41.18733,0,0,0-6.61768-4.6568c-.0415-.02362-.0835-.04669-.125-.07019q-.62842-.35468-1.26831-.68756c-.05859-.0304-.11694-.06073-.17566-.09088q-.63483-.32648-1.2804-.63135c-.05054-.02393-.10107-.0484-.15186-.07214-.46875-.21906-.94012-.43255-1.41772-.63214l-.0144-.00641-.00024.00012a41.98577,41.98577,0,0,0-56.73657,50.126c.18518.65424.39038,1.29718.60425,1.93512-23.505,10.24384-38.21851,21.1546-36.19116,28.317a5.03159,5.03159,0,0,0,.63867,1.34186l-.25049.02905s6.19971,16.17371,48.34717,11.60626l5.948,21.01312a4.33188,4.33188,0,1,0,3.821-1.08185l-5.77881-20.415a259.93436,259.93436,0,0,0,36.387-7.84473,265.258,265.258,0,0,0,33.547-11.7016l5.71338,20.18445a4.33223,4.33223,0,1,0,3.821-1.08173l-5.87341-20.74969C200.16653,108.93672,196.89065,91.46071,196.89065,91.46071Z"/><path class="cls-31" d="M196.18376,90.75382l-.22864.10657a5.03185,5.03185,0,0,0-.15942-1.47748c-2.02734-7.16235-20.27649-8.74274-45.66333-5.14722-.15234-.65533-.31458-1.31049-.49976-1.96472a41.81791,41.81791,0,0,0-9.2052-16.67914q-.88312-.97861-1.82532-1.8938l-.043-.04285c-.63362-.61364-1.279-1.21333-1.95044-1.78137l-.00317-.00281-.00293-.00244a41.18733,41.18733,0,0,0-6.61768-4.6568c-.0415-.02362-.0835-.04669-.125-.07019q-.62842-.35468-1.26831-.68756c-.05859-.0304-.11694-.06073-.17566-.09088q-.63483-.32648-1.2804-.63135c-.05054-.02393-.10107-.0484-.15186-.07214-.46875-.21906-.94012-.43255-1.41772-.63214l-.0144-.00641-.00024.00012a41.98577,41.98577,0,0,0-56.73657,50.126c.18518.65424.39038,1.29718.60425,1.93512-23.505,10.24384-38.21851,21.1546-36.19116,28.317a5.03159,5.03159,0,0,0,.63867,1.34186l-.25049.02905s6.19971,16.17371,48.34717,11.60626l5.948,21.01312a4.33188,4.33188,0,1,0,3.821-1.08185l-5.77881-20.415a259.93437,259.93437,0,0,0,36.387-7.84473,265.258,265.258,0,0,0,33.547-11.7016l5.71338,20.18445a4.33223,4.33223,0,1,0,3.821-1.08173l-5.87341-20.74969C199.45963,108.22983,196.18376,90.75382,196.18376,90.75382Z"/><path class="cls-32" d="M195.47686,90.04692l-.22864.10657a5.03184,5.03184,0,0,0-.15942-1.47748c-2.02734-7.16235-20.27649-8.74274-45.66333-5.14722-.15234-.65533-.31458-1.31049-.49976-1.96472a41.81791,41.81791,0,0,0-9.2052-16.67914q-.88312-.97861-1.82532-1.8938l-.043-.04285c-.63362-.61364-1.279-1.21333-1.95044-1.78137l-.00317-.00281-.00293-.00244a41.18733,41.18733,0,0,0-6.61768-4.6568c-.0415-.02362-.0835-.04669-.125-.07019q-.62842-.35468-1.26831-.68756c-.05859-.0304-.11694-.06073-.17566-.09088q-.63483-.32648-1.2804-.63135c-.05054-.02393-.10107-.0484-.15186-.07214-.46875-.21906-.94012-.43255-1.41772-.63214l-.0144-.00641-.00024.00012a41.98577,41.98577,0,0,0-56.73657,50.126c.18518.65424.39038,1.29718.60425,1.93512-23.505,10.24384-38.21851,21.1546-36.19116,28.317a5.03159,5.03159,0,0,0,.63867,1.34186l-.25049.02905S39.10882,152.237,81.25628,147.6696l5.948,21.01312a4.33188,4.33188,0,1,0,3.821-1.08185l-5.77881-20.415a259.93436,259.93436,0,0,0,36.387-7.84473,265.258,265.258,0,0,0,33.547-11.7016l5.71338,20.18445a4.33223,4.33223,0,1,0,3.821-1.08173l-5.87341-20.74969C198.75274,107.52293,195.47686,90.04692,195.47686,90.04692Z"/><path class="cls-33" d="M194.77,89.34l-.22864.10657a5.03185,5.03185,0,0,0-.15942-1.47748c-2.02734-7.16235-20.27649-8.74274-45.66333-5.14722-.15234-.65533-.31458-1.31049-.49976-1.96472a41.81791,41.81791,0,0,0-9.2052-16.67914q-.88312-.97861-1.82532-1.8938l-.043-.04285c-.63362-.61364-1.279-1.21333-1.95044-1.78137l-.00317-.00281-.00293-.00244a41.18733,41.18733,0,0,0-6.61768-4.6568c-.0415-.02362-.0835-.04669-.125-.07019q-.62842-.35468-1.26831-.68756c-.05859-.0304-.11694-.06073-.17566-.09088q-.63483-.32648-1.2804-.63135c-.05054-.02393-.10107-.0484-.15186-.07214-.46875-.21906-.94012-.43255-1.41772-.63214l-.0144-.00641-.00024.00012a41.98577,41.98577,0,0,0-56.73657,50.126c.18518.65424.39038,1.29718.60425,1.93512-23.505,10.24384-38.21851,21.1546-36.19116,28.317a5.03159,5.03159,0,0,0,.63867,1.34186l-.25049.02905s6.19971,16.17371,48.34717,11.60626l5.948,21.01312a4.33188,4.33188,0,1,0,3.821-1.08185l-5.77881-20.415a259.93437,259.93437,0,0,0,36.387-7.84473,265.258,265.258,0,0,0,33.547-11.7016l5.71338,20.18445a4.33223,4.33223,0,1,0,3.821-1.08173l-5.87341-20.74969C198.04584,106.816,194.77,89.34,194.77,89.34Z"/><path class="cls-34" d="M194.06307,88.63313l-.22864.10657a5.03184,5.03184,0,0,0-.15942-1.47748c-2.02734-7.16235-20.27649-8.74274-45.66333-5.14722-.15234-.65533-.31458-1.31049-.49976-1.96472a41.81791,41.81791,0,0,0-9.2052-16.67914q-.88312-.97861-1.82532-1.8938l-.043-.04285c-.63362-.61364-1.279-1.21333-1.95044-1.78137l-.00317-.00281-.00293-.00244a41.18733,41.18733,0,0,0-6.61768-4.6568c-.0415-.02362-.0835-.04669-.125-.07019q-.62842-.35468-1.26831-.68756c-.05859-.0304-.11694-.06073-.17566-.09088q-.63483-.32648-1.2804-.63135c-.05054-.02393-.10107-.0484-.15186-.07214-.46875-.21906-.94012-.43255-1.41772-.63214l-.0144-.00641-.00024.00012a41.98577,41.98577,0,0,0-56.73657,50.126c.18518.65424.39038,1.29718.60425,1.93512-23.505,10.24384-38.21851,21.1546-36.19116,28.317a5.03159,5.03159,0,0,0,.63867,1.34186l-.25049.02905s6.19971,16.17371,48.34717,11.60626l5.948,21.01312a4.33188,4.33188,0,1,0,3.821-1.08185l-5.77881-20.415a259.93435,259.93435,0,0,0,36.387-7.84473,265.258,265.258,0,0,0,33.547-11.7016l5.71338,20.18445a4.33223,4.33223,0,1,0,3.821-1.08173l-5.87341-20.74969C197.33894,106.10914,194.06307,88.63313,194.06307,88.63313Z"/><path class="cls-35" d="M193.35617,87.92623l-.22864.10657a5.03185,5.03185,0,0,0-.15942-1.47748c-2.02734-7.16235-20.27649-8.74274-45.66333-5.14722-.15234-.65533-.31458-1.31049-.49976-1.96472a41.81791,41.81791,0,0,0-9.2052-16.67914q-.88312-.97861-1.82532-1.8938l-.043-.04285c-.63362-.61364-1.279-1.21333-1.95044-1.78137l-.00317-.00281L133.775,59.041a41.18733,41.18733,0,0,0-6.61768-4.6568c-.0415-.02362-.0835-.04669-.125-.07019q-.62842-.35468-1.26831-.68756c-.05859-.0304-.11694-.06073-.17566-.09088q-.63483-.32648-1.2804-.63135c-.05054-.02393-.10107-.0484-.15186-.07214-.46875-.21906-.94012-.43255-1.41772-.63214l-.0144-.00641-.00024.00012a41.98577,41.98577,0,0,0-56.73657,50.126c.18518.65424.39038,1.29718.60425,1.93512-23.505,10.24384-38.21851,21.1546-36.19116,28.317a5.03159,5.03159,0,0,0,.63867,1.34186l-.25049.02905s6.19971,16.17371,48.34717,11.60626l5.948,21.01312a4.33188,4.33188,0,1,0,3.821-1.08185l-5.77881-20.415a259.93438,259.93438,0,0,0,36.387-7.84473,265.258,265.258,0,0,0,33.547-11.7016l5.71338,20.18445a4.33223,4.33223,0,1,0,3.821-1.08173l-5.87341-20.74969C196.632,105.40224,193.35617,87.92623,193.35617,87.92623Z"/><path class="cls-36" d="M192.64927,87.21933l-.22864.10657a5.03184,5.03184,0,0,0-.15942-1.47748c-2.02734-7.16235-20.27649-8.74274-45.66333-5.14722-.15234-.65533-.31458-1.31049-.49976-1.96472a41.81791,41.81791,0,0,0-9.2052-16.67914q-.88312-.97861-1.82532-1.8938l-.043-.04285c-.63362-.61364-1.279-1.21333-1.95044-1.78137l-.00317-.00281-.00293-.00244a41.18733,41.18733,0,0,0-6.61768-4.6568c-.0415-.02362-.0835-.04669-.125-.07019q-.62842-.35468-1.26831-.68756c-.05859-.0304-.11694-.06073-.17566-.09088q-.63483-.32648-1.2804-.63135c-.05054-.02393-.10107-.0484-.15186-.07214-.46875-.21906-.94012-.43255-1.41772-.63214l-.0144-.00641-.00024.00012a41.98577,41.98577,0,0,0-56.73657,50.126c.18518.65424.39038,1.29718.60425,1.93512-23.505,10.24384-38.21851,21.1546-36.19116,28.317a5.03159,5.03159,0,0,0,.63867,1.34186l-.25049.02905s6.19971,16.17371,48.34717,11.60626l5.948,21.01312a4.33188,4.33188,0,1,0,3.821-1.08185l-5.77881-20.415a259.93434,259.93434,0,0,0,36.387-7.84473,265.258,265.258,0,0,0,33.547-11.7016l5.71338,20.18445a4.33223,4.33223,0,1,0,3.821-1.08173L156.0139,123.165C195.92515,104.69535,192.64927,87.21933,192.64927,87.21933Z"/><path class="cls-37" d="M191.94238,86.51244l-.22864.10657a5.03185,5.03185,0,0,0-.15942-1.47748c-2.02734-7.16235-20.27649-8.74274-45.66333-5.14722-.15234-.65533-.31458-1.31049-.49976-1.96472a41.81791,41.81791,0,0,0-9.2052-16.67914q-.88312-.97861-1.82532-1.8938l-.043-.04285c-.63362-.61364-1.279-1.21333-1.95044-1.78137l-.00317-.00281-.00293-.00244a41.18733,41.18733,0,0,0-6.61768-4.6568c-.0415-.02362-.0835-.04669-.125-.07019q-.62842-.35468-1.26831-.68756c-.05859-.0304-.11694-.06073-.17566-.09088q-.63483-.32648-1.2804-.63135c-.05054-.02393-.10107-.0484-.15186-.07214-.46875-.21906-.94012-.43255-1.41772-.63214l-.0144-.00641-.00024.00012a41.98577,41.98577,0,0,0-56.73657,50.126c.18518.65424.39038,1.29718.60425,1.93512-23.505,10.24384-38.21851,21.1546-36.19116,28.317a5.03159,5.03159,0,0,0,.63867,1.34186l-.25049.02905s6.19971,16.17371,48.34717,11.60626l5.948,21.01312a4.33188,4.33188,0,1,0,3.821-1.08185l-5.77881-20.415a259.93438,259.93438,0,0,0,36.387-7.84473,265.258,265.258,0,0,0,33.547-11.7016l5.71338,20.18445a4.33223,4.33223,0,1,0,3.821-1.08173L155.307,122.45811C195.21825,103.98845,191.94238,86.51244,191.94238,86.51244Z"/><path class="cls-38" d="M191.23548,85.80554l-.22864.10657a5.03184,5.03184,0,0,0-.15942-1.47748c-2.02734-7.16235-20.27649-8.74274-45.66333-5.14722-.15234-.65533-.31458-1.31049-.49976-1.96472a41.81791,41.81791,0,0,0-9.2052-16.67914q-.88312-.97861-1.82532-1.8938l-.043-.04285c-.63362-.61364-1.279-1.21333-1.95044-1.78137l-.00317-.00281-.00293-.00244a41.18733,41.18733,0,0,0-6.61768-4.6568c-.0415-.02362-.0835-.04669-.125-.07019q-.62842-.35468-1.26831-.68756c-.05859-.0304-.11694-.06073-.17566-.09088q-.63483-.32648-1.2804-.63135c-.05054-.02393-.10107-.0484-.15186-.07214-.46875-.21906-.94012-.43255-1.41772-.63214l-.0144-.00641-.00024.00012a41.98577,41.98577,0,0,0-56.73657,50.126c.18518.65424.39038,1.29718.60425,1.93512-23.505,10.24384-38.21851,21.1546-36.19116,28.317a5.03159,5.03159,0,0,0,.63867,1.34186l-.25049.02905s6.19971,16.17371,48.34717,11.60626l5.948,21.01312a4.33188,4.33188,0,1,0,3.821-1.08185l-5.77881-20.415a259.93436,259.93436,0,0,0,36.387-7.84473,265.258,265.258,0,0,0,33.547-11.7016l5.71338,20.18445a4.33223,4.33223,0,1,0,3.821-1.08173l-5.87341-20.74969C194.51136,103.28155,191.23548,85.80554,191.23548,85.80554Z"/><path class="cls-39" d="M190.52858,85.09864l-.22864.10657a5.03185,5.03185,0,0,0-.15942-1.47748c-2.02734-7.16235-20.27649-8.74274-45.66333-5.14722-.15234-.65533-.31458-1.31049-.49976-1.96472a41.81791,41.81791,0,0,0-9.2052-16.67914q-.88312-.97861-1.82532-1.8938L132.90395,58c-.63362-.61364-1.279-1.21333-1.95044-1.78137l-.00317-.00281-.00293-.00244a41.18733,41.18733,0,0,0-6.61768-4.6568c-.0415-.02362-.0835-.04669-.125-.07019q-.62842-.35468-1.26831-.68756c-.05859-.0304-.11694-.06073-.17566-.09088q-.63483-.32648-1.2804-.63135c-.05054-.02393-.10107-.0484-.15186-.07214-.46875-.21906-.94012-.43255-1.41772-.63214l-.0144-.00641-.00024.00012a41.98577,41.98577,0,0,0-56.73657,50.126c.18518.65424.39038,1.29718.60425,1.93512-23.505,10.24384-38.21851,21.1546-36.19116,28.317a5.03159,5.03159,0,0,0,.63867,1.34186l-.25049.02905s6.19971,16.17371,48.34717,11.60626l5.948,21.01312a4.33188,4.33188,0,1,0,3.821-1.08185l-5.77881-20.415a259.93438,259.93438,0,0,0,36.387-7.84473,265.258,265.258,0,0,0,33.547-11.7016l5.71338,20.18445a4.33223,4.33223,0,1,0,3.821-1.08173l-5.87341-20.74969C193.80446,102.57466,190.52858,85.09864,190.52858,85.09864Z"/><path class="cls-40" d="M189.82169,84.39175l-.22864.10657a5.03185,5.03185,0,0,0-.15942-1.47748c-2.02734-7.16235-20.27649-8.74274-45.66333-5.14722-.15234-.65533-.31458-1.31049-.49976-1.96472a41.81791,41.81791,0,0,0-9.2052-16.67914q-.88312-.97861-1.82532-1.8938l-.043-.04285c-.63362-.61364-1.279-1.21333-1.95044-1.78137l-.00317-.00281-.00293-.00244a41.18733,41.18733,0,0,0-6.61768-4.6568c-.0415-.02362-.0835-.04669-.125-.07019q-.62842-.35468-1.26831-.68756c-.05859-.0304-.11694-.06073-.17566-.09088q-.63483-.32648-1.2804-.63135c-.05054-.02393-.10107-.0484-.15186-.07214-.46875-.21906-.94012-.43255-1.41772-.63214l-.0144-.00641-.00024.00012a41.98577,41.98577,0,0,0-56.73657,50.126c.18518.65424.39038,1.29718.60425,1.93512-23.505,10.24384-38.21851,21.1546-36.19116,28.317a5.03159,5.03159,0,0,0,.63867,1.34186l-.25049.02905s6.19971,16.17371,48.34717,11.60626l5.948,21.01312a4.33188,4.33188,0,1,0,3.821-1.08185l-5.77881-20.415a259.93436,259.93436,0,0,0,36.387-7.84473,265.258,265.258,0,0,0,33.547-11.7016l5.71338,20.18445a4.33223,4.33223,0,1,0,3.821-1.08173l-5.87341-20.74969C193.09757,101.86776,189.82169,84.39175,189.82169,84.39175Z"/><path class="cls-41" d="M189.11479,83.68485l-.22864.10657a5.03185,5.03185,0,0,0-.15942-1.47748c-2.02734-7.16235-20.27649-8.74274-45.66333-5.14722-.15234-.65533-.31458-1.31049-.49976-1.96472a41.81791,41.81791,0,0,0-9.2052-16.67914q-.88312-.97861-1.82532-1.8938l-.043-.04285c-.63362-.61364-1.279-1.21333-1.95044-1.78137l-.00317-.00281-.00293-.00244a41.18733,41.18733,0,0,0-6.61768-4.6568c-.0415-.02362-.0835-.04669-.125-.07019q-.62842-.35468-1.26831-.68756c-.05859-.0304-.11694-.06073-.17566-.09088q-.63483-.32648-1.2804-.63135c-.05054-.02393-.10107-.0484-.15186-.07214-.46875-.21906-.94012-.43255-1.41772-.63214l-.0144-.00641-.00024.00012a41.98577,41.98577,0,0,0-56.73657,50.126c.18518.65424.39038,1.29718.60425,1.93512-23.505,10.24384-38.21851,21.1546-36.19116,28.317a5.03159,5.03159,0,0,0,.63867,1.34186l-.25049.02905s6.19971,16.17371,48.34717,11.60626l5.948,21.01312a4.33188,4.33188,0,1,0,3.821-1.08185l-5.77881-20.415a259.93436,259.93436,0,0,0,36.387-7.84473,265.258,265.258,0,0,0,33.547-11.7016l5.71338,20.18445a4.33223,4.33223,0,1,0,3.821-1.08173l-5.87341-20.74969C192.39067,101.16086,189.11479,83.68485,189.11479,83.68485Z"/><path class="cls-42" d="M188.40789,82.978l-.22864.10657a5.03185,5.03185,0,0,0-.15942-1.47748c-2.02734-7.16235-20.27649-8.74274-45.66333-5.14722-.15234-.65533-.31458-1.31049-.49976-1.96472a41.81791,41.81791,0,0,0-9.2052-16.67914q-.88312-.97861-1.82532-1.8938l-.043-.04285c-.63362-.61364-1.279-1.21333-1.95044-1.78137l-.00317-.00281-.00293-.00244a41.18734,41.18734,0,0,0-6.61768-4.6568c-.0415-.02362-.0835-.04669-.125-.07019q-.62842-.35468-1.26831-.68756c-.05859-.0304-.11694-.06073-.17566-.09088q-.63483-.32648-1.2804-.63135c-.05054-.02393-.10107-.0484-.15186-.07214-.46875-.21906-.94012-.43255-1.41772-.63214l-.0144-.00641-.00024.00012a41.98577,41.98577,0,0,0-56.73657,50.126c.18518.65424.39038,1.29718.60425,1.93512-23.505,10.24384-38.21851,21.1546-36.19116,28.317a5.03159,5.03159,0,0,0,.63867,1.34186l-.25049.02905s6.19971,16.17371,48.34717,11.60626l5.948,21.01312a4.33188,4.33188,0,1,0,3.821-1.08185l-5.77881-20.415a259.93436,259.93436,0,0,0,36.387-7.84473,265.258,265.258,0,0,0,33.547-11.7016l5.71338,20.18445a4.33223,4.33223,0,1,0,3.821-1.08173l-5.87341-20.74969C191.68377,100.454,188.40789,82.978,188.40789,82.978Z"/><path class="cls-43" d="M187.701,82.27106l-.22864.10657a5.03185,5.03185,0,0,0-.15942-1.47748c-2.02734-7.16235-20.27649-8.74274-45.66333-5.14722-.15234-.65533-.31458-1.31049-.49976-1.96472a41.81791,41.81791,0,0,0-9.2052-16.67914q-.88312-.97861-1.82532-1.8938l-.043-.04285c-.63362-.61364-1.279-1.21333-1.95044-1.78137l-.00317-.00281-.00293-.00244a41.18733,41.18733,0,0,0-6.61768-4.6568c-.0415-.02362-.0835-.04669-.125-.07019q-.62842-.35468-1.26831-.68756c-.05859-.0304-.11694-.06073-.17566-.09088q-.63483-.32648-1.2804-.63135c-.05054-.02393-.10107-.0484-.15186-.07214-.46875-.21906-.94012-.43255-1.41772-.63214l-.0144-.00641-.00024.00012A41.98577,41.98577,0,0,0,60.332,96.66449c.18518.65424.39038,1.29718.60425,1.93512-23.505,10.24384-38.21851,21.1546-36.19116,28.317a5.03159,5.03159,0,0,0,.63867,1.34186l-.25049.02905s6.19971,16.17371,48.34717,11.60626l5.948,21.01312a4.33188,4.33188,0,1,0,3.821-1.08185L77.47065,139.41a259.93436,259.93436,0,0,0,36.387-7.84473,265.258,265.258,0,0,0,33.547-11.7016l5.71338,20.18445a4.33223,4.33223,0,1,0,3.821-1.08173l-5.87341-20.74969C190.97688,99.74707,187.701,82.27106,187.701,82.27106Z"/><path class="cls-44" d="M186.9941,81.56416l-.22864.10657a5.03185,5.03185,0,0,0-.15942-1.47748c-2.02734-7.16235-20.27649-8.74274-45.66333-5.14722-.15234-.65533-.31458-1.31049-.49976-1.96472a41.81791,41.81791,0,0,0-9.2052-16.67914q-.88312-.97861-1.82532-1.8938l-.043-.04285c-.63362-.61364-1.279-1.21333-1.95044-1.78137l-.00317-.00281-.00293-.00244a41.18734,41.18734,0,0,0-6.61768-4.6568c-.0415-.02362-.0835-.04669-.125-.07019q-.62842-.35468-1.26831-.68756c-.05859-.0304-.11694-.06073-.17566-.09088q-.63483-.32648-1.2804-.63135c-.05054-.02393-.10107-.0484-.15186-.07214-.46875-.21906-.94012-.43255-1.41772-.63214l-.0144-.00641-.00024.00012a41.98577,41.98577,0,0,0-56.73657,50.126c.18518.65424.39038,1.29718.60425,1.93512-23.505,10.24384-38.21851,21.1546-36.19116,28.317a5.03159,5.03159,0,0,0,.63867,1.34186l-.25049.02905s6.19971,16.17371,48.34717,11.60626L78.72152,160.2a4.33188,4.33188,0,1,0,3.821-1.08185l-5.77881-20.415a259.93436,259.93436,0,0,0,36.387-7.84473,265.258,265.258,0,0,0,33.547-11.7016l5.71338,20.18445a4.33223,4.33223,0,1,0,3.821-1.08173l-5.87341-20.74969C190.27,99.04017,186.9941,81.56416,186.9941,81.56416Z"/><path class="cls-45" d="M186.2872,80.85726l-.22864.10657a5.03184,5.03184,0,0,0-.15942-1.47748c-2.02734-7.16235-20.27649-8.74274-45.66333-5.14722-.15234-.65533-.31458-1.31049-.49976-1.96472a41.81791,41.81791,0,0,0-9.2052-16.67914q-.88312-.97861-1.82532-1.8938l-.043-.04285c-.63362-.61364-1.279-1.21333-1.95044-1.78137l-.00317-.00281L126.706,51.972a41.18733,41.18733,0,0,0-6.61768-4.6568c-.0415-.02362-.0835-.04669-.125-.07019q-.62842-.35468-1.26831-.68756c-.05859-.0304-.11694-.06073-.17566-.09088q-.63483-.32648-1.2804-.63135c-.05054-.02393-.10107-.0484-.15186-.07214-.46875-.21906-.94012-.43255-1.41772-.63214l-.0144-.00641-.00024.00012a41.98577,41.98577,0,0,0-56.73657,50.126c.18518.65424.39038,1.29718.60425,1.93512-23.505,10.24384-38.21851,21.1546-36.19116,28.317a5.03159,5.03159,0,0,0,.63867,1.34186l-.25049.02905s6.19971,16.17371,48.34717,11.60626l5.948,21.01312a4.33188,4.33188,0,1,0,3.821-1.08185l-5.77881-20.415a259.93436,259.93436,0,0,0,36.387-7.84473,265.258,265.258,0,0,0,33.547-11.7016l5.71338,20.18445a4.33223,4.33223,0,1,0,3.821-1.08173l-5.87341-20.74969C189.56308,98.33328,186.2872,80.85726,186.2872,80.85726Z"/><path class="cls-46" d="M185.58031,80.15037l-.22864.10657a5.03185,5.03185,0,0,0-.15942-1.47748c-2.02734-7.16235-20.27649-8.74274-45.66333-5.14722-.15234-.65533-.31458-1.31049-.49976-1.96472a41.81791,41.81791,0,0,0-9.2052-16.67914q-.88312-.97861-1.82532-1.8938l-.043-.04285c-.63362-.61364-1.279-1.21333-1.95044-1.78137l-.00317-.00281-.00293-.00244a41.18734,41.18734,0,0,0-6.61768-4.6568c-.0415-.02362-.0835-.04669-.125-.07019q-.62842-.35468-1.26831-.68756c-.05859-.0304-.11694-.06073-.17566-.09088q-.63483-.32648-1.2804-.63135c-.05054-.02393-.10107-.0484-.15186-.07214-.46875-.21906-.94012-.43255-1.41772-.63214l-.0144-.00641-.00024.00012a41.98577,41.98577,0,0,0-56.73657,50.126c.18518.65424.39038,1.29718.60425,1.93512-23.505,10.24384-38.21851,21.1546-36.19116,28.317a5.03159,5.03159,0,0,0,.63867,1.34186l-.25049.02905s6.19971,16.17371,48.34717,11.60626l5.948,21.01312a4.33188,4.33188,0,1,0,3.821-1.08185L75.35,137.28934a259.93436,259.93436,0,0,0,36.387-7.84473,265.258,265.258,0,0,0,33.547-11.7016l5.71338,20.18445a4.33223,4.33223,0,1,0,3.821-1.08173L148.94493,116.096C188.85619,97.62638,185.58031,80.15037,185.58031,80.15037Z"/><path class="cls-47" d="M184.87341,79.44347l-.22864.10657a5.03184,5.03184,0,0,0-.15942-1.47748c-2.02734-7.16235-20.27649-8.74274-45.66333-5.14722-.15234-.65533-.31458-1.31049-.49976-1.96472a41.81791,41.81791,0,0,0-9.2052-16.67914q-.88312-.97861-1.82532-1.8938l-.043-.04285c-.63362-.61364-1.279-1.21333-1.95044-1.78137l-.00317-.00281-.00293-.00244a41.18733,41.18733,0,0,0-6.61768-4.6568c-.0415-.02362-.0835-.04669-.125-.07019q-.62842-.35468-1.26831-.68756c-.05859-.0304-.11694-.06073-.17566-.09088q-.63483-.32648-1.2804-.63135c-.05054-.02393-.10107-.0484-.15186-.07214-.46875-.21906-.94012-.43255-1.41772-.63214l-.0144-.00641-.00024.00012a41.98577,41.98577,0,0,0-56.73657,50.126c.18518.65424.39038,1.29718.60425,1.93512-23.505,10.24384-38.21851,21.1546-36.19116,28.317a5.03159,5.03159,0,0,0,.63867,1.34186l-.25049.02905s6.19971,16.17371,48.34717,11.60626l5.948,21.01312a4.33188,4.33188,0,1,0,3.821-1.08185l-5.77881-20.415a259.93436,259.93436,0,0,0,36.387-7.84473,265.258,265.258,0,0,0,33.547-11.7016l5.71338,20.18445a4.33223,4.33223,0,1,0,3.821-1.08173L148.238,115.38915C188.14929,96.91948,184.87341,79.44347,184.87341,79.44347Z"/><path class="cls-48" d="M184.16651,78.73657l-.22864.10657a5.03185,5.03185,0,0,0-.15942-1.47748c-2.02734-7.16235-20.27649-8.74274-45.66333-5.14722-.15234-.65533-.31458-1.31049-.49976-1.96472a41.81791,41.81791,0,0,0-9.2052-16.67914q-.88312-.97861-1.82532-1.8938l-.043-.04285c-.63362-.61364-1.279-1.21333-1.95044-1.78137l-.00317-.00281-.00293-.00244a41.18734,41.18734,0,0,0-6.61768-4.6568c-.0415-.02362-.0835-.04669-.125-.07019q-.62842-.35468-1.26831-.68756c-.05859-.0304-.11694-.06073-.17566-.09088q-.63483-.32648-1.2804-.63135c-.05054-.02393-.10107-.0484-.15186-.07214-.46875-.21906-.94012-.43255-1.41772-.63214l-.0144-.00641-.00024.00012A41.98577,41.98577,0,0,0,56.7975,93.13c.18518.65424.39038,1.29718.60425,1.93512-23.505,10.24384-38.21851,21.1546-36.19116,28.317a5.03159,5.03159,0,0,0,.63867,1.34186l-.25049.02905s6.19971,16.17371,48.34717,11.60626l5.948,21.01312a4.33188,4.33188,0,1,0,3.821-1.08185l-5.77881-20.415a259.93436,259.93436,0,0,0,36.387-7.84473,265.258,265.258,0,0,0,33.547-11.7016l5.71338,20.18445a4.33223,4.33223,0,1,0,3.821-1.08173l-5.87341-20.74969C187.44239,96.21259,184.16651,78.73657,184.16651,78.73657Z"/><path class="cls-49" d="M183.45962,78.02968l-.22864.10657a5.03184,5.03184,0,0,0-.15942-1.47748c-2.02734-7.16235-20.27649-8.74274-45.66333-5.14722-.15234-.65533-.31458-1.31049-.49976-1.96472a41.81791,41.81791,0,0,0-9.2052-16.67914q-.88312-.97861-1.82532-1.8938l-.043-.04285c-.63362-.61364-1.279-1.21333-1.95044-1.78137l-.00317-.00281-.00293-.00244a41.18733,41.18733,0,0,0-6.61768-4.6568c-.0415-.02362-.0835-.04669-.125-.07019q-.62842-.35468-1.26831-.68756c-.05859-.0304-.11694-.06073-.17566-.09088q-.63483-.32648-1.2804-.63135c-.05054-.02393-.10107-.0484-.15186-.07214-.46875-.21906-.94012-.43255-1.41772-.63214l-.0144-.00641-.00024.00012a41.98577,41.98577,0,0,0-56.73657,50.126c.18518.65424.39038,1.29718.60425,1.93512-23.505,10.24384-38.21851,21.1546-36.19116,28.317a5.03159,5.03159,0,0,0,.63867,1.34186l-.25049.02905S27.09158,140.2198,69.239,135.65236l5.948,21.01312a4.33188,4.33188,0,1,0,3.821-1.08185l-5.77881-20.415a259.93436,259.93436,0,0,0,36.387-7.84473,265.258,265.258,0,0,0,33.547-11.7016l5.71338,20.18445a4.33223,4.33223,0,1,0,3.821-1.08173l-5.87341-20.74969C186.7355,95.50569,183.45962,78.02968,183.45962,78.02968Z"/><path class="cls-50" d="M182.75272,77.32278l-.22864.10657a5.03185,5.03185,0,0,0-.15942-1.47748c-2.02734-7.16235-20.27649-8.74274-45.66333-5.14722-.15234-.65533-.31458-1.31049-.49976-1.96472a41.81791,41.81791,0,0,0-9.2052-16.67914q-.88312-.97861-1.82532-1.8938l-.043-.04285c-.63362-.61364-1.279-1.21333-1.95044-1.78137l-.00317-.00281-.00293-.00244a41.18734,41.18734,0,0,0-6.61768-4.6568c-.0415-.02362-.0835-.04669-.125-.07019q-.62842-.35468-1.26831-.68756c-.05859-.0304-.11694-.06073-.17566-.09088q-.63483-.32648-1.2804-.63135c-.05054-.02393-.10107-.0484-.15186-.07214-.46875-.21906-.94012-.43255-1.41772-.63214l-.0144-.00641-.00024.00012a41.98577,41.98577,0,0,0-56.73657,50.126c.18518.65424.39038,1.29718.60425,1.93512-23.505,10.24384-38.21851,21.1546-36.19116,28.317a5.03159,5.03159,0,0,0,.63867,1.34186l-.25049.02905s6.19971,16.17371,48.34717,11.60626l5.948,21.01312a4.33188,4.33188,0,1,0,3.821-1.08185l-5.77881-20.415a259.93436,259.93436,0,0,0,36.387-7.84473,265.258,265.258,0,0,0,33.547-11.7016l5.71338,20.18445a4.33223,4.33223,0,1,0,3.821-1.08173l-5.87341-20.74969C186.0286,94.79879,182.75272,77.32278,182.75272,77.32278Z"/><path class="cls-51" d="M182.04582,76.61588l-.22864.10657a5.03184,5.03184,0,0,0-.15942-1.47748c-2.02734-7.16235-20.27649-8.74274-45.66333-5.14722-.15234-.65533-.31458-1.31049-.49976-1.96472a41.81791,41.81791,0,0,0-9.2052-16.67914q-.88312-.97861-1.82532-1.8938l-.043-.04285c-.63362-.61364-1.279-1.21333-1.95044-1.78137l-.00317-.00281-.00293-.00244a41.18733,41.18733,0,0,0-6.61768-4.6568c-.0415-.02362-.0835-.04669-.125-.07019q-.62842-.35468-1.26831-.68756c-.05859-.0304-.11694-.06073-.17566-.09088q-.63483-.32648-1.2804-.63135c-.05054-.02393-.10107-.0484-.15186-.07214-.46875-.21906-.94012-.43255-1.41772-.63214l-.0144-.00641-.00024.00012a41.98577,41.98577,0,0,0-56.73657,50.126c.18518.65424.39038,1.29718.60425,1.93512-23.505,10.24384-38.21851,21.1546-36.19116,28.317a5.03159,5.03159,0,0,0,.63867,1.34186l-.25049.02905s6.19971,16.17371,48.34717,11.60626l5.948,21.01312a4.33188,4.33188,0,1,0,3.821-1.08185l-5.77881-20.415a259.93436,259.93436,0,0,0,36.387-7.84473,265.258,265.258,0,0,0,33.547-11.7016l5.71338,20.18445a4.33223,4.33223,0,1,0,3.821-1.08173l-5.87341-20.74969C185.3217,94.0919,182.04582,76.61588,182.04582,76.61588Z"/><path class="cls-52" d="M181.33893,75.909l-.22864.10657a5.03185,5.03185,0,0,0-.15942-1.47748c-2.02734-7.16235-20.27649-8.74274-45.66333-5.14722-.15234-.65533-.31458-1.31049-.49976-1.96472a41.81791,41.81791,0,0,0-9.2052-16.67914q-.88312-.97861-1.82532-1.8938l-.043-.04285c-.63362-.61364-1.279-1.21333-1.95044-1.78137l-.00317-.00281-.00293-.00244a41.18733,41.18733,0,0,0-6.61768-4.6568c-.0415-.02362-.0835-.04669-.125-.07019q-.62842-.35468-1.26831-.68756c-.05859-.0304-.11694-.06073-.17566-.09088q-.63483-.32648-1.2804-.63135c-.05054-.02393-.10107-.0484-.15186-.07214-.46875-.21906-.94012-.43255-1.41772-.63214l-.0144-.00641-.00024.00012a41.98577,41.98577,0,0,0-56.73657,50.126c.18518.65424.39038,1.29718.60425,1.93512-23.505,10.24384-38.21851,21.1546-36.19116,28.317a5.03159,5.03159,0,0,0,.63867,1.34186l-.25049.02905s6.19971,16.17371,48.34717,11.60626l5.948,21.01312a4.33188,4.33188,0,1,0,3.821-1.08185l-5.77881-20.415a259.93436,259.93436,0,0,0,36.387-7.84473,265.258,265.258,0,0,0,33.547-11.7016l5.71338,20.18445a4.33223,4.33223,0,1,0,3.821-1.08173l-5.87341-20.74969C184.61481,93.385,181.33893,75.909,181.33893,75.909Z"/><path class="cls-53" d="M180.632,75.20209l-.22864.10657a5.03184,5.03184,0,0,0-.15942-1.47748c-2.02734-7.16235-20.27649-8.74274-45.66333-5.14722-.15234-.65533-.31458-1.31049-.49976-1.96472a41.81791,41.81791,0,0,0-9.2052-16.67914q-.88312-.97861-1.82532-1.8938l-.043-.04285c-.63362-.61364-1.279-1.21333-1.95044-1.78137l-.00317-.00281-.00293-.00244a41.18733,41.18733,0,0,0-6.61768-4.6568c-.0415-.02362-.0835-.04669-.125-.07019q-.62842-.35468-1.26831-.68756c-.05859-.0304-.11694-.06073-.17566-.09088q-.63483-.32648-1.2804-.63135c-.05054-.02393-.10107-.0484-.15186-.07214-.46875-.21906-.94012-.43255-1.41772-.63214l-.0144-.00641-.00024.00012A41.98577,41.98577,0,0,0,53.263,89.59552c.18518.65424.39038,1.29718.60425,1.93512-23.505,10.24384-38.21851,21.1546-36.19116,28.317a5.03159,5.03159,0,0,0,.63867,1.34186l-.25049.02905s6.19971,16.17371,48.34717,11.60626l5.948,21.01312a4.33188,4.33188,0,1,0,3.821-1.08185l-5.77881-20.415a259.93436,259.93436,0,0,0,36.387-7.84473,265.258,265.258,0,0,0,33.547-11.7016l5.71338,20.18445a4.33223,4.33223,0,1,0,3.821-1.08173l-5.87341-20.74969C183.90791,92.6781,180.632,75.20209,180.632,75.20209Z"/><path class="cls-54" d="M179.92513,74.49519l-.22864.10657a5.03185,5.03185,0,0,0-.15942-1.47748c-2.02734-7.16235-20.27649-8.74274-45.66333-5.14722-.15234-.65533-.31458-1.31049-.49976-1.96472a41.81791,41.81791,0,0,0-9.2052-16.67914q-.88312-.97861-1.82532-1.8938l-.043-.04285c-.63362-.61364-1.279-1.21333-1.95044-1.78137l-.00317-.00281-.00293-.00244a41.18733,41.18733,0,0,0-6.61768-4.6568c-.0415-.02362-.0835-.04669-.125-.07019q-.62842-.35468-1.26831-.68756c-.05859-.0304-.11694-.06073-.17566-.09088q-.63483-.32648-1.2804-.63135c-.05054-.02393-.10107-.0484-.15186-.07214-.46875-.21906-.94012-.43255-1.41772-.63214l-.0144-.00641-.00024.00012a41.98577,41.98577,0,0,0-56.73657,50.126c.18518.65424.39038,1.29718.60425,1.93512-23.505,10.24384-38.21851,21.1546-36.19116,28.317a5.03159,5.03159,0,0,0,.63867,1.34186l-.25049.02905s6.19971,16.17371,48.34717,11.60626l5.948,21.01312a4.33188,4.33188,0,1,0,3.821-1.08185l-5.77881-20.415a259.93437,259.93437,0,0,0,36.387-7.84473,265.258,265.258,0,0,0,33.547-11.7016l5.71338,20.18445a4.33223,4.33223,0,1,0,3.821-1.08173l-5.87341-20.74969C183.201,91.97121,179.92513,74.49519,179.92513,74.49519Z"/><path class="cls-55" d="M179.21824,73.7883l-.22864.10657a5.03184,5.03184,0,0,0-.15942-1.47748c-2.02734-7.16235-20.27649-8.74274-45.66333-5.14722-.15234-.65533-.31458-1.31049-.49976-1.96472a41.81791,41.81791,0,0,0-9.2052-16.67914q-.88312-.97861-1.82532-1.8938l-.043-.04285c-.63362-.61364-1.279-1.21333-1.95044-1.78137l-.00317-.00281-.00293-.00244a41.18733,41.18733,0,0,0-6.61768-4.6568c-.0415-.02362-.0835-.04669-.125-.07019q-.62842-.35468-1.26831-.68756c-.05859-.0304-.11694-.06073-.17566-.09088q-.63483-.32648-1.2804-.63135c-.05054-.02393-.10107-.0484-.15186-.07214-.46875-.21906-.94012-.43255-1.41772-.63214l-.0144-.00641-.00024.00012a41.98577,41.98577,0,0,0-56.73657,50.126c.18518.65424.39038,1.29718.60425,1.93512-23.505,10.24384-38.21851,21.1546-36.19116,28.317a5.03159,5.03159,0,0,0,.63867,1.34186l-.25049.02905S22.8502,135.97842,64.99766,131.411l5.948,21.01312a4.33188,4.33188,0,1,0,3.821-1.08185l-5.77881-20.415a259.93436,259.93436,0,0,0,36.387-7.84473,265.258,265.258,0,0,0,33.547-11.7016l5.71338,20.18445a4.33223,4.33223,0,1,0,3.821-1.08173L142.58286,109.734C182.49412,91.26431,179.21824,73.7883,179.21824,73.7883Z"/><path class="cls-56" d="M178.51134,73.0814l-.22864.10657a5.03185,5.03185,0,0,0-.15942-1.47748c-2.02734-7.16235-20.27649-8.74274-45.66333-5.14722-.15234-.65533-.31458-1.31049-.49976-1.96472a41.81791,41.81791,0,0,0-9.2052-16.67914q-.88312-.97861-1.82532-1.8938l-.043-.04285c-.63362-.61364-1.279-1.21333-1.95044-1.78137l-.00317-.00281-.00293-.00244a41.18733,41.18733,0,0,0-6.61768-4.6568c-.0415-.02362-.0835-.04669-.125-.07019q-.62842-.35468-1.26831-.68756c-.05859-.0304-.11694-.06073-.17566-.09088q-.63483-.32648-1.2804-.63135c-.05054-.02393-.10107-.0484-.15186-.07214-.46875-.21906-.94012-.43255-1.41772-.63214l-.0144-.00641-.00024.00012a41.98577,41.98577,0,0,0-56.73657,50.126c.18518.65424.39038,1.29718.60425,1.93512-23.505,10.24384-38.21851,21.1546-36.19116,28.317a5.03159,5.03159,0,0,0,.63867,1.34186l-.25049.02905s6.19971,16.17371,48.34717,11.60626l5.948,21.01312a4.33188,4.33188,0,1,0,3.821-1.08185l-5.77881-20.415a259.93437,259.93437,0,0,0,36.387-7.84473,265.258,265.258,0,0,0,33.547-11.7016l5.71338,20.18445a4.33223,4.33223,0,1,0,3.821-1.08173L141.876,109.02708C181.78722,90.55741,178.51134,73.0814,178.51134,73.0814Z"/><path class="cls-57" d="M177.80444,72.3745l-.22864.10657a5.03184,5.03184,0,0,0-.15942-1.47748c-2.02734-7.16235-20.27649-8.74274-45.66333-5.14722-.15234-.65533-.31458-1.31049-.49976-1.96472a41.81791,41.81791,0,0,0-9.2052-16.67914q-.88312-.97861-1.82532-1.8938l-.043-.04285c-.63362-.61364-1.279-1.21333-1.95044-1.78137l-.00317-.00281-.00293-.00244a41.18733,41.18733,0,0,0-6.61768-4.6568c-.0415-.02362-.0835-.04669-.125-.07019q-.62842-.35468-1.26831-.68756c-.05859-.0304-.11694-.06073-.17566-.09088q-.63483-.32648-1.2804-.63135c-.05054-.02393-.10107-.0484-.15186-.07214-.46875-.21906-.94012-.43255-1.41772-.63214l-.0144-.00641-.00024.00012a41.98577,41.98577,0,0,0-56.73657,50.126c.18518.65424.39038,1.29718.60425,1.93512-23.505,10.24384-38.21851,21.1546-36.19116,28.317a5.03159,5.03159,0,0,0,.63867,1.34186l-.25049.02905s6.19971,16.17371,48.34717,11.60626l5.948,21.01312a4.33188,4.33188,0,1,0,3.821-1.08185l-5.77881-20.415a259.93436,259.93436,0,0,0,36.387-7.84473,265.258,265.258,0,0,0,33.547-11.7016l5.71338,20.18445a4.33223,4.33223,0,1,0,3.821-1.08173l-5.87341-20.74969C181.08032,89.85052,177.80444,72.3745,177.80444,72.3745Z"/><path class="cls-58" d="M177.09755,71.66761l-.22864.10657a5.03185,5.03185,0,0,0-.15942-1.47748c-2.02734-7.16235-20.27649-8.74274-45.66333-5.14722-.15234-.65533-.31458-1.31049-.49976-1.96472a41.81791,41.81791,0,0,0-9.2052-16.67914q-.88312-.97861-1.82532-1.8938l-.043-.04285c-.63362-.61364-1.279-1.21333-1.95044-1.78137l-.00317-.00281-.00293-.00244a41.18733,41.18733,0,0,0-6.61768-4.6568c-.0415-.02362-.0835-.04669-.125-.07019q-.62842-.35468-1.26831-.68756c-.05859-.0304-.11694-.06073-.17566-.09088q-.63483-.32648-1.2804-.63135c-.05054-.02393-.10107-.0484-.15186-.07214-.46875-.21906-.94012-.43255-1.41772-.63214l-.0144-.00641-.00024.00012A41.98577,41.98577,0,0,0,49.72853,86.061c.18518.65424.39038,1.29718.60425,1.93512-23.505,10.24384-38.21851,21.1546-36.19116,28.317a5.03159,5.03159,0,0,0,.63867,1.34186l-.25049.02905s6.19971,16.17371,48.34717,11.60626l5.948,21.01312a4.33188,4.33188,0,1,0,3.821-1.08185l-5.77881-20.415a259.93437,259.93437,0,0,0,36.387-7.84473,265.258,265.258,0,0,0,33.547-11.7016l5.71338,20.18445a4.33223,4.33223,0,1,0,3.821-1.08173l-5.87341-20.74969C180.37343,89.14362,177.09755,71.66761,177.09755,71.66761Z"/><path class="cls-59" d="M176.39065,70.96071l-.22864.10657a5.03184,5.03184,0,0,0-.15942-1.47748c-2.02734-7.16235-20.27649-8.74274-45.66333-5.14722-.15234-.65533-.31458-1.31049-.49976-1.96472a41.81791,41.81791,0,0,0-9.2052-16.67914q-.88312-.97861-1.82532-1.8938l-.043-.04285c-.63362-.61364-1.279-1.21333-1.95044-1.78137l-.00317-.00281-.00293-.00244a41.18733,41.18733,0,0,0-6.61768-4.6568c-.0415-.02362-.0835-.04669-.125-.07019q-.62842-.35468-1.26831-.68756c-.05859-.0304-.11694-.06073-.17566-.09088q-.63483-.32648-1.2804-.63135c-.05054-.02393-.10107-.0484-.15186-.07214-.46875-.21906-.94012-.43255-1.41772-.63214l-.0144-.00641-.00024.00012a41.98577,41.98577,0,0,0-56.73657,50.126c.18518.65424.39038,1.29718.60425,1.93512-23.505,10.24384-38.21851,21.1546-36.19116,28.317a5.03159,5.03159,0,0,0,.63867,1.34186l-.25049.02905s6.19971,16.17371,48.34717,11.60626l5.948,21.01312a4.33188,4.33188,0,1,0,3.821-1.08185l-5.77881-20.415a259.93436,259.93436,0,0,0,36.387-7.84473,265.258,265.258,0,0,0,33.547-11.7016l5.71338,20.18445a4.33223,4.33223,0,1,0,3.821-1.08173l-5.87341-20.74969C179.66653,88.43672,176.39065,70.96071,176.39065,70.96071Z"/><path d="M175.68376,70.25382l-.22864.10657a5.03185,5.03185,0,0,0-.15942-1.47748c-2.02734-7.16235-20.27649-8.74274-45.66333-5.14722-.15234-.65533-.31458-1.31049-.49976-1.96472a41.81791,41.81791,0,0,0-9.2052-16.67914c-.58875-.6524-1.19934-1.282-1.82532-1.8938-.01465-.0141-.02832-.02875-.043-.04285q-.94757-.9234-1.95044-1.78137l-.00317-.00281-.00293-.00244a42.19934,42.19934,0,0,0-6.61768-4.6568c-.0415-.02362-.0835-.04669-.125-.07019q-.62842-.35468-1.26831-.68756c-.05859-.0304-.11694-.06073-.17566-.09088q-.63483-.32648-1.2804-.63135c-.05054-.02393-.10107-.0484-.15186-.07214q-.70312-.32858-1.41772-.63214l-.0144-.00641-.00024.00012a41.98577,41.98577,0,0,0-56.73657,50.126c.18518.65424.39038,1.29718.60425,1.93512-23.505,10.24384-38.21851,21.1546-36.19116,28.317a5.03159,5.03159,0,0,0,.63867,1.34186l-.25049.02905s6.19971,16.17371,48.34717,11.60626l5.948,21.01312a4.33188,4.33188,0,1,0,3.821-1.08185l-5.77881-20.415a259.93437,259.93437,0,0,0,36.387-7.84473,265.258,265.258,0,0,0,33.547-11.7016l5.71338,20.18445a4.33223,4.33223,0,1,0,3.821-1.08173l-5.87341-20.74969C178.95963,87.72983,175.68376,70.25382,175.68376,70.25382Z"/></g><g id="Ufo"><rect class="cls-60" x="63.42974" y="116.37664" width="3.97123" height="36.3438" transform="translate(-34.17251 22.90296) rotate(-15.80468)"/><circle class="cls-60" cx="70.36471" cy="152.03344" r="4.33226" transform="translate(-38.74757 24.91196) rotate(-15.80468)"/><rect class="cls-60" x="137.11943" y="95.51806" width="3.9712" height="36.3438" transform="translate(-25.7057 42.18445) rotate(-15.80468)"/><circle class="cls-60" cx="144.05445" cy="131.17484" r="4.3323" transform="translate(-30.28076 44.19347) rotate(-15.80468)"/><path class="cls-61" d="M98.12018,106.40525l-85.00423,9.865s9.80935,25.61551,88.72443,3.27783,73.84337-49.29423,73.84337-49.29423Z"/><ellipse class="cls-62" cx="94.01183" cy="91.89121" rx="84.47751" ry="20.0364" transform="translate(-21.47334 29.07883) rotate(-15.80468)"/><ellipse class="cls-62" cx="94.01183" cy="91.89121" rx="84.47751" ry="20.0364" transform="translate(-21.47334 29.07883) rotate(-15.80468)"/><path class="cls-63" d="M119.92744,45.09185h0A42.00773,42.00773,0,0,0,47.41232,65.618h0A42.08256,42.08256,0,0,0,56.56311,100.232a322.951,322.951,0,0,0,37.4487-8.34091,322.936,322.936,0,0,0,36.26406-12.5242,42.08031,42.08031,0,0,0-10.34843-34.27506Z"/><polygon class="cls-63" points="76.446 96.382 76.447 96.381 76.446 96.381 76.446 96.382"/><path class="cls-64" d="M119.92744,45.09185h0a42.33429,42.33429,0,0,0-14.87591-10.57073A62.84439,62.84439,0,0,0,88.11047,50.10822,10.46818,10.46818,0,1,1,78.8254,68.678a66.3566,66.3566,0,0,0-2.37974,27.70324l.001-.00027c5.70051-1.299,11.57773-2.79506,17.56518-4.48987a322.936,322.936,0,0,0,36.26406-12.5242,42.08031,42.08031,0,0,0-10.34843-34.27506Z"/><ellipse class="cls-65" cx="31.96938" cy="105.64489" rx="7.2207" ry="3.19995" transform="translate(-27.56474 12.70097) rotate(-15.80468)"/><ellipse class="cls-65" cx="150.15081" cy="72.19249" rx="7.2207" ry="3.19995" transform="translate(-13.98592 43.62408) rotate(-15.80468)"/><ellipse class="cls-65" cx="58.17877" cy="108.98217" rx="7.2207" ry="3.2002" transform="translate(-27.48285 19.96549) rotate(-15.80468)"/><ellipse class="cls-65" cx="131.86853" cy="88.12357" rx="7.2207" ry="3.2002" transform="translate(-19.01604 39.24701) rotate(-15.80468)"/><ellipse class="cls-65" cx="96.70423" cy="101.40297" rx="7.2207" ry="3.19995" transform="translate(-23.96216 30.17172) rotate(-15.80468)"/></g><g id="Star"><path class="cls-65" d="M15.26074,71.3045a7.93028,7.93028,0,0,1-9.79026-5.47044A7.92994,7.92994,0,0,1,0,75.6242a7.93,7.93,0,0,1,9.79017,5.47057A7.93031,7.93031,0,0,1,15.26074,71.3045Z"/><path class="cls-65" d="M169.49793,28.79614a5.93736,5.93736,0,0,1-7.33017-4.09591,5.93747,5.93747,0,0,1-4.09639,7.3303A5.93747,5.93747,0,0,1,165.402,36.1263,5.93736,5.93736,0,0,1,169.49793,28.79614Z"/><path class="cls-65" d="M56.90087,167.21174a10.93765,10.93765,0,0,1-13.50294-7.54509,10.93758,10.93758,0,0,1-7.54509,13.50294,10.93758,10.93758,0,0,1,13.50294,7.54509A10.93765,10.93765,0,0,1,56.90087,167.21174Z"/><path class="cls-65" d="M59.51714,7.96279A11.543,11.543,0,0,1,45.26668,0a11.543,11.543,0,0,1-7.96279,14.25046,11.543,11.543,0,0,1,14.25046,7.96279A11.543,11.543,0,0,1,59.51714,7.96279Z"/></g></g></g></svg>